<svg id="logo" xmlns="http://www.w3.org/2000/svg" width="182" height="34.227" viewBox="0 0 182 34.227">
  <path id="Path_1" data-name="Path 1" d="M131.983,34.241a16.966,16.966,0,0,0,14.106-7.3,1.911,1.911,0,1,0-2.906-2.481c-.071.071-.142.213-.213.284A13.378,13.378,0,1,1,132.054,3.761,13.1,13.1,0,0,1,142.4,8.794a1.887,1.887,0,0,0,2.623.213h0a1.823,1.823,0,0,0,.142-2.623,16.952,16.952,0,0,0-23.959-2.552A17.235,17.235,0,0,0,114.9,17.087,16.8,16.8,0,0,0,131.983,34.241Z" transform="translate(-33.455 -0.016)" fill="#4c4e60"/>
  <path id="Path_2" data-name="Path 2" d="M17.083,34.244a16.966,16.966,0,0,0,14.106-7.3,1.887,1.887,0,0,0-3.119-2.127h0A13.353,13.353,0,1,1,17.225,3.835,13.1,13.1,0,0,1,27.574,8.867,1.887,1.887,0,0,0,30.2,9.08h0a1.822,1.822,0,0,0,.142-2.623A16.99,16.99,0,0,0,6.309,3.835,17.235,17.235,0,0,0,0,17.09,16.841,16.841,0,0,0,17.083,34.244Z" transform="translate(0 -0.018)" fill="#4c4e60"/>
  <path id="Path_3" data-name="Path 3" d="M99.485,33.6a1.981,1.981,0,0,0,1.985-1.985h0V2.485A1.981,1.981,0,0,0,99.485.5,1.938,1.938,0,0,0,97.5,2.485V31.618A2.028,2.028,0,0,0,99.485,33.6Z" transform="translate(-28.389 -0.157)" fill="#4c4e60"/>
  <path id="Path_4" data-name="Path 4" d="M75.422,29.733H60.891c-.638,0-.921-.071-.921-.709V2.585A1.981,1.981,0,0,0,57.985.6h0A2.015,2.015,0,0,0,56,2.514v30.2a1,1,0,0,0,.992.921h18.43a1.95,1.95,0,0,0,0-3.9Z" transform="translate(-16.305 -0.186)" fill="#4c4e60"/>
  <path id="Path_5" data-name="Path 5" d="M194.759,30.767,183.2,15.173a1.4,1.4,0,0,1,.142-1.7l9.782-9.782a1.756,1.756,0,0,0-.071-2.41,1.61,1.61,0,0,0-1.134-.425,1.66,1.66,0,0,0-1.205.5L180.086,11.983c-1.843,1.843-3.828,3.9-4.82,4.891-.213.213-.5.071-.5-.284V2.485A1.981,1.981,0,0,0,172.785.5,1.938,1.938,0,0,0,170.8,2.485v29.2a2.028,2.028,0,0,0,1.985,1.985,1.981,1.981,0,0,0,1.985-1.985V22.757a1.627,1.627,0,0,1,.284-.992l3.828-3.9a1.311,1.311,0,0,1,1.772-.071l.142.142,10.987,14.886a1.85,1.85,0,0,0,1.418.709,1.91,1.91,0,0,0,1.063-.354,1.743,1.743,0,0,0,.567-2.41C194.829,30.838,194.829,30.838,194.759,30.767Z" transform="translate(-49.731 -0.157)" fill="#4c4e60"/>
  <path id="Path_6" data-name="Path 6" d="M242.166,12.7a1.812,1.812,0,0,0,2.552-.354l.071-.071,6.238-8.506a1.812,1.812,0,0,0-.354-2.552l-.071-.071a1.812,1.812,0,0,0-2.552.354l-.071.071-6.309,8.506A1.926,1.926,0,0,0,242.166,12.7Z" transform="translate(-70.274 -0.235)" fill="#4c4e60"/>
  <path id="Path_7" data-name="Path 7" d="M248.89,41.065a1.968,1.968,0,0,0,2.623.354,1.835,1.835,0,0,0,.354-2.623l-7.159-9.711a1.879,1.879,0,1,0-3.048,2.2Z" transform="translate(-70.264 -8.257)" fill="#4c4e60"/>
  <path id="Path_8" data-name="Path 8" d="M234.024,15.579,229.2,9.057l-5.458-7.372a1.91,1.91,0,0,0-2.623-.425,1.91,1.91,0,0,0-.425,2.623l8.577,11.625.071.142a2.024,2.024,0,0,1,0,2.339l-9.5,12.9a1.879,1.879,0,1,0,3.048,2.2h0l11.129-15.24A1.914,1.914,0,0,0,234.024,15.579Z" transform="translate(-63.904 -0.279)" fill="#f8b018"/>
</svg>
