<svg xmlns="http://www.w3.org/2000/svg" width="22.363" height="33.789" viewBox="0 0 22.363 33.789">
  <path id="icon-key" d="M188.109,1548.321a9.487,9.487,0,1,1,14.438,3.239l6.773,13.961a2.089,2.089,0,0,1-3.759,1.824l-.291-.6-2.53,1.227a1.377,1.377,0,1,1-1.2-2.475l.051-.025a.485.485,0,0,0,.225-.647l-.336-.692a.484.484,0,0,0-.647-.223l-.051.025a1.378,1.378,0,1,1-1.2-2.475l2.53-1.227-3.323-6.849A9.474,9.474,0,0,1,188.109,1548.321Zm10.856.644a5.318,5.318,0,1,0-7.125-2.454A5.328,5.328,0,0,0,198.966,1548.964Z" transform="translate(-187.166 -1534.725)" fill="#c0c1c1"/>
</svg>
