<?xml version="1.0" standalone="no"?>
<!DOCTYPE svg PUBLIC "-//W3C//DTD SVG 1.1//EN" "http://www.w3.org/Graphics/SVG/1.1/DTD/svg11.dtd">
<svg xmlns="http://www.w3.org/2000/svg" xmlns:xlink="http://www.w3.org/1999/xlink" version="1.1" x="0px" y="0px" viewBox="0 0 298.798 298.798" style="enable-background:new 0 0 298.798 298.798;" xml:space="preserve" width="106.059px" height="106.059px"><path d="M160.657,32.822c-6.781,0-12.278,5.497-12.278,12.278v70.866l24.557,24.557V45.1 C172.936,38.319,167.438,32.822,160.657,32.822z" fill="#d80027"/><path d="M131.188,41.827c-6.781,0-12.278,5.497-12.278,12.278v32.394l24.557,24.556V54.105 C143.467,47.324,137.97,41.827,131.188,41.827z" fill="#d80027"/><path d="M101.722,64.746c-1.371,0-2.685,0.234-3.916,0.648L114,81.589v-4.564C114,70.243,108.503,64.746,101.722,64.746z" fill="#d80027"/><path d="M229.256,121.19c-7.686-3.295-16.589,0.255-19.891,7.939l-6.962,16.212V63.928c0-6.781-5.497-12.278-12.278-12.278 c-6.781,0-12.278,5.497-12.278,12.278v78.329h-3.178l27.528,27.528l15.861,15.861l19.137-44.565 C240.495,133.395,236.94,124.491,229.256,121.19z" fill="#d80027"/><path d="M137.299,258.491h17.042c19.715,0,36.64-11.924,43.971-28.951l-87.284-87.283l-21.584-21.584v21.584h-0.001v68.378 C89.442,237.065,110.868,258.491,137.299,258.491z" fill="#d80027"/><path d="M149.398,0C66.863,0,0,67.213,0,149.399c0,82.379,67.02,149.398,149.398,149.398c82.313,0,149.399-67,149.399-149.398 C298.798,67.021,231.777,0,149.398,0z M149.398,276.001c-69.809,0-126.602-56.793-126.602-126.601 c0-30.136,10.631-58.699,29.698-81.374l178.277,178.277C208.073,265.397,179.483,276.001,149.398,276.001z M246.845,230.132 L68.665,51.953c21.932-18.197,50.096-29.156,80.733-29.156c69.809,0,126.602,56.794,126.602,126.603 C276.001,179.957,265.091,208.148,246.845,230.132z" fill="#d80027"/></svg>
