<?xml version="1.0" encoding="utf-8"?>
<!-- Generator: Adobe Illustrator 18.1.0, SVG Export Plug-In . SVG Version: 6.00 Build 0)  -->
<svg version="1.1" id="Layer_1" xmlns="http://www.w3.org/2000/svg" xmlns:xlink="http://www.w3.org/1999/xlink" x="0px" y="0px"
	 viewBox="0 0 960 560" enable-background="new 0 0 960 560" xml:space="preserve">
<g>
	<path fill="#4C4E60" d="M482.8,362.1c29.1,0,53.3-14,67.8-35.1c2.8-4.1,1.8-9.7-2.3-12.7c-4.1-2.8-9.7-1.8-12.7,2.3
		c-11.4,16.3-30.8,27.5-53,27.5c-33.4,0-63.9-27-63.9-64.2c0-37,30.4-64,63.9-64c22.7,0,39.2,10.5,50.4,24c3.1,3.8,8.9,4.1,12.7,0.8
		c3.8-3.3,3.9-8.7,0.8-12.7c-14.2-17.6-36.9-30.3-63.9-30.3c-43.3,0-81.8,34.6-81.8,82.1C401,327.6,437.5,362.1,482.8,362.1z"/>
	<path fill="#4C4E60" d="M92.1,362.1c29.1,0,53.3-14,67.8-35.1c2.8-4.1,1.8-9.7-2.3-12.7c-4.1-3-9.7-1.8-12.7,2.3
		c-11.4,16.3-30.8,27.5-53,27.5c-33.4,0-63.9-27-63.9-64.2c0-37,30.4-64,63.9-64c22.7,0,39.2,10.5,50.4,24c3.1,3.8,8.9,4.1,12.7,0.8
		c3.8-3.3,3.9-8.7,0.8-12.7c-14.2-17.6-36.9-30.3-63.9-30.3c-43.3,0-81.8,34.6-81.8,82.1C10.3,327.6,46.8,362.1,92.1,362.1z"/>
	<path fill="#4C4E60" d="M351.3,358.3c5.4,0,9.4-4.4,9.4-9.4V209.1c0-5.4-4.6-9.4-9.4-9.4c-4.8,0-9.4,3.9-9.4,9.4V349
		C342.1,353.9,346,358.3,351.3,358.3z"/>
	<path fill="#4C4E60" d="M293.9,339.6h-69.9c-3,0-4.6-0.3-4.6-3.3V209.2c0-5.1-4.1-9.4-9.4-9.4s-9.4,4.1-9.4,9.4v129.4v15.1
		c0,2.5,2.3,4.4,4.8,4.4h88.5c5.1,0,9.4-4.1,9.4-9.4C303.1,343.7,299,339.6,293.9,339.6z"/>
	<path fill="#4C4E60" d="M706.1,344.7l-55.5-74.9c-1.6-2.5-1.5-5.9,0.7-8.1l46.9-46.9c5.1-5.1,1.5-13.8-5.8-13.8
		c-2.1,0-4.1,0.8-5.8,2.3l-51,51c-8.9,8.9-18.3,18.8-23,23.4c-1,1-2.3,0.3-2.3-1.2v-20.4v-47.1c0-4.8-3.9-9.4-9.4-9.4
		c-5.4,0-9.4,4.4-9.4,9.4v47.1v47.4V349c0,5.1,4.3,9.4,9.4,9.4c5.1,0,9.4-4.1,9.4-9.4v-42.8c0-1.6,0.2-3.3,1.3-4.6l18.3-18.6
		c2.6-2.6,6.9-2.5,9.2,0.5l52.8,71.4c1.6,2.3,4.3,3.5,6.9,3.5c1.8,0,3.6-0.5,5.1-1.6C708.1,354.1,708.9,348.6,706.1,344.7z"/>
</g>
<g>
	<g>
		<path fill="#4C4E60" d="M834.7,257.6c4,3,9.5,2.1,12.5-2l30.1-40.8c3-3.9,2.1-9.5-2-12.5c-3.9-3-9.5-2.1-12.5,2l-30.1,40.8
			C829.9,249.1,830.7,254.7,834.7,257.6z"/>
		<path fill="#4C4E60" d="M867.1,355.2c3,3.9,9.1,4.4,12.5,1.8c3.9-3,4.8-8.6,1.8-12.5L847,297.8c-3-3.9-8.6-4.9-12.5-2
			s-4.9,8.6-2,12.5L867.1,355.2z"/>
		<path fill="#F8B018" d="M826.3,271.3l-23.2-31.4l-26.2-35.5c-3-3.9-8.6-4.9-12.5-2c-3.9,3-4.9,8.6-2,12.5l41.1,55.8l0.5,0.7
			c2.5,3.3,2.3,7.9,0,11.2l-45.8,62c-3,3.9-2.1,9.5,2,12.5c3.9,3,9.5,2.1,12.5-2l53.8-73.1C828.3,279.7,829.2,275.1,826.3,271.3z"/>
	</g>
	<g>
		<path fill="#4C4E60" d="M915.5,227.7h-2.8v-21.4h-7.6v-2.5h17.8v2.5h-7.6v21.4H915.5z"/>
		<path fill="#4C4E60" d="M937,227.7l-8.1-21.2h-0.2c0.2,1.6,0.2,3.6,0.2,5.9v15.1h-2.6v-23.9h4.1l7.6,19.7h0.2l7.6-19.7h4.1v23.9
			h-2.8v-15.3c0-1.8,0-3.6,0.2-5.8h0.3l-8.2,21.1H937V227.7z"/>
	</g>
</g>
</svg>
