<svg id="Capa_1" enable-background="new 0 0 512 512" height="512" viewBox="0 0 512 512" width="512" xmlns="http://www.w3.org/2000/svg"><g><g id="Error_404_2_"><g><path d="m406.009 331h-300c-35.521 0-56.728-39.29-38.174-68.818l150-242.296c16.582-26.514 59.766-26.514 76.348 0l150 242.282c18.479 29.468-2.563 68.832-38.174 68.832z" fill="#ffdf40"/></g><path d="m406.009 331c35.61 0 56.653-39.364 38.174-68.833l-150-242.282c-8.291-13.257-23.232-19.885-38.174-19.885v331z" fill="#ffbe40"/><g><path d="m241.009 91h30v120h-30z" fill="#4d5e80"/></g><path d="m256.009 91h15v120h-15z" fill="#3d4566"/><g><path d="m241.009 241h30v30h-30z" fill="#4d5e80"/></g><path d="m256.009 241h15v30h-15z" fill="#3d4566"/><g><path d="m151.009 361h-30v60h-30v-60h-30v90h60v61h30v-61h30v-30h-30z" fill="#4d5e80"/><path d="m451.009 421h-30v-60h-30v60h-30v-60h-30v90h60v61h30v-61h30z" fill="#3d4566"/><path d="m211.009 512h90v-151h-90zm30-121h30v91h-30z" fill="#4d5e80"/></g></g><path d="m256.009 391h15v91h-15v30h45v-151h-45z" fill="#3d4566"/></g></svg>