<svg id="icon-dont-know" xmlns="http://www.w3.org/2000/svg" width="86" height="65" viewBox="0 0 86 65">
  <g id="Group_4" data-name="Group 4" transform="translate(-304 -311)">
    <g id="Rectangle_1" data-name="Rectangle 1" transform="translate(304 311)" fill="#fff" stroke="#cbcbcb" stroke-width="1">
      <rect width="86" height="65" rx="3" stroke="none"/>
      <rect x="0.5" y="0.5" width="85" height="64" rx="2.5" fill="none"/>
    </g>
  </g>
  <path id="Path_1" data-name="Path 1" d="M6.152-7.523a9.856,9.856,0,0,1,.58-3.727A9.769,9.769,0,0,1,9.026-14.3,17.492,17.492,0,0,0,11.2-16.664a4.15,4.15,0,0,0,.7-2.32,3.551,3.551,0,0,0-.817-2.522,3.136,3.136,0,0,0-2.4-.87,3.446,3.446,0,0,0-2.435.853,2.993,2.993,0,0,0-.923,2.312H1.055a6.286,6.286,0,0,1,2.118-4.922,8.1,8.1,0,0,1,5.511-1.811,7.908,7.908,0,0,1,5.511,1.793,6.418,6.418,0,0,1,1.978,5.01A8.2,8.2,0,0,1,13.5-13.5l-2.162,2.127a5.789,5.789,0,0,0-1.2,3.85Zm-.3,5.467A2.254,2.254,0,0,1,6.5-3.735a2.394,2.394,0,0,1,1.758-.642,2.381,2.381,0,0,1,1.775.659,2.268,2.268,0,0,1,.65,1.661,2.227,2.227,0,0,1-.633,1.617,2.387,2.387,0,0,1-1.793.65,2.357,2.357,0,0,1-1.784-.65A2.244,2.244,0,0,1,5.854-2.057Z" transform="translate(34 47)" fill="#cbcbcb"/>
</svg>
