<svg id="icon-messages" xmlns="http://www.w3.org/2000/svg" width="58" height="58" viewBox="0 0 58 58">
  <g id="Ellipse_1" data-name="Ellipse 1" fill="none" stroke="#4981ff" stroke-width="1">
    <circle cx="29" cy="29" r="29" stroke="none"/>
    <circle cx="29" cy="29" r="28.5" fill="none"/>
  </g>
  <path id="Path_5" data-name="Path 5" d="M18,0H6A6,6,0,0,0,0,6v6a6,6,0,0,0,6,6h5.009l6.01,4.925V18H18a6,6,0,0,0,6-6V6A6,6,0,0,0,18,0Z" transform="translate(21 20.538)" fill="#4981ff"/>
  <g id="Path_4" data-name="Path 4" transform="translate(13 15)" fill="#4981ff">
    <path d="M 7.480720043182373 21.86847114562988 L 7.480720043182373 17.99999809265137 L 7.480720043182373 17.49999809265137 L 6.980720043182373 17.49999809265137 L 6 17.49999809265137 C 2.967289924621582 17.49999809265137 0.5 15.03270721435547 0.5 11.99999713897705 L 0.5 5.999997615814209 C 0.5 2.967287302017212 2.967289924621582 0.4999973773956299 6 0.4999973773956299 L 18 0.4999973773956299 C 21.0327091217041 0.4999973773956299 23.5 2.967287302017212 23.5 5.999997615814209 L 23.5 11.99999713897705 C 23.5 15.03270721435547 21.0327091217041 17.49999809265137 18 17.49999809265137 L 12.99120998382568 17.49999809265137 L 12.81254005432129 17.49999809265137 L 12.67432975769043 17.61323738098145 L 7.480720043182373 21.86847114562988 Z" stroke="none"/>
    <path d="M 6 0.9999980926513672 C 3.242990493774414 0.9999980926513672 1 3.242986679077148 1 5.999998092651367 L 1 11.99999713897705 C 1 14.75700759887695 3.242990493774414 16.99999809265137 6 16.99999809265137 L 7.980720520019531 16.99999809265137 L 7.980720520019531 20.81240463256836 L 12.63385963439941 16.99999809265137 L 18 16.99999809265137 C 20.75700950622559 16.99999809265137 23 14.75700759887695 23 11.99999713897705 L 23 5.999998092651367 C 23 3.242986679077148 20.75700950622559 0.9999980926513672 18 0.9999980926513672 L 6 0.9999980926513672 M 6 -1.9073486328125e-06 L 18 -1.9073486328125e-06 C 21.3137092590332 -1.9073486328125e-06 24 2.686286926269531 24 5.999998092651367 L 24 11.99999713897705 C 24 15.31370735168457 21.3137092590332 17.99999809265137 18 17.99999809265137 L 12.99120998382568 17.99999809265137 L 6.980720520019531 22.92451667785645 L 6.980720520019531 17.99999809265137 L 6 17.99999809265137 C 2.686290740966797 17.99999809265137 0 15.31370735168457 0 11.99999713897705 L 0 5.999998092651367 C 0 2.686286926269531 2.686290740966797 -1.9073486328125e-06 6 -1.9073486328125e-06 Z" stroke="none" fill="#fff"/>
  </g>
</svg>
