<svg xmlns="http://www.w3.org/2000/svg" width="86" height="65" viewBox="0 0 86 65">
  <g id="Group_3" data-name="Group 3" transform="translate(-304 -311)">
    <g id="Rectangle_1" data-name="Rectangle 1" transform="translate(304 311)" fill="#fff" stroke="#cbcbcb" stroke-width="1">
      <rect width="86" height="65" rx="3" stroke="none"/>
      <rect x="0.5" y="0.5" width="85" height="64" rx="2.5" fill="none"/>
    </g>
    <circle id="Ellipse_1" data-name="Ellipse 1" cx="5" cy="5" r="5" transform="translate(309 316)" fill="#dfe5e8"/>
    <rect id="Rectangle_2" data-name="Rectangle 2" width="33" height="2" rx="1" transform="translate(322 318)" fill="#cbcbcb"/>
    <rect id="Rectangle_3" data-name="Rectangle 3" width="14" height="2" rx="1" transform="translate(322 322)" fill="#cbcbcb"/>
    <rect id="Rectangle_4" data-name="Rectangle 4" width="76" height="41" rx="2" transform="translate(309 330)" fill="#dfe5e8"/>
    <path id="Polygon_3" data-name="Polygon 3" d="M5.143,1.429a1,1,0,0,1,1.715,0l4.234,7.056A1,1,0,0,1,10.234,10H1.766A1,1,0,0,1,.909,8.486Z" transform="translate(352 345) rotate(90)" fill="#fff"/>
  </g>
</svg>
