<svg id="icon-question" xmlns="http://www.w3.org/2000/svg" width="58" height="58" viewBox="0 0 58 58">
  <g id="icon-messages">
    <g id="Ellipse_1" data-name="Ellipse 1" fill="none" stroke="#4981ff" stroke-width="1">
      <circle cx="29" cy="29" r="29" stroke="none"/>
      <circle cx="29" cy="29" r="28.5" fill="none"/>
    </g>
  </g>
  <path id="Path_3" data-name="Path 3" d="M7.178-8.777a11.5,11.5,0,0,1,.677-4.348,11.4,11.4,0,0,1,2.676-3.558,20.407,20.407,0,0,0,2.533-2.758,4.842,4.842,0,0,0,.82-2.707,4.142,4.142,0,0,0-.954-2.943,3.658,3.658,0,0,0-2.8-1.015,4.02,4.02,0,0,0-2.84.995,3.492,3.492,0,0,0-1.077,2.7H1.23A7.333,7.333,0,0,1,3.7-28.157a9.452,9.452,0,0,1,6.429-2.112,9.226,9.226,0,0,1,6.429,2.092,7.488,7.488,0,0,1,2.307,5.845q0,3.343-3.117,6.583l-2.522,2.481a6.754,6.754,0,0,0-1.395,4.491ZM6.829-2.4a2.629,2.629,0,0,1,.759-1.958,2.793,2.793,0,0,1,2.051-.749,2.778,2.778,0,0,1,2.071.769A2.646,2.646,0,0,1,12.469-2.4,2.6,2.6,0,0,1,11.73-.513,2.785,2.785,0,0,1,9.639.246,2.75,2.75,0,0,1,7.557-.513,2.619,2.619,0,0,1,6.829-2.4Z" transform="translate(19 45)" fill="#4981ff"/>
</svg>
