<svg xmlns="http://www.w3.org/2000/svg" xmlns:xlink="http://www.w3.org/1999/xlink" width="179.567" height="103.424" viewBox="0 0 179.567 103.424">
  <defs>
    <filter id="Path_22" x="63.973" y="0" width="115.594" height="96.301" filterUnits="userSpaceOnUse">
      <feOffset dy="22" input="SourceAlpha"/>
      <feGaussianBlur stdDeviation="13.5" result="blur"/>
      <feFlood flood-color="red" flood-opacity="0.294"/>
      <feComposite operator="in" in2="blur"/>
      <feComposite in="SourceGraphic"/>
    </filter>
  </defs>
  <g id="_0-10k-scale-challenge" data-name="0-10k-scale-challenge" transform="translate(4103.216 1296.488)">
    <path id="Path_19" data-name="Path 19" d="M16.66-210.584c6.055,0,10.586-4.829,10.586-13.3s-4.532-13.3-10.586-13.3c-6.092,0-10.623,4.829-10.623,13.3S10.568-210.584,16.66-210.584Zm0-3.306c-4.086,0-6.909-3.343-6.909-9.992s2.823-9.992,6.909-9.992c4.049,0,6.872,3.343,6.872,9.992S20.709-213.89,16.66-213.89Zm14.746-5.646H41.4v-3.083H31.406Zm11.738-17.347v3.232h5.869v22.77H52.69v-26ZM69-210.584c6.055,0,10.586-4.829,10.586-13.3S75.051-237.18,69-237.18c-6.092,0-10.623,4.829-10.623,13.3S62.905-210.584,69-210.584Zm0-3.306c-4.086,0-6.909-3.343-6.909-9.992s2.823-9.992,6.909-9.992c4.049,0,6.872,3.343,6.872,9.992S73.046-213.89,69-213.89Zm34.693,3.009h4.346l-11.812-14.3,11.106-11.7H103.1L88.981-222.359v-14.524H85.266v26h3.714V-217.6l4.755-4.829ZM17.229-178.85a29.965,29.965,0,0,1-6.916-.8,18.541,18.541,0,0,1-5.529-2.142l3.1-7.018a19.773,19.773,0,0,0,4.57,1.9,17.863,17.863,0,0,0,4.856.714,7.526,7.526,0,0,0,2.856-.388,1.245,1.245,0,0,0,.857-1.163q0-.9-1.122-1.347a24.129,24.129,0,0,0-3.693-.979A41.877,41.877,0,0,1,10.7-191.56a9.387,9.387,0,0,1-3.836-2.611,7.082,7.082,0,0,1-1.632-4.917,8.47,8.47,0,0,1,1.51-4.9,9.974,9.974,0,0,1,4.509-3.468,18.728,18.728,0,0,1,7.283-1.265,26.444,26.444,0,0,1,5.774.632,18.087,18.087,0,0,1,5,1.857l-2.9,6.977a17.708,17.708,0,0,0-7.957-2.122q-3.713,0-3.713,1.8,0,.857,1.1,1.285a23.334,23.334,0,0,0,3.632.918,37.341,37.341,0,0,1,5.509,1.408,9.583,9.583,0,0,1,3.9,2.591,6.951,6.951,0,0,1,1.653,4.9,8.377,8.377,0,0,1-1.51,4.876,10.163,10.163,0,0,1-4.509,3.468A18.464,18.464,0,0,1,17.229-178.85Zm30.929,0a17.355,17.355,0,0,1-8.161-1.9,14.185,14.185,0,0,1-5.692-5.3,14.645,14.645,0,0,1-2.061-7.732,14.645,14.645,0,0,1,2.061-7.732,14.185,14.185,0,0,1,5.692-5.3,17.355,17.355,0,0,1,8.161-1.9,17.915,17.915,0,0,1,7.426,1.469,13.784,13.784,0,0,1,5.386,4.244l-6.08,5.427a7.8,7.8,0,0,0-6.243-3.346,6.377,6.377,0,0,0-4.856,1.938,7.254,7.254,0,0,0-1.836,5.2,7.254,7.254,0,0,0,1.836,5.2,6.377,6.377,0,0,0,4.856,1.938,7.8,7.8,0,0,0,6.243-3.346l6.08,5.427a13.784,13.784,0,0,1-5.386,4.244A17.915,17.915,0,0,1,48.158-178.85ZM82.8-184.481H71.947L70.029-179.5H60.236l12.486-28.563h9.466L94.675-179.5H84.718Zm-2.652-6.937L77.374-198.6,74.6-191.417Zm16.077-16.648h9.63v21.1h12.894v7.467H96.225Zm48.924,21.3v7.263H121.4v-28.563h23.217v7.263H130.868v3.346h12.078v6.937H130.868v3.754Z" transform="translate(-4108 -1047.292)" fill="#4c4e60"/>
    <path id="Path_20" data-name="Path 20" d="M3.9-70.963a10.236,10.236,0,0,0,1.5-.151,7.794,7.794,0,0,0,4.722-2.238.367.367,0,0,0,.076-.22q0-.023-.006-.116t-.14-.18a.463.463,0,0,0-.248-.087.451.451,0,0,0-.344.151,5.375,5.375,0,0,1-2.291,1.438,10.557,10.557,0,0,1-1.986.51,8.694,8.694,0,0,1-1.311.128h-.14Q.556-71.949.556-73.583a2.63,2.63,0,0,1,.7-1.693,3,3,0,0,1,1.349-.986,1.184,1.184,0,0,1,.382-.07,1.3,1.3,0,0,1,.484.116,1.153,1.153,0,0,1,.509.661.387.387,0,0,0,.395.255.369.369,0,0,0,.127-.023.363.363,0,0,0,.28-.348.4.4,0,0,0-.025-.139,1.777,1.777,0,0,0-1.706-1.3,2.213,2.213,0,0,0-.726.128A3.88,3.88,0,0,0,.595-75.74a3.316,3.316,0,0,0-.866,2.18q0,2.319,3.959,2.586ZM9.568-69.7a.438.438,0,0,0,.274-.093.383.383,0,0,0,.146-.255q.318-2.632.726-5.09,2.011-1.9,2.8-1.9.5,0,.713.974.127.615.229,1.345.076.672.2,1.3.382,1.867,1.591,1.867l.445-.012a11.323,11.323,0,0,0,2.864-1.217l.891-.464a.357.357,0,0,0,.229-.325.326.326,0,0,0-.064-.186.4.4,0,0,0-.356-.2,6.157,6.157,0,0,0-1.082.5l-.025.012q-.7.359-1.362.672a3.785,3.785,0,0,1-1.426.429.615.615,0,0,1-.573-.3,6.84,6.84,0,0,1-.509-2.168A12.775,12.775,0,0,0,15-76.36a2.161,2.161,0,0,0-.611-1.107,1.182,1.182,0,0,0-.827-.3,3.744,3.744,0,0,0-.77.133,6.212,6.212,0,0,0-1.865,1.246l.382-2.157a61.169,61.169,0,0,1,2.2-8.382.286.286,0,0,0,.025-.116.381.381,0,0,0-.064-.2.372.372,0,0,0-.356-.186.374.374,0,0,0-.395.267,34.142,34.142,0,0,0-1.076,3.844c-.369,1.6-.753,2.714-1.152,4.631v.023q-.878,4.684-1.336,8.545v.035a.387.387,0,0,0,.108.261A.38.38,0,0,0,9.568-69.7Zm12.487-3.154h-.127q-.916,0-.916-.986a2.688,2.688,0,0,1,.687-1.693,3.394,3.394,0,0,1,1.018-.87,2.533,2.533,0,0,1,1.247-.325,2.5,2.5,0,0,1,1.757.9Q23.722-72.992,22.055-72.853Zm6.657,1.125a5.53,5.53,0,0,0,3.449-1.577.342.342,0,0,0,.127-.278.357.357,0,0,0-.115-.255.41.41,0,0,0-.305-.116.4.4,0,0,0-.28.1,4.788,4.788,0,0,1-2.9,1.368,1.937,1.937,0,0,1-1.209-.406,2.148,2.148,0,0,1-.662-.928,2.8,2.8,0,0,1-.191-1.009,3.32,3.32,0,0,1,.395-1.507.891.891,0,0,1,.1-.162v-.012a.383.383,0,0,0,.051-.186.328.328,0,0,0-.216-.325.488.488,0,0,0-.2-.046.851.851,0,0,0-.159.023.294.294,0,0,0-.185.145q-.076.122-.134.22a1.929,1.929,0,0,1-.108.168,3.207,3.207,0,0,0-2.177-.974h-.076a3.286,3.286,0,0,0-1.61.417,4.114,4.114,0,0,0-1.279,1.09,3.336,3.336,0,0,0-.84,2.122,1.661,1.661,0,0,0,.586,1.4,1.84,1.84,0,0,0,1.171.359,3.658,3.658,0,0,0,1.947-.7,8.323,8.323,0,0,0,1.909-1.8A3.028,3.028,0,0,0,26.93-72.32,2.729,2.729,0,0,0,28.712-71.728Zm3.169-2.5a9.1,9.1,0,0,1-.127-1.519,18.232,18.232,0,0,1,.866-4.835A31.617,31.617,0,0,1,34.363-85q1.146-2.238,1.846-2.238a.31.31,0,0,1,.267.151,3.6,3.6,0,0,1,.382,1.925,13.4,13.4,0,0,1-.522,3.5,16.775,16.775,0,0,1-1.6,3.809A15.674,15.674,0,0,1,31.881-74.233Zm2.342,3.015a3.665,3.665,0,0,0,.5-.035,8.073,8.073,0,0,0,2.546-.719,7.254,7.254,0,0,0,1.426-.858,2.177,2.177,0,0,0,.7.881,3.039,3.039,0,0,0,1.757.522,4.546,4.546,0,0,0,.458-.023A7.288,7.288,0,0,0,43.9-72.1a5.669,5.669,0,0,0,1.718-1.159A.394.394,0,0,0,45.7-73.5a.325.325,0,0,0-.127-.272.447.447,0,0,0-.28-.1.413.413,0,0,0-.318.139,4.759,4.759,0,0,1-1.464.951,5.394,5.394,0,0,1-2.368.6,2.113,2.113,0,0,1-1.222-.348,1.938,1.938,0,0,1-.586-.858,14.437,14.437,0,0,0,2.845-3.467,16,16,0,0,0,1.6-3.7,12.586,12.586,0,0,0,.522-3.316,3.986,3.986,0,0,0-.471-2.191,1.016,1.016,0,0,0-.84-.522,1.69,1.69,0,0,0-.98.417Q40.6-85,38.971-80.111l-.013.093a22.708,22.708,0,0,0-.7,3.119,8.411,8.411,0,0,0-.115,1.368,7.824,7.824,0,0,0,.242,1.936,6.034,6.034,0,0,1-1.5.939,6.154,6.154,0,0,1-2.66.672,1.967,1.967,0,0,1-1.846-.9l-.013-.035a4.047,4.047,0,0,1-.229-.464,16.317,16.317,0,0,0,3.182-3.867,17.575,17.575,0,0,0,1.788-4.122,14.477,14.477,0,0,0,.592-3.606v-.081a4.415,4.415,0,0,0-.522-2.435,1.092,1.092,0,0,0-.9-.557,1.8,1.8,0,0,0-1.056.452q-1.553,1.241-3.386,6.737l-.013.1a19.533,19.533,0,0,0-.9,5.171q0,.174.019.974a4.879,4.879,0,0,0,.681,2.041l.025.035a2.2,2.2,0,0,0,.649.73A3.277,3.277,0,0,0,34.223-71.218Zm4.862-3.015a8.223,8.223,0,0,1-.1-1.3,15.571,15.571,0,0,1,.764-4.244l.025-.116q1.553-4.7,2.8-5.7a.64.64,0,0,1,.369-.174.224.224,0,0,1,.191.116,3.342,3.342,0,0,1,.344,1.774,11.855,11.855,0,0,1-.458,3.038A14.141,14.141,0,0,1,39.086-74.233Zm6.988-.174a1.971,1.971,0,0,1,.165-.29,3.309,3.309,0,0,1,2.788-1.484,1.559,1.559,0,0,1,1.107.313.107.107,0,0,1,.038.081.379.379,0,0,1-.14.232Q49.256-74.812,46.074-74.407Zm2.138,3.235q2.724,0,7.726-2.064a.35.35,0,0,0,.242-.336.378.378,0,0,0-.038-.162.387.387,0,0,0-.369-.22.487.487,0,0,0-.178.035,21.6,21.6,0,0,1-7.383,1.983q-2.355,0-2.355-1.542v-.128q3.768-.475,4.76-1.4a1.168,1.168,0,0,0,.42-.788.782.782,0,0,0-.28-.568A2.4,2.4,0,0,0,49-76.934a4.113,4.113,0,0,0-3.462,1.82A2.892,2.892,0,0,0,45.03-73.4a1.983,1.983,0,0,0,.675,1.484,3.334,3.334,0,0,0,1.986.719Q47.932-71.172,48.212-71.172ZM55.9-71.6a.383.383,0,0,0,.356-.2q2.762-4.9,4.277-4.9a.694.694,0,0,1,.331.081,3.286,3.286,0,0,1,1.184,1.855A4.024,4.024,0,0,0,63.3-72.9a3.181,3.181,0,0,0,1.935.661,4.316,4.316,0,0,0,1.489-.255,3.629,3.629,0,0,0,1.387-.835.365.365,0,0,0,.1-.243.335.335,0,0,0-.134-.278.457.457,0,0,0-.286-.1.416.416,0,0,0-.305.128,2.81,2.81,0,0,1-1.069.626,3.249,3.249,0,0,1-1.133.2,2.567,2.567,0,0,1-2.444-2.006,8.623,8.623,0,0,0-.56-1.246,2.44,2.44,0,0,0-1.031-1.038,1.344,1.344,0,0,0-.624-.151,3.235,3.235,0,0,0-1.483.533,10.142,10.142,0,0,0-2.527,2.945q.458-3.281.624-3.931l.013-.1a.352.352,0,0,0-.076-.209.374.374,0,0,0-.344-.162.354.354,0,0,0-.395.29q-.216.823-.662,4.1-.242,1.751-.293,1.913l-.013.093a.4.4,0,0,0,.076.22A.419.419,0,0,0,55.9-71.6ZM66.961-55.635q1.527,0,2.94-3.235a26.408,26.408,0,0,0,1.527-5.16q.153-.788.458-2.667.7-4.163.726-4.383a14.357,14.357,0,0,1,4.862-2.133.348.348,0,0,0,.255-.174.326.326,0,0,0,.064-.186l-.013-.093a.377.377,0,0,0-.395-.29l-.115.012a14.777,14.777,0,0,0-4.48,1.832q.369-2.284.624-3.722v-.035l.178-.962a.326.326,0,0,0-.064-.186.378.378,0,0,0-.369-.2.542.542,0,0,0-.185.041A.343.343,0,0,0,72.8-77q-.07.133-.134.261a3.543,3.543,0,0,0-2.037-.846,2.255,2.255,0,0,0-1.547.568,3.85,3.85,0,0,0-1,1.415,5.9,5.9,0,0,0-.484,2.284q0,1.716.942,2.157a.881.881,0,0,0,.369.081,2.457,2.457,0,0,0,1.324-.615,10.4,10.4,0,0,0,2.087-2.713l-.484,2.922A16.245,16.245,0,0,0,66.2-64.2v.023a17.182,17.182,0,0,0-.993,5.264,5.811,5.811,0,0,0,.318,2.11Q66.007-55.635,66.961-55.635Zm2.087-16.186a.394.394,0,0,1-.165-.035q-.458-.22-.458-1.333a5.467,5.467,0,0,1,.407-2.087,3.1,3.1,0,0,1,.8-1.171,1.347,1.347,0,0,1,.942-.348q.076,0,.458.029a2.984,2.984,0,0,1,1.26.748Q70.092-71.821,69.049-71.821ZM66.974-56.4q-.395,0-.668-.684a5.157,5.157,0,0,1-.274-1.867q0-.371.076-1.455a17.117,17.117,0,0,1,.878-3.542,15.8,15.8,0,0,1,4.226-6.029q.216-.2.446-.383-.853,5.125-1.044,6.192a26.68,26.68,0,0,1-1.432,4.939,7.164,7.164,0,0,1-1.534,2.481A1.167,1.167,0,0,1,66.974-56.4ZM78.392-74.407a1.969,1.969,0,0,1,.165-.29,3.309,3.309,0,0,1,2.788-1.484,1.559,1.559,0,0,1,1.107.313.107.107,0,0,1,.038.081.379.379,0,0,1-.14.232Q81.574-74.812,78.392-74.407Zm2.138,3.235c1.816,0,19.891-3.041,23.226-4.417a.35.35,0,0,0,.242-.336.379.379,0,0,0-.038-.162.387.387,0,0,0-.369-.22.487.487,0,0,0-.178.035c-3.225,1.322-21.185,4.336-22.883,4.336q-2.355,0-2.355-1.542v-.128q3.768-.475,4.76-1.4a1.168,1.168,0,0,0,.42-.788.782.782,0,0,0-.28-.568,2.4,2.4,0,0,0-1.757-.568,4.113,4.113,0,0,0-3.462,1.82,2.892,2.892,0,0,0-.509,1.716,1.983,1.983,0,0,0,.675,1.484,3.334,3.334,0,0,0,1.986.719Q80.25-71.172,80.53-71.172Z" transform="translate(-4082.067 -1137.429)" fill="#ef5023"/>
    <g transform="matrix(1, 0, 0, 1, -4103.22, -1296.49)" filter="url(#Path_22)">
      <path id="Path_22-2" data-name="Path 22" d="M1.885,0H32.71a1.885,1.885,0,0,1,1.885,1.885V13.416A1.885,1.885,0,0,1,32.71,15.3H1.885A1.885,1.885,0,0,1,0,13.416V1.885A1.885,1.885,0,0,1,1.885,0Z" transform="translate(104.47 18.5)" fill="#fd4c4c"/>
    </g>
    <g id="Group_36" data-name="Group 36" transform="translate(-3996.082 -1273.742)">
      <path id="Path_21" data-name="Path 21" d="M9.555-56.637h4.833v-.878H10.564V-63.7H9.555Zm5.993,0h1.009V-63.7H15.548ZM23.732-63.7l-2.563,5.8-2.543-5.8h-1.09l3.108,7.063h1l3.1-7.063Zm2.916,6.185V-59.8h3.542v-.858H26.648v-2.169h3.975V-63.7H25.639v7.063h5.126v-.878Z" transform="translate(-3.395 63.7)" fill="#fff"/>
      <circle id="Ellipse_1" data-name="Ellipse 1" cx="1.83" cy="1.83" r="1.83" transform="translate(0 1.63)" fill="#fff"/>
    </g>
  </g>
</svg>
