<svg xmlns="http://www.w3.org/2000/svg" xmlns:xlink="http://www.w3.org/1999/xlink" width="116.675" height="102.859" viewBox="0 0 116.675 102.859">
  <defs>
    <filter id="Path_2206" x="0" y="31.107" width="116.675" height="51.546" filterUnits="userSpaceOnUse">
      <feOffset dy="3" input="SourceAlpha"/>
      <feGaussianBlur stdDeviation="3" result="blur"/>
      <feFlood flood-opacity="0.161"/>
      <feComposite operator="in" in2="blur"/>
      <feComposite in="SourceGraphic"/>
    </filter>
  </defs>
  <g id="challenge-only-offer" transform="translate(-1032.564 -178.444)">
    <g id="Group_38" data-name="Group 38" transform="translate(-17 6)">
      <g id="Group_37" data-name="Group 37" transform="translate(89.864 -94.333)">
        <circle id="Ellipse_4" data-name="Ellipse 4" cx="48.186" cy="48.186" r="48.186" transform="matrix(0.998, -0.07, 0.07, 0.998, 969.306, 273.499)" fill="#bf320a"/>
        <circle id="Ellipse_3" data-name="Ellipse 3" cx="46.5" cy="46.5" r="46.5" transform="translate(971.305 270.375)" fill="#ef5023"/>
        <path id="Path_2207" data-name="Path 2207" d="M-30.6.084a2.518,2.518,0,0,0,2.023-.875l-.728-.672a1.562,1.562,0,0,1-1.232.581A1.5,1.5,0,0,1-32.105-2.45a1.5,1.5,0,0,1,1.568-1.568,1.576,1.576,0,0,1,1.232.574l.728-.672a2.53,2.53,0,0,0-2.016-.868,2.518,2.518,0,0,0-2.66,2.534A2.516,2.516,0,0,0-30.6.084ZM-24.455-4.9v1.932h-2.226V-4.9h-1.134V0h1.134V-2.009h2.226V0h1.134V-4.9ZM-18.5,0h1.19L-19.5-4.9h-1.12L-22.8,0h1.162l.434-1.05h2.275Zm-2.345-1.911.777-1.876.777,1.876ZM-16.8,0h3.591V-.924h-2.457V-4.9H-16.8Zm4.228,0h3.591V-.924h-2.457V-4.9h-1.134Zm5.355-.91V-2.044h2.275v-.882H-7.214V-3.99h2.576V-4.9h-3.7V0h3.794V-.91ZM-.27-4.9v2.975L-2.706-4.9h-.938V0h1.12V-2.975L-.081,0H.85V-4.9ZM5.323-1.092a1.8,1.8,0,0,1-.882.21A1.512,1.512,0,0,1,2.852-2.45a1.509,1.509,0,0,1,1.6-1.568,1.658,1.658,0,0,1,1.267.553l.728-.672A2.612,2.612,0,0,0,4.4-4.984,2.527,2.527,0,0,0,1.7-2.45,2.521,2.521,0,0,0,4.378.084,3.381,3.381,0,0,0,6.359-.539V-2.527H5.323ZM8.536-.91V-2.044h2.275v-.882H8.536V-3.99h2.576V-4.9h-3.7V0H11.2V-.91Zm7.924.994A2.536,2.536,0,0,0,19.142-2.45a2.536,2.536,0,0,0-2.681-2.534A2.536,2.536,0,0,0,13.78-2.45,2.536,2.536,0,0,0,16.461.084Zm0-.966A1.5,1.5,0,0,1,14.927-2.45a1.5,1.5,0,0,1,1.533-1.568A1.5,1.5,0,0,1,17.993-2.45,1.5,1.5,0,0,1,16.461-.882ZM23.37-4.9v2.975L20.934-4.9H20V0h1.12V-2.975L23.559,0h.931V-4.9ZM25.651,0h3.591V-.924H26.785V-4.9H25.651Zm7.98-4.9H32.518L31.209-2.723,29.9-4.9H28.7l1.9,3.15V0h1.134V-1.736Z" transform="matrix(0.985, -0.174, 0.174, 0.985, 1015.539, 303.565)" fill="#fff"/>
        <g transform="matrix(1, 0, 0, 1, 959.7, 266.78)" filter="url(#Path_2206)">
          <path id="Path_2206-2" data-name="Path 2206" d="M-37.576.336c6.16,0,10.724-4.284,10.724-10.136s-4.564-10.136-10.724-10.136C-43.764-19.936-48.3-15.624-48.3-9.8S-43.764.336-37.576.336Zm0-3.864A5.979,5.979,0,0,1-43.708-9.8a5.979,5.979,0,0,1,6.132-6.272A5.979,5.979,0,0,1-31.444-9.8,5.979,5.979,0,0,1-37.576-3.528ZM-8.624-15.96V-19.6H-23.436V0H-18.9V-7.14h9.072v-3.64H-18.9v-5.18Zm17.892,0V-19.6H-5.544V0h4.536V-7.14H8.064v-3.64H-1.008v-5.18ZM16.856-3.64V-8.176h9.1V-11.7h-9.1V-15.96h10.3V-19.6H12.348V0H27.524V-3.64ZM48.5,0,44.1-6.3a6.372,6.372,0,0,0,4.032-6.188c0-4.4-3.276-7.112-8.512-7.112H31.136V0h4.536V-5.46h4.172L43.624,0ZM43.54-12.488c0,2.128-1.4,3.416-4.172,3.416h-3.7V-15.9h3.7C42.14-15.9,43.54-14.644,43.54-12.488Z" transform="translate(59.6 63.6) rotate(-8)" fill="#fff"/>
        </g>
      </g>
    </g>
  </g>
</svg>
