<?xml version="1.0" encoding="utf-8"?>
<!-- Generator: Adobe Illustrator 21.0.0, SVG Export Plug-In . SVG Version: 6.00 Build 0)  -->
<svg version="1.1" id="Layer_1" xmlns="http://www.w3.org/2000/svg" xmlns:xlink="http://www.w3.org/1999/xlink" x="0px" y="0px"
	 viewBox="0 0 583.3 105.5" style="enable-background:new 0 0 583.3 105.5;" xml:space="preserve">
<style type="text/css">
	.st0{fill:#FFFFFF;}
	.st1{fill:#F8B018;}
</style>
<g>
	<path class="st0" d="M292.6,102.4c17.7,0,32.4-8.5,41.2-21.3c1.7-2.5,1.1-5.9-1.4-7.7c-2.5-1.7-5.9-1.1-7.7,1.4
		c-6.9,9.9-18.7,16.7-32.2,16.7c-20.3,0-38.8-16.4-38.8-39c0-22.5,18.5-38.9,38.8-38.9c13.8,0,23.8,6.4,30.6,14.6
		c1.9,2.3,5.4,2.5,7.7,0.5c2.3-2,2.4-5.3,0.5-7.7c-8.6-10.7-22.4-18.4-38.8-18.4c-26.3,0-49.7,21-49.7,49.9
		C242.9,81.4,265.1,102.4,292.6,102.4z"/>
	<path class="st0" d="M55.2,102.4c17.7,0,32.4-8.5,41.2-21.3c1.7-2.5,1.1-5.9-1.4-7.7s-5.9-1.1-7.7,1.4
		c-6.9,9.9-18.7,16.7-32.2,16.7c-20.3,0-38.8-16.4-38.8-39c0-22.5,18.5-38.9,38.8-38.9c13.8,0,23.8,6.4,30.6,14.6
		c1.9,2.3,5.4,2.5,7.7,0.5c2.3-2,2.4-5.3,0.5-7.7C85.3,10.3,71.5,2.6,55.1,2.6c-26.3,0-49.7,21-49.7,49.9
		C5.5,81.4,27.7,102.4,55.2,102.4z"/>
	<path class="st0" d="M212.7,100.1c3.3,0,5.7-2.7,5.7-5.7v-85c0-3.3-2.8-5.7-5.7-5.7S207,6.1,207,9.4v85
		C207.1,97.4,209.5,100.1,212.7,100.1z"/>
	<path class="st0" d="M177.8,88.7h-42.5c-1.8,0-2.8-0.2-2.8-2V9.5c0-3.1-2.5-5.7-5.7-5.7s-5.7,2.5-5.7,5.7v78.6v9.2
		c0,1.5,1.4,2.7,2.9,2.7h53.8c3.1,0,5.7-2.5,5.7-5.7C183.4,91.2,180.9,88.7,177.8,88.7z"/>
	<path class="st0" d="M428.3,91.8l-33.7-45.5c-1-1.5-0.9-3.6,0.4-4.9l28.5-28.5c3.1-3.1,0.9-8.4-3.5-8.4c-1.3,0-2.5,0.5-3.5,1.4
		l-31,31c-5.4,5.4-11.1,11.4-14,14.2c-0.6,0.6-1.4,0.2-1.4-0.7V38V9.4c0-2.9-2.4-5.7-5.7-5.7s-5.7,2.7-5.7,5.7V38v28.8v27.6
		c0,3.1,2.6,5.7,5.7,5.7s5.7-2.5,5.7-5.7v-26c0-1,0.1-2,0.8-2.8L382,54.3c1.6-1.6,4.2-1.5,5.6,0.3L419.7,98c1,1.4,2.6,2.1,4.2,2.1
		c1.1,0,2.2-0.3,3.1-1C429.5,97.5,430,94.2,428.3,91.8z"/>
</g>
<g>
	<g>
		<path class="st0" d="M506.4,38.9c2.4,1.8,5.8,1.3,7.6-1.2l18.3-24.8c1.8-2.4,1.3-5.8-1.2-7.6c-2.4-1.8-5.8-1.3-7.6,1.2l-18.3,24.8
			C503.5,33.7,504,37.1,506.4,38.9z"/>
		<path class="st0" d="M526.1,98.2c1.8,2.4,5.5,2.7,7.6,1.1c2.4-1.8,2.9-5.2,1.1-7.6l-20.9-28.4c-1.8-2.4-5.2-3-7.6-1.2
			s-3,5.2-1.2,7.6L526.1,98.2z"/>
		<path class="st1" d="M501.3,47.2l-14.1-19.1L471.3,6.5c-1.8-2.4-5.2-3-7.6-1.2s-3,5.2-1.2,7.6l25,33.9l0.3,0.4
			c1.5,2,1.4,4.8,0,6.8L460,91.7c-1.8,2.4-1.3,5.8,1.2,7.6c2.4,1.8,5.8,1.3,7.6-1.2l32.7-44.4C502.5,52.3,503.1,49.5,501.3,47.2z"/>
	</g>
	<g>
		<path class="st0" d="M555.5,20.7h-1.7v-13h-4.6V6.2H560v1.5h-4.6L555.5,20.7L555.5,20.7z"/>
		<path class="st0" d="M568.6,20.7l-4.9-12.9h-0.1c0.1,1,0.1,2.2,0.1,3.6v9.2h-1.6V6.1h2.5l4.6,12h0.1l4.6-12h2.5v14.5h-1.7v-9.3
			c0-1.1,0-2.2,0.1-3.5h0.2l-5,12.8L568.6,20.7L568.6,20.7z"/>
	</g>
</g>
</svg>
