<svg xmlns="http://www.w3.org/2000/svg" xmlns:xlink="http://www.w3.org/1999/xlink" width="41" height="39" viewBox="0 0 41 39">
  <defs>
    <linearGradient id="linear-gradient" x1="0.5" x2="0.104" y2="1.05" gradientUnits="objectBoundingBox">
      <stop offset="0" stop-color="#f8b018"/>
      <stop offset="1" stop-color="#db7600"/>
    </linearGradient>
  </defs>
  <g id="Group_3" data-name="Group 3" transform="translate(-606 -713)">
    <g id="Group_1" data-name="Group 1" transform="translate(606.068 712.973)">
      <ellipse id="circle" cx="20.5" cy="19.5" rx="20.5" ry="19.5" transform="translate(-0.068 0.027)" fill="url(#linear-gradient)"/>
    </g>
    <g id="form_1_" data-name="form (1)" transform="translate(616.443 722.333)">
      <path id="Path_5" data-name="Path 5" d="M1.5,0H19.2a1.5,1.5,0,0,1,1.5,1.5V18.79a1.5,1.5,0,0,1-1.5,1.5H1.5A1.5,1.5,0,0,1,0,18.79V1.5A1.5,1.5,0,0,1,1.5,0Zm9.647,15.375h5.135a.6.6,0,0,1,.6.6V17.1a.6.6,0,0,1-.6.6H11.144a.6.6,0,0,1-.6-.6V15.971a.6.6,0,0,1,.6-.6ZM4.418,10.238h11.86a1.048,1.048,0,0,1,.743.31l0,0a1.048,1.048,0,0,1,.308.743v1.49a1.051,1.051,0,0,1-.308.743l0,0a1.048,1.048,0,0,1-.743.308H4.418a1.054,1.054,0,0,1-.743-.308l0,0a1.048,1.048,0,0,1-.308-.743v-1.49a1.054,1.054,0,0,1,.308-.743l0,0a1.048,1.048,0,0,1,.743-.31Zm11.86.913H4.418a.138.138,0,0,0-.14.14v1.49a.138.138,0,0,0,.14.14h11.86a.138.138,0,0,0,.14-.14v-1.49a.138.138,0,0,0-.14-.14ZM4.418,5.558h11.86a1.054,1.054,0,0,1,.743.308l0,0a1.048,1.048,0,0,1,.308.743V8.1a1.051,1.051,0,0,1-.308.743l0,0a1.048,1.048,0,0,1-.743.308H4.418a1.054,1.054,0,0,1-.743-.308l0,0A1.048,1.048,0,0,1,3.365,8.1V6.61a1.054,1.054,0,0,1,.308-.743l0,0a1.054,1.054,0,0,1,.743-.308Zm11.86.913H4.418a.138.138,0,0,0-.14.14V8.1a.138.138,0,0,0,.14.14h11.86a.138.138,0,0,0,.14-.14V6.61a.138.138,0,0,0-.14-.14Zm3.057-1.922H1.425V18.46a.414.414,0,0,0,.121.293.407.407,0,0,0,.293.121H18.913a.414.414,0,0,0,.293-.121.407.407,0,0,0,.121-.293V4.549ZM17.773,1.624a.739.739,0,1,1-.739.739.74.74,0,0,1,.739-.739Zm-5.014,0a.739.739,0,1,1-.739.739.74.74,0,0,1,.739-.739Zm2.506,0a.739.739,0,1,1-.739.739.74.74,0,0,1,.739-.739Z" transform="translate(0)" fill="#fff" fill-rule="evenodd"/>
    </g>
  </g>
</svg>
