<?xml version="1.0" encoding="utf-8"?>
<!-- Generator: Adobe Illustrator 21.0.0, SVG Export Plug-In . SVG Version: 6.00 Build 0)  -->
<svg version="1.1" id="Layer_1" xmlns="http://www.w3.org/2000/svg" xmlns:xlink="http://www.w3.org/1999/xlink" x="0px" y="0px"
	 viewBox="0 0 281.4 114.3" style="enable-background:new 0 0 281.4 114.3;" xml:space="preserve">
<style type="text/css">
	.st0{fill:#4C4E60;}
	.st1{fill:#F8B018;}
	.st2{fill:#FF635C;}
	
		.st3{fill-rule:evenodd;clip-rule:evenodd;fill:none;stroke:#FF635C;stroke-width:4;stroke-linecap:round;stroke-linejoin:round;stroke-miterlimit:10;}
</style>
<path class="st0" d="M118.8,41.3c7.3,0,13.4-3.5,17-8.8c0.7-1,0.5-2.4-0.6-3.2c-1-0.7-2.4-0.5-3.2,0.6c-2.9,4.1-7.7,6.9-13.3,6.9
	c-8.4,0-16.1-6.8-16.1-16.1c0-9.3,7.7-16.1,16.1-16.1c5.7,0,9.8,2.6,12.7,6c0.8,1,2.2,1,3.2,0.2c1-0.8,1-2.2,0.2-3.2
	c-3.6-4.4-9.3-7.6-16.1-7.6c-10.9,0-20.6,8.7-20.6,20.6C98.3,32.6,107.4,41.3,118.8,41.3z"/>
<path class="st0" d="M20.6,41.3c7.3,0,13.4-3.5,17-8.8c0.7-1,0.5-2.4-0.6-3.2c-1-0.7-2.4-0.5-3.2,0.6c-2.9,4.1-7.7,6.9-13.3,6.9
	c-8.4,0-16.1-6.8-16.1-16.1c0-9.3,7.7-16.1,16.1-16.1c5.7,0,9.8,2.6,12.7,6c0.8,1,2.2,1,3.2,0.2c1-0.8,1-2.2,0.2-3.2
	C33.1,3.2,27.3,0,20.6,0C9.7,0,0,8.7,0,20.6C0,32.6,9.2,41.3,20.6,41.3z"/>
<path class="st0" d="M85.8,40.3c1.4,0,2.4-1.1,2.4-2.4V2.8c0-1.4-1.2-2.4-2.4-2.4c-1.2,0-2.4,1-2.4,2.4V38
	C83.4,39.2,84.4,40.3,85.8,40.3z"/>
<path class="st0" d="M71.3,35.6H53.7c-0.7,0-1.2-0.1-1.2-0.8V2.9c0-1.3-1-2.4-2.4-2.4s-2.4,1-2.4,2.4v32.5v3.8
	c0,0.6,0.6,1.1,1.2,1.1h22.3c1.3,0,2.4-1,2.4-2.4C73.6,36.7,72.6,35.6,71.3,35.6z"/>
<path class="st0" d="M175,36.9L161,18.1c-0.4-0.6-0.4-1.5,0.2-2L173,4.3c1.3-1.3,0.4-3.5-1.4-3.5c-0.5,0-1,0.2-1.4,0.6l-12.8,12.8
	c-2.2,2.2-4.6,4.7-5.8,5.9c-0.2,0.2-0.6,0.1-0.6-0.3v-5.1V2.8c0-1.2-1-2.4-2.4-2.4c-1.4,0-2.4,1.1-2.4,2.4v11.8v11.9V38
	c0,1.3,1.1,2.4,2.4,2.4c1.3,0,2.4-1,2.4-2.4V27.2c0-0.4,0-0.8,0.3-1.2l4.6-4.7c0.7-0.7,1.7-0.6,2.3,0.1l13.3,18
	c0.4,0.6,1.1,0.9,1.7,0.9c0.5,0,0.9-0.1,1.3-0.4C175.5,39.3,175.7,37.9,175,36.9z"/>
<path class="st0" d="M207.3,15c1,0.7,2.4,0.5,3.1-0.5L218,4.3c0.7-1,0.5-2.4-0.5-3.1c-1-0.7-2.4-0.5-3.1,0.5l-7.6,10.3
	C206.1,12.9,206.3,14.3,207.3,15z"/>
<path class="st0" d="M215.4,39.6c0.7,1,2.3,1.1,3.1,0.5c1-0.7,1.2-2.2,0.5-3.1l-8.6-11.7c-0.7-1-2.2-1.2-3.1-0.5
	c-1,0.7-1.2,2.2-0.5,3.1L215.4,39.6z"/>
<path class="st1" d="M205.2,18.5l-5.8-7.9l-6.6-8.9c-0.7-1-2.2-1.2-3.1-0.5c-1,0.7-1.2,2.2-0.5,3.1l10.3,14l0.1,0.2
	c0.6,0.8,0.6,2,0,2.8l-11.5,15.6c-0.7,1-0.5,2.4,0.5,3.1c1,0.7,2.4,0.5,3.1-0.5l13.5-18.4C205.7,20.6,205.9,19.4,205.2,18.5z"/>
<g>
	<path class="st0" d="M227.6,7.5h-0.7V2.1H225V1.5h4.5v0.6h-1.9L227.6,7.5L227.6,7.5z"/>
	<path class="st0" d="M233,7.5l-2-5.3h0c0,0.4,0,0.9,0,1.5v3.8h-0.7v-6h1l1.9,5h0l1.9-5h1v6h-0.7V3.6c0-0.5,0-0.9,0-1.4h0.1
		l-2.1,5.3L233,7.5L233,7.5z"/>
</g>
<path class="st2" d="M186,56.9c0.8-0.1,1.7,0.3,2.5,0.2c0.5-0.1,2-1,2-2.8c0-0.3-0.2-0.7-0.4-0.9c-1-1-2.5-1.2-4.1-0.9
	c-0.2,0-0.5,0.1-0.7,0.2c-2,1-4.7,3-7.8,5.9c-0.5,0.5-0.7,0.6-0.7,0.6c-0.2,0-0.2,0-0.2-0.2c0-0.1,0.1-0.2,0.2-0.9
	c0.2-0.7,0.3-1.4,0.3-2c0-1.4-0.3-2.3-0.8-3c-0.2-0.3-1.1-0.5-1.9-0.3c-1.3,0.2-2.2,1.1-2.2,1.6c0.1,0.5,0.5,0.9,0.5,1.2
	c0,0.1-0.1,0.4-0.1,0.9c-0.5,2.5-1.2,5-1.9,7.5c-1.1,0.9-9,7.5-15.3,13.3c2.2-4.6,4.6-9,7.4-13.2c0.3-0.5,0.4-0.6,0.4-0.7
	c0-0.5-0.6-0.5-0.6-1.2c0-0.7,1.8-2.7,1.8-4.2c0-2.2-2.5-2.8-4.6-2.5c-0.9,0.1-1.6,0.4-2.5,0.9c-6.9,3.2-13.4,11-16.4,18.8
	c-0.2,0.6-0.5,1.5-0.5,2.2c0,1.7,0.7,3.3,1.9,3.9l0.8,0.4c0.8,0.3,1.8,0.4,2.7,0.3c0.8-0.1,1.9-0.5,2.7-0.8c0.3-0.1,0.4,0,0.4,0.3
	c-0.3,1.1-0.6,1.9-0.9,2.6c-2.3,2.1-4.7,4.3-7.2,6.7c-5.7,5.3-11.9,12-9.4,18.5c1.1,2.9,3.8,5.3,6.7,5.3c0.1,0,0.2,0,0.3,0
	c3.2-0.1,6-2.9,7-6.4c0.9-3.3,2.6-10.9,2.7-11.6c1.1-3.8,2.4-7.7,3.9-11.4c5.9-5.5,12.3-10.8,16.5-14.3c-0.9,2-2.8,4.1-2.8,5.8
	c0.1,0.7,0.5,1.5,1.1,2c0.4,0.4,0.8,1,1.7,0.9c0.2,0,0.7-0.3,1-0.7c0.4-0.3,1-1.2,1.4-2.9c2-8.6,8.1-14.6,14.2-18.4
	C185.6,57,185.8,57,186,56.9z M145.4,91.4c-1.4,4.3-2.1,8.3-2.9,12.7c0,0.1,0,0.1,0,0.2l-0.3,1.6c-0.7,2.3-2.5,3.9-3.8,3.9
	c-0.7,0-2.5-0.1-3.4-2.4c-1.5-3.9,2.2-8.5,8.3-14.1c0.8-0.8,1.6-1.5,2.4-2.2C145.5,91.1,145.5,91.2,145.4,91.4z M147.3,77.4
	c-0.5,0.4-0.7,0.6-1.1,0.7c-0.2,0.1-0.7,0.3-0.9,0.4c-0.3,0.1-0.9-0.1-0.9-0.5c0-1.2,0.2-2.4,1.3-4.7c1.9-4.1,6.4-9.3,10.6-12.5
	c0.9-0.7,1-0.5,1.6-0.9c0.3-0.2,0.7-0.5,1.2-0.6c0.3,0,0.8-0.1,0.8,0.3c0,1.3-1.3,2.7-2.5,4.2c-0.8,1.1-1.2,1.7-1.2,1.9
	c0,0.4,0.3,0.3,0.3,0.7c0,0.1-0.1,0.4-0.5,0.9C153.5,71.3,150.7,74.4,147.3,77.4z"/>
<path class="st2" d="M206.6,68.4c0-1.8,0.4-3.5,0.8-5.1c1.1-4.5,4.1-9.2,6.5-13c0.1-0.2,0.2-0.4,0.2-0.7c0-0.1,0-0.2-0.1-0.3
	c-0.5-0.6-1.3-0.5-1.6-0.5c-0.6,0.1-1.1-0.3-1.4-0.9c-0.1-0.3-0.6-0.8-0.8-1c-1-0.9-2.1-1.3-3.4-1.1c-0.4,0.1-0.8,0.2-1.2,0.4
	c-3.3,1.5-6.3,3.4-9,5.9c-1.7,1.5-4.8,4.3-8.1,9.8c-2.8,4.6-3.4,7-3.4,8.9c0,2.1,1,3,1.2,3.1c2.7,1.7,3.3,2,3.9,1.9
	c0.2,0,0.6-0.2,0.9-0.4c2-1,3.8-2.1,6.7-5.3l3-3.3c0.6-0.7,1.1-1.2,1.4-1.2c0.2,0,0.2,0,0.2,0.2c0,0.2-0.2,1.2-0.2,2.9
	c0,1.6,0.2,3.2,1,4.7c0.3,0.7,1.6,0.9,2.4,0.7c0.3-0.1,0.7-0.3,1.1-0.4c1-0.3,1.2-0.9,1.2-1c0-0.1-0.1-0.2-0.1-0.3
	C207,71.3,206.6,69.9,206.6,68.4z M192.9,69.8c-1,1.1-2.3,1.9-2.8,2c-1,0.2-1.2-0.6-1.2-1.3c0-1.6,1.9-5.3,4.2-8.5
	c3.2-4.4,7.4-8.2,12.7-11.8c0.7-0.5,1.6-0.8,1.7-0.8c1-0.2,1.3,0.5,1.3,0.9c0,0.3-0.1,0.7-0.3,0.9c-0.6,0.7-1.2,1.6-1.6,2.4
	C204,59.3,198.1,64,192.9,69.8z"/>
<path class="st2" d="M238.5,47.6c1.9-5.4,6.1-11.8,9.4-17.6c0.6-1.1,0.8-1.8,1.3-2.6c0.7-1.2,1.2-2,1.2-3.3c0-1-2-1.5-2.8-1.4
	c-0.7,0.1-1,0.4-1.3,0.9c-4.9,7.1-7.3,14.7-13.1,22c-0.1,0.1-0.2,0.1-0.5,0.1c-0.7-0.3-1.9-0.4-2.7-0.7c-0.4-0.1-1-0.1-1.6,0
	c-1.5,0.2-3.2,1-4.1,1.7c-4.7,3.9-9.2,9-11.9,14.6c-1.4,2.8-2,4.8-2,6.4c0,1.1,0.3,2.1,1,3.1c0.2,0.4,2.9,1.3,4,1.1
	c0.5-0.1,1.1-0.2,1.7-0.7c5.5-4.2,9.9-10.4,14.4-16.4c0.3-0.4,0.5-0.6,0.6-0.6c0.1,0,0.1,0,0.1,0.1c0,0.1-1.3,2.7-1.7,4.3
	c-0.8,3.1-1.5,5.6-1.5,8.6c0,1.2,0.1,2.4,0.3,3.6c0.1,0.3,1.5,0.8,2,0.8c1.4-0.2,1.2-0.6,2-1.5c0.2-0.2,0.2-0.3,0.2-0.4
	c0-0.5-0.5-1.1-0.5-3.1c0-2,0.9-6.3,4.3-16.3L238.5,47.6z M229.7,50.8C226,56.3,221.8,62,217,66.6c-0.5,0.5-0.8,0.5-1.2,0.9
	c-0.2,0.2-0.3,0.3-0.6,0.3c-0.3,0-0.4-0.7-0.4-1.2c0-0.2,0.1-0.6,0.2-0.8c2.3-6.6,7.7-13.4,13.1-17c0.5-0.3,0.8-0.4,1.4-0.5
	c0.9-0.1,1.3,0,1.3,0.4C230.8,49.5,230.3,49.8,229.7,50.8z"/>
<path class="st2" d="M281,39.3c-1-1-2.5-1.2-4.1-0.9c-0.2,0-0.5,0.1-0.7,0.2c-2,1-4.7,3-7.8,5.9c-0.5,0.5-0.7,0.6-0.7,0.6
	c-0.2,0-0.2,0-0.2-0.2c0-0.1,0.1-0.2,0.2-0.9c0.2-0.7,0.3-1.4,0.3-2c0-1.4-0.3-2.3-0.8-3c-0.2-0.3-1.1-0.5-1.9-0.3
	c-1.3,0.2-2.2,1.1-2.2,1.6c0.1,0.5,0.5,0.9,0.5,1.2c0,0.1-0.1,0.4-0.1,0.9c-0.7,3.4-1.7,6.7-2.7,10c-0.2,0.1-0.4,0.2-0.7,0.5
	c-3.4,2.7-5.8,6.1-9.6,8.8c-2.5,1.8-3.4,2.1-4.3,2.3c-0.6,0.1-1.1,0.1-1.8-0.2c-0.5-0.2-1.4-1.3-1.4-2.2c0-0.2,0.1-0.3,0.3-0.5
	c4.8-3.4,9.2-9,13.1-14c0.8-1,1.2-1.7,1.8-2.9c0.7-1.5,1.3-2.8,1.3-4.3c0-2.3-1.2-3.1-1.8-3.2c-1.1-0.2-1.9-0.3-3.4-0.1
	c-2.8,0.4-5.1,2.3-6,3.5c-4.3,5.2-8.1,10.8-9.7,16.8c-0.2,0.8-0.3,1.4-0.3,1.9c0,1.1,0.3,3.2,0.7,4.2c0.6,1.8,1.7,3,2.8,3.4
	c0.4,0.2,2.4,0.8,3.6,1c0.9,0.2,1.5,0.2,2.1,0.1c0.7-0.1,1-0.2,2-0.9c3.9-2.8,6.2-4.9,7.9-6.6c-0.5,0.8-0.9,1.7-0.9,2.4
	c0.1,0.7,0.5,1.5,1.1,2c0.4,0.4,0.8,1,1.7,0.9c0.2,0,0.7-0.3,1-0.7c0.4-0.3,1-1.2,1.4-2.9c2-8.6,8.1-14.6,14.2-18.4
	c0.5-0.3,0.7-0.3,0.9-0.4c0.8-0.1,1.7,0.3,2.5,0.2c0.5-0.1,2-1,2-2.8C281.4,39.9,281.2,39.5,281,39.3z M252.1,41.5
	c0.6-0.6,0.5-0.4,1.1-0.9c0.5-0.4,0.8-0.6,1.2-0.7c0.3-0.1,0.3,0.2,0.3,0.6c0,1-0.5,1.8-1,2.8c-0.7,1.2-0.5,1.4-1.4,2.5
	c-2.5,3.4-5.3,7-8.6,10.1c-0.2,0.1-0.3,0.2-0.4,0.2c-0.1,0-0.1,0-0.1-0.3C244.5,50.6,248.4,45.4,252.1,41.5z"/>
<path class="st3" d="M130.9,93.2c0,0,44.7-14.1,140.8-21.4"/>
</svg>
