<svg xmlns="http://www.w3.org/2000/svg" xmlns:xlink="http://www.w3.org/1999/xlink" width="39" height="39" viewBox="0 0 39 39">
  <defs>
    <linearGradient id="linear-gradient" x1="0.026" y1="1.086" x2="0.861" gradientUnits="objectBoundingBox">
      <stop offset="0" stop-color="#60bbea"/>
      <stop offset="1" stop-color="#4394c6"/>
    </linearGradient>
  </defs>
  <g id="Group_4" data-name="Group 4" transform="translate(-664 -713)">
    <g id="_1287537_browser_internet_web_webpage_website_icon" data-name="1287537_browser_internet_web_webpage_website_icon" transform="translate(663.916 712.973)">
      <circle id="circle" cx="19.5" cy="19.5" r="19.5" transform="translate(0.084 0.027)" fill="url(#linear-gradient)"/>
    </g>
    <g id="website-layout" transform="translate(673.238 722.333)">
      <path id="Path_4" data-name="Path 4" d="M1.271,0H19.762a1.284,1.284,0,0,1,.907.379h0l0,0,0,0,0,0a1.285,1.285,0,0,1,.377.907V19a1.294,1.294,0,0,1-1.289,1.289H1.271a1.284,1.284,0,0,1-.909-.379l0,0,0,0,0,0A1.285,1.285,0,0,1-.02,19V1.288A1.3,1.3,0,0,1,.361.377.467.467,0,0,1,.4.338,1.287,1.287,0,0,1,1.271,0Zm9.992,16.93a.535.535,0,0,1,0-1.066H17.3a.535.535,0,0,1,0,1.066Zm-7.71,0a.536.536,0,0,1,0-1.066h5.6a.536.536,0,0,1,0,1.066ZM3.359,14.6a.536.536,0,0,1,0-1.066h5.6a.536.536,0,0,1,0,1.066Zm7.9,0a.535.535,0,0,1,0-1.066H17.3a.535.535,0,0,1,0,1.066ZM3,5.961H17.733V11.73H3V5.961ZM19.887,4.617a.75.75,0,0,1-.123.01H1.271a.72.72,0,0,1-.123-.01V18.995a.129.129,0,0,0,.034.087h0l0,0a.119.119,0,0,0,.087.034H19.762a.129.129,0,0,0,.125-.125V4.617ZM8.576,1.663A.837.837,0,1,1,7.74,2.5a.837.837,0,0,1,.837-.837Zm-2.927,0a.837.837,0,1,1-.837.837.837.837,0,0,1,.837-.837Zm-2.925,0a.837.837,0,1,1-.837.837.837.837,0,0,1,.837-.837Z" transform="translate(0.02)" fill="#fff" fill-rule="evenodd"/>
    </g>
  </g>
</svg>
