<svg id="Layer_1" data-name="Layer 1" xmlns="http://www.w3.org/2000/svg" viewBox="0 0 180.34 143.13"><defs><style>.cls-1{fill:#d4ebff;}.cls-2{fill:#5b92d3;}.cls-3{fill:#acd1f8;}.cls-4{fill:#71e96a;}.cls-5{fill:#fff;}</style></defs><title>Artboard 1</title><path class="cls-1" d="M161,141.93H1.54V15.62A13.11,13.11,0,0,1,14.66,2.51H147.93A13.11,13.11,0,0,1,161,15.62ZM152.39,31.64H10.9v110.3H152.39Z"/><path class="cls-2" d="M161.45,142.27h-1V15.79A12.3,12.3,0,0,0,148.16,3.5H14.56A12.3,12.3,0,0,0,2.28,15.79V142.27h-1V15.79A13.3,13.3,0,0,1,14.56,2.5h133.6a13.3,13.3,0,0,1,13.29,13.29Z"/><polygon class="cls-2" points="152.81 142.14 151.81 142.14 151.81 32.08 11.61 32.08 11.61 142.14 10.61 142.14 10.61 31.08 152.81 31.08 152.81 142.14"/><rect class="cls-3" x="35.33" y="92.96" width="93.2" height="5.77"/><rect class="cls-3" x="42.94" y="104.78" width="78.84" height="5.77"/><rect class="cls-3" x="50.83" y="116.61" width="62.51" height="5.77"/><circle class="cls-4" cx="151.44" cy="50.04" r="28.09"/><path class="cls-5" d="M148.07,60.22a1.18,1.18,0,0,1-.75-.26l-11.23-9a1.2,1.2,0,1,1,1.5-1.87l10.34,8.27L165.15,38a1.2,1.2,0,1,1,1.8,1.6L149,59.82A1.18,1.18,0,0,1,148.07,60.22Z"/></svg>