<?xml version="1.0" encoding="utf-8"?>
<!-- Generator: Adobe Illustrator 16.0.0, SVG Export Plug-In . SVG Version: 6.00 Build 0)  -->
<!DOCTYPE svg PUBLIC "-//W3C//DTD SVG 1.1//EN" "http://www.w3.org/Graphics/SVG/1.1/DTD/svg11.dtd">
<svg version="1.1" id="Layer_1" xmlns="http://www.w3.org/2000/svg" xmlns:xlink="http://www.w3.org/1999/xlink" x="0px" y="0px"
	 width="245px" height="47px" viewBox="0 96.703 597.077 104.253" enable-background="new 0 96.703 597.077 104.253"
	 xml:space="preserve">
<path fill="#FFFFFF" d="M301.081,200.956c18.422,0,33.815-8.832,42.885-22.207c1.751-2.524,1.261-6.058-1.515-8.075
	c-2.523-1.767-6.057-1.262-8.075,1.514c-7.319,10.379-19.432,17.412-33.563,17.412c-21.197,0-40.645-17.176-40.645-40.628
	c0-23.469,19.432-40.66,40.645-40.66c14.401,0,24.717,6.561,32.033,15.156c2.021,2.509,5.568,2.509,8.076,0.49
	c2.523-2.019,2.523-5.568,0.504-8.075c-9.101-11.104-23.468-19.179-40.644-19.179c-27.508,0-52.001,21.955-52.001,51.985
	C249.112,179.254,272.297,200.956,301.081,200.956z"/>
<path fill="#FFFFFF" d="M53.269,200.956c18.453,0,33.832-8.832,42.9-22.207c1.749-2.524,1.245-6.058-1.53-8.075
	c-2.508-1.767-6.057-1.262-8.076,1.514C79.244,182.564,67.147,189.6,53,189.6c-21.182,0-40.628-17.176-40.628-40.628
	c0-23.469,19.447-40.645,40.628-40.645c14.432,0,24.731,6.561,32.05,15.157c2.019,2.54,5.552,2.54,8.075,0.521
	c2.507-2.019,2.507-5.584,0.489-8.075c-9.085-11.136-23.438-19.211-40.628-19.211C25.478,96.717,1,118.672,1,148.703
	C1.284,179.254,24.5,200.956,53.269,200.956z"/>
<path fill="#FFFFFF" d="M217.788,198.701c3.549,0,6.057-2.792,6.057-6.057v-88.594c0-3.533-3.044-6.057-6.057-6.057
	c-3.028,0-6.056,2.524-6.056,6.057v88.829C211.732,195.909,214.271,198.701,217.788,198.701z"/>
<path fill="#FFFFFF" d="M181.212,186.824h-44.415c-1.766,0-3.044-0.27-3.044-2.02v-80.754c0-3.281-2.507-6.057-6.056-6.057
	c-3.264,0-6.057,2.524-6.057,6.057v82.016v9.59c0,1.515,1.53,2.775,3.044,2.775h56.26c3.266,0,6.057-2.508,6.057-6.057
	C187.017,189.348,184.494,186.824,181.212,186.824z"/>
<path fill="#FFFFFF" d="M442.636,190.104l-35.076-47.458c-1.024-1.514-1.024-3.753,0.505-5.047l29.777-29.778
	c3.279-3.265,1.01-8.833-3.533-8.833c-1.263,0-2.522,0.49-3.549,1.531l-32.302,32.301c-5.567,5.552-11.624,11.829-14.62,14.889
	c-0.505,0.489-1.53,0.252-1.53-0.757v-12.886v-30.03c0-3.043-2.508-6.057-6.057-6.057s-6.057,2.776-6.057,6.057v29.778v30.03v28.754
	c0,3.28,2.791,6.057,6.057,6.057c3.282,0,6.057-2.508,6.057-6.057v-27.255c0-1.024,0-2.019,0.772-3.044l11.607-11.845
	c1.752-1.767,4.308-1.514,5.789,0.252l33.563,45.438c1.024,1.515,2.774,2.271,4.306,2.271c1.262,0,2.271-0.252,3.279-1.009
	C443.898,195.909,444.419,192.359,442.636,190.104z"/>
<path fill="#FFFFFF" d="M524.415,134.839c2.507,1.735,6.056,1.246,7.808-1.262l19.195-25.993c1.749-2.507,1.261-6.057-1.263-7.792
	c-2.523-1.767-6.058-1.262-7.808,1.247l-19.179,25.977C521.37,129.287,521.891,132.82,524.415,134.839z"/>
<path fill="#FFFFFF" d="M544.841,196.682c1.767,2.492,5.803,2.776,7.821,1.246c2.51-1.75,3.028-5.566,1.247-7.807l-21.719-29.525
	c-1.735-2.522-5.553-3.045-7.792-1.262c-2.523,1.766-3.042,5.551-1.262,7.822L544.841,196.682z"/>
<path fill="#F6B01A" d="M518.863,143.419l-14.638-19.936l-16.654-22.476c-1.75-2.507-5.554-3.028-7.808-1.262
	c-2.509,1.751-3.027,5.568-1.263,7.808l25.978,35.344l0.269,0.49c1.53,2.019,1.53,5.063,0,7.082l-28.752,39.367
	c-1.769,2.51-1.265,6.057,1.261,7.809c2.509,1.768,6.056,1.263,7.792-1.262l34.068-46.434
	C520.126,148.703,520.882,145.927,518.863,143.419z"/>
<g>
	<g>
		<path fill="#FFFFFF" d="M575.644,115.644h-1.768v-13.611h-4.794v-1.514h11.354v1.514h-5.063L575.644,115.644L575.644,115.644z"/>
		<path fill="#FFFFFF" d="M589.255,115.644l-5.063-13.375l0,0c0,1.025,0,2.304,0,3.786v9.589h-1.751v-15.141h2.522l4.796,12.602l0,0
			l4.794-12.602h2.523v15.141h-1.528v-9.573c0-1.262,0-2.288,0-3.533h0.269l-5.302,13.391L589.255,115.644L589.255,115.644z"/>
	</g>
</g>
</svg>
