<?xml version="1.0" encoding="utf-8"?>
<!-- Generator: Adobe Illustrator 16.0.0, SVG Export Plug-In . SVG Version: 6.00 Build 0)  -->
<!DOCTYPE svg PUBLIC "-//W3C//DTD SVG 1.1//EN" "http://www.w3.org/Graphics/SVG/1.1/DTD/svg11.dtd">
<svg version="1.1" id="Layer_1" xmlns="http://www.w3.org/2000/svg" xmlns:xlink="http://www.w3.org/1999/xlink" x="0px" y="0px"
	 width="82.318px" height="104.253px" viewBox="0 96.703 82.318 104.253" enable-background="new 0 96.703 82.318 104.253"
	 xml:space="preserve">
<path fill="#3F4151" d="M50.771,134.883c2.507,1.735,6.056,1.246,7.808-1.262l19.195-25.993c1.749-2.507,1.261-6.057-1.263-7.792
	c-2.523-1.767-6.058-1.262-7.808,1.247L49.524,127.06C47.726,129.331,48.246,132.864,50.771,134.883z"/>
<path fill="#3F4151" d="M71.196,196.726c1.767,2.492,5.803,2.776,7.821,1.246c2.51-1.75,3.028-5.566,1.247-7.807L58.546,160.64
	c-1.735-2.522-5.553-3.045-7.792-1.262c-2.523,1.766-3.042,5.551-1.262,7.822L71.196,196.726z"/>
<path fill="#F6B01A" d="M45.219,143.463l-14.638-19.936l-16.654-22.476c-1.75-2.507-5.554-3.028-7.808-1.262
	c-2.509,1.751-3.027,5.568-1.263,7.808l25.978,35.344l0.269,0.49c1.53,2.019,1.53,5.063,0,7.082L2.351,189.88
	c-1.769,2.51-1.265,6.057,1.261,7.809c2.509,1.768,6.056,1.263,7.792-1.262l34.068-46.434
	C46.481,148.747,47.237,145.971,45.219,143.463z"/>
</svg>
