<svg xmlns="http://www.w3.org/2000/svg" viewBox="0 0 256.71 48.34"><defs><style>.cls-1{fill:#fff;}.cls-2{fill:#f8b018;}</style></defs><title>clickx-logo-reverse</title><g id="Layer_2" data-name="Layer 2"><g id="Layer_1-2" data-name="Layer 1"><path class="cls-1" d="M139,48.34A23.83,23.83,0,0,0,158.92,38,2.68,2.68,0,1,0,154.51,35a18.88,18.88,0,0,1-34.37-10.79,18.89,18.89,0,0,1,33.61-11.76,2.62,2.62,0,0,0,3.73.24,2.67,2.67,0,0,0,.24-3.73,24.12,24.12,0,0,0-42.84,15.23C114.94,38.19,125.67,48.34,139,48.34Z"/><path class="cls-1" d="M24.11,48.34A23.83,23.83,0,0,0,44,38a2.72,2.72,0,0,0-.68-3.73,2.67,2.67,0,0,0-3.73.68A18.88,18.88,0,0,1,5.26,24.17,18.89,18.89,0,0,1,38.87,12.41a2.62,2.62,0,0,0,3.73.24,2.67,2.67,0,0,0,.24-3.73A24.12,24.12,0,0,0,0,24.14C.06,38.19,10.79,48.34,24.11,48.34Z"/><path class="cls-1" d="M100.32,47.22a2.76,2.76,0,0,0,2.76-2.76V3.35a2.76,2.76,0,0,0-5.53,0V44.49A2.81,2.81,0,0,0,100.32,47.22Z"/><path class="cls-1" d="M83.45,41.72H62.89c-.88,0-1.35-.09-1.35-1V3.38A2.76,2.76,0,0,0,58.78.62,2.72,2.72,0,0,0,56,3.38V45.87a1.37,1.37,0,0,0,1.41,1.29h26a2.72,2.72,0,1,0,0-5.44Z"/><path class="cls-1" d="M204.65,43.22l-16.32-22a1.91,1.91,0,0,1,.21-2.38L202.32,5A2.38,2.38,0,0,0,200.62,1a2.56,2.56,0,0,0-1.71.68l-15,15c-2.62,2.62-5.38,5.53-6.76,6.88-.29.29-.68.09-.68-.35V3.32a2.76,2.76,0,0,0-5.53,0V44.49a2.8,2.8,0,0,0,2.76,2.76,2.76,2.76,0,0,0,2.76-2.76V31.9a2,2,0,0,1,.38-1.35l5.38-5.47a1.79,1.79,0,0,1,2.71.15l15.52,21a2.48,2.48,0,0,0,2,1,2.52,2.52,0,0,0,1.5-.47A2.48,2.48,0,0,0,204.65,43.22Z"/><path class="cls-1" d="M242.46,17.61a2.59,2.59,0,0,0,3.68-.59L255,5a2.59,2.59,0,0,0-.59-3.68,2.59,2.59,0,0,0-3.68.59l-8.85,12A2.66,2.66,0,0,0,242.46,17.61Z"/><path class="cls-1" d="M252,46.31a2.76,2.76,0,0,0,3.68.53,2.63,2.63,0,0,0,.53-3.68L246.07,29.43a2.63,2.63,0,1,0-4.26,3.09Z"/><path class="cls-2" d="M240,21.64l-6.82-9.23L225.46,2a2.67,2.67,0,0,0-3.68-.59,2.67,2.67,0,0,0-.59,3.68l12.08,16.41.15.21a2.83,2.83,0,0,1,0,3.29L220,43.19a2.63,2.63,0,1,0,4.26,3.09L240,24.79A2.64,2.64,0,0,0,240,21.64Z"/></g></g></svg>