<!-- Generated by IcoMoon.io -->
<svg version="1.1" xmlns="http://www.w3.org/2000/svg"  viewBox="0 0 33 32">
<title>Video</title>
<path d="M31.391 28.962h-30.282c-0.474 0-0.859-0.385-0.859-0.859v-24.206c0-0.474 0.385-0.859 0.859-0.859h30.282c0.474 0 0.859 0.385 0.859 0.859v16.763c0 0.474-0.385 0.859-0.859 0.859s-0.859-0.385-0.859-0.859v-15.904h-28.565v22.488h28.565v-3.001c0-0.474 0.385-0.859 0.859-0.859s0.859 0.385 0.859 0.859v3.86c0 0.475-0.385 0.859-0.859 0.859zM31.391 25.102h-26.58c-0.474 0-0.859-0.385-0.859-0.859s0.385-0.859 0.859-0.859h26.58c0.474 0 0.859 0.385 0.859 0.859s-0.385 0.859-0.859 0.859zM12.854 19.42c-0.159 0-0.32-0.045-0.46-0.133-0.249-0.158-0.399-0.431-0.399-0.726v-8.683c0-0.296 0.152-0.57 0.401-0.728 0.251-0.157 0.565-0.174 0.831-0.046l9.082 4.382c0.298 0.144 0.487 0.445 0.485 0.776s-0.192 0.631-0.492 0.773l-9.082 4.301c-0.117 0.056-0.242 0.083-0.367 0.083zM13.713 11.246v5.958l6.232-2.951-6.232-3.007z"></path>
</svg>
