<?xml version="1.0" encoding="utf-8"?>
<!-- Generator: Adobe Illustrator 18.1.0, SVG Export Plug-In . SVG Version: 6.00 Build 0)  -->
<svg version="1.1" id="Layer_1" xmlns="http://www.w3.org/2000/svg" xmlns:xlink="http://www.w3.org/1999/xlink" x="0px" y="0px"
	 viewBox="14 233 583.3 105.5" enable-background="new 14 233 583.3 105.5" xml:space="preserve">
<g>
	<path fill="#4C4E60" d="M306.6,335.4c17.7,0,32.4-8.5,41.2-21.3c1.7-2.5,1.1-5.9-1.4-7.7c-2.5-1.7-5.9-1.1-7.7,1.4
		c-6.9,9.9-18.7,16.7-32.2,16.7c-20.3,0-38.8-16.4-38.8-39c0-22.5,18.5-38.9,38.8-38.9c13.8,0,23.8,6.4,30.6,14.6
		c1.9,2.3,5.4,2.5,7.7,0.5c2.3-2,2.4-5.3,0.5-7.7c-8.6-10.7-22.4-18.4-38.8-18.4c-26.3,0-49.7,21-49.7,49.9
		C256.9,314.4,279.1,335.4,306.6,335.4z"/>
	<path fill="#4C4E60" d="M69.2,335.4c17.7,0,32.4-8.5,41.2-21.3c1.7-2.5,1.1-5.9-1.4-7.7s-5.9-1.1-7.7,1.4
		c-6.9,9.9-18.7,16.7-32.2,16.7c-20.3,0-38.8-16.4-38.8-39c0-22.5,18.5-38.9,38.8-38.9c13.8,0,23.8,6.4,30.6,14.6
		c1.9,2.3,5.4,2.5,7.7,0.5c2.3-2,2.4-5.3,0.5-7.7c-8.6-10.7-22.4-18.4-38.8-18.4c-26.3,0-49.7,21-49.7,49.9
		C19.5,314.4,41.7,335.4,69.2,335.4z"/>
	<path fill="#4C4E60" d="M226.7,333.1c3.3,0,5.7-2.7,5.7-5.7v-85c0-3.3-2.8-5.7-5.7-5.7s-5.7,2.4-5.7,5.7v85
		C221.1,330.4,223.5,333.1,226.7,333.1z"/>
	<path fill="#4C4E60" d="M191.8,321.7h-42.5c-1.8,0-2.8-0.2-2.8-2v-77.2c0-3.1-2.5-5.7-5.7-5.7s-5.7,2.5-5.7,5.7v78.6v9.2
		c0,1.5,1.4,2.7,2.9,2.7h53.8c3.1,0,5.7-2.5,5.7-5.7C197.4,324.2,194.9,321.7,191.8,321.7z"/>
	<path fill="#4C4E60" d="M442.3,324.8l-33.7-45.5c-1-1.5-0.9-3.6,0.4-4.9l28.5-28.5c3.1-3.1,0.9-8.4-3.5-8.4c-1.3,0-2.5,0.5-3.5,1.4
		l-31,31c-5.4,5.4-11.1,11.4-14,14.2c-0.6,0.6-1.4,0.2-1.4-0.7v-12.4v-28.6c0-2.9-2.4-5.7-5.7-5.7s-5.7,2.7-5.7,5.7v28.6v28.8v27.6
		c0,3.1,2.6,5.7,5.7,5.7s5.7-2.5,5.7-5.7v-26c0-1,0.1-2,0.8-2.8l11.1-11.3c1.6-1.6,4.2-1.5,5.6,0.3l32.1,43.4c1,1.4,2.6,2.1,4.2,2.1
		c1.1,0,2.2-0.3,3.1-1C443.5,330.5,444,327.2,442.3,324.8z"/>
</g>
<g>
	<g>
		<path fill="#4C4E60" d="M520.4,271.9c2.4,1.8,5.8,1.3,7.6-1.2l18.3-24.8c1.8-2.4,1.3-5.8-1.2-7.6c-2.4-1.8-5.8-1.3-7.6,1.2
			l-18.3,24.8C517.5,266.7,518,270.1,520.4,271.9z"/>
		<path fill="#4C4E60" d="M540.1,331.2c1.8,2.4,5.5,2.7,7.6,1.1c2.4-1.8,2.9-5.2,1.1-7.6l-20.9-28.4c-1.8-2.4-5.2-3-7.6-1.2
			s-3,5.2-1.2,7.6L540.1,331.2z"/>
		<path fill="#F8B018" d="M515.3,280.2l-14.1-19.1l-15.9-21.6c-1.8-2.4-5.2-3-7.6-1.2c-2.4,1.8-3,5.2-1.2,7.6l25,33.9l0.3,0.4
			c1.5,2,1.4,4.8,0,6.8L474,324.7c-1.8,2.4-1.3,5.8,1.2,7.6c2.4,1.8,5.8,1.3,7.6-1.2l32.7-44.4C516.5,285.3,517.1,282.5,515.3,280.2
			z"/>
	</g>
	<g>
		<path fill="#4C4E60" d="M569.5,253.7h-1.7v-13h-4.6v-1.5H574v1.5h-4.6V253.7z"/>
		<path fill="#4C4E60" d="M582.6,253.7l-4.9-12.9h-0.1c0.1,1,0.1,2.2,0.1,3.6v9.2h-1.6v-14.5h2.5l4.6,12h0.1l4.6-12h2.5v14.5h-1.7
			v-9.3c0-1.1,0-2.2,0.1-3.5H589l-5,12.8H582.6z"/>
	</g>
</g>
</svg>
