<?xml version="1.0" encoding="utf-8"?>
<!-- Generator: Adobe Illustrator 21.0.0, SVG Export Plug-In . SVG Version: 6.00 Build 0)  -->
<svg version="1.1" id="Layer_1" xmlns="http://www.w3.org/2000/svg" xmlns:xlink="http://www.w3.org/1999/xlink" x="0px" y="0px"
	 viewBox="0 0 256.7 48.3" style="enable-background:new 0 0 256.7 48.3;" xml:space="preserve">
<style type="text/css">
	.st0{fill:none;}
	.st1{fill:#4C4E60;}
	.st2{fill:#FFFFFF;}
	.st3{fill:#EF5023;}
	.st4{fill:#F8B018;}
	.st5{fill:#60BBEA;}
	.st6{fill:#BAD531;}
	.st7{fill:url(#SVGID_1_);}
</style>
<pattern  y="48.3" width="682.1" height="480" patternUnits="userSpaceOnUse" id="Pattern_X" viewBox="0 -480 682.1 480" style="overflow:visible;">
	<g>
		<rect x="0" y="-480" class="st0" width="682.1" height="480"/>
		<rect x="0" y="-480" class="st1" width="682.1" height="480"/>
		<g>
			<path class="st2" d="M68.9-279.1c1.2,0.9,2.8,0.6,3.7-0.6l8.8-11.9c0.9-1.2,0.6-2.8-0.6-3.7c-1.2-0.9-2.8-0.6-3.7,0.6l-8.8,11.9
				C67.4-281.6,67.7-280,68.9-279.1z"/>
			<path class="st2" d="M78.3-250.7c0.9,1.2,2.6,1.3,3.7,0.5c1.2-0.9,1.4-2.5,0.5-3.7l-10-13.6c-0.9-1.2-2.5-1.4-3.7-0.6
				c-1.2,0.9-1.4,2.5-0.6,3.7L78.3-250.7z"/>
			<path class="st3" d="M66.4-275.1l-6.8-9.2L52-294.7c-0.9-1.2-2.5-1.4-3.7-0.6c-1.2,0.9-1.4,2.5-0.6,3.7l12,16.3l0.1,0.2
				c0.7,1,0.7,2.3,0,3.2l-13.3,18.1c-0.9,1.2-0.6,2.8,0.6,3.7c1.2,0.8,2.8,0.6,3.7-0.6L66.5-272C67-272.7,67.2-274,66.4-275.1z"/>
		</g>
		<g>
			<path class="st2" d="M27.3-339.1c1.2,0.9,2.8,0.6,3.7-0.6l8.8-11.9c0.9-1.2,0.6-2.8-0.6-3.7c-1.2-0.9-2.8-0.6-3.7,0.6l-8.8,11.9
				C25.9-341.6,26.2-340,27.3-339.1z"/>
			<path class="st2" d="M36.8-310.7c0.9,1.2,2.6,1.3,3.7,0.5c1.2-0.9,1.4-2.5,0.5-3.7l-10-13.6c-0.9-1.2-2.5-1.4-3.7-0.6
				s-1.4,2.5-0.6,3.7L36.8-310.7z"/>
			<path class="st4" d="M24.9-335.1l-6.8-9.2l-7.6-10.4c-0.9-1.2-2.5-1.4-3.7-0.6c-1.2,0.9-1.4,2.5-0.6,3.7l12,16.3l0.1,0.2
				c0.7,1,0.7,2.3,0,3.2L5-313.8c-0.9,1.2-0.6,2.8,0.6,3.7c1.2,0.8,2.8,0.6,3.7-0.6L24.9-332C25.4-332.7,25.7-334,24.9-335.1z"/>
		</g>
		<g>
			<path class="st2" d="M153.8-279.1c1.2,0.9,2.8,0.6,3.7-0.6l8.8-11.9c0.9-1.2,0.6-2.8-0.6-3.7c-1.2-0.9-2.8-0.6-3.7,0.6l-8.8,11.9
				C152.4-281.6,152.6-280,153.8-279.1z"/>
			<path class="st2" d="M163.2-250.7c0.9,1.2,2.6,1.3,3.7,0.5c1.2-0.9,1.4-2.5,0.5-3.7l-10-13.6c-0.9-1.2-2.5-1.4-3.7-0.6
				s-1.4,2.5-0.6,3.7L163.2-250.7z"/>
			<path class="st4" d="M151.3-275.1l-6.8-9.2l-7.6-10.4c-0.9-1.2-2.5-1.4-3.7-0.6c-1.2,0.9-1.4,2.5-0.6,3.7l12,16.3l0.1,0.2
				c0.7,1,0.7,2.3,0,3.2l-13.3,18.1c-0.9,1.2-0.6,2.8,0.6,3.7c1.2,0.8,2.8,0.6,3.7-0.6l15.7-21.3C151.9-272.7,152.2-274,151.3-275.1
				z"/>
		</g>
		<g>
			<path class="st2" d="M112.3-339.1c1.2,0.9,2.8,0.6,3.7-0.6l8.8-11.9c0.9-1.2,0.6-2.8-0.6-3.7c-1.2-0.9-2.8-0.6-3.7,0.6l-8.8,11.9
				C110.8-341.6,111.1-340,112.3-339.1z"/>
			<path class="st2" d="M121.7-310.7c0.9,1.2,2.6,1.3,3.7,0.5c1.2-0.9,1.4-2.5,0.5-3.7l-10-13.6c-0.9-1.2-2.5-1.4-3.7-0.6
				c-1.2,0.9-1.4,2.5-0.6,3.7L121.7-310.7z"/>
			<path class="st5" d="M109.8-335.1l-6.8-9.2l-7.6-10.4c-0.9-1.2-2.5-1.4-3.7-0.6c-1.2,0.9-1.4,2.5-0.6,3.7l12,16.3l0.1,0.2
				c0.7,1,0.7,2.3,0,3.2L90-313.8c-0.9,1.2-0.6,2.8,0.6,3.7c1.2,0.8,2.8,0.6,3.7-0.6l15.7-21.3C110.4-332.7,110.6-334,109.8-335.1z"
				/>
		</g>
		<g>
			<path class="st2" d="M238.7-279.1c1.2,0.9,2.8,0.6,3.7-0.6l8.8-11.9c0.9-1.2,0.6-2.8-0.6-3.7c-1.2-0.9-2.8-0.6-3.7,0.6l-8.8,11.9
				C237.3-281.6,237.6-280,238.7-279.1z"/>
			<path class="st2" d="M248.2-250.7c0.9,1.2,2.6,1.3,3.7,0.5c1.2-0.9,1.4-2.5,0.5-3.7l-10-13.6c-0.9-1.2-2.5-1.4-3.7-0.6
				s-1.4,2.5-0.6,3.7L248.2-250.7z"/>
			<path class="st6" d="M236.3-275.1l-6.8-9.2l-7.6-10.4c-0.9-1.2-2.5-1.4-3.7-0.6c-1.2,0.9-1.4,2.5-0.6,3.7l12,16.3l0.1,0.2
				c0.7,1,0.7,2.3,0,3.2l-13.3,18.1c-0.9,1.2-0.6,2.8,0.6,3.7c1.2,0.8,2.8,0.6,3.7-0.6l15.7-21.3C236.8-272.7,237.1-274,236.3-275.1
				z"/>
		</g>
		<g>
			<path class="st2" d="M197.2-339.1c1.2,0.9,2.8,0.6,3.7-0.6l8.8-11.9c0.9-1.2,0.6-2.8-0.6-3.7c-1.2-0.9-2.8-0.6-3.7,0.6l-8.8,11.9
				C195.8-341.6,196-340,197.2-339.1z"/>
			<path class="st2" d="M206.6-310.7c0.9,1.2,2.6,1.3,3.7,0.5c1.2-0.9,1.4-2.5,0.5-3.7l-10-13.6c-0.9-1.2-2.5-1.4-3.7-0.6
				c-1.2,0.9-1.4,2.5-0.6,3.7L206.6-310.7z"/>
			<path class="st3" d="M194.7-335.1l-6.8-9.2l-7.6-10.4c-0.9-1.2-2.5-1.4-3.7-0.6c-1.2,0.9-1.4,2.5-0.6,3.7l12,16.3l0.1,0.2
				c0.7,1,0.7,2.3,0,3.2l-13.3,18.1c-0.9,1.2-0.6,2.8,0.6,3.7c1.2,0.8,2.8,0.6,3.7-0.6l15.7-21.3C195.3-332.7,195.6-334,194.7-335.1
				z"/>
		</g>
		<g>
			<path class="st2" d="M323.7-279.1c1.2,0.9,2.8,0.6,3.7-0.6l8.8-11.9c0.9-1.2,0.6-2.8-0.6-3.7c-1.2-0.9-2.8-0.6-3.7,0.6l-8.8,11.9
				C322.2-281.6,322.5-280,323.7-279.1z"/>
			<path class="st2" d="M333.1-250.7c0.9,1.2,2.6,1.3,3.7,0.5c1.2-0.9,1.4-2.5,0.5-3.7l-10-13.6c-0.9-1.2-2.5-1.4-3.7-0.6
				c-1.2,0.9-1.4,2.5-0.6,3.7L333.1-250.7z"/>
			<path class="st4" d="M321.2-275.1l-6.8-9.2l-7.6-10.4c-0.9-1.2-2.5-1.4-3.7-0.6c-1.2,0.9-1.4,2.5-0.6,3.7l12,16.3l0.1,0.2
				c0.7,1,0.7,2.3,0,3.2l-13.3,18.1c-0.9,1.2-0.6,2.8,0.6,3.7c1.2,0.8,2.8,0.6,3.7-0.6l15.7-21.3C321.8-272.7,322-274,321.2-275.1z"
				/>
		</g>
		<g>
			<path class="st2" d="M282.1-339.1c1.2,0.9,2.8,0.6,3.7-0.6l8.8-11.9c0.9-1.2,0.6-2.8-0.6-3.7c-1.2-0.9-2.8-0.6-3.7,0.6l-8.8,11.9
				C280.7-341.6,281-340,282.1-339.1z"/>
			<path class="st2" d="M291.6-310.7c0.9,1.2,2.6,1.3,3.7,0.5c1.2-0.9,1.4-2.5,0.5-3.7l-10-13.6c-0.9-1.2-2.5-1.4-3.7-0.6
				c-1.2,0.9-1.4,2.5-0.6,3.7L291.6-310.7z"/>
			<path class="st5" d="M279.7-335.1l-6.8-9.2l-7.6-10.4c-0.9-1.2-2.5-1.4-3.7-0.6c-1.2,0.9-1.4,2.5-0.6,3.7l12,16.3l0.1,0.2
				c0.7,1,0.7,2.3,0,3.2l-13.3,18.1c-0.9,1.2-0.6,2.8,0.6,3.7c1.2,0.8,2.8,0.6,3.7-0.6l15.7-21.3C280.2-332.7,280.5-334,279.7-335.1
				z"/>
		</g>
		<g>
			<path class="st2" d="M68.9-399.1c1.2,0.9,2.8,0.6,3.7-0.6l8.8-11.9c0.9-1.2,0.6-2.8-0.6-3.7c-1.2-0.9-2.8-0.6-3.7,0.6l-8.8,11.9
				C67.4-401.6,67.7-400,68.9-399.1z"/>
			<path class="st2" d="M78.3-370.7c0.9,1.2,2.6,1.3,3.7,0.5c1.2-0.9,1.4-2.5,0.5-3.7l-10-13.6c-0.9-1.2-2.5-1.4-3.7-0.6
				c-1.2,0.9-1.4,2.5-0.6,3.7L78.3-370.7z"/>
			<path class="st5" d="M66.4-395.1l-6.8-9.2L52-414.7c-0.9-1.2-2.5-1.4-3.7-0.6c-1.2,0.9-1.4,2.5-0.6,3.7l12,16.3l0.1,0.2
				c0.7,1,0.7,2.3,0,3.2l-13.3,18.1c-0.9,1.2-0.6,2.8,0.6,3.7c1.2,0.8,2.8,0.6,3.7-0.6L66.5-392C67-392.7,67.2-394,66.4-395.1z"/>
		</g>
		<g>
			<path class="st2" d="M27.3-459.1c1.2,0.9,2.8,0.6,3.7-0.6l8.8-11.9c0.9-1.2,0.6-2.8-0.6-3.7c-1.2-0.9-2.8-0.6-3.7,0.6l-8.8,11.9
				C25.9-461.6,26.2-460,27.3-459.1z"/>
			<path class="st2" d="M36.8-430.7c0.9,1.2,2.6,1.3,3.7,0.5c1.2-0.9,1.4-2.5,0.5-3.7l-10-13.6c-0.9-1.2-2.5-1.4-3.7-0.6
				c-1.2,0.9-1.4,2.5-0.6,3.7L36.8-430.7z"/>
			<path class="st6" d="M24.9-455.1l-6.8-9.2l-7.6-10.4c-0.9-1.2-2.5-1.4-3.7-0.6c-1.2,0.9-1.4,2.5-0.6,3.7l12,16.3l0.1,0.2
				c0.7,1,0.7,2.3,0,3.2L5-433.8c-0.9,1.2-0.6,2.8,0.6,3.7c1.2,0.8,2.8,0.6,3.7-0.6L24.9-452C25.4-452.7,25.7-454,24.9-455.1z"/>
		</g>
		<g>
			<path class="st2" d="M68.9-39.1c1.2,0.9,2.8,0.6,3.7-0.6l8.8-11.9c0.9-1.2,0.6-2.8-0.6-3.7c-1.2-0.9-2.8-0.6-3.7,0.6l-8.8,11.9
				C67.4-41.6,67.7-40,68.9-39.1z"/>
			<path class="st2" d="M78.3-10.7c0.9,1.2,2.6,1.3,3.7,0.5c1.2-0.9,1.4-2.5,0.5-3.7l-10-13.6c-0.9-1.2-2.5-1.4-3.7-0.6
				c-1.2,0.9-1.4,2.5-0.6,3.7L78.3-10.7z"/>
			<path class="st3" d="M66.4-35.1l-6.8-9.2L52-54.7c-0.9-1.2-2.5-1.4-3.7-0.6s-1.4,2.5-0.6,3.7l12,16.3l0.1,0.2
				c0.7,1,0.7,2.3,0,3.2L46.5-13.8c-0.9,1.2-0.6,2.8,0.6,3.7c1.2,0.8,2.8,0.6,3.7-0.6L66.5-32C67-32.7,67.2-34,66.4-35.1z"/>
		</g>
		<g>
			<path class="st2" d="M27.3-99.1c1.2,0.9,2.8,0.6,3.7-0.6l8.8-11.9c0.9-1.2,0.6-2.8-0.6-3.7c-1.2-0.9-2.8-0.6-3.7,0.6l-8.8,11.9
				C25.9-101.6,26.2-100,27.3-99.1z"/>
			<path class="st2" d="M36.8-70.7c0.9,1.2,2.6,1.3,3.7,0.5c1.2-0.9,1.4-2.5,0.5-3.7l-10-13.6c-0.9-1.2-2.5-1.4-3.7-0.6
				c-1.2,0.9-1.4,2.5-0.6,3.7L36.8-70.7z"/>
			<path class="st6" d="M24.9-95.1l-6.8-9.2l-7.6-10.4c-0.9-1.2-2.5-1.4-3.7-0.6c-1.2,0.9-1.4,2.5-0.6,3.7l12,16.3l0.1,0.2
				c0.7,1,0.7,2.3,0,3.2L5-73.8c-0.9,1.2-0.6,2.8,0.6,3.7c1.2,0.8,2.8,0.6,3.7-0.6L24.9-92C25.4-92.7,25.7-94,24.9-95.1z"/>
		</g>
		<g>
			<path class="st2" d="M153.8-399.1c1.2,0.9,2.8,0.6,3.7-0.6l8.8-11.9c0.9-1.2,0.6-2.8-0.6-3.7c-1.2-0.9-2.8-0.6-3.7,0.6l-8.8,11.9
				C152.4-401.6,152.6-400,153.8-399.1z"/>
			<path class="st2" d="M163.2-370.7c0.9,1.2,2.6,1.3,3.7,0.5c1.2-0.9,1.4-2.5,0.5-3.7l-10-13.6c-0.9-1.2-2.5-1.4-3.7-0.6
				c-1.2,0.9-1.4,2.5-0.6,3.7L163.2-370.7z"/>
			<path class="st4" d="M151.3-395.1l-6.8-9.2l-7.6-10.4c-0.9-1.2-2.5-1.4-3.7-0.6c-1.2,0.9-1.4,2.5-0.6,3.7l12,16.3l0.1,0.2
				c0.7,1,0.7,2.3,0,3.2l-13.3,18.1c-0.9,1.2-0.6,2.8,0.6,3.7c1.2,0.8,2.8,0.6,3.7-0.6l15.7-21.3C151.9-392.7,152.2-394,151.3-395.1
				z"/>
		</g>
		<g>
			<path class="st2" d="M112.3-459.1c1.2,0.9,2.8,0.6,3.7-0.6l8.8-11.9c0.9-1.2,0.6-2.8-0.6-3.7c-1.2-0.9-2.8-0.6-3.7,0.6l-8.8,11.9
				C110.8-461.6,111.1-460,112.3-459.1z"/>
			<path class="st2" d="M121.7-430.7c0.9,1.2,2.6,1.3,3.7,0.5c1.2-0.9,1.4-2.5,0.5-3.7l-10-13.6c-0.9-1.2-2.5-1.4-3.7-0.6
				c-1.2,0.9-1.4,2.5-0.6,3.7L121.7-430.7z"/>
			<path class="st3" d="M109.8-455.1l-6.8-9.2l-7.6-10.4c-0.9-1.2-2.5-1.4-3.7-0.6c-1.2,0.9-1.4,2.5-0.6,3.7l12,16.3l0.1,0.2
				c0.7,1,0.7,2.3,0,3.2L90-433.8c-0.9,1.2-0.6,2.8,0.6,3.7c1.2,0.8,2.8,0.6,3.7-0.6l15.7-21.3C110.4-452.7,110.6-454,109.8-455.1z"
				/>
		</g>
		<g>
			<path class="st2" d="M238.7-399.1c1.2,0.9,2.8,0.6,3.7-0.6l8.8-11.9c0.9-1.2,0.6-2.8-0.6-3.7c-1.2-0.9-2.8-0.6-3.7,0.6l-8.8,11.9
				C237.3-401.6,237.6-400,238.7-399.1z"/>
			<path class="st2" d="M248.2-370.7c0.9,1.2,2.6,1.3,3.7,0.5c1.2-0.9,1.4-2.5,0.5-3.7l-10-13.6c-0.9-1.2-2.5-1.4-3.7-0.6
				c-1.2,0.9-1.4,2.5-0.6,3.7L248.2-370.7z"/>
			<path class="st6" d="M236.3-395.1l-6.8-9.2l-7.6-10.4c-0.9-1.2-2.5-1.4-3.7-0.6c-1.2,0.9-1.4,2.5-0.6,3.7l12,16.3l0.1,0.2
				c0.7,1,0.7,2.3,0,3.2l-13.3,18.1c-0.9,1.2-0.6,2.8,0.6,3.7c1.2,0.8,2.8,0.6,3.7-0.6l15.7-21.3C236.8-392.7,237.1-394,236.3-395.1
				z"/>
		</g>
		<g>
			<path class="st2" d="M197.2-459.1c1.2,0.9,2.8,0.6,3.7-0.6l8.8-11.9c0.9-1.2,0.6-2.8-0.6-3.7c-1.2-0.9-2.8-0.6-3.7,0.6l-8.8,11.9
				C195.8-461.6,196-460,197.2-459.1z"/>
			<path class="st2" d="M206.6-430.7c0.9,1.2,2.6,1.3,3.7,0.5c1.2-0.9,1.4-2.5,0.5-3.7l-10-13.6c-0.9-1.2-2.5-1.4-3.7-0.6
				c-1.2,0.9-1.4,2.5-0.6,3.7L206.6-430.7z"/>
			<path class="st5" d="M194.7-455.1l-6.8-9.2l-7.6-10.4c-0.9-1.2-2.5-1.4-3.7-0.6c-1.2,0.9-1.4,2.5-0.6,3.7l12,16.3l0.1,0.2
				c0.7,1,0.7,2.3,0,3.2l-13.3,18.1c-0.9,1.2-0.6,2.8,0.6,3.7c1.2,0.8,2.8,0.6,3.7-0.6l15.7-21.3C195.3-452.7,195.6-454,194.7-455.1
				z"/>
		</g>
		<g>
			<path class="st2" d="M323.7-399.1c1.2,0.9,2.8,0.6,3.7-0.6l8.8-11.9c0.9-1.2,0.6-2.8-0.6-3.7c-1.2-0.9-2.8-0.6-3.7,0.6l-8.8,11.9
				C322.2-401.6,322.5-400,323.7-399.1z"/>
			<path class="st2" d="M333.1-370.7c0.9,1.2,2.6,1.3,3.7,0.5c1.2-0.9,1.4-2.5,0.5-3.7l-10-13.6c-0.9-1.2-2.5-1.4-3.7-0.6
				c-1.2,0.9-1.4,2.5-0.6,3.7L333.1-370.7z"/>
			<path class="st4" d="M321.2-395.1l-6.8-9.2l-7.6-10.4c-0.9-1.2-2.5-1.4-3.7-0.6c-1.2,0.9-1.4,2.5-0.6,3.7l12,16.3l0.1,0.2
				c0.7,1,0.7,2.3,0,3.2l-13.3,18.1c-0.9,1.2-0.6,2.8,0.6,3.7c1.2,0.8,2.8,0.6,3.7-0.6l15.7-21.3C321.8-392.7,322-394,321.2-395.1z"
				/>
		</g>
		<g>
			<path class="st2" d="M282.1-459.1c1.2,0.9,2.8,0.6,3.7-0.6l8.8-11.9c0.9-1.2,0.6-2.8-0.6-3.7c-1.2-0.9-2.8-0.6-3.7,0.6l-8.8,11.9
				C280.7-461.6,281-460,282.1-459.1z"/>
			<path class="st2" d="M291.6-430.7c0.9,1.2,2.6,1.3,3.7,0.5c1.2-0.9,1.4-2.5,0.5-3.7l-10-13.6c-0.9-1.2-2.5-1.4-3.7-0.6
				c-1.2,0.9-1.4,2.5-0.6,3.7L291.6-430.7z"/>
			<path class="st3" d="M279.7-455.1l-6.8-9.2l-7.6-10.4c-0.9-1.2-2.5-1.4-3.7-0.6c-1.2,0.9-1.4,2.5-0.6,3.7l12,16.3l0.1,0.2
				c0.7,1,0.7,2.3,0,3.2l-13.3,18.1c-0.9,1.2-0.6,2.8,0.6,3.7c1.2,0.8,2.8,0.6,3.7-0.6l15.7-21.3C280.2-452.7,280.5-454,279.7-455.1
				z"/>
		</g>
		<g>
			<path class="st2" d="M408.6-279.1c1.2,0.9,2.8,0.6,3.7-0.6l8.8-11.9c0.9-1.2,0.6-2.8-0.6-3.7c-1.2-0.9-2.8-0.6-3.7,0.6l-8.8,11.9
				C407.2-281.6,407.4-280,408.6-279.1z"/>
			<path class="st2" d="M418-250.7c0.9,1.2,2.6,1.3,3.7,0.5c1.2-0.9,1.4-2.5,0.5-3.7l-10-13.6c-0.9-1.2-2.5-1.4-3.7-0.6
				c-1.2,0.9-1.4,2.5-0.6,3.7L418-250.7z"/>
			<path class="st4" d="M406.1-275.1l-6.8-9.2l-7.6-10.4c-0.9-1.2-2.5-1.4-3.7-0.6c-1.2,0.9-1.4,2.5-0.6,3.7l12,16.3l0.1,0.2
				c0.7,1,0.7,2.3,0,3.2l-13.3,18.1c-0.9,1.2-0.6,2.8,0.6,3.7c1.2,0.8,2.8,0.6,3.7-0.6l15.7-21.3C406.7-272.7,407-274,406.1-275.1z"
				/>
		</g>
		<g>
			<path class="st2" d="M367.1-339.1c1.2,0.9,2.8,0.6,3.7-0.6l8.8-11.9c0.9-1.2,0.6-2.8-0.6-3.7c-1.2-0.9-2.8-0.6-3.7,0.6l-8.8,11.9
				C365.7-341.6,365.9-340,367.1-339.1z"/>
			<path class="st2" d="M376.5-310.7c0.9,1.2,2.6,1.3,3.7,0.5c1.2-0.9,1.4-2.5,0.5-3.7l-10-13.6c-0.9-1.2-2.5-1.4-3.7-0.6
				c-1.2,0.9-1.4,2.5-0.6,3.7L376.5-310.7z"/>
			<path class="st6" d="M364.6-335.1l-6.8-9.2l-7.6-10.4c-0.9-1.2-2.5-1.4-3.7-0.6c-1.2,0.9-1.4,2.5-0.6,3.7l12,16.3l0.1,0.2
				c0.7,1,0.7,2.3,0,3.2l-13.3,18.1c-0.9,1.2-0.6,2.8,0.6,3.7c1.2,0.8,2.8,0.6,3.7-0.6l15.7-21.3C365.2-332.7,365.4-334,364.6-335.1
				z"/>
		</g>
		<g>
			<path class="st2" d="M493.5-279.1c1.2,0.9,2.8,0.6,3.7-0.6l8.8-11.9c0.9-1.2,0.6-2.8-0.6-3.7c-1.2-0.9-2.8-0.6-3.7,0.6l-8.8,11.9
				C492.1-281.6,492.4-280,493.5-279.1z"/>
			<path class="st2" d="M503-250.7c0.9,1.2,2.6,1.3,3.7,0.5c1.2-0.9,1.4-2.5,0.5-3.7l-10-13.6c-0.9-1.2-2.5-1.4-3.7-0.6
				c-1.2,0.9-1.4,2.5-0.6,3.7L503-250.7z"/>
			<path class="st6" d="M491.1-275.1l-6.8-9.2l-7.6-10.4c-0.9-1.2-2.5-1.4-3.7-0.6c-1.2,0.9-1.4,2.5-0.6,3.7l12,16.3l0.1,0.2
				c0.7,1,0.7,2.3,0,3.2l-13.3,18.1c-0.9,1.2-0.6,2.8,0.6,3.7c1.2,0.8,2.8,0.6,3.7-0.6l15.7-21.3C491.6-272.7,491.9-274,491.1-275.1
				z"/>
		</g>
		<g>
			<path class="st2" d="M452-339.1c1.2,0.9,2.8,0.6,3.7-0.6l8.8-11.9c0.9-1.2,0.6-2.8-0.6-3.7c-1.2-0.9-2.8-0.6-3.7,0.6l-8.8,11.9
				C450.6-341.6,450.8-340,452-339.1z"/>
			<path class="st2" d="M461.4-310.7c0.9,1.2,2.6,1.3,3.7,0.5c1.2-0.9,1.4-2.5,0.5-3.7l-10-13.6c-0.9-1.2-2.5-1.4-3.7-0.6
				s-1.4,2.5-0.6,3.7L461.4-310.7z"/>
			<path class="st3" d="M449.5-335.1l-6.8-9.2l-7.6-10.4c-0.9-1.2-2.5-1.4-3.7-0.6c-1.2,0.9-1.4,2.5-0.6,3.7l12,16.3l0.1,0.2
				c0.7,1,0.7,2.3,0,3.2l-13.3,18.1c-0.9,1.2-0.6,2.8,0.6,3.7c1.2,0.8,2.8,0.6,3.7-0.6l15.7-21.3C450.1-332.7,450.4-334,449.5-335.1
				z"/>
		</g>
		<g>
			<path class="st2" d="M578.5-279.1c1.2,0.9,2.8,0.6,3.7-0.6l8.8-11.9c0.9-1.2,0.6-2.8-0.6-3.7c-1.2-0.9-2.8-0.6-3.7,0.6l-8.8,11.9
				C577.1-281.6,577.3-280,578.5-279.1z"/>
			<path class="st2" d="M587.9-250.7c0.9,1.2,2.6,1.3,3.7,0.5c1.2-0.9,1.4-2.5,0.5-3.7l-10-13.6c-0.9-1.2-2.5-1.4-3.7-0.6
				c-1.2,0.9-1.4,2.5-0.6,3.7L587.9-250.7z"/>
			<path class="st3" d="M576-275.1l-6.8-9.2l-7.6-10.4c-0.9-1.2-2.5-1.4-3.7-0.6c-1.2,0.9-1.4,2.5-0.6,3.7l12,16.3l0.1,0.2
				c0.7,1,0.7,2.3,0,3.2l-13.3,18.1c-0.9,1.2-0.6,2.8,0.6,3.7c1.2,0.8,2.8,0.6,3.7-0.6l15.7-21.3C576.6-272.7,576.8-274,576-275.1z"
				/>
		</g>
		<g>
			<path class="st2" d="M536.9-339.1c1.2,0.9,2.8,0.6,3.7-0.6l8.8-11.9c0.9-1.2,0.6-2.8-0.6-3.7c-1.2-0.9-2.8-0.6-3.7,0.6l-8.8,11.9
				C535.5-341.6,535.8-340,536.9-339.1z"/>
			<path class="st2" d="M546.4-310.7c0.9,1.2,2.6,1.3,3.7,0.5c1.2-0.9,1.4-2.5,0.5-3.7l-10-13.6c-0.9-1.2-2.5-1.4-3.7-0.6
				s-1.4,2.5-0.6,3.7L546.4-310.7z"/>
			<path class="st4" d="M534.5-335.1l-6.8-9.2l-7.6-10.4c-0.9-1.2-2.5-1.4-3.7-0.6c-1.2,0.9-1.4,2.5-0.6,3.7l12,16.3l0.1,0.2
				c0.7,1,0.7,2.3,0,3.2l-13.3,18.1c-0.9,1.2-0.6,2.8,0.6,3.7c1.2,0.8,2.8,0.6,3.7-0.6l15.7-21.3C535-332.7,535.3-334,534.5-335.1z"
				/>
		</g>
		<g>
			<path class="st2" d="M663.4-279.1c1.2,0.9,2.8,0.6,3.7-0.6l8.8-11.9c0.9-1.2,0.6-2.8-0.6-3.7c-1.2-0.9-2.8-0.6-3.7,0.6l-8.8,11.9
				C662-281.6,662.2-280,663.4-279.1z"/>
			<path class="st2" d="M672.8-250.7c0.9,1.2,2.6,1.3,3.7,0.5c1.2-0.9,1.4-2.5,0.5-3.7l-10-13.6c-0.9-1.2-2.5-1.4-3.7-0.6
				c-1.2,0.9-1.4,2.5-0.6,3.7L672.8-250.7z"/>
			<path class="st4" d="M660.9-275.1l-6.8-9.2l-7.6-10.4c-0.9-1.2-2.5-1.4-3.7-0.6c-1.2,0.9-1.4,2.5-0.6,3.7l12,16.3l0.1,0.2
				c0.7,1,0.7,2.3,0,3.2l-13.3,18.1c-0.9,1.2-0.6,2.8,0.6,3.7c1.2,0.8,2.8,0.6,3.7-0.6L661-272C661.5-272.7,661.8-274,660.9-275.1z"
				/>
		</g>
		<g>
			<path class="st2" d="M621.9-339.1c1.2,0.9,2.8,0.6,3.7-0.6l8.8-11.9c0.9-1.2,0.6-2.8-0.6-3.7c-1.2-0.9-2.8-0.6-3.7,0.6l-8.8,11.9
				C620.5-341.6,620.7-340,621.9-339.1z"/>
			<path class="st2" d="M631.3-310.7c0.9,1.2,2.6,1.3,3.7,0.5c1.2-0.9,1.4-2.5,0.5-3.7l-10-13.6c-0.9-1.2-2.5-1.4-3.7-0.6
				s-1.4,2.5-0.6,3.7L631.3-310.7z"/>
			<path class="st5" d="M619.4-335.1l-6.8-9.2l-7.6-10.4c-0.9-1.2-2.5-1.4-3.7-0.6c-1.2,0.9-1.4,2.5-0.6,3.7l12,16.3l0.1,0.2
				c0.7,1,0.7,2.3,0,3.2l-13.3,18.1c-0.9,1.2-0.6,2.8,0.6,3.7c1.2,0.8,2.8,0.6,3.7-0.6l15.7-21.3C620-332.7,620.2-334,619.4-335.1z"
				/>
		</g>
		<g>
			<path class="st2" d="M408.6-399.1c1.2,0.9,2.8,0.6,3.7-0.6l8.8-11.9c0.9-1.2,0.6-2.8-0.6-3.7c-1.2-0.9-2.8-0.6-3.7,0.6l-8.8,11.9
				C407.2-401.6,407.4-400,408.6-399.1z"/>
			<path class="st2" d="M418-370.7c0.9,1.2,2.6,1.3,3.7,0.5c1.2-0.9,1.4-2.5,0.5-3.7l-10-13.6c-0.9-1.2-2.5-1.4-3.7-0.6
				c-1.2,0.9-1.4,2.5-0.6,3.7L418-370.7z"/>
			<path class="st5" d="M406.1-395.1l-6.8-9.2l-7.6-10.4c-0.9-1.2-2.5-1.4-3.7-0.6c-1.2,0.9-1.4,2.5-0.6,3.7l12,16.3l0.1,0.2
				c0.7,1,0.7,2.3,0,3.2l-13.3,18.1c-0.9,1.2-0.6,2.8,0.6,3.7c1.2,0.8,2.8,0.6,3.7-0.6l15.7-21.3C406.7-392.7,407-394,406.1-395.1z"
				/>
		</g>
		<g>
			<path class="st2" d="M367.1-459.1c1.2,0.9,2.8,0.6,3.7-0.6l8.8-11.9c0.9-1.2,0.6-2.8-0.6-3.7c-1.2-0.9-2.8-0.6-3.7,0.6l-8.8,11.9
				C365.7-461.6,365.9-460,367.1-459.1z"/>
			<path class="st2" d="M376.5-430.7c0.9,1.2,2.6,1.3,3.7,0.5c1.2-0.9,1.4-2.5,0.5-3.7l-10-13.6c-0.9-1.2-2.5-1.4-3.7-0.6
				c-1.2,0.9-1.4,2.5-0.6,3.7L376.5-430.7z"/>
			<path class="st4" d="M364.6-455.1l-6.8-9.2l-7.6-10.4c-0.9-1.2-2.5-1.4-3.7-0.6c-1.2,0.9-1.4,2.5-0.6,3.7l12,16.3l0.1,0.2
				c0.7,1,0.7,2.3,0,3.2l-13.3,18.1c-0.9,1.2-0.6,2.8,0.6,3.7c1.2,0.8,2.8,0.6,3.7-0.6l15.7-21.3C365.2-452.7,365.4-454,364.6-455.1
				z"/>
		</g>
		<g>
			<path class="st2" d="M493.5-399.1c1.2,0.9,2.8,0.6,3.7-0.6l8.8-11.9c0.9-1.2,0.6-2.8-0.6-3.7c-1.2-0.9-2.8-0.6-3.7,0.6l-8.8,11.9
				C492.1-401.6,492.4-400,493.5-399.1z"/>
			<path class="st2" d="M503-370.7c0.9,1.2,2.6,1.3,3.7,0.5c1.2-0.9,1.4-2.5,0.5-3.7l-10-13.6c-0.9-1.2-2.5-1.4-3.7-0.6
				c-1.2,0.9-1.4,2.5-0.6,3.7L503-370.7z"/>
			<path class="st4" d="M491.1-395.1l-6.8-9.2l-7.6-10.4c-0.9-1.2-2.5-1.4-3.7-0.6c-1.2,0.9-1.4,2.5-0.6,3.7l12,16.3l0.1,0.2
				c0.7,1,0.7,2.3,0,3.2l-13.3,18.1c-0.9,1.2-0.6,2.8,0.6,3.7c1.2,0.8,2.8,0.6,3.7-0.6l15.7-21.3C491.6-392.7,491.9-394,491.1-395.1
				z"/>
		</g>
		<g>
			<path class="st2" d="M452-459.1c1.2,0.9,2.8,0.6,3.7-0.6l8.8-11.9c0.9-1.2,0.6-2.8-0.6-3.7c-1.2-0.9-2.8-0.6-3.7,0.6l-8.8,11.9
				C450.6-461.6,450.8-460,452-459.1z"/>
			<path class="st2" d="M461.4-430.7c0.9,1.2,2.6,1.3,3.7,0.5c1.2-0.9,1.4-2.5,0.5-3.7l-10-13.6c-0.9-1.2-2.5-1.4-3.7-0.6
				c-1.2,0.9-1.4,2.5-0.6,3.7L461.4-430.7z"/>
			<path class="st6" d="M449.5-455.1l-6.8-9.2l-7.6-10.4c-0.9-1.2-2.5-1.4-3.7-0.6c-1.2,0.9-1.4,2.5-0.6,3.7l12,16.3l0.1,0.2
				c0.7,1,0.7,2.3,0,3.2l-13.3,18.1c-0.9,1.2-0.6,2.8,0.6,3.7c1.2,0.8,2.8,0.6,3.7-0.6l15.7-21.3C450.1-452.7,450.4-454,449.5-455.1
				z"/>
		</g>
		<g>
			<path class="st2" d="M578.5-399.1c1.2,0.9,2.8,0.6,3.7-0.6l8.8-11.9c0.9-1.2,0.6-2.8-0.6-3.7c-1.2-0.9-2.8-0.6-3.7,0.6l-8.8,11.9
				C577.1-401.6,577.3-400,578.5-399.1z"/>
			<path class="st2" d="M587.9-370.7c0.9,1.2,2.6,1.3,3.7,0.5c1.2-0.9,1.4-2.5,0.5-3.7l-10-13.6c-0.9-1.2-2.5-1.4-3.7-0.6
				c-1.2,0.9-1.4,2.5-0.6,3.7L587.9-370.7z"/>
			<path class="st3" d="M576-395.1l-6.8-9.2l-7.6-10.4c-0.9-1.2-2.5-1.4-3.7-0.6c-1.2,0.9-1.4,2.5-0.6,3.7l12,16.3l0.1,0.2
				c0.7,1,0.7,2.3,0,3.2l-13.3,18.1c-0.9,1.2-0.6,2.8,0.6,3.7c1.2,0.8,2.8,0.6,3.7-0.6l15.7-21.3C576.6-392.7,576.8-394,576-395.1z"
				/>
		</g>
		<g>
			<path class="st2" d="M536.9-459.1c1.2,0.9,2.8,0.6,3.7-0.6l8.8-11.9c0.9-1.2,0.6-2.8-0.6-3.7c-1.2-0.9-2.8-0.6-3.7,0.6l-8.8,11.9
				C535.5-461.6,535.8-460,536.9-459.1z"/>
			<path class="st2" d="M546.4-430.7c0.9,1.2,2.6,1.3,3.7,0.5c1.2-0.9,1.4-2.5,0.5-3.7l-10-13.6c-0.9-1.2-2.5-1.4-3.7-0.6
				c-1.2,0.9-1.4,2.5-0.6,3.7L546.4-430.7z"/>
			<path class="st5" d="M534.5-455.1l-6.8-9.2l-7.6-10.4c-0.9-1.2-2.5-1.4-3.7-0.6c-1.2,0.9-1.4,2.5-0.6,3.7l12,16.3l0.1,0.2
				c0.7,1,0.7,2.3,0,3.2l-13.3,18.1c-0.9,1.2-0.6,2.8,0.6,3.7c1.2,0.8,2.8,0.6,3.7-0.6l15.7-21.3C535-452.7,535.3-454,534.5-455.1z"
				/>
		</g>
		<g>
			<path class="st2" d="M663.4-399.1c1.2,0.9,2.8,0.6,3.7-0.6l8.8-11.9c0.9-1.2,0.6-2.8-0.6-3.7c-1.2-0.9-2.8-0.6-3.7,0.6l-8.8,11.9
				C662-401.6,662.2-400,663.4-399.1z"/>
			<path class="st2" d="M672.8-370.7c0.9,1.2,2.6,1.3,3.7,0.5c1.2-0.9,1.4-2.5,0.5-3.7l-10-13.6c-0.9-1.2-2.5-1.4-3.7-0.6
				c-1.2,0.9-1.4,2.5-0.6,3.7L672.8-370.7z"/>
			<path class="st4" d="M660.9-395.1l-6.8-9.2l-7.6-10.4c-0.9-1.2-2.5-1.4-3.7-0.6c-1.2,0.9-1.4,2.5-0.6,3.7l12,16.3l0.1,0.2
				c0.7,1,0.7,2.3,0,3.2l-13.3,18.1c-0.9,1.2-0.6,2.8,0.6,3.7c1.2,0.8,2.8,0.6,3.7-0.6L661-392C661.5-392.7,661.8-394,660.9-395.1z"
				/>
		</g>
		<g>
			<path class="st2" d="M621.9-459.1c1.2,0.9,2.8,0.6,3.7-0.6l8.8-11.9c0.9-1.2,0.6-2.8-0.6-3.7c-1.2-0.9-2.8-0.6-3.7,0.6l-8.8,11.9
				C620.5-461.6,620.7-460,621.9-459.1z"/>
			<path class="st2" d="M631.3-430.7c0.9,1.2,2.6,1.3,3.7,0.5c1.2-0.9,1.4-2.5,0.5-3.7l-10-13.6c-0.9-1.2-2.5-1.4-3.7-0.6
				c-1.2,0.9-1.4,2.5-0.6,3.7L631.3-430.7z"/>
			<path class="st6" d="M619.4-455.1l-6.8-9.2l-7.6-10.4c-0.9-1.2-2.5-1.4-3.7-0.6c-1.2,0.9-1.4,2.5-0.6,3.7l12,16.3l0.1,0.2
				c0.7,1,0.7,2.3,0,3.2l-13.3,18.1c-0.9,1.2-0.6,2.8,0.6,3.7c1.2,0.8,2.8,0.6,3.7-0.6l15.7-21.3C620-452.7,620.2-454,619.4-455.1z"
				/>
		</g>
		<g>
			<path class="st2" d="M153.8-39.2c1.2,0.9,2.8,0.6,3.7-0.6l8.8-11.9c0.9-1.2,0.6-2.8-0.6-3.7c-1.2-0.9-2.8-0.6-3.7,0.6l-8.8,11.9
				C152.4-41.7,152.6-40,153.8-39.2z"/>
			<path class="st2" d="M163.2-10.7c0.9,1.2,2.6,1.3,3.7,0.5c1.2-0.9,1.4-2.5,0.5-3.7l-10-13.6c-0.9-1.2-2.5-1.4-3.7-0.6
				c-1.2,0.9-1.4,2.5-0.6,3.7L163.2-10.7z"/>
			<path class="st4" d="M151.3-35.2l-6.8-9.2l-7.6-10.4c-0.9-1.2-2.5-1.4-3.7-0.6s-1.4,2.5-0.6,3.7l12,16.3l0.1,0.2
				c0.7,1,0.7,2.3,0,3.2l-13.3,18.1c-0.9,1.2-0.6,2.8,0.6,3.7c1.2,0.8,2.8,0.6,3.7-0.6L151.4-32C151.9-32.7,152.2-34.1,151.3-35.2z"
				/>
		</g>
		<g>
			<path class="st2" d="M112.3-99.2c1.2,0.9,2.8,0.6,3.7-0.6l8.8-11.9c0.9-1.2,0.6-2.8-0.6-3.7c-1.2-0.9-2.8-0.6-3.7,0.6l-8.8,11.9
				C110.8-101.7,111.1-100,112.3-99.2z"/>
			<path class="st2" d="M121.7-70.7c0.9,1.2,2.6,1.3,3.7,0.5c1.2-0.9,1.4-2.5,0.5-3.7l-10-13.6c-0.9-1.2-2.5-1.4-3.7-0.6
				c-1.2,0.9-1.4,2.5-0.6,3.7L121.7-70.7z"/>
			<path class="st5" d="M109.8-95.2l-6.8-9.2l-7.6-10.4c-0.9-1.2-2.5-1.4-3.7-0.6s-1.4,2.5-0.6,3.7l12,16.3l0.1,0.2
				c0.7,1,0.7,2.3,0,3.2L90-73.8c-0.9,1.2-0.6,2.8,0.6,3.7c1.2,0.8,2.8,0.6,3.7-0.6L109.9-92C110.4-92.7,110.6-94.1,109.8-95.2z"/>
		</g>
		<g>
			<path class="st2" d="M238.7-39.2c1.2,0.9,2.8,0.6,3.7-0.6l8.8-11.9c0.9-1.2,0.6-2.8-0.6-3.7c-1.2-0.9-2.8-0.6-3.7,0.6l-8.8,11.9
				C237.3-41.7,237.6-40,238.7-39.2z"/>
			<path class="st2" d="M248.2-10.7c0.9,1.2,2.6,1.3,3.7,0.5c1.2-0.9,1.4-2.5,0.5-3.7l-10-13.6c-0.9-1.2-2.5-1.4-3.7-0.6
				c-1.2,0.9-1.4,2.5-0.6,3.7L248.2-10.7z"/>
			<path class="st6" d="M236.3-35.2l-6.8-9.2l-7.6-10.4c-0.9-1.2-2.5-1.4-3.7-0.6s-1.4,2.5-0.6,3.7l12,16.3l0.1,0.2
				c0.7,1,0.7,2.3,0,3.2l-13.3,18.1c-0.9,1.2-0.6,2.8,0.6,3.7c1.2,0.8,2.8,0.6,3.7-0.6L236.3-32C236.8-32.7,237.1-34.1,236.3-35.2z"
				/>
		</g>
		<g>
			<path class="st2" d="M197.2-99.2c1.2,0.9,2.8,0.6,3.7-0.6l8.8-11.9c0.9-1.2,0.6-2.8-0.6-3.7c-1.2-0.9-2.8-0.6-3.7,0.6l-8.8,11.9
				C195.8-101.7,196-100,197.2-99.2z"/>
			<path class="st2" d="M206.6-70.7c0.9,1.2,2.6,1.3,3.7,0.5c1.2-0.9,1.4-2.5,0.5-3.7l-10-13.6c-0.9-1.2-2.5-1.4-3.7-0.6
				c-1.2,0.9-1.4,2.5-0.6,3.7L206.6-70.7z"/>
			<path class="st3" d="M194.7-95.2l-6.8-9.2l-7.6-10.4c-0.9-1.2-2.5-1.4-3.7-0.6s-1.4,2.5-0.6,3.7l12,16.3l0.1,0.2
				c0.7,1,0.7,2.3,0,3.2l-13.3,18.1c-0.9,1.2-0.6,2.8,0.6,3.7c1.2,0.8,2.8,0.6,3.7-0.6L194.8-92C195.3-92.7,195.6-94.1,194.7-95.2z"
				/>
		</g>
		<g>
			<path class="st2" d="M323.7-39.2c1.2,0.9,2.8,0.6,3.7-0.6l8.8-11.9c0.9-1.2,0.6-2.8-0.6-3.7c-1.2-0.9-2.8-0.6-3.7,0.6l-8.8,11.9
				C322.2-41.7,322.5-40,323.7-39.2z"/>
			<path class="st2" d="M333.1-10.7c0.9,1.2,2.6,1.3,3.7,0.5c1.2-0.9,1.4-2.5,0.5-3.7l-10-13.6c-0.9-1.2-2.5-1.4-3.7-0.6
				c-1.2,0.9-1.4,2.5-0.6,3.7L333.1-10.7z"/>
			<path class="st4" d="M321.2-35.2l-6.8-9.2l-7.6-10.4c-0.9-1.2-2.5-1.4-3.7-0.6c-1.2,0.9-1.4,2.5-0.6,3.7l12,16.3l0.1,0.2
				c0.7,1,0.7,2.3,0,3.2l-13.3,18.1c-0.9,1.2-0.6,2.8,0.6,3.7c1.2,0.8,2.8,0.6,3.7-0.6L321.3-32C321.8-32.7,322-34.1,321.2-35.2z"/>
		</g>
		<g>
			<path class="st2" d="M282.1-99.2c1.2,0.9,2.8,0.6,3.7-0.6l8.8-11.9c0.9-1.2,0.6-2.8-0.6-3.7c-1.2-0.9-2.8-0.6-3.7,0.6l-8.8,11.9
				C280.7-101.7,281-100,282.1-99.2z"/>
			<path class="st2" d="M291.6-70.7c0.9,1.2,2.6,1.3,3.7,0.5c1.2-0.9,1.4-2.5,0.5-3.7l-10-13.6c-0.9-1.2-2.5-1.4-3.7-0.6
				c-1.2,0.9-1.4,2.5-0.6,3.7L291.6-70.7z"/>
			<path class="st5" d="M279.7-95.2l-6.8-9.2l-7.6-10.4c-0.9-1.2-2.5-1.4-3.7-0.6c-1.2,0.9-1.4,2.5-0.6,3.7l12,16.3l0.1,0.2
				c0.7,1,0.7,2.3,0,3.2l-13.3,18.1c-0.9,1.2-0.6,2.8,0.6,3.7c1.2,0.8,2.8,0.6,3.7-0.6L279.8-92C280.2-92.7,280.5-94.1,279.7-95.2z"
				/>
		</g>
		<g>
			<path class="st2" d="M68.9-159.2c1.2,0.9,2.8,0.6,3.7-0.6l8.8-11.9c0.9-1.2,0.6-2.8-0.6-3.7c-1.2-0.9-2.8-0.6-3.7,0.6l-8.8,11.9
				C67.4-161.7,67.7-160,68.9-159.2z"/>
			<path class="st2" d="M78.3-130.7c0.9,1.2,2.6,1.3,3.7,0.5c1.2-0.9,1.4-2.5,0.5-3.7l-10-13.6c-0.9-1.2-2.5-1.4-3.7-0.6
				c-1.2,0.9-1.4,2.5-0.6,3.7L78.3-130.7z"/>
			<path class="st4" d="M66.4-155.2l-6.8-9.2L52-174.7c-0.9-1.2-2.5-1.4-3.7-0.6s-1.4,2.5-0.6,3.7l12,16.3l0.1,0.2
				c0.7,1,0.7,2.3,0,3.2l-13.3,18.1c-0.9,1.2-0.6,2.8,0.6,3.7c1.2,0.8,2.8,0.6,3.7-0.6L66.5-152C67-152.7,67.2-154.1,66.4-155.2z"/>
		</g>
		<g>
			<path class="st2" d="M27.3-219.1c1.2,0.9,2.8,0.6,3.7-0.6l8.8-11.9c0.9-1.2,0.6-2.8-0.6-3.7c-1.2-0.9-2.8-0.6-3.7,0.6l-8.8,11.9
				C25.9-221.6,26.2-220,27.3-219.1z"/>
			<path class="st2" d="M36.8-190.7c0.9,1.2,2.6,1.3,3.7,0.5c1.2-0.9,1.4-2.5,0.5-3.7l-10-13.6c-0.9-1.2-2.5-1.4-3.7-0.6
				s-1.4,2.5-0.6,3.7L36.8-190.7z"/>
			<path class="st5" d="M24.9-215.2l-6.8-9.2l-7.6-10.4c-0.9-1.2-2.5-1.4-3.7-0.6c-1.2,0.9-1.4,2.5-0.6,3.7l12,16.3l0.1,0.2
				c0.7,1,0.7,2.3,0,3.2L5-193.8c-0.9,1.2-0.6,2.8,0.6,3.7c1.2,0.8,2.8,0.6,3.7-0.6L24.9-212C25.4-212.7,25.7-214,24.9-215.2z"/>
		</g>
		<g>
			<path class="st2" d="M153.8-159.2c1.2,0.9,2.8,0.6,3.7-0.6l8.8-11.9c0.9-1.2,0.6-2.8-0.6-3.7c-1.2-0.9-2.8-0.6-3.7,0.6l-8.8,11.9
				C152.4-161.7,152.6-160,153.8-159.2z"/>
			<path class="st2" d="M163.2-130.7c0.9,1.2,2.6,1.3,3.7,0.5c1.2-0.9,1.4-2.5,0.5-3.7l-10-13.6c-0.9-1.2-2.5-1.4-3.7-0.6
				c-1.2,0.9-1.4,2.5-0.6,3.7L163.2-130.7z"/>
			<path class="st6" d="M151.3-155.2l-6.8-9.2l-7.6-10.4c-0.9-1.2-2.5-1.4-3.7-0.6s-1.4,2.5-0.6,3.7l12,16.3l0.1,0.2
				c0.7,1,0.7,2.3,0,3.2l-13.3,18.1c-0.9,1.2-0.6,2.8,0.6,3.7c1.2,0.8,2.8,0.6,3.7-0.6l15.7-21.3
				C151.9-152.7,152.2-154.1,151.3-155.2z"/>
		</g>
		<g>
			<path class="st2" d="M112.3-219.1c1.2,0.9,2.8,0.6,3.7-0.6l8.8-11.9c0.9-1.2,0.6-2.8-0.6-3.7c-1.2-0.9-2.8-0.6-3.7,0.6l-8.8,11.9
				C110.8-221.6,111.1-220,112.3-219.1z"/>
			<path class="st2" d="M121.7-190.7c0.9,1.2,2.6,1.3,3.7,0.5c1.2-0.9,1.4-2.5,0.5-3.7l-10-13.6c-0.9-1.2-2.5-1.4-3.7-0.6
				c-1.2,0.9-1.4,2.5-0.6,3.7L121.7-190.7z"/>
			<path class="st6" d="M109.8-215.2l-6.8-9.2l-7.6-10.4c-0.9-1.2-2.5-1.4-3.7-0.6c-1.2,0.9-1.4,2.5-0.6,3.7l12,16.3l0.1,0.2
				c0.7,1,0.7,2.3,0,3.2L90-193.8c-0.9,1.2-0.6,2.8,0.6,3.7c1.2,0.8,2.8,0.6,3.7-0.6l15.7-21.3C110.4-212.7,110.6-214,109.8-215.2z"
				/>
		</g>
		<g>
			<path class="st2" d="M238.7-159.2c1.2,0.9,2.8,0.6,3.7-0.6l8.8-11.9c0.9-1.2,0.6-2.8-0.6-3.7c-1.2-0.9-2.8-0.6-3.7,0.6l-8.8,11.9
				C237.3-161.7,237.6-160,238.7-159.2z"/>
			<path class="st2" d="M248.2-130.7c0.9,1.2,2.6,1.3,3.7,0.5c1.2-0.9,1.4-2.5,0.5-3.7l-10-13.6c-0.9-1.2-2.5-1.4-3.7-0.6
				c-1.2,0.9-1.4,2.5-0.6,3.7L248.2-130.7z"/>
			<path class="st4" d="M236.3-155.2l-6.8-9.2l-7.6-10.4c-0.9-1.2-2.5-1.4-3.7-0.6s-1.4,2.5-0.6,3.7l12,16.3l0.1,0.2
				c0.7,1,0.7,2.3,0,3.2l-13.3,18.1c-0.9,1.2-0.6,2.8,0.6,3.7c1.2,0.8,2.8,0.6,3.7-0.6l15.7-21.3
				C236.8-152.7,237.1-154.1,236.3-155.2z"/>
		</g>
		<g>
			<path class="st2" d="M197.2-219.1c1.2,0.9,2.8,0.6,3.7-0.6l8.8-11.9c0.9-1.2,0.6-2.8-0.6-3.7c-1.2-0.9-2.8-0.6-3.7,0.6l-8.8,11.9
				C195.8-221.6,196-220,197.2-219.1z"/>
			<path class="st2" d="M206.6-190.7c0.9,1.2,2.6,1.3,3.7,0.5c1.2-0.9,1.4-2.5,0.5-3.7l-10-13.6c-0.9-1.2-2.5-1.4-3.7-0.6
				c-1.2,0.9-1.4,2.5-0.6,3.7L206.6-190.7z"/>
			<path class="st5" d="M194.7-215.2l-6.8-9.2l-7.6-10.4c-0.9-1.2-2.5-1.4-3.7-0.6c-1.2,0.9-1.4,2.5-0.6,3.7l12,16.3l0.1,0.2
				c0.7,1,0.7,2.3,0,3.2l-13.3,18.1c-0.9,1.2-0.6,2.8,0.6,3.7c1.2,0.8,2.8,0.6,3.7-0.6l15.7-21.3C195.3-212.7,195.6-214,194.7-215.2
				z"/>
		</g>
		<g>
			<path class="st2" d="M323.7-159.2c1.2,0.9,2.8,0.6,3.7-0.6l8.8-11.9c0.9-1.2,0.6-2.8-0.6-3.7c-1.2-0.9-2.8-0.6-3.7,0.6l-8.8,11.9
				C322.2-161.7,322.5-160,323.7-159.2z"/>
			<path class="st2" d="M333.1-130.7c0.9,1.2,2.6,1.3,3.7,0.5c1.2-0.9,1.4-2.5,0.5-3.7l-10-13.6c-0.9-1.2-2.5-1.4-3.7-0.6
				c-1.2,0.9-1.4,2.5-0.6,3.7L333.1-130.7z"/>
			<path class="st3" d="M321.2-155.2l-6.8-9.2l-7.6-10.4c-0.9-1.2-2.5-1.4-3.7-0.6c-1.2,0.9-1.4,2.5-0.6,3.7l12,16.3l0.1,0.2
				c0.7,1,0.7,2.3,0,3.2l-13.3,18.1c-0.9,1.2-0.6,2.8,0.6,3.7c1.2,0.8,2.8,0.6,3.7-0.6l15.7-21.3C321.8-152.7,322-154.1,321.2-155.2
				z"/>
		</g>
		<g>
			<path class="st2" d="M282.1-219.1c1.2,0.9,2.8,0.6,3.7-0.6l8.8-11.9c0.9-1.2,0.6-2.8-0.6-3.7c-1.2-0.9-2.8-0.6-3.7,0.6l-8.8,11.9
				C280.7-221.6,281-220,282.1-219.1z"/>
			<path class="st2" d="M291.6-190.7c0.9,1.2,2.6,1.3,3.7,0.5c1.2-0.9,1.4-2.5,0.5-3.7l-10-13.6c-0.9-1.2-2.5-1.4-3.7-0.6
				c-1.2,0.9-1.4,2.5-0.6,3.7L291.6-190.7z"/>
			<path class="st3" d="M279.7-215.2l-6.8-9.2l-7.6-10.4c-0.9-1.2-2.5-1.4-3.7-0.6c-1.2,0.9-1.4,2.5-0.6,3.7l12,16.3l0.1,0.2
				c0.7,1,0.7,2.3,0,3.2l-13.3,18.1c-0.9,1.2-0.6,2.8,0.6,3.7c1.2,0.8,2.8,0.6,3.7-0.6l15.7-21.3C280.2-212.7,280.5-214,279.7-215.2
				z"/>
		</g>
		<g>
			<path class="st2" d="M408.6-39.2c1.2,0.9,2.8,0.6,3.7-0.6l8.8-11.9c0.9-1.2,0.6-2.8-0.6-3.7c-1.2-0.9-2.8-0.6-3.7,0.6L408-42.8
				C407.2-41.7,407.4-40,408.6-39.2z"/>
			<path class="st2" d="M418-10.7c0.9,1.2,2.6,1.3,3.7,0.5c1.2-0.9,1.4-2.5,0.5-3.7l-10-13.6c-0.9-1.2-2.5-1.4-3.7-0.6
				c-1.2,0.9-1.4,2.5-0.6,3.7L418-10.7z"/>
			<path class="st5" d="M406.1-35.2l-6.8-9.2l-7.6-10.4c-0.9-1.2-2.5-1.4-3.7-0.6c-1.2,0.9-1.4,2.5-0.6,3.7l12,16.3l0.1,0.2
				c0.7,1,0.7,2.3,0,3.2l-13.3,18.1c-0.9,1.2-0.6,2.8,0.6,3.7c1.2,0.8,2.8,0.6,3.7-0.6L406.2-32C406.7-32.7,407-34.1,406.1-35.2z"/>
		</g>
		<g>
			<path class="st2" d="M367.1-99.2c1.2,0.9,2.8,0.6,3.7-0.6l8.8-11.9c0.9-1.2,0.6-2.8-0.6-3.7c-1.2-0.9-2.8-0.6-3.7,0.6l-8.8,11.9
				C365.7-101.7,365.9-100,367.1-99.2z"/>
			<path class="st2" d="M376.5-70.7c0.9,1.2,2.6,1.3,3.7,0.5c1.2-0.9,1.4-2.5,0.5-3.7l-10-13.6c-0.9-1.2-2.5-1.4-3.7-0.6
				c-1.2,0.9-1.4,2.5-0.6,3.7L376.5-70.7z"/>
			<path class="st6" d="M364.6-95.2l-6.8-9.2l-7.6-10.4c-0.9-1.2-2.5-1.4-3.7-0.6c-1.2,0.9-1.4,2.5-0.6,3.7l12,16.3l0.1,0.2
				c0.7,1,0.7,2.3,0,3.2l-13.3,18.1c-0.9,1.2-0.6,2.8,0.6,3.7c1.2,0.8,2.8,0.6,3.7-0.6L364.7-92C365.2-92.7,365.4-94.1,364.6-95.2z"
				/>
		</g>
		<g>
			<path class="st2" d="M493.5-39.2c1.2,0.9,2.8,0.6,3.7-0.6l8.8-11.9c0.9-1.2,0.6-2.8-0.6-3.7c-1.2-0.9-2.8-0.6-3.7,0.6L493-42.8
				C492.1-41.7,492.4-40,493.5-39.2z"/>
			<path class="st2" d="M503-10.7c0.9,1.2,2.6,1.3,3.7,0.5c1.2-0.9,1.4-2.5,0.5-3.7l-10-13.6c-0.9-1.2-2.5-1.4-3.7-0.6
				c-1.2,0.9-1.4,2.5-0.6,3.7L503-10.7z"/>
			<path class="st6" d="M491.1-35.2l-6.8-9.2l-7.6-10.4c-0.9-1.2-2.5-1.4-3.7-0.6c-1.2,0.9-1.4,2.5-0.6,3.7l12,16.3l0.1,0.2
				c0.7,1,0.7,2.3,0,3.2l-13.3,18.1c-0.9,1.2-0.6,2.8,0.6,3.7c1.2,0.8,2.8,0.6,3.7-0.6L491.2-32C491.6-32.7,491.9-34.1,491.1-35.2z"
				/>
		</g>
		<g>
			<path class="st2" d="M452-99.2c1.2,0.9,2.8,0.6,3.7-0.6l8.8-11.9c0.9-1.2,0.6-2.8-0.6-3.7c-1.2-0.9-2.8-0.6-3.7,0.6l-8.8,11.9
				C450.6-101.7,450.8-100,452-99.2z"/>
			<path class="st2" d="M461.4-70.7c0.9,1.2,2.6,1.3,3.7,0.5c1.2-0.9,1.4-2.5,0.5-3.7l-10-13.6c-0.9-1.2-2.5-1.4-3.7-0.6
				s-1.4,2.5-0.6,3.7L461.4-70.7z"/>
			<path class="st5" d="M449.5-95.2l-6.8-9.2l-7.6-10.4c-0.9-1.2-2.5-1.4-3.7-0.6c-1.2,0.9-1.4,2.5-0.6,3.7l12,16.3l0.1,0.2
				c0.7,1,0.7,2.3,0,3.2l-13.3,18.1c-0.9,1.2-0.6,2.8,0.6,3.7c1.2,0.8,2.8,0.6,3.7-0.6L449.6-92C450.1-92.7,450.4-94.1,449.5-95.2z"
				/>
		</g>
		<g>
			<path class="st2" d="M578.5-39.2c1.2,0.9,2.8,0.6,3.7-0.6l8.8-11.9c0.9-1.2,0.6-2.8-0.6-3.7c-1.2-0.9-2.8-0.6-3.7,0.6l-8.8,11.9
				C577.1-41.7,577.3-40,578.5-39.2z"/>
			<path class="st2" d="M587.9-10.7c0.9,1.2,2.6,1.3,3.7,0.5c1.2-0.9,1.4-2.5,0.5-3.7l-10-13.6c-0.9-1.2-2.5-1.4-3.7-0.6
				c-1.2,0.9-1.4,2.5-0.6,3.7L587.9-10.7z"/>
			<path class="st3" d="M576-35.2l-6.8-9.2l-7.6-10.4c-0.9-1.2-2.5-1.4-3.7-0.6s-1.4,2.5-0.6,3.7l12,16.3l0.1,0.2
				c0.7,1,0.7,2.3,0,3.2l-13.3,18.1c-0.9,1.2-0.6,2.8,0.6,3.7c1.2,0.8,2.8,0.6,3.7-0.6L576.1-32C576.6-32.7,576.8-34.1,576-35.2z"/>
		</g>
		<g>
			<path class="st2" d="M536.9-99.2c1.2,0.9,2.8,0.6,3.7-0.6l8.8-11.9c0.9-1.2,0.6-2.8-0.6-3.7c-1.2-0.9-2.8-0.6-3.7,0.6l-8.8,11.9
				C535.5-101.7,535.8-100,536.9-99.2z"/>
			<path class="st2" d="M546.4-70.7c0.9,1.2,2.6,1.3,3.7,0.5c1.2-0.9,1.4-2.5,0.5-3.7l-10-13.6c-0.9-1.2-2.5-1.4-3.7-0.6
				s-1.4,2.5-0.6,3.7L546.4-70.7z"/>
			<path class="st4" d="M534.5-95.2l-6.8-9.2l-7.6-10.4c-0.9-1.2-2.5-1.4-3.7-0.6s-1.4,2.5-0.6,3.7l12,16.3l0.1,0.2
				c0.7,1,0.7,2.3,0,3.2l-13.3,18.1c-0.9,1.2-0.6,2.8,0.6,3.7c1.2,0.8,2.8,0.6,3.7-0.6L534.6-92C535-92.7,535.3-94.1,534.5-95.2z"/>
		</g>
		<g>
			<path class="st2" d="M663.4-39.2c1.2,0.9,2.8,0.6,3.7-0.6l8.8-11.9c0.9-1.2,0.6-2.8-0.6-3.7c-1.2-0.9-2.8-0.6-3.7,0.6l-8.8,11.9
				C662-41.7,662.2-40,663.4-39.2z"/>
			<path class="st2" d="M672.8-10.7c0.9,1.2,2.6,1.3,3.7,0.5c1.2-0.9,1.4-2.5,0.5-3.7l-10-13.6c-0.9-1.2-2.5-1.4-3.7-0.6
				c-1.2,0.9-1.4,2.5-0.6,3.7L672.8-10.7z"/>
			<path class="st5" d="M660.9-35.2l-6.8-9.2l-7.6-10.4c-0.9-1.2-2.5-1.4-3.7-0.6s-1.4,2.5-0.6,3.7l12,16.3l0.1,0.2
				c0.7,1,0.7,2.3,0,3.2l-13.3,18.1c-0.9,1.2-0.6,2.8,0.6,3.7c1.2,0.8,2.8,0.6,3.7-0.6L661-32C661.5-32.7,661.8-34.1,660.9-35.2z"/>
		</g>
		<g>
			<path class="st2" d="M621.9-99.2c1.2,0.9,2.8,0.6,3.7-0.6l8.8-11.9c0.9-1.2,0.6-2.8-0.6-3.7c-1.2-0.9-2.8-0.6-3.7,0.6l-8.8,11.9
				C620.5-101.7,620.7-100,621.9-99.2z"/>
			<path class="st2" d="M631.3-70.7c0.9,1.2,2.6,1.3,3.7,0.5c1.2-0.9,1.4-2.5,0.5-3.7l-10-13.6c-0.9-1.2-2.5-1.4-3.7-0.6
				s-1.4,2.5-0.6,3.7L631.3-70.7z"/>
			<path class="st3" d="M619.4-95.2l-6.8-9.2l-7.6-10.4c-0.9-1.2-2.5-1.4-3.7-0.6c-1.2,0.9-1.4,2.5-0.6,3.7l12,16.3l0.1,0.2
				c0.7,1,0.7,2.3,0,3.2l-13.3,18.1c-0.9,1.2-0.6,2.8,0.6,3.7c1.2,0.8,2.8,0.6,3.7-0.6L619.5-92C620-92.7,620.2-94.1,619.4-95.2z"/>
		</g>
		<g>
			<path class="st2" d="M408.6-159.2c1.2,0.9,2.8,0.6,3.7-0.6l8.8-11.9c0.9-1.2,0.6-2.8-0.6-3.7c-1.2-0.9-2.8-0.6-3.7,0.6l-8.8,11.9
				C407.2-161.7,407.4-160,408.6-159.2z"/>
			<path class="st2" d="M418-130.7c0.9,1.2,2.6,1.3,3.7,0.5c1.2-0.9,1.4-2.5,0.5-3.7l-10-13.6c-0.9-1.2-2.5-1.4-3.7-0.6
				c-1.2,0.9-1.4,2.5-0.6,3.7L418-130.7z"/>
			<path class="st4" d="M406.1-155.2l-6.8-9.2l-7.6-10.4c-0.9-1.2-2.5-1.4-3.7-0.6c-1.2,0.9-1.4,2.5-0.6,3.7l12,16.3l0.1,0.2
				c0.7,1,0.7,2.3,0,3.2l-13.3,18.1c-0.9,1.2-0.6,2.8,0.6,3.7c1.2,0.8,2.8,0.6,3.7-0.6l15.7-21.3C406.7-152.7,407-154.1,406.1-155.2
				z"/>
		</g>
		<g>
			<path class="st2" d="M367.1-219.1c1.2,0.9,2.8,0.6,3.7-0.6l8.8-11.9c0.9-1.2,0.6-2.8-0.6-3.7c-1.2-0.9-2.8-0.6-3.7,0.6l-8.8,11.9
				C365.7-221.6,365.9-220,367.1-219.1z"/>
			<path class="st2" d="M376.5-190.7c0.9,1.2,2.6,1.3,3.7,0.5c1.2-0.9,1.4-2.5,0.5-3.7l-10-13.6c-0.9-1.2-2.5-1.4-3.7-0.6
				c-1.2,0.9-1.4,2.5-0.6,3.7L376.5-190.7z"/>
			<path class="st6" d="M364.6-215.2l-6.8-9.2l-7.6-10.4c-0.9-1.2-2.5-1.4-3.7-0.6c-1.2,0.9-1.4,2.5-0.6,3.7l12,16.3l0.1,0.2
				c0.7,1,0.7,2.3,0,3.2l-13.3,18.1c-0.9,1.2-0.6,2.8,0.6,3.7c1.2,0.8,2.8,0.6,3.7-0.6l15.7-21.3C365.2-212.7,365.4-214,364.6-215.2
				z"/>
		</g>
		<g>
			<path class="st2" d="M493.5-159.2c1.2,0.9,2.8,0.6,3.7-0.6l8.8-11.9c0.9-1.2,0.6-2.8-0.6-3.7c-1.2-0.9-2.8-0.6-3.7,0.6l-8.8,11.9
				C492.1-161.7,492.4-160,493.5-159.2z"/>
			<path class="st2" d="M503-130.7c0.9,1.2,2.6,1.3,3.7,0.5c1.2-0.9,1.4-2.5,0.5-3.7l-10-13.6c-0.9-1.2-2.5-1.4-3.7-0.6
				c-1.2,0.9-1.4,2.5-0.6,3.7L503-130.7z"/>
			<path class="st4" d="M491.1-155.2l-6.8-9.2l-7.6-10.4c-0.9-1.2-2.5-1.4-3.7-0.6c-1.2,0.9-1.4,2.5-0.6,3.7l12,16.3l0.1,0.2
				c0.7,1,0.7,2.3,0,3.2l-13.3,18.1c-0.9,1.2-0.6,2.8,0.6,3.7c1.2,0.8,2.8,0.6,3.7-0.6l15.7-21.3
				C491.6-152.7,491.9-154.1,491.1-155.2z"/>
		</g>
		<g>
			<path class="st2" d="M452-219.1c1.2,0.9,2.8,0.6,3.7-0.6l8.8-11.9c0.9-1.2,0.6-2.8-0.6-3.7c-1.2-0.9-2.8-0.6-3.7,0.6l-8.8,11.9
				C450.6-221.6,450.8-220,452-219.1z"/>
			<path class="st2" d="M461.4-190.7c0.9,1.2,2.6,1.3,3.7,0.5c1.2-0.9,1.4-2.5,0.5-3.7l-10-13.6c-0.9-1.2-2.5-1.4-3.7-0.6
				s-1.4,2.5-0.6,3.7L461.4-190.7z"/>
			<path class="st3" d="M449.5-215.2l-6.8-9.2l-7.6-10.4c-0.9-1.2-2.5-1.4-3.7-0.6c-1.2,0.9-1.4,2.5-0.6,3.7l12,16.3l0.1,0.2
				c0.7,1,0.7,2.3,0,3.2l-13.3,18.1c-0.9,1.2-0.6,2.8,0.6,3.7c1.2,0.8,2.8,0.6,3.7-0.6l15.7-21.3C450.1-212.7,450.4-214,449.5-215.2
				z"/>
		</g>
		<g>
			<path class="st2" d="M578.5-159.2c1.2,0.9,2.8,0.6,3.7-0.6l8.8-11.9c0.9-1.2,0.6-2.8-0.6-3.7c-1.2-0.9-2.8-0.6-3.7,0.6l-8.8,11.9
				C577.1-161.7,577.3-160,578.5-159.2z"/>
			<path class="st2" d="M587.9-130.7c0.9,1.2,2.6,1.3,3.7,0.5c1.2-0.9,1.4-2.5,0.5-3.7l-10-13.6c-0.9-1.2-2.5-1.4-3.7-0.6
				c-1.2,0.9-1.4,2.5-0.6,3.7L587.9-130.7z"/>
			<path class="st5" d="M576-155.2l-6.8-9.2l-7.6-10.4c-0.9-1.2-2.5-1.4-3.7-0.6s-1.4,2.5-0.6,3.7l12,16.3l0.1,0.2
				c0.7,1,0.7,2.3,0,3.2l-13.3,18.1c-0.9,1.2-0.6,2.8,0.6,3.7c1.2,0.8,2.8,0.6,3.7-0.6l15.7-21.3C576.6-152.7,576.8-154.1,576-155.2
				z"/>
		</g>
		<g>
			<path class="st2" d="M536.9-219.1c1.2,0.9,2.8,0.6,3.7-0.6l8.8-11.9c0.9-1.2,0.6-2.8-0.6-3.7c-1.2-0.9-2.8-0.6-3.7,0.6l-8.8,11.9
				C535.5-221.6,535.8-220,536.9-219.1z"/>
			<path class="st2" d="M546.4-190.7c0.9,1.2,2.6,1.3,3.7,0.5c1.2-0.9,1.4-2.5,0.5-3.7l-10-13.6c-0.9-1.2-2.5-1.4-3.7-0.6
				s-1.4,2.5-0.6,3.7L546.4-190.7z"/>
			<path class="st6" d="M534.5-215.2l-6.8-9.2l-7.6-10.4c-0.9-1.2-2.5-1.4-3.7-0.6c-1.2,0.9-1.4,2.5-0.6,3.7l12,16.3l0.1,0.2
				c0.7,1,0.7,2.3,0,3.2l-13.3,18.1c-0.9,1.2-0.6,2.8,0.6,3.7c1.2,0.8,2.8,0.6,3.7-0.6l15.7-21.3C535-212.7,535.3-214,534.5-215.2z"
				/>
		</g>
		<g>
			<path class="st2" d="M663.4-159.2c1.2,0.9,2.8,0.6,3.7-0.6l8.8-11.9c0.9-1.2,0.6-2.8-0.6-3.7c-1.2-0.9-2.8-0.6-3.7,0.6l-8.8,11.9
				C662-161.7,662.2-160,663.4-159.2z"/>
			<path class="st2" d="M672.8-130.7c0.9,1.2,2.6,1.3,3.7,0.5c1.2-0.9,1.4-2.5,0.5-3.7l-10-13.6c-0.9-1.2-2.5-1.4-3.7-0.6
				c-1.2,0.9-1.4,2.5-0.6,3.7L672.8-130.7z"/>
			<path class="st6" d="M660.9-155.2l-6.8-9.2l-7.6-10.4c-0.9-1.2-2.5-1.4-3.7-0.6s-1.4,2.5-0.6,3.7l12,16.3l0.1,0.2
				c0.7,1,0.7,2.3,0,3.2l-13.3,18.1c-0.9,1.2-0.6,2.8,0.6,3.7c1.2,0.8,2.8,0.6,3.7-0.6L661-152C661.5-152.7,661.8-154.1,660.9-155.2
				z"/>
		</g>
		<g>
			<path class="st2" d="M621.9-219.1c1.2,0.9,2.8,0.6,3.7-0.6l8.8-11.9c0.9-1.2,0.6-2.8-0.6-3.7c-1.2-0.9-2.8-0.6-3.7,0.6l-8.8,11.9
				C620.5-221.6,620.7-220,621.9-219.1z"/>
			<path class="st2" d="M631.3-190.7c0.9,1.2,2.6,1.3,3.7,0.5c1.2-0.9,1.4-2.5,0.5-3.7l-10-13.6c-0.9-1.2-2.5-1.4-3.7-0.6
				s-1.4,2.5-0.6,3.7L631.3-190.7z"/>
			<path class="st5" d="M619.4-215.2l-6.8-9.2l-7.6-10.4c-0.9-1.2-2.5-1.4-3.7-0.6c-1.2,0.9-1.4,2.5-0.6,3.7l12,16.3l0.1,0.2
				c0.7,1,0.7,2.3,0,3.2l-13.3,18.1c-0.9,1.2-0.6,2.8,0.6,3.7c1.2,0.8,2.8,0.6,3.7-0.6l15.7-21.3C620-212.7,620.2-214,619.4-215.2z"
				/>
		</g>
	</g>
</pattern>
<title>clickx-logo-standard</title>
<g id="Layer_2">
	<g id="Layer_1-2">
		<path class="st1" d="M139,48.3c7.9,0.1,15.4-3.8,19.9-10.3c0.9-1.1,0.8-2.8-0.3-3.8c-1.1-0.9-2.8-0.8-3.8,0.3
			c-0.1,0.1-0.2,0.3-0.3,0.4c-6,8.6-17.7,10.7-26.3,4.7c-5.1-3.5-8.1-9.3-8.1-15.5c0-10.4,8.5-18.9,19-18.8c5.7,0,11.1,2.6,14.6,7.1
			c0.9,1.1,2.6,1.2,3.7,0.3c0,0,0,0,0,0c1.1-1,1.2-2.6,0.2-3.7C149.3-1.4,134.1-3,123.8,5.4c-5.6,4.6-8.9,11.5-8.9,18.7
			C114.9,38.2,125.7,48.3,139,48.3z"/>
		<path class="st1" d="M24.1,48.3C32,48.4,39.5,44.5,44,38c0.8-1.2,0.5-2.9-0.7-3.7c-1.2-0.8-2.9-0.5-3.7,0.7c0,0,0,0,0,0
			c-6,8.5-17.8,10.6-26.3,4.6c-5-3.5-8-9.3-8-15.4c0-10.4,8.5-18.9,19-18.8c5.7,0,11.1,2.6,14.6,7.1c0.9,1.1,2.6,1.2,3.7,0.3
			c0,0,0,0,0,0c1.1-1,1.2-2.6,0.2-3.7C34.4-1.4,19.2-3,8.9,5.4C3.3,10,0,16.9,0,24.1C0.1,38.2,10.8,48.3,24.1,48.3z"/>
		<path class="st1" d="M100.3,47.2c1.5,0,2.8-1.2,2.8-2.8l0,0V3.3c0-1.5-1.2-2.8-2.8-2.8s-2.8,1.2-2.8,2.8v41.1
			C97.6,46,98.8,47.2,100.3,47.2z"/>
		<path class="st1" d="M83.4,41.7H62.9c-0.9,0-1.3-0.1-1.3-1V3.4c0-1.5-1.2-2.8-2.8-2.8c0,0,0,0,0,0c-1.5,0-2.7,1.2-2.8,2.7
			c0,0,0,0.1,0,0.1v42.5c0,0.7,0.7,1.3,1.4,1.3h26c1.5,0,2.7-1.2,2.7-2.7C86.1,42.9,84.9,41.7,83.4,41.7
			C83.4,41.7,83.4,41.7,83.4,41.7L83.4,41.7z"/>
		<path class="st1" d="M204.6,43.2l-16.3-22c-0.5-0.7-0.4-1.7,0.2-2.4L202.3,5c0.9-1,0.8-2.5-0.1-3.4c-0.4-0.4-1-0.6-1.6-0.6
			c-0.6,0-1.2,0.2-1.7,0.7l-15,15c-2.6,2.6-5.4,5.5-6.8,6.9c-0.3,0.3-0.7,0.1-0.7-0.4V3.3c0-1.5-1.2-2.8-2.8-2.8s-2.8,1.2-2.8,2.8
			v41.2c0,1.5,1.2,2.7,2.8,2.8c1.5,0,2.8-1.2,2.8-2.8V31.9c0-0.5,0.1-1,0.4-1.4l5.4-5.5c0.7-0.7,1.8-0.7,2.5-0.1
			c0.1,0.1,0.1,0.1,0.2,0.2l15.5,21c0.5,0.6,1.2,1,2,1c0.5,0,1.1-0.2,1.5-0.5c1.2-0.7,1.5-2.3,0.8-3.4
			C204.7,43.3,204.7,43.3,204.6,43.2z"/>
		<path class="st1" d="M242.5,17.6c1.1,0.9,2.8,0.6,3.6-0.5c0,0,0,0,0.1-0.1L255,5c0.9-1.1,0.6-2.8-0.5-3.6c0,0,0,0-0.1-0.1
			c-1.1-0.9-2.8-0.6-3.6,0.5c0,0,0,0-0.1,0.1l-8.9,12C241,15.1,241.3,16.7,242.5,17.6z"/>
		<path class="st1" d="M252,46.3c0.9,1.1,2.5,1.3,3.7,0.5c1.2-0.9,1.4-2.5,0.5-3.7l-10.1-13.7c-0.9-1.2-2.5-1.4-3.7-0.6
			c-1.2,0.9-1.4,2.5-0.6,3.7L252,46.3z"/>
		<path class="st4" d="M240,21.6l-6.8-9.2L225.5,2c-0.9-1.2-2.5-1.4-3.7-0.6c-1.2,0.9-1.4,2.5-0.6,3.7l12.1,16.4l0.1,0.2
			c0.7,1,0.7,2.3,0,3.3L220,43.2c-0.9,1.2-0.6,2.8,0.6,3.7c1.2,0.9,2.8,0.6,3.7-0.6l0,0L240,24.8C240.7,23.9,240.7,22.6,240,21.6z"
			/>
	</g>
</g>
<rect x="-913" y="-508" class="st1" width="835" height="999"/>
<rect x="-812.5" y="-247" class="st0" width="634" height="448"/>
<text transform="matrix(1 0 0 1 -758.1221 -211.9507)"><tspan x="0" y="0" class="st2" style="font-family:'SourceSansPro-Bold'; font-size:50px; letter-spacing:10;">MARKETING </tspan><tspan x="373.4" y="0" class="st4" style="font-family:'SourceSansPro-Bold'; font-size:50px; letter-spacing:10;">HACK</tspan><tspan x="89.5" y="70" class="st2" style="font-family:'SourceSansPro-Bold'; font-size:50px; letter-spacing:10;">OF THE DAY</tspan></text>
<pattern  id="SVGID_1_" xlink:href="#Pattern_X" patternTransform="matrix(1.087 0 0 1.087 -310.794 684.8931)">
</pattern>
<rect x="-913" y="-23.1" class="st7" width="835" height="515.2"/>
</svg>
