<?xml version="1.0" standalone="no"?>
<!DOCTYPE svg PUBLIC "-//W3C//DTD SVG 1.1//EN" "http://www.w3.org/Graphics/SVG/1.1/DTD/svg11.dtd" >
<svg xmlns="http://www.w3.org/2000/svg">
<metadata>Generated by IcoMoon</metadata>
<defs>
<font id="clickx-icons" horiz-adv-x="1024">
<font-face units-per-em="1024" ascent="960" descent="-64" />
<missing-glyph horiz-adv-x="1024" />
<glyph unicode="&#x20;" horiz-adv-x="512" d="" />
<glyph unicode="&#xc900;" glyph-name="Addition" horiz-adv-x="1026" d="M512.936-56c-81.226 0-147.301 66.096-147.301 147.301v209.356h-209.356c-81.205 0-147.258 66.096-147.258 147.322s66.054 147.343 147.258 147.343h209.356v209.378c0 81.226 66.074 147.301 147.301 147.301 81.268 0 147.385-66.074 147.385-147.301v-133.285c0-17.444-14.141-31.564-31.564-31.564s-31.564 14.12-31.564 31.564v133.285c0 46.42-37.793 84.172-84.256 84.172-46.42 0-84.172-37.752-84.172-84.172v-240.921c0-17.444-14.12-31.564-31.564-31.564h-240.921c-46.399 0-84.13-37.772-84.13-84.214s37.73-84.193 84.13-84.193h240.921c17.444 0 31.564-14.141 31.564-31.564v-240.921c0-46.42 37.752-84.172 84.172-84.172 46.463 0 84.256 37.752 84.256 84.172v240.921c0 17.423 14.141 31.564 31.564 31.564h240.921c46.42 0 84.172 37.772 84.172 84.193s-37.752 84.214-84.172 84.214h-240.921c-17.423 0-31.564 14.12-31.564 31.564s14.141 31.564 31.564 31.564h240.921c81.205 0 147.301-66.096 147.301-147.343s-66.096-147.322-147.301-147.322h-209.356v-209.356c0-81.226-66.118-147.322-147.385-147.322z" />
<glyph unicode="&#xc901;" glyph-name="Adex" horiz-adv-x="653" d="M555.147 334.641c-17.323 0-34.646 6.586-47.85 19.759l-134.764 134.779c-8.812 8.812-8.812 23.098 0 31.894 8.812 8.812 23.082 8.812 31.894 0l134.75-134.764c8.827-8.782 23.158-8.782 31.924 0l9.534 9.549c4.285 4.285 6.632 9.954 6.632 15.984 0 6-2.346 11.669-6.601 15.94l-80.75 80.781c-8.812 8.812-8.812 23.098 0 31.911 8.812 8.797 23.082 8.797 31.894 0l80.732-80.766c12.797-12.767 19.834-29.759 19.834-47.834s-7.052-35.082-19.834-47.879l-9.534-9.534c-13.188-13.218-30.522-19.819-47.863-19.819zM255.559 351.573c-1.534 0-3.068 0.165-4.587 0.466-7.443 1.549-13.609 6.721-16.39 13.804l-217.694 551.223c-3.31 8.361-1.323 17.88 5.022 24.226s15.864 8.35 24.24 5.022l551.177-217.694c7.083-2.797 12.256-8.947 13.804-16.39s-0.766-15.158-6.135-20.526l-89.938-89.953c-8.812-8.812-23.082-8.812-31.894 0-8.812 8.797-8.812 23.082 0 31.894l65.638 65.653-470.848 185.981 185.966-470.878 107.682 107.652c8.812 8.812 23.082 8.812 31.894 0s8.812-23.098 0-31.894l-131.982-131.951c-4.27-4.285-10.030-6.632-15.955-6.632zM510.576 12.677c-12.451 0-22.556 10.105-22.556 22.556v164.509c0 12.451 10.105 22.556 22.556 22.556s22.556-10.105 22.556-22.556v-164.493c0-12.466-10.105-22.571-22.556-22.571zM396.999-58.359c-12.451 0-22.556 10.105-22.556 22.556v320.006c0 12.451 10.105 22.556 22.556 22.556s22.556-10.105 22.556-22.556v-320.006c0-12.451-10.105-22.556-22.556-22.556zM283.422 94.33c-12.466 0-22.556 10.105-22.556 22.556v108.84c0 12.451 10.090 22.556 22.556 22.556s22.556-10.105 22.556-22.556v-108.84c0-12.451-10.090-22.556-22.556-22.556z" />
<glyph unicode="&#xc902;" glyph-name="Approve" horiz-adv-x="1010" d="M286.731 20.462h-212.249c-14.412 0-26.111 11.695-26.111 26.111v301.897c0 14.412 11.695 26.111 26.111 26.111s26.111-11.695 26.111-26.111v-275.767h160.026v334.293h-186.137c-14.412 0-26.111 11.695-26.111 26.111s11.695 26.111 26.111 26.111h212.249c14.412 0 26.111-11.695 26.111-26.111v-386.53c0-14.412-11.682-26.111-26.111-26.111zM665.833-5.023c-65.208 0-132.766 9.852-171.391 25.329-7.674 3.064-16.065 6.704-24.98 10.564-29.299 12.742-65.729 28.601-98.667 32.17-14.346 1.565-24.703 14.449-23.151 28.756 1.552 14.346 14.43 24.754 28.756 23.151 40.858-4.422 81.347-22.039 113.879-36.172 8.409-3.672 16.331-7.105 23.571-9.995 66.059-26.513 230.319-31.141 274.862-0.647 22.472 15.335 26.111 26.757 31.614 44.058 5.748 18.088 12.917 40.561 40.736 63.782 17.236 14.346 18.050 27.766 18.225 56.714 0.142 21.794 0.349 48.899 12.309 79.622 13.977 35.964 6.18 55.773-3.709 80.876-5.918 15.005-12.619 32.047-14.346 52.637-4.668 55.947-98.092 58.786-116.788 58.786-91.388 0-130.016 2.683-143.96 29.751-2.993 5.831-8.566 21.377 4.493 39.618 16.382 22.925 58.385 149.442 54.835 212.96-1.325 23.953-20.261 40.612-28.322 46.67-11.837 8.862-23.189 12.968-30.098 14.133-8.302-50.29-48.965-150.328-92.623-211.202-20.158-28.115-51.787-78.788-79.673-123.525-32.17-51.525-52.398-83.766-62.651-96.366-22.162-27.276-66.341-58.003-68.204-59.29-11.856-8.198-28.096-5.238-36.313 6.597-8.217 11.856-5.275 28.115 6.581 36.346 11.055 7.642 42.927 31.457 57.408 49.282 8.702 10.725 34.206 51.577 58.856 91.091 28.322 45.364 60.421 96.819 81.574 126.291 42.979 59.917 80.72 159.192 84.218 194.284 2.418 23.92 22.194 39.778 48.446 38.977 43.586-0.976 109.265-44.44 112.942-110.398 3.709-66.879-30.831-180.9-55.074-229.828 23.189-3.187 64.914-3.187 87.542-3.187 98.629 0 163.336-40.871 168.837-106.658 1.099-12.949 5.638-24.509 10.913-37.878 11.19-28.478 25.155-63.919 3.744-118.928-8.462-21.76-8.598-40.838-8.74-61.016-0.175-30.935-0.401-66.006-36.992-96.489-16.117-13.454-19.621-24.373-24.405-39.514-6.53-20.435-14.623-45.869-51.907-71.334-31.057-21.218-90.658-30.029-152.332-30.029z" />
<glyph unicode="&#xc903;" glyph-name="Attract" horiz-adv-x="902" d="M545.531 200.39c-35.137 0-70.289 13.366-97.035 40.127-15.616 15.601-148.951 148.937-218.842 218.826l-110.201-110.201c6.247-6.123 13.809-13.688 23.088-22.949l14.973-14.989c8.972-8.956 8.972-23.501 0-32.472s-23.516-8.972-32.488 0l-14.973 14.973c-17.346 17.346-36.53 36.53-38.903 38.872-1.179 1.133-2.251 2.404-3.199 3.813-6.109 9.109-4.929 21.28 2.832 29.028l142.629 142.629c8.972 8.972 23.501 8.972 32.472 0 62.772-62.756 218.137-218.122 235.070-235.056 35.596-35.596 93.498-35.596 129.080-0.046 17.239 17.239 26.731 40.158 26.731 64.548s-9.493 47.308-26.731 64.548c-27.987 28.017-176.34 176.387-235.070 235.085-4.302 4.318-6.721 10.15-6.721 16.244s2.419 11.926 6.721 16.244l142.629 142.629c8.972 8.972 23.501 8.972 32.472 0l108.625-108.61c4.302-4.302 6.721-10.15 6.721-16.244s-2.419-11.942-6.721-16.244l-86.976-86.93c-8.972-8.956-23.501-8.956-32.472 0s-8.972 23.516 0 32.488l70.717 70.686-76.137 76.137-110.14-110.155c66.139-66.124 193.152-193.167 218.842-218.858 25.89-25.905 40.173-60.353 40.173-97.020 0-36.653-14.285-71.115-40.188-97.020-26.746-26.717-61.868-40.081-96.974-40.081zM555.361-11.271c-90.528 0-175.652 35.274-239.678 99.286l-136.32 136.32c-4.302 4.302-6.721 10.15-6.721 16.244s2.419 11.926 6.721 16.244l82.536 82.536c8.972 8.972 23.501 8.972 32.472 0s8.972-23.501 0-32.472l-66.292-66.292 120.076-120.091c55.346-55.346 128.926-85.828 207.206-85.828 78.249 0 151.829 30.483 207.16 85.828 55.346 55.346 85.828 128.926 85.828 207.175s-30.483 151.829-85.828 207.175l-82.215 82.23c-8.956 8.972-8.956 23.516 0.015 32.472s23.532 8.972 32.472-0.015l82.2-82.215c64.027-64.027 99.286-149.135 99.286-239.649 0-90.528-35.274-175.652-99.286-239.649-63.995-64.041-149.105-99.3-239.633-99.3zM381.301 752.24c-0.168 0-0.353 0-0.521 0-12.692 0.291-22.735 10.794-22.445 23.47l0.689 30.865-30.88-0.689c-6.262-0.26-12.324 2.281-16.765 6.721s-6.859 10.487-6.705 16.765l1.271 54.902c0.291 12.677 11.084 22.995 23.486 22.428 12.677-0.291 22.72-10.809 22.428-23.486l-0.704-30.88 30.88 0.689c6.247 0.2 12.324-2.297 16.749-6.721 4.44-4.44 6.859-10.487 6.721-16.749l-1.24-54.887c-0.291-12.478-10.518-22.428-22.965-22.428zM84.516 455.44c-0.168 0-0.336 0-0.521 0-12.677 0.275-22.735 10.794-22.445 23.47l0.673 30.865-30.88-0.704c-6.262-0.246-12.324 2.281-16.765 6.721s-6.859 10.487-6.721 16.765l1.255 54.902c0.291 12.677 10.84 22.735 23.486 22.428 12.677-0.291 22.72-10.809 22.428-23.486l-0.704-30.865 30.865 0.704c6.308 0.2 12.324-2.281 16.749-6.705 4.44-4.44 6.874-10.487 6.721-16.749l-1.225-54.887c-0.246-12.509-10.473-22.46-22.92-22.46z" />
<glyph unicode="&#xc904;" glyph-name="Automotive" d="M974.629 425.702c-0.031 0-0.066 0-0.097 0-13.612 0.066-24.624 11.144-24.558 24.756 0.476 115.214-44.598 223.723-126.984 305.551-82.456 81.927-192.344 127.314-309.497 127.79-0.64 0-1.314 0-1.989 0-116.382 0-225.86-44.416-308.526-125.21-83.012-81.138-129.007-189.27-129.466-304.451-0.066-13.577-11.095-24.558-24.656-24.558-0.031 0-0.066 0-0.097 0-13.626 0.031-24.624 11.13-24.558 24.739 0.525 128.496 51.779 249.072 144.326 339.53 92.449 90.361 214.553 139.38 345.185 139.265 130.192-0.525 252.392-51.008 344.084-142.126 91.792-91.215 142.077-212.217 141.518-340.729-0.083-13.577-11.078-24.558-24.673-24.558zM511.533-37.229c-129.351 0-251.092 49.412-343.030 139.282-92.546 90.444-143.818 211.034-144.326 339.512-0.049 13.612 10.948 24.707 24.558 24.756 0.031 0 0.066 0 0.097 0 13.577 0 24.607-10.981 24.656-24.558 0.459-115.183 46.454-223.297 129.483-304.451 83.144-81.239 193.856-126.344 310.517-125.225 117.153 0.476 227.059 45.88 309.497 127.807 82.39 81.847 127.463 190.356 126.984 305.568-0.066 13.612 10.948 24.69 24.558 24.756 0.031 0 0.066 0 0.097 0 13.577 0 24.593-10.964 24.656-24.558 0.542-128.514-49.725-249.531-141.518-340.746-91.691-91.118-213.895-141.598-344.084-142.142-0.706 0-1.447 0-2.153 0zM510.859 68.418c-87.913 0-172.273 30.443-240.64 87.467-77.342 64.505-124.946 155.258-134.054 255.58-5.047 55.231 1.825 109.527 20.401 161.324 4.585 12.837 18.673 19.48 31.528 14.892 12.823-4.585 19.48-18.722 14.892-31.528-16.143-45.008-22.093-92.185-17.721-140.234 7.922-87.204 49.297-166.093 116.531-222.178 67.265-56.086 152.366-82.685 239.504-74.631 179.917 16.407 313.097 176.169 296.823 356.131-7.939 87.238-49.346 166.142-116.611 222.196-67.297 56.086-152.282 82.585-239.636 74.513-95.769-8.613-182.514-58.669-238.057-137.325-7.842-11.13-23.261-13.793-34.372-5.916-11.13 7.873-13.775 23.245-5.916 34.372 63.88 90.493 163.726 148.091 273.878 158.004 100.354 9.222 198.261-21.239 275.667-85.758 77.374-64.488 125.012-155.258 134.169-255.646 18.722-207.041-134.464-390.801-341.47-409.687-11.655-1.053-23.311-1.579-34.914-1.579zM512.766 557.537c-13.643 0-24.656 11.047-24.656 24.656v132.722c0 13.612 11.012 24.656 24.656 24.656 13.612 0 24.656-11.047 24.656-24.656v-132.722c0-13.612-11.047-24.656-24.656-24.656zM512.766 151.531c-13.643 0-24.656 11.047-24.656 24.656v132.74c0 13.612 11.012 24.656 24.656 24.656 13.612 0 24.656-11.047 24.656-24.656v-132.74c0-13.626-11.047-24.656-24.656-24.656zM609.373 517.51c-6.329 0-12.625 2.399-17.439 7.217-9.633 9.633-9.633 25.232 0 34.865l93.847 93.862c9.633 9.633 25.232 9.633 34.865 0s9.633-25.232 0-34.865l-93.847-93.862c-4.818-4.801-11.144-7.217-17.425-7.217zM322.28 230.415c-6.329 0-12.625 2.399-17.439 7.217-9.633 9.633-9.633 25.232 0 34.865l93.847 93.862c9.633 9.633 25.232 9.633 34.865 0s9.633-25.232 0-34.865l-93.829-93.862c-4.818-4.801-11.144-7.217-17.439-7.217zM416.126 517.51c-6.312 0-12.625 2.399-17.439 7.217l-93.847 93.862c-9.633 9.633-9.633 25.232 0 34.865s25.232 9.633 34.865 0l93.829-93.862c9.633-9.633 9.633-25.232 0-34.865-4.801-4.801-11.078-7.217-17.408-7.217zM703.219 230.415c-6.295 0-12.625 2.399-17.439 7.217l-93.847 93.862c-9.633 9.633-9.633 25.232 0 34.865s25.232 9.633 34.865 0l93.847-93.862c9.633-9.633 9.633-25.232 0-34.865-4.818-4.801-11.113-7.217-17.425-7.217zM376.115 420.886h-132.722c-13.626 0-24.656 11.047-24.656 24.656s11.029 24.656 24.656 24.656h132.722c13.626 0 24.656-11.047 24.656-24.656s-11.029-24.656-24.656-24.656zM782.087 420.886h-132.722c-13.612 0-24.656 11.047-24.656 24.656s11.047 24.656 24.656 24.656h132.722c13.643 0 24.656-11.047 24.656-24.656s-10.998-24.656-24.656-24.656zM511.516 300.705c-75.319 0-137.242 56.646-144.047 131.77-3.517 38.546 8.186 76.143 32.974 105.863 24.739 29.737 59.604 48.001 98.104 51.484 4.456 0.394 8.958 0.608 13.38 0.608 75.253 0 137.193-56.646 144.030-131.77 7.199-79.511-51.633-150.114-131.162-157.364-4.456-0.41-8.892-0.591-13.282-0.591zM511.926 541.113c-2.958 0-5.902-0.132-8.892-0.41-25.43-2.284-48.411-14.335-64.734-33.93-16.341-19.594-24.049-44.399-21.746-69.83 4.766-52.453 50.316-91.462 103.742-86.515 52.453 4.783 91.281 51.352 86.529 103.792-4.488 49.512-45.321 86.891-94.896 86.891z" />
<glyph unicode="&#xc905;" glyph-name="Bar" horiz-adv-x="804" d="M433.591 501.944c-41.436 0-75.155 33.702-75.155 75.155s33.719 75.155 75.155 75.155 75.155-33.702 75.155-75.155-33.737-75.155-75.155-75.155zM433.591 599.404c-12.085 0-22.303-10.2-22.303-22.303s10.218-22.303 22.303-22.303 22.303 10.2 22.303 22.303-10.236 22.303-22.303 22.303zM402.074-38.467c-14.587 0-26.426 11.839-26.426 26.426v345.035c0 6.501 2.414 12.79 6.766 17.635l334.113 372.712h-629.009l262.763-294.086c9.724-10.87 8.773-27.572-2.096-37.296-10.87-9.742-27.572-8.809-37.314 2.096l-302.12 338.112c-6.942 7.752-8.668 18.886-4.405 28.381 4.263 9.514 13.706 15.644 24.118 15.644h747.239c10.43 0 19.873-6.131 24.136-15.662 4.245-9.514 2.501-20.648-4.457-28.399l-366.881-409.25v-334.905c0-14.605-11.821-26.443-26.426-26.443zM229.353 737.189c-7.241 0-14.464 2.96-19.697 8.791l-82.344 91.874-54.861 63.493c-9.548 11.046-8.333 27.73 2.713 37.26s27.748 8.35 37.278-2.713l54.543-63.122 82.026-91.505c9.742-10.853 8.844-27.572-2.026-37.314-5.056-4.545-11.363-6.766-17.635-6.766zM528.514-61.423h-252.879c-14.605 0-26.426 11.839-26.426 26.426s11.821 26.426 26.426 26.426h252.879c14.587 0 26.426-11.839 26.426-26.426s-11.839-26.426-26.426-26.426z" />
<glyph unicode="&#xc906;" glyph-name="BlogWriting" horiz-adv-x="941" d="M611.084-39.354h-562.882c-14.42 0-26.124 11.705-26.124 26.124v880.002c0 14.438 11.705 26.124 26.124 26.124h562.882c14.42 0 26.124-11.686 26.124-26.124v-880.002c0-14.42-11.705-26.124-26.124-26.124zM74.326 12.894h510.633v827.752h-510.633v-827.752zM329.633 798.202c-14.42 0-26.124 11.686-26.124 26.124v84.905c0 14.438 11.705 26.124 26.124 26.124s26.124-11.686 26.124-26.124v-84.905c0-14.438-11.705-26.124-26.124-26.124zM486.382 798.202c-14.42 0-26.124 11.686-26.124 26.124v84.905c0 14.438 11.705 26.124 26.124 26.124s26.124-11.686 26.124-26.124v-84.905c0-14.438-11.705-26.124-26.124-26.124zM172.885 798.202c-14.42 0-26.124 11.686-26.124 26.124v84.905c0 14.438 11.705 26.124 26.124 26.124s26.124-11.686 26.124-26.124v-84.905c0-14.438-11.705-26.124-26.124-26.124zM486.382 666.484h-313.53c-14.42 0-26.124 11.686-26.124 26.124s11.705 26.124 26.124 26.124h313.53c14.42 0 26.124-11.686 26.124-26.124s-11.705-26.124-26.124-26.124zM486.382 527.151h-313.53c-14.42 0-26.124 11.686-26.124 26.124s11.705 26.124 26.124 26.124h313.53c14.42 0 26.124-11.686 26.124-26.124s-11.705-26.124-26.124-26.124zM486.382 387.82h-313.53c-14.42 0-26.124 11.686-26.124 26.124s11.705 26.124 26.124 26.124h313.53c14.42 0 26.124-11.686 26.124-26.124s-11.705-26.124-26.124-26.124zM486.382 248.488h-313.53c-14.42 0-26.124 11.686-26.124 26.124s11.705 26.124 26.124 26.124h313.53c14.42 0 26.124-11.686 26.124-26.124s-11.705-26.124-26.124-26.124zM486.382 109.156h-313.53c-14.42 0-26.124 11.705-26.124 26.124s11.705 26.124 26.124 26.124h313.53c14.42 0 26.124-11.705 26.124-26.124s-11.705-26.124-26.124-26.124zM831.84-39.354c-10.537 0-20.098 6.358-24.155 16.179l-44.796 108.712c-5.505 13.341 0.854 28.614 14.176 34.101 13.341 5.468 28.614-0.872 34.119-14.194l16.877-40.98 28.267 93.265h-110.141c-14.42 0-26.124 11.705-26.124 26.124v671.561c-0.034 20.76 8.065 40.301 22.762 55.037s34.223 22.851 55.037 22.851h41.538c42.897 0 77.833-34.902 77.903-77.799 0-14.438-11.668-26.142-26.091-26.16-0.034 0-0.034 0-0.034 0-14.42 0-26.124 11.668-26.124 26.091-0.034 14.124-11.531 25.618-25.655 25.618h-41.538c-6.809 0-13.238-2.663-18.062-7.524-4.825-4.843-7.489-11.25-7.489-18.077v-645.471h119.233c8.272 0 16.057-3.92 20.987-10.537 4.895-6.671 6.392-15.24 4.005-23.164l-59.704-197.086c-3.204-10.555-12.713-17.974-23.738-18.514-0.435-0.034-0.854-0.034-1.252-0.034zM890.845 257.196h-0.034c-14.42 0-26.091 11.705-26.091 26.142l0.314 572.148c0 14.42 11.705 26.106 26.124 26.106v0c14.42 0 26.124-11.705 26.124-26.142l-0.314-572.148c0-14.42-11.705-26.106-26.124-26.106z" />
<glyph unicode="&#xc907;" glyph-name="Blog" horiz-adv-x="998" d="M173.956-27.001c0 0-0.046 0-0.072 0-82.626 0-149.891 67.259-149.891 149.957 0 40.043 15.56 77.702 43.871 106.015 28.291 28.337 65.929 43.944 105.967 43.944 82.772 0 150.010-67.259 150.056-149.911-0.026-82.679-67.285-149.937-149.937-150.010zM173.982 201.541c-21.080 0-40.804-8.183-55.624-23.008-14.82-14.847-23.008-34.571-22.983-55.551 0-43.323 35.212-78.607 78.489-78.607 43.349 0.046 78.633 35.285 78.633 78.607s-35.238 78.561-78.515 78.561zM600.072-14.322c-19.698 0-35.688 15.964-35.688 35.662-0.046 131.547-51.295 255.191-144.252 348.096-92.834 92.813-216.244 143.942-347.554 143.942-0.238 0-0.476 0-0.641 0-19.698 0-35.662 15.942-35.688 35.642 0 19.937 16.796 36.071 36.329 35.734 150.367 0 291.712-58.527 398.015-164.83 106.423-106.423 165.068-247.959 165.141-398.537 0.026-19.724-15.942-35.714-35.662-35.714v0zM938.318-14.25c-19.698 0-35.688 15.964-35.688 35.662-0.119 221.955-86.553 430.538-243.391 587.35-156.667 156.647-364.945 242.869-586.516 242.869-0.357 0-0.88 0.026-1.025 0-19.698 0-35.662 15.942-35.688 35.642-0.026 20.102 17.486 35.662 36.713 35.734 240.654 0 466.842-93.645 636.978-263.778 170.303-170.256 264.16-396.778 264.279-637.765 0.026-19.724-15.964-35.714-35.662-35.714v0z" />
<glyph unicode="&#xc908;" glyph-name="BoldLocal" horiz-adv-x="1198" d="M605.025 54.054c-7.321 0-14.225 3.332-18.791 9.035-11.919 14.946-291.829 368.355-291.829 585.772 0 171.282 139.338 310.636 310.62 310.636 41.939 0 82.613-8.218 120.916-24.43 14.978-6.344 29.604-13.937 43.461-22.572 11.246-7.017 14.69-21.851 7.674-33.097-7.017-11.277-21.851-14.69-33.097-7.674-11.71 7.321-24.093 13.729-36.765 19.095-32.327 13.681-66.705 20.633-102.173 20.633-144.785 0-262.561-117.792-262.561-262.577 0-169.952 199.572-447.892 262.561-531.37 62.989 83.51 262.577 361.53 262.577 531.37 0 39.873-8.715 78.159-25.904 113.819-7.994 16.644-17.846 32.519-29.284 47.242-8.154 10.477-6.28 25.567 4.214 33.721 10.445 8.154 25.567 6.28 33.705-4.214 13.553-17.397 25.215-36.22 34.667-55.892 20.345-42.211 30.662-87.515 30.662-134.677 0-217.418-279.942-570.826-291.845-585.772-4.582-5.718-11.502-9.052-18.807-9.052zM605.025 484.436c-89.566 0-162.439 72.873-162.439 162.439s72.873 162.439 162.439 162.439c89.566 0 162.439-72.873 162.439-162.439s-72.873-162.439-162.439-162.439zM605.025 761.255c-63.069 0-114.38-51.311-114.38-114.38s51.311-114.38 114.38-114.38c63.069 0 114.38 51.311 114.38 114.38s-51.311 114.38-114.38 114.38zM1180 96.682h-397.030c-13.264 0-24.029 10.765-24.029 24.029s10.765 24.029 24.029 24.029h397.030c13.264 0 24.029-10.765 24.029-24.029s-10.765-24.029-24.029-24.029zM925.384-63.514h-640.72c-13.28 0-24.029 10.765-24.029 24.029s10.75 24.029 24.029 24.029h640.72c13.264 0 24.029-10.765 24.029-24.029s-10.765-24.029-24.029-24.029zM427.062 96.682h-397.013c-13.28 0-24.029 10.765-24.029 24.029s10.75 24.029 24.029 24.029h397.013c13.28 0 24.029-10.765 24.029-24.029s-10.765-24.029-24.029-24.029z" />
<glyph unicode="&#xc909;" glyph-name="BoldLocal2" horiz-adv-x="1450" d="M1392.599 551.023c-18.457 0-33.437 14.957-33.437 33.437v203.75c0 33.548-27.286 60.835-60.835 60.835h-737.153c-33.548 0-60.835-27.286-60.835-60.835v-79.292c0-18.48-14.957-33.437-33.437-33.437s-33.437 14.957-33.437 33.437v79.292c0 70.42 57.291 127.712 127.712 127.712h737.153c70.42 0 127.712-57.291 127.712-127.712v-203.75c0-18.48-14.98-33.437-33.437-33.437zM466.901 675.479h-242.314c-18.48 0-33.437 14.957-33.437 33.437s14.957 33.437 33.437 33.437h242.314c18.48 0 33.437-14.957 33.437-33.437s-14.957-33.437-33.437-33.437zM688.237-19.921c-4.591 0-9.207 0.936-13.553 2.876-12.082 5.351-19.884 17.342-19.884 30.562v167.815h-93.649c-70.42 0-127.712 57.291-127.712 127.712v150.939c0 18.48 14.957 33.437 33.437 33.437h210.948c18.48 0 33.437-14.957 33.437-33.437s-14.957-33.437-33.437-33.437h-177.511v-117.501c0-33.548 27.286-60.835 60.835-60.835h127.087c18.48 0 33.437-14.98 33.437-33.437v-125.905l166.632 150.716c6.13 5.573 14.132 8.649 22.427 8.649h387.591c33.548 0 60.835 27.307 60.835 60.835v150.939c0 18.48 14.98 33.437 33.437 33.437s33.437-14.957 33.437-33.437v-150.939c0-70.42-57.268-127.712-127.712-127.712h-374.707l-212.933-192.626c-6.264-5.685-14.29-8.649-22.447-8.649zM466.901 426.564h-119.708c-18.48 0-33.437 14.957-33.437 33.437s14.957 33.437 33.437 33.437h119.708c18.48 0 33.437-14.957 33.437-33.437s-14.957-33.437-33.437-33.437zM1392.599 551.023h-1335.204c-18.48 0-33.437 14.957-33.437 33.437s14.957 33.437 33.437 33.437h1335.204c18.457 0 33.437-14.957 33.437-33.437s-14.98-33.437-33.437-33.437z" />
<glyph unicode="&#xc90a;" glyph-name="Brochure" horiz-adv-x="581" d="M551.428-60.1h-522.886c-12.615 0-22.855 10.238-22.855 22.855v815.555c0 9.324 5.668 17.735 14.322 21.209l402.171 161.548c7.024 2.833 14.992 1.996 21.301-2.255s10.055-11.351 10.055-18.939v-184.402h97.877c12.615 0 22.855-10.238 22.855-22.855v-769.833c0.015-12.646-10.223-22.884-22.839-22.884zM51.395-14.391h477.178v724.139h-360.516c-12.615 0-22.855 10.238-22.855 22.855s10.238 22.855 22.855 22.855h239.785v150.593l-356.448-143.189v-777.252zM442.368 446.712h-304.766c-12.615 0-22.855 10.238-22.855 22.855v121.888c0 12.615 10.238 22.855 22.855 22.855h304.766c12.615 0 22.855-10.238 22.855-22.855v-121.888c0-12.615-10.238-22.855-22.855-22.855zM160.44 492.421h259.074v76.18h-259.074v-76.18zM442.368 324.824h-304.766c-12.615 0-22.855 10.238-22.855 22.855s10.238 22.855 22.855 22.855h304.766c12.615 0 22.855-10.238 22.855-22.855s-10.238-22.855-22.855-22.855zM442.368 202.935h-304.766c-12.615 0-22.855 10.238-22.855 22.855s10.238 22.855 22.855 22.855h304.766c12.615 0 22.855-10.238 22.855-22.855s-10.238-22.855-22.855-22.855zM442.368 81.047h-304.766c-12.615 0-22.855 10.238-22.855 22.855s10.238 22.855 22.855 22.855h304.766c12.615 0 22.855-10.238 22.855-22.855s-10.238-22.855-22.855-22.855z" />
<glyph unicode="&#xc90c;" glyph-name="Business" horiz-adv-x="1260" d="M1044.751 24h-829.476c-58.971 0-106.954 47.983-106.954 106.932v193.953c0 14.566 11.824 26.39 26.39 26.39s26.39-11.824 26.39-26.39v-193.943c0-29.863 24.3-54.152 54.174-54.152h829.476c29.863 0 54.152 24.3 54.152 54.152v530.344h-937.805v-224.13h875.391c14.566 0 26.39-11.824 26.39-26.39s-11.824-26.39-26.39-26.39h-901.782c-14.566 0-26.39 11.824-26.39 26.39v276.898c0 14.566 11.824 26.39 26.39 26.39h990.585c14.566 0 26.39-11.824 26.39-26.39v-556.734c0-58.962-47.96-106.932-106.932-106.932zM695.103 472.364h-130.234c-14.566 0-26.39 11.824-26.39 26.39s11.824 26.39 26.39 26.39h130.234c14.566 0 26.39-11.824 26.39-26.39s-11.824-26.39-26.39-26.39zM815.78 738.444c-7.034 0-14.091 2.816-19.281 8.375-43.615 46.695-102.744 72.4-166.498 72.4s-122.891-25.705-166.505-72.4c-9.937-10.626-26.632-11.209-37.296-1.245-10.626 9.937-11.209 26.654-1.245 37.296 52.92 56.652 127.65 89.128 205.082 89.128 77.379 0 152.121-32.499 205.036-89.128 9.956-10.642 9.376-27.362-1.235-37.296-5.114-4.79-11.58-7.128-18.046-7.128z" />
<glyph unicode="&#xc90d;" glyph-name="Business2" horiz-adv-x="1168" d="M173.429 34.742c-15.857 0-28.728 12.87-28.728 28.728v859.745c0 15.857 12.87 28.728 28.728 28.728h547.053c15.857 0 28.728-12.87 28.728-28.728v-279.924c0-15.857-12.87-28.728-28.728-28.728s-28.728 12.87-28.728 28.728v251.196h-489.597v-831.018c0-15.857-12.87-28.728-28.728-28.728zM1129.929-56.018h-197.608c-15.857 0-28.728 12.87-28.728 28.728s12.87 28.728 28.728 28.728h168.881v512.101h-482.76v-540.829c0-15.857-12.87-28.728-28.728-28.728h-551.86c-15.857 0-28.728 12.87-28.728 28.728s12.87 28.728 28.728 28.728h523.132v540.829c0 15.857 12.87 28.728 28.728 28.728h540.216c15.857 0 28.728-12.87 28.728-28.728v-569.556c0-15.857-12.87-28.728-28.728-28.728zM613.346 772.088h-332.763c-15.857 0-28.728 12.87-28.728 28.728s12.87 28.728 28.728 28.728h332.763c15.857 0 28.728-12.87 28.728-28.728s-12.87-28.728-28.728-28.728zM613.346 633.237h-332.763c-15.857 0-28.728 12.87-28.728 28.728s12.87 28.728 28.728 28.728h332.763c15.857 0 28.728-12.87 28.728-28.728s-12.87-28.728-28.728-28.728zM806.072 389.051h-89.247c-15.857 0-28.728 12.87-28.728 28.728s12.87 28.728 28.728 28.728h89.247c15.857 0 28.728-12.87 28.728-28.728s-12.87-28.728-28.728-28.728zM806.072 260.446h-89.247c-15.857 0-28.728 12.87-28.728 28.728s12.87 28.728 28.728 28.728h89.247c15.857 0 28.728-12.87 28.728-28.728s-12.87-28.728-28.728-28.728zM1003.24 389.051h-89.247c-15.857 0-28.728 12.87-28.728 28.728s12.87 28.728 28.728 28.728h89.247c15.857 0 28.728-12.87 28.728-28.728s-12.87-28.728-28.728-28.728zM996.269 270.079h-89.247c-15.857 0-28.728 12.87-28.728 28.728s12.87 28.728 28.728 28.728h89.247c15.857 0 28.728-12.87 28.728-28.728s-12.87-28.728-28.728-28.728zM463.464 494.386h-182.881c-15.857 0-28.728 12.87-28.728 28.728s12.87 28.728 28.728 28.728h182.881c15.857 0 28.728-12.87 28.728-28.728s-12.87-28.728-28.728-28.728zM463.464 355.535h-182.881c-15.857 0-28.728 12.87-28.728 28.728s12.87 28.728 28.728 28.728h182.881c15.857 0 28.728-12.87 28.728-28.728s-12.87-28.728-28.728-28.728zM463.464 216.684h-182.881c-15.857 0-28.728 12.87-28.728 28.728s12.87 28.728 28.728 28.728h182.881c15.857 0 28.728-12.87 28.728-28.728s-12.87-28.728-28.728-28.728zM932.321-56.018c-15.857 0-28.728 12.87-28.728 28.728v138.813h-95.165v-138.813c0-15.857-12.87-28.728-28.728-28.728s-28.728 12.87-28.728 28.728v167.541c0 15.857 12.87 28.728 28.728 28.728h152.621c15.857 0 28.728-12.87 28.728-28.728v-167.541c0-15.857-12.87-28.728-28.728-28.728z" />
<glyph unicode="&#xc90e;" glyph-name="Calculator" horiz-adv-x="734" d="M598.588-64h-462.902c-74.801 0-135.685 60.864-135.685 135.685v206.046c0 16.485 13.379 29.865 29.865 29.865s29.865-13.379 29.865-29.865v-206.046c0-41.89 34.086-75.956 75.956-75.956h462.902c41.91 0 76.016 34.086 76.016 75.956v752.59c0 41.89-34.105 75.976-76.016 75.976h-462.902c-41.87 0.020-75.956-34.066-75.956-75.976v-423.143c0-16.485-13.379-29.865-29.865-29.865s-29.865 13.379-29.865 29.865v423.143c0 74.841 60.884 135.705 135.685 135.705h462.902c74.861 0 135.745-60.884 135.745-135.705v-752.59c0-74.821-60.884-135.685-135.745-135.685zM566.234 558.838h-398.116c-16.485 0-29.865 13.379-29.865 29.865v194.917c0 16.485 13.379 29.865 29.865 29.865h398.116c16.485 0 29.865-13.379 29.865-29.865v-194.917c0-16.485-13.379-29.865-29.865-29.865zM197.983 618.567h338.387v135.187h-338.387v-135.187zM520.462 113.715h-0.458c-16.485 0-29.865 13.379-29.865 29.865s13.379 29.865 29.865 29.865 30.104-13.379 30.104-29.865-13.16-29.865-29.646-29.865zM367.415 113.715h-0.478c-16.485 0-29.865 13.379-29.865 29.865s13.379 29.865 29.865 29.865 30.104-13.379 30.104-29.865-13.14-29.865-29.626-29.865zM214.349 113.715h-0.458c-16.485 0-29.865 13.379-29.865 29.865s13.379 29.865 29.865 29.865 30.104-13.379 30.104-29.865-13.16-29.865-29.646-29.865zM520.462 259.773h-0.458c-16.485 0-29.865 13.379-29.865 29.865s13.379 29.865 29.865 29.865 30.104-13.379 30.104-29.865-13.16-29.865-29.646-29.865zM367.415 259.773h-0.478c-16.485 0-29.865 13.379-29.865 29.865s13.379 29.865 29.865 29.865 30.104-13.379 30.104-29.865-13.14-29.865-29.626-29.865zM214.349 259.773h-0.458c-16.485 0-29.865 13.379-29.865 29.865s13.379 29.865 29.865 29.865 30.104-13.379 30.104-29.865-13.16-29.865-29.646-29.865zM520.462 405.811h-0.458c-16.485 0-29.865 13.379-29.865 29.865s13.379 29.865 29.865 29.865 30.104-13.379 30.104-29.865-13.16-29.865-29.646-29.865zM367.415 405.811h-0.478c-16.485 0-29.865 13.379-29.865 29.865s13.379 29.865 29.865 29.865 30.104-13.379 30.104-29.865-13.14-29.865-29.626-29.865zM214.349 405.811h-0.458c-16.485 0-29.865 13.379-29.865 29.865s13.379 29.865 29.865 29.865 30.104-13.379 30.104-29.865-13.16-29.865-29.646-29.865z" />
<glyph unicode="&#xc90f;" glyph-name="CalltoAction" horiz-adv-x="1115" d="M1055.944 216.107h-48.214c-16.022 0-30.197 10.42-37.274 26.701-152.548 102.725-271.142 146.969-435.195 162.75-17.909 1.714-31.043 17.648-29.306 35.537 1.714 17.909 17.844 31.088 35.537 29.306 178.25-17.149 306.005-65.321 471.405-177.643l3.431-2.324c3.626-2.432 6.708-5.602 9.053-9.205h7.489v597.641h-9.313c-1.89-2.259-4.103-4.299-6.6-5.991l-2.886-1.998c-132.641-90.199-220.278-146.359-346.449-164.79-17.736-2.627-34.3 9.725-36.926 27.527-2.583 17.801 9.725 34.321 27.527 36.926 110.844 16.173 188.517 65.386 314.234 150.746 7.707 14.197 20.733 22.685 35.319 22.685h48.214c23.576 0 42.071-21.666 42.071-49.301v-629.205c-0.043-27.679-18.539-49.366-42.115-49.366zM519.804 311.562h-304.594c-9.509 0-18.755 0.565-28.307 1.714-150.224 18.431-169.479 151.461-169.479 265.302 0 124.347 22.49 267.061 197.788 267.104h304.594c17.975 0 32.563-14.589 32.563-32.563v-468.995c0-17.975-14.589-32.563-32.563-32.563zM215.21 780.555c-67.123-0.022-132.661-15.63-132.661-201.977 0-172.453 55.444-193.685 112.234-200.654 6.882-0.846 13.568-1.26 20.429-1.26h272.031v403.891h-272.031zM362.633-48.022c-30.066 0-57.442 15.977-71.399 41.702-0.803 1.433-1.455 2.952-2.018 4.495-30.285 83.97-75.916 210.226-81.603 225.401-0.477 1.107-0.911 2.259-1.303 3.408-5.341 16.911 3.755 35.234 20.537 40.921 21.21 7.163 31.196-0.695 40.878-21.491l0.673 0.217c0.412-1.28 0.715-2.54 0.956-3.82 3.626-8.315 7.293-18.409 11.57-30.197l68.425-189.3c2.844-3.885 7.75-6.209 13.264-6.209 29.632 0 57.723 13.176 70.076 22.859-6.882 18.017-21.947 52.47-35.364 81.3-0.434 0.911-0.803 1.824-1.129 2.758-14.74 41.137 5.037 69.12 31.173 78.585l50.147 17.736c16.976 5.991 35.558-2.886 41.571-19.819 5.97-16.955-2.886-35.58-19.842-41.571l-40.878-14.479c48.302-104.223 45.524-110.932 40.030-124.173-15.347-37.013-77.543-68.317-135.766-68.317z" />
<glyph unicode="&#xc910;" glyph-name="Cart" horiz-adv-x="1056" d="M929.606 296.676h-639.635c-16.167 0-30.057 11.433-33.191 27.284l-107.286 544.21h-105.414c-18.67 0-33.823 15.153-33.823 33.823s15.153 33.823 33.823 33.823h133.217c16.167 0 30.057-11.433 33.191-27.284l107.286-544.21h584.121l70.396 350.157h-647.37c-18.67 0-33.823 15.153-33.823 33.823s15.153 33.823 33.823 33.823h688.679c10.125 0 19.752-4.555 26.156-12.402 6.426-7.847 8.997-18.151 7.013-28.096l-83.994-417.802c-3.18-15.784-17.047-27.149-33.169-27.149zM879.706 148.285h-560.513c-16.167 0-30.057 11.433-33.191 27.284l-29.223 148.392c-3.608 18.332 8.321 36.123 26.652 39.731 18.13 3.676 36.123-8.298 39.731-26.652l23.856-121.108h532.71c18.67 0 33.823-15.153 33.823-33.823s-15.175-33.823-33.845-33.823zM804.89-55.893c-1.42 0-2.796 0.113-4.172 0.316-19.82 1.105-37.791 9.065-51.433 22.729-14.837 14.837-23.023 34.567-23.023 55.582s8.185 40.746 23.023 55.582c29.652 29.674 81.468 29.674 111.187 0 28.637-28.637 30.621-73.914 5.299-105.031-0.812-1.217-1.736-2.368-2.751-3.473-0.316-0.316-0.653-0.653-1.060-1.037-0.405-0.473-0.924-1.060-1.488-1.601-1.060-1.060-2.209-2.052-3.428-2.932-12.199-10.869-27.577-17.678-43.857-19.415-1.443-0.316-2.909-0.519-4.261-0.587-0.541 0-1.263-0.045-1.984 0-0.767-0.113-1.443-0.135-2.052-0.135zM804.89 44.944c-5.976 0-11.545-2.3-15.739-6.494s-6.517-9.786-6.517-15.716 2.323-11.522 6.517-15.716c5.637-5.614 11.635-6.358 16.010-6.336 0.405 0.045 0.789 0.091 1.172 0.113 6.72 0.473 11.297 3.63 13.935 6.201 0.316 0.293 0.587 0.564 0.901 0.857 0.023 0 0.023 0 0.023 0 8.005 8.817 7.779 22.256-0.564 30.598-4.24 4.194-9.809 6.494-15.739 6.494zM410.808-55.893c-1.42 0-2.796 0.113-4.172 0.316-19.82 1.105-37.769 9.065-51.411 22.729-14.837 14.837-23.023 34.567-23.023 55.582s8.162 40.746 23.023 55.582c29.652 29.674 81.468 29.674 111.187 0 28.637-28.637 30.598-73.937 5.276-105.031-0.428-0.609-0.88-1.24-1.353-1.849-0.653-0.789-1.443-1.669-2.323-2.503-0.451-0.496-1.015-1.15-1.624-1.759-1.060-1.060-2.209-2.052-3.428-2.932-12.199-10.846-27.554-17.655-43.812-19.415-1.465-0.316-2.954-0.519-4.329-0.587-0.564 0-1.285-0.045-1.984 0-0.721-0.113-1.398-0.135-2.029-0.135zM410.83 44.944c-5.976 0-11.545-2.3-15.739-6.494s-6.494-9.786-6.494-15.716 2.3-11.522 6.494-15.716c5.525-5.525 12.243-6.336 15.762-6.336 0.068 0 0.157 0 0.248 0 0.405 0.045 0.789 0.091 1.172 0.113 6.72 0.473 11.297 3.63 13.935 6.201 0.271 0.271 0.519 0.496 0.789 0.744 0.045 0.045 0.091 0.091 0.113 0.135 8.027 8.817 7.802 22.233-0.541 30.576-4.217 4.194-9.786 6.494-15.739 6.494z" />
<glyph unicode="&#xc911;" glyph-name="CMSandOrganize" horiz-adv-x="1265" d="M1062.263 10.094h-937.974c-9.278 0-18.165 3.689-24.743 10.238-6.549 6.579-10.238 15.483-10.238 24.769l0.282 805.852c0 19.306 15.677 34.952 34.983 34.952h301.473c13.246 0 25.371-7.482 31.292-19.336l27.397-54.852h483.797c19.306 0 34.983-15.677 34.983-34.983s-15.677-34.983-34.983-34.983h-505.414c-13.246 0-25.371 7.482-31.292 19.336l-27.425 54.852h-244.873l-0.251-735.887h902.991c23.948 0 43.442 19.499 43.442 43.442v521.222c0 19.306 15.677 34.983 34.983 34.983s34.983-15.677 34.983-34.983v-521.222c0-62.527-50.866-113.407-113.407-113.407zM1062.263 10.094h-937.974c-19.336 0-34.983 15.677-34.983 34.983s15.647 34.983 34.983 34.983h937.974c23.948 0 43.442 19.499 43.442 43.442v496.616h-822.743v-451.659c0-19.306-15.647-34.983-34.983-34.983s-34.983 15.677-34.983 34.983v486.641c0 19.306 15.647 34.983 34.983 34.983h892.723c19.306 0 34.983-15.677 34.983-34.983v-531.594c-0.027-62.527-50.881-113.407-113.438-113.407z" />
<glyph unicode="&#xc912;" glyph-name="Communicate" horiz-adv-x="1178" d="M740.33-64.019c-3.409 0-6.875 0.606-10.17 1.913-10.985 4.223-18.2 14.754-18.2 26.496v180.471h-72.196c-15.719 0-28.409 12.727-28.409 28.409s12.689 28.409 28.409 28.409h100.624c15.682 0 28.409-12.727 28.409-28.409v-135.15l139.524 154.221c5.398 5.928 13.049 9.337 21.079 9.337h139.903c28.484 0 51.685 23.2 51.685 51.704v463.914c0 28.503-23.2 51.685-51.685 51.685h-109.298c-15.682 0-28.409 12.727-28.409 28.409s12.727 28.409 28.409 28.409h109.298c59.81 0 108.502-48.655 108.502-108.502v-463.895c0-59.848-48.674-108.521-108.502-108.521h-127.328l-180.547-199.542c-5.473-6.079-13.22-9.356-21.098-9.356zM525.712 70.222c-7.879 0-15.568 3.276-21.079 9.337l-180.547 199.542h-203.065c-59.829 0-108.502 48.655-108.502 108.502v463.895c0 59.829 48.674 108.502 108.502 108.502h758.871c59.81 0 108.502-48.655 108.502-108.502v-463.895c0-59.829-48.674-108.502-108.502-108.502h-325.772v-180.471c0-11.742-7.254-22.291-18.2-26.496-3.333-1.307-6.799-1.913-10.208-1.913zM121.021 903.183c-28.484 0-51.685-23.181-51.685-51.685v-463.895c0-28.503 23.181-51.685 51.685-51.685h215.66c8.030 0 15.682-3.409 21.060-9.337l139.562-154.221v135.15c0 15.682 12.708 28.409 28.409 28.409h354.199c28.484 0 51.685 23.181 51.685 51.685v463.895c0 28.503-23.2 51.685-51.685 51.685h-758.89zM607.321 607.77h-0.436c-15.682 0-28.409 12.727-28.409 28.409s12.727 28.409 28.409 28.409 28.636-12.727 28.636-28.409-12.519-28.409-28.2-28.409zM499.633 607.77h-0.436c-15.701 0-28.409 12.727-28.409 28.409s12.708 28.409 28.409 28.409c15.682 0 28.636-12.727 28.636-28.409s-12.519-28.409-28.2-28.409zM391.907 607.77h-0.436c-15.682 0-28.409 12.727-28.409 28.409s12.708 28.409 28.409 28.409c15.701 0 28.636-12.727 28.636-28.409s-12.5-28.409-28.2-28.409z" />
<glyph unicode="&#xc913;" glyph-name="Construction" horiz-adv-x="917" d="M874.731-47.877h-780.283c-44.174 0-80.123 35.947-80.123 80.143 0 44.174 35.947 80.123 80.123 80.123h643.134l-208.41 775.664h-135.097l-181.414-675.248 400.175 157.417c14.391 5.716 30.589-1.395 36.21-15.77 5.641-14.351-1.414-30.569-15.785-36.189l-451.742-177.711c-9.813-3.889-20.963-1.882-28.838 5.157-7.854 7.019-11.095 17.874-8.358 28.073l201.355 749.433c3.276 12.192 14.335 20.666 26.956 20.666h177.932c12.661 0 23.7-8.469 26.976-20.666l223.396-831.513c2.255-8.398 0.465-17.371-4.804-24.258-5.303-6.889-13.496-10.929-22.171-10.929h-679.514c-13.385 0-24.274-10.889-24.274-24.274 0-13.405 10.889-24.294 24.274-24.294h780.302c15.412 0 27.924-12.509 27.924-27.924s-12.529-27.907-27.942-27.907zM316.784 392.044c-11.151 0-21.668 6.703-25.99 17.703-5.641 14.351 1.414 30.569 15.77 36.189l259.233 101.981c14.391 5.696 30.589-1.395 36.21-15.77 5.641-14.351-1.414-30.569-15.785-36.189l-259.213-101.981c-3.371-1.324-6.813-1.937-10.22-1.937zM373.766 610.003c-11.171 0-21.668 6.703-25.99 17.703-5.661 14.351 1.414 30.569 15.749 36.189l153.306 60.297c14.391 5.676 30.589-1.395 36.21-15.77 5.641-14.351-1.414-30.569-15.749-36.189l-153.321-60.297c-3.371-1.324-6.833-1.937-10.199-1.937z" />
<glyph unicode="&#xc914;" glyph-name="ContentAmplified" horiz-adv-x="1304" d="M824.428-18.259h-735.409c-19.429 0-35.197 15.768-35.197 35.197v861.090c0 19.453 15.768 35.197 35.197 35.197h735.409c19.429 0 35.197-15.747 35.197-35.197v-861.090c0-19.429-15.768-35.197-35.197-35.197zM124.219 52.138h665.012v790.693h-665.012v-790.693zM679.458 640.346h-445.515c-19.429 0-35.197 15.747-35.197 35.197s15.768 35.197 35.197 35.197h445.515c19.429 0 35.197-15.747 35.197-35.197s-15.768-35.197-35.197-35.197zM632.48 478.341h-398.537c-19.429 0-35.197 15.747-35.197 35.197s15.768 35.197 35.197 35.197h398.537c19.429 0 35.197-15.747 35.197-35.197s-15.768-35.197-35.197-35.197zM655.97 316.358h-422.027c-19.429 0-35.197 15.747-35.197 35.197s15.768 35.197 35.197 35.197h422.027c19.429 0 35.197-15.747 35.197-35.197s-15.768-35.197-35.197-35.197zM444.594 154.378h-210.651c-19.429 0-35.197 15.747-35.197 35.197s15.768 35.197 35.197 35.197h210.672c19.429 0 35.197-15.747 35.197-35.197s-15.768-35.197-35.222-35.197zM1100.642 68.116c-8.565 0-17.131 3.098-23.935 9.362-14.243 13.211-15.135 35.503-1.924 49.747 82.036 88.488 127.231 203.658 127.231 324.245s-45.171 235.735-127.207 324.245c-13.211 14.243-12.318 36.535 1.924 49.747 14.196 13.186 36.488 12.368 49.724-1.9 94.144-101.56 145.98-233.693 145.98-372.094s-51.836-270.534-145.98-372.094c-6.922-7.484-16.355-11.265-25.813-11.265zM982.655 186.078c-8.331 0-16.707 2.956-23.419 8.939-14.502 12.953-15.768 35.197-2.792 49.699 51.086 57.186 79.219 130.61 79.219 206.756s-28.136 149.57-79.219 206.756c-12.976 14.502-11.71 36.748 2.792 49.699 14.525 12.953 36.769 11.685 49.653-2.792 62.653-70.116 97.171-160.198 97.171-253.662s-34.517-183.546-97.171-253.662c-6.922-7.768-16.544-11.731-26.233-11.731z" />
<glyph unicode="&#xc915;" glyph-name="Content" horiz-adv-x="1012" d="M204.643 123.174h-153.715c-17.533 0-31.724 14.191-31.724 31.724v747.173c0 17.533 14.191 31.724 31.724 31.724h589.799c17.512 0 31.724-14.191 31.724-31.724v-48.263c0-17.533-14.213-31.724-31.724-31.724s-31.724 14.191-31.724 31.724v16.539h-526.35v-683.724h121.991c17.533 0 31.724-14.191 31.724-31.724s-14.213-31.724-31.724-31.724zM972.86-59.326h-662.828c-17.533 0-31.724 14.213-31.724 31.724v776.106c0 17.533 14.191 31.724 31.724 31.724h662.828c17.512 0 31.724-14.191 31.724-31.724v-776.084c0-17.533-14.213-31.746-31.724-31.746zM341.735 4.123h599.38v712.657h-599.38v-712.657zM842.198 534.28h-401.567c-17.533 0-31.724 14.191-31.724 31.724s14.191 31.724 31.724 31.724h401.567c17.512 0 31.724-14.191 31.724-31.724s-14.213-31.724-31.724-31.724zM842.198 388.263h-401.567c-17.533 0-31.724 14.191-31.724 31.724s14.191 31.724 31.724 31.724h401.567c17.512 0 31.724-14.191 31.724-31.724s-14.213-31.724-31.724-31.724zM842.198 242.267h-401.567c-17.533 0-31.724 14.191-31.724 31.724s14.191 31.724 31.724 31.724h401.567c17.512 0 31.724-14.191 31.724-31.724s-14.213-31.724-31.724-31.724zM842.198 96.272h-401.567c-17.533 0-31.724 14.191-31.724 31.724s14.191 31.724 31.724 31.724h401.567c17.512 0 31.724-14.191 31.724-31.724s-14.213-31.724-31.724-31.724zM206.632 716.78h-25.083c-17.533 0-31.724 14.191-31.724 31.724s14.191 31.724 31.724 31.724h25.083c17.533 0 31.724-14.191 31.724-31.724s-14.213-31.724-31.724-31.724zM206.632 570.763h-25.083c-17.533 0-31.724 14.191-31.724 31.724s14.191 31.724 31.724 31.724h25.083c17.533 0 31.724-14.191 31.724-31.724s-14.213-31.724-31.724-31.724zM206.632 424.767h-25.083c-17.533 0-31.724 14.191-31.724 31.724s14.191 31.724 31.724 31.724h25.083c17.533 0 31.724-14.191 31.724-31.724s-14.213-31.724-31.724-31.724zM206.632 278.772h-25.083c-17.533 0-31.724 14.191-31.724 31.724s14.191 31.724 31.724 31.724h25.083c17.533 0 31.724-14.191 31.724-31.724s-14.213-31.724-31.724-31.724z" />
<glyph unicode="&#xc916;" glyph-name="Convert" horiz-adv-x="864" d="M554.244-53.195c-9.17 0-17.469 5.456-21.076 13.908l-32.89 76.846-1.712-0.275c-231.73-36.299-449.475 122.59-485.743 354.105-21.152 135.046 24.438 272.98 121.948 368.992 9.017 8.88 23.552 8.773 32.416-0.26 8.88-9.017 8.773-23.537-0.26-32.416-87.009-85.649-127.679-208.728-108.819-329.208 32.371-206.558 226.854-348.16 433.32-315.927l19.334 3.041c10.255 1.651 20.511-3.974 24.637-13.633l17.714-41.388 62.219 161.593-153.692 59.147 16.69-40.547c4.799-11.707-0.779-25.111-12.487-29.925-11.753-4.784-25.126 0.779-29.925 12.487l-36.925 89.791c-3.485 8.467-1.589 18.187 4.799 24.744 6.404 6.541 16.094 8.681 24.622 5.365l224.776-86.505c5.67-2.186 10.24-6.526 12.716-12.089 2.461-5.548 2.629-11.86 0.428-17.53l-90.739-235.642c-3.347-8.696-11.646-14.504-20.969-14.688-0.107 0.015-0.26 0.015-0.382 0.015zM720.957 157.26c-5.747 0-11.493 2.155-15.956 6.465-9.094 8.803-9.323 23.307-0.504 32.416 83.693 86.413 121 204.036 102.385 322.713-15.681 100.062-69.403 188.034-151.246 247.701s-182.012 83.907-282.074 68.211l-19.655-3.072c-10.805-1.666-21.29 4.478-25.065 14.718l-8.024 21.794-68.073-154.777 141.465-68.027-9.399 33.135c-1.849 6.496-0.734 13.465 3.041 19.074 3.775 5.594 9.827 9.247 16.537 9.98l26.853 2.919c133.028 5.976 247.243-87.85 267.631-217.929 11.065-70.488-7.871-143.131-51.903-199.313-7.825-9.98-22.222-11.707-32.172-3.913-9.965 7.81-11.723 22.222-3.913 32.172 36.222 46.218 51.781 105.976 42.702 163.947-16.705 106.465-110.485 183.143-217.241 179.399l15.864-55.953c2.461-8.681-0.382-17.989-7.306-23.797-6.878-5.808-16.552-7.030-24.683-3.118l-207.322 99.695c-11.142 5.365-16.032 18.585-11.050 29.895l99.848 227.068c3.76 8.559 12.609 14.107 21.687 13.694 9.338-0.29 17.576-6.22 20.816-14.993l21.152-57.466 1.085 0.168c112.181 17.591 224.439-9.568 316.187-76.464 91.732-66.881 151.934-165.491 169.51-277.657 20.877-133.028-20.939-264.864-114.749-361.717-4.463-4.646-10.454-6.969-16.43-6.969zM344.079 204.976c-2.568 0-5.196 0.428-7.764 1.36-88.935 31.989-153.248 109.813-167.86 203.088-11.554 73.728 9.354 148.832 57.329 206.038 8.131 9.705 22.604 10.974 32.294 2.843 9.705-8.146 10.974-22.604 2.843-32.294-39.477-47.058-56.672-108.834-47.165-169.464 12.013-76.739 64.94-140.747 138.087-167.065 11.906-4.279 18.096-17.423 13.816-29.329-3.362-9.354-12.181-15.177-21.58-15.177z" />
<glyph unicode="&#xc918;" glyph-name="CustomCMS" horiz-adv-x="1066" d="M1037.943 73.344h-249.294c-15.393 0-27.885 12.493-27.885 27.885s12.493 27.885 27.885 27.885h221.408v772.011h-834.697v-77.521c0-15.411-12.474-27.885-27.885-27.885s-27.885 12.474-27.885 27.885v105.406c0 15.411 12.474 27.885 27.885 27.885h890.449c15.393 0 27.885-12.474 27.885-27.885v-827.781c0.019-15.393-12.474-27.885-27.867-27.885zM931.254 622.273h-554.711c-15.411 0-27.885 12.474-27.885 27.885s12.474 27.885 27.885 27.885h554.711c15.393 0 27.885-12.474 27.885-27.885s-12.493-27.885-27.885-27.885zM931.254 510.732h-441.088c-15.411 0-27.885 12.474-27.885 27.885s12.474 27.885 27.885 27.885h441.088c15.393 0 27.885-12.474 27.885-27.885s-12.493-27.885-27.885-27.885zM931.254 399.192h-252.38c-15.393 0-27.885 12.493-27.885 27.885 0 15.411 12.493 27.885 27.885 27.885h252.38c15.393 0 27.885-12.474 27.885-27.885 0-15.393-12.493-27.885-27.885-27.885zM726.725-61.472c-4.201 0-8.421 0.948-12.344 2.881l-112.526 55.566c-13.812 6.804-19.482 23.554-12.66 37.348 6.804 13.812 23.554 19.464 37.348 12.66l42.423-20.951-43.073 94.717-88.285-77.614c-5.558-4.889-12.939-7.343-20.207-6.878-7.38 0.465-14.277 3.867-19.148 9.425l-473.175 538.5c-30.228 34.317-26.863 86.909 7.529 117.229l33.332 29.279c34.41 30.172 86.983 26.807 117.229-7.51 10.169-11.563 9.072-29.168-2.491-39.355-11.563-10.15-29.168-9.053-39.355 2.491-9.946 11.284-27.253 12.4-38.593 2.472l-33.295-29.242c-11.284-9.946-12.418-27.235-2.491-38.519l454.789-517.568 95.572 84.027c6.618 5.819 15.597 8.142 24.26 6.321 8.644-1.859 15.876-7.678 19.538-15.727l91.017-200.104c4.889-10.727 2.491-23.368-5.967-31.566-5.335-5.168-12.344-7.882-19.427-7.882zM565.158 217.882c-7.752 0-15.467 3.216-20.97 9.5l-402.885 458.953c-10.15 11.582-9.016 29.205 2.565 39.355s29.187 8.998 39.355-2.565l402.867-458.99c10.169-11.563 9.016-29.187-2.565-39.337-5.28-4.629-11.861-6.916-18.367-6.916zM931.254 788.543h-0.428c-15.393 0-27.885 12.474-27.885 27.885s12.493 27.885 27.885 27.885 28.108-12.474 28.108-27.885-12.288-27.885-27.681-27.885zM832.15 788.543h-0.446c-15.393 0-27.885 12.474-27.885 27.885s12.493 27.885 27.885 27.885 28.127-12.474 28.127-27.885-12.288-27.885-27.681-27.885zM733.027 788.543h-0.409c-15.393 0-27.885 12.474-27.885 27.885s12.493 27.885 27.885 27.885 28.090-12.474 28.090-27.885-12.288-27.885-27.681-27.885z" />
<glyph unicode="&#xc919;" glyph-name="Cut" horiz-adv-x="620" d="M473.785 77.786c-76.911 0-140.912 60.113-145.761 136.849-5.068 80.362 56.16 149.868 136.522 154.958 81.127 4.675 149.912-56.793 154.936-136.544 2.425-38.728-10.485-76.256-36.348-105.635-25.863-29.358-61.446-46.876-100.152-49.323-3.058-0.197-6.138-0.306-9.196-0.306zM473.719 304.325c-1.66 0-3.342-0.044-5.024-0.153-44.277-2.796-78.069-41.131-75.251-85.408 2.774-43.971 40.76-77.981 85.408-75.273 21.254 1.354 40.825 11.009 55.111 27.239 14.329 16.23 21.45 36.894 20.118 58.169-2.665 42.311-37.964 75.425-80.362 75.425zM146.024 77.786c-76.889 0-140.912 60.113-145.74 136.849-5.068 80.362 56.138 149.868 136.522 154.958 81.083 4.675 149.868-56.793 154.914-136.544 2.446-38.75-10.463-76.256-36.304-105.635-25.906-29.358-61.468-46.876-100.196-49.323-3.058-0.197-6.138-0.306-9.196-0.306zM145.98 304.325c-1.66 0-3.364-0.044-5.024-0.153-44.299-2.796-78.069-41.131-75.251-85.408 2.774-43.971 40.629-77.981 85.408-75.273 21.254 1.354 40.825 11.009 55.111 27.239 14.307 16.23 21.45 36.894 20.096 58.169-2.665 42.311-37.964 75.425-80.34 75.425zM582.675-64.022c-3.32 0-6.75 0.502-10.114 1.595-76.561 24.902-118.632 107.448-93.752 184.031 5.592 17.213 24.115 26.584 41.284 21.035 17.213-5.592 26.627-24.093 21.035-41.306-13.718-42.223 9.48-87.723 51.703-101.441 17.191-5.592 26.627-24.093 21.035-41.306-4.522-13.827-17.366-22.608-31.192-22.608zM418.346 304.325c-11.905 0-23.351 6.488-29.183 17.759l-303.581 590.123c-8.279 16.099-1.966 35.867 14.133 44.146 16.055 8.257 35.867 1.922 44.146-14.133l303.581-590.123c8.279-16.099 1.966-35.867-14.133-44.146-4.806-2.446-9.917-3.626-14.963-3.626zM202.052 304.325c-5.024 0-10.157 1.158-14.963 3.626-16.099 8.279-22.411 28.025-14.133 44.146l303.581 590.101c8.279 16.055 28.025 22.455 44.146 14.133 16.099-8.279 22.411-28.025 14.133-44.146l-303.581-590.079c-5.832-11.293-17.278-17.781-29.183-17.781z" />
<glyph unicode="&#xc91a;" glyph-name="Delight" horiz-adv-x="1198" d="M598.217-64c-5.659 0-11.339 1.48-16.584 4.57-18.238 10.795-447.961 267.78-556.975 551.294-16.889 39.675-25.659 83.050-25.659 127.883 0 182.64 148.537 331.242 331.112 331.242 108.1 0 206.558-51.819 268.15-138.351 61.548 86.532 160.006 138.351 268.171 138.351 182.575 0 331.090-148.602 331.090-331.242 0-66.27-19.478-130.059-56.281-184.512-86.467-152.062-256.789-298.858-384.694-395.336-11.948-9.010-23.374-17.52-34.299-25.442-14.538-10.599-35.018-7.378-45.617 7.226-10.577 14.625-7.356 35.018 7.269 45.617 10.577 7.704 21.72 15.953 33.32 24.723 123.269 92.996 287.127 233.807 367.805 376.532 0.457 0.805 0.936 1.567 1.436 2.329 29.925 43.81 45.747 95.281 45.747 148.863 0 146.643-119.243 265.951-265.799 265.951-102.267 0-193.74-57.935-238.769-151.192-5.441-11.295-16.823-18.456-29.381-18.456v0c-12.536 0-23.984 7.16-29.424 18.434-45.051 93.279-136.523 151.214-238.769 151.214-146.556 0-265.821-119.308-265.821-265.951 0-35.997 7.030-70.775 20.893-103.399 101.353-263.601 525.439-517.038 529.726-519.606 15.474-9.184 20.61-29.207 11.426-44.724-6.029-10.294-16.91-16.018-28.075-16.018zM224.601 476.304c-10.621 0-21.067 5.202-27.335 14.777-13.493 20.632-24.179 41.046-31.731 60.677-9.075 21.307-13.885 45.116-13.885 69.731 0 100.221 81.505 181.77 181.683 181.77 18.020 0 32.645-14.603 32.645-32.645s-14.625-32.645-32.645-32.645c-64.159 0-116.392-52.254-116.392-116.479 0-15.779 3.069-31.013 9.119-45.247 6.311-16.366 14.886-32.645 25.855-49.425 9.881-15.082 5.659-35.322-9.445-45.203-5.506-3.591-11.709-5.31-17.868-5.31z" />
<glyph unicode="&#xc91b;" glyph-name="dental" horiz-adv-x="994" d="M681.109-50.36c-93.207 0-107.017 119.977-117.151 207.596-11.239 97.477-32.91 151.166-61.040 151.166-31.912 0-60.955-57.343-79.631-157.349-18.59-99.623-37.606-201.413-142.965-201.413-23.817 0-45.722 9.582-63.356 27.726-55.431 57.11-63.313 196.867-60.169 304.075 1.763 60.488-27.577 100.6-61.529 147.066-32.464 44.404-69.262 94.715-77.761 167.186-17.677 150.104 63.908 317.226 254.040 346.142 215.415 32.719 360.313-162.469 366.411-170.798 10.326-14.235 7.224-34.164-7.011-44.532-14.235-10.304-34.143-7.245-44.489 6.969-1.339 1.806-128.518 172.242-305.328 145.324-157.115-23.881-213.991-159.643-200.33-275.669 6.586-55.835 35.396-95.246 65.927-136.995 37.478-51.246 76.231-104.255 73.788-186.562-3.739-128.327 12.408-227.1 42.195-257.801 7.224-7.436 13.236-8.392 17.634-8.392 47.931 0 59.999 40.644 80.098 148.192 9.879 52.988 39.305 210.592 142.498 210.592 100.43 0 117.81-150.826 124.375-207.596 9.051-78.504 21.862-151.166 53.816-151.166 23.562 0 52.903 0 61.699 140.671 8.265 132.236 20.715 201.668 105.275 311.617 70.707 91.932 133.659 265.513 17.273 367.027-78.887 68.816-167.441 53.944-227.78 29.32-16.317-6.693-34.907 1.169-41.536 17.464s1.211 34.907 17.464 41.536c108.801 44.362 213.12 30.042 293.749-40.283 149.552-130.43 76.762-342.934-8.668-453.945-74.446-96.861-84.411-152.802-92.166-276.731-6.076-96.989-21.267-200.436-125.331-200.436zM185.096 558.979c-15.935 0-29.702 11.94-31.614 28.151-11.537 98.285 41.494 206.789 165.21 224.062 17.337 2.422 33.526-9.731 35.97-27.153s-9.752-33.526-27.174-35.948c-87.024-12.153-118.383-88.086-110.671-153.525 2.040-17.464-10.453-33.314-27.96-35.375-1.275-0.149-2.528-0.212-3.761-0.212z" />
<glyph unicode="&#xc91c;" glyph-name="Design" horiz-adv-x="1067" d="M34.256-31.311c-7.487 0-14.908 2.546-20.893 7.574-10.185 8.488-14.233 22.351-10.185 35.018l58.566 183.402c5.463 17.15 23.788 26.704 41.024 21.154 17.171-5.484 26.66-23.853 21.176-41.024l-34.060-106.707 135 72.233-110.755 110.755c-12.753 12.732-12.753 33.429 0 46.161l490.508 490.508c12.753 12.753 33.407 12.753 46.161 0 12.753-12.732 12.753-33.429 0-46.161l-467.439-467.417 118.786-118.786c7.313-7.291 10.729-17.65 9.184-27.857-1.48-10.229-7.77-19.13-16.867-24.005l-244.797-130.995c-4.832-2.59-10.142-3.852-15.409-3.852zM902.385 734.355c-8.335 0-16.671 3.177-23.048 9.532-12.753 12.732-12.797 33.407-0.044 46.161 14.408 14.473 14.408 38.021-0.087 52.472l-39.566 39.588c-8.118 8.14-17.128 9.837-23.244 9.837v0c-9.859 0-19.478-4.244-27.117-11.905l-70.296-70.275c-12.753-12.732-33.407-12.732-46.161 0s-12.753 33.429 0 46.182l70.275 70.253c19.935 19.979 45.943 31.035 73.235 31.057 27.205 0.174 50.796-10.272 69.491-28.967l39.566-39.588c39.914-39.893 39.958-104.835 0.131-144.772-6.377-6.377-14.756-9.576-23.135-9.576zM352.353 173.637c-8.335 0-16.714 3.177-23.091 9.554-12.753 12.732-12.753 33.429 0 46.161l462.020 462.020-118.459 118.416c-12.753 12.753-12.753 33.429 0 46.182s33.407 12.732 46.161 0l141.551-141.507c6.116-6.137 9.554-14.429 9.554-23.091s-3.439-16.954-9.554-23.091l-485.111-485.068c-6.355-6.377-14.69-9.576-23.069-9.576zM298.989 545.164c-7.987 0-15.996 2.916-22.308 8.814-5.441 5.093-10.751 10.229-15.953 15.474-134.608 134.564-181.334 303.472-183.25 310.61-3.025 11.187 0.131 23.156 8.27 31.405 8.14 8.27 19.979 11.622 31.296 8.727 8.575-2.176 211.455-54.975 343.191-193.609 12.405-13.080 11.905-33.734-1.197-46.161-13.058-12.405-33.712-11.905-46.161 1.175-76.847 80.917-183.99 130.277-250.586 155.196 24.049-57.521 69.6-146.252 144.706-221.292 4.723-4.766 9.489-9.337 14.32-13.885 13.145-12.318 13.82-32.994 1.48-46.139-6.399-6.834-15.082-10.316-23.809-10.316zM1028.048-53.553c-31.71 0-178.745 7.095-247.866 135.152-8.553 15.866-2.633 35.671 13.254 44.245 15.822 8.51 35.671 2.655 44.202-13.232 40.306-74.671 121.027-94.149 164.424-99.155-0.261 42.221-11.905 119.983-87.599 162.552-58.914 33.168-127.948-16.714-128.667-17.237-11.187-8.292-26.573-8.553-38.086-0.588l-175.48 121.985c-14.799 10.294-18.456 30.621-8.161 45.421 10.294 14.821 30.556 18.499 45.442 8.161l157.786-109.71c34.648 19.283 107.752 49.012 179.158 8.836 145.468-81.809 119.439-251.827 118.307-259.031-2.503-15.278-15.387-26.704-30.861-27.357-0.631 0.022-2.677-0.044-5.854-0.044zM787.625 251.681c-10.338 0-20.523 4.919-26.856 14.059l-87.49 126.36c-10.251 14.821-6.551 35.17 8.292 45.421 14.756 10.272 35.148 6.573 45.399-8.248l87.49-126.36c10.294-14.821 6.594-35.17-8.248-45.421-5.659-3.939-12.166-5.811-18.586-5.811z" />
<glyph unicode="&#xc91d;" glyph-name="Develop" horiz-adv-x="1264" d="M1201.025 13.595h-469.527c-18.179 0-32.895 14.736-32.895 32.895s14.716 32.895 32.895 32.895h436.632v779.116h-1050.437v-442.333c0-18.159-14.716-32.895-32.895-32.895s-32.895 14.736-32.895 32.895v475.228c0 18.159 14.716 32.895 32.895 32.895h1116.227c18.159 0 32.895-14.736 32.895-32.895v-844.906c0-18.159-14.736-32.895-32.895-32.895zM260.067-39.738c-8.42 0-16.842 3.202-23.268 9.627l-197.196 197.176c-6.163 6.183-9.627 14.561-9.627 23.268s3.464 17.083 9.627 23.268l197.196 197.196c12.852 12.852 33.662 12.852 46.514 0s12.852-33.662 0-46.514l-173.927-173.95 173.927-173.927c12.852-12.852 12.852-33.662 0-46.514-6.404-6.424-14.825-9.627-23.245-9.627zM451.275-39.784c-8.42 0-16.842 3.202-23.268 9.627-12.852 12.852-12.852 33.662 0 46.514l173.927 173.95-173.927 173.907c-12.852 12.852-12.852 33.662 0 46.514 12.829 12.852 33.662 12.852 46.514 0l197.219-197.153c6.163-6.163 9.627-14.541 9.627-23.268s-3.464-17.083-9.627-23.268l-197.219-197.196c-6.404-6.404-14.825-9.627-23.245-9.627zM1069.488 727.468h-0.506c-18.179 0-32.895 14.736-32.895 32.895s14.716 32.895 32.895 32.895c18.159 0 33.159-14.736 33.159-32.895s-14.495-32.895-32.654-32.895zM944.751 727.468h-0.506c-18.159 0-32.895 14.736-32.895 32.895s14.736 32.895 32.895 32.895c18.179 0 33.159-14.736 33.159-32.895s-14.475-32.895-32.654-32.895zM820.077 727.468h-0.506c-18.179 0-32.895 14.736-32.895 32.895s14.716 32.895 32.895 32.895c18.159 0 33.159-14.736 33.159-32.895s-14.495-32.895-32.654-32.895z" />
<glyph unicode="&#xc91e;" glyph-name="DisplayAd" horiz-adv-x="1127" d="M1069.045-64.357c-19.398 0-38.795 7.375-53.564 22.125l-137.755 137.777c-11.587 11.587-11.587 30.371 0 41.939 11.587 11.587 30.352 11.587 41.939 0l137.755-137.777c6.406-6.366 16.887-6.406 23.331 0.041l9.669 9.729c3.144 3.144 4.883 7.256 4.883 11.666 0 4.391-1.74 8.522-4.824 11.606l-82.552 82.571c-11.587 11.587-11.587 30.371 0 41.939 11.587 11.587 30.371 11.587 41.939 0l82.552-82.552c14.314-14.314 22.206-33.336 22.206-53.564s-7.889-39.269-22.206-53.583l-9.71-9.747c-14.809-14.772-34.226-22.165-53.664-22.165zM762.848-47.056c-2.015 0-4.015 0.197-6.030 0.614-9.766 2.037-17.874 8.838-21.551 18.15l-222.52 563.42c-4.35 10.995-1.758 23.51 6.623 31.875 8.343 8.343 20.839 10.973 31.853 6.604l563.42-222.52c9.293-3.676 16.116-11.785 18.131-21.573 2.056-9.788-1.009-19.931-8.067-26.989l-91.942-91.942c-11.587-11.587-30.352-11.587-41.939 0-11.587 11.568-11.587 30.371 0 41.939l60.011 59.989-457.797 180.819 180.841-457.797 102.937 102.915c11.587 11.587 30.371 11.587 41.939 0 11.587-11.587 11.587-30.352 0-41.939l-134.909-134.869c-5.635-5.616-13.208-8.701-20.999-8.701zM451.071 139.596h-423.311c-16.392 0-29.659 13.267-29.659 29.659v761.781c0 16.392 13.267 29.659 29.659 29.659h1006.388c16.392 0 29.659-13.267 29.659-29.659v-428.473c0-16.392-13.267-29.659-29.659-29.659-16.373 0-29.659 13.267-29.659 29.659v398.814h-947.070v-702.463h393.674c16.392 0 29.659-13.267 29.659-29.659s-13.286-29.659-29.678-29.659zM673.018 776.532c-19.178 0-34.78 15.58-34.78 34.762 0 19.2 15.602 34.799 34.78 34.799 19.2 0 34.799-15.602 34.799-34.799 0-19.178-15.602-34.762-34.799-34.762zM895.005 776.532c-19.159 0-34.74 15.58-34.74 34.762 0 19.2 15.58 34.799 34.74 34.799 19.2 0 34.818-15.602 34.818-34.799-0.019-19.178-15.64-34.762-34.818-34.762zM784.022 776.532c-19.178 0-34.799 15.58-34.799 34.762 0 19.2 15.621 34.799 34.799 34.799s34.799-15.602 34.799-34.799c0-19.178-15.621-34.762-34.799-34.762z" />
<glyph unicode="&#xc920;" glyph-name="DoorHanger" horiz-adv-x="512" d="M486.906-64h-462.334c-13.595 0-24.592 11.017-24.592 24.592v597.276c0 10.624 6.807 20.048 16.9 23.372l179.877 59.257c6.925 2.302 14.677 1.338 20.913-2.636 11.332-7.24 24.514-11.076 38.128-11.076 39.111 0 70.904 31.832 70.904 70.944s-31.773 70.924-70.904 70.924c-36.574 0-66.93-27.406-70.629-63.704-1.003-9.758-7.692-18.021-17.057-20.972l-136.142-42.987c-7.496-2.302-15.601-0.984-21.936 3.64-6.296 4.623-10.034 11.981-10.034 19.831v270.927c0 13.575 10.998 24.592 24.592 24.592h462.334c13.555 0 24.592-11.017 24.592-24.592v-974.816c-0.020-13.575-11.037-24.573-24.612-24.573zM49.184-14.816h413.149v925.631h-413.149v-212.791l89.87 28.37c12.867 53.159 60.477 91.463 116.744 91.463 66.202 0 120.089-53.886 120.089-120.108 0-66.242-53.867-120.128-120.089-120.128-18.867 0-37.301 4.387-53.985 12.749l-152.629-50.286v-554.899zM322.729 372.836h-133.959c-16.29 0-29.511 13.221-29.511 29.511s13.221 29.511 29.511 29.511h133.959c16.29 0 29.511-13.221 29.511-29.511s-13.221-29.511-29.511-29.511zM373.31 256.663h-235.102c-16.29 0-29.511 13.221-29.511 29.511s13.221 29.511 29.511 29.511h235.082c16.29 0 29.511-13.221 29.511-29.511s-13.201-29.511-29.491-29.511zM337.917 140.43h-164.315c-16.29 0-29.511 13.221-29.511 29.511s13.221 29.511 29.511 29.511h164.315c16.29 0 29.511-13.221 29.511-29.511s-13.221-29.511-29.511-29.511z" />
<glyph unicode="&#xc921;" glyph-name="Education" horiz-adv-x="1508" d="M664.518-48h-159.291c-13.069 0-25.172 6.846-31.894 18.078-6.722 11.186-7.068 25.097-0.943 36.629l139.947 262.632c9.698 18.104 32.214 24.999 50.318 15.35 18.13-9.672 24.999-32.214 15.35-50.318l-110.83-207.948h80.848l269.974 297.6h-625.952c-93.695 0-268.486 75.418-268.486 219.578v204.401c0 53.418 43.449 96.893 96.893 96.893h7.662c34.968 0 67.306-18.923 84.444-49.378 0.47-0.819 0.917-1.661 1.315-2.555l56.642-121.67h1014.346c63.785 0 122.486-27.032 161.050-74.126 41.018-50.122 49.649-107.185 24.304-160.704-30.85-65.149-108.35-112.442-184.313-112.442h-175.633c-20.535 0-37.2 16.665-37.2 37.2s16.665 37.2 37.2 37.2h175.633c46.301 0 98.802 31.372 117.082 69.887 12.697 26.833 7.786 54.338-14.681 81.742-24.353 29.786-62.098 46.872-103.465 46.872h-1038.079c-14.459 0-27.626 8.383-33.728 21.501l-65.893 141.582c-4.092 6.523-11.31 10.514-19.047 10.514h-7.639c-12.4 0-22.493-10.093-22.493-22.493v-204.401c0-94.315 137.764-145.178 194.086-145.178h709.949c14.73 0 28.050-8.68 34.025-22.147 5.952-13.441 3.423-29.166-6.474-40.052l-337.453-372c-7.068-7.838-17.063-12.25-27.577-12.25zM645.249 606.942c-13.317 0-26.19 7.143-32.886 19.716l-139.947 262.632c-6.151 11.532-5.779 25.42 0.943 36.655 6.722 11.186 18.822 18.055 31.894 18.055h159.291c10.713 0 20.93-4.637 27.975-12.674l221.043-251.942c13.565-15.451 12.002-38.936-3.446-52.501-15.451-13.49-38.962-11.979-52.478 3.446l-209.958 239.271h-80.45l110.83-207.974c9.646-18.104 2.777-40.672-15.35-50.318-5.606-2.976-11.581-4.366-17.458-4.366zM1211.185 461.343c-9.646 0-19.318 3.942-26.262 10.886-6.97 6.944-10.912 16.616-10.912 26.314 0 9.894 3.942 19.566 10.912 26.51 13.614 13.64 38.662 13.914 52.55-0.248 6.97-6.722 10.886-16.368 10.886-26.288 0-9.698-3.919-19.344-10.886-26.314-6.918-6.918-16.59-10.863-26.288-10.863zM1076.050 461.343c-9.698 0-19.318 3.942-26.314 10.886-6.918 6.944-10.886 16.616-10.886 26.314 0 9.894 3.968 19.566 10.886 26.288 13.914 14.136 38.714 13.888 52.602 0.248 6.918-6.944 10.886-16.616 10.886-26.51 0-9.698-3.968-19.344-10.886-26.314-6.944-6.97-16.616-10.912-26.288-10.912zM670.57 461.343c-9.698 0-19.344 3.942-26.314 10.886-6.918 6.944-10.886 16.616-10.886 26.314 0 9.894 3.968 19.318 10.886 26.288 13.914 14.136 38.936 13.888 52.576 0 6.944-6.722 10.912-16.368 10.912-26.288 0-9.698-3.968-19.344-10.912-26.314s-16.319-10.886-26.262-10.886zM535.41 461.343c-9.672 0-19.344 3.942-26.288 10.886-6.944 7.192-10.912 16.616-10.912 26.314 0 9.894 3.968 19.318 10.912 26.288 13.888 14.136 38.688 13.888 52.576 0.248 6.944-7.192 10.912-16.616 10.912-26.51 0-9.698-3.968-19.122-10.912-26.314-6.944-6.97-16.616-10.912-26.288-10.912zM940.914 461.343c-9.698 0-19.37 3.942-26.314 10.886s-10.886 16.616-10.886 26.314c0 9.894 3.942 19.566 10.886 26.51 13.914 13.64 38.714 13.914 52.55 0 6.97-6.944 10.938-16.616 10.938-26.51 0-9.698-3.968-19.344-10.938-26.314-6.918-6.944-16.616-10.886-26.239-10.886zM805.705 461.343c-9.672 0-19.318 3.942-26.288 10.886s-10.912 16.616-10.912 26.314c0 9.894 3.968 19.566 10.912 26.51 13.64 13.64 38.688 13.914 52.576 0 6.918-7.192 10.886-16.616 10.886-26.51 0-9.698-3.968-19.344-10.886-26.314-6.918-6.944-16.59-10.886-26.288-10.886z" />
<glyph unicode="&#xc923;" glyph-name="EmailMarketing" horiz-adv-x="1185" d="M592.729 224.944c-6.064 0-12.128 1.814-17.307 5.46l-543.992 379.828c-13.7 9.55-17.045 28.388-7.474 42.068 9.529 13.721 28.409 17.024 42.068 7.474l526.706-367.758 526.685 367.739c13.661 9.55 32.538 6.245 42.068-7.474 9.571-13.68 6.227-32.519-7.474-42.068l-543.992-379.828c-5.198-3.627-11.222-5.439-17.287-5.439zM1040.718 49.515c-6.487 0-13.055 2.095-18.617 6.426l-246.771 193.298c-13.136 10.296-15.473 29.275-5.158 42.411 10.275 13.136 29.275 15.454 42.411 5.158l246.771-193.298c13.136-10.296 15.473-29.275 5.158-42.411-5.943-7.616-14.829-11.585-23.794-11.585zM1064.169-48.021h-882.052c-16.683 0-30.223 13.54-30.223 30.223s13.54 30.223 30.223 30.223h882.052c23.332 0 42.351 18.98 42.351 42.33v580.238c0 16.683 13.54 30.223 30.223 30.223s30.223-13.54 30.223-30.223v-580.238c-0.021-56.676-46.139-102.774-102.794-102.774zM48.737-25.636c-4.513 0-9.025 1.008-13.237 3.042-10.396 5.056-16.985 15.593-16.985 27.18v630.406c0 16.683 13.54 30.223 30.223 30.223s30.223-13.54 30.223-30.223v-568.351l293.958 230.23c13.136 10.296 32.116 7.978 42.411-5.158 10.275-13.136 7.978-32.136-5.158-42.411l-342.796-268.51c-5.421-4.25-12.007-6.426-18.636-6.426zM144.721 537.739c-16.683 0-30.223 13.54-30.223 30.223v345.798c0 16.683 13.54 30.223 30.223 30.223h896.036c16.683 0 30.223-13.54 30.223-30.223v-210.424c0-16.683-13.54-30.223-30.223-30.223s-30.223 13.54-30.223 30.223v180.203h-835.593v-315.576c0-16.683-13.54-30.223-30.223-30.223zM864.1 722.374h-542.803c-16.683 0-30.223 13.54-30.223 30.223s13.54 30.223 30.223 30.223h542.803c16.683 0 30.223-13.54 30.223-30.223s-13.54-30.223-30.223-30.223zM864.1 561.19h-542.803c-16.683 0-30.223 13.54-30.223 30.223s13.54 30.223 30.223 30.223h542.803c16.683 0 30.223-13.54 30.223-30.223s-13.54-30.223-30.223-30.223zM647.673 400.008h-109.948c-16.683 0-30.223 13.54-30.223 30.223s13.54 30.223 30.223 30.223h109.948c16.683 0 30.223-13.54 30.223-30.223s-13.54-30.223-30.223-30.223z" />
<glyph unicode="&#xc924;" glyph-name="Email" horiz-adv-x="1497" d="M748.338 316.142c-7.263 0-14.492 2.349-20.513 7.066l-492.566 385.832c-14.445 11.317-16.989 32.211-5.672 46.656s32.164 17.015 46.63 5.672l472.12-369.792 472.163 369.792c14.445 11.317 35.355 8.775 46.63-5.672 11.301-14.445 8.775-35.339-5.672-46.656l-492.66-385.832c-6.005-4.723-13.225-7.066-20.471-7.066zM1240.971 123.221c-7.177 0-14.397 2.327-20.471 7.092l-271.381 212.519c-14.445 11.317-16.972 32.211-5.672 46.63 11.343 14.445 32.191 17.015 46.63 5.672l271.381-212.519c14.445-11.343 16.972-32.191 5.672-46.63-6.561-8.375-16.305-12.764-26.163-12.764zM1266.764 16h-969.922c-18.34 0-33.235 14.884-33.235 33.235s14.884 33.235 33.235 33.235h969.922c25.655 0 46.521 20.847 46.521 46.521v638.008c-0.026 25.677-20.871 46.545-46.521 46.545h-1036.779c-25.697 0-46.571-20.871-46.571-46.545v-624.937l323.221 253.178c14.445 11.301 35.355 8.775 46.63-5.672 11.343-14.445 8.775-35.339-5.672-46.656l-376.927-295.223c-9.992-7.845-23.593-9.308-35.048-3.721-11.428 5.587-18.674 17.195-18.674 29.864v693.174c0 62.319 50.685 113.004 113.030 113.004h1036.779c62.251 0 112.961-50.685 112.961-113.004v-638.008c0-62.293-50.711-112.988-112.961-112.988z" />
<glyph unicode="&#xc925;" glyph-name="Engage" horiz-adv-x="1179" d="M205.772-4.951c-4.089 0-8.218 0.849-12.11 2.588-10.668 4.781-17.523 15.37-17.523 27.045v165.787h-58.535c-56.876 0-103.163 46.287-103.163 103.163v539.203c0 56.876 46.287 103.143 103.163 103.143h426.202c16.377 0 29.633-13.256 29.633-29.633v-146.348c0-77.085 34.71-86.963 64.956-86.963 21.395 0 48.282 6.203 75.683 17.464 24.892 10.233 49.013 15.409 71.692 15.409 87.793 0 134.909-76.493 140.303-130.8 4.939-49.369-9.601-96.88-39.906-130.385-27.045-29.89-63.612-44.963-103.084-41.881-49.053 3.951-78.567 18.471-102.274 30.107-13.611 6.697-24.378 11.992-36.903 14.639-6.658 1.422-12.94 2.134-18.748 2.134-50.277 0-51.72-55.473-51.72-61.795v-167.822c0-16.357-13.256-29.633-29.633-29.633h-107.726l-210.573-187.893c-5.551-4.939-12.604-7.527-19.736-7.527zM117.604 876.711c-24.2 0-43.896-19.696-43.896-43.877v-539.203c0-24.2 19.696-43.896 43.896-43.896h88.168c16.377 0 29.633-13.276 29.633-29.633v-129.259l169.639 151.366c5.433 4.84 12.446 7.527 19.736 7.527h89.393v138.189c0 60.155 38.128 121.061 110.986 121.061 9.917 0 20.348-1.146 31.016-3.418 19.755-4.168 35.54-11.932 50.791-19.42 22.146-10.885 43.067-21.178 80.878-24.24 25.445-2.074 44.232 11.379 54.367 22.58 18.807 20.783 28.112 52.451 24.892 84.731-2.529 25.267-25.702 77.421-81.333 77.421-14.915 0-31.451-3.694-49.151-10.964-24.319-9.996-61.123-21.909-98.224-21.909-37.357 0-124.222 14.244-124.222 146.229v116.715h-396.569zM968.073-4.951c-7.132 0-14.184 2.588-19.736 7.527l-210.612 187.893h-86.41c-16.357 0-29.633 13.276-29.633 29.633s13.276 29.633 29.633 29.633h97.71c7.27 0 14.303-2.687 19.736-7.527l169.679-151.366v129.259c0 16.357 13.276 29.633 29.633 29.633h88.129c24.24 0 43.956 19.696 43.956 43.896v539.203c0 24.2-19.716 43.877-43.956 43.877-16.357 0-29.633 13.256-29.633 29.633s13.276 29.633 29.633 29.633c56.915 0 103.222-46.267 103.222-103.143v-539.203c0-56.876-46.307-103.163-103.222-103.163h-58.496v-165.787c0-11.675-6.875-22.264-17.523-27.045-3.872-1.738-8.001-2.588-12.11-2.588zM1056.201 876.711h-404.886c-16.357 0-29.633 13.256-29.633 29.633s13.276 29.633 29.633 29.633h404.886c16.357 0 29.633-13.256 29.633-29.633s-13.276-29.633-29.633-29.633z" />
<glyph unicode="&#xc926;" glyph-name="Engage2" horiz-adv-x="933" d="M428.861 157.002h-336.935c-49.55 0-89.857 40.307-89.857 89.857v400.925c0 49.102 39.551 89.118 88.464 89.857 0.258 0 0.5 0 0.756 0h36.573c12.839 0 24.526 4.578 30.498 11.943 5.284 6.505 6.626 16.108 4.011 28.502-1.636 7.711-5.042 14.681-9.38 23.476-8.089 16.435-18.14 36.882-20.894 71.080-2.152 26.781 7.486 52.148 27.158 71.459 23.561 23.132 59.17 34.748 95.348 31.221 26.281-2.65 61.185-19.294 79.91-50.532 11.91-19.828 22.047-53.388 2.719-100.459-12.547-30.481-14.819-57.691-5.92-70.959 8.709-13.029 30.55-15.748 47.364-15.748h50.186c14.25 0 25.816-11.566 25.816-25.816v-153.33c0-12.839 4.578-24.526 11.927-30.498 6.524-5.267 16.092-6.626 28.535-3.992 7.693 1.636 14.664 5.059 23.457 9.38 16.402 8.089 36.882 18.14 71.063 20.894 26.866 2.221 52.165-7.486 71.459-27.158 23.132-23.561 34.784-59.187 31.204-95.348-2.617-26.264-19.259-61.15-50.463-79.892-19.861-11.91-53.422-22.047-100.476-2.719-30.514 12.547-57.724 14.783-70.995 5.92-13.012-8.726-15.731-30.566-15.731-47.364v-56.039c0-1.342-0.104-2.65-0.31-3.942 0.206-1.292 0.31-2.598 0.31-3.942v-60.96c0.017-14.25-11.549-25.816-25.799-25.816zM91.928 686.008c-21.084 0-38.226-17.159-38.226-38.242v-400.925c0-21.084 17.142-38.226 38.226-38.226h311.117v35.144c0 1.342 0.104 2.65 0.31 3.942-0.206 1.273-0.31 2.582-0.31 3.942v56.039c0 42.699 12.993 73.076 38.622 90.253 38.655 25.92 91.356 10.447 119.322-1.050 21.909-9.018 40.17-9.243 54.282-0.775 16.85 10.103 24.576 29.896 25.678 40.739 2.082 21.084-4.13 41.272-16.677 54.059-5.955 6.059-16.075 13.045-30.481 11.858-24.37-1.963-37.984-8.657-52.407-15.748-10.585-5.215-21.549-10.601-35.557-13.579-35.35-7.434-58.535 3.734-71.718 14.423-19.465 15.765-31.064 42.166-31.064 70.615v127.531h-24.37c-42.718 0-73.076 12.993-90.253 38.638-25.92 38.655-10.447 91.372 1.050 119.338 8.984 21.876 9.243 40.153 0.775 54.265-10.12 16.85-29.912 24.612-40.772 25.695-21.117 2.169-41.272-4.148-54.024-16.694-6.059-5.938-13.029-16.058-11.858-30.481 1.963-24.389 8.657-38.019 15.748-52.423 5.215-10.601 10.601-21.549 13.579-35.557 7.486-35.386-3.717-58.535-14.406-71.734-15.817-19.432-42.201-31.048-70.651-31.048h-35.936zM700.051-79.956c-4.303 0-8.605 0.242-12.943 0.671-26.247 2.617-61.15 19.225-79.875 50.463-11.927 19.861-22.047 53.422-2.719 100.476 12.547 30.514 14.783 57.724 5.92 70.995-8.743 13.012-30.583 15.731-47.364 15.731h-29.808c-14.25 0-25.816 11.566-25.816 25.816s11.566 25.816 25.816 25.816h29.808c42.683 0 73.076-12.993 90.253-38.622 25.885-38.672 10.447-91.372-1.050-119.374-9.001-21.876-9.276-40.134-0.775-54.249 10.12-16.867 29.912-24.612 40.739-25.678 21.049-2.082 41.272 4.13 54.059 16.642 6.059 5.955 13.012 16.075 11.858 30.481-1.979 24.405-8.674 38.019-15.765 52.44-5.215 10.585-10.585 21.549-13.545 35.557-7.503 35.367 3.7 58.516 14.387 71.734 15.8 19.448 42.183 31.064 70.632 31.064h44.181c21.084 0 38.226 17.142 38.226 38.226v400.925c0 21.084-17.142 38.226-38.226 38.226h-335.575c-14.25 0-25.816 11.566-25.816 25.816s11.566 25.816 25.816 25.816h335.575c49.55 0 89.857-40.307 89.857-89.857v-400.925c0-49.55-40.307-89.857-89.857-89.857h-44.162c-12.839 0-24.543-4.578-30.481-11.927-5.317-6.524-6.661-16.144-4.028-28.535 1.652-7.693 5.078-14.664 9.414-23.457 8.072-16.435 18.123-36.882 20.876-71.063 2.152-26.797-7.503-52.165-27.158-71.493-20.774-20.361-50.892-31.856-82.457-31.856z" />
<glyph unicode="&#xc927;" glyph-name="Folder" horiz-adv-x="761" d="M565.668-64c-2.72 0-5.422 0.391-8.086 1.192l-537.721 162.466c-11.794 3.559-19.861 14.421-19.861 26.736v805.64c0 15.427 12.52 27.947 27.947 27.947h704.695c15.427 0 27.947-12.52 27.947-27.947v-763.626c0-15.427-12.52-27.947-27.947-27.947h-139.027v-176.532c0-8.85-4.192-17.16-11.272-22.432-4.881-3.614-10.75-5.496-16.675-5.496zM55.894 147.168l481.826-145.567v719.377l-384.906 94.685c-14.998 3.689-24.146 18.836-20.476 33.816 3.689 14.961 18.818 24.146 33.816 20.476l406.183-99.92c12.483-3.074 21.277-14.29 21.277-27.146v-546.515h111.080v707.732h-648.801v-756.938zM732.642 427.030h-166.975c-15.427 0-27.947 12.52-27.947 27.947s12.52 27.947 27.947 27.947h166.975c15.427 0 27.947-12.52 27.947-27.947s-12.52-27.947-27.947-27.947z" />
<glyph unicode="&#xc928;" glyph-name="ForthSocial" horiz-adv-x="1034" d="M524-44.608c-27.037 0-54.248 2.252-81.442 6.79-257.523 42.92-435.541 279.69-405.24 539.046 6.772 57.285 23.372 112.372 49.379 163.74 6.528 12.899 22.289 18.065 35.188 11.537s18.065-22.272 11.537-35.188c-23.214-45.87-38.051-95.074-44.090-146.216-27.054-231.533 131.886-442.959 361.848-481.271 114.99-19.13 230.591 7.593 325.456 75.351 94.865 67.776 157.666 168.418 176.831 283.425 19.182 115.007-7.593 230.591-75.351 325.473-67.776 94.882-168.435 157.683-283.443 176.831-122.146 20.352-247.487-12.323-344.202-89.541-11.276-9.024-27.77-7.191-36.794 4.119-9.024 11.293-7.191 27.77 4.119 36.794 108.322 86.504 248.831 123.054 385.464 100.293 128.814-21.452 241.552-91.793 317.461-198.056s105.861-235.705 84.392-364.519c-21.452-128.796-91.793-241.535-198.056-317.444-83.799-59.851-182.067-91.147-283.059-91.165zM317.392 767.582l-86.836 129.337c-1.728 2.548-4.608 3.962-7.82 3.84-3.107-0.209-5.865-2.042-7.244-4.817l-70.551-142.097c-1.396-2.828-1.169-6.179 0.593-8.78 1.641-2.409 4.346-3.84 7.226-3.84 0.227 0 0.471 0 0.716 0.035l157.369 12.742c3.107 0.279 5.83 2.129 7.156 4.905 1.327 2.81 1.117 6.127-0.611 8.675zM152.761 732.499c-5.777 0-11.171 2.863-14.435 7.645-3.526 5.201-3.997 11.921-1.204 17.559l70.551 142.114c2.723 5.516 8.273 9.216 14.47 9.652 0.035 0 0.070 0 0.087 0 6.86 0 12.305-2.88 15.552-7.663l86.853-129.355c3.404-5.027 3.91-11.642 1.274-17.245-2.671-5.585-8.134-9.356-14.295-9.879l-158.853-12.829zM223.312 892.050l-70.551-142.097v-8.727l0.087 8.727 157.282 12.759-86.818 129.337zM522.237 336.143c-58.385 0-105.896 47.511-105.896 105.914 0 58.385 47.511 105.896 105.896 105.896s105.879-47.511 105.879-105.896c0-58.403-47.494-105.914-105.879-105.914zM522.237 495.59c-29.515 0-53.533-24.017-53.533-53.533 0-29.533 24.017-53.55 53.533-53.55 29.498 0 53.515 24.017 53.515 53.55 0 29.515-24.017 53.533-53.515 53.533zM522.237 143.603c-164.578 0-298.454 133.893-298.454 298.454s133.876 298.454 298.454 298.454 298.471-133.876 298.471-298.454-133.893-298.454-298.471-298.454zM522.237 688.147c-135.691 0-246.090-110.399-246.090-246.090s110.399-246.090 246.090-246.090 246.108 110.399 246.108 246.090-110.417 246.090-246.108 246.090z" />
<glyph unicode="&#xc929;" glyph-name="Funnel" horiz-adv-x="1045" d="M527.208 450.198c-9.328 0-18.254 3.905-24.592 10.756l-100.755 109.034c-12.564 13.568-11.671 34.746 1.875 47.287s34.746 11.738 47.287-1.875l75.829-82.077 73.843 82.032c12.43 13.769 33.563 14.818 47.287 2.477 13.724-12.385 14.862-33.54 2.477-47.287l-98.368-109.28c-6.315-6.985-15.264-11.002-24.659-11.069-0.089 0-0.179 0-0.223 0zM526.048 508.799c-18.477 0-33.474 14.996-33.474 33.474v384.254c0 18.477 14.996 33.474 33.474 33.474s33.474-14.996 33.474-33.474v-384.254c0-18.477-14.996-33.474-33.474-33.474zM452.16-4.997c-18.477 0-33.474 14.996-33.474 33.474v247.102l-403.155 446.872c-8.859 9.819-11.113 23.945-5.735 36.018 5.356 12.095 17.339 19.883 30.572 19.883h337.837c18.477 0 33.474-14.996 33.474-33.474s-14.996-33.474-33.474-33.474h-262.544l361.358-400.544c5.534-6.137 8.636-14.148 8.636-22.427v-259.933c-0.022-18.5-15.018-33.496-33.496-33.496zM599.913-64c-18.477 0-33.474 14.996-33.474 33.474v318.958c0 8.279 3.102 16.268 8.636 22.427l361.358 400.544h-266.561c-18.477 0-33.474 14.996-33.474 33.474s14.996 33.474 33.474 33.474h341.832c13.211 0 25.194-7.788 30.595-19.883 5.356-12.073 3.102-26.199-5.757-36.018l-403.155-446.872v-306.104c0-18.477-14.996-33.474-33.474-33.474z" />
<glyph unicode="&#xc92a;" glyph-name="Gear" horiz-adv-x="1026" d="M666.944-45.372c-8.166 0-16.135 3.415-21.847 9.736l-76.456 84.681h-91.472l-76.476-84.681c-8.323-9.285-21.671-12.268-33.134-7.479l-88.705 36.766c-11.503 4.79-18.766 16.292-18.137 28.718l5.83 114.026-64.561 64.58-114.046-5.83c-12.229-0.432-23.928 6.635-28.698 18.137l-36.785 88.705c-4.77 11.503-1.786 24.772 7.479 33.134l84.681 76.476v91.472l-84.661 76.456c-9.265 8.362-12.249 21.631-7.479 33.134l36.785 88.685c4.77 11.503 16.528 18.55 28.698 18.137l127.1-6.478c16.233-0.824 28.737-14.663 27.913-30.896s-14.879-28.698-30.896-27.913l-106.371 5.418-20.866-50.31 78.969-71.294c6.203-5.575 9.716-13.525 9.716-21.847v-117.658c0-8.342-3.533-16.273-9.716-21.847l-78.969-71.313 20.866-50.31 106.351 5.437c8.284 0.353 16.43-2.709 22.318-8.598l83.091-83.091c5.869-5.889 9.010-13.996 8.598-22.318l-5.437-106.332 50.329-20.886 71.274 78.969c5.594 6.203 13.525 9.736 21.847 9.736h117.658c8.362 0 16.292-3.533 21.847-9.736l71.313-78.969 50.329 20.886-5.437 106.332c-0.412 8.323 2.689 16.43 8.598 22.318l83.071 83.091c5.908 5.889 14.074 8.912 22.318 8.598l106.351-5.437 20.886 50.329-78.969 71.294c-6.203 5.575-9.736 13.505-9.736 21.847v117.638c0 8.342 3.533 16.273 9.736 21.847l78.969 71.313-20.886 50.31-106.351-5.418c-8.244-0.373-16.41 2.689-22.318 8.598l-83.071 83.071c-5.908 5.889-9.010 13.996-8.598 22.318l5.437 106.351-50.329 20.866-71.313-78.969c-5.555-6.183-13.505-9.716-21.847-9.716h-117.658c-8.323 0-16.253 3.533-21.847 9.716l-71.274 78.969-50.329-20.866 5.437-106.351c0.805-16.233-11.66-30.072-27.913-30.896-15.88-0.726-30.072 11.66-30.916 27.913l-6.497 127.1c-0.628 12.425 6.635 23.928 18.137 28.698l88.705 36.785c11.503 4.731 24.811 1.786 33.134-7.479l76.476-84.681h91.472l76.456 84.681c8.362 9.265 21.671 12.229 33.134 7.479l88.724-36.785c11.503-4.77 18.785-16.273 18.137-28.698l-5.83-114.046 64.6-64.561 114.026 5.81c12.386 0.451 23.928-6.635 28.718-18.137l36.766-88.705c4.79-11.503 1.806-24.772-7.479-33.134l-84.681-76.476v-91.453l84.681-76.476c9.285-8.342 12.268-21.631 7.479-33.134l-36.766-88.724c-4.79-11.503-16.292-18.609-28.718-18.137l-114.026 5.83-64.6-64.58 5.83-114.026c0.648-12.425-6.635-23.928-18.137-28.718l-88.724-36.766c-3.671-1.511-7.518-2.238-11.306-2.238zM522.924 181.601c-152.048 0-275.713 123.704-275.713 275.732s123.664 275.713 275.713 275.713c152.009 0 275.713-123.684 275.713-275.713 0-51.723-14.408-102.151-41.712-145.845-8.617-13.78-26.794-17.98-40.554-9.383-13.799 8.617-17.98 26.774-9.402 40.574 21.435 34.312 32.781 73.963 32.781 114.635 0 119.562-97.302 216.825-216.825 216.825-119.581 0-216.845-97.263-216.845-216.825s97.263-216.845 216.845-216.845c43.42 0 85.368 12.798 121.171 37.021 13.505 9.088 31.78 5.555 40.907-7.911 9.088-13.485 5.555-31.78-7.93-40.888-45.638-30.798-98.912-47.091-154.149-47.091z" />
<glyph unicode="&#xc92b;" glyph-name="Goal" horiz-adv-x="977" d="M741.623-17.161h-515.637c-14.636 0-26.483 11.864-26.483 26.483v138.47c0 14.618 11.847 26.483 26.483 26.483h333.718c-19.633 23.075-36.211 53.972-35.999 92.337 0.071 11.494 7.556 21.663 18.52 25.123 147.738 46.627 231.954 378.403 238.151 606.473h-593.108c5.667-223.603 81.92-554.072 238.627-606.632 13.859-4.643 21.327-19.65 16.684-33.51-4.661-13.859-19.65-21.398-33.527-16.684-200.404 67.178-275.085 454.78-275.085 683.308 0 14.636 11.847 26.483 26.483 26.483h646.762c14.618 0 26.483-11.847 26.483-26.483 0-231.671-81.231-595.968-255.1-675.575 11.158-48.322 66.966-77.383 67.584-77.7 10.893-5.561 16.596-17.902 13.736-29.802s-13.471-20.303-25.706-20.303h-381.74v-85.504h462.689v111.987c0 14.618 11.864 26.483 26.483 26.483s26.483-11.864 26.483-26.483v-138.47c-0.018-14.618-11.882-26.483-26.5-26.483zM630.731 515.602c-3.69 0-7.45 0.777-11.017 2.419-13.312 6.091-19.138 21.822-13.030 35.116 27.913 60.857 48.622 140.147 55.384 212.092 1.359 14.566 14.195 25.247 28.849 23.905 14.548-1.377 25.265-14.283 23.887-28.849-7.274-77.559-29.696-163.257-59.957-229.217-4.484-9.746-14.089-15.466-24.117-15.466zM122.209 414.596c-10.593 0-20.604 6.391-24.682 16.843-42.055 107.75-72.669 232.942-88.505 362.055-1.783 14.53 8.545 27.736 23.058 29.519 14.424 1.871 27.719-8.545 29.502-23.058 15.307-124.787 44.791-245.566 85.292-349.237 5.314-13.612-1.412-28.99-15.042-34.304-3.143-1.236-6.409-1.818-9.622-1.818zM846.477 414.596c-3.178 0-6.374 0.565-9.498 1.766-13.647 5.261-20.462 20.568-15.219 34.216 39.989 104.060 69.138 224.856 84.286 349.343 1.783 14.513 14.989 24.894 29.502 23.093 14.513-1.766 24.841-14.972 23.093-29.484-15.695-128.742-45.921-253.899-87.428-361.949-4.061-10.54-14.106-16.984-24.735-16.984zM249.644 414.596h-127.435c-10.911 0-20.692 6.691-24.664 16.843-42.072 107.75-72.686 232.942-88.523 362.055-0.918 7.539 1.43 15.095 6.444 20.78s12.253 8.934 19.844 8.934h125.14c14.636 0 26.483-11.847 26.483-26.483s-11.847-26.483-26.483-26.483h-94.932c15.201-107.538 40.872-211.262 74.929-302.68h109.197c14.636 0 26.483-11.847 26.483-26.483 0-14.618-11.847-26.483-26.483-26.483zM846.495 414.596h-128.512c-14.618 0-26.483 11.864-26.483 26.483 0 14.636 11.864 26.483 26.483 26.483h110.168c33.651 91.807 59.021 195.531 74.028 302.68h-94.967c-14.618 0-26.483 11.847-26.483 26.483s11.864 26.483 26.483 26.483h125.14c7.592 0 14.795-3.249 19.827-8.916 5.014-5.667 7.38-13.241 6.462-20.762-15.642-128.583-45.886-253.74-87.428-361.949-3.919-10.222-13.753-16.984-24.717-16.984z" />
<glyph unicode="&#xc92c;" glyph-name="GrowandNurture" horiz-adv-x="1155" d="M751.38 341.164c-29.933 0-53.872 5.301-67.958 11.127-14.348 5.919-21.167 22.347-15.248 36.695 5.938 14.33 22.309 21.148 36.695 15.248 1.442-0.599 149.853-51.193 270.372 135.842 60.896 94.445 92.384 205.28 108.081 281.648 3.297 16.072 6.2 32.031 8.673 47.634-7.099 0.112-14.161 2.885-19.537 8.317-10.921 11.014-10.846 28.809 0.187 39.73 11.145 11.052 34.26 33.96 59.379 21.448 24.801-12.419 20.399-44.244 18.526-57.843-3.166-22.815-7.268-46.567-12.157-70.599-16.671-81.070-50.313-199.042-115.911-300.792-87.814-136.254-197.506-168.453-271.102-168.453zM688.704-63.213c-4.627 0-9.328 1.143-13.655 3.54l-1.63 0.918c-72.585 40.198-109.374 93.171-109.374 157.477v153.487c0 127.824 17.683 225.21 104.035 285.020 118.159 81.763 179.748 126.738 255.368 193.628 11.67 10.302 29.39 9.178 39.674-2.435 10.284-11.632 9.178-29.371-2.435-39.655-77.792-68.801-140.543-114.656-260.613-197.749-66.478-46.042-79.834-125.52-79.834-238.828v-153.487c0-63.8 60.503-97.311 80.396-108.306l1.78-0.993c13.562-7.549 18.413-24.67 10.864-38.231-5.151-9.178-14.723-14.386-24.576-14.386zM417.808-57.275c-12.569 0-24.014 8.485-27.236 21.242-3.784 15.041 5.339 30.308 20.38 34.091 5.507 1.499 55.914 17.046 55.914 79.815l-0.019 23.377c-0.037 42.689-0.131 128.911 0.019 185.368 0.45 188.721-42.127 235.962-239.708 266.045-67.546 10.302-116.286 35.403-148.579 58.574 1.124-5.020 2.341-10.19 3.615-15.528 15.809-64.549 39.917-149.253 86.259-231.56 36.77-65.336 93.265-103.455 130.447-116.267 47.503-16.296 75.264 5.282 84.573 28.79 9.253 23.321 2.922 53.91-32.031 69.7-11.895 5.376-24.332 10.246-36.452 15.023-27.142 10.677-52.767 20.755-71.667 35.14-12.344 9.403-14.742 27.011-5.339 39.374 9.385 12.382 27.030 14.76 39.374 5.339 12.681-9.647 34.785-18.338 58.18-27.554 12.981-5.095 26.28-10.359 39.018-16.090 65.336-29.484 80.209-93.564 61.159-141.648-19.256-48.534-76.013-88.451-155.098-61.196-48.758 16.784-116.679 62.826-161.148 141.817-49.695 88.263-75.207 177.725-91.897 245.815-3.84 15.828-6.968 30.458-9.553 43.532-6.837 35.14 5.451 50.557 16.933 57.337 25.85 15.229 53.348-7.923 62.395-15.547 25.475-21.41 70.15-49.114 138.239-59.492 226.184-34.429 287.98-103.586 287.455-321.734-0.15-56.42-0.056-142.51-0.019-185.181l0.019-23.433c0-86.615-64.362-125.726-98.378-134.287-2.267-0.581-4.589-0.862-6.856-0.862zM606.566 529.848c-1.311 0-2.66 0.094-4.009 0.281-15.341 2.192-26.037 16.409-23.845 31.769 26.973 189.358 145.732 245.028 315.74 270.334 89.687 13.337 146.369 53.685 178.156 85.173 10.995 10.902 28.809 10.864 39.73-0.169 10.921-11.014 10.846-28.809-0.187-39.748-37.725-37.407-104.691-85.247-209.438-100.851-156.802-23.34-246.021-65.748-268.368-222.662-2.004-14.011-14.011-24.126-27.779-24.126z" />
<glyph unicode="&#xc92d;" glyph-name="Grow" horiz-adv-x="1098" d="M954.613-27.448h-740.508c-18.454 0-33.391 14.959-33.391 33.391s14.937 33.391 33.391 33.391h740.508c18.432 0 33.391-14.959 33.391-33.391s-14.959-33.391-33.391-33.391zM61.485-27.448c-18.454 0-33.391 14.959-33.391 33.391v891.125c0 18.454 14.937 33.391 33.391 33.391s33.391-14.937 33.391-33.391v-891.125c0-18.432-14.937-33.391-33.391-33.391zM61.462-27.448c-7.079 0-14.225 2.248-20.28 6.879-14.648 11.219-17.43 32.167-6.211 46.837l282.802 369.486c10.685 13.98 30.431 17.252 45.056 7.457l133.832-89.377 143.939 226.816c5.009 7.88 13.089 13.312 22.283 14.959 9.082 1.714 18.632-0.601 26.090-6.255l133.298-101.109 119.251 188.55c9.839 15.583 30.475 20.257 46.058 10.374 15.583-9.862 20.235-30.475 10.374-46.058l-138.685-219.292c-5.009-7.88-13.067-13.357-22.283-15.004-9.127-1.714-18.677 0.601-26.112 6.233l-133.343 101.131-142.803-225.013c-4.808-7.591-12.488-12.911-21.304-14.781-8.771-1.848-17.965-0.089-25.444 4.92l-136.237 90.958-263.747-344.621c-6.567-8.593-16.495-13.089-26.535-13.089zM324.63-7.903c-18.454 0-33.391 14.959-33.391 33.391v48.217c0 18.432 14.937 33.391 33.391 33.391s33.391-14.959 33.391-33.391v-48.217c0-18.432-14.937-33.391-33.391-33.391zM534.639-7.903c-18.454 0-33.391 14.959-33.391 33.391v48.217c0 18.432 14.937 33.391 33.391 33.391s33.391-14.959 33.391-33.391v-48.217c0-18.432-14.937-33.391-33.391-33.391zM744.626-7.903c-18.432 0-33.391 14.959-33.391 33.391v48.217c0 18.432 14.959 33.391 33.391 33.391s33.391-14.959 33.391-33.391v-48.217c0-18.432-14.959-33.391-33.391-33.391zM954.613-27.448c-18.432 0-33.391 14.959-33.391 33.391v67.762c0 18.432 14.959 33.391 33.391 33.391s33.391-14.959 33.391-33.391v-67.762c0-18.432-14.959-33.391-33.391-33.391zM122.012 863.677h-60.527c-18.454 0-33.391 14.937-33.391 33.391s14.937 33.391 33.391 33.391h60.527c18.454 0 33.391-14.937 33.391-33.391s-14.937-33.391-33.391-33.391zM122.012 653.69h-48.239c-18.454 0-33.391 14.937-33.391 33.391s14.937 33.391 33.391 33.391h48.239c18.454 0 33.391-14.937 33.391-33.391s-14.937-33.391-33.391-33.391zM122.012 443.681h-48.239c-18.454 0-33.391 14.937-33.391 33.391s14.937 33.391 33.391 33.391h48.239c18.454 0 33.391-14.937 33.391-33.391s-14.937-33.391-33.391-33.391zM122.012 233.695h-48.239c-18.454 0-33.391 14.959-33.391 33.391s14.937 33.391 33.391 33.391h48.239c18.454 0 33.391-14.959 33.391-33.391s-14.937-33.391-33.391-33.391zM1037.379 502.918c-16.295 0-30.564 11.932-32.991 28.538l-16.184 110.303-107.053-25.889c-17.965-4.341-35.974 6.701-40.314 24.598-4.319 17.92 6.678 35.974 24.598 40.314l142.603 34.504c9.060 2.226 18.721 0.467 26.535-4.786 7.769-5.254 12.978-13.535 14.358-22.817l21.504-146.521c2.671-18.254-9.951-35.217-28.205-37.888-1.603-0.245-3.25-0.356-4.853-0.356z" />
<glyph unicode="&#xc92e;" glyph-name="GrowthDrivenSite" horiz-adv-x="1306" d="M1241.769 10.691h-900.176c-18.45 0-33.422 14.975-33.422 33.422s14.975 33.422 33.422 33.422h866.754v791.598h-1067.263v-567.134c0-18.45-14.975-33.422-33.422-33.422s-33.422 14.975-33.422 33.422v600.556c0 18.45 14.975 33.422 33.422 33.422h1134.11c18.45 0 33.422-14.975 33.422-33.422v-858.442c0-18.45-14.975-33.422-33.422-33.422zM258.952 728.446c-21.614 0-39.192 17.557-39.192 39.171 0 21.634 17.581 39.215 39.192 39.215s39.215-17.581 39.215-39.215c0-21.614-17.601-39.171-39.215-39.171zM509.13 728.446c-21.634 0-39.171 17.557-39.171 39.171 0 21.634 17.557 39.215 39.171 39.215 21.591 0 39.215-17.581 39.215-39.215 0-21.614-17.625-39.171-39.215-39.171zM384.039 728.446c-21.634 0-39.215 17.557-39.215 39.171 0 21.634 17.581 39.215 39.215 39.215 21.614 0 39.215-17.581 39.215-39.215 0-21.614-17.601-39.171-39.215-39.171zM64.011-40c-7.086 0-14.239 2.25-20.298 6.885-14.639 11.23-17.423 32.196-6.216 46.879l283.064 369.806c10.696 13.994 30.48 17.245 45.099 7.465l133.98-89.459 144.049 227.026c5.014 7.889 13.101 13.346 22.326 14.995 9.091 1.649 18.629-0.601 26.114-6.26l133.423-101.203 119.318 188.748c9.87 15.62 30.504 20.231 46.123 10.384 15.576-9.85 20.231-30.504 10.36-46.1l-138.769-219.497c-5.014-7.889-13.101-13.369-22.326-15.018-9.135-1.716-18.672 0.601-26.114 6.24l-133.467 101.226-142.957-225.223c-4.836-7.597-12.5-12.923-21.278-14.794-8.822-1.827-17.981-0.091-25.513 4.923l-136.341 91.041-264.015-344.964c-6.596-8.601-16.51-13.101-26.561-13.101zM1040.834 490.857c-16.311 0-30.591 11.942-33.022 28.566l-16.197 110.382-107.107-25.913c-17.937-4.3-36.028 6.707-40.351 24.62-4.346 17.937 6.663 35.984 24.62 40.351l142.692 34.537c9.091 2.25 18.76 0.467 26.537-4.789s13.013-13.547 14.394-22.84l21.502-146.635c2.697-18.249-9.961-35.249-28.21-37.922-1.582-0.245-3.231-0.356-4.856-0.356z" />
<glyph unicode="&#xc92f;" glyph-name="Health" horiz-adv-x="1194" d="M596.981-64c-3.252 0-6.526 0.477-9.67 1.453-8.803 2.754-16.066 9.106-19.925 17.497-6.895 15.112-1.236 33.043 13.074 41.542 17.367 10.342 427.149 256.19 527.21 516.564 14.223 33.541 21.226 68.21 21.226 104.072 0 146.091-118.793 264.949-264.797 264.949-101.86 0-192.988-57.716-237.89-150.622-5.42-11.253-16.803-18.386-29.292-18.386v0c-12.489 0-23.871 7.155-29.292 18.386-44.838 92.906-135.965 150.622-237.869 150.622-145.982 0-264.776-118.837-264.776-264.949 0-43.038 10.516-85.664 30.419-123.282 8.391-15.849 2.32-35.558-13.551-43.949-15.828-8.369-35.558-2.342-43.949 13.551-24.782 46.941-37.899 100.061-37.899 153.679 0 181.974 147.955 329.994 329.82 329.994 107.758 0 205.823-51.646 267.139-137.808 61.381 86.184 159.446 137.808 267.161 137.808 181.887 0 329.842-148.020 329.842-329.994 0-44.664-8.738-87.876-25.975-128.463-107.671-280.126-536.142-537.27-554.312-548.089-5.095-3.035-10.884-4.575-16.695-4.575zM492.519 7.918c-6.656 0-13.334 2.016-19.101 6.223-10.862 7.892-22.289 16.348-34.17 25.324-89.545 67.538-215.797 172.108-308.768 286.652-11.643 14.332-22.636 28.641-32.631 42.518-7.133 9.908-8.131 22.982-2.558 33.845s16.738 17.692 28.945 17.692h180.846l68.882 207.97c4.401 13.312 16.847 22.289 30.875 22.289 0.022 0 0.022 0 0.043 0 14.028-0.022 26.495-9.041 30.853-22.375l89.306-272.212 70.4 174.624c4.965 12.293 16.912 20.337 30.181 20.337 0.022 0 0.043 0 0.065 0 13.269-0.022 25.216-8.131 30.159-20.467l43.71-109.492h76.363c17.952 0 32.522-14.57 32.522-32.522s-14.57-32.522-32.522-32.522h-98.413c-13.291 0-25.281 8.109-30.224 20.467l-21.812 54.659-73.414-182.039c-5.117-12.64-17.909-20.988-31.243-20.337-13.659 0.455-25.563 9.388-29.812 22.354l-86.293 263.084-45.249-136.616c-4.401-13.312-16.847-22.289-30.875-22.289h-137.721c87.854-104.809 204.067-200.75 287.563-263.735 11.578-8.716 22.679-16.955 33.238-24.652 14.527-10.559 17.736-30.896 7.177-45.423-6.353-8.716-16.283-13.356-26.321-13.356z" />
<glyph unicode="&#xc931;" glyph-name="House" horiz-adv-x="1067" d="M550.954 960l488.45-398.671c11.853-9.671 13.61-27.165 3.939-39.018s-27.128-13.666-39-3.957l-470.938 384.34-470.901-384.34c-5.141-4.216-11.354-6.25-17.512-6.25-8.063 0-16.014 3.477-21.506 10.208-9.671 11.872-7.915 29.347 3.957 39.018l488.45 398.671zM930.079-57.713h-299.147c-15.311 0-27.738 12.427-27.738 27.738v327.403h-139.56v-327.403c0-15.311-12.427-27.738-27.738-27.738h-299.128c-15.311 0-27.738 12.427-27.738 27.738v516.706c0 15.311 12.427 27.738 27.738 27.738s27.738-12.427 27.738-27.738v-488.95h243.633v327.384c0 15.311 12.427 27.738 27.738 27.738h195.055c15.311 0 27.738-12.427 27.738-27.738v-327.403h243.689v488.968c0 15.311 12.427 27.738 27.738 27.738s27.738-12.427 27.738-27.738v-516.688c-0.018-15.33-12.445-27.757-27.757-27.757zM665.531 389.889h-264.252c-15.311 0-27.738 12.427-27.738 27.738s12.427 27.738 27.738 27.738h264.252c15.311 0 27.738-12.427 27.738-27.738s-12.427-27.738-27.738-27.738zM136.749 711.429c-15.311 0-27.738 12.427-27.738 27.738v69.308c0 15.311 12.427 27.738 27.738 27.738s27.738-12.427 27.738-27.738v-69.308c0-15.311-12.427-27.738-27.738-27.738z" />
<glyph unicode="&#xc932;" glyph-name="Intelligence" horiz-adv-x="986" d="M428.887-64.444v0c-34.929 0-70.267 14.089-92.191 36.777-7.178 7.444-12.828 15.564-16.843 24.198-47.011-11.157-94.501 4.868-122.004 41.343-16.061 21.302-24.252 47.508-24.038 75.171-0.728-0.018-1.457-0.018-2.185-0.018-66.927 0-129.59 48.148-149.027 114.471-12.579 42.942-5.081 87.572 20.414 125.628-33.33 37.488-48.858 90.219-41.059 143.324 6.663 45.11 29.901 82.295 63.551 103.011-2.825 65.435 12.828 120.067 45.66 158.816 25.353 29.919 60.265 49.054 101.768 55.929 26.206 85.475 93.79 136.697 184.027 138.154l2.381 0.018c84.8 0 124.331-70.356 124.331-117.917v-832.44c0-3.553-0.728-7.071-2.114-10.358-14.835-35.125-49.462-56.107-92.671-56.107zM339.184 58.288c5.099 0 10.163-1.457 14.569-4.335 7.8-5.099 12.366-13.911 12.064-23.221-0.267-7.586 2.843-14.746 9.221-21.338 12.046-12.472 33.188-20.521 53.869-20.521v0c11.655 0 31.714 2.612 41.467 19.348v826.275c0 22.546-20.858 64.617-71.031 64.617-35.267-0.551-116.283-12.863-139.308-115.057-2.576-11.442-12.33-19.845-24.056-20.716-35.871-2.612-64.173-15.919-84.161-39.513-26.348-31.127-37.417-78.724-31.998-137.621 1.084-11.708-5.632-22.724-16.541-27.147-25.833-10.482-43.528-36.102-48.556-70.32-6.343-43.137 9.665-87.163 40.828-112.214 5.721-4.602 9.274-11.371 9.861-18.691 0.569-7.338-1.883-14.569-6.84-20.005-25.708-28.302-34.521-62.13-24.802-95.3 15.493-52.927 72.47-87.519 123.887-72.381 9.31 2.718 19.401 0.213 26.295-6.645 6.911-6.84 9.523-16.896 6.858-26.259-7.178-25.104-3.695-49.622 9.594-67.247 18.691-24.767 52.945-30.79 87.27-14.338 3.642 1.759 7.586 2.629 11.513 2.629zM558.851-64c-13.645 0-25.264 10.429-26.508 24.269-1.279 14.658 9.541 27.627 24.18 28.924 27.592 2.47 56.64 19.739 55.894 41.521-0.32 9.31 4.228 18.14 12.046 23.239s17.696 5.739 26.099 1.723c29.422-14.071 57.919-12.419 78.102 4.637 20.272 17.109 27.45 46.602 18.744 76.947-2.665 9.345-0.036 19.419 6.876 26.259 6.911 6.858 16.967 9.434 26.295 6.645 30.505-8.954 55.841-0.48 71.76 8.208 24.838 13.556 44.31 37.523 52.127 64.173 9.718 33.17 0.906 67.016-24.802 95.3-4.921 5.437-7.391 12.668-6.84 20.005 0.586 7.32 4.122 14.089 9.861 18.691 31.163 25.033 47.188 69.095 40.846 112.197-5.028 34.236-22.724 59.856-48.574 70.32-10.891 4.424-17.589 15.439-16.523 27.147 5.419 58.897-5.614 106.493-31.998 137.621-19.988 23.576-48.343 36.884-84.178 39.513-11.726 0.871-21.48 9.274-24.074 20.734-22.972 102.176-104.006 114.471-137.763 115.021-12.046 0.409-23.114-1.937-32.868-6.396-13.361-6.13-29.191-0.231-35.32 13.147-6.112 13.396-0.213 29.208 13.147 35.32 17.038 7.782 35.978 11.531 55.894 11.229 90.255-1.457 157.857-52.696 184.009-138.154 41.538-6.893 76.45-26.028 101.785-55.929 32.868-38.767 48.503-93.399 45.66-158.816 33.668-20.734 56.871-57.902 63.498-102.958 7.835-53.105-7.711-105.854-41.059-143.324 25.513-38.074 32.993-82.651 20.432-125.61-11.868-40.544-40.224-75.526-77.729-95.993-23.079-12.579-48.343-19.366-73.501-18.442 0.284-36.741-14.231-70.64-41.325-93.542-28.658-24.198-66.252-32.14-104.521-23.043-16.203-35.267-57.386-56.871-97.273-60.424-0.817-0.124-1.599-0.16-2.399-0.16zM795.076 417.53c-9.256 0-18.282 4.833-23.186 13.485-7.284 12.792-2.807 29.066 10.003 36.333 2.629 1.546 67.496 40.082 76.592 119.445 5.348 58.31-5.721 105.907-32.069 137.034-19.988 23.576-48.343 36.884-84.178 39.513-14.675 1.084-25.708 13.84-24.642 28.516s14.018 25.762 28.516 24.642c49.978-3.66 91.783-23.79 120.938-58.204 35.853-42.302 51.221-103.491 44.452-176.974-12.312-107.4-99.564-158.177-103.278-160.273-4.157-2.381-8.67-3.518-13.147-3.518zM171.697 113.098c-24.518 0-48.947 6.236-71.386 18.477-37.523 20.467-65.843 55.45-77.711 95.958-14.924 50.937-1.617 104.184 36.511 146.149 3.66 3.82 78.085 79.222 186.941 44.239 14-4.495 21.729-19.508 17.216-33.526-4.495-13.982-19.366-21.817-33.526-17.216-77.534 24.838-131.189-29.386-131.722-29.955-25.158-27.716-33.97-61.544-24.252-94.714 7.8-26.632 27.272-50.635 52.092-64.173 15.919-8.688 41.29-17.163 71.795-8.208 14.089 4.157 28.924-3.891 33.082-18.033 4.157-14.107-3.909-28.942-18.033-33.082-13.467-3.962-27.254-5.916-41.005-5.916zM217.748 520.79c-14.515 0-26.401 11.637-26.65 26.224-0.249 14.711 11.495 26.845 26.224 27.076 33.757 0.533 114.773 12.845 137.745 115.021 3.234 14.338 17.482 23.328 31.856 20.165 14.373-3.251 23.381-17.482 20.165-31.856-21.711-96.509-92.316-155.068-188.895-156.613-0.178-0.018-0.302-0.018-0.444-0.018zM731.401 291.973c-5.383 0-10.784 1.617-15.475 4.957-114.648 81.833-152.545 206.822-101.323 334.351 5.49 13.698 21.071 20.343 34.663 14.8 13.68-5.49 20.272-21 14.782-34.645-19.881-49.551-51.63-175.126 82.828-271.119 12.010-8.546 14.782-25.193 6.218-37.168-5.17-7.284-13.396-11.175-21.693-11.175zM384.577 140.974c-14.498 0-26.384 11.655-26.632 26.224-0.373 23.381-9.239 64.475-64.369 76.841-14.355 3.234-23.381 17.482-20.165 31.856 3.234 14.355 17.34 23.328 31.856 20.165 64.333-14.444 104.93-63.498 105.978-127.991 0.231-14.729-11.495-26.845-26.224-27.076-0.16-0.018-0.302-0.018-0.444-0.018zM631.126 226.947c-10.003 0-19.614 5.668-24.145 15.333-27.965 59.696-14.089 121.844 36.262 162.174 11.477 9.203 28.249 7.338 37.47-4.14 9.203-11.477 7.32-28.267-4.157-37.452-18.246-14.604-45.287-46.78-21.302-97.948 6.254-13.325 0.515-29.208-12.81-35.445-3.678-1.723-7.533-2.523-11.317-2.523zM357.146 355.293c-1.866 0-3.784 0.195-5.703 0.604-14.391 3.145-23.488 17.358-20.361 31.731 24.607 112.623-46.14 144.905-54.277 148.227-13.556 5.525-20.254 20.947-14.871 34.538 5.366 13.609 20.521 20.343 34.219 15.137 42.356-16.274 115.039-80.945 87.003-209.274-2.718-12.454-13.751-20.965-26.010-20.965z" />
<glyph unicode="&#xc933;" glyph-name="IntelligentStrategies" horiz-adv-x="757" d="M264.981 237.179c-3.053 0-6.142 0.506-9.175 1.607-145.761 52.488-243.694 191.983-243.694 347.138 0 201.684 164.076 365.76 365.777 365.76 201.684 0 365.76-164.076 365.76-365.76 0-155.137-97.933-294.65-243.694-347.138-13.998-5.039-29.605 2.205-34.661 16.312-5.076 14.070 2.222 29.605 16.312 34.661 124.322 44.776 207.861 163.806 207.861 296.168 0 171.808-139.766 311.574-311.574 311.574s-311.591-139.766-311.591-311.574c0-132.361 83.539-251.372 207.861-296.168 14.070-5.059 21.385-20.591 16.312-34.678-3.972-11.037-14.394-17.898-25.486-17.898zM411.717-65.726h-88.847c-14.972 0-27.093 12.138-27.093 27.093s12.121 27.093 27.093 27.093h88.847c4.317 0 25.938 0.793 25.938 16.527 0 14.486-23.661 14.9-26.352 14.9-1.247 0-2.475 0.089-3.668 0.253h-66.595c-47.394 0-80.503 28.412-80.503 69.090 0 40.985 33.687 70.713 80.087 70.713h85.128c17.303 0 37.949 6.573 37.949 37.932v66.396c0 14.955 12.138 27.093 27.093 27.093s27.093-12.138 27.093-27.093v-66.396c0-54.241-37.895-92.118-92.136-92.118h-85.128c-4.317 0-25.9-0.793-25.9-16.527 0-14.486 23.627-14.9 26.317-14.9h70.262c1.426 0 2.817-0.109 4.174-0.325 45.172-1.627 76.367-29.551 76.367-69.015 0-40.964-33.704-70.713-80.124-70.713zM264.981 188.842c-14.972 0-27.093 12.138-27.093 27.093v48.334c0 14.955 12.121 27.093 27.093 27.093s27.093-12.138 27.093-27.093v-48.334c0-14.955-12.121-27.093-27.093-27.093zM467.82 518.676c-7.387 0-14.469 3.015-19.58 8.364l-25.432 26.604-24.71-26.389c-5.093-5.435-12.193-8.542-19.652-8.58-7.278 0.793-14.596 2.998-19.723 8.381l-25.343 26.553-24.584-26.334c-5.076-5.435-12.193-8.563-19.634-8.597-0.055 0-0.109 0-0.164 0-7.387 0-14.469 3.015-19.58 8.364l-45.247 47.288c-10.35 10.819-9.971 27.961 0.848 38.309 10.802 10.33 27.941 9.954 38.309-0.848l25.432-26.587 24.601 26.334c5.093 5.435 12.193 8.563 19.652 8.597 7.26 0.362 14.596-2.998 19.741-8.381l25.36-26.57 24.71 26.372c5.076 5.435 12.193 8.542 19.634 8.58 7.028 0.308 14.576-2.981 19.723-8.364l25.415-26.57 24.618 26.334c10.224 10.945 27.401 11.506 38.291 1.299 10.911-10.224 11.506-27.363 1.282-38.291l-44.181-47.288c-5.076-5.455-12.193-8.563-19.634-8.597-0.072 0.017-0.126 0.017-0.164 0.017z" />
<glyph unicode="&#xc934;" glyph-name="LandingPage2" horiz-adv-x="1295" d="M1144.025 31.976h-988.438c-16.394 0-29.696 13.301-29.696 29.696v772.608c0 16.394 13.301 29.696 29.696 29.696h988.438c16.394 0 29.696-13.301 29.696-29.696v-513.682c0-16.394-13.301-29.696-29.696-29.696s-29.696 13.301-29.696 29.696v483.99h-929.047v-713.216h929.047v98.453c0 16.394 13.301 29.696 29.696 29.696s29.696-13.301 29.696-29.696v-128.149c0-16.394-13.301-29.696-29.696-29.696zM762.012 524.324h-499.174c-16.394 0-29.696 13.301-29.696 29.696s13.301 29.696 29.696 29.696h499.174c16.394 0 29.696-13.301 29.696-29.696s-13.301-29.696-29.696-29.696zM762.012 412.198h-499.174c-16.394 0-29.696 13.301-29.696 29.696s13.301 29.696 29.696 29.696h499.174c16.394 0 29.696-13.301 29.696-29.696s-13.301-29.696-29.696-29.696zM1033.445 524.324h-160.767c-16.394 0-29.696 13.301-29.696 29.696s13.301 29.696 29.696 29.696h160.767c16.394 0 29.696-13.301 29.696-29.696s-13.301-29.696-29.696-29.696zM1033.445 412.198h-160.767c-16.394 0-29.696 13.301-29.696 29.696s13.301 29.696 29.696 29.696h160.767c16.394 0 29.696-13.301 29.696-29.696s-13.301-29.696-29.696-29.696zM568.237 300.107h-305.407c-16.394 0-29.696 13.301-29.696 29.696s13.301 29.696 29.696 29.696h305.422c16.394 0 29.696-13.301 29.696-29.696s-13.326-29.696-29.718-29.696zM486.277 693.588h-0.452c-16.394 0-29.696 13.301-29.696 29.696s13.301 29.696 29.696 29.696 29.928-13.301 29.928-29.696-13.081-29.696-29.476-29.696zM380.721 693.588h-0.452c-16.394 0-29.696 13.301-29.696 29.696s13.301 29.696 29.696 29.696 29.928-13.301 29.928-29.696-13.081-29.696-29.476-29.696zM275.19 693.588h-0.452c-16.394 0-29.696 13.301-29.696 29.696s13.301 29.696 29.696 29.696 29.928-13.301 29.928-29.696-13.081-29.696-29.476-29.696z" />
<glyph unicode="&#xc935;" glyph-name="LandingPages" horiz-adv-x="1282" d="M1141.753 26.176h-994.246c-16.49 0-29.87 13.38-29.87 29.87v128.898c0 16.49 13.38 29.87 29.87 29.87s29.87-13.38 29.87-29.87v-99.028h934.507v717.415h-934.507v-486.83c0-16.49-13.38-29.87-29.87-29.87s-29.87 13.38-29.87 29.87v516.699c0 16.49 13.38 29.87 29.87 29.87h994.246c16.49 0 29.87-13.38 29.87-29.87v-777.138c0-16.504-13.38-29.893-29.87-29.893zM1033.863 521.427h-711.166c-16.49 0-29.87 13.38-29.87 29.87s13.38 29.87 29.87 29.87h711.166c16.49 0 29.87-13.38 29.87-29.87s-13.38-29.87-29.87-29.87zM1033.863 408.624h-596.287c-16.49 0-29.87 13.38-29.87 29.87s13.38 29.87 29.87 29.87h596.287c16.49 0 29.87-13.38 29.87-29.87s-13.38-29.87-29.87-29.87zM1033.863 295.873h-405.504c-16.49 0-29.87 13.38-29.87 29.87s13.38 29.87 29.87 29.87h405.504c16.49 0 29.87-13.38 29.87-29.87s-13.38-29.87-29.87-29.87zM1033.863 685.706h-0.479c-16.49 0-29.87 13.38-29.87 29.87s13.38 29.87 29.87 29.87 30.105-13.38 30.105-29.87-13.145-29.87-29.631-29.87zM932.51 685.706h-0.456c-16.49 0-29.87 13.38-29.87 29.87s13.38 29.87 29.87 29.87 30.105-13.38 30.105-29.87-13.159-29.87-29.649-29.87zM831.109 685.706h-0.456c-16.49 0-29.87 13.38-29.87 29.87s13.38 29.87 29.87 29.87 30.105-13.38 30.105-29.87-13.159-29.87-29.649-29.87z" />
</font>
</defs>
</svg>
