<svg id="arrow-bullet" xmlns="http://www.w3.org/2000/svg" width="23.272" height="23.272" viewBox="0 0 23.272 23.272">
  <path id="Path_10" data-name="Path 10" d="M11.636,0A11.636,11.636,0,1,0,23.272,11.636,11.636,11.636,0,0,0,11.636,0Z" fill="#1b81b5"/>
  <path id="Path_11" data-name="Path 11" d="M74.726,91.467a2.348,2.348,0,0,0-3.245,0,2.294,2.294,0,0,0,0,3.244h0l.911.911H66.53a2.53,2.53,0,0,0,0,5.059h5.862l-.911.911a2.295,2.295,0,0,0,3.245,3.231l5.609-5.609a1.518,1.518,0,0,0,0-2.146Z" transform="translate(-60.964 -86.509)" fill="#fafafa"/>
</svg>
