<svg xmlns="http://www.w3.org/2000/svg" width="386.255" height="312.675" viewBox="0 0 386.255 312.675"><g transform="translate(-88.491 -110.716)"><g transform="translate(92.222 186.873)"><g transform="translate(0 0)"><path d="M442.1,175.05H115.544a8.742,8.742,0,0,0-8.742,8.742v206.5H450.847v-206.5A8.742,8.742,0,0,0,442.1,175.05Z" transform="translate(-85.055 -175.05)" fill="#1d2a5b"/><rect width="311.843" height="186.428" transform="translate(37.848 15.253)" fill="#8cbdff"/><path d="M88.431,355.265a23.183,23.183,0,0,0,23.183,23.183H447.772a23.183,23.183,0,0,0,23.183-23.183Z" transform="translate(-88.431 -141.93)" fill="#fff"/><path d="M285.245,361.459H220.962a6.051,6.051,0,0,1-6.05-6.051H291.3A6.052,6.052,0,0,1,285.245,361.459Z" transform="translate(-65.187 -141.904)" fill="#1d2a5b"/></g><g transform="translate(37.922 14.54)"><rect width="311.769" height="17.64" fill="#4f67af"/><rect width="311.769" height="170.215" transform="translate(0 17.64)" fill="#e9eaee"/><g transform="translate(73.376 49.6)"><rect width="107.069" height="128.893" transform="translate(0 0.184)" fill="#fff"/><rect width="106.987" height="107.167" transform="translate(0.082)" fill="#fff"/><g transform="translate(3.247 3.65)"><path d="M191.7,245.3a6.491,6.491,0,1,1,6.5-6.491A6.505,6.505,0,0,1,191.7,245.3Z" transform="translate(-185.193 -232.315)" fill="#9093aa" opacity="0.7"/></g><text transform="translate(18.355 7.424)" font-size="3" font-family="NotoSans-Bold, Noto Sans" font-weight="700"><tspan x="0" y="0">Name</tspan></text><rect width="107.069" height="50.622" transform="translate(0 42.397)" fill="#203670"/><path d="M.653,0h1.4A.654.654,0,0,1,2.7.654V3.615a.653.653,0,0,1-.653.653H.654A.654.654,0,0,1,0,3.613V.653A.653.653,0,0,1,.653,0Z" transform="translate(14.328 119.474)" fill="#ccd0db"/><path d="M201.1,331.279a.54.54,0,1,0,0-1.081h-1.632a3.362,3.362,0,0,1,.045-.464c.179-.961-.112-1.832-.985-1.966a.563.563,0,0,0-.716.693v1.3a.6.6,0,0,1-.122.362l-.952,1.255v2.745l.559.4h3.3a.54.54,0,1,0,0-1.08h.227a.54.54,0,1,0,0-1.081h.272a.54.54,0,1,0,0-1.08Z" transform="translate(-179.825 -211.126)" fill="#ccd0db"/><path d="M243.391,328.425h-4.677a1.464,1.464,0,0,0-1.465,1.462v2.4a1.464,1.464,0,0,0,1.465,1.462h.672v1.718l1.849-1.718h2.156a1.464,1.464,0,0,0,1.466-1.462v-2.4A1.464,1.464,0,0,0,243.391,328.425Z" transform="translate(-172.38 -211.002)" fill="#ccd0db"/><g transform="translate(6.336 112.274)"><rect width="95.875" height="0.351" fill="#e9eaee"/></g><rect width="17.486" height="1.809" transform="translate(3.992 103.71)" fill="#e9eaee"/><rect width="13.791" height="1.809" transform="translate(26.761 119.994)" fill="#e9eaee"/><rect width="13.79" height="1.809" transform="translate(18.422 11.852)" fill="#e9eaee"/><rect width="13.79" height="1.809" transform="translate(82.588 119.994)" fill="#e9eaee"/><rect width="32.267" height="1.809" transform="translate(66.306 103.71)" fill="#e9eaee"/><rect width="96.662" height="5.428" transform="translate(4.645 21.803)" fill="#e9eaee"/><rect width="52.318" height="5.428" transform="translate(4.645 30.85)" fill="#e9eaee"/><rect width="14.865" height="3.98" transform="translate(18.422 5.519)" fill="#e9eaee"/></g><g transform="translate(73.376 23.671)"><rect width="107.069" height="19.28" fill="#fff"/><g transform="translate(3.158 3.607)"><path d="M191.244,222.606a6.115,6.115,0,1,1,6.126-6.115A6.128,6.128,0,0,1,191.244,222.606Z" transform="translate(-185.118 -210.376)" fill="#9093aa" opacity="0.7"/></g><rect width="50.84" height="5.428" transform="translate(20.905 7.234)" fill="#e9eaee"/></g><g transform="translate(41.061 4.543)"><rect width="103.735" height="8.114" fill="#fff"/><path d="M239.55,197.221l-1.3-1.31a2.012,2.012,0,1,0-.264.217l1.326,1.333Zm-4.355-2.731a1.655,1.655,0,1,1,1.655,1.651A1.655,1.655,0,0,1,235.195,194.49Z" transform="translate(-140.505 -190.925)" fill="#4f67af"/></g><g transform="translate(28.772 27.901)"><path d="M150.274,221.886a5.492,5.492,0,1,1,5.5-5.493A5.5,5.5,0,0,1,150.274,221.886Z" transform="translate(-144.771 -210.902)" fill="#9093aa" opacity="0.7"/><path d="M149.891,260.811a3.029,3.029,0,1,1,3.035-3.029A3.036,3.036,0,0,1,149.891,260.811Z" transform="translate(-144.388 -202.843)" fill="#9093aa" opacity="0.7"/><rect width="22.171" height="3.442" transform="translate(16.013 3.933)" fill="#9093aa" opacity="0.7"/><rect width="16.258" height="2.17" transform="translate(16.013 53.852)" fill="#9093aa" opacity="0.7"/><path d="M149.891,270.341a3.029,3.029,0,1,1,3.035-3.029A3.036,3.036,0,0,1,149.891,270.341Z" transform="translate(-144.388 -201.092)" fill="#9093aa" opacity="0.7"/><rect width="16.258" height="2.17" transform="translate(16.013 65.134)" fill="#9093aa" opacity="0.7"/><path d="M149.891,234.094a3.029,3.029,0,1,1,3.035-3.029A3.036,3.036,0,0,1,149.891,234.094Z" transform="translate(-144.388 -207.753)" fill="#9093aa" opacity="0.7"/><rect width="16.258" height="2.17" transform="translate(16.013 22.226)" fill="#9093aa" opacity="0.7"/><path d="M149.891,243.624a3.029,3.029,0,1,1,3.035-3.029A3.036,3.036,0,0,1,149.891,243.624Z" transform="translate(-144.388 -206.002)" fill="#9093aa" opacity="0.7"/><rect width="16.258" height="2.17" transform="translate(16.013 33.508)" fill="#9093aa" opacity="0.7"/><path d="M149.891,279.872a3.029,3.029,0,1,1,3.035-3.029A3.036,3.036,0,0,1,149.891,279.872Z" transform="translate(-144.388 -199.34)" fill="#9093aa" opacity="0.7"/><rect width="16.258" height="2.17" transform="translate(16.013 76.417)" fill="#9093aa" opacity="0.7"/><path d="M149.891,289.4a3.029,3.029,0,1,1,3.035-3.029A3.035,3.035,0,0,1,149.891,289.4Z" transform="translate(-144.388 -197.589)" fill="#9093aa" opacity="0.7"/><rect width="16.258" height="2.17" transform="translate(16.013 87.699)" fill="#9093aa" opacity="0.7"/><path d="M149.891,298.933a3.029,3.029,0,1,1,3.035-3.029A3.036,3.036,0,0,1,149.891,298.933Z" transform="translate(-144.388 -195.837)" fill="#9093aa" opacity="0.7"/><rect width="16.258" height="2.17" transform="translate(16.013 98.981)" fill="#9093aa" opacity="0.7"/><path d="M149.891,308.464a3.029,3.029,0,1,1,3.035-3.029A3.036,3.036,0,0,1,149.891,308.464Z" transform="translate(-144.388 -194.086)" fill="#9093aa" opacity="0.7"/><rect width="16.258" height="2.17" transform="translate(16.013 110.263)" fill="#9093aa" opacity="0.7"/><path d="M149.891,317.994a3.029,3.029,0,1,1,3.035-3.029A3.036,3.036,0,0,1,149.891,317.994Z" transform="translate(-144.388 -192.334)" fill="#9093aa" opacity="0.7"/><rect width="16.258" height="2.17" transform="translate(16.013 121.545)" fill="#9093aa" opacity="0.7"/><path d="M149.891,327.525a3.029,3.029,0,1,1,3.035-3.029A3.036,3.036,0,0,1,149.891,327.525Z" transform="translate(-144.388 -190.583)" fill="#9093aa" opacity="0.7"/><rect width="16.258" height="2.17" transform="translate(16.013 132.827)" fill="#9093aa" opacity="0.7"/></g><g transform="translate(257.378 27.655)"><path d="M343.389,221.678a5.492,5.492,0,1,1,5.5-5.492A5.5,5.5,0,0,1,343.389,221.678Z" transform="translate(-337.887 -210.694)" fill="#9093aa" opacity="0.7"/><path d="M376.179,217.741a1.909,1.909,0,1,1,1.5-1.5A1.913,1.913,0,0,1,376.179,217.741Z" transform="translate(-331.27 -210.094)" fill="#9093aa" opacity="0.7"/><rect width="22.171" height="3.442" transform="translate(16.012 3.934)" fill="#9093aa" opacity="0.7"/></g><g transform="translate(257.378 46.063)"><path d="M343.389,237.229a5.493,5.493,0,1,1,5.5-5.493A5.5,5.5,0,0,1,343.389,237.229Z" transform="translate(-337.887 -226.244)" fill="#9093aa" opacity="0.7"/><path d="M376.179,233.292a1.909,1.909,0,1,1,1.5-1.5A1.914,1.914,0,0,1,376.179,233.292Z" transform="translate(-331.27 -225.643)" fill="#9093aa" opacity="0.7"/><rect width="22.171" height="3.442" transform="translate(16.012 3.934)" fill="#9093aa" opacity="0.7"/></g><g transform="translate(257.378 64.472)"><path d="M343.389,252.779a5.492,5.492,0,1,1,5.5-5.493A5.5,5.5,0,0,1,343.389,252.779Z" transform="translate(-337.887 -241.795)" fill="#9093aa" opacity="0.7"/><path d="M376.179,248.842a1.909,1.909,0,1,1,1.5-1.5A1.913,1.913,0,0,1,376.179,248.842Z" transform="translate(-331.27 -241.195)" fill="#9093aa" opacity="0.7"/><rect width="22.171" height="3.442" transform="translate(16.012 3.934)" fill="#9093aa" opacity="0.7"/></g><rect width="35.474" height="31.611" transform="translate(183.966 23.671)" fill="#fff"/><rect width="35.474" height="31.611" transform="translate(183.966 59.442)" fill="#203670"/><rect width="35.474" height="31.611" transform="translate(183.966 95.233)" fill="#fff"/><g transform="translate(246.693 25.196)" opacity="0.7"><rect width="0.185" height="162.659" fill="#9093aa"/></g><path d="M255.362,199.335a3.771,3.771,0,1,1,3.779-3.77A3.779,3.779,0,0,1,255.362,199.335Z" transform="translate(-96.37 -186.513)" fill="#fff"/><rect width="15.223" height="2.364" transform="translate(166.208 7.981)" fill="#fff"/><rect width="15.223" height="2.364" transform="translate(186.162 7.981)" fill="#fff"/><path d="M154.493,199.72a.473.473,0,0,0,.474-.472v-7.62a.473.473,0,0,0-.474-.472H146.86a.474.474,0,0,0-.475.472v7.62a.474.474,0,0,0,.475.472Z" transform="translate(-115.703 -186.63)" fill="#fff"/><path d="M151.8,199.617v-3.386h1.139l.17-1.319H151.8v-.843c0-.381.107-.642.656-.642h.7v-1.179a9.223,9.223,0,0,0-1.02-.052,1.591,1.591,0,0,0-1.7,1.744v.973H149.3v1.319h1.141v3.386Z" transform="translate(-115.167 -186.438)" fill="#4f67af"/><text transform="translate(124.13 127.607)" fill="#fff" font-size="25" font-family="SegoeUI, Segoe UI"><tspan x="-23.468" y="0">ADS</tspan></text><rect width="51.771" height="40.422" transform="translate(253.757 85.835)" fill="#203670"/><rect width="51.771" height="40.422" transform="translate(253.757 132.311)" fill="#9093aa" opacity="0.7"/><text transform="translate(279.264 110.885)" fill="#fff" font-size="16" font-family="SegoeUI, Segoe UI"><tspan x="-15.02" y="0">ADS</tspan></text><text transform="translate(199.265 79.19)" fill="#fff" font-size="11" font-family="SegoeUI, Segoe UI"><tspan x="-10.326" y="0">ADS</tspan></text></g></g><g transform="translate(97.961 171.079)" opacity="0.4"><path d="M208.2,208.515l4.357-.689a7.163,7.163,0,0,0,5.9-8.534,7.3,7.3,0,0,0-8.331-5.585l-5.993.947-14.283,2.257-16.569,2.617c-.668.105.967-3.555,2.565-6.854a20.22,20.22,0,0,0,1.657-12.555c-.83-4.413-2.4-9.9-5.351-13.869-3.212-4.321-7.869-4.83-11.367-4.432a4.3,4.3,0,0,0-3.608,5.47l3.558,12.326a9.928,9.928,0,0,1-2.415,9.669l-3.328,3.427a16.511,16.511,0,0,0-4.589,9.938h0a7.17,7.17,0,0,1-6.018,6.4l-8.929,1.411-.582-3.689-12.794,2.021-.45-2.842L93.279,210.43l8.647,54.73,28.346-4.478-.45-2.843,12.794-2.021-.417-2.639,14.005-2.212,2.463,1.915a13.448,13.448,0,0,0,10.357,2.667l27.5-4.343h0l1.885-.3.632-.1,2.816-.445a6.012,6.012,0,0,0,5.072-5.278,5.632,5.632,0,0,0-.008-1.155,5.847,5.847,0,0,0-6.726-5.142l.969-.154h0l5.333-.842a7.3,7.3,0,0,0,6.2-7.882,7.163,7.163,0,0,0-8.239-6.3l.446-.071h0l5.333-.843a7.294,7.294,0,0,0,6.2-7.882A7.162,7.162,0,0,0,208.2,208.515Z" transform="translate(-93.279 -161.708)" fill="#1d2a5b"/><path d="M400.33,215.811l-2.458-.336,1.6-11.7a5.17,5.17,0,0,0-4.421-5.823l-60.141-8.231a6.026,6.026,0,0,0-6.787,5.153l-5.771,42.169a6.026,6.026,0,0,0,5.152,6.787l60.142,8.23a5.169,5.169,0,0,0,5.823-4.42l1.6-11.7,2.458.336Z" transform="translate(-51.19 -156.569)" fill="#1d2a5b"/></g><g transform="translate(183.856 130.24)"><g transform="translate(0 36.864)"><path d="M166.611,160.755l-.772-.9s.633-.546,1.851-1.508l.734.929C167.237,160.216,166.617,160.749,166.611,160.755Z" transform="translate(-165.839 -158.35)" fill="#fff"/></g><g transform="translate(5.597)"><path d="M171.267,162.185l-.7-.954c1.122-.822,2.405-1.737,3.84-2.724l.671.975C173.654,160.461,172.381,161.369,171.267,162.185ZM367.7,160.017c-1.139-.779-2.44-1.648-3.895-2.584l.64-1c1.467.943,2.776,1.817,3.922,2.6Zm-188.733-3.132-.644-.992q1.87-1.215,3.977-2.512l.619,1.009Q180.826,155.675,178.965,156.885Zm180.873-1.926q-1.895-1.149-4.028-2.371l.587-1.029q2.147,1.229,4.054,2.386Zm-172.9-2.965-.594-1.024q1.967-1.144,4.1-2.311L191,149.7Q188.891,150.855,186.933,151.994Zm164.79-1.676q-1.992-1.074-4.14-2.172l.536-1.054q2.161,1.1,4.165,2.184ZM195.129,147.5l-.543-1.052q2.044-1.055,4.206-2.107l.516,1.064Q197.161,146.448,195.129,147.5Zm148.262-1.428q-2.062-.987-4.24-1.969l.487-1.08q2.193.987,4.265,1.982Zm-139.855-2.658-.49-1.077q2.1-.959,4.3-1.9l.464,1.089Q205.629,142.463,203.536,143.416Zm131.331-1.177q-2.117-.891-4.329-1.761l.432-1.1q2.227.875,4.358,1.772Zm-122.731-2.48-.434-1.1q2.159-.854,4.4-1.671l.406,1.113Q214.284,138.911,212.137,139.759Zm114.03-.935q-2.166-.788-4.411-1.542l.376-1.122q2.259.758,4.439,1.553Zm-105.252-2.267-.375-1.122q2.205-.739,4.479-1.431l.344,1.133Q223.106,135.822,220.914,136.557Zm96.393-.707q-2.207-.678-4.483-1.315l.32-1.14q2.289.639,4.51,1.323Zm-87.458-2.012-.313-1.142q2.248-.614,4.554-1.177l.281,1.149Q232.083,133.226,229.849,133.838Zm78.461-.5q-2.244-.561-4.546-1.074l.257-1.155q2.315.513,4.575,1.081Zm-69.387-1.7-.245-1.159q2.284-.483,4.616-.906l.211,1.165Q241.189,131.152,238.923,131.634Zm60.267-.318q-2.275-.439-4.6-.82l.192-1.168q2.339.384,4.629.827Zm-51.08-1.34-.174-1.171q2.31-.344,4.664-.619l.136,1.175Q250.4,129.633,248.11,129.975Zm41.867-.17q-2.3-.307-4.637-.555l.125-1.177q2.355.247,4.669.559Zm-32.6-.911-.1-1.179q2.33-.2,4.695-.318l.06,1.183Q259.691,128.7,257.381,128.894Zm23.31-.064q-2.31-.174-4.659-.281l.053-1.183q2.365.107,4.7.283Zm-13.991-.413-.02-1.184q1.259-.023,2.527-.024l.8,0c.46,0,.917.007,1.373.014l-.018,1.184c-.452-.007-.907-.012-1.361-.014l-.8,0Q267.949,128.395,266.7,128.416Z" transform="translate(-170.567 -127.209)" fill="#fff"/></g><g transform="translate(206.502 34.541)"><path d="M342.139,158.759c-.007,0-.642-.518-1.857-1.419l.706-.952c1.249.926,1.9,1.453,1.9,1.453Z" transform="translate(-340.282 -156.388)" fill="#fff"/></g></g><g transform="translate(399.447 167.329)"><circle cx="15.995" cy="15.995" r="15.995" transform="translate(0 22.621) rotate(-45)" fill="#ffd56e"/><g transform="translate(2.786 2.786)"><circle cx="14.026" cy="14.026" r="14.026" transform="translate(0 19.835) rotate(-45)" fill="#f2c340"/></g><path d="M368.072,165.8a13.949,13.949,0,0,0-6.462,1.579,14.025,14.025,0,0,1,12.446,25.133,14.026,14.026,0,0,0-5.984-26.712Z" transform="translate(-345.452 -157.206)" fill="#d09d2d"/></g><g transform="translate(260.98 110.716)"><circle cx="19.615" cy="19.615" r="19.615" transform="translate(0 38.724) rotate(-80.783)" fill="#ffd56e"/><g transform="translate(5.304 5.304)"><circle cx="17.2" cy="17.2" r="17.2" fill="#f2c340"/></g><path d="M251.23,115.2a17.108,17.108,0,0,0-7.924,1.937,17.2,17.2,0,0,1,15.262,30.821A17.2,17.2,0,0,0,251.23,115.2Z" transform="translate(-228.726 -109.892)" fill="#d09d2d"/><g transform="translate(14.399 9.219)"><path d="M253.373,141.147v4.062h-3.53v-4.088a13.718,13.718,0,0,1-6.69-2.841l1.885-3.8a11.873,11.873,0,0,0,6.742,2.814c1.434,0,2.337-.53,2.337-1.513,0-3.158-9.8-1.248-9.8-7.832,0-2.945,2.124-4.991,5.522-5.547v-3.9h3.53v3.876a13.748,13.748,0,0,1,5.814,1.991l-1.831,3.85a14.473,14.473,0,0,0-6-1.991c-1.168,0-1.938.424-1.938,1.274,0,3.079,9.8,1.327,9.8,8.017C259.213,138.785,256.717,140.7,253.373,141.147Z" transform="translate(-243.153 -118.503)" fill="#bc8517"/></g><g transform="translate(15.037 9.219)"><path d="M253.913,141.147v4.062h-3.53v-4.088a13.722,13.722,0,0,1-6.691-2.841l1.886-3.8a11.873,11.873,0,0,0,6.742,2.814c1.434,0,2.337-.53,2.337-1.513,0-3.158-9.8-1.248-9.8-7.832,0-2.945,2.124-4.991,5.522-5.547v-3.9h3.53v3.876a13.747,13.747,0,0,1,5.814,1.991l-1.832,3.85a14.463,14.463,0,0,0-6-1.991c-1.168,0-1.938.424-1.938,1.274,0,3.079,9.795,1.327,9.795,8.017C259.752,138.785,257.257,140.7,253.913,141.147Z" transform="translate(-243.692 -118.503)" fill="#ffe48f"/></g></g><g transform="translate(88.491 154.506)"><g transform="translate(0 0)"><path d="M204.734,185.292a7.3,7.3,0,0,0-8.331-5.585l-5.993.947-14.283,2.256-16.569,2.619c-.668.105.967-3.556,2.565-6.854a20.224,20.224,0,0,0,1.657-12.556c-.83-4.412-2.4-9.9-5.351-13.869-3.212-4.321-7.869-4.83-11.367-4.431a4.3,4.3,0,0,0-3.608,5.47l3.558,12.324a9.93,9.93,0,0,1-2.415,9.67l-3.328,3.426a16.511,16.511,0,0,0-4.59,9.938h0a7.169,7.169,0,0,1-6.018,6.4L116.395,197.3l8.361,42.462,17.731-2.8,2.463,1.915a13.453,13.453,0,0,0,10.357,2.668l31.348-4.953-1.415.224,2.894-.457a5.958,5.958,0,0,0,5.064-6.435,5.848,5.848,0,0,0-6.726-5.142l6.3-1a7.3,7.3,0,0,0,6.2-7.88,7.163,7.163,0,0,0-8.239-6.3l5.779-.913a7.3,7.3,0,0,0,6.2-7.882,7.163,7.163,0,0,0-8.238-6.3l4.357-.689A7.162,7.162,0,0,0,204.734,185.292Z" transform="translate(-79.561 -147.708)" fill="#fff"/><g transform="translate(101.58 31.907)" opacity="0.4"><path d="M176.421,212.83l-5.332.843a5.847,5.847,0,0,1,6.725,5.142,5.955,5.955,0,0,1-5.064,6.434l2.439-.385,1.415-.224,1.48-.234a5.956,5.956,0,0,0,5.064-6.434A5.848,5.848,0,0,0,176.421,212.83Z" transform="translate(-171.089 -167.66)" fill="#aac7fd"/><path d="M180.025,200.012l-5.333.843a7.162,7.162,0,0,1,8.239,6.3,7.3,7.3,0,0,1-6.2,7.882l5.333-.843a7.3,7.3,0,0,0,6.2-7.88A7.163,7.163,0,0,0,180.025,200.012Z" transform="translate(-170.427 -170.019)" fill="#aac7fd"/><path d="M193.44,180.338a7.3,7.3,0,0,0-8.331-5.585l-5.332.842a7.3,7.3,0,0,1,8.33,5.585,7.162,7.162,0,0,1-5.9,8.534l-4.357.689a7.164,7.164,0,0,1,8.239,6.3,7.3,7.3,0,0,1-6.2,7.882l5.333-.842a7.3,7.3,0,0,0,6.2-7.882,7.163,7.163,0,0,0-8.238-6.3l4.357-.689A7.162,7.162,0,0,0,193.44,180.338Z" transform="translate(-169.846 -174.661)" fill="#aac7fd"/></g><rect width="15.831" height="49.652" transform="matrix(0.988, -0.156, 0.156, 0.988, 25.952, 47.535)" fill="#4f67af"/><rect width="28.697" height="55.409" transform="translate(0 48.721) rotate(-8.978)" fill="#1d2a5b"/><path d="M122.295,220.32a2.72,2.72,0,1,1-3.112-2.262A2.72,2.72,0,0,1,122.295,220.32Z" transform="translate(-79.471 -134.785)" fill="#fff"/></g><g transform="translate(287.442 31.011)"><path d="M5.426,0H72a4.656,4.656,0,0,1,4.656,4.656V53.572A4.656,4.656,0,0,1,72,58.228H5.426A5.426,5.426,0,0,1,0,52.8V5.426A5.426,5.426,0,0,1,5.426,0Z" transform="matrix(0.991, 0.136, -0.136, 0.991, 7.895, 0)" fill="#4f67af"/><path d="M378.79,195.1c-6.383-.874-12.226,3.3-13.051,9.332h0c-.825,6.027,3.68,11.622,10.064,12.5l26.417,3.615,2.987-21.829Z" transform="translate(-321.197 -170.03)" fill="#1d2a5b"/><path d="M379.346,205.635a4.909,4.909,0,1,1-4.227-5.249A4.77,4.77,0,0,1,379.346,205.635Z" transform="translate(-320.47 -169.046)" fill="#7490d6"/></g></g></g></svg>