<svg xmlns="http://www.w3.org/2000/svg" xmlns:xlink="http://www.w3.org/1999/xlink" width="296.77" height="310.712" viewBox="0 0 296.77 310.712">
  <defs>
    <linearGradient id="linear-gradient" x1="-37.158" y1="27.343" x2="-37.148" y2="27.343" gradientUnits="objectBoundingBox">
      <stop offset="0" stop-color="#232e4a"/>
      <stop offset="1"/>
    </linearGradient>
    <linearGradient id="linear-gradient-2" x1="-38.264" y1="12.76" x2="-38.253" y2="12.76" xlink:href="#linear-gradient"/>
  </defs>
  <g id="linkedin-ads" transform="translate(-219 -279)">
    <g id="Group_13016" data-name="Group 13016" transform="translate(219 279)">
      <g id="Group_12911" data-name="Group 12911" transform="translate(0 0)">
        <g id="Group_132" data-name="Group 132">
          <g id="Group_12520" data-name="Group 12520">
            <g id="Group_64" data-name="Group 64" transform="translate(0 17.164)">
              <path id="Path_258" data-name="Path 258" d="M3477.1-697.095H3243.175V-981.353c0-2.08.979-3.765,2.187-3.765H3474.92c1.205,0,2.186,1.686,2.186,3.765Z" transform="translate(-3243.175 985.118)" fill="#e8f5f9"/>
              <path id="Path_259" data-name="Path 259" d="M3477.1-911.934H3243.175v-41.91c0-.307.979-.555,2.187-.555H3474.92c1.205,0,2.186.249,2.186.555Z" transform="translate(-3243.175 962.763)" fill="#b4e5f9"/>
              <path id="Path_260" data-name="Path 260" d="M3477.1-961.121v-19.561c0-2.45-1.152-4.435-2.575-4.435H3245.75c-1.421,0-2.575,1.986-2.575,4.435v19.561Z" transform="translate(-3243.175 985.118)" fill="#acdbea"/>
              <path id="Path_261" data-name="Path 261" d="M3276.624-951.445a2.986,2.986,0,0,1-3.021,2.954,2.987,2.987,0,0,1-3.021-2.954,2.986,2.986,0,0,1,3.021-2.954A2.987,2.987,0,0,1,3276.624-951.445Z" transform="translate(-3263.12 963.762)" fill="#fff"/>
              <path id="Path_262" data-name="Path 262" d="M3290.85-951.445a2.987,2.987,0,0,1-3.022,2.954,2.988,2.988,0,0,1-3.021-2.954,2.987,2.987,0,0,1,3.021-2.954A2.988,2.988,0,0,1,3290.85-951.445Z" transform="translate(-3267.278 963.762)" fill="#fff"/>
              <path id="Path_263" data-name="Path 263" d="M3305.073-951.445a2.988,2.988,0,0,1-3.021,2.954,2.987,2.987,0,0,1-3.02-2.954,2.984,2.984,0,0,1,3.02-2.954A2.986,2.986,0,0,1,3305.073-951.445Z" transform="translate(-3271.785 963.762)" fill="#fff"/>
              <rect id="Rectangle_10" data-name="Rectangle 10" width="98.694" height="8.746" transform="translate(21.349 32.27)" fill="#def8ff"/>
              <g id="Group_63" data-name="Group 63" transform="translate(224.609 30.735)">
                <path id="Path_264" data-name="Path 264" d="M3795.139-869.808H3791.6c-.263,0-.475-.542-.475-1.21h0c0-.669.213-1.21.475-1.21h3.544c.262,0,.476.542.476,1.21h0C3795.615-870.35,3795.4-869.808,3795.139-869.808Z" transform="translate(-3791.121 872.229)" fill="#edf5fc"/>
                <path id="Path_265" data-name="Path 265" d="M3795.139-852.7H3791.6c-.263,0-.475-.542-.475-1.21h0c0-.669.213-1.211.475-1.211h3.544c.262,0,.476.542.476,1.211h0C3795.615-853.245,3795.4-852.7,3795.139-852.7Z" transform="translate(-3791.121 859.781)" fill="#edf5fc"/>
                <path id="Path_266" data-name="Path 266" d="M3795.139-835.593H3791.6c-.263,0-.475-.542-.475-1.211h0c0-.669.213-1.21.475-1.21h3.544c.262,0,.476.542.476,1.21h0C3795.615-836.136,3795.4-835.593,3795.139-835.593Z" transform="translate(-3791.121 847.329)" fill="#edf5fc"/>
              </g>
              <path id="Path_44518" data-name="Path 44518" d="M3370.6-195.338c.639-6.861,3.345-11.109,6.043-9.489s4.366,8.5,3.728,15.356-3.345,11.109-6.045,9.489S3369.961-188.477,3370.6-195.338Z" transform="translate(-3318.202 417.52)" fill="#aedced"/>
              <rect id="Rectangle_11" data-name="Rectangle 11" width="85.389" height="120.052" transform="translate(70.403 67.221)" fill="#fdfdff"/>
              <rect id="Rectangle_12" data-name="Rectangle 12" width="30.194" height="220.802" transform="translate(198.941 67.221)" fill="#fdfdff"/>
              <rect id="Rectangle_13" data-name="Rectangle 13" width="20.834" height="5.067" transform="translate(9.939 92.756)" fill="#aedced"/>
              <rect id="Rectangle_14" data-name="Rectangle 14" width="1.937" height="5.067" transform="translate(6.066 92.755)" fill="#aedced"/>
              <rect id="Rectangle_15" data-name="Rectangle 15" width="20.834" height="5.066" transform="translate(9.939 104.171)" fill="#aedced"/>
              <rect id="Rectangle_16" data-name="Rectangle 16" width="1.937" height="5.066" transform="translate(6.066 104.171)" fill="#aedced"/>
              <rect id="Rectangle_17" data-name="Rectangle 17" width="20.834" height="5.067" transform="translate(9.939 115.587)" fill="#aedced"/>
              <rect id="Rectangle_18" data-name="Rectangle 18" width="16.388" height="7.408" transform="translate(5.953 78.254)" fill="#aedced"/>
              <rect id="Rectangle_19" data-name="Rectangle 19" width="16.388" height="7.408" transform="translate(5.953 137.835)" fill="#aedced"/>
              <rect id="Rectangle_20" data-name="Rectangle 20" width="24.707" height="69.803" transform="translate(5.84 218.22)" fill="#aedced"/>
              <rect id="Rectangle_21" data-name="Rectangle 21" width="1.937" height="5.067" transform="translate(6.066 115.587)" fill="#aedced"/>
              <rect id="Rectangle_22" data-name="Rectangle 22" width="20.834" height="5.066" transform="translate(9.939 154.227)" fill="#aedced"/>
              <rect id="Rectangle_23" data-name="Rectangle 23" width="31.171" height="5.067" transform="translate(75.542 215.687)" fill="#aedced"/>
              <rect id="Rectangle_24" data-name="Rectangle 24" width="72.603" height="5.066" transform="translate(89.095 227.047)" fill="#aedced"/>
              <rect id="Rectangle_25" data-name="Rectangle 25" width="85.389" height="5.067" transform="translate(70.403 261.227)" fill="#aedced"/>
              <rect id="Rectangle_26" data-name="Rectangle 26" width="85.389" height="5.066" transform="translate(70.403 275.886)" fill="#aedced"/>
              <rect id="Rectangle_27" data-name="Rectangle 27" width="1.937" height="5.066" transform="translate(6.066 154.227)" fill="#aedced"/>
              <rect id="Rectangle_28" data-name="Rectangle 28" width="20.834" height="5.067" transform="translate(9.939 165.643)" fill="#aedced"/>
              <rect id="Rectangle_29" data-name="Rectangle 29" width="1.937" height="5.067" transform="translate(6.066 165.643)" fill="#aedced"/>
              <rect id="Rectangle_30" data-name="Rectangle 30" width="20.834" height="5.066" transform="translate(9.939 177.059)" fill="#aedced"/>
              <rect id="Rectangle_31" data-name="Rectangle 31" width="1.937" height="5.066" transform="translate(6.066 177.059)" fill="#aedced"/>
              <rect id="Rectangle_32" data-name="Rectangle 32" width="20.834" height="5.066" transform="translate(9.826 188.092)" fill="#aedced"/>
              <rect id="Rectangle_33" data-name="Rectangle 33" width="1.937" height="5.066" transform="translate(5.953 188.092)" fill="#aedced"/>
              <rect id="Rectangle_34" data-name="Rectangle 34" width="20.834" height="5.066" transform="translate(9.712 199.126)" fill="#aedced"/>
              <rect id="Rectangle_35" data-name="Rectangle 35" width="1.937" height="5.066" transform="translate(5.84 199.126)" fill="#aedced"/>
              <path id="Path_267" data-name="Path 267" d="M3710.518-584.018c0,3.845-1.225,6.963-2.739,6.963s-2.739-3.117-2.739-6.963,1.226-6.963,2.739-6.963S3710.518-587.864,3710.518-584.018Z" transform="translate(-3517.312 698.289)" fill="#aedced"/>
              <rect id="Rectangle_36" data-name="Rectangle 36" width="9.393" height="3.783" transform="translate(208.364 110.488)" fill="#aedced"/>
              <rect id="Rectangle_37" data-name="Rectangle 37" width="9.393" height="7.802" transform="translate(201.172 73.132)" fill="#aedced"/>
              <rect id="Rectangle_38" data-name="Rectangle 38" width="3.472" height="7.802" transform="translate(211.681 73.132)" fill="#aedced"/>
              <rect id="Rectangle_39" data-name="Rectangle 39" width="16.647" height="3.783" transform="translate(208.364 117.45)" fill="#aedced"/>
              <path id="Path_268" data-name="Path 268" d="M3710.4-449.212c0,3.845-1.225,6.963-2.739,6.963s-2.739-3.117-2.739-6.963,1.225-6.963,2.739-6.963S3710.4-453.056,3710.4-449.212Z" transform="translate(-3517.245 600.185)" fill="#aedced"/>
              <rect id="Rectangle_40" data-name="Rectangle 40" width="9.393" height="3.783" transform="translate(208.333 147.192)" fill="#aedced"/>
              <rect id="Rectangle_41" data-name="Rectangle 41" width="16.647" height="3.783" transform="translate(208.333 154.154)" fill="#aedced"/>
              <path id="Path_269" data-name="Path 269" d="M3710.287-314.4c0,3.845-1.225,6.963-2.739,6.963s-2.739-3.117-2.739-6.963,1.225-6.963,2.739-6.963S3710.287-318.242,3710.287-314.4Z" transform="translate(-3517.177 502.075)" fill="#aedced"/>
              <rect id="Rectangle_42" data-name="Rectangle 42" width="9.393" height="3.783" transform="translate(208.302 183.896)" fill="#aedced"/>
              <rect id="Rectangle_43" data-name="Rectangle 43" width="16.647" height="3.783" transform="translate(208.302 190.858)" fill="#aedced"/>
              <path id="Path_270" data-name="Path 270" d="M3710.172-179.584c0,3.845-1.225,6.963-2.739,6.963s-2.738-3.117-2.738-6.963,1.225-6.963,2.738-6.963S3710.172-183.43,3710.172-179.584Z" transform="translate(-3517.108 403.966)" fill="#aedced"/>
              <rect id="Rectangle_44" data-name="Rectangle 44" width="9.393" height="3.783" transform="translate(208.272 220.599)" fill="#aedced"/>
              <rect id="Rectangle_45" data-name="Rectangle 45" width="16.647" height="3.783" transform="translate(208.272 227.562)" fill="#aedced"/>
              <path id="Path_271" data-name="Path 271" d="M3710.06-44.771c0,3.846-1.225,6.963-2.739,6.963s-2.739-3.117-2.739-6.963,1.225-6.963,2.739-6.963S3710.06-48.617,3710.06-44.771Z" transform="translate(-3517.041 305.858)" fill="#aedced"/>
              <rect id="Rectangle_46" data-name="Rectangle 46" width="9.393" height="3.783" transform="translate(208.241 257.303)" fill="#aedced"/>
              <rect id="Rectangle_47" data-name="Rectangle 47" width="16.647" height="3.783" transform="translate(208.241 264.266)" fill="#aedced"/>
            </g>
            <g id="Group_69" data-name="Group 69" transform="translate(82.485 205.376)">
              <g id="Group_66" data-name="Group 66" transform="translate(0 0)">
                <g id="Group_65" data-name="Group 65">
                  <rect id="Rectangle_48" data-name="Rectangle 48" width="117.574" height="77.811" rx="2.22" fill="#289ad8"/>
                </g>
              </g>
              <g id="Group_68" data-name="Group 68" transform="translate(42.736 16.905)">
                <g id="Group_67" data-name="Group 67">
                  <path id="Path_272" data-name="Path 272" d="M3744.239-126.523l-33.3,19.226a2.773,2.773,0,0,1-3.788-1.014,2.771,2.771,0,0,1-.372-1.388v-38.452a2.773,2.773,0,0,1,2.772-2.774,2.774,2.774,0,0,1,1.387.372l33.3,19.226a2.774,2.774,0,0,1,1.016,3.789,2.778,2.778,0,0,1-1.016,1.015l-33.3,19.226a2.773,2.773,0,0,1-3.788-1.014,2.771,2.771,0,0,1-.372-1.388v-38.453a2.773,2.773,0,0,1,2.772-2.774,2.774,2.774,0,0,1,1.387.372l33.3,19.226a2.774,2.774,0,0,1,1.015,3.789A2.777,2.777,0,0,1,3744.239-126.523Z" transform="translate(-3706.779 150.925)" fill="#fff"/>
                </g>
              </g>
            </g>
            <g id="Group_70" data-name="Group 70" transform="translate(234.214 164.418)">
              <path id="Path_273" data-name="Path 273" d="M3852.2-624.454l4.889,0a1.792,1.792,0,0,0,1.791-1.792l0-6.236a1.792,1.792,0,0,0-1.794-1.79l-3.826,0a1.506,1.506,0,0,1-1.4-1q-.2-.536-.44-1.057a1.506,1.506,0,0,1,.28-1.7l2.706-2.707a1.792,1.792,0,0,0,0-2.534l-4.41-4.407a1.792,1.792,0,0,0-2.535,0l-2.725,2.728a1.481,1.481,0,0,1-1.632.313c-.389-.166-.81-.335-1.171-.476a1.473,1.473,0,0,1-.937-1.376v-3.865a1.792,1.792,0,0,0-1.792-1.792h-6.235a1.792,1.792,0,0,0-1.792,1.792v3.825a1.5,1.5,0,0,1-1,1.4q-.562.212-1.108.462a1.5,1.5,0,0,1-1.7-.275l-2.714-2.7a1.792,1.792,0,0,0-2.534.007l-4.4,4.422a1.792,1.792,0,0,0,.007,2.534l2.735,2.719a1.48,1.48,0,0,1,.316,1.632c-.165.389-.333.809-.473,1.172a1.473,1.473,0,0,1-1.375.94l-3.866.01a1.793,1.793,0,0,0-1.788,1.8l.016,6.235a1.792,1.792,0,0,0,1.8,1.788h0l3.828-.01a1.506,1.506,0,0,1,1.4,1q.2.535.442,1.056a1.506,1.506,0,0,1-.277,1.7l-2.7,2.713a1.792,1.792,0,0,0,0,2.534l4.418,4.4a1.792,1.792,0,0,0,2.534-.005l2.721-2.733a1.481,1.481,0,0,1,1.632-.316c.389.166.809.333,1.171.474a1.474,1.474,0,0,1,.939,1.376l.006,3.865a1.792,1.792,0,0,0,1.795,1.789l6.235-.01a1.792,1.792,0,0,0,1.789-1.8l-.006-3.827a1.508,1.508,0,0,1,1-1.4q.537-.2,1.056-.44a1.505,1.505,0,0,1,1.7.278l2.71,2.7a1.792,1.792,0,0,0,2.535,0l4.4-4.414a1.792,1.792,0,0,0,0-2.534l-2.73-2.724a1.479,1.479,0,0,1-.314-1.632C3851.771-623.279,3852.18-624.389,3852.2-624.454Zm-24.814-6.488a8.838,8.838,0,0,1,10.288-7.1,8.833,8.833,0,0,1,1.593.45,8.91,8.91,0,0,1,5.5,9.829,8.837,8.837,0,0,1-10.287,7.1,8.838,8.838,0,0,1-1.594-.45,8.911,8.911,0,0,1-5.5-9.83Z" transform="translate(-3813.269 652.149)" fill="#caecfc"/>
            </g>
            <g id="Group_71" data-name="Group 71" transform="translate(41.101 152.178)">
              <rect id="Rectangle_49" data-name="Rectangle 49" width="72.851" height="50.643" fill="#fdfdff"/>
              <rect id="Rectangle_50" data-name="Rectangle 50" width="61.986" height="38.656" transform="translate(5.432 4.865)" fill="#32aaeb"/>
              <path id="Path_274" data-name="Path 274" d="M3423.677-419.119l-9.536,13.769-.049,10.668h24.548Z" transform="translate(-3408.659 438.203)" fill="#4d5068"/>
              <path id="Path_275" data-name="Path 275" d="M3439.054-411.945l.857,1.416,1.511-2.182-3.877-6.409-4.4,6.346,1.357,2.244,1.04-1.5,1.662,2.748Z" transform="translate(-3422.529 438.204)" fill="#fff"/>
              <path id="Path_276" data-name="Path 276" d="M3492.034-377.776l7.252-10.809,9.986,16.123h-13.934Z" transform="translate(-3465.381 415.983)" fill="#4d5068"/>
              <path id="Path_277" data-name="Path 277" d="M3563.146-441.185a6.807,6.807,0,0,1-6.806,6.807,6.806,6.806,0,0,1-6.807-6.807,6.807,6.807,0,0,1,6.807-6.807h0A6.807,6.807,0,0,1,3563.146-441.185Z" transform="translate(-3507.225 459.216)" fill="#f9d30b"/>
              <path id="Path_278" data-name="Path 278" d="M3508.755-381.411l.858,1.416,1.511-2.182-3.966-6.409-4.307,6.346,1.357,2.244,1.04-1.5,1.661,2.748Z" transform="translate(-3473.253 415.983)" fill="#fff"/>
            </g>
            <g id="Group_75" data-name="Group 75" transform="translate(65.466 33.537)">
              <path id="Path_279" data-name="Path 279" d="M3508.01-912.79a12.192,12.192,0,0,1-12.191,12.191,12.191,12.191,0,0,1-12.191-12.191,12.19,12.19,0,0,1,12.191-12.191,12.191,12.191,0,0,1,12.191,12.19Z" transform="translate(-3483.628 924.981)" fill="#32aaeb"/>
              <g id="Group_72" data-name="Group 72" transform="translate(5.473 8.695)">
                <path id="Path_280" data-name="Path 280" d="M3508.059-890.171a.473.473,0,0,1-.474-.473h0a1.456,1.456,0,0,0-1.44-1.471,1.455,1.455,0,0,0-1.471,1.44v.031a.473.473,0,0,1-.473.473.473.473,0,0,1-.473-.473,2.4,2.4,0,0,1,2.4-2.4,2.4,2.4,0,0,1,2.4,2.4.473.473,0,0,1-.473.473Z" transform="translate(-3503.729 893.046)" fill="#4d5068"/>
              </g>
              <g id="Group_73" data-name="Group 73" transform="translate(14.107 8.694)">
                <path id="Path_281" data-name="Path 281" d="M3539.772-890.172a.472.472,0,0,1-.473-.47v0a1.456,1.456,0,0,0-1.44-1.471,1.455,1.455,0,0,0-1.471,1.44v.031a.473.473,0,0,1-.474.473.473.473,0,0,1-.473-.473,2.4,2.4,0,0,1,2.4-2.4,2.4,2.4,0,0,1,2.4,2.4h0a.473.473,0,0,1-.473.473Z" transform="translate(-3535.442 893.047)" fill="#4d5068"/>
              </g>
              <g id="Group_74" data-name="Group 74" transform="translate(6.741 15.343)">
                <path id="Path_282" data-name="Path 282" d="M3519.287-868.628a5.45,5.45,0,0,1-5.414,5.486,5.45,5.45,0,0,1-5.487-5.414c0-.024,0-.049,0-.072Z" transform="translate(-3508.386 868.628)" fill="#fff"/>
              </g>
              <path id="Path_283" data-name="Path 283" d="M3510.282-860.243a5.427,5.427,0,0,0,7.194,2.675,5.429,5.429,0,0,0,2.675-2.675Z" transform="translate(-3503.025 877.869)" fill="#ff5722"/>
            </g>
            <g id="Group_80" data-name="Group 80" transform="translate(101.411 73.104)">
              <circle id="Ellipse_7" data-name="Ellipse 7" cx="16.682" cy="16.682" r="16.682" fill="#ef3f54"/>
              <path id="Path_289" data-name="Path 289" d="M3662.666-737.7a2.764,2.764,0,0,0-1.958.81l-3.581-2.453a2.543,2.543,0,0,0,.022-1.688l3.625-2.363a2.861,2.861,0,0,0,4.045-.084,2.86,2.86,0,0,0-.084-4.045,2.861,2.861,0,0,0-4.045.084,2.861,2.861,0,0,0-.63,2.941l-3.576,2.331a2.775,2.775,0,0,0-3.924-.04,2.776,2.776,0,0,0-.04,3.924,2.775,2.775,0,0,0,3.908.056l3.606,2.469a2.765,2.765,0,0,0,1.817,3.463,2.765,2.765,0,0,0,3.463-1.817,2.765,2.765,0,0,0-1.817-3.463,2.758,2.758,0,0,0-.831-.125Z" transform="translate(-3641.906 756.847)" fill="#fff"/>
            </g>
            <g id="Group_84" data-name="Group 84" transform="translate(48.696 88.052)">
              <g id="Group_82" data-name="Group 82">
                <path id="Path_291" data-name="Path 291" d="M3441.53-715a9.749,9.749,0,0,1-9.748,9.749,9.748,9.748,0,0,1-9.749-9.748,9.748,9.748,0,0,1,9.749-9.749h0A9.748,9.748,0,0,1,3441.53-715Z" transform="translate(-3422.032 724.748)" fill="#393e87"/>
              </g>
              <g id="Group_83" data-name="Group 83" transform="translate(3.783 4.039)">
                <path id="Path_292" data-name="Path 292" d="M3445.429-698.611l-3.363-1.713a.222.222,0,0,0-.208,0l-3.319,1.8a.224.224,0,0,1-.3-.093.221.221,0,0,1-.023-.139l.589-3.728a.221.221,0,0,0-.066-.2l-2.737-2.6a.224.224,0,0,1-.009-.316.224.224,0,0,1,.127-.067l3.728-.591a.225.225,0,0,0,.167-.125l1.626-3.405a.224.224,0,0,1,.3-.106.222.222,0,0,1,.1.1l1.715,3.363a.224.224,0,0,0,.17.12l3.741.494a.224.224,0,0,1,.195.25.224.224,0,0,1-.064.131l-2.668,2.668a.229.229,0,0,0-.062.2l.687,3.711a.224.224,0,0,1-.178.262A.224.224,0,0,1,3445.429-698.611Z" transform="translate(-3435.929 709.911)" fill="#fff"/>
              </g>
            </g>
            <g id="Group_89" data-name="Group 89" transform="translate(80.849 125.994)">
              <circle id="Ellipse_9" data-name="Ellipse 9" cx="8.999" cy="8.999" r="8.999" fill="#f97e0b"/>
              <g id="Group_88" data-name="Group 88" transform="translate(4.682 5.353)">
                <path id="Path_295" data-name="Path 295" d="M3560.453-558.437l-3.126-3.126,1.786-1.786,1.341,1.34,3.719-3.721,1.787,1.786Z" transform="translate(-3557.326 565.73)" fill="#fff"/>
              </g>
            </g>
            <g id="Group_92" data-name="Group 92" transform="translate(127.051 28.79)">
              <circle id="Ellipse_11" data-name="Ellipse 11" cx="10.174" cy="10.174" r="10.174" fill="#4d5068"/>
              <path id="Path_297" data-name="Path 297" d="M3738.69-922.788v-1.565a3.578,3.578,0,0,0-3.552-3.6,3.577,3.577,0,0,0-3.6,3.551v1.617a4.521,4.521,0,0,0,.812,6.343,4.522,4.522,0,0,0,6.343-.812A4.523,4.523,0,0,0,3738.69-922.788Zm-2.773,4.308h-1.609l.16-1.458a.949.949,0,0,1-.05-1.341.949.949,0,0,1,1.341-.05.949.949,0,0,1,.05,1.341c-.016.017-.033.034-.05.05Zm1.634-5.355a4.5,4.5,0,0,0-4.874,0v-.517a2.438,2.438,0,0,1,2.486-2.388,2.437,2.437,0,0,1,2.388,2.388Z" transform="translate(-3724.938 931.893)" fill="#fff"/>
            </g>
            <g id="Group_95" data-name="Group 95" transform="translate(61.153 121.668)">
              <rect id="Rectangle_51" data-name="Rectangle 51" width="7.948" height="14.362" transform="translate(32.477 171.902)" fill="#ffcebd"/>
              <rect id="Rectangle_52" data-name="Rectangle 52" width="12.264" height="6.836" transform="matrix(0.691, -0.723, 0.723, 0.691, 6.145, 170.285)" fill="#ffcebd"/>
              <path id="Path_298" data-name="Path 298" d="M3699.978-133.461l-26.1,33.047,7.1,5.714,24.555-20.848Z" transform="translate(-3664.769 265.83)" fill="#232e4a"/>
              <path id="Path_299" data-name="Path 299" d="M3738.352-126.67l-6.331,25.106,15.829-13.987-5.559-17.915-4.137,5.237Z" transform="translate(-3707.081 265.833)" fill="#3b4766"/>
              <path id="Path_300" data-name="Path 300" d="M3749.852-303.714v49.287l-7.533,44.784h-9.42l1.776-40.924-3.784-29.8-4.876-8.671a12.425,12.425,0,0,1-1.485-7.749l.493-3.655Z" transform="translate(-3701.548 389.729)" fill="#232e4a"/>
              <path id="Path_301" data-name="Path 301" d="M3755.561,37.986v8.03h27.333V42.532a3.2,3.2,0,0,0-2.092-3l-13.2-4.247-1.854,2.7Z" transform="translate(-3724.211 143.027)" fill="url(#linear-gradient)"/>
              <rect id="Rectangle_53" data-name="Rectangle 53" width="27.334" height="2.47" transform="translate(31.349 186.572)" fill="#4d5068"/>
              <path id="Path_302" data-name="Path 302" d="M3647.83-12.081l-7.412,5.869,18.84,17.759h6.872v-2.2a2.124,2.124,0,0,0-2.124-2.124h-1.968l-3.707-12.354-5.058-.772Z" transform="translate(-3640.417 177.497)" fill="url(#linear-gradient-2)"/>
              <path id="Path_303" data-name="Path 303" d="M3660.492,20.326,3642.513,3.378l-2.1,1.661L3659.257,22.8h6.872V20.6a2.174,2.174,0,0,0-.027-.27Z" transform="translate(-3640.416 166.247)" fill="#4d5068"/>
              <path id="Path_304" data-name="Path 304" d="M3760.133-291.034c.581,3.68.281,7.453.825,11.138,1.033,7,5.071,13.513,4.753,20.579a53.508,53.508,0,0,1-1.043,6.723c-1.216,7.009-.812,14.191-1.4,21.28-.607,7.251-2.26,14.42-2.614,21.67h4.438l7.533-44.784v-49.287l-16.915,2.226A23.637,23.637,0,0,1,3760.133-291.034Z" transform="translate(-3724.317 389.729)" fill="#3b4766"/>
              <path id="Path_305" data-name="Path 305" d="M3700.985-440.474,3694.8-430a4.36,4.36,0,0,0,.8,5.423l10.234,9.436,5.211-6.613Z" transform="translate(-3679.556 489.255)" fill="#fff"/>
              <g id="Group_93" data-name="Group 93" transform="translate(58.62 0)">
                <path id="Path_306" data-name="Path 306" d="M3903.871-517.4l2.9,4.494-1.388.941-2.75-3.236Z" transform="translate(-3889.863 545.235)" fill="#f1f2f2"/>
                <path id="Path_307" data-name="Path 307" d="M3892.205-517.505l3.092,11.1a.311.311,0,0,1-.216.383h0l-4.989,1.389a.312.312,0,0,1-.385-.213v0l-3.091-11.1Z" transform="translate(-3878.204 545.314)" fill="#fc637d"/>
                <path id="Path_308" data-name="Path 308" d="M3861.313-541.685a4.435,4.435,0,0,1-5.436-3.13,4.435,4.435,0,0,1,3.056-5.415Z" transform="translate(-3855.724 569.129)" fill="#ef3f54"/>
                <path id="Path_309" data-name="Path 309" d="M3987.424-575.329a4.112,4.112,0,0,0,2.858-5.064,4.111,4.111,0,0,0-5.063-2.858Z" transform="translate(-3949.962 593.27)" fill="#fc637d"/>
                <rect id="Rectangle_54" data-name="Rectangle 54" width="11.53" height="11.529" transform="translate(2.076 17.703) rotate(-15.561)" fill="#fff"/>
                <rect id="Rectangle_55" data-name="Rectangle 55" width="11.53" height="5.761" transform="translate(3.624 23.259) rotate(-15.561)" fill="#d1e1f2"/>
                <rect id="Rectangle_56" data-name="Rectangle 56" width="2.084" height="27.868" transform="translate(32.591 0.559) rotate(-15.552)" fill="#fff"/>
                <rect id="Rectangle_57" data-name="Rectangle 57" width="8.457" height="1.435" transform="translate(6.756 28.367) rotate(-15.552)" fill="#ef3f54"/>
                <path id="Path_310" data-name="Path 310" d="M3890.193-509.5l-2.264.631.528,1.9,2.264-.63a.986.986,0,0,0,.7-1.206.986.986,0,0,0-1.206-.7l-.023.006Z" transform="translate(-3879.161 539.518)" fill="#ef3f54"/>
                <path id="Path_311" data-name="Path 311" d="M3893.5-497.638l-2.264.633.529,1.9,2.265-.63a.988.988,0,0,0,.687-1.217A.988.988,0,0,0,3893.5-497.638Z" transform="translate(-3881.565 530.882)" fill="#bf411a"/>
                <path id="Path_312" data-name="Path 312" d="M3896.8-485.784l-2.264.631.529,1.9,2.264-.634a.985.985,0,0,0,.7-1.2.986.986,0,0,0-1.2-.7Z" transform="translate(-3883.969 522.259)" fill="#bf411a"/>
                <path id="Path_313" data-name="Path 313" d="M3923.569-617.538l-19.408,14.052,1.5,5.389,21.645-6.027Z" transform="translate(-3890.974 618.112)" fill="#fc637d"/>
                <path id="Path_314" data-name="Path 314" d="M3909.673-562.243l1.591,5.717,23.788,1.67-3.736-13.414Z" transform="translate(-3894.985 582.257)" fill="#ef3f54"/>
              </g>
              <path id="Path_315" data-name="Path 315" d="M3789.457-535.472s-3,3.364-2.91,6.183v2.909h-8.181s1.61-13.043,0-14.092h5.546Z" transform="translate(-3740.808 562.028)" fill="#ffcebd"/>
              <path id="Path_316" data-name="Path 316" d="M3783.911-540.472h-.762l.255,3.176s.123,3.233.213,6.052l0,2.909h-5.033c-.12,1.179-.215,1.955-.215,1.955h8.181v-2.909c-.091-2.819,2.91-6.183,2.91-6.183Z" transform="translate(-3740.808 562.028)" fill="#a58877" opacity="0.3" style="isolation: isolate"/>
              <g id="Group_94" data-name="Group 94" transform="translate(38.829 8.14)">
                <path id="Path_317" data-name="Path 317" d="M3799.492-586.085a6.141,6.141,0,0,0-2.626-3.137,7.094,7.094,0,0,0-3.025-.521,11.284,11.284,0,0,0-4.068.475c-2.263.826-3.829,2.884-5.075,4.945a14.166,14.166,0,0,0-1.14,2.221,8.751,8.751,0,0,0,2.421,9.531,17.076,17.076,0,0,0,3.1,1.958,10.139,10.139,0,0,0,2.7,1.126,7.1,7.1,0,0,0,3.163-.171,6.231,6.231,0,0,0,2.658-1.294,6.675,6.675,0,0,0,1.717-2.924,11.1,11.1,0,0,0,.872-3.831c.006-.163,1.966-.327,1.97-.49.031-1.555-2.053-4.223-2.288-5.772C3799.764-584.68,3799.636-585.385,3799.492-586.085Z" transform="translate(-3783.033 589.748)" fill="#ffcebd"/>
              </g>
              <path id="Path_318" data-name="Path 318" d="M3768.2-594.5c0-.229,0-.458.01-.685a14.061,14.061,0,0,0,0-3.055c-.155-.878-.541-1.7-.733-2.572a10.872,10.872,0,0,1,.037-3.866,9.22,9.22,0,0,1,1.356-4.166,5.106,5.106,0,0,1,4.846-2.019,3.691,3.691,0,0,0,.9.1,3.23,3.23,0,0,0,.911-.284,13.586,13.586,0,0,1,7.2-.408,11.644,11.644,0,0,1,3.232.9c2.142,1.032,3.6,3.06,4.964,5.007a4.923,4.923,0,0,1,.848,1.6,1.666,1.666,0,0,1-.444,1.67,2.148,2.148,0,0,1-.805.366,4.726,4.726,0,0,1-2.525.117c-.479-.134-.921-.38-1.4-.523a6.9,6.9,0,0,0-2.708-.073,2.254,2.254,0,0,0-1.258.395,2.348,2.348,0,0,0-.485,1.984A11.3,11.3,0,0,1,3782-596.8a4.61,4.61,0,0,1-1.645,2.705,1.02,1.02,0,0,1-.454.216.821.821,0,0,1-.823-.655c-.2-.748.25-1.729.266-2.511.013-.708.094-1.328-.65-1.542a3.1,3.1,0,0,0-3.453,1.016c-.654,1.017-.4,2.359-.735,3.522a4.534,4.534,0,0,1-2.567,2.756,2.321,2.321,0,0,1-3.2-.92A4.675,4.675,0,0,1,3768.2-594.5Z" transform="translate(-3732.77 613.896)" fill="#0c0739"/>
              <path id="Path_319" data-name="Path 319" d="M3734.373-526.473s-.62.311-1.636.8a27,27,0,0,0-15.289,22.015,68.742,68.742,0,0,0-.161,8.074c.027.811,1.9,10.874,2,11.68.383,2.934-2.19,28.373-2.19,28.373,14.613-5.574,25.207,5.8,31.679,1.222l-1.9-49.014a26.593,26.593,0,0,0-1.2-7.018l-2.91-9.288Z" transform="translate(-3696.222 551.84)" fill="#f8ac53"/>
              <path id="Path_320" data-name="Path 320" d="M3757.364-507.813l13.788,12.512a1.766,1.766,0,0,0,2.495-.12l.025-.029,11.1-12.767-1.922-2.282a3.5,3.5,0,0,1-.815-2.472h0a3.2,3.2,0,0,1,2.1-2.807l.478-.173.214,1.913,2.272-.663,2.828-3.072h0a2.763,2.763,0,0,1,3.011-1.048l.76.218.729,1.04-.381,1.164.663,1.353-.3,1.87.228.567a3.33,3.33,0,0,1,.037,2.392l-.877,2.392a2.118,2.118,0,0,1-.831,1.043l-3.213,2.084-12.267,21.225a4.48,4.48,0,0,1-6.12,1.637q-.149-.086-.291-.183l-22.12-15.164a6.792,6.792,0,0,1-1.76-9.443,6.764,6.764,0,0,1,.62-.775h0A6.792,6.792,0,0,1,3757.364-507.813Z" transform="translate(-3717.259 546.35)" fill="#ffcebd"/>
              <path id="Path_321" data-name="Path 321" d="M3794.64-498.271l-.228-.568.063-.389a5.437,5.437,0,0,0-1.63,2.363c-.544,1.456-.753,3.059-1.593,4.366a13.974,13.974,0,0,1-2.076,2.258c-4.574,4.522-6.868,11.137-12,15.015-1.65,1.246-3.667,2.316-4.356,4.265a81.952,81.952,0,0,0-8.028-6.529,26.587,26.587,0,0,0-5.973-3.681c-1.714-.675-3.556-.989-5.246-1.721a11.81,11.81,0,0,1-6.659-8.949,6.8,6.8,0,0,0,2.045,9l22.12,15.164a4.479,4.479,0,0,0,6.227-1.162q.1-.142.184-.291l12.268-21.225,3.213-2.084a2.12,2.12,0,0,0,.831-1.043l.877-2.392A3.328,3.328,0,0,0,3794.64-498.271Z" transform="translate(-3717.257 532.012)" fill="#a58877" opacity="0.3" style="isolation: isolate"/>
              <path id="Path_322" data-name="Path 322" d="M3731.12-455.355c-.5-2.621-1.818-5.188-2.737-7.588a16.194,16.194,0,0,1-1.366-5.3c-.054-2.2.782-4.3,1.434-6.4s1.123-4.4.358-6.456c-.739-1.991-2.605-3.826-2.037-5.873.4-1.452,1.9-2.29,3.318-2.808.5-.181,1.062-.408,1.22-.911.272-.877-.861-1.445-1.568-2.032-1.2-1-1.361-2.751-1.393-4.311a88.1,88.1,0,0,1,.448-10.7c.346-3.36.417-6.933,1.33-10.2a8.535,8.535,0,0,1,2.475-4.348c.907-.762,2.1-1.276,2.956-2.046l-.646-.527-6.442,2.918a26.855,26.855,0,0,0-11.024,19.458,68.742,68.742,0,0,0-.161,8.074c.027.811,1.9,10.874,2,11.68.383,2.934-2.19,28.374-2.19,28.374A24.67,24.67,0,0,1,3731.12-455.355Z" transform="translate(-3696.222 550.663)" fill="#f2a347"/>
              <path id="Path_323" data-name="Path 323" d="M3784.113-483.3l-10.441,12.846a1.766,1.766,0,0,1-2.491.174l-.028-.025-13.788-12.512a6.792,6.792,0,0,0-9.546.413h0a6.792,6.792,0,0,0,.366,9.6,6.771,6.771,0,0,0,.775.619l22.12,15.164a4.479,4.479,0,0,0,6.227-1.162q.1-.142.183-.291l12.078-20.185Z" transform="translate(-3717.259 521.349)" fill="#f2a347"/>
              <path id="Path_324" data-name="Path 324" d="M3788.864-470.169c-4.367,4.51-6.677,10.9-11.69,14.689-1.65,1.246-3.667,2.316-4.356,4.265a81.9,81.9,0,0,0-8.028-6.529,26.578,26.578,0,0,0-5.973-3.681c-1.714-.675-3.556-.989-5.246-1.721a11.81,11.81,0,0,1-6.659-8.949,6.8,6.8,0,0,0,2.045,9l22.12,15.164a4.479,4.479,0,0,0,6.227-1.162q.1-.142.184-.291l12.078-20.185Z" transform="translate(-3717.257 512.267)" fill="#6c98e3" opacity="0.1" style="isolation: isolate"/>
              <path id="Path_325" data-name="Path 325" d="M3773.789-531.194l-1.013,2.921,12.3,15.088,1.987-8.344Z" transform="translate(-3736.74 555.276)" fill="#eb932c"/>
            </g>
            <g id="Group_107" data-name="Group 107" transform="translate(186.429 286.047)">
              <rect id="Rectangle_63" data-name="Rectangle 63" width="70.384" height="19.244" rx="1.793" transform="translate(0 0)" fill="#4d5068"/>
              <g id="Group_106" data-name="Group 106" transform="translate(2.894 8.682)">
                <path id="Path_363" data-name="Path 363" d="M3982.258,36.246h-42.77a.939.939,0,0,1,0-1.879h42.77a.939.939,0,1,1,0,1.879Z" transform="translate(-3938.549 -34.367)" fill="#f9d30b"/>
              </g>
              <rect id="Rectangle_64" data-name="Rectangle 64" width="1.879" height="19.243" transform="translate(50.035 0)" fill="#fff"/>
              <path id="Path_364" data-name="Path 364" d="M4145.038,26.356a4.289,4.289,0,1,1-4.289-4.289h0a4.289,4.289,0,0,1,4.289,4.289Z" transform="translate(-4079.682 -16.734)" fill="#fff"/>
            </g>
            <g id="Group_113" data-name="Group 113" transform="translate(152.737 49.561)">
              <circle id="Ellipse_14" data-name="Ellipse 14" cx="14.508" cy="14.508" r="14.508" fill="#393e87"/>
              <g id="Group_112" data-name="Group 112" transform="translate(8.897 5.97)">
                <g id="Group_109" data-name="Group 109" transform="translate(0 1.41)">
                  <g id="Group_108" data-name="Group 108">
                    <path id="Path_365" data-name="Path 365" d="M3990.686-935.357H3985.8a2.041,2.041,0,0,1-2.037-2.037v-1.043h2.9v.182h4.021a1.4,1.4,0,0,0,1.4-1.4.913.913,0,0,0-.911-.913h-3.6a3.817,3.817,0,0,1-3.812-3.812v-.523a4.306,4.306,0,0,1,4.3-4.3h4.883a2.042,2.042,0,0,1,2.037,2.037v1.185h-2.9v-.323h-4.02a1.4,1.4,0,0,0-1.4,1.4v.523a.913.913,0,0,0,.911.913h3.6a3.816,3.816,0,0,1,3.812,3.812A4.306,4.306,0,0,1,3990.686-935.357Z" transform="translate(-3983.765 949.207)" fill="#f6f6f7"/>
                  </g>
                </g>
                <g id="Group_111" data-name="Group 111" transform="translate(4.161)">
                  <g id="Group_110" data-name="Group 110">
                    <rect id="Rectangle_65" data-name="Rectangle 65" width="2.9" height="17.074" fill="#f6f6f7"/>
                  </g>
                </g>
              </g>
            </g>
            <g id="Group_115" data-name="Group 115" transform="translate(101.945)">
              <circle id="Ellipse_15" data-name="Ellipse 15" cx="9.297" cy="9.297" r="9.297" fill="#32aaeb"/>
              <g id="Group_114" data-name="Group 114" transform="translate(4.777 4.778)">
                <path id="Path_366" data-name="Path 366" d="M3642.436-1024.335q.306,0,.54-.488a2.849,2.849,0,0,0,.232-1.228,3.882,3.882,0,0,0-.92-2.654,3.115,3.115,0,0,0-2.467-1.051,3.461,3.461,0,0,0-2.6,1.1,3.685,3.685,0,0,0-1.057,2.643,3.53,3.53,0,0,0,.994,2.563,3.294,3.294,0,0,0,2.46,1.022,2.835,2.835,0,0,0,2.023-.84l.466.807a3.476,3.476,0,0,1-1.159.642,4.087,4.087,0,0,1-1.33.245,4.333,4.333,0,0,1-3.177-1.267,4.28,4.28,0,0,1-1.279-3.171,4.6,4.6,0,0,1,4.592-4.6,4.267,4.267,0,0,1,3.172,1.3,4.425,4.425,0,0,1,1.273,3.228,3.5,3.5,0,0,1-.518,2.006,1.579,1.579,0,0,1-1.359.756,1.311,1.311,0,0,1-.79-.261,1.349,1.349,0,0,1-.494-.66,1.924,1.924,0,0,1-1.586.807,2.261,2.261,0,0,1-1.671-.727,2.535,2.535,0,0,1-.711-1.847,2.842,2.842,0,0,1,.643-1.887,2.092,2.092,0,0,1,1.688-.766,1.513,1.513,0,0,1,.669.153,1.527,1.527,0,0,1,.456.3l.148.148v-.467h1.421v3.626Q3642.095-1024.335,3642.436-1024.335Zm-1.75-1.715a1.454,1.454,0,0,0-.3-.943.965.965,0,0,0-.79-.375.934.934,0,0,0-.778.375,1.466,1.466,0,0,0-.29.926,1.615,1.615,0,0,0,.29.96.918.918,0,0,0,.789.408.929.929,0,0,0,.79-.393,1.569,1.569,0,0,0,.291-.96Z" transform="translate(-3635.159 1030.61)" fill="#fff"/>
              </g>
            </g>
            <g id="Group_120" data-name="Group 120" transform="translate(191.012 75.546)">
              <circle id="Ellipse_17" data-name="Ellipse 17" cx="8.839" cy="8.839" r="8.839" fill="#4d5068"/>
              <path id="Path_369" data-name="Path 369" d="M3968.979-755.532a3.083,3.083,0,0,0-3.083,3.083c0,1.7,3.083,6.344,3.083,6.344s3.083-4.642,3.083-6.344a3.083,3.083,0,0,0-3.083-3.083Zm0,4.383a1.3,1.3,0,0,1-1.3-1.3,1.3,1.3,0,0,1,1.3-1.3,1.3,1.3,0,0,1,1.3,1.3h0a1.3,1.3,0,0,1-1.3,1.3Z" transform="translate(-3960.14 759.657)" fill="#ff5722"/>
            </g>
            <g id="Group_121" data-name="Group 121" transform="translate(269.055 277.308)">
              <path id="Path_370" data-name="Path 370" d="M4283.506-29.62v13.529l.008.007,9.546,9.572a13.49,13.49,0,0,0,3.974-9.539c0-.013,0-.027,0-.039A13.529,13.529,0,0,0,4283.506-29.62Z" transform="translate(-4269.32 29.62)" fill="#32aaeb"/>
              <path id="Path_371" data-name="Path 371" d="M4235.381-25.669a13.482,13.482,0,0,0-3.975,9.553l13.529.033V-29.62A13.487,13.487,0,0,0,4235.381-25.669Z" transform="translate(-4231.404 29.62)" fill="#f9d30b"/>
              <path id="Path_372" data-name="Path 372" d="M4244.937,22.426h-.006l-13.528-.033c0,.008,0,.017,0,.026A13.529,13.529,0,0,0,4254.484,32Z" transform="translate(-4231.401 -8.232)" fill="#11284f"/>
            </g>
            <g id="Group_129" data-name="Group 129" transform="translate(20.629 283.562)">
              <g id="Group_127" data-name="Group 127" transform="translate(0 0)">
                <g id="Group_122" data-name="Group 122" transform="translate(0 0)">
                  <path id="Path_373" data-name="Path 373" d="M3330.338,16.141a11.395,11.395,0,1,1,11.395-11.395A11.395,11.395,0,0,1,3330.338,16.141Zm0-20.79a9.4,9.4,0,1,0,9.4,9.4h0a9.4,9.4,0,0,0-9.4-9.4Z" transform="translate(-3318.943 6.649)" fill="#caecfc"/>
                </g>
                <g id="Group_123" data-name="Group 123" transform="translate(24.814 0)">
                  <path id="Path_374" data-name="Path 374" d="M3421.479,16.141a11.395,11.395,0,1,1,11.395-11.4h0A11.408,11.408,0,0,1,3421.479,16.141Zm0-20.79a9.4,9.4,0,1,0,9.393,9.4v0a9.406,9.406,0,0,0-9.393-9.4Z" transform="translate(-3410.083 6.649)" fill="#caecfc"/>
                </g>
                <g id="Group_124" data-name="Group 124" transform="translate(49.628 0)">
                  <path id="Path_375" data-name="Path 375" d="M3512.619,16.141a11.395,11.395,0,1,1,11.4-11.395A11.4,11.4,0,0,1,3512.619,16.141Zm0-20.79a9.4,9.4,0,1,0,9.4,9.4h0a9.4,9.4,0,0,0-9.4-9.4Z" transform="translate(-3501.224 6.649)" fill="#caecfc"/>
                </g>
                <g id="Group_125" data-name="Group 125" transform="translate(0.002 0.005)">
                  <path id="Path_376" data-name="Path 376" d="M3330.344,16.153a11.4,11.4,0,0,1-4.435-21.894,11.473,11.473,0,0,1,8.871,0A11.343,11.343,0,0,1,3338.4-3.3l-1.414,1.414a9.408,9.408,0,1,0,2.752,6.644h2a11.387,11.387,0,0,1-11.38,11.395h-.015Z" transform="translate(-3318.952 6.633)" fill="#4d5068"/>
                </g>
                <g id="Group_126" data-name="Group 126" transform="translate(24.814)">
                  <path id="Path_377" data-name="Path 377" d="M3421.479,16.14a11.4,11.4,0,0,1,0-22.79h0v2a9.4,9.4,0,0,0-3.658,18.051,9.461,9.461,0,0,0,7.313,0,9.386,9.386,0,0,0,5.739-8.658h2a11.39,11.39,0,0,1-11.386,11.395h-.008Z" transform="translate(-3410.084 6.65)" fill="#32aaeb"/>
                </g>
              </g>
              <g id="Group_128" data-name="Group 128" transform="translate(50.524 0.005)">
                <path id="Path_378" data-name="Path 378" d="M3519.448,15.257l-.779-1.842A9.4,9.4,0,1,0,3506.356,1.1l-1.842-.779a11.422,11.422,0,0,1,6.064-6.062,11.474,11.474,0,0,1,8.871,0,11.4,11.4,0,0,1,0,21Z" transform="translate(-3504.514 6.632)" fill="#b5d73c"/>
              </g>
            </g>
          </g>
        </g>
        <g id="Group_158-2" data-name="Group 158-2" transform="translate(203.825 101.124)">
          <rect id="Rectangle_124-2" data-name="Rectangle 124-2" width="79.468" height="49.355" rx="10.454" transform="translate(0 8.984)" fill="#e8f5f9"/>
          <path id="Path_482-2" data-name="Path 482-2" d="M4149.144-948.535H4082.91c-3.655,0-6.618,2.108-6.618,4.71v5.364h79.469v-5.364C4155.761-946.427,4152.8-948.535,4149.144-948.535Z" transform="translate(-4076.292 948.535)" fill="#8dc63f"/>
          <path id="Path_483-2" data-name="Path 483-2" d="M4098.209-932.343a.862.862,0,0,1-.862.862.863.863,0,0,1-.863-.863.863.863,0,0,1,.863-.862.862.862,0,0,1,.862.862Z" transform="translate(-4090.986 937.38)" fill="#fff"/>
          <path id="Path_484-2" data-name="Path 484-2" d="M4111.972-932.343a.862.862,0,0,1-.863.862.863.863,0,0,1-.862-.863.863.863,0,0,1,.863-.862.862.862,0,0,1,.862.862Z" transform="translate(-4101.002 937.38)" fill="#fff"/>
          <path id="Path_485-2" data-name="Path 485-2" d="M4111.972-932.343a.862.862,0,0,1-.863.862.863.863,0,0,1-.862-.863.863.863,0,0,1,.863-.862.862.862,0,0,1,.862.862Z" transform="translate(-4101.002 937.38)" fill="#fff"/>
          <path id="Path_486-2" data-name="Path 486-2" d="M4125.741-932.343a.862.862,0,0,1-.863.862.862.862,0,0,1-.862-.863.863.863,0,0,1,.863-.862.862.862,0,0,1,.862.863Z" transform="translate(-4111.023 937.38)" fill="#fff"/>
          <circle id="Ellipse_19-2" data-name="Ellipse 19-2" cx="6.747" cy="6.747" r="6.747" transform="translate(4.224 16.528)" fill="#aedced"/>
          <rect id="Rectangle_125-2" data-name="Rectangle 125-2" width="30.892" height="1.817" transform="translate(21.351 19.64)" fill="#aedced"/>
          <rect id="Rectangle_126-2" data-name="Rectangle 126-2" width="30.892" height="1.817" transform="translate(21.351 24.931)" fill="#aedced"/>
          <rect id="Rectangle_127-2" data-name="Rectangle 127-2" width="11.584" height="1.817" transform="translate(21.351 30.222)" fill="#aedced"/>
        </g>
      </g>
      <g id="Group_13013" data-name="Group 13013" transform="translate(158.965 111.698)">
        <ellipse id="Ellipse_1426" data-name="Ellipse 1426" cx="34.5" cy="34" rx="34.5" ry="34" transform="translate(0.035 0.434)" fill="#1e91cc"/>
        <g id="Group_13012" data-name="Group 13012" transform="translate(16.818 14.627)">
          <path id="Path_44712" data-name="Path 44712" d="M65.469,46.465v14.2H57.237V47.417c0-3.326-1.189-5.6-4.169-5.6a4.5,4.5,0,0,0-4.223,3.01,5.635,5.635,0,0,0-.273,2.006V60.664H40.339s.111-22.437,0-24.76h8.234v3.509c-.017.028-.04.055-.055.081h.055v-.081a8.174,8.174,0,0,1,7.42-4.09c5.416,0,9.477,3.539,9.477,11.142Zm-33.742-22.5c-2.816,0-4.659,1.849-4.659,4.277a4.264,4.264,0,0,0,4.551,4.279h.053c2.871,0,4.657-1.9,4.657-4.279a4.277,4.277,0,0,0-4.6-4.277Zm-4.169,36.7h8.23V35.9h-8.23Z" transform="translate(-27.068 -23.969)" fill="#f1f2f2"/>
        </g>
      </g>
    </g>
  </g>
</svg>
