<svg xmlns="http://www.w3.org/2000/svg" width="36.983" height="36.983" viewBox="0 0 36.983 36.983"><g transform="translate(0 0)"><path d="M36.939,2.761A2.875,2.875,0,0,0,34.222.044,28.548,28.548,0,0,0,19.91,2.908a28.1,28.1,0,0,0-8.2,6.8l-.087.106L6.2,10.236a2.859,2.859,0,0,0-2.179,1.282L.329,17.106a1.98,1.98,0,0,0,1.349,3.049l4.563.707c-.016.089-.032.177-.047.266A2.873,2.873,0,0,0,7,23.627l6.356,6.356a2.88,2.88,0,0,0,2.033.844,2.832,2.832,0,0,0,.466-.039l.266-.047.707,4.563a1.979,1.979,0,0,0,3.049,1.349l5.589-3.7a2.859,2.859,0,0,0,1.282-2.179l.418-5.416.106-.087a28.094,28.094,0,0,0,6.8-8.2A28.55,28.55,0,0,0,36.939,2.761ZM24.27,31.151l-5.346,3.535-.689-4.447a24.272,24.272,0,0,0,6.624-3.154l-.273,3.528a.706.706,0,0,1-.317.538Zm-9.383-2.7L8.532,22.1a.7.7,0,0,1-.2-.61,18.639,18.639,0,0,1,.846-3.219L18.714,27.8a18.718,18.718,0,0,1-3.217.848.7.7,0,0,1-.61-.2ZM6.37,12.4,9.9,12.124a24.27,24.27,0,0,0-3.154,6.624L2.3,18.059l3.535-5.346A.706.706,0,0,1,6.37,12.4ZM25.884,23.613a24.842,24.842,0,0,1-5.016,3.28L10.089,16.114A25.272,25.272,0,0,1,13.37,11.1a25.858,25.858,0,0,1,7.536-6.267A26.356,26.356,0,0,1,34.1,2.207a.711.711,0,0,1,.672.672,26.354,26.354,0,0,1-2.626,13.2,25.857,25.857,0,0,1-6.266,7.536Z" transform="translate(0 0)" fill="#fff"/><path d="M281.14,97.148a5.413,5.413,0,1,0-3.831-1.584,5.4,5.4,0,0,0,3.831,1.584Zm-2.3-7.713a3.25,3.25,0,1,1-.952,2.3A3.24,3.24,0,0,1,278.842,89.435Z" transform="translate(-255.807 -80.083)" fill="#fff"/><path d="M1.385,348.669a1.08,1.08,0,0,0,.766-.317l3.537-3.537a1.083,1.083,0,0,0-1.532-1.532L.619,346.819a1.084,1.084,0,0,0,.766,1.85Z" transform="translate(-0.28 -318.191)" fill="#fff"/><path d="M8.651,388.163a1.083,1.083,0,0,0-1.532,0l-6.8,6.8A1.083,1.083,0,1,0,1.85,396.5l6.8-6.8a1.083,1.083,0,0,0,0-1.532Z" transform="translate(-0.001 -359.83)" fill="#fff"/><path d="M93.917,433.044l-3.537,3.537a1.083,1.083,0,1,0,1.532,1.532l3.537-3.537a1.083,1.083,0,1,0-1.532-1.532Z" transform="translate(-83.557 -401.47)" fill="#fff"/></g></svg>