<svg xmlns="http://www.w3.org/2000/svg" width="43.896" height="36.866" viewBox="0 0 43.896 36.866"><g transform="translate(0 -41)"><path d="M40.038,41H3.858A3.862,3.862,0,0,0,0,44.858v29.15a3.862,3.862,0,0,0,3.858,3.858h36.18A3.862,3.862,0,0,0,43.9,74.008V44.858A3.862,3.862,0,0,0,40.038,41ZM3.858,43.572h36.18a1.287,1.287,0,0,1,1.286,1.286v7.116H2.572V44.858A1.287,1.287,0,0,1,3.858,43.572Zm36.18,31.722H30.779v-7.63a1.286,1.286,0,0,0-2.572,0v7.63H23.234V70.407a1.286,1.286,0,0,0-2.572,0v4.887H15.69V72.465a1.286,1.286,0,1,0-2.572,0v2.829H4.285l5.962-6.434,7.8-1.3a1.286,1.286,0,0,0,.971-.762l1.724-4.022h6.011a1.285,1.285,0,0,0,.407-.066l2.456-.819a1.285,1.285,0,0,0,2.076,1.272L35.8,59.735a1.286,1.286,0,0,0-.823-2.274H29.493a1.285,1.285,0,0,0-1,2.093l-1.952.651h-6.65a1.286,1.286,0,0,0-1.182.779l-1.781,4.155L9.391,66.4a1.286,1.286,0,0,0-.732.394L2.572,73.358V54.546H41.324V74.008a1.287,1.287,0,0,1-1.286,1.286Z" transform="translate(0 0)" fill="#fff"/><circle cx="1.286" cy="1.286" r="1.286" transform="translate(16.636 46.487)" fill="#fff"/><circle cx="1.286" cy="1.286" r="1.286" transform="translate(11.149 46.487)" fill="#fff"/><circle cx="1.286" cy="1.286" r="1.286" transform="translate(5.662 46.487)" fill="#fff"/></g></svg>