<svg xmlns="http://www.w3.org/2000/svg" width="37.121" height="39.678" viewBox="0 0 37.121 39.678"><g transform="translate(-16.5)"><path d="M87.862,145h-6.2a1.162,1.162,0,0,0,0,2.325h6.2a1.162,1.162,0,0,0,0-2.325Z" transform="translate(-59.04 -133.763)" fill="#fff"/><path d="M87.862,225h-6.2a1.162,1.162,0,1,0,0,2.325h6.2a1.162,1.162,0,0,0,0-2.325Z" transform="translate(-59.04 -207.563)" fill="#fff"/><path d="M87.862,305h-6.2a1.162,1.162,0,0,0,0,2.325h6.2a1.162,1.162,0,0,0,0-2.325Z" transform="translate(-59.04 -281.364)" fill="#fff"/><path d="M45.484,21.306V10.693A5.779,5.779,0,0,0,43.82,6.622L39.1,1.745,39.1,1.738A5.85,5.85,0,0,0,34.951,0H19.987A3.491,3.491,0,0,0,16.5,3.487V33.633a3.491,3.491,0,0,0,3.487,3.487H37.954a9.241,9.241,0,1,0,7.53-15.815ZM18.825,33.633V3.487a1.164,1.164,0,0,1,1.162-1.162H34.951a3.511,3.511,0,0,1,2.485,1.04l4.716,4.877.007.007a3.467,3.467,0,0,1,1,2.445V21.307A9.219,9.219,0,0,0,36.186,34.8h-16.2a1.164,1.164,0,0,1-1.162-1.163Zm25.5,3.72a6.9,6.9,0,1,1,6.975-6.9A6.9,6.9,0,0,1,44.321,37.353Z" fill="#fff"/><path d="M335.744,354.271a1.163,1.163,0,0,0-1.637.149l-1.962,2.354-.445-.89a1.162,1.162,0,0,0-2.079,1.04l1.24,2.48a1.163,1.163,0,0,0,.906.635,1.18,1.18,0,0,0,.134.008,1.163,1.163,0,0,0,.893-.418l3.1-3.72a1.163,1.163,0,0,0-.149-1.637Z" transform="translate(-288.741 -326.568)" fill="#fff"/><path d="M241.662,147.325h1.24a1.162,1.162,0,0,0,0-2.325h-1.24a1.162,1.162,0,0,0,0,2.325Z" transform="translate(-206.641 -133.763)" fill="#fff"/><path d="M244.065,226.162A1.162,1.162,0,0,0,242.9,225h-1.24a1.162,1.162,0,0,0,0,2.325h1.24A1.162,1.162,0,0,0,244.065,226.162Z" transform="translate(-206.641 -207.563)" fill="#fff"/></g></svg>