<svg xmlns="http://www.w3.org/2000/svg" width="43.561" height="43.561" viewBox="0 0 43.561 43.561"><path d="M39.732,0H3.829A3.833,3.833,0,0,0,0,3.829v.425a3.834,3.834,0,0,0,2.449,3.57,3.806,3.806,0,0,0-.322,1.534v19.4a3.833,3.833,0,0,0,3.829,3.829H20.5v3.188a4,4,0,1,0,2.552,0V32.585H37.605a3.833,3.833,0,0,0,3.829-3.829V9.359a3.806,3.806,0,0,0-.322-1.534,3.834,3.834,0,0,0,2.449-3.57V3.829A3.833,3.833,0,0,0,39.732,0ZM21.78,41.008a1.446,1.446,0,1,1,1.446-1.446A1.448,1.448,0,0,1,21.78,41.008ZM2.552,3.829A1.278,1.278,0,0,1,3.829,2.552h35.9a1.278,1.278,0,0,1,1.276,1.276v.425A1.278,1.278,0,0,1,39.732,5.53H3.829A1.278,1.278,0,0,1,2.552,4.254ZM38.881,28.757a1.278,1.278,0,0,1-1.276,1.276H5.956a1.278,1.278,0,0,1-1.276-1.276V9.359A1.278,1.278,0,0,1,5.956,8.083H37.605a1.278,1.278,0,0,1,1.276,1.276Z" fill="#fff"/><path d="M95.721,161a6.721,6.721,0,1,0,6.721,6.721A6.729,6.729,0,0,0,95.721,161Zm3.968,5.445H97v-2.692A4.187,4.187,0,0,1,99.69,166.445Zm-3.968,5.445a4.169,4.169,0,0,1-1.276-8.137v3.968A1.276,1.276,0,0,0,95.721,169H99.69A4.176,4.176,0,0,1,95.721,171.89Z" transform="translate(-81.428 -147.302)" fill="#fff"/><path d="M328.88,135.525l-.065-.049a4,4,0,1,0-6.27,0A3.762,3.762,0,0,0,321,138.444v5.445a1.276,1.276,0,0,0,1.276,1.276h6.806a1.276,1.276,0,0,0,1.276-1.276v-5.445A3.764,3.764,0,0,0,328.88,135.525ZM324.233,133a1.446,1.446,0,1,1,1.446,1.446A1.448,1.448,0,0,1,324.233,133Zm3.573,9.614h-4.254v-4.169c0-.77.994-1.446,2.127-1.446a2.606,2.606,0,0,1,1.606.52,1.257,1.257,0,0,1,.521.926Z" transform="translate(-293.69 -118.025)" fill="#fff"/></svg>