<svg xmlns="http://www.w3.org/2000/svg" width="31.837" height="33.221" viewBox="0 0 31.837 33.221"><g transform="translate(-10.667)"><g transform="translate(10.667)"><path d="M34.2,0H12.051a1.308,1.308,0,0,0-1.384,1.384V31.837a1.308,1.308,0,0,0,1.384,1.384H25.893V30.453H13.435V2.768H32.814V15.226h2.768V1.384A1.308,1.308,0,0,0,34.2,0Z" transform="translate(-10.667)" fill="#fff"/></g><g transform="translate(16.204 5.537)"><circle cx="1.384" cy="1.384" r="1.384" fill="#fff"/></g><g transform="translate(16.204 12.458)"><circle cx="1.384" cy="1.384" r="1.384" fill="#fff"/></g><g transform="translate(16.204 19.379)"><circle cx="1.384" cy="1.384" r="1.384" fill="#fff"/></g><g transform="translate(20.356 5.537)"><rect width="9.689" height="2.768" fill="#fff"/></g><g transform="translate(20.356 12.458)"><rect width="6.921" height="2.768" fill="#fff"/></g><g transform="translate(20.356 19.379)"><rect width="4.153" height="2.768" fill="#fff"/></g><g transform="translate(25.913 16.63)"><path d="M259.454,264.584a5.537,5.537,0,1,1-5.537-5.537,6.269,6.269,0,0,1,2.215.415l1.107-2.492a8.306,8.306,0,1,0,4.291,10.935,9.515,9.515,0,0,0,.692-3.322Z" transform="translate(-245.631 -256.298)" fill="#fff"/></g><g transform="translate(30.461 19.794)"><path d="M324.038,305.067l-4.568,4.568-1.8-1.8-1.938,1.938,2.768,2.768a1.338,1.338,0,0,0,1.938,0L325.976,307Z" transform="translate(-315.733 -305.067)" fill="#fff"/></g></g></svg>