<svg xmlns="http://www.w3.org/2000/svg" width="212.301" height="158.038" viewBox="0 0 212.301 158.038">
  <g id="Group_14183" data-name="Group 14183" transform="translate(-16482 -1155)">
    <g id="Group_14182" data-name="Group 14182" transform="translate(16466.34 1077.908)">
      <path id="Path_45623" data-name="Path 45623" d="M220.759,110.257H95.7l2.085-2.085a3.352,3.352,0,0,0,0-4.738l-7.259-7.259a3.352,3.352,0,0,0-4.738,0l-3.712,3.71a29.123,29.123,0,0,0-5.319-2.207V92.434a3.354,3.354,0,0,0-3.351-3.35H63.134a3.353,3.353,0,0,0-3.35,3.35v5.245a28.914,28.914,0,0,0-5.321,2.207l-3.71-3.71a3.356,3.356,0,0,0-4.738,0l-7.259,7.259a3.348,3.348,0,0,0,0,4.738l3.71,3.712a29.014,29.014,0,0,0-2.2,5.319H35.014a3.353,3.353,0,0,0-3.35,3.35v10.268a3.353,3.353,0,0,0,3.35,3.35h5.245a28.963,28.963,0,0,0,2.2,5.319l-3.708,3.71a3.35,3.35,0,0,0,0,4.74l7.259,7.259a3.356,3.356,0,0,0,4.738,0l2.092-2.092v72.582a16.154,16.154,0,0,0,16.137,16.137H220.76A16.155,16.155,0,0,0,236.9,225.689v-99.3A16.158,16.158,0,0,0,220.759,110.257Z" transform="translate(-8.936 -6.696)" fill="#66b5f0"/>
      <path id="Path_45624" data-name="Path 45624" d="M80.952,156.22a10.7,10.7,0,0,0,12-2.362,9.949,9.949,0,0,0,1.9-2.987,10.385,10.385,0,1,0-13.9,5.349Z" transform="translate(-33.091 -33.105)" fill="#0089ef"/>
      <path id="Path_45625" data-name="Path 45625" d="M233.765,125.024H106.205l-.473.473a1.571,1.571,0,0,0-.279,1.859,27.38,27.38,0,0,1,2.184,5.266,1.572,1.572,0,0,0,1.51,1.115h5.383a1.584,1.584,0,0,1,1.585,1.585V145.59a1.584,1.584,0,0,1-1.585,1.585h-5.383a1.57,1.57,0,0,0-1.51,1.115,27.379,27.379,0,0,1-2.184,5.266,1.572,1.572,0,0,0,.279,1.859l3.809,3.809a1.584,1.584,0,0,1,0,2.24l-7.259,7.259a1.585,1.585,0,0,1-2.24,0l-3.809-3.809a1.571,1.571,0,0,0-1.859-.279,27.379,27.379,0,0,1-5.266,2.184,1.572,1.572,0,0,0-1.115,1.51v5.383a1.584,1.584,0,0,1-1.585,1.585H76.14a1.584,1.584,0,0,1-1.585-1.585v-5.383a1.57,1.57,0,0,0-1.115-1.51,27.379,27.379,0,0,1-5.266-2.184,1.543,1.543,0,0,0-.558-.166v74.226a14.371,14.371,0,0,0,14.37,14.37H233.765a14.371,14.371,0,0,0,14.37-14.37v-99.3a14.37,14.37,0,0,0-14.37-14.37Z" transform="translate(-29.009 -26.762)" fill="#fff"/>
      <path id="Path_45626" data-name="Path 45626" d="M281.36,125.024H153.8l-.473.473a1.571,1.571,0,0,0-.279,1.859,27.216,27.216,0,0,1,1.367,2.968H281.362a14.371,14.371,0,0,1,14.37,14.37v-5.3A14.372,14.372,0,0,0,281.36,125.024Z" transform="translate(-76.604 -26.762)" fill="#fff"/>
      <path id="Path_45627" data-name="Path 45627" d="M110.9,269.972h142.29v14.034H110.9Z" transform="translate(-53.174 -107.692)" fill="#fff"/>
      <path id="Path_45628" data-name="Path 45628" d="M89.337,121.05V110.782a1.584,1.584,0,0,0-1.585-1.585H82.369a1.57,1.57,0,0,1-1.51-1.115,27.381,27.381,0,0,0-2.184-5.266,1.572,1.572,0,0,1,.279-1.859l3.809-3.809a1.584,1.584,0,0,0,0-2.24L75.5,87.65a1.584,1.584,0,0,0-2.24,0l-3.809,3.809a1.574,1.574,0,0,1-1.859.279,27.382,27.382,0,0,0-5.266-2.184,1.572,1.572,0,0,1-1.115-1.51V82.661a1.584,1.584,0,0,0-1.585-1.585H49.363a1.584,1.584,0,0,0-1.585,1.585v5.383a1.57,1.57,0,0,1-1.115,1.51A27.382,27.382,0,0,0,41.4,91.738a1.572,1.572,0,0,1-1.859-.279L35.73,87.65a1.584,1.584,0,0,0-2.24,0L26.23,94.909a1.584,1.584,0,0,0,0,2.24l3.809,3.809a1.574,1.574,0,0,1,.279,1.859,27.381,27.381,0,0,0-2.184,5.266,1.572,1.572,0,0,1-1.51,1.115H21.245a1.584,1.584,0,0,0-1.585,1.585V121.05a1.584,1.584,0,0,0,1.585,1.585h5.383a1.57,1.57,0,0,1,1.51,1.115,27.381,27.381,0,0,0,2.184,5.266,1.572,1.572,0,0,1-.279,1.859l-3.809,3.809a1.584,1.584,0,0,0,0,2.24l7.259,7.259a1.584,1.584,0,0,0,2.24,0l3.809-3.809a1.574,1.574,0,0,1,1.859-.279,27.381,27.381,0,0,0,5.266,2.184,1.572,1.572,0,0,1,1.115,1.51v5.383a1.584,1.584,0,0,0,1.585,1.585H59.634a1.584,1.584,0,0,0,1.585-1.585v-5.383a1.57,1.57,0,0,1,1.115-1.51,27.381,27.381,0,0,0,5.266-2.184,1.572,1.572,0,0,1,1.859.279l3.809,3.809a1.584,1.584,0,0,0,2.24,0l7.259-7.259a1.584,1.584,0,0,0,0-2.24l-3.809-3.809a1.574,1.574,0,0,1-.279-1.859,27.38,27.38,0,0,0,2.184-5.266,1.572,1.572,0,0,1,1.51-1.115h5.383A1.585,1.585,0,0,0,89.337,121.05ZM64,119.99a9.948,9.948,0,0,1-1.9,2.987A10.634,10.634,0,1,1,64,119.99Z" transform="translate(-2.233 -2.224)" fill="#fa759e"/>
      <g id="Group_14181" data-name="Group 14181" transform="translate(15.66 77.092)">
        <path id="Path_45629" data-name="Path 45629" d="M204.756,96.5H135.848a1.767,1.767,0,0,0,0,3.533h68.909a12.617,12.617,0,0,1,12.6,12.6v15.094H78.3l-.228-.228a29.162,29.162,0,0,0,2.207-5.321h5.245a3.353,3.353,0,0,0,3.35-3.35V108.56a3.353,3.353,0,0,0-3.35-3.35H80.276a29.028,29.028,0,0,0-2.139-5.18H106.9a1.767,1.767,0,1,0,0-3.533H81.461l.318-.318a3.352,3.352,0,0,0,0-4.738L74.52,84.182a3.352,3.352,0,0,0-4.738,0l-3.712,3.71a29.014,29.014,0,0,0-5.319-2.2V80.442a3.353,3.353,0,0,0-3.35-3.35H47.133a3.353,3.353,0,0,0-3.35,3.35v5.245a28.963,28.963,0,0,0-5.319,2.2l-3.712-3.71a3.357,3.357,0,0,0-4.738,0l-7.259,7.259a3.352,3.352,0,0,0,0,4.738l3.71,3.712a29.014,29.014,0,0,0-2.2,5.319H19.01a3.353,3.353,0,0,0-3.35,3.35v10.268a3.353,3.353,0,0,0,3.35,3.35h5.245a28.963,28.963,0,0,0,2.2,5.319l-3.71,3.712a3.352,3.352,0,0,0,0,4.738l7.259,7.259a3.356,3.356,0,0,0,4.738,0l2.093-2.092v70.815a16.154,16.154,0,0,0,16.137,16.137H204.755a16.155,16.155,0,0,0,16.137-16.137v-99.3A16.152,16.152,0,0,0,204.756,96.5ZM32.381,140.577l-7-7,3.678-3.678a3.354,3.354,0,0,0,.585-3.95A25.49,25.49,0,0,1,27.6,121.02a3.356,3.356,0,0,0-3.2-2.378h-5.2v-9.9h5.2a3.354,3.354,0,0,0,3.2-2.38,25.633,25.633,0,0,1,2.042-4.925,3.353,3.353,0,0,0-.583-3.948l-3.678-3.68,7-7,3.678,3.678a3.354,3.354,0,0,0,3.95.585,25.491,25.491,0,0,1,4.927-2.042,3.356,3.356,0,0,0,2.378-3.2v-5.2h9.9v5.2a3.354,3.354,0,0,0,2.38,3.2,25.632,25.632,0,0,1,4.925,2.042,3.354,3.354,0,0,0,3.948-.583l3.68-3.678,7,7-3.68,3.68a3.354,3.354,0,0,0-.583,3.948,25.491,25.491,0,0,1,2.042,4.927,3.356,3.356,0,0,0,3.2,2.378h5.2v9.9h-5.2a3.354,3.354,0,0,0-3.2,2.378,25.7,25.7,0,0,1-2.042,4.927,3.354,3.354,0,0,0,.583,3.949l3.68,3.68-7,7L68.471,136.9a3.354,3.354,0,0,0-3.95-.585,25.491,25.491,0,0,1-4.927,2.042,3.356,3.356,0,0,0-2.378,3.2v5.2h-9.9v-5.2a3.354,3.354,0,0,0-2.378-3.2,25.694,25.694,0,0,1-4.927-2.042,3.348,3.348,0,0,0-3.948.583Zm172.375,83.955H52.979a12.617,12.617,0,0,1-12.6-12.6V153.21H217.36v58.719a12.617,12.617,0,0,1-12.6,12.6Z" transform="translate(-15.66 -77.092)" fill="#3a2c60"/>
        <path id="Path_45630" data-name="Path 45630" d="M239.643,124.557h11.646a1.767,1.767,0,1,0,0-3.533H239.643a1.767,1.767,0,0,0,0,3.533Z" transform="translate(-139.731 -101.621)" fill="#3a2c60"/>
        <path id="Path_45631" data-name="Path 45631" d="M77.976,155.587a11.856,11.856,0,0,0,4.993,1.076,12.424,12.424,0,0,0,9.051-3.839,11.679,11.679,0,0,0,2.235-3.516,12.153,12.153,0,1,0-16.278,6.279ZM74.517,143.51a8.984,8.984,0,0,1,6.844-7.432,7.828,7.828,0,0,1,1.585-.159,8.581,8.581,0,0,1,8.044,12.045,8.176,8.176,0,0,1-1.558,2.459,8.643,8.643,0,0,1-14.914-6.913Z" transform="translate(-46.517 -107.961)" fill="#3a2c60"/>
      </g>
    </g>
  </g>
</svg>
