<svg xmlns="http://www.w3.org/2000/svg" width="121.115" height="158.039" viewBox="0 0 121.115 158.039">
  <g id="Group_14178" data-name="Group 14178" transform="translate(-16509 -1024)">
    <g id="Group_14177" data-name="Group 14177" transform="translate(16509 1024)">
      <g id="Group_14175" data-name="Group 14175" transform="translate(0)">
        <path id="Path_45589" data-name="Path 45589" d="M188.811,28H122.85c-.03,0-.056.014-.084.017a1.29,1.29,0,0,0-.329.066,1.12,1.12,0,0,0-.126.045,1.269,1.269,0,0,0-.378.254L85.385,65.144a1.313,1.313,0,0,0-.253.38c-.018.04-.028.08-.043.122a1.322,1.322,0,0,0-.066.332c0,.027-.016.053-.016.08V168.725a12.145,12.145,0,0,0,12.131,12.131h91.673a12.145,12.145,0,0,0,12.13-12.131V40.131A12.147,12.147,0,0,0,188.811,28Z" transform="translate(-79.826 -22.818)" fill="#66b5f0"/>
        <path id="Path_45590" data-name="Path 45590" d="M175.514,16H109.555L73.008,52.762V155.43a10.836,10.836,0,0,0,10.836,10.836h91.671a10.836,10.836,0,0,0,10.836-10.836V26.836A10.838,10.838,0,0,0,175.514,16Z" transform="translate(-71.713 -14.705)" fill="#fff"/>
        <path id="Path_45591" data-name="Path 45591" d="M109.552,16V41.921A10.847,10.847,0,0,1,98.71,52.763H73Z" transform="translate(-71.704 -14.705)" fill="#56a8e5"/>
        <path id="Path_45592" data-name="Path 45592" d="M73,52.763h3.865l32.691-32.877V16Z" transform="translate(-71.704 -14.705)" fill="#fff"/>
        <g id="Group_14174" data-name="Group 14174" transform="translate(0 0)">
          <path id="Path_45593" data-name="Path 45593" d="M420.291,233.712a1.3,1.3,0,0,0-1.3,1.3v8.513a1.3,1.3,0,1,0,2.591,0v-8.513A1.3,1.3,0,0,0,420.291,233.712Z" transform="translate(-305.653 -161.911)" fill="#3a2c60"/>
          <path id="Path_45594" data-name="Path 45594" d="M172.811,12H106.85c-.03,0-.056.016-.086.017a1.269,1.269,0,0,0-.326.065,1.074,1.074,0,0,0-.128.045,1.286,1.286,0,0,0-.378.254L69.385,49.144a1.313,1.313,0,0,0-.253.38c-.018.04-.028.08-.043.122a1.321,1.321,0,0,0-.066.332c0,.027-.016.053-.016.08V152.725a12.145,12.145,0,0,0,12.131,12.131h91.671a12.145,12.145,0,0,0,12.131-12.131V99.5a1.3,1.3,0,1,0-2.591,0v53.228a9.552,9.552,0,0,1-9.541,9.541H81.139a9.552,9.552,0,0,1-9.541-9.541V51.353H96.014a12.145,12.145,0,0,0,12.131-12.131V14.591h64.665a9.551,9.551,0,0,1,9.541,9.541V79.387a1.3,1.3,0,1,0,2.591,0V24.131A12.145,12.145,0,0,0,172.811,12Zm-76.8,36.762h-22.6l32.138-32.327V39.221a9.552,9.552,0,0,1-9.541,9.541Z" transform="translate(-69.008 -12)" fill="#3a2c60"/>
          <path id="Path_45595" data-name="Path 45595" d="M121.307,424.424a1.3,1.3,0,1,0,0,2.591H145.3a1.3,1.3,0,1,0,0-2.591Z" transform="translate(-103.494 -290.861)" fill="#3a2c60"/>
          <path id="Path_45596" data-name="Path 45596" d="M322.634,427.472H298.639a1.3,1.3,0,1,0,0,2.591h23.995a1.3,1.3,0,0,0,0-2.591Z" transform="translate(-223.398 -292.922)" fill="#3a2c60"/>
          <path id="Path_45598" data-name="Path 45598" d="M121.307,176.731h26.585a1.3,1.3,0,1,0,0-2.591H121.307a1.3,1.3,0,1,0,0,2.591Z" transform="translate(-103.494 -121.631)" fill="#3a2c60"/>
          <path id="Path_45599" data-name="Path 45599" d="M327.7,124.9H291.126c-.986,0-1.782.58-1.782,1.3s.8,1.3,1.782,1.3H327.7c.985,0,1.782-.58,1.782-1.3S328.685,124.9,327.7,124.9Z" transform="translate(-231.598 -106.81)" fill="#3a2c60"/>
          <path id="Path_45600" data-name="Path 45600" d="M327.7,149.52H291.126c-.986,0-1.782.58-1.782,1.3s.8,1.3,1.782,1.3H327.7c.985,0,1.782-.58,1.782-1.3S328.685,149.52,327.7,149.52Z" transform="translate(-231.598 -123.454)" fill="#3a2c60"/>
          <path id="Path_45601" data-name="Path 45601" d="M327.7,174.14H291.126c-.986,0-1.782.58-1.782,1.3s.8,1.3,1.782,1.3H327.7c.985,0,1.782-.58,1.782-1.3S328.685,174.14,327.7,174.14Z" transform="translate(-231.598 -140.101)" fill="#3a2c60"/>
        </g>
        <path id="Path_45608" data-name="Path 45608" d="M111.236,217.688v47.258h37.925a2.466,2.466,0,0,0,2.292-2.6V217.688Z" transform="translate(-53.269 -154.633)" fill="#d4fbff"/>
      </g>
      <g id="Group_14176" data-name="Group 14176" transform="translate(15.555 56.977)">
        <path id="Path_45609" data-name="Path 45609" d="M159.491,289.184h-8.078a2.089,2.089,0,0,0-2.089,2.089v8.08a2.089,2.089,0,0,0,2.089,2.089h8.078a2.089,2.089,0,0,0,2.089-2.089v-8.08A2.089,2.089,0,0,0,159.491,289.184Z" transform="translate(-148.203 -282.222)" fill="#3a2c60"/>
        <path id="Path_45610" data-name="Path 45610" d="M159.491,335.364h-8.078a2.089,2.089,0,0,0-2.089,2.089v8.078a2.089,2.089,0,0,0,2.089,2.089h8.078a2.089,2.089,0,0,0,2.089-2.089v-8.078A2.089,2.089,0,0,0,159.491,335.364Z" transform="translate(-148.203 -310.761)" fill="#3a2c60"/>
        <path id="Path_45611" data-name="Path 45611" d="M159.491,381.544h-8.078a2.089,2.089,0,0,0-2.089,2.089v8.08a2.089,2.089,0,0,0,2.089,2.089h8.078a2.089,2.089,0,0,0,2.089-2.089v-8.08A2.089,2.089,0,0,0,159.491,381.544Z" transform="translate(-148.203 -339.301)" fill="#3a2c60"/>
        <path id="Path_45612" data-name="Path 45612" d="M204.348,314.8a1.528,1.528,0,0,0,1.528,1.528h52.941a1.528,1.528,0,0,0,0-3.056H205.876A1.528,1.528,0,0,0,204.348,314.8Z" transform="translate(-182.209 -297.108)" fill="#3a2c60"/>
        <path id="Path_45613" data-name="Path 45613" d="M258.818,359.452H205.876a1.528,1.528,0,0,0,0,3.056h52.941a1.528,1.528,0,0,0,0-3.056Z" transform="translate(-182.209 -325.648)" fill="#3a2c60"/>
        <path id="Path_45614" data-name="Path 45614" d="M258.818,405.628H205.876a1.528,1.528,0,0,0,0,3.056h52.941a1.528,1.528,0,0,0,0-3.056Z" transform="translate(-182.209 -354.185)" fill="#3a2c60"/>
        <path id="Path_45615" data-name="Path 45615" d="M153.52,287.764a2.285,2.285,0,0,1-1.661-.714l-4.839-5.094a2.292,2.292,0,1,1,3.323-3.157l3.086,3.25,8.789-10.289a2.293,2.293,0,0,1,3.487,2.978l-10.441,12.224a2.283,2.283,0,0,1-1.682.8c-.023,0-.043,0-.063,0Z" transform="translate(-146.389 -270.958)" fill="#fa759e"/>
        <path id="Path_45616" data-name="Path 45616" d="M153.52,335.765a2.285,2.285,0,0,1-1.661-.714l-4.839-5.094a2.292,2.292,0,1,1,3.323-3.157l3.086,3.25,8.789-10.289a2.293,2.293,0,0,1,3.487,2.978l-10.441,12.224a2.283,2.283,0,0,1-1.682.8c-.023,0-.043,0-.063,0Z" transform="translate(-146.389 -300.623)" fill="#fa759e"/>
        <path id="Path_45617" data-name="Path 45617" d="M153.52,379.764a2.285,2.285,0,0,1-1.661-.714l-4.839-5.094a2.292,2.292,0,1,1,3.323-3.157l3.086,3.25,8.789-10.289a2.293,2.293,0,0,1,3.487,2.978l-10.441,12.224a2.284,2.284,0,0,1-1.682.8l-.063,0Z" transform="translate(-146.389 -327.814)" fill="#fa759e"/>
      </g>
    </g>
  </g>
</svg>
