<svg xmlns="http://www.w3.org/2000/svg" width="311.808" height="197.843" viewBox="0 0 311.808 197.843"><g id="Group_932" data-name="Group 932" transform="translate(-2755.63 -1294.369)"><g id="Group_914" data-name="Group 914" transform="translate(2554.122 1141.168)"><g id="Group_859" data-name="Group 859" transform="translate(201.508 153.201)"><g id="Group_553" data-name="Group 553" transform="translate(7.831 47.596)"><g id="Group_552" data-name="Group 552"><g id="Group_551" data-name="Group 551"><circle id="Ellipse_2" data-name="Ellipse 2" cx="17.412" cy="17.412" r="17.412" transform="translate(0 24.624) rotate(-45)" fill="#ffc21a"></circle></g></g></g><g id="Group_858" data-name="Group 858"><g id="Group_557" data-name="Group 557" transform="translate(45.942 172.919)"><g id="Group_556" data-name="Group 556" transform="translate(0)"><g id="Group_555" data-name="Group 555"><g id="Group_554" data-name="Group 554"><rect id="Rectangle_5" data-name="Rectangle 5" width="0.278" height="2.223" transform="translate(0 0.257) rotate(-67.884)" fill="#110f11"></rect></g></g></g></g><g id="Group_561" data-name="Group 561" transform="translate(37.882 169.15)"><g id="Group_560" data-name="Group 560" transform="translate(0)"><g id="Group_559" data-name="Group 559"><g id="Group_558" data-name="Group 558"><rect id="Rectangle_6" data-name="Rectangle 6" width="0.277" height="4.446" transform="translate(0 0.249) rotate(-63.662)" fill="#110f11"></rect></g></g></g></g><g id="Group_565" data-name="Group 565" transform="translate(30.192 164.678)"><g id="Group_564" data-name="Group 564" transform="translate(0)"><g id="Group_563" data-name="Group 563"><g id="Group_562" data-name="Group 562"><rect id="Rectangle_7" data-name="Rectangle 7" width="0.278" height="4.447" transform="translate(0 0.237) rotate(-58.394)" fill="#110f11"></rect></g></g></g></g><g id="Group_569" data-name="Group 569" transform="translate(22.987 159.463)"><g id="Group_568" data-name="Group 568" transform="translate(0)"><g id="Group_567" data-name="Group 567"><g id="Group_566" data-name="Group 566"><rect id="Rectangle_8" data-name="Rectangle 8" width="0.278" height="4.446" transform="matrix(0.609, -0.793, 0.793, 0.609, 0, 0.22)" fill="#110f11"></rect></g></g></g></g><g id="Group_573" data-name="Group 573" transform="translate(16.418 153.472)"><g id="Group_572" data-name="Group 572" transform="translate(0)"><g id="Group_571" data-name="Group 571"><g id="Group_570" data-name="Group 570"><rect id="Rectangle_9" data-name="Rectangle 9" width="0.278" height="4.446" transform="translate(0 0.2) rotate(-45.809)" fill="#110f11"></rect></g></g></g></g><g id="Group_577" data-name="Group 577" transform="translate(10.669 146.697)"><g id="Group_576" data-name="Group 576" transform="translate(0)"><g id="Group_575" data-name="Group 575"><g id="Group_574" data-name="Group 574"><path id="Path_183" data-name="Path 183" d="M157.46,325.919l-2.753-3.491.218-.173,2.753,3.491Z" transform="translate(-154.707 -322.255)" fill="#110f11"></path></g></g></g></g><g id="Group_581" data-name="Group 581" transform="translate(5.944 139.039)"><g id="Group_580" data-name="Group 580"><g id="Group_579" data-name="Group 579"><g id="Group_578" data-name="Group 578"><path id="Path_184" data-name="Path 184" d="M148.421,312.726c-.246-.428-.5-.854-.754-1.28-.5-.835-1.011-1.7-1.464-2.58l.247-.127c.448.875.96,1.734,1.455,2.565.255.427.508.854.755,1.284Z" transform="translate(-146.204 -308.739)" fill="#110f11"></path></g></g></g></g><g id="Group_585" data-name="Group 585" transform="translate(2.524 130.816)"><g id="Group_584" data-name="Group 584" transform="translate(0)"><g id="Group_583" data-name="Group 583"><g id="Group_582" data-name="Group 582"><path id="Path_185" data-name="Path 185" d="M141.581,298.279l-1.532-4.174.261-.1,1.532,4.174Z" transform="translate(-140.049 -294.01)" fill="#110f11"></path></g></g></g></g><g id="Group_589" data-name="Group 589" transform="translate(0.526 122.139)"><g id="Group_588" data-name="Group 588" transform="translate(0)"><g id="Group_587" data-name="Group 587"><g id="Group_586" data-name="Group 586"><rect id="Rectangle_10" data-name="Rectangle 10" width="0.278" height="4.446" transform="translate(0 0.051) rotate(-10.564)" fill="#110f11"></rect></g></g></g></g><g id="Group_593" data-name="Group 593" transform="translate(0 113.25)"><g id="Group_592" data-name="Group 592"><g id="Group_591" data-name="Group 591"><g id="Group_590" data-name="Group 590"><path id="Path_186" data-name="Path 186" d="M135.589,267.006c-.084-1.487-.1-2.986-.056-4.457l.278.009c-.047,1.463-.028,2.954.056,4.433Z" transform="translate(-135.508 -262.549)" fill="#110f11"></path></g></g></g></g><g id="Group_597" data-name="Group 597" transform="translate(0.372 104.371)"><g id="Group_596" data-name="Group 596" transform="translate(0)"><g id="Group_595" data-name="Group 595"><g id="Group_594" data-name="Group 594"><path id="Path_187" data-name="Path 187" d="M136.453,251.075l-.276-.035c.186-1.483.445-2.96.768-4.392l.271.062C136.894,248.132,136.638,249.6,136.453,251.075Z" transform="translate(-136.177 -246.648)" fill="#110f11"></path></g></g></g></g><g id="Group_601" data-name="Group 601" transform="translate(2.345 95.897)"><g id="Group_600" data-name="Group 600" transform="translate(0)"><g id="Group_599" data-name="Group 599"><g id="Group_598" data-name="Group 598"><path id="Path_188" data-name="Path 188" d="M139.991,235.7l-.263-.089a40.657,40.657,0,0,1,1.656-4.141l.252.117A40.54,40.54,0,0,0,139.991,235.7Z" transform="translate(-139.728 -231.472)" fill="#110f11"></path></g></g></g></g><g id="Group_605" data-name="Group 605" transform="translate(6.11 88.273)"><g id="Group_604" data-name="Group 604" transform="translate(0)"><g id="Group_603" data-name="Group 603"><g id="Group_602" data-name="Group 602"><path id="Path_189" data-name="Path 189" d="M146.739,221.622l-.237-.146a37.724,37.724,0,0,1,2.554-3.657l.218.172A37.345,37.345,0,0,0,146.739,221.622Z" transform="translate(-146.502 -217.82)" fill="#110f11"></path></g></g></g></g><g id="Group_609" data-name="Group 609" transform="translate(11.617 81.877)"><g id="Group_608" data-name="Group 608"><g id="Group_607" data-name="Group 607"><g id="Group_606" data-name="Group 606"><path id="Path_190" data-name="Path 190" d="M156.611,209.585l-.2-.195c1.014-1.031,2.116-2.048,3.276-3.024l.178.213C158.714,207.549,157.619,208.56,156.611,209.585Z" transform="translate(-156.413 -206.367)" fill="#110f11"></path></g></g></g></g><g id="Group_613" data-name="Group 613" transform="translate(18.426 76.675)"><g id="Group_612" data-name="Group 612"><g id="Group_611" data-name="Group 611"><g id="Group_610" data-name="Group 610"><rect id="Rectangle_11" data-name="Rectangle 11" width="4.446" height="0.278" transform="matrix(0.834, -0.551, 0.551, 0.834, 0, 2.45)" fill="#110f11"></rect></g></g></g></g><g id="Group_617" data-name="Group 617" transform="translate(25.997 72.383)"><g id="Group_616" data-name="Group 616" transform="translate(0)"><g id="Group_615" data-name="Group 615"><g id="Group_614" data-name="Group 614"><rect id="Rectangle_12" data-name="Rectangle 12" width="4.446" height="0.278" transform="translate(0 2.04) rotate(-27.308)" fill="#110f11"></rect></g></g></g></g><g id="Group_621" data-name="Group 621" transform="translate(33.974 68.706)"><g id="Group_620" data-name="Group 620" transform="translate(0 0)"><g id="Group_619" data-name="Group 619"><g id="Group_618" data-name="Group 618"><path id="Path_191" data-name="Path 191" d="M196.759,184.793l-.117-.252c.871-.4,1.768-.78,2.637-1.144.484-.2.968-.406,1.45-.614l.11.255c-.482.208-.967.412-1.452.615C198.52,184.016,197.625,184.392,196.759,184.793Z" transform="translate(-196.642 -182.783)" fill="#110f11"></path></g></g></g></g><g id="Group_625" data-name="Group 625" transform="translate(42.257 65.966)"><g id="Group_624" data-name="Group 624" transform="translate(0 0)"><g id="Group_623" data-name="Group 623"><g id="Group_622" data-name="Group 622"><rect id="Rectangle_13" data-name="Rectangle 13" width="4.447" height="0.278" transform="translate(0 1.206) rotate(-15.739)" fill="#110f11"></rect></g></g></g></g><g id="Group_629" data-name="Group 629" transform="translate(50.923 64.795)"><g id="Group_628" data-name="Group 628"><g id="Group_627" data-name="Group 627"><g id="Group_626" data-name="Group 626"><path id="Path_192" data-name="Path 192" d="M227.18,176.389l-.038-.275a34.75,34.75,0,0,1,4.45-.331l0,.278A34.5,34.5,0,0,0,227.18,176.389Z" transform="translate(-227.142 -175.783)" fill="#110f11"></path></g></g></g></g><g id="Group_633" data-name="Group 633" transform="translate(59.275 65.134)"><g id="Group_632" data-name="Group 632" transform="translate(0)"><g id="Group_631" data-name="Group 631"><g id="Group_630" data-name="Group 630"><path id="Path_193" data-name="Path 193" d="M247.329,177.845a19.954,19.954,0,0,0-4.246-1.183l.046-.274a20.233,20.233,0,0,1,4.305,1.2Z" transform="translate(-243.083 -176.388)" fill="#110f11"></path></g></g></g></g><g id="Group_637" data-name="Group 637" transform="translate(67.285 68.552)"><g id="Group_636" data-name="Group 636"><g id="Group_635" data-name="Group 635"><g id="Group_634" data-name="Group 634"><path id="Path_194" data-name="Path 194" d="M260.725,185.821a14.794,14.794,0,0,0-3.109-3.1l.168-.221a15.039,15.039,0,0,1,3.167,3.157Z" transform="translate(-257.616 -182.502)" fill="#110f11"></path></g></g></g></g><g id="Group_641" data-name="Group 641" transform="translate(70.913 75.873)"><g id="Group_640" data-name="Group 640" transform="translate(0 0)"><g id="Group_639" data-name="Group 639"><g id="Group_638" data-name="Group 638"><path id="Path_195" data-name="Path 195" d="M264.412,199.891l-.217-.174a5.411,5.411,0,0,0,1.125-4.071l.276-.036A5.69,5.69,0,0,1,264.412,199.891Z" transform="translate(-264.195 -195.61)" fill="#110f11"></path></g></g></g></g><g id="Group_645" data-name="Group 645" transform="translate(63.093 82.488)"><g id="Group_644" data-name="Group 644" transform="translate(0)"><g id="Group_643" data-name="Group 643"><g id="Group_642" data-name="Group 642"><path id="Path_196" data-name="Path 196" d="M251.247,208.279a10.41,10.41,0,0,1-1.235-.074l.033-.276a9.459,9.459,0,0,0,4.321-.458l.094.261A9.454,9.454,0,0,1,251.247,208.279Z" transform="translate(-250.012 -207.472)" fill="#110f11"></path></g></g></g></g><g id="Group_649" data-name="Group 649" transform="translate(55.788 78.986)"><g id="Group_648" data-name="Group 648" transform="translate(0 0)"><g id="Group_647" data-name="Group 647"><g id="Group_646" data-name="Group 646"><path id="Path_197" data-name="Path 197" d="M239.474,204.07a13.8,13.8,0,0,1-3.578-2.685l.2-.192a13.5,13.5,0,0,0,3.507,2.631Z" transform="translate(-235.896 -201.192)" fill="#110f11"></path></g></g></g></g><g id="Group_653" data-name="Group 653" transform="translate(51.937 71.124)"><g id="Group_652" data-name="Group 652"><g id="Group_651" data-name="Group 651"><g id="Group_650" data-name="Group 650"><path id="Path_198" data-name="Path 198" d="M230.316,191.418a17.913,17.913,0,0,1-1.35-4.262l.273-.051a17.64,17.64,0,0,0,1.329,4.2Z" transform="translate(-228.966 -187.105)" fill="#110f11"></path></g></g></g></g><g id="Group_657" data-name="Group 657" transform="translate(51.554 62.233)"><g id="Group_656" data-name="Group 656" transform="translate(0)"><g id="Group_655" data-name="Group 655"><g id="Group_654" data-name="Group 654"><path id="Path_199" data-name="Path 199" d="M228.556,175.632h-.278a31.06,31.06,0,0,1,.362-4.449l.275.042A30.826,30.826,0,0,0,228.556,175.632Z" transform="translate(-228.278 -171.182)" fill="#110f11"></path></g></g></g></g><g id="Group_661" data-name="Group 661" transform="translate(52.837 53.577)"><g id="Group_660" data-name="Group 660"><g id="Group_659" data-name="Group 659"><g id="Group_658" data-name="Group 658"><path id="Path_200" data-name="Path 200" d="M230.855,160l-.269-.071c.377-1.424.827-2.854,1.339-4.251l.261.1C231.677,157.165,231.23,158.587,230.855,160Z" transform="translate(-230.586 -155.68)" fill="#110f11"></path></g></g></g></g><g id="Group_665" data-name="Group 665" transform="translate(55.9 45.483)"><g id="Group_664" data-name="Group 664"><g id="Group_663" data-name="Group 663"><g id="Group_662" data-name="Group 662"><rect id="Rectangle_14" data-name="Rectangle 14" width="4.444" height="0.278" transform="translate(0 3.939) rotate(-62.441)" fill="#110f11"></rect></g></g></g></g><g id="Group_669" data-name="Group 669" transform="translate(59.83 38.095)"><g id="Group_668" data-name="Group 668" transform="translate(0)"><g id="Group_667" data-name="Group 667"><g id="Group_666" data-name="Group 666"><rect id="Rectangle_15" data-name="Rectangle 15" width="4.444" height="0.278" transform="matrix(0.594, -0.805, 0.805, 0.594, 0, 3.576)" fill="#110f11"></rect></g></g></g></g><g id="Group_673" data-name="Group 673" transform="translate(65.311 31.457)"><g id="Group_672" data-name="Group 672" transform="translate(0 0)"><g id="Group_671" data-name="Group 671"><g id="Group_670" data-name="Group 670"><rect id="Rectangle_16" data-name="Rectangle 16" width="4.446" height="0.278" transform="matrix(0.693, -0.721, 0.721, 0.693, 0, 3.204)" fill="#110f11"></rect></g></g></g></g><g id="Group_677" data-name="Group 677" transform="translate(71.604 25.411)"><g id="Group_676" data-name="Group 676" transform="translate(0)"><g id="Group_675" data-name="Group 675"><g id="Group_674" data-name="Group 674"><path id="Path_201" data-name="Path 201" d="M265.635,108.526l-.179-.213,3.4-2.858.179.213Z" transform="translate(-265.456 -105.455)" fill="#110f11"></path></g></g></g></g><g id="Group_681" data-name="Group 681" transform="translate(78.493 20.162)"><g id="Group_680" data-name="Group 680" transform="translate(0 0)"><g id="Group_679" data-name="Group 679"><g id="Group_678" data-name="Group 678"><rect id="Rectangle_17" data-name="Rectangle 17" width="4.447" height="0.278" transform="translate(0 2.544) rotate(-34.894)" fill="#110f11"></rect></g></g></g></g><g id="Group_685" data-name="Group 685" transform="translate(85.828 15.497)"><g id="Group_684" data-name="Group 684"><g id="Group_683" data-name="Group 683"><g id="Group_682" data-name="Group 682"><rect id="Rectangle_18" data-name="Rectangle 18" width="4.447" height="0.278" transform="translate(0 2.259) rotate(-30.525)" fill="#110f11"></rect></g></g></g></g><g id="Group_689" data-name="Group 689" transform="translate(93.503 11.348)"><g id="Group_688" data-name="Group 688" transform="translate(0)"><g id="Group_687" data-name="Group 687"><g id="Group_686" data-name="Group 686"><rect id="Rectangle_19" data-name="Rectangle 19" width="4.446" height="0.278" transform="translate(0 2.012) rotate(-26.908)" fill="#110f11"></rect></g></g></g></g><g id="Group_693" data-name="Group 693" transform="translate(101.433 7.7)"><g id="Group_692" data-name="Group 692" transform="translate(0 0)"><g id="Group_691" data-name="Group 691"><g id="Group_690" data-name="Group 690"><rect id="Rectangle_20" data-name="Rectangle 20" width="4.446" height="0.278" transform="translate(0 1.755) rotate(-23.25)" fill="#110f11"></rect></g></g></g></g><g id="Group_697" data-name="Group 697" transform="translate(109.601 4.629)"><g id="Group_696" data-name="Group 696"><g id="Group_695" data-name="Group 695"><g id="Group_694" data-name="Group 694"><rect id="Rectangle_21" data-name="Rectangle 21" width="4.446" height="0.278" transform="matrix(0.945, -0.328, 0.328, 0.945, 0, 1.458)" fill="#110f11"></rect></g></g></g></g><g id="Group_701" data-name="Group 701" transform="translate(117.998 2.247)"><g id="Group_700" data-name="Group 700" transform="translate(0)"><g id="Group_699" data-name="Group 699"><g id="Group_698" data-name="Group 698"><rect id="Rectangle_22" data-name="Rectangle 22" width="4.446" height="0.278" transform="translate(0 1.094) rotate(-14.248)" fill="#110f11"></rect></g></g></g></g><g id="Group_705" data-name="Group 705" transform="translate(126.601 0.66)"><g id="Group_704" data-name="Group 704" transform="translate(0)"><g id="Group_703" data-name="Group 703"><g id="Group_702" data-name="Group 702"><path id="Path_202" data-name="Path 202" d="M365.313,61.873l-.042-.275,4.394-.683.042.275Z" transform="translate(-365.271 -60.916)" fill="#110f11"></path></g></g></g></g><g id="Group_709" data-name="Group 709" transform="translate(135.357 0)"><g id="Group_708" data-name="Group 708" transform="translate(0)"><g id="Group_707" data-name="Group 707"><g id="Group_706" data-name="Group 706"><rect id="Rectangle_23" data-name="Rectangle 23" width="4.446" height="0.278" transform="translate(0 0.208) rotate(-2.685)" fill="#110f11"></rect></g></g></g></g><g id="Group_713" data-name="Group 713" transform="translate(144.166 0.057)"><g id="Group_712" data-name="Group 712"><g id="Group_711" data-name="Group 711"><g id="Group_710" data-name="Group 710"><path id="Path_203" data-name="Path 203" d="M401.576,60.435c-1.026-.115-2.076-.179-3.091-.242-.446-.027-.892-.054-1.337-.086l.02-.277c.444.031.889.058,1.334.086,1.019.063,2.072.127,3.106.243Z" transform="translate(-397.148 -59.83)" fill="#110f11"></path></g></g></g></g><g id="Group_717" data-name="Group 717" transform="translate(152.906 1.021)"><g id="Group_716" data-name="Group 716"><g id="Group_715" data-name="Group 715"><g id="Group_714" data-name="Group 714"><rect id="Rectangle_24" data-name="Rectangle 24" width="0.278" height="4.446" transform="translate(0 0.271) rotate(-77.787)" fill="#110f11"></rect></g></g></g></g><g id="Group_721" data-name="Group 721" transform="translate(161.43 3.208)"><g id="Group_720" data-name="Group 720"><g id="Group_719" data-name="Group 719"><g id="Group_718" data-name="Group 718"><path id="Path_204" data-name="Path 204" d="M432.651,67.3l-4.172-1.537.1-.26,4.172,1.537Z" transform="translate(-428.479 -65.501)" fill="#110f11"></path></g></g></g></g><g id="Group_725" data-name="Group 725" transform="translate(169.567 6.585)"><g id="Group_724" data-name="Group 724"><g id="Group_723" data-name="Group 723"><g id="Group_722" data-name="Group 722"><rect id="Rectangle_25" data-name="Rectangle 25" width="0.278" height="4.447" transform="translate(0 0.244) rotate(-61.477)" fill="#110f11"></rect></g></g></g></g><g id="Group_729" data-name="Group 729" transform="translate(177.126 11.134)"><g id="Group_728" data-name="Group 728" transform="translate(0)"><g id="Group_727" data-name="Group 727"><g id="Group_726" data-name="Group 726"><path id="Path_205" data-name="Path 205" d="M460.489,82.688l-3.529-2.7.169-.22,3.529,2.7Z" transform="translate(-456.96 -79.764)" fill="#110f11"></path></g></g></g></g><g id="Group_733" data-name="Group 733" transform="translate(183.878 16.841)"><g id="Group_732" data-name="Group 732" transform="translate(0 0)"><g id="Group_731" data-name="Group 731"><g id="Group_730" data-name="Group 730"><path id="Path_206" data-name="Path 206" d="M472.214,93.489c-.938-1.116-1.949-2.212-3-3.259l.2-.2c1.061,1.053,2.078,2.155,3.021,3.277Z" transform="translate(-469.21 -90.033)" fill="#110f11"></path></g></g></g></g><g id="Group_737" data-name="Group 737" transform="translate(189.526 23.663)"><g id="Group_736" data-name="Group 736" transform="translate(0 0)"><g id="Group_735" data-name="Group 735"><g id="Group_734" data-name="Group 734"><path id="Path_207" data-name="Path 207" d="M481.787,106.234c-.707-1.28-1.492-2.547-2.334-3.768l.229-.158c.847,1.228,1.637,2.5,2.349,3.791Z" transform="translate(-479.453 -102.308)" fill="#110f11"></path></g></g></g></g><g id="Group_741" data-name="Group 741" transform="translate(193.77 31.615)"><g id="Group_740" data-name="Group 740" transform="translate(0 0)"><g id="Group_739" data-name="Group 739"><g id="Group_738" data-name="Group 738"><rect id="Rectangle_26" data-name="Rectangle 26" width="0.278" height="4.445" transform="translate(0 0.101) rotate(-21.191)" fill="#110f11"></rect></g></g></g></g><g id="Group_745" data-name="Group 745" transform="translate(196.791 40.01)"><g id="Group_744" data-name="Group 744"><g id="Group_743" data-name="Group 743"><g id="Group_742" data-name="Group 742"><path id="Path_208" data-name="Path 208" d="M494.1,135.671l-1.471-4.2.263-.092,1.471,4.2Z" transform="translate(-492.63 -131.383)" fill="#110f11"></path></g></g></g></g><g id="Group_749" data-name="Group 749" transform="translate(199.932 48.342)"><g id="Group_748" data-name="Group 748"><g id="Group_747" data-name="Group 747"><g id="Group_746" data-name="Group 746"><path id="Path_209" data-name="Path 209" d="M500.468,150.341a31.844,31.844,0,0,1-2.132-3.919l.252-.117a31.644,31.644,0,0,0,2.114,3.886Z" transform="translate(-498.336 -146.305)" fill="#110f11"></path></g></g></g></g><g id="Group_753" data-name="Group 753" transform="translate(204.684 55.811)"><g id="Group_752" data-name="Group 752"><g id="Group_751" data-name="Group 751"><g id="Group_750" data-name="Group 750"><path id="Path_210" data-name="Path 210" d="M510.088,163.054a34.129,34.129,0,0,1-3.119-3.19l.211-.181a33.979,33.979,0,0,0,3.094,3.164Z" transform="translate(-506.969 -159.684)" fill="#110f11"></path></g></g></g></g><g id="Group_757" data-name="Group 757" transform="translate(211.25 61.739)"><g id="Group_756" data-name="Group 756"><g id="Group_755" data-name="Group 755"><g id="Group_754" data-name="Group 754"><path id="Path_211" data-name="Path 211" d="M522.727,172.814a33.783,33.783,0,0,1-3.836-2.281l.157-.229a33.449,33.449,0,0,0,3.8,2.262Z" transform="translate(-518.891 -170.304)" fill="#110f11"></path></g></g></g></g><g id="Group_761" data-name="Group 761" transform="translate(219.127 65.741)"><g id="Group_760" data-name="Group 760"><g id="Group_759" data-name="Group 759"><g id="Group_758" data-name="Group 758"><path id="Path_212" data-name="Path 212" d="M537.516,178.849a28.716,28.716,0,0,1-4.325-1.111l.091-.263a28.444,28.444,0,0,0,4.282,1.1Z" transform="translate(-533.191 -177.475)" fill="#110f11"></path></g></g></g></g><g id="Group_765" data-name="Group 765" transform="translate(227.826 66.789)"><g id="Group_764" data-name="Group 764"><g id="Group_763" data-name="Group 763"><g id="Group_762" data-name="Group 762"><path id="Path_213" data-name="Path 213" d="M548.98,180.068v-.278a22.741,22.741,0,0,0,4.392-.436l.054.272A23.026,23.026,0,0,1,548.98,180.068Z" transform="translate(-548.979 -179.354)" fill="#110f11"></path></g></g></g></g><g id="Group_769" data-name="Group 769" transform="translate(236.352 63.335)"><g id="Group_768" data-name="Group 768"><g id="Group_767" data-name="Group 767"><g id="Group_766" data-name="Group 766"><path id="Path_214" data-name="Path 214" d="M564.571,175.548l-.123-.25c.222-.109.446-.213.67-.318.438-.2.893-.415,1.317-.659.626-.348,1.26-.738,1.884-1.16l.155.23c-.63.427-1.27.821-1.9,1.172-.433.248-.892.462-1.336.669C565.013,175.337,564.79,175.44,564.571,175.548Z" transform="translate(-564.448 -173.162)" fill="#110f11"></path></g></g></g></g><g id="Group_773" data-name="Group 773" transform="translate(243.639 57.499)"><g id="Group_772" data-name="Group 772"><g id="Group_771" data-name="Group 771"><g id="Group_770" data-name="Group 770"><rect id="Rectangle_27" data-name="Rectangle 27" width="4.447" height="0.278" transform="translate(0 3.079) rotate(-43.822)" fill="#110f11"></rect></g></g></g></g><g id="Group_777" data-name="Group 777" transform="translate(249.372 51.115)"><g id="Group_776" data-name="Group 776"><g id="Group_775" data-name="Group 775"><g id="Group_774" data-name="Group 774"><rect id="Rectangle_28" data-name="Rectangle 28" width="4.447" height="0.277" transform="translate(0 3.149) rotate(-45.089)" fill="#110f11"></rect></g></g></g></g><g id="Group_781" data-name="Group 781" transform="translate(255.882 45.561)"><g id="Group_780" data-name="Group 780"><g id="Group_779" data-name="Group 779"><g id="Group_778" data-name="Group 778"><path id="Path_215" data-name="Path 215" d="M600.863,144.148l-.173-.218c1.169-.925,2.387-1.8,3.619-2.6l.152.233C603.236,142.358,602.025,143.229,600.863,144.148Z" transform="translate(-600.69 -141.328)" fill="#110f11"></path></g></g></g></g><g id="Group_785" data-name="Group 785" transform="translate(263.353 41.454)"><g id="Group_784" data-name="Group 784"><g id="Group_783" data-name="Group 783"><g id="Group_782" data-name="Group 782"><path id="Path_216" data-name="Path 216" d="M614.261,136.061l-.128-.247a42.006,42.006,0,0,1,4.062-1.841l.1.259A41.468,41.468,0,0,0,614.261,136.061Z" transform="translate(-614.133 -133.973)" fill="#110f11"></path></g></g></g></g><g id="Group_789" data-name="Group 789" transform="translate(271.657 39.219)"><g id="Group_788" data-name="Group 788"><g id="Group_787" data-name="Group 787"><g id="Group_786" data-name="Group 786"><path id="Path_217" data-name="Path 217" d="M629.146,131.087l-.069-.269a34.831,34.831,0,0,1,4.381-.846l.034.276A34.529,34.529,0,0,0,629.146,131.087Z" transform="translate(-629.077 -129.972)" fill="#110f11"></path></g></g></g></g><g id="Group_793" data-name="Group 793" transform="translate(280.484 38.967)"><g id="Group_792" data-name="Group 792"><g id="Group_791" data-name="Group 791"><g id="Group_790" data-name="Group 790"><path id="Path_218" data-name="Path 218" d="M649.374,130.2l-2.2-.289-2.209-.116.015-.277,2.22.117,2.215.29Z" transform="translate(-644.961 -129.522)" fill="#110f11"></path></g></g></g></g><g id="Group_797" data-name="Group 797" transform="translate(289.166 40.518)"><g id="Group_796" data-name="Group 796"><g id="Group_795" data-name="Group 795"><g id="Group_794" data-name="Group 794"><path id="Path_219" data-name="Path 219" d="M664.625,134.349a28.219,28.219,0,0,0-4.042-1.79l.092-.262a28.451,28.451,0,0,1,4.082,1.808Z" transform="translate(-660.583 -132.297)" fill="#110f11"></path></g></g></g></g><g id="Group_801" data-name="Group 801" transform="translate(296.918 44.776)"><g id="Group_800" data-name="Group 800"><g id="Group_799" data-name="Group 799"><g id="Group_798" data-name="Group 798"><path id="Path_220" data-name="Path 220" d="M677.8,143.119a26.092,26.092,0,0,0-3.264-2.978l.169-.221a26.4,26.4,0,0,1,3.3,3.01Z" transform="translate(-674.532 -139.921)" fill="#110f11"></path></g></g></g></g><g id="Group_805" data-name="Group 805" transform="translate(302.869 51.367)"><g id="Group_804" data-name="Group 804"><g id="Group_803" data-name="Group 803"><g id="Group_802" data-name="Group 802"><path id="Path_221" data-name="Path 221" d="M687.189,155.828a21.487,21.487,0,0,0-1.948-3.958l.236-.147a21.707,21.707,0,0,1,1.973,4.01Z" transform="translate(-685.241 -151.723)" fill="#110f11"></path></g></g></g></g><g id="Group_809" data-name="Group 809" transform="translate(305.874 59.757)"><g id="Group_808" data-name="Group 808"><g id="Group_807" data-name="Group 807"><g id="Group_806" data-name="Group 806"><path id="Path_222" data-name="Path 222" d="M690.951,171.218l-.276-.034a17.654,17.654,0,0,0-.028-4.4l.276-.036A17.948,17.948,0,0,1,690.951,171.218Z" transform="translate(-690.648 -166.748)" fill="#110f11"></path></g></g></g></g><g id="Group_813" data-name="Group 813" transform="translate(302.219 68.465)"><g id="Group_812" data-name="Group 812"><g id="Group_811" data-name="Group 811"><g id="Group_810" data-name="Group 810"><path id="Path_223" data-name="Path 223" d="M684.261,186.111l-.189-.2a11.141,11.141,0,0,0,2.521-3.563l.253.116A11.42,11.42,0,0,1,684.261,186.111Z" transform="translate(-684.072 -182.345)" fill="#110f11"></path></g></g></g></g><g id="Group_817" data-name="Group 817" transform="translate(294.07 74.219)"><g id="Group_816" data-name="Group 816"><g id="Group_815" data-name="Group 815"><g id="Group_814" data-name="Group 814"><path id="Path_224" data-name="Path 224" d="M670.912,193.391a8.68,8.68,0,0,1-1.5-.128l.048-.273a9.219,9.219,0,0,0,4.329-.327l.084.265A9.876,9.876,0,0,1,670.912,193.391Z" transform="translate(-669.408 -192.662)" fill="#110f11"></path></g></g></g></g><g id="Group_821" data-name="Group 821" transform="translate(288.188 68.704)"><g id="Group_820" data-name="Group 820" transform="translate(0 0)"><g id="Group_819" data-name="Group 819"><g id="Group_818" data-name="Group 818"><path id="Path_225" data-name="Path 225" d="M660.731,186.841a6.982,6.982,0,0,1-1.908-4.032l.276-.036a6.712,6.712,0,0,0,1.828,3.872Z" transform="translate(-658.823 -182.773)" fill="#110f11"></path></g></g></g></g><g id="Group_825" data-name="Group 825" transform="translate(288.653 60.36)"><g id="Group_824" data-name="Group 824"><g id="Group_823" data-name="Group 823"><g id="Group_822" data-name="Group 822"><path id="Path_226" data-name="Path 226" d="M659.925,171.809l-.264-.087a11.408,11.408,0,0,1,2.206-3.892l.21.183A11.115,11.115,0,0,0,659.925,171.809Z" transform="translate(-659.661 -167.829)" fill="#110f11"></path></g></g></g></g><g id="Group_829" data-name="Group 829" transform="translate(294.511 57.224)"><g id="Group_828" data-name="Group 828"><g id="Group_827" data-name="Group 827"><g id="Group_826" data-name="Group 826"><path id="Path_227" data-name="Path 227" d="M670.3,163.017l-.1-.261a9.835,9.835,0,0,1,4.446-.465l-.029.276A9.558,9.558,0,0,0,670.3,163.017Z" transform="translate(-670.201 -162.222)" fill="#110f11"></path></g></g></g></g><g id="Group_833" data-name="Group 833" transform="translate(303.094 58.651)"><g id="Group_832" data-name="Group 832"><g id="Group_831" data-name="Group 831"><g id="Group_830" data-name="Group 830"><path id="Path_228" data-name="Path 228" d="M689.174,167.631a14.868,14.868,0,0,0-3.527-2.614l.13-.246a15.156,15.156,0,0,1,3.593,2.663Z" transform="translate(-685.647 -164.771)" fill="#110f11"></path></g></g></g></g><g id="Group_837" data-name="Group 837" transform="translate(309.3 64.89)"><g id="Group_836" data-name="Group 836"><g id="Group_835" data-name="Group 835"><g id="Group_834" data-name="Group 834"><path id="Path_229" data-name="Path 229" d="M698.465,180.152a15.66,15.66,0,0,0-1.651-4.072l.241-.139a15.963,15.963,0,0,1,1.681,4.144Z" transform="translate(-696.814 -175.941)" fill="#110f11"></path></g></g></g></g><g id="Group_841" data-name="Group 841" transform="translate(311.228 73.507)"><g id="Group_840" data-name="Group 840" transform="translate(0 0)"><g id="Group_839" data-name="Group 839"><g id="Group_838" data-name="Group 838"><path id="Path_230" data-name="Path 230" d="M700.558,195.828l-.274-.042a25.142,25.142,0,0,0,.3-4.407l.278-.007A25.46,25.46,0,0,1,700.558,195.828Z" transform="translate(-700.283 -191.372)" fill="#110f11"></path></g></g></g></g><g id="Group_845" data-name="Group 845" transform="translate(308.787 82.278)"><g id="Group_844" data-name="Group 844"><g id="Group_843" data-name="Group 843"><g id="Group_842" data-name="Group 842"><path id="Path_231" data-name="Path 231" d="M696.147,211.368l-.257-.1a44.274,44.274,0,0,0,1.468-4.182l.267.078C697.223,208.529,696.74,209.905,696.147,211.368Z" transform="translate(-695.89 -207.082)" fill="#110f11"></path></g></g></g></g><g id="Group_849" data-name="Group 849" transform="translate(304.962 90.545)"><g id="Group_848" data-name="Group 848"><g id="Group_847" data-name="Group 847"><g id="Group_846" data-name="Group 846"><rect id="Rectangle_29" data-name="Rectangle 29" width="4.446" height="0.277" transform="translate(0 3.966) rotate(-63.132)" fill="#110f11"></rect></g></g></g></g><g id="Group_853" data-name="Group 853" transform="translate(300.986 98.5)"><g id="Group_852" data-name="Group 852"><g id="Group_851" data-name="Group 851"><g id="Group_850" data-name="Group 850"><path id="Path_232" data-name="Path 232" d="M682.1,240.26l-.251-.12,1.931-4.005.251.12Z" transform="translate(-681.853 -236.134)" fill="#110f11"></path></g></g></g></g><g id="Group_857" data-name="Group 857" transform="translate(298.634 106.695)"><g id="Group_856" data-name="Group 856"><g id="Group_855" data-name="Group 855"><g id="Group_854" data-name="Group 854"><rect id="Rectangle_30" data-name="Rectangle 30" width="2.223" height="0.278" transform="matrix(0.305, -0.952, 0.952, 0.305, 0, 2.117)" fill="#110f11"></rect></g></g></g></g></g></g><g id="Group_876" data-name="Group 876" transform="translate(247.078 158.832)"><g id="Group_869" data-name="Group 869" transform="translate(0.472 17.027)"><g id="Group_868" data-name="Group 868"><g id="Group_867" data-name="Group 867"><path id="Path_234" data-name="Path 234" d="M296.55,84.605,332.1,73.859l1.125,10.746Z" transform="translate(-296.55 -73.859)" fill="#ffc21a"></path></g></g></g><g id="Group_872" data-name="Group 872"><g id="Group_871" data-name="Group 871"><g id="Group_870" data-name="Group 870"><path id="Path_235" data-name="Path 235" d="M296.078,84.384l38.7-27.553V74.168Z" transform="translate(-296.078 -56.832)" fill="#00abee"></path></g></g></g><g id="Group_875" data-name="Group 875" transform="translate(0.472 25.909)"><g id="Group_874" data-name="Group 874"><g id="Group_873" data-name="Group 873"><path id="Path_236" data-name="Path 236" d="M296.55,84.605l45.181,14.673-5.2-16.538Z" transform="translate(-296.55 -82.741)" fill="#00abee"></path></g></g></g></g></g><g id="Group_919" data-name="Group 919" transform="translate(2736.97 1236.526)"><g id="Group_916" data-name="Group 916"><path id="Path_237" data-name="Path 237" d="M132.722,247.681h123.27l7.7,8.005v-48.52A10.692,10.692,0,0,0,253,196.474H132.722a10.692,10.692,0,0,0-10.692,10.692v29.823A10.692,10.692,0,0,0,132.722,247.681Z" fill="#c9edff"></path><g id="Group_915" data-name="Group 915"><line id="Line_1" data-name="Line 1" x1="111" transform="translate(138 209)" fill="none" stroke="#fff" stroke-linecap="round" stroke-linejoin="round" stroke-width="2"></line><line id="Line_2" data-name="Line 2" x1="111" transform="translate(138 221)" fill="none" stroke="#fff" stroke-linecap="round" stroke-linejoin="round" stroke-width="2"></line><line id="Line_3" data-name="Line 3" x1="89" transform="translate(138 233)" fill="none" stroke="#fff" stroke-linecap="round" stroke-linejoin="round" stroke-width="2"></line></g></g><g id="Group_918" data-name="Group 918"><path id="Path_240" data-name="Path 240" d="M221,180.681H97.728l-7.7,8.005v-48.52a10.692,10.692,0,0,1,10.692-10.692H221a10.692,10.692,0,0,1,10.692,10.692v29.823A10.692,10.692,0,0,1,221,180.681Z" fill="#60bbea"></path><g id="Group_917" data-name="Group 917"><line id="Line_4" data-name="Line 4" x2="79" transform="translate(137 142)" fill="none" stroke="#fff" stroke-linecap="round" stroke-linejoin="round" stroke-width="2"></line><line id="Line_5" data-name="Line 5" x2="79" transform="translate(137 154)" fill="none" stroke="#fff" stroke-linecap="round" stroke-linejoin="round" stroke-width="2"></line><line id="Line_6" data-name="Line 6" x2="57" transform="translate(137 166)" fill="none" stroke="#fff" stroke-linecap="round" stroke-linejoin="round" stroke-width="2"></line></g></g></g><g id="Group_921" data-name="Group 921" transform="translate(2975.008 1365.999)"><path id="Path_241" data-name="Path 241" d="M47.726,71.185A21.867,21.867,0,1,1,25.859,49.318,21.867,21.867,0,0,1,47.726,71.185Z" transform="translate(0 -44.646)" fill="#fff6de"></path><path id="Path_242" data-name="Path 242" d="M202.349,49.318a22.037,22.037,0,0,0-3.4.263,21.87,21.87,0,0,1,0,43.207,21.868,21.868,0,1,0,3.4-43.47Z" transform="translate(-176.49 -44.646)" fill="#fff0c6"></path><path id="Path_243" data-name="Path 243" d="M211.957,24.923l-12.487,8.268a4.253,4.253,0,0,1-3.021.655,4.267,4.267,0,0,0-3.028.653l-1.671,1.108-9.358-13.795,2.3-9.919a10.353,10.353,0,0,0-1.454-8.05A2.475,2.475,0,0,1,187.021.7l1.487,1.441a15.9,15.9,0,0,1,3.837,5.882l.806,2.172,8.306-5.488a2.832,2.832,0,0,1,3.968.865,2.869,2.869,0,0,1-.89,3.89.031.031,0,0,0-.011.04.031.031,0,0,0,.04.016,2.819,2.819,0,0,1,1.012-.188,2.848,2.848,0,0,1,1.543.455,2.833,2.833,0,0,1,1.237,2.927,2.892,2.892,0,0,1-1.187,1.793.061.061,0,0,0-.016.084l0,0a.06.06,0,0,0,.08.016,2.906,2.906,0,0,1,.687-.081,2.984,2.984,0,0,1,1.6.463,2.787,2.787,0,0,1,.826.811,2.831,2.831,0,0,1-.8,3.925l-.1.064a.044.044,0,0,0-.014.055.024.024,0,0,0,.01.01.046.046,0,0,0,.056,0,2.773,2.773,0,0,1,2.4.309,2.888,2.888,0,0,1,.846.839A2.833,2.833,0,0,1,211.957,24.923Z" transform="translate(-161.502 0)" fill="#fdd7bd"></path><path id="Path_244" data-name="Path 244" d="M32.335,228.575l-5.268,3.488L19.462,237.1a21.89,21.89,0,0,1-13.3-17.2l8.826-5.845,5.373-3.558a1.344,1.344,0,0,1,1.863.38l10.49,15.838A1.345,1.345,0,0,1,32.335,228.575Z" transform="translate(-1.966 -190.35)" fill="#87dbff"></path><path id="Path_245" data-name="Path 245" d="M116.678,228.575l-5.268,3.488L99.333,214.05l5.373-3.558a1.344,1.344,0,0,1,1.863.38l10.49,15.838A1.346,1.346,0,0,1,116.678,228.575Z" transform="translate(-86.31 -190.35)" fill="#00abee"></path><g id="Group_920" data-name="Group 920" transform="translate(39.748 9.328)"><path id="Path_246" data-name="Path 246" d="M387.329,98.918l-4.155,2.224a1.346,1.346,0,0,1-1.716-.386l3.276-2.12a.031.031,0,0,0,.04.016,2.819,2.819,0,0,1,1.012-.188A2.85,2.85,0,0,1,387.329,98.918Z" transform="translate(-381.457 -98.464)" fill="#fac5aa"></path><path id="Path_247" data-name="Path 247" d="M413.534,153.776l-4.065,2.173a1.345,1.345,0,0,1-1.717-.385l3.276-2.12.141-.066a.06.06,0,0,0,.08.016,2.906,2.906,0,0,1,.687-.081A2.982,2.982,0,0,1,413.534,153.776Z" transform="translate(-405.262 -148.117)" fill="#fac5aa"></path><path id="Path_248" data-name="Path 248" d="M443.358,208.459l-3.58,1.915a1.347,1.347,0,0,1-1.717-.386l2.838-1.836a.045.045,0,0,0,.056,0A2.775,2.775,0,0,1,443.358,208.459Z" transform="translate(-432.699 -197.628)" fill="#fac5aa"></path></g></g></g></svg>