<svg xmlns="http://www.w3.org/2000/svg" xmlns:xlink="http://www.w3.org/1999/xlink" width="344.842" height="307.18" viewBox="0 0 344.842 307.18">
  <defs>
    <linearGradient id="linear-gradient" x1="-12.701" y1="1.567" x2="-12.698" y2="1.567" gradientUnits="objectBoundingBox">
      <stop offset="0" stop-color="#eef4fe"/>
      <stop offset="0.848" stop-color="#f4f8ff"/>
    </linearGradient>
    <linearGradient id="linear-gradient-2" x1="-10.95" y1="2.402" x2="-10.947" y2="2.402" xlink:href="#linear-gradient"/>
    <linearGradient id="linear-gradient-3" x1="-15.326" y1="2.862" x2="-15.322" y2="2.862" xlink:href="#linear-gradient"/>
    <linearGradient id="linear-gradient-4" x1="-56.317" y1="2.352" x2="-56.305" y2="2.352" xlink:href="#linear-gradient"/>
    <linearGradient id="linear-gradient-5" x1="-55.063" y1="2.361" x2="-55.052" y2="2.361" xlink:href="#linear-gradient"/>
  </defs>
  <g id="Group_13097" data-name="Group 13097" transform="translate(-86 -89.978)">
    <g id="Group_13093" data-name="Group 13093">
      <g id="Group_13092" data-name="Group 13092">
        <g id="Group_12944" data-name="Group 12944" transform="translate(-3830.75 -448.11)">
          <g id="Group_11165" data-name="Group 11165" transform="translate(3916.75 555.141)">
            <g id="Group_3372" data-name="Group 3372" transform="translate(0 85.938)">
              <rect id="Rectangle_1365" data-name="Rectangle 1365" width="91.95" height="39.299" rx="4.305" fill="url(#linear-gradient)"/>
              <rect id="Rectangle_1366" data-name="Rectangle 1366" width="1.674" height="28.383" transform="translate(5.314 5.458)" fill="#b3cdfa"/>
              <rect id="Rectangle_1367" data-name="Rectangle 1367" width="1.675" height="28.383" transform="translate(9.611 5.458)" fill="#b3cdfa"/>
              <rect id="Rectangle_1368" data-name="Rectangle 1368" width="1.675" height="28.383" transform="translate(13.908 5.458)" fill="#b3cdfa"/>
              <rect id="Rectangle_1369" data-name="Rectangle 1369" width="1.674" height="28.383" transform="translate(18.205 5.458)" fill="#b3cdfa"/>
              <rect id="Rectangle_1370" data-name="Rectangle 1370" width="1.675" height="28.383" transform="translate(22.502 5.458)" fill="#b3cdfa"/>
              <rect id="Rectangle_1371" data-name="Rectangle 1371" width="1.674" height="28.383" transform="translate(26.8 5.458)" fill="#b3cdfa"/>
              <rect id="Rectangle_1372" data-name="Rectangle 1372" width="1.674" height="12.494" transform="translate(5.314 21.346)" fill="#4085e2"/>
              <rect id="Rectangle_1373" data-name="Rectangle 1373" width="1.675" height="17.684" transform="translate(9.611 16.157)" fill="#4085e2"/>
              <rect id="Rectangle_1374" data-name="Rectangle 1374" width="1.675" height="20.323" transform="translate(13.908 13.518)" fill="#4085e2"/>
              <rect id="Rectangle_1375" data-name="Rectangle 1375" width="1.674" height="17.684" transform="translate(18.205 16.157)" fill="#4085e2"/>
              <rect id="Rectangle_1376" data-name="Rectangle 1376" width="1.675" height="22.873" transform="translate(22.502 10.967)" fill="#4085e2"/>
              <rect id="Rectangle_1377" data-name="Rectangle 1377" width="1.674" height="25.688" transform="translate(26.8 8.152)" fill="#4085e2"/>
              <path id="Path_13540" data-name="Path 13540" d="M4054.087,905.945a4.642,4.642,0,1,1-4.642-4.642,4.642,4.642,0,0,1,4.642,4.642Z" transform="translate(-4006.508 -895.672)" fill="#b3cdfa"/>
              <rect id="Rectangle_1378" data-name="Rectangle 1378" width="37.541" height="1.25" transform="translate(50.079 6.365)" fill="#b3cdfa"/>
              <rect id="Rectangle_1379" data-name="Rectangle 1379" width="37.541" height="1.25" transform="translate(50.079 10.005)" fill="#b3cdfa"/>
              <rect id="Rectangle_1380" data-name="Rectangle 1380" width="15.727" height="1.25" transform="translate(50.079 13.645)" fill="#b3cdfa"/>
              <path id="Path_13541" data-name="Path 13541" d="M4054.087,965.951a4.642,4.642,0,1,1-4.642-4.642A4.642,4.642,0,0,1,4054.087,965.951Z" transform="translate(-4006.508 -937.733)" fill="#b3cdfa"/>
              <rect id="Rectangle_1381" data-name="Rectangle 1381" width="37.541" height="1.25" transform="translate(50.079 24.309)" fill="#b3cdfa"/>
              <rect id="Rectangle_1382" data-name="Rectangle 1382" width="37.541" height="1.25" transform="translate(50.079 27.949)" fill="#b3cdfa"/>
              <rect id="Rectangle_1383" data-name="Rectangle 1383" width="15.727" height="1.25" transform="translate(50.079 31.59)" fill="#b3cdfa"/>
            </g>
            <g id="Group_3376" data-name="Group 3376" transform="translate(40.449 7.8)">
              <rect id="Rectangle_1384" data-name="Rectangle 1384" width="110.394" height="57.859" rx="1.96" fill="url(#linear-gradient-2)"/>
              <rect id="Rectangle_1385" data-name="Rectangle 1385" width="6.418" height="3.256" transform="translate(5.526 4.683)" fill="#d1e1fc"/>
              <rect id="Rectangle_1386" data-name="Rectangle 1386" width="49.317" height="3.256" transform="translate(54.132 9.901)" fill="#d1e1fc"/>
              <rect id="Rectangle_1387" data-name="Rectangle 1387" width="49.317" height="3.256" transform="translate(54.132 19.086)" fill="#d1e1fc"/>
              <rect id="Rectangle_1388" data-name="Rectangle 1388" width="49.317" height="3.256" transform="translate(54.132 28.272)" fill="#d1e1fc"/>
              <rect id="Rectangle_1389" data-name="Rectangle 1389" width="28.258" height="3.256" transform="translate(54.132 37.457)" fill="#d1e1fc"/>
              <rect id="Rectangle_1390" data-name="Rectangle 1390" width="6.418" height="3.256" transform="translate(5.526 13.677)" fill="#d1e1fc"/>
              <rect id="Rectangle_1391" data-name="Rectangle 1391" width="6.418" height="3.256" transform="translate(5.526 22.671)" fill="#d1e1fc"/>
              <rect id="Rectangle_1392" data-name="Rectangle 1392" width="6.418" height="3.256" transform="translate(5.526 31.664)" fill="#d1e1fc"/>
              <rect id="Rectangle_1393" data-name="Rectangle 1393" width="6.418" height="3.256" transform="translate(5.526 40.658)" fill="#d1e1fc"/>
              <rect id="Rectangle_1394" data-name="Rectangle 1394" width="6.418" height="3.256" transform="translate(5.526 49.652)" fill="#d1e1fc"/>
              <g id="Group_3375" data-name="Group 3375" transform="translate(17.779 5.6)">
                <path id="Path_13576" data-name="Path 13576" d="M4164.424,639.919v15.108l.008.007,10.659,10.688a15.058,15.058,0,0,0,4.438-10.651c0-.014,0-.03,0-.044A15.108,15.108,0,0,0,4164.424,639.919Z" transform="translate(-4148.583 -639.919)" fill="#b3cdfa"/>
                <path id="Path_13577" data-name="Path 13577" d="M4115.9,644.33A15.061,15.061,0,0,0,4111.461,655l15.1.036V639.919A15.06,15.06,0,0,0,4115.9,644.33Z" transform="translate(-4111.459 -639.919)" fill="#70a4e9"/>
                <path id="Path_13578" data-name="Path 13578" d="M4126.571,692.828h-.008l-15.1-.037c0,.01,0,.019,0,.03a15.106,15.106,0,0,0,25.773,10.7Z" transform="translate(-4111.456 -676.979)" fill="#b3cdfa"/>
              </g>
            </g>
            <g id="Group_3377" data-name="Group 3377" transform="translate(166.872)">
              <rect id="Rectangle_1395" data-name="Rectangle 1395" width="87.08" height="51.351" fill="url(#linear-gradient-3)"/>
              <rect id="Rectangle_1396" data-name="Rectangle 1396" width="87.08" height="11.446" fill="#b3cdfa"/>
              <path id="Path_13579" data-name="Path 13579" d="M4484.823,690.257h78.832c-.128,0,.2-18.723-.045-20.605-2.866,1.506-5.05,4.39-8.089,5.894a13.782,13.782,0,0,1-8.135,1.486c-2.565-.432-4.652-2.366-7.286-2.542-3.42-.229-5.736,2.557-8.178,4.469-3.429,2.684-7.779,5.94-12.2,6.614-2.851.435-5.151-.841-6.921-2.986-2.295-2.779-3.467-5.3-7.358-5.838a12.188,12.188,0,0,0-8.861,2.232c-2.982,2.324-4.762,6.144-8.186,7.747-1.214.568-.979.8-2.313.688-.873-.071-.308-1.258-1.082-.581C4484.434,687.331,4484.823,689.5,4484.823,690.257Z" transform="translate(-4481.717 -647.36)" fill="#b3cdfa"/>
            </g>
            <g id="Group_3379" data-name="Group 3379" transform="translate(258.793 113.666)">
              <path id="Path_13580" data-name="Path 13580" d="M4833.792,991.694c2.076,1.811,8.583-.588,26.13-.588s24.054,2.4,26.13.588c3.589-3.129-8.71-16.5-26.13-16.5S4830.2,988.566,4833.792,991.694Z" transform="translate(-4817.899 -975.19)" fill="#fff"/>
              <g id="Group_3378" data-name="Group 3378" transform="translate(15.29)">
                <path id="Path_13581" data-name="Path 13581" d="M4833.716,1019.19c-.647,1.442-.669,2.652.125,3.345,1.769,1.542,6.778.034,19.061-.449C4843.848,1020.235,4837.717,1019.659,4833.716,1019.19Z" transform="translate(-4833.237 -1006.032)" fill="#c9e0f5"/>
                <path id="Path_13582" data-name="Path 13582" d="M4911.679,975.19a33.836,33.836,0,0,0-4.672.357c.422.071.837.112,1.262.2,11.864,2.457,19.975,10.738,22.429,16.345,3.977.362,6.088.5,7.113-.4C4941.4,988.566,4929.1,975.19,4911.679,975.19Z" transform="translate(-4884.945 -975.19)" fill="#c9e0f5"/>
              </g>
              <rect id="Rectangle_1397" data-name="Rectangle 1397" width="68.82" height="7.057" transform="translate(7.007 13.018)" fill="#dbeaf9"/>
              <rect id="Rectangle_1398" data-name="Rectangle 1398" width="80.155" height="120.326" transform="translate(2.116 18.423)" fill="#fff"/>
              <rect id="Rectangle_1399" data-name="Rectangle 1399" width="4.765" height="120.326" transform="translate(77.505 18.423)" fill="#c9e0f5"/>
              <rect id="Rectangle_1400" data-name="Rectangle 1400" width="4.891" height="120.326" transform="translate(2.116 18.423)" fill="#c9e0f5"/>
              <rect id="Rectangle_1401" data-name="Rectangle 1401" width="10.09" height="10.09" transform="translate(11.636 33.495)" fill="#a8d9fb"/>
              <rect id="Rectangle_1402" data-name="Rectangle 1402" width="10.09" height="10.09" transform="translate(28.761 33.495)" fill="#a8d9fb"/>
              <rect id="Rectangle_1403" data-name="Rectangle 1403" width="10.09" height="10.09" transform="translate(45.884 33.495)" fill="#a8d9fb"/>
              <rect id="Rectangle_1404" data-name="Rectangle 1404" width="10.09" height="10.09" transform="translate(63.008 33.495)" fill="#a8d9fb"/>
              <rect id="Rectangle_1405" data-name="Rectangle 1405" width="10.09" height="10.09" transform="translate(11.55 51.201)" fill="#a8d9fb"/>
              <rect id="Rectangle_1406" data-name="Rectangle 1406" width="10.09" height="10.09" transform="translate(28.674 51.201)" fill="#a8d9fb"/>
              <rect id="Rectangle_1407" data-name="Rectangle 1407" width="10.09" height="10.09" transform="translate(45.798 51.201)" fill="#a8d9fb"/>
              <rect id="Rectangle_1408" data-name="Rectangle 1408" width="10.09" height="10.09" transform="translate(62.922 51.201)" fill="#a8d9fb"/>
              <rect id="Rectangle_1409" data-name="Rectangle 1409" width="10.09" height="10.09" transform="translate(11.464 68.907)" fill="#a8d9fb"/>
              <rect id="Rectangle_1410" data-name="Rectangle 1410" width="10.09" height="10.09" transform="translate(28.588 68.907)" fill="#a8d9fb"/>
              <rect id="Rectangle_1411" data-name="Rectangle 1411" width="10.09" height="10.09" transform="translate(45.712 68.907)" fill="#a8d9fb"/>
              <rect id="Rectangle_1412" data-name="Rectangle 1412" width="10.09" height="10.09" transform="translate(62.836 68.907)" fill="#a8d9fb"/>
              <rect id="Rectangle_1413" data-name="Rectangle 1413" width="10.09" height="10.09" transform="translate(11.378 86.614)" fill="#a8d9fb"/>
              <rect id="Rectangle_1414" data-name="Rectangle 1414" width="10.09" height="10.09" transform="translate(28.503 86.614)" fill="#a8d9fb"/>
              <rect id="Rectangle_1415" data-name="Rectangle 1415" width="10.09" height="10.09" transform="translate(45.626 86.614)" fill="#a8d9fb"/>
              <rect id="Rectangle_1416" data-name="Rectangle 1416" width="10.09" height="10.09" transform="translate(62.75 86.614)" fill="#a8d9fb"/>
              <rect id="Rectangle_1417" data-name="Rectangle 1417" width="10.09" height="10.09" transform="translate(11.292 104.32)" fill="#a8d9fb"/>
              <rect id="Rectangle_1418" data-name="Rectangle 1418" width="10.09" height="10.09" transform="translate(28.416 104.32)" fill="#a8d9fb"/>
              <rect id="Rectangle_1419" data-name="Rectangle 1419" width="10.09" height="10.09" transform="translate(45.54 104.32)" fill="#a8d9fb"/>
              <rect id="Rectangle_1420" data-name="Rectangle 1420" width="10.09" height="10.09" transform="translate(62.664 104.32)" fill="#a8d9fb"/>
              <rect id="Rectangle_1421" data-name="Rectangle 1421" width="22.332" height="16.708" transform="translate(31.107 122.041)" fill="#cbe8fd"/>
              <rect id="Rectangle_1422" data-name="Rectangle 1422" width="11.166" height="16.708" transform="translate(42.272 122.041)" fill="#a8d9fb"/>
              <path id="Path_13583" data-name="Path 13583" d="M4869.342,1046.833l-80.155,3.773v-9.573h80.155Z" transform="translate(-4787.071 -1021.343)" fill="#a5cbef" opacity="0.2" style="isolation: isolate"/>
              <rect id="Rectangle_1423" data-name="Rectangle 1423" width="86.049" height="7.057" transform="translate(0 16.547)" fill="#fff"/>
              <rect id="Rectangle_1424" data-name="Rectangle 1424" width="12.664" height="1.983" transform="translate(9.874 42.3)" fill="#1067db"/>
              <rect id="Rectangle_1425" data-name="Rectangle 1425" width="12.663" height="1.983" transform="translate(27.264 42.3)" fill="#1067db"/>
              <rect id="Rectangle_1426" data-name="Rectangle 1426" width="12.663" height="1.983" transform="translate(44.63 42.3)" fill="#1067db"/>
              <rect id="Rectangle_1427" data-name="Rectangle 1427" width="12.663" height="1.983" transform="translate(61.971 42.3)" fill="#1067db"/>
              <rect id="Rectangle_1428" data-name="Rectangle 1428" width="12.664" height="1.984" transform="translate(9.874 60.299)" fill="#1067db"/>
              <rect id="Rectangle_1429" data-name="Rectangle 1429" width="12.663" height="1.984" transform="translate(27.258 60.299)" fill="#1067db"/>
              <rect id="Rectangle_1430" data-name="Rectangle 1430" width="12.663" height="1.984" transform="translate(44.624 60.299)" fill="#1067db"/>
              <rect id="Rectangle_1431" data-name="Rectangle 1431" width="12.663" height="1.984" transform="translate(61.971 60.299)" fill="#1067db"/>
              <rect id="Rectangle_1432" data-name="Rectangle 1432" width="12.664" height="1.984" transform="translate(9.874 78.298)" fill="#1067db"/>
              <rect id="Rectangle_1433" data-name="Rectangle 1433" width="12.663" height="1.984" transform="translate(27.252 78.298)" fill="#1067db"/>
              <rect id="Rectangle_1434" data-name="Rectangle 1434" width="12.663" height="1.984" transform="translate(44.618 78.298)" fill="#1067db"/>
              <rect id="Rectangle_1435" data-name="Rectangle 1435" width="12.663" height="1.984" transform="translate(61.971 78.298)" fill="#1067db"/>
              <rect id="Rectangle_1436" data-name="Rectangle 1436" width="12.664" height="1.984" transform="translate(9.874 96.297)" fill="#1067db"/>
              <rect id="Rectangle_1437" data-name="Rectangle 1437" width="12.663" height="1.984" transform="translate(27.246 96.297)" fill="#1067db"/>
              <rect id="Rectangle_1438" data-name="Rectangle 1438" width="12.663" height="1.984" transform="translate(44.611 96.297)" fill="#1067db"/>
              <rect id="Rectangle_1439" data-name="Rectangle 1439" width="12.663" height="1.984" transform="translate(61.971 96.297)" fill="#1067db"/>
              <rect id="Rectangle_1440" data-name="Rectangle 1440" width="12.664" height="1.983" transform="translate(9.874 114.296)" fill="#1067db"/>
              <rect id="Rectangle_1441" data-name="Rectangle 1441" width="12.664" height="1.983" transform="translate(27.239 114.296)" fill="#1067db"/>
              <rect id="Rectangle_1442" data-name="Rectangle 1442" width="12.663" height="1.983" transform="translate(44.605 114.296)" fill="#1067db"/>
              <rect id="Rectangle_1443" data-name="Rectangle 1443" width="12.663" height="1.983" transform="translate(61.971 114.296)" fill="#1067db"/>
            </g>
            <g id="Group_3412" data-name="Group 3412" transform="translate(228.153 41.683)">
              <rect id="Rectangle_1444" data-name="Rectangle 1444" width="43.509" height="171.029" transform="translate(1.892 39.702)" fill="#e4edf8"/>
              <path id="Path_13584" data-name="Path 13584" d="M4711.594,734.681a.354.354,0,0,0-.478-.148.359.359,0,0,0-.147.146l-19.926,37.256h40.1Z" transform="translate(-4687.638 -734.492)" fill="#e4edf8"/>
              <g id="Group_3380" data-name="Group 3380" transform="translate(1.892 39.702)">
                <path id="Path_13585" data-name="Path 13585" d="M4729.491,1271.831l-43.509-43.509v13.162l43.509,43.509Z" transform="translate(-4685.982 -1120.34)" fill="#e4edf8"/>
                <path id="Path_13586" data-name="Path 13586" d="M4685.982,1050.411l43.509,43.509v-13.162l-43.509-43.509Z" transform="translate(-4685.982 -986.409)" fill="#e4edf8"/>
                <path id="Path_13587" data-name="Path 13587" d="M4702.385,867.249h-16.4v45.128l43.509,43.509V894.355Z" transform="translate(-4685.982 -867.249)" fill="#e4edf8"/>
              </g>
              <rect id="Rectangle_1445" data-name="Rectangle 1445" width="47.292" height="5.024" transform="translate(0 37.442)" fill="#e4edf8"/>
              <g id="Group_3381" data-name="Group 3381" transform="translate(10.876 31.66)">
                <rect id="Rectangle_1446" data-name="Rectangle 1446" width="2.27" height="1.706" fill="#e4edf8"/>
              </g>
              <g id="Group_3382" data-name="Group 3382" transform="translate(16.551 31.66)">
                <rect id="Rectangle_1447" data-name="Rectangle 1447" width="2.269" height="1.706" fill="#e4edf8"/>
              </g>
              <g id="Group_3383" data-name="Group 3383" transform="translate(22.227 31.66)">
                <rect id="Rectangle_1448" data-name="Rectangle 1448" width="2.269" height="1.706" fill="#e4edf8"/>
              </g>
              <g id="Group_3384" data-name="Group 3384" transform="translate(27.901 31.66)">
                <rect id="Rectangle_1449" data-name="Rectangle 1449" width="2.269" height="1.706" fill="#e4edf8"/>
              </g>
              <g id="Group_3385" data-name="Group 3385" transform="translate(33.575 31.66)">
                <rect id="Rectangle_1450" data-name="Rectangle 1450" width="2.27" height="1.706" fill="#e4edf8"/>
              </g>
              <g id="Group_3386" data-name="Group 3386" transform="translate(4.348 46.973)">
                <rect id="Rectangle_1451" data-name="Rectangle 1451" width="38.307" height="1.706" fill="#e4edf8"/>
              </g>
              <g id="Group_3387" data-name="Group 3387" transform="translate(4.348 53.227)">
                <rect id="Rectangle_1452" data-name="Rectangle 1452" width="38.307" height="1.706" fill="#e4edf8"/>
              </g>
              <g id="Group_3388" data-name="Group 3388" transform="translate(4.348 59.478)">
                <rect id="Rectangle_1453" data-name="Rectangle 1453" width="38.307" height="1.706" fill="#e4edf8"/>
              </g>
              <g id="Group_3389" data-name="Group 3389" transform="translate(4.348 65.73)">
                <rect id="Rectangle_1454" data-name="Rectangle 1454" width="38.307" height="1.706" fill="#e4edf8"/>
              </g>
              <g id="Group_3390" data-name="Group 3390" transform="translate(4.348 71.983)">
                <rect id="Rectangle_1455" data-name="Rectangle 1455" width="38.307" height="1.706" fill="#e4edf8"/>
              </g>
              <g id="Group_3391" data-name="Group 3391" transform="translate(4.348 78.235)">
                <rect id="Rectangle_1456" data-name="Rectangle 1456" width="38.307" height="1.706" fill="#e4edf8"/>
              </g>
              <g id="Group_3392" data-name="Group 3392" transform="translate(4.348 84.488)">
                <rect id="Rectangle_1457" data-name="Rectangle 1457" width="38.307" height="1.706" fill="#e4edf8"/>
              </g>
              <g id="Group_3393" data-name="Group 3393" transform="translate(4.348 90.739)">
                <rect id="Rectangle_1458" data-name="Rectangle 1458" width="38.307" height="1.706" fill="#e4edf8"/>
              </g>
              <g id="Group_3394" data-name="Group 3394" transform="translate(4.348 96.991)">
                <rect id="Rectangle_1459" data-name="Rectangle 1459" width="38.307" height="1.706" fill="#e4edf8"/>
              </g>
              <g id="Group_3395" data-name="Group 3395" transform="translate(4.348 103.244)">
                <rect id="Rectangle_1460" data-name="Rectangle 1460" width="38.307" height="1.706" fill="#e4edf8"/>
              </g>
              <g id="Group_3396" data-name="Group 3396" transform="translate(4.348 109.496)">
                <rect id="Rectangle_1461" data-name="Rectangle 1461" width="38.307" height="1.706" fill="#e4edf8"/>
              </g>
              <g id="Group_3397" data-name="Group 3397" transform="translate(4.348 115.749)">
                <rect id="Rectangle_1462" data-name="Rectangle 1462" width="38.307" height="1.706" fill="#e4edf8"/>
              </g>
              <g id="Group_3398" data-name="Group 3398" transform="translate(4.348 122.001)">
                <rect id="Rectangle_1463" data-name="Rectangle 1463" width="38.307" height="1.706" fill="#e4edf8"/>
              </g>
              <g id="Group_3399" data-name="Group 3399" transform="translate(4.348 128.252)">
                <rect id="Rectangle_1464" data-name="Rectangle 1464" width="38.307" height="1.706" fill="#e4edf8"/>
              </g>
              <g id="Group_3400" data-name="Group 3400" transform="translate(4.348 134.505)">
                <rect id="Rectangle_1465" data-name="Rectangle 1465" width="38.307" height="1.706" fill="#e4edf8"/>
              </g>
              <g id="Group_3401" data-name="Group 3401" transform="translate(4.348 140.757)">
                <rect id="Rectangle_1466" data-name="Rectangle 1466" width="38.307" height="1.706" fill="#e4edf8"/>
              </g>
              <g id="Group_3402" data-name="Group 3402" transform="translate(4.348 147.008)">
                <rect id="Rectangle_1467" data-name="Rectangle 1467" width="38.307" height="1.706" fill="#e4edf8"/>
              </g>
              <g id="Group_3403" data-name="Group 3403" transform="translate(4.348 153.262)">
                <rect id="Rectangle_1468" data-name="Rectangle 1468" width="38.307" height="1.706" fill="#e4edf8"/>
              </g>
              <g id="Group_3404" data-name="Group 3404" transform="translate(4.348 159.513)">
                <rect id="Rectangle_1469" data-name="Rectangle 1469" width="38.307" height="1.706" fill="#e4edf8"/>
              </g>
              <g id="Group_3405" data-name="Group 3405" transform="translate(4.348 165.765)">
                <rect id="Rectangle_1470" data-name="Rectangle 1470" width="38.307" height="1.706" fill="#e4edf8"/>
              </g>
              <g id="Group_3406" data-name="Group 3406" transform="translate(4.348 172.018)">
                <rect id="Rectangle_1471" data-name="Rectangle 1471" width="38.307" height="1.706" fill="#e4edf8"/>
              </g>
              <g id="Group_3407" data-name="Group 3407" transform="translate(4.348 178.27)">
                <rect id="Rectangle_1472" data-name="Rectangle 1472" width="38.307" height="1.706" fill="#e4edf8"/>
              </g>
              <g id="Group_3408" data-name="Group 3408" transform="translate(4.348 184.523)">
                <rect id="Rectangle_1473" data-name="Rectangle 1473" width="38.307" height="1.706" fill="#e4edf8"/>
              </g>
              <g id="Group_3409" data-name="Group 3409" transform="translate(4.348 190.774)">
                <rect id="Rectangle_1474" data-name="Rectangle 1474" width="38.307" height="1.706" fill="#e4edf8"/>
              </g>
              <g id="Group_3410" data-name="Group 3410" transform="translate(4.348 197.026)">
                <rect id="Rectangle_1475" data-name="Rectangle 1475" width="38.307" height="1.706" fill="#e4edf8"/>
              </g>
              <g id="Group_3411" data-name="Group 3411" transform="translate(4.348 203.279)">
                <rect id="Rectangle_1476" data-name="Rectangle 1476" width="38.307" height="1.706" fill="#e4edf8"/>
              </g>
            </g>
            <g id="Group_3413" data-name="Group 3413" transform="translate(27.332 106.994)">
              <path id="Rectangle_1477" data-name="Rectangle 1477" d="M4048.653,952.882h205.212a.374.374,0,0,1,.374.374v129.079H4048.279V953.256A.374.374,0,0,1,4048.653,952.882Z" transform="translate(-4036.277 -952.882)" fill="#54afe6"/>
              <path id="Path_13588" data-name="Path 13588" d="M4238.109,1405.125H4008.145a34.987,34.987,0,0,0,24.667,10.174h180.631a34.989,34.989,0,0,0,24.667-10.174Z" transform="translate(-4008.145 -1269.878)" fill="#dbeaf9"/>
              <rect id="Rectangle_1479" data-name="Rectangle 1479" width="229.964" height="6.467" transform="translate(0 128.779)" fill="#fff"/>
              <path id="Path_13589" data-name="Path 13589" d="M4369.376,1391.947h-28.467a1.765,1.765,0,0,1-1.759-1.76h0a1.765,1.765,0,0,1,1.759-1.76h28.467a1.765,1.765,0,0,1,1.759,1.76h0A1.765,1.765,0,0,1,4369.376,1391.947Z" transform="translate(-4240.16 -1258.175)" fill="#dbeaf9"/>
            </g>
            <path id="Path_13590" data-name="Path 13590" d="M4247.693,1069.435H4098.029l-19.616-118.987h186.338Z" transform="translate(-4030.067 -844.182)" fill="#fff" opacity="0.3" style="isolation: isolate"/>
            <g id="Group_3415" data-name="Group 3415" transform="translate(67.247 46.124)">
              <g id="Group_3414" data-name="Group 3414">
                <path id="Rectangle_1480" data-name="Rectangle 1480" d="M4141.965,749.344h149.306a.351.351,0,0,1,.35.351V930.009H4141.614V749.7A.351.351,0,0,1,4141.965,749.344Z" transform="translate(-4141.614 -749.344)" fill="#fff"/>
                <path id="Path_13591" data-name="Path 13591" d="M4291.622,771.923V754.542a5.2,5.2,0,0,0-5.2-5.2H4146.812a5.2,5.2,0,0,0-5.2,5.2v17.381Z" transform="translate(-4141.614 -749.344)" fill="#2f4e9e"/>
                <rect id="Rectangle_1481" data-name="Rectangle 1481" width="106.202" height="45.631" transform="translate(21.619 26.768)" fill="#dbeaf9"/>
                <path id="Path_13592" data-name="Path 13592" d="M4183.448,767.639a1.509,1.509,0,1,1-1.51-1.508h0a1.509,1.509,0,0,1,1.509,1.508Z" transform="translate(-4168.821 -761.111)" fill="#fff"/>
                <path id="Path_13593" data-name="Path 13593" d="M4200.264,767.639a1.509,1.509,0,1,1-1.509-1.508h0a1.508,1.508,0,0,1,1.509,1.508Z" transform="translate(-4180.609 -761.111)" fill="#fff"/>
                <path id="Path_13594" data-name="Path 13594" d="M4217.082,767.639a1.51,1.51,0,1,1-1.511-1.508h0a1.509,1.509,0,0,1,1.511,1.508Z" transform="translate(-4192.396 -761.111)" fill="#fff"/>
                <path id="Path_13595" data-name="Path 13595" d="M4610.271,749.344h-6.641a5.2,5.2,0,0,1,5.2,5.2h0V930.01h6.64V754.542A5.2,5.2,0,0,0,4610.271,749.344Z" transform="translate(-4465.46 -749.344)" fill="#414042" opacity="0.2" style="isolation: isolate"/>
                <rect id="Rectangle_1482" data-name="Rectangle 1482" width="96.382" height="4.344" transform="translate(29.664 13.118)" fill="#fafcff"/>
              </g>
              <path id="Path_13597" data-name="Path 13597" d="M4388.9,932.988l53.867,14.293Z" transform="translate(-4314.949 -878.068)" fill="#ff5722"/>
            </g>
            <g id="Group_3477" data-name="Group 3477" transform="translate(282.711 80.381)">
              <g id="Group_3475" data-name="Group 3475" transform="translate(32.841 0.261)">
                <rect id="Rectangle_1518" data-name="Rectangle 1518" width="26.199" height="28.796" fill="url(#linear-gradient-4)"/>
                <rect id="Rectangle_1519" data-name="Rectangle 1519" width="7.722" height="10.19" transform="translate(4.446 3.036)" fill="#d1e1fc"/>
                <rect id="Rectangle_1520" data-name="Rectangle 1520" width="18.496" height="1.783" transform="translate(4.446 15.647)" fill="#d1e1fc"/>
                <rect id="Rectangle_1521" data-name="Rectangle 1521" width="18.496" height="1.783" transform="translate(4.446 19.851)" fill="#d1e1fc"/>
                <rect id="Rectangle_1522" data-name="Rectangle 1522" width="11.806" height="1.783" transform="translate(4.446 24.054)" fill="#d1e1fc"/>
                <rect id="Rectangle_1523" data-name="Rectangle 1523" width="9.248" height="1.783" transform="translate(13.693 3.036)" fill="#d1e1fc"/>
                <rect id="Rectangle_1524" data-name="Rectangle 1524" width="9.248" height="1.783" transform="translate(13.693 7.24)" fill="#d1e1fc"/>
                <rect id="Rectangle_1525" data-name="Rectangle 1525" width="9.248" height="1.783" transform="translate(13.693 11.443)" fill="#d1e1fc"/>
              </g>
              <g id="Group_3476" data-name="Group 3476">
                <rect id="Rectangle_1526" data-name="Rectangle 1526" width="26.199" height="28.796" fill="url(#linear-gradient-5)"/>
                <rect id="Rectangle_1527" data-name="Rectangle 1527" width="23.844" height="1.783" transform="translate(1.614 24.055)" fill="#b3cdfa"/>
                <rect id="Rectangle_1528" data-name="Rectangle 1528" width="3.156" height="5.986" transform="translate(2.58 16.917)" fill="#b3cdfa"/>
                <rect id="Rectangle_1529" data-name="Rectangle 1529" width="3.157" height="10.993" transform="translate(7.236 11.911)" fill="#b3cdfa"/>
                <rect id="Rectangle_1530" data-name="Rectangle 1530" width="3.157" height="17.902" transform="translate(11.893 5.001)" fill="#b3cdfa"/>
                <rect id="Rectangle_1531" data-name="Rectangle 1531" width="3.156" height="13.451" transform="translate(16.55 9.452)" fill="#b3cdfa"/>
                <rect id="Rectangle_1532" data-name="Rectangle 1532" width="3.156" height="17.902" transform="translate(21.207 5.001)" fill="#b3cdfa"/>
              </g>
            </g>
          </g>
          <path id="Path_2031" data-name="Path 2031" d="M4429.673,1502.732a10.6,10.6,0,0,1,1.555,8.769c-1.436,4.862-7.134,6.018-14.348,5.1s-21.843-4.384-21.843-4.384S4421.462,1498.945,4429.673,1502.732Z" transform="translate(-335.251 -675.684)" fill="#272c48"/>
          <path id="Path_2032" data-name="Path 2032" d="M4204.973,1421.732c-.12.04-1.914,1-2.112,1.116l-.8,10.323-36.868,6.417s-5.541-1.275-15.863-5.859c-10.284-4.544-16.5-10.921-12.635-21.8a9.62,9.62,0,0,1,4.3-5.341c6.417-3.709,17.5-.718,26.665,2.192.958.319,1.994.638,3.111,1l.079.04a50.419,50.419,0,0,1,12.436,3.827c3.706,1.714,10.323,4.105,15.225,5.859C4202.223,1420.775,4204.973,1421.732,4204.973,1421.732Z" transform="translate(-153.358 -607.558)" fill="#353a55"/>
          <path id="Path_2033" data-name="Path 2033" d="M4197.312,1426.805c-5.978-1.634-35.951-9.925-42.129-14.588-2.751-2.073-2.83-4.026-2.072-5.5,6.417-3.708,17.5-.718,26.665,2.192.957.319,1.992.638,3.108,1l.08.04a50.417,50.417,0,0,1,12.436,3.827c3.708,1.714,10.324,4.105,15.226,5.859C4213.3,1426.327,4202.732,1428.28,4197.312,1426.805Z" transform="translate(-165.387 -607.649)" fill="#272c48"/>
          <path id="Path_2034" data-name="Path 2034" d="M4385.386,1432.831c-5.779,5.978-11.8,6.018-19.57,7.254-7.772,1.276-29.535,7.174-40.734,7.852-11.161.677-23.038,1.714-23.038,1.714s-3.547-11.2-1-17.338c0,0,23.675-9.645,29.813-12.755s25.908-8.609,25.908-8.609a45.028,45.028,0,0,1,6.1-1.714c5.421-1.116,13.312-1.794,19.092,1.953a20.574,20.574,0,0,1,4.544,3.986C4391.2,1421.033,4390.009,1428.048,4385.386,1432.831Z" transform="translate(-268.723 -610.008)" fill="#272c48"/>
          <path id="Path_2035" data-name="Path 2035" d="M4525.25,1421.884c-9.525,5.779-25.151,1.833-23-4.066a35.445,35.445,0,0,0,2.113-8.45c5.42-1.116,13.313-1.794,19.091,1.953a20.578,20.578,0,0,1,4.544,3.986C4529.155,1417.459,4528.757,1419.81,4525.25,1421.884Z" transform="translate(-410.262 -610.101)" fill="#353a55"/>
          <path id="Path_2036" data-name="Path 2036" d="M4303.771,1278.7c-5.78,7.454-21.284,16.381-31.089,21.921a22.1,22.1,0,0,0-2.59-6.1,18.861,18.861,0,0,0-4.583-5.1,11.967,11.967,0,0,1-2.352.438h-.438l.12-1.754v-.318c.12-.08.757-.4,1.315-.718h.041a8.217,8.217,0,0,0,.757-.4.126.126,0,0,1-.08-.039c-.837-.279-9.646-3.269-16.461-5.9-1.953-.758-3.707-1.475-5.1-2.113a49.11,49.11,0,0,0-7.532-2.711,7.114,7.114,0,0,0,1.275-2.949h0l-.359.12c-.04,0-.04,0-.08.04-.479.159-.958.319-1.436.438-.08.04-.16.04-.24.08s-.2.04-.279.08-.16.04-.239.08a27.523,27.523,0,0,1-4.823.718c-1.594-.518-4.145-1.395-4.9-1.594-2.512-1.754-3.589-4.783-3.589-7.932a102.508,102.508,0,0,1,2.71-17.7c1.914-8.41,4.743-17.218,8.011-21.244,3.627-4.424,12.436-8.49,19.012-11.04,4.544-1.794,8.052-2.83,8.052-2.83l-1.276,1.675a7.948,7.948,0,0,1,2.591-.279l14.428,2.512.239.12,1.594-3.428a25.035,25.035,0,0,1,8.25,2.192,41.538,41.538,0,0,1,8.371,4.863c8.848,6.536,10.6,10.283,12.236,20.805l.239,1.675C4307.279,1254.151,4310.427,1270.054,4303.771,1278.7Z" transform="translate(-213.335 -472.501)" fill="#d9811a"/>
          <path id="Path_2037" data-name="Path 2037" d="M4269.724,1415.828c-.479.159-.957.319-1.436.438C4268.767,1416.147,4269.246,1415.987,4269.724,1415.828Z" transform="translate(-246.408 -615.245)" fill="#6d5ac7"/>
          <path id="Path_2038" data-name="Path 2038" d="M4306.867,1268.234c-.6,6.856-5.818,10.483-11.479,17.258-5.221,6.218-13.631,12.834-18.853,15.345a8.628,8.628,0,0,1-1.316.558c-3.469,1.316-4.982-2.671-5.581-5.221a14.248,14.248,0,0,1-.318-1.753.7.7,0,0,1-.04-.2l.04-.039c.12-.08.6-.359,1.316-.8h.04c.2-.12.438-.239.678-.4,1.953-1.2,5.221-3.23,9.406-5.979,7.015-4.663,12.834-10.881,14.747-15.425,1.953-4.543.24-13.153-.717-17.856s-2.83-12.954-2.83-12.954-.359,0-1.754,15.425-5.1,16.859-10.4,20.007c-5.381,3.11-.957,3.707-3.547,5.1-2.232,1.2-11.24,4.066-21.364,5.78-1.953-.757-3.707-1.475-5.1-2.113a49.145,49.145,0,0,0-7.534-2.711,7.1,7.1,0,0,0,1.276-2.949c8.648-2.83,18.374-8.809,19.809-9.765,1.993-1.276,11.12-7.533,12.715-8.649s1.235-1.754,1.235-1.754-.558-12.913-5.7-6.576c-5.141,6.377-27.023,19.251-32.762,18.773-5.78-.478-4.624-5.341-1.675-7.533s11.4-6.815,11.4-6.815l1.354-8.729c-3.627,5.62-11.678,14.03-16.262,11.04a8.318,8.318,0,0,1-3.35-5.739c1.915-8.41,4.744-17.219,8.011-21.244,3.627-4.425,12.436-8.49,19.013-11.041,4.025,1.953,13.073,8.689,20.366,6.975,5.022-1.2,8.569-4.743,13.472-7.015a41.518,41.518,0,0,1,8.37,4.862c8.849,6.537,10.6,10.283,12.236,20.806C4304.556,1249.5,4307.464,1261.618,4306.867,1268.234Z" transform="translate(-219.779 -478.852)" fill="#f8ac53"/>
          <path id="Path_2039" data-name="Path 2039" d="M4333.108,1464.874c2.79,1.4,7.692,4.942,9.844,12.834l-4.185,2.351c-8.809,4.982-14.149,6.537-16.9,1.555C4319.477,1477.349,4325.854,1470.016,4333.108,1464.874Z" transform="translate(-283.606 -649.624)" fill="#ffcebd"/>
          <path id="Path_2040" data-name="Path 2040" d="M4363.427,1271.565s-1-8.689-.6-10.522c2.153-.479,15.106-2.671,16.541-2.751.079,2.909.359,13.392.359,13.392Z" transform="translate(-312.609 -504.822)" fill="#1d2159"/>
          <path id="Path_2041" data-name="Path 2041" d="M4346.923,1287.909c2.59-1.395,4.583-2.512,5.1-2.869,1.753-1.2,5.7-7.733,7.493-6.218s.758,6.139.758,6.139c12.117-5.1,12.675,1,7.613,7.334-1.834,2.352-5.541,5.46-10.125,8.769C4352.343,1297.754,4348.4,1290.859,4346.923,1287.909Z" transform="translate(-301.526 -519.053)" fill="#ffcebd"/>
          <path id="Path_2042" data-name="Path 2042" d="M4317.707,1137.4s-4.743,1.4-4.9,5.7c-.08,4.344,5.9,4.942,5.9,4.942s-.2,10.841,7.812,14.428,16.94-.558,17.338-13.073c0,0,4.3-.757,4.942-4.066s-.438-4.344-2.631-5.3c0,0-2.632-9.407-4.344-10.8-1.634-1.4-10.363.12-10.363.12Z" transform="translate(-277.611 -413.944)" fill="#ffcebd"/>
          <path id="Path_2043" data-name="Path 2043" d="M4340.151,1109.447s-.319,2.232,1.794,5.5a30.091,30.091,0,0,0,3.11,4.225,3.937,3.937,0,0,1,1.236-1.475c.8-.518,2.033-.239,2.949,1.036,0,0,.638-4.544,1.157-8.729.438-4.225-2.513-8.37-7.892-5.341a20.148,20.148,0,0,0-11.36-8.012c-7.612-1.914-13.112,2.591-15.743,8.609s-.2,12.515,1.2,14.867a11.773,11.773,0,0,0,3.188,3.547s1.236-4.863,1.595-5.979C4321.338,1117.657,4332.418,1121.324,4340.151,1109.447Z" transform="translate(-278.611 -391.21)" fill="#000439"/>
          <path id="Path_2044" data-name="Path 2044" d="M4213.449,1489.129a41.039,41.039,0,0,0-.358,7.095c.159,2.83,1,8.011,1.355,9.964a1.663,1.663,0,0,0-.2.04c-3.428.677-21.8,4.026-30.93,5.141-9.087,1.116-11.559,1.077-3.308-6.656,8.211-7.732,17.417-12.635,21.045-12.914,3.588-.279,1.992,1.834,12.275-2.551C4213.409,1489.169,4213.449,1489.169,4213.449,1489.129Z" transform="translate(-181.006 -666.625)" fill="#4f4640"/>
          <g id="Group_28" data-name="Group 28" transform="translate(3985.867 631.28)">
            <g id="Group_25" data-name="Group 25" transform="translate(23.265 56.606)">
              <path id="Path_18" data-name="Path 18" d="M4262.135,1041.439l1.879,3.72c1.1,2.179.042,5.7-2.344,6.218l-3.939.859-1.968-13.248Z" transform="translate(-4246.76 -1038.988)" fill="#e23030"/>
              <path id="Path_19" data-name="Path 19" d="M4225.66,1059.493l9.167,19.028a4.751,4.751,0,0,0,5.113,2.243h0a4.749,4.749,0,0,0,3.667-5.449l-3.521-18.968Z" transform="translate(-4225.66 -1051.155)" fill="#ebeae4"/>
              <path id="Path_20" data-name="Path 20" d="M4242.624,1070.813a4.749,4.749,0,0,1-3.667,5.449h0a4.749,4.749,0,0,1-5.112-2.243l-7.06-14.767-1.125.245,9.167,19.028a4.75,4.75,0,0,0,5.113,2.243h0a4.748,4.748,0,0,0,3.667-5.449l-3.523-18.967-.147.032Z" transform="translate(-4225.66 -1051.158)" fill="#d9dadd"/>
            </g>
            <g id="Group_27" data-name="Group 27" transform="translate(8.526 0)">
              <path id="Path_21" data-name="Path 21" d="M4188.549,1000.916l-7.091-1.114-5.084-23.307,5.779-4.9Z" transform="translate(-4176.374 -935.14)" fill="#d9dadd"/>
              <g id="Group_26" data-name="Group 26" transform="translate(5.78)">
                <path id="Path_22" data-name="Path 22" d="M4258.187,853.406a11.143,11.143,0,0,0-8.849,10.78c.007,6.006-2.1,13.323-11.77,15.431l-41.868,9.13.625,2.867,5.145,23.6.625,2.867,41.868-9.13c9.666-2.107,14.63,3.666,17.125,9.129a11.14,11.14,0,0,0,12.533,6.117h0l-5.143-23.6-5.146-23.6-5.146-23.6Z" transform="translate(-4195.7 -852.299)" fill="#ebeae4"/>
                <rect id="Rectangle_42-2" data-name="Rectangle 42-2" width="5.196" height="72.447" transform="translate(62.486 1.107) rotate(-12.302)" fill="#d9dadd"/>
              </g>
              <rect id="Rectangle_43-2" data-name="Rectangle 43-2" width="30.017" height="30.017" transform="translate(15.16 34.402) rotate(-12.302)" fill="#e23030"/>
            </g>
            <path id="Path_23" data-name="Path 23" d="M4252,1012.992c-2.5-5.463-7.46-11.237-17.126-9.129l-41.868,9.13-7.092-1.115,2.232,10.231,7.091,1.116,41.868-9.13c9.665-2.108,14.63,3.666,17.126,9.129a11.139,11.139,0,0,0,12.533,6.117l5.077-1.107L4269.6,1018l-5.078,1.106A11.135,11.135,0,0,1,4252,1012.992Z" transform="translate(-4174.532 -957.45)" fill="#d9dadd"/>
            <rect id="Rectangle_44-2" data-name="Rectangle 44-2" width="8.727" height="23.855" transform="translate(0 43.212) rotate(-12.302)" fill="#e23030"/>
            <rect id="Rectangle_45-2" data-name="Rectangle 45-2" width="8.727" height="10.473" transform="translate(2.851 56.287) rotate(-12.302)" fill="#d9dadd"/>
            <rect id="Rectangle_46-2" data-name="Rectangle 46-2" width="6.246" height="17.698" rx="3.123" transform="translate(70.793 16.065) rotate(-12.302)" fill="#fff"/>
          </g>
          <path id="Path_284-2" data-name="Path 284-2" d="M4891.853,751.976A10.981,10.981,0,1,1,4880.872,741h0A10.981,10.981,0,0,1,4891.853,751.976Z" transform="translate(-668.097 -142.227)" fill="#fb2"/>
          <g id="Group_76-2" data-name="Group 76-2" transform="translate(4206.724 606.6)">
            <path id="Path_285-2" data-name="Path 285-2" d="M4890.274,769.771a.426.426,0,0,1-.426-.425h0a1.311,1.311,0,0,0-2.623-.026v.026a.426.426,0,1,1-.852.014v-.014a2.163,2.163,0,1,1,4.326,0,.426.426,0,0,1-.425.426Z" transform="translate(-4886.374 -767.181)" fill="#4d5068"/>
          </g>
          <g id="Group_77-2" data-name="Group 77-2" transform="translate(4214.5 606.599)">
            <path id="Path_286-2" data-name="Path 286-2" d="M4916.279,769.77a.426.426,0,0,1-.426-.425h0a1.311,1.311,0,0,0-2.623,0,.426.426,0,0,1-.852.014v-.014a2.164,2.164,0,1,1,4.327,0,.426.426,0,0,1-.425.426Z" transform="translate(-4912.378 -767.18)" fill="#4d5068"/>
          </g>
          <g id="Group_78-2" data-name="Group 78-2" transform="translate(4207.866 612.588)">
            <path id="Path_287-2" data-name="Path 287-2" d="M4900.012,787.205a4.909,4.909,0,0,1-9.819,0Z" transform="translate(-4890.193 -787.205)" fill="#fff"/>
          </g>
          <path id="Path_288-2" data-name="Path 288-2" d="M4891.743,794.08a4.889,4.889,0,0,0,8.89,0Z" transform="translate(-683.414 -179.436)" fill="#ff5722"/>
          <circle id="Ellipse_7-2" data-name="Ellipse 7-2" cx="15.025" cy="15.025" r="15.025" transform="translate(4025.387 586.315)" fill="#ef3f54"/>
          <path id="Path_289-2" data-name="Path 289-2" d="M4319.44,734.612a2.49,2.49,0,0,0-1.765.729l-3.226-2.209a2.289,2.289,0,0,0,.02-1.521l3.265-2.128a2.577,2.577,0,1,0-.643-.994l-3.221,2.1a2.5,2.5,0,1,0-.05,3.549l3.249,2.224a2.489,2.489,0,1,0,2.37-1.749Z" transform="translate(-275.356 -131.048)" fill="#fff"/>
          <circle id="Ellipse_8-2" data-name="Ellipse 8-2" cx="13.067" cy="13.067" r="13.067" transform="translate(4163.47 567.824)" fill="#32aaeb"/>
          <path id="Path_290-2" data-name="Path 290-2" d="M4776.035,668.182a2.165,2.165,0,0,0-1.534.635l-2.8-1.922a1.982,1.982,0,0,0,.017-1.322l2.84-1.851a2.243,2.243,0,1,0-.56-.865l-2.8,1.824a2.174,2.174,0,1,0-.043,3.086l2.825,1.935a2.138,2.138,0,0,0-.11.65,2.172,2.172,0,1,0,2.171-2.172h0Z" transform="translate(-596.304 -85.356)" fill="#fff"/>
          <g id="Group_82-2" data-name="Group 82-2" transform="translate(3977.906 599.778)">
            <path id="Path_291-2" data-name="Path 291-2" d="M4138.8,753.151a8.781,8.781,0,1,1-8.781-8.78h0A8.78,8.78,0,0,1,4138.8,753.151Z" transform="translate(-4121.243 -744.371)" fill="#393e87"/>
          </g>
          <g id="Group_83-2" data-name="Group 83-2" transform="translate(3981.312 603.417)">
            <path id="Path_292-2" data-name="Path 292-2" d="M4141.191,766.717l-3.029-1.543a.2.2,0,0,0-.187,0l-2.988,1.621a.2.2,0,0,1-.3-.209l.531-3.358a.2.2,0,0,0-.06-.177l-2.465-2.341a.2.2,0,0,1-.007-.286.2.2,0,0,1,.114-.06l3.357-.532a.2.2,0,0,0,.149-.113l1.466-3.067a.2.2,0,0,1,.269-.1.2.2,0,0,1,.093.091l1.544,3.029a.2.2,0,0,0,.153.108l3.37.445a.2.2,0,0,1,.174.226.2.2,0,0,1-.057.116l-2.4,2.4a.2.2,0,0,0-.056.179l.618,3.343a.2.2,0,0,1-.162.234A.2.2,0,0,1,4141.191,766.717Z" transform="translate(-4132.633 -756.539)" fill="#fff"/>
          </g>
          <circle id="Ellipse_9-2" data-name="Ellipse 9-2" cx="8.105" cy="8.105" r="8.105" transform="translate(4006.866 633.953)" fill="#f97e0b"/>
          <g id="Group_88-2" data-name="Group 88-2" transform="translate(4011.084 638.773)">
            <path id="Path_295-2" data-name="Path 295-2" d="M4235,881.334l-2.816-2.816,1.608-1.609,1.208,1.207,3.35-3.352,1.608,1.609Z" transform="translate(-4232.187 -874.765)" fill="#fff"/>
          </g>
          <circle id="Ellipse_10-2" data-name="Ellipse 10-2" cx="8.881" cy="8.881" r="8.881" transform="translate(4191.107 647.739)" fill="#4d5068"/>
          <g id="Group_90-2" data-name="Group 90-2" transform="translate(4195.729 653.022)">
            <path id="Path_296-2" data-name="Path 296-2" d="M4852.694,929.606l-3.085-3.085,1.763-1.762,1.322,1.323,3.671-3.673,1.762,1.762Z" transform="translate(-4849.609 -922.409)" fill="#fff"/>
          </g>
          <circle id="Ellipse_14-2" data-name="Ellipse 14-2" cx="13.067" cy="13.067" r="13.067" transform="translate(4107.644 538.087)" fill="#393e87"/>
          <g id="Group_112-2" data-name="Group 112-2" transform="translate(4115.657 543.465)">
            <g id="Group_109-2" data-name="Group 109-2" transform="translate(0 1.269)">
              <g id="Group_108-2" data-name="Group 108-2">
                <path id="Path_365-2" data-name="Path 365-2" d="M4588.095,572.789h-4.4a1.838,1.838,0,0,1-1.834-1.835v-.94h2.612v.164h3.621a1.264,1.264,0,0,0,1.262-1.262.823.823,0,0,0-.821-.823h-3.242a3.439,3.439,0,0,1-3.433-3.434v-.472a3.879,3.879,0,0,1,3.875-3.875h4.4a1.839,1.839,0,0,1,1.835,1.834v1.067h-2.612v-.29h-3.621a1.264,1.264,0,0,0-1.262,1.263v.471a.822.822,0,0,0,.82.823h3.242a3.438,3.438,0,0,1,3.433,3.434A3.879,3.879,0,0,1,4588.095,572.789Z" transform="translate(-4581.861 -560.312)" fill="#f6f6f7"/>
              </g>
            </g>
            <g id="Group_111-2" data-name="Group 111-2" transform="translate(3.748 0)">
              <g id="Group_110-2" data-name="Group 110-2">
                <rect id="Rectangle_65-2" data-name="Rectangle 65-2" width="2.612" height="15.379" fill="#f6f6f7"/>
              </g>
            </g>
          </g>
          <circle id="Ellipse_17-2" data-name="Ellipse 17-2" cx="7.961" cy="7.961" r="7.961" transform="translate(4106.091 588.514)" fill="#4d5068"/>
          <path id="Path_369-2" data-name="Path 369-2" d="M4569.988,719.128a2.777,2.777,0,0,0-2.777,2.777c0,1.534,2.777,5.715,2.777,5.715s2.776-4.181,2.776-5.715a2.776,2.776,0,0,0-2.776-2.777Zm0,3.948a1.17,1.17,0,1,1,1.17-1.17h0a1.17,1.17,0,0,1-1.17,1.17Z" transform="translate(-455.935 -126.899)" fill="#ff5722"/>
          <path id="Path_44694" data-name="Path 44694" d="M4724.552,797.065h-10.371l-7.331-32.391H4698.1l13.249,32.391h-2.961l-15.037-32.391h46.237l-15.039,32.391" transform="translate(-544.354 -158.824)" fill="#2f4e9e"/>
          <rect id="Rectangle_4545" data-name="Rectangle 4545" width="122.597" height="91.457" transform="translate(4127.943 577.394)" fill="none"/>
          <path id="Path_44695" data-name="Path 44695" d="M4734.923,750.073h-49.1a1.17,1.17,0,0,1-1.17-1.17h0v-3.891a1.17,1.17,0,0,1,1.17-1.17h49.1a1.17,1.17,0,0,1,1.17,1.17V748.9a1.17,1.17,0,0,1-1.17,1.17h0" transform="translate(-538.253 -144.222)" fill="#2f4e9e"/>
          <path id="Path_44696" data-name="Path 44696" d="M4757.421,884.732h-11.414a1.622,1.622,0,0,1-1.618-1.5l-.758-10.245H4759.8l-.758,10.245a1.621,1.621,0,0,1-1.617,1.5" transform="translate(-579.596 -234.744)" fill="#2f4e9e"/>
        </g>
      </g>
    </g>
  </g>
</svg>
