<svg xmlns="http://www.w3.org/2000/svg" width="23.078" height="23.077" viewBox="0 0 23.078 23.077">
  <g id="arrow-circle" transform="translate(-13.869 36.98) rotate(-90)">
    <g id="Group_16761" data-name="Group 16761" transform="translate(13.903 13.869)">
      <path id="Path_46728" data-name="Path 46728" d="M25.442,13.869A11.539,11.539,0,1,0,36.98,25.408,11.552,11.552,0,0,0,25.442,13.869Zm0,22.157A10.618,10.618,0,1,1,36.059,25.408,10.631,10.631,0,0,1,25.442,36.026Zm3.339-9.486L25.9,29.02V20.791a.46.46,0,1,0-.921,0V29.02L22.1,26.54a.46.46,0,1,0-.6.7l3.94,3.395,3.94-3.395a.46.46,0,0,0-.6-.7Z" transform="translate(-13.903 -13.869)"/>
    </g>
  </g>
</svg>
