<svg xmlns="http://www.w3.org/2000/svg" width="322.945" height="250.531" viewBox="0 0 322.945 250.531">
  <g id="Group_13098" data-name="Group 13098" transform="translate(-90.797 -128.446)">
    <g id="Group_12947" data-name="Group 12947" transform="translate(-84 -84.558)">
      <g id="Group_12946" data-name="Group 12946" transform="translate(174.797 213.005)">
        <g id="Group_12854" data-name="Group 12854" transform="translate(0 0)">
          <g id="Group_12565" data-name="Group 12565">
            <g id="Group_12554" data-name="Group 12554" transform="translate(43.598)" opacity="0.5">
              <path id="Path_14676" data-name="Path 14676" d="M15466.235,10585.589v9.736l-73.624-73.644h13.411l60.213,60.212Zm-24.079-63.907h-31l55.082,55.082v-31Z" transform="translate(-15236.655 -10478.558)" fill="#cbdcf2"/>
              <path id="Path_14677" data-name="Path 14677" d="M15196.961,10819.826v9.735l-73.625-73.643h13.413l60.212,60.213Zm-24.079-63.907h-31l55.082,55.082v-31Z" transform="translate(-15043.62 -10646.475)" fill="#cbdcf2"/>
              <g id="Group_4385" data-name="Group 4385" transform="translate(232.732 134.844)">
                <path id="Path_14678" data-name="Path 14678" d="M15710.394,11020.607l-46.615-46.655v13.479l46.615,46.625Z" transform="translate(-15663.778 -10937.62)" fill="#cbdcf2"/>
                <path id="Path_14679" data-name="Path 14679" d="M15663.778,10845.631v31.016l46.615,46.772v-31.008Z" transform="translate(-15663.778 -10845.631)" fill="#cbdcf2"/>
              </g>
              <path id="Path_14680" data-name="Path 14680" d="M14932.3,11054.065v9.735l-73.625-73.643h13.412l60.213,60.212Zm-24.079-63.907h-31l55.083,55.082v-31Z" transform="translate(-14853.896 -10814.395)" fill="#cbdcf2"/>
              <rect id="Rectangle_2470" data-name="Rectangle 2470" width="3.476" height="69.287" transform="translate(6.953 175.764) rotate(-90)" fill="#b2caec"/>
              <rect id="Rectangle_2471" data-name="Rectangle 2471" width="3.476" height="69.287" transform="translate(83.192 109.444) rotate(-90)" fill="#b2caec"/>
              <rect id="Rectangle_2472" data-name="Rectangle 2472" width="3.476" height="69.287" transform="translate(83.192 242.084) rotate(-90)" fill="#b2caec"/>
              <rect id="Rectangle_2473" data-name="Rectangle 2473" width="3.476" height="69.287" transform="translate(159.817 43.124) rotate(-90)" fill="#b2caec"/>
              <rect id="Rectangle_2474" data-name="Rectangle 2474" width="3.476" height="69.287" transform="translate(159.817 175.764) rotate(-90)" fill="#b2caec"/>
              <rect id="Rectangle_2475" data-name="Rectangle 2475" width="3.476" height="44.04" transform="translate(235.278 109.444) rotate(-90)" fill="#b2caec"/>
              <rect id="Rectangle_2476" data-name="Rectangle 2476" width="3.476" height="44.04" transform="translate(235.278 242.084) rotate(-90)" fill="#b2caec"/>
              <path id="Path_14681" data-name="Path 14681" d="M14848.735,10949.231c-.067.137-.134.272-.2.409a68.808,68.808,0,0,0-5.471,42.923,88.491,88.491,0,0,0,5.67,17.621Z" transform="translate(-14841.783 -10785.055)" fill="#b2caec"/>
              <path id="Path_14682" data-name="Path 14682" d="M15115.335,10571.369c-6.223,10.353-3.193,23.5-4.276,35.587V10762h6.952v-194.245A23.347,23.347,0,0,0,15115.335,10571.369Z" transform="translate(-15034.819 -10511.585)" fill="#b2caec"/>
              <path id="Path_14683" data-name="Path 14683" d="M15385.938,10380.186a40.858,40.858,0,0,1-5.606,16.092v223.506h6.952v-250.415h-1.336Z" transform="translate(-15227.852 -10369.368)" fill="#b2caec"/>
              <rect id="Rectangle_2477" data-name="Rectangle 2477" width="6.953" height="250.415" transform="translate(228.718 0)" fill="#b2caec"/>
            </g>
            <g id="Group_12555" data-name="Group 12555" transform="translate(134.758 83.25)">
              <rect id="Rectangle_2478" data-name="Rectangle 2478" width="141.794" height="87.491" transform="translate(3.217 0)" fill="#eaf3ff"/>
              <rect id="Rectangle_2479" data-name="Rectangle 2479" width="147.983" height="8.492" transform="translate(0 84.48)" fill="#c3daf1"/>
              <g id="Group_4387" data-name="Group 4387" transform="translate(11.999 71.424)">
                <rect id="Rectangle_2480" data-name="Rectangle 2480" width="124.23" height="1.102" fill="#d1e1f2"/>
              </g>
              <rect id="Rectangle_2481" data-name="Rectangle 2481" width="103.641" height="1.999" transform="translate(28.601 10.469)" fill="#ef3f54"/>
              <rect id="Rectangle_2482" data-name="Rectangle 2482" width="43.004" height="1.999" transform="translate(28.601 15.854)" fill="#b5d73c"/>
              <g id="Group_4388" data-name="Group 4388" transform="translate(21.508 23.946)">
                <path id="Path_14684" data-name="Path 14684" d="M15240.272,10785.444c10.345-3.091,16.667-13.274,28.171-12.438,10.531.766,19.932,7.174,30.735,4.83,10.081-2.187,16.492-8.477,23.309-15.6a42.148,42.148,0,0,1,31.457-12.748v-1.5a44.09,44.09,0,0,0-25.791,7.478c-3.982,2.717-6.99,6.147-10.212,9.681a37.911,37.911,0,0,1-17.033,10.688c-12.175,3.578-22.627-4.475-34.605-4.423-10.824.046-16.569,9.644-26.428,12.588,0,0-.529,1.722.4,1.445Z" transform="translate(-15239.725 -10747.979)" fill="#8dc63f"/>
              </g>
              <g id="Group_4389" data-name="Group 4389" transform="translate(21.61 24.245)">
                <path id="Path_14685" data-name="Path 14685" d="M15240.084,10789.985c8.664,1.991,12.3-6.683,17.637-11.65,10.279-9.576,25.787-10.775,38.7-7.11,9.082,2.577,18.425,5.688,27,.03a101.516,101.516,0,0,0,12.347-9.859c5.736-5.25,11.632-12.395,20.48-10.537v-1.493c-8.952-1.879-14.733,4.615-20.708,10.211-4.893,4.58-10.944,10.618-17.421,12.712-7.066,2.284-14.521-.584-21.3-2.508-9.813-2.784-19.909-2.871-29.473.982a35.184,35.184,0,0,0-10.009,5.924c-5,4.344-8.761,13.716-16.86,11.854l-.4,1.444Z" transform="translate(-15240.084 -10749.034)" fill="#ffad33"/>
              </g>
              <g id="Group_4390" data-name="Group 4390" transform="translate(21.344 8.47)">
                <rect id="Rectangle_2483" data-name="Rectangle 2483" width="1.102" height="69.847" fill="#d1e1f2"/>
              </g>
            </g>
            <g id="Group_12556" data-name="Group 12556" transform="translate(145.482 104.233)">
              <path id="Path_14686" data-name="Path 14686" d="M15220.978,10865.174s-9.3-4.5-16.543-8.139a5.122,5.122,0,0,1-1.921-7.437l13.376-16.808a5.415,5.415,0,0,1,7.541-.918h0a5.415,5.415,0,0,1,.461,8.181l-10.582,10.24a1.066,1.066,0,0,0,.2,1.686l10.427,8.564Z" transform="translate(-15201.635 -10804.352)" fill="#fff"/>
              <path id="Path_14687" data-name="Path 14687" d="M15229.471,10848.676c-.394.421-.775.852-1.181,1.229-1.9,1.772-4.524,2.545-6.625,4.076-1.832,1.337-6.843,7.115-2.993,8.845.707.317,1.5.407,2.2.744a14.355,14.355,0,0,1,2.274,1.771c1.056.8,2.353,1.271,3.326,2.174a22.491,22.491,0,0,1,1.68,2.024,8.493,8.493,0,0,0,5.48,2.729l1.5-2.352-10.427-8.565a1.066,1.066,0,0,1-.2-1.685l10.583-10.241a5.4,5.4,0,0,0,1.364-5.6,24.254,24.254,0,0,0-2.556,1.994,4.109,4.109,0,0,1-2,1.081A6,6,0,0,0,15229.471,10848.676Z" transform="translate(-15212.832 -10813.723)" fill="#a5cbef" opacity="0.2"/>
              <path id="Path_14688" data-name="Path 14688" d="M15223.649,11185.066s-2.006,3.108,1.243,6.911l-1.14,5.095-9.6-2.147s3.288-6.618,3.366-11.23Z" transform="translate(-15210.608 -11057.368)" fill="#ff9800"/>
              <path id="Path_14689" data-name="Path 14689" d="M15222.216,11205.587s2,4.479,4.623,5.871c0,0,1.034.572,2.3,1.2.889.441,1.891.052,2.731.369a1.547,1.547,0,0,1,.968,1.784l-.121.546-4.094-.058-17.388-3.889,2.323-7.118.766.234S15219.722,11213.457,15222.216,11205.587Z" transform="translate(-15208.519 -11072.137)" fill="#4d5068"/>
              <path id="Path_14690" data-name="Path 14690" d="M15229.569,11232.233l-2.79.234-17.4-3.892a1.406,1.406,0,0,1-1.066-1.68h0a.679.679,0,0,1,.834-.509l18.373,4.793,2.073-.137c.43-.091.771.009,1.09-.243l.3-.123-.17.766A1.044,1.044,0,0,1,15229.569,11232.233Z" transform="translate(-15206.399 -11087.957)" fill="#fff"/>
              <path id="Path_14691" data-name="Path 14691" d="M15245.856,10979.979l-5.825,33.468-9.207,24.565-6.7-1.5a106.494,106.494,0,0,0,3.625-14.885c1.239-7.368,3.537-9.213,3.242-10.271-1.335-4.8-1.087-17.629-1.087-17.629a23.871,23.871,0,0,0-.4-3.679l-.621-3.27-1.417-9.594Z" transform="translate(-15217.755 -10909.329)" fill="#4d5068"/>
              <path id="Path_14692" data-name="Path 14692" d="M15255.5,11195.073s-1.281,3.471,2.721,6.474v5.221h-9.838s1.979-7.463.93-11.694Z" transform="translate(-15235.144 -11065.524)" fill="#ff9800"/>
              <path id="Path_14693" data-name="Path 14693" d="M15256.3,11214.4s2.933,3.934,5.793,4.72a49.988,49.988,0,0,0,5.444,1.274,1.548,1.548,0,0,1,1.334,1.529v.559h-22.014l.714-7.454.8.063S15255.588,11222.625,15256.3,11214.4Z" transform="translate(-15234.056 -11079.38)" fill="#4d5068"/>
              <path id="Path_14694" data-name="Path 14694" d="M15265.926,11242.087h-20.688a1.408,1.408,0,0,1-1.407-1.407h0a.68.68,0,0,1,.7-.679l21.138.743a1.121,1.121,0,0,0,1.029-.3l.268-.187v.785A1.044,1.044,0,0,1,15265.926,11242.087Z" transform="translate(-15231.883 -11097.732)" fill="#fff"/>
              <path id="Path_14695" data-name="Path 14695" d="M15240.564,10977.188a14.425,14.425,0,0,0,.765,13.384,15.217,15.217,0,0,1,1.984,6.513c.419,5.2.175,10.789,1.4,18.584a39.177,39.177,0,0,0-1.076,8.821c.313,5.8-.212,8.773-1.37,16.356h7.152l5.449-25.521a7.327,7.327,0,0,0,.214-1.048c.366-2.82,3.077-19.779,4.712-29.078.644-3.665.515-3.252.368-4.863Z" transform="translate(-15228.617 -10909.329)" fill="#4d5068"/>
              <path id="Path_14696" data-name="Path 14696" d="M15258.112,11014.6c.366-2.82,3.077-19.779,4.712-29.078.644-3.664.515-3.251.369-4.863l-18.811-3.021a7.364,7.364,0,0,0-.464,1.014c-1.045,2.913.014,6.184,1.612,8.835s3.73,4.974,5.122,7.739c2.317,4.605,2.375,9.978,2.383,15.134.01,5.66.011,11.391-1.365,16.881a49.332,49.332,0,0,0-1.777,7.57,19.055,19.055,0,0,0,.642,6.358h1.915l5.448-25.521A7.249,7.249,0,0,0,15258.112,11014.6Z" transform="translate(-15231.647 -10909.648)" fill="#2d3d64" opacity="0.2"/>
              <path id="Path_14697" data-name="Path 14697" d="M15270.542,10788.946s-3.65,2.406-2.183,8.739c.6,2.574-9.814-3.912-9.814-3.912s1.427-2.93.906-4.454l7.826-2.239Z" transform="translate(-15242.432 -10773.047)" fill="#ffcebd"/>
              <path id="Path_14698" data-name="Path 14698" d="M15265.716,10741.894s2.117.549,2.519,1.442l.633,1.406a9.8,9.8,0,0,1,.853,3.605v.023l2.1,4.309a.563.563,0,0,1-.343.82l-.989.166.309,4.4a1.811,1.811,0,0,1-2.776,1.7l-3.95-1.984-7.282-.855s.2-3.736-1.407-5.126C15255.38,10751.8,15251.231,10741.681,15265.716,10741.894Z" transform="translate(-15239.769 -10740.651)" fill="#ffcebd"/>
              <path id="Path_14699" data-name="Path 14699" d="M15252.828,10741.659a2.88,2.88,0,0,1,.432-.877c1.246-1.683,3.622-1.212,5.4-1.562,1.681-.329,3.247-1.1,4.916-1.488a5.512,5.512,0,0,1,4.88.8,1.9,1.9,0,0,1,.542,2.159,4.793,4.793,0,0,1-.818,1.208,4,4,0,0,1-.614.632,3.942,3.942,0,0,1-.829.452c-.745.334-3.05.647-3.411,1.447-.433.962.969,2.959,1.143,3.963.237,1.372.39,2.767.584,4.145a.871.871,0,0,0,.144.434c.2.251.593.2.906.123q.151-.8.358-1.594a1.893,1.893,0,0,1,.663-1.181,1.749,1.749,0,0,1,2.449.636,3.3,3.3,0,0,1,.214,1.321l.079,3.518a1.637,1.637,0,0,1-1.993,2.025,9.063,9.063,0,0,1-3.05-.928,10.312,10.312,0,0,1-2.475-1.38,4.626,4.626,0,0,1-1.479-1.5,1.853,1.853,0,0,1,.087-2.006c.534-.64,1.623-.783,1.91-1.649a3.239,3.239,0,0,0-.631-2.5,1.657,1.657,0,0,0-1.165-.868,1.147,1.147,0,0,0-.969.558c-.632.977-.557,2.566-.712,3.678s-.466,2.117-1.541,2.512a3.743,3.743,0,0,1-3.035.027c-.845-.5-1.02-1.823-1.271-2.726a25.654,25.654,0,0,1-.943-7.641A6.526,6.526,0,0,1,15252.828,10741.659Z" transform="translate(-15238.16 -10737.515)" fill="#4d5068"/>
              <path id="Path_14700" data-name="Path 14700" d="M15255.638,10865.291l.366-33.279h0c-.45-11.814-6.848-16.451-11.434-18.26a7.8,7.8,0,0,0-8.036,1.4c-2.15,1.9-4.515,4.687-4.453,7.7.071,3.577,2.5,13.459,2.11,18.341-.611,7.682-2.789,23.47-2.789,23.47C15235.562,10869.551,15243.656,10861.09,15255.638,10865.291Z" transform="translate(-15222.975 -10791.772)" fill="#32aaeb"/>
              <path id="Path_14701" data-name="Path 14701" d="M15257.158,10895.4a9.269,9.269,0,0,0-1.779,4.826c-.02.115-.037.233-.055.351,4.392-.968,10.214-3.057,17.462-.516q.034-3.107.068-6.213.069-6.19.136-12.381.035-3.117.068-6.237c.021-1.911.274-4.054-.32-5.9a6.417,6.417,0,0,0-.95-1.779,13.181,13.181,0,0,0-2.717-2.177,9.224,9.224,0,0,0-3.8-1.956,54.068,54.068,0,0,0-5.732-1.58,3.985,3.985,0,0,0-1.7-.07,1.508,1.508,0,0,0-1.177,1.109c-.138.8.584,1.463,1.164,2.038s1.085,1.528.55,2.146c-.359.412-1.088.5-1.224,1.035a.924.924,0,0,0,.145.679c.681,1.161,2.253,1.323,3.452,1.933,1.014.515,5.7,5.94,3.214,6.2a4.04,4.04,0,0,1-1.334-.2,2.036,2.036,0,0,0-1.331.023.843.843,0,0,0-.448,1.115,1.2,1.2,0,0,0,.944.432,8.552,8.552,0,0,1,1.753.267,1.906,1.906,0,0,1,1.278,1.137,2.628,2.628,0,0,1-.041,1.335,39.633,39.633,0,0,1-1.777,5.992c-.362.939-.957,1.891-1.223,2.855a6.207,6.207,0,0,1-.633,2.119C15260.184,10893.462,15258.327,10894.087,15257.158,10895.4Z" transform="translate(-15240.122 -10826.546)" fill="#a5cbef" opacity="0.2"/>
              <path id="Path_14702" data-name="Path 14702" d="M15263.928,10812.885l9.291,10.856a1.032,1.032,0,0,0,1.643-.095l10.449-11.017-.245-1.629a3.3,3.3,0,0,1,.712-2.58l2-2.431,6.318-4.519v.331a3.226,3.226,0,0,1-.979,2.313l-2.412,2.338,1.509,3.017a4.522,4.522,0,0,1,.284,3.326h0a1.791,1.791,0,0,1-1.062,1.15l-2.118.829s-6.142,11.166-10.1,17.961a4.97,4.97,0,0,1-7.316,1.419l-15.484-13.953a5.252,5.252,0,0,1-.441-7.356h0A5.253,5.253,0,0,1,15263.928,10812.885Z" transform="translate(-15239.662 -10783.364)" fill="#ffcebd"/>
              <path id="Path_14703" data-name="Path 14703" d="M15251.8,10807.41a16.706,16.706,0,0,1,12.563.8.8.8,0,0,1,.447.757l-.208,4.435s-7.541-5.084-12.11-3.915a.515.515,0,0,1-.6-.325l-.4-1.071A.521.521,0,0,1,15251.8,10807.41Z" transform="translate(-15237.347 -10787.003)" fill="#474c67"/>
              <path id="Path_14704" data-name="Path 14704" d="M15291.431,10834.391a1.79,1.79,0,0,0,1.061-1.149,4.511,4.511,0,0,0-.283-3.326l-.02-.039a16.792,16.792,0,0,0-3.015,4.026,11.176,11.176,0,0,1-1.45,2.379,21.578,21.578,0,0,1-2.1,1.7c-2.447,2.071-3.2,5.6-5.488,7.838-1.89,1.847-4.847,2.889-5.589,5.426-3.5-2.4-7.073-4.868-9.52-8.331-1.433-2.027-2.479-4.392-4.389-5.978a9.654,9.654,0,0,0-5.6-2.077,5.25,5.25,0,0,0,1.381,5.791l15.485,13.952a4.969,4.969,0,0,0,7.316-1.418c3.955-6.8,10.1-17.961,10.1-17.961Z" transform="translate(-15239.662 -10803.726)" fill="#a58877" opacity="0.4"/>
              <path id="Path_14705" data-name="Path 14705" d="M15286.917,10839.315s-5.06,9.012-9.137,16.014a5.12,5.12,0,0,1-7.54,1.462l-15.958-14.378a5.414,5.414,0,0,1-.455-7.582h0a5.414,5.414,0,0,1,8.193.04l9.574,11.188a1.067,1.067,0,0,0,1.7-.1l9.187-9.883Z" transform="translate(-15238.092 -10805.948)" fill="#49b1ec"/>
              <path id="Path_14706" data-name="Path 14706" d="M15285.97,10848.7c-.581.559-1.283.981-1.9,1.5a15.424,15.424,0,0,0-3.171,4.529,8.755,8.755,0,0,1-3.948,3.864,4.577,4.577,0,0,0-1.147.639,1.139,1.139,0,0,0-.4,1.174c.075.211.227.468.066.623a3.142,3.142,0,0,1-2.531-1.2c-.152-.2-.322-.433-.569-.431-.42,0-.482.607-.4,1.02q.223,1.118.448,2.234a2.971,2.971,0,0,1-1.82-1.364,8.827,8.827,0,0,1-.9-2.147c-.839.563-.3,2.05-1.019,2.764a.353.353,0,0,1-.312.126.407.407,0,0,1-.219-.2c-.834-1.28-1.107-2.864-1.955-4.135a10.8,10.8,0,0,0-1.563-1.73,16.772,16.772,0,0,1-2.817-3.44,13.818,13.818,0,0,0-2.727-3.376,10.056,10.056,0,0,0-6.38-2.113,5.411,5.411,0,0,0,1.592,5.452l15.958,14.379a5.123,5.123,0,0,0,7.541-1.462c4.076-7,9.136-16.015,9.136-16.015Z" transform="translate(-15238.106 -10816.036)" fill="#a5cbef" opacity="0.2"/>
            </g>
            <path id="Path_44519" data-name="Path 44519" d="M15010.74,11145.271H14687.8l28.96-37.238a15.018,15.018,0,0,1,11.852-5.8h282.133Z" transform="translate(-14687.796 -10894.739)" fill="#d1e1f2"/>
            <path id="Path_44520" data-name="Path 44520" d="M14916.811,11117.708c11.727-8.546,29.337,2.179,42.437-4.064l.346.165c2.909.958,5.8,2.374,7.666,4.806s2.4,6.073.589,8.541c-1.832,2.491-5.375,3.117-7.461,5.4-3.032,3.32-1.909,8.679-3.767,12.774-4.028,8.883-19.192,8.637-25.972,3.646-2.769-2.038-4.881-4.942-7.889-6.607-2.51-1.389-5.431-1.794-8.15-2.714s-5.473-2.627-6.3-5.375C14906.771,11129.177,14912.907,11120.554,14916.811,11117.708Z" transform="translate(-14845.702 -10902.916)" fill="#b7d5f2" opacity="0.51"/>
            <g id="Group_12558" data-name="Group 12558" transform="translate(57.083 117.479)">
              <path id="Path_14736" data-name="Path 14736" d="M15066.639,10861.211c.509-2.476,1.45-5.02,3.44-6.578l-2.238-2.085c-2.416-1.45-5.718-.309-7.566,1.819s-2.585,4.977-3.221,7.723a18.17,18.17,0,0,0-.624,4.317,13.52,13.52,0,0,0,1.355,5.31c2.357,5.206,7.046,9.693,12.727,10.318A28.422,28.422,0,0,1,15066.639,10861.211Z" transform="translate(-15009.142 -10832.759)" fill="#4d5068"/>
              <path id="Path_14737" data-name="Path 14737" d="M14970.938,10979.526c-14.336-1.72-29.375.717-43.7-1.206.218-2.06.892-8.456.593-10.52l-1.655-11.445h-11.045l1.673-11.258a20.913,20.913,0,0,1,18.156-17.687l6.229-.76,17.159.107,7.705,1.076a20.914,20.914,0,0,1,17.9,18.4l1.422,12.8h-13.833Z" transform="translate(-14907.848 -10886.347)" fill="#f8ac53"/>
              <path id="Path_14738" data-name="Path 14738" d="M15024.4,10898.741l.478,17.489,6.592,11.114,6.314-11.975.329-11.147-7.165-4.443Z" transform="translate(-14986.18 -10866.339)" fill="#ffcebd"/>
              <path id="Path_14739" data-name="Path 14739" d="M15037.929,10899.087l-.133,4.5a3.5,3.5,0,0,1-.545.2s-1.98.483-2.042.5c-2.693.655-5.508-2.2-7.087-4.049-1.5-1.754-4.11-4.135-3.974-6.616a65.638,65.638,0,0,1,6.615,1.018Z" transform="translate(-14985.997 -10862.671)" fill="#a58877" opacity="0.4"/>
              <path id="Path_14740" data-name="Path 14740" d="M15016.338,10813.4l11.867,6.147,1.833,9.286a5.427,5.427,0,0,1-.289,3.075l-3.718,9.238a3.576,3.576,0,0,1-2.473,2.142l-2.044.5a3.572,3.572,0,0,1-2.734-.437l-4.978-3.095a16.236,16.236,0,0,1-6.343-7.368l-2.417-5.615v-9.437Z" transform="translate(-14972.304 -10805.163)" fill="#ffcebd"/>
              <path id="Path_14741" data-name="Path 14741" d="M15070.817,10832.111c-1.194-.62-2.652-1.877-3.9-.711a4.907,4.907,0,0,0-1.025,1.675,22.4,22.4,0,0,0-.943,2.39,10.974,10.974,0,0,0,1.073,8.691c.649,1.188,1.651,1.907,1.232,3.416a21.234,21.234,0,0,0-.8,2.083c-.092.552.028,1.118-.019,1.677-.095,1.128-1.351,3.036-.666,4.137.743,1.19,2.56-.964,2.879-1.758l3.716-9.239a5.41,5.41,0,0,0,.29-3.075Z" transform="translate(-15014.916 -10817.722)" fill="#a58877" opacity="0.4"/>
              <path id="Path_14742" data-name="Path 14742" d="M14979.666,10797.188a42.536,42.536,0,0,1,4.43-7.489,13.634,13.634,0,0,1,2.711-3.029,12.145,12.145,0,0,1,4.871-1.876c5.313-1.108,10.228-.494,14.359,3.261a22.789,22.789,0,0,1,6.346,9.479,12.969,12.969,0,0,1,.58,7.15,14.2,14.2,0,0,1-2.914,5.4c-.319.367-.749.751-1.226.653.432-1.436-.461-1.723-.684-3.139-.561-3.559-2.841-7.119-6.492-7.683-2.095-.323-4.169-.75-6.23-1.2-.812-.177-5.389-1.354-5.617-2.111,1.139,3.763.456,7.794.21,11.717-.456,7.3.656,14.584,2.156,21.711.767,3.643,1.639,7.262,2.471,10.891.98,4.277-.405,7.708-1.611,11.787q-.713-1.236-1.425-2.474a20,20,0,0,0-1.76,4.815,11.277,11.277,0,0,1-4.5-3.376,10.616,10.616,0,0,0-.8,3.869,31.661,31.661,0,0,1-4.192-5.73,25.82,25.82,0,0,1-2.118-5.835,67.26,67.26,0,0,1-2.606-14.323,97.166,97.166,0,0,1,1.773-25.463A31.16,31.16,0,0,1,14979.666,10797.188Z" transform="translate(-14951.063 -10784.298)" fill="#4d5068"/>
              <path id="Path_14743" data-name="Path 14743" d="M14996.764,11038.828c-13.575-1.646-27.853.889-41.419-.933.217-2.06.892-8.455.593-10.519l-1.6-11.06c.408-2.167.886-4.733,2.167-6.561,1.261.646.836,8.4,1.381,10.325a6.39,6.39,0,0,0,1.343,2.717c1.354,1.43,3.575,1.546,5.535,1.359s4.021-.567,5.841.187c3.273,1.354,2.078,6.224,5.836,7.386a27.8,27.8,0,0,0,11.843,1.38,20.226,20.226,0,0,1,4.895-.36,4.494,4.494,0,0,1,3.828,2.669,4.41,4.41,0,0,1,.114,2.075A7.035,7.035,0,0,1,14996.764,11038.828Z" transform="translate(-14935.956 -10945.922)" fill="#c47212" opacity="0.5"/>
              <g id="Group_4399" data-name="Group 4399" transform="translate(2.625 90.236)">
                <path id="Path_14744" data-name="Path 14744" d="M14899.99,11133.089h40.982a2.3,2.3,0,0,0,1.945-1.072l13.562-21.465a3.049,3.049,0,0,0,.474-1.633v-1.626l-36.745,0a2.3,2.3,0,0,0-1.78.842l-19.745,22.517v1.127A1.308,1.308,0,0,0,14899.99,11133.089Z" transform="translate(-14898.683 -11106.079)" fill="#3a3c4e"/>
                <path id="Path_14745" data-name="Path 14745" d="M14899.9,11128.8h40.46a2.307,2.307,0,0,0,1.948-1.071l14.452-22.853a1.217,1.217,0,0,0-1.028-1.867H14919.6a2.3,2.3,0,0,0-1.78.842l-18.857,22.96A1.218,1.218,0,0,0,14899.9,11128.8Z" transform="translate(-14898.685 -11103.007)" fill="#4d5068"/>
                <path id="Path_14746" data-name="Path 14746" d="M14916.889,11131.772h34.374a.856.856,0,0,0,.723-.4l12.579-19.889h-30.611a.859.859,0,0,0-.661.313Z" transform="translate(-14911.734 -11109.086)" fill="#fff"/>
                <path id="Path_14747" data-name="Path 14747" d="M14951.7,11142.393h30.275l.861-1.056h-30.27Z" transform="translate(-14936.69 -11130.484)" fill="#d1e1f2"/>
                <path id="Path_14748" data-name="Path 14748" d="M14957.893,11134.512h30.276l.86-1.056h-30.269Z" transform="translate(-14941.129 -11124.835)" fill="#d1e1f2"/>
                <path id="Path_14749" data-name="Path 14749" d="M14963.748,11126.631h29.877l.86-1.055h-29.87Z" transform="translate(-14945.326 -11119.186)" fill="#d1e1f2"/>
                <path id="Path_14750" data-name="Path 14750" d="M14970.278,11118.75h16.113l.861-1.057h-16.107Z" transform="translate(-14950.008 -11113.535)" fill="#d1e1f2"/>
                <path id="Path_14751" data-name="Path 14751" d="M14996.057,11150.174h16.113l.86-1.058h-16.106Z" transform="translate(-14968.487 -11136.061)" fill="#d1e1f2"/>
                <path id="Path_14752" data-name="Path 14752" d="M14989.02,11161.024h16.114l.861-1.057h-16.107Z" transform="translate(-14963.443 -11143.84)" fill="#d1e1f2"/>
                <path id="Path_14753" data-name="Path 14753" d="M14981.982,11171.874h16.114l.86-1.056h-16.107Z" transform="translate(-14958.397 -11151.619)" fill="#d1e1f2"/>
                <path id="Path_14754" data-name="Path 14754" d="M14924.875,11157.129h14.531a.358.358,0,0,0,.3-.169l5.317-8.406h-12.939a.359.359,0,0,0-.279.132Z" transform="translate(-14917.459 -11135.658)" fill="#d1e1f2"/>
                <g id="Group_4398" data-name="Group 4398" transform="translate(18.776 24.107)">
                  <path id="Path_14755" data-name="Path 14755" d="M14965.15,11188.454h7.076a.151.151,0,1,0,0-.3h-7.076a.151.151,0,0,0,0,.3Z" transform="translate(-14964.999 -11188.151)" fill="#272834"/>
                </g>
              </g>
              <path id="Path_14756" data-name="Path 14756" d="M14909.02,11040.425l-1.281-8.861h-11.045l-4.531,16.35,1.311,17.989-3.821,7.711a2.3,2.3,0,0,0-.113,1.775l.831,2.406a3.292,3.292,0,0,0,3.11,2.216h10.726a2.826,2.826,0,0,0-2.653-2.929l-3.191-.192a3.052,3.052,0,0,1-2.869-3.046h0a3.053,3.053,0,0,1,1.033-2.288l2.58-2.276h3.613l.768.614a2.313,2.313,0,0,0,3.588-.934h0l-5.844-3.506,3.188-17.107Z" transform="translate(-14889.411 -10961.555)" fill="#ffcebd"/>
              <path id="Path_14757" data-name="Path 14757" d="M15076.488,11041.033v19.631a4.58,4.58,0,0,1-6.068,4.332l-10.865-3.735a13.046,13.046,0,0,1-6.405-2.53l-2.837-2.3-.967-.2a2.019,2.019,0,0,1-1.606-1.977v-1.241a1.06,1.06,0,0,1,.975-1.057l.6-.7-.342-.566-3.951,1.881a2.229,2.229,0,0,1-2.23-.242,1.2,1.2,0,0,1-.556-.922l6.948-3.338,4.369-.688c.721-.128,3.11-.594,3.563-.018l3.769,1.286.824,1.521.61,2.367.335-11.5Z" transform="translate(-14998.967 -10968.344)" fill="#ffcebd"/>
              <g id="Group_4400" data-name="Group 4400" transform="translate(40.693 12.941)">
                <path id="Path_14758" data-name="Path 14758" d="M15033.2,10830.274c3.087,2.1,6.912,2.283,10.311,3.616a9.713,9.713,0,0,1,4.369,3.051c1.029,1.389,1.326,3.175,2.463,4.5.118.138.318-.062.2-.2-1.2-1.389-1.48-3.3-2.643-4.727a9.977,9.977,0,0,0-3.963-2.75c-3.466-1.446-7.424-1.575-10.594-3.729-.15-.1-.292.143-.143.244Z" transform="translate(-15033.14 -10830.006)" fill="#4d5068"/>
              </g>
              <g id="Group_4401" data-name="Group 4401" transform="translate(38.891 12.479)">
                <path id="Path_14759" data-name="Path 14759" d="M15026.773,10828.552a74,74,0,0,1,.589,15.926,47.511,47.511,0,0,0-.054,7.881c.254,2.551.674,5.088,1.034,7.625q.639,4.487,1.276,8.973c.025.18.3.1.272-.075-.756-5.318-1.646-10.638-2.242-15.977a44.4,44.4,0,0,1-.042-7.869c.172-2.617.287-5.229.217-7.853a71.45,71.45,0,0,0-.777-8.707c-.027-.18-.3-.1-.273.076Z" transform="translate(-15026.771 -10828.373)" fill="#4d5068"/>
              </g>
              <g id="Group_4402" data-name="Group 4402" transform="translate(38.648 12.274)">
                <path id="Path_14760" data-name="Path 14760" d="M15025.913,10827.787q.5,7.305.709,14.626c.135,4.757.046,9.517.172,14.272a23.1,23.1,0,0,0,1.159,7.271c.061.171.334.1.272-.074-1.556-4.318-1.147-9.078-1.181-13.587q-.051-7.208-.386-14.412-.186-4.05-.462-8.1c-.013-.182-.3-.183-.284,0Z" transform="translate(-15025.913 -10827.65)" fill="#4d5068"/>
              </g>
              <g id="Group_4403" data-name="Group 4403" transform="translate(23.994 29.363)">
                <path id="Path_14761" data-name="Path 14761" d="M14975.409,10888.105a42.3,42.3,0,0,0-1.116,14.255,65.549,65.549,0,0,0,1.787,13.627,25.431,25.431,0,0,0,1.218,3.451,35.779,35.779,0,0,1,1.678,3.772c.055.174.327.1.273-.074a20.451,20.451,0,0,0-1.283-2.931,23.837,23.837,0,0,1-1.3-3.231,37.431,37.431,0,0,1-1.412-6.788,87.283,87.283,0,0,1-.788-13.962,33.5,33.5,0,0,1,1.211-8.045.141.141,0,0,0-.271-.074Z" transform="translate(-14974.157 -10888.005)" fill="#4d5068"/>
              </g>
              <g id="Group_4404" data-name="Group 4404" transform="translate(57.178 23.776)">
                <path id="Path_14762" data-name="Path 14762" d="M15093.27,10868.367a27.305,27.305,0,0,0-1.012,16.97.141.141,0,0,0,.272-.075,27.038,27.038,0,0,1,1.013-16.819c.067-.17-.207-.244-.273-.075Z" transform="translate(-15091.361 -10868.271)" fill="#4d5068"/>
              </g>
              <g id="Group_4405" data-name="Group 4405" transform="translate(56.812 15.565)">
                <path id="Path_14763" data-name="Path 14763" d="M15094.341,10839.487c1.255,2.587.175,5.531-1.121,7.876-1.209,2.188-2.677,4.291-3.147,6.792-.033.178.238.255.272.075.528-2.806,2.322-5.061,3.564-7.565,1.114-2.249,1.826-4.945.675-7.321-.079-.163-.323-.02-.243.144Z" transform="translate(-15090.069 -10839.271)" fill="#4d5068"/>
              </g>
              <g id="Group_4406" data-name="Group 4406" transform="translate(41.208 18.175)">
                <path id="Path_14764" data-name="Path 14764" d="M15035.3,10854.016c-.133-.616-.75-3.729.086-4.566,1.276-1.276,5.726-1.275,7,0,.837.837.218,3.95.077,4.595-.337,1.072-.973,2.5-2.579,2.5h-2A2.571,2.571,0,0,1,15035.3,10854.016Zm.536-4.116c-.436.437-.212,2.592.094,4.049a1.958,1.958,0,0,0,1.957,1.956h2c.929,0,1.519-.613,1.966-2.023.3-1.39.522-3.544.085-3.981a6.446,6.446,0,0,0-6.1,0Z" transform="translate(-15034.958 -10848.492)" fill="#ff5722"/>
              </g>
              <g id="Group_4407" data-name="Group 4407" transform="translate(48.538 20.052)">
                <path id="Path_14765" data-name="Path 14765" d="M15063.168,10856.091l.358-.527a2.238,2.238,0,0,0-2.678.023l.418.479A1.646,1.646,0,0,1,15063.168,10856.091Z" transform="translate(-15060.849 -10855.122)" fill="#ff5722"/>
              </g>
              <g id="Group_4408" data-name="Group 4408" transform="translate(39.143 19.732)">
                <path id="Path_14766" data-name="Path 14766" d="M15029.895,10855.647l.1-1.657-2.255.856-.072.631Z" transform="translate(-15027.663 -10853.99)" fill="#ff5722"/>
              </g>
              <g id="Group_4409" data-name="Group 4409" transform="translate(50.716 18.176)">
                <path id="Path_14767" data-name="Path 14767" d="M15068.881,10854.017c-.133-.617-.751-3.729.086-4.566,1.275-1.275,5.725-1.275,7,0,.836.837.218,3.949.093,4.5a2.6,2.6,0,0,1-2.594,2.594h-2C15070.26,10856.543,15069.317,10855.627,15068.881,10854.017Zm.537-4.115c-.436.436-.212,2.591.082,3.964.166.613.691,2.04,1.967,2.04h2a1.984,1.984,0,0,0,1.963-2.023c.3-1.39.523-3.544.088-3.98a6.424,6.424,0,0,0-6.1,0Z" transform="translate(-15068.536 -10848.494)" fill="#ff5722"/>
              </g>
              <path id="Path_14768" data-name="Path 14768" d="M14989.925,10870.887a44.886,44.886,0,0,0-.535-4.466,10.507,10.507,0,0,0-.148,4,8.043,8.043,0,0,1-1.486-3.96,33.054,33.054,0,0,0-.777,5.665,34.543,34.543,0,0,1-1.988-4.655,6.384,6.384,0,0,0-.487.621,3.812,3.812,0,0,0,.037,1.226l.275,4.71a37.636,37.636,0,0,1-1.16-7.265,7.415,7.415,0,0,0-.756,4.095,12.994,12.994,0,0,1-.708-3.8,7.8,7.8,0,0,0-.62,4.563,23.168,23.168,0,0,1,.089,4.6,29.409,29.409,0,0,1-.8-4.561c-.208-1.722-.151-3.371-.282-5.1-.035-.463-.3-1.953-.009-2.327a4.7,4.7,0,0,0-.986,3.151,20.009,20.009,0,0,1-.25-6.189,54.331,54.331,0,0,0-2.079,8.539c-.444,2.791-.424,5.534-.609,8.319-.355,5.326.819,10.376,2.011,15.542.357,1.547.735,3.091,1.235,4.6a10.037,10.037,0,0,0,1.634,3.72.221.221,0,0,0,.147.1c.081,0,.137-.082.167-.158a2.391,2.391,0,0,0-.259-1.863,17.831,17.831,0,0,1-1.484-5.476c-.2-1.95-.09-4-.9-5.829a8.51,8.51,0,0,0,.873,2.165,14.218,14.218,0,0,1,.58,2.386c.157.73.927,4.123,1.724,4.084a18.922,18.922,0,0,0-.548-3.059,24.922,24.922,0,0,1-.051-4.336,3.2,3.2,0,0,0-.249-1.9c-.123-.2-.3-.39-.276-.618-.028.306.624,1.162.762,1.477.244.558.452,1.131.641,1.709a27.655,27.655,0,0,1,.953,3.493c.176.945.534,1.789.756,2.728a13.206,13.206,0,0,0,.925,3.31,7.121,7.121,0,0,1-.034-1.832c-.042-.642-.095-1.283-.143-1.925q-.151-2.02-.3-4.041a6.192,6.192,0,0,0-.487-2.37.45.45,0,0,1,.268.241c.769,1.283.733,2.829,1.182,4.219a9.886,9.886,0,0,0,2.354,3.781c-.871-2.7-1.753-5.541-1.162-8.311q1.525,3.025,3.052,6.05a9.539,9.539,0,0,1-.147-5.591,12.8,12.8,0,0,0,2.276,5.472,23.735,23.735,0,0,1-.65-3.166,40.907,40.907,0,0,1,.065-5.546c.041-1.7-.372-3.312-.393-4.969-.034-2.561-.96-4.977-1.05-7.5C14990.072,10873.388,14990.018,10872.136,14989.925,10870.887Z" transform="translate(-14951.902 -10839.428)" fill="#717386" opacity="0.2"/>
              <path id="Path_14769" data-name="Path 14769" d="M15000.6,10816.024c0-.492-.729-.514-1.154-.761-.658-.38-.652-1.458-1.335-1.79a7.232,7.232,0,0,0-1.1-.2c-.5-.153-.82-.636-1.168-1.032s-.878-.759-1.368-.565l-.5.521c-1.519,2.189-1.987,4.831-3.39,7.087a5.969,5.969,0,0,1,1.771-1.964,12.5,12.5,0,0,0-.928,4.136,13.365,13.365,0,0,1,2.9-3.049c0,1.84.647,3.653.5,5.488a8.668,8.668,0,0,1,2.226-3.431,7.372,7.372,0,0,1,1.813,3.926q.252,1.058.5,2.112a37.474,37.474,0,0,0,.98-8.473,4.391,4.391,0,0,1,.142-1.637A1.036,1.036,0,0,0,15000.6,10816.024Z" transform="translate(-14961.933 -10803.889)" fill="#717386" opacity="0.15"/>
              <path id="Path_14770" data-name="Path 14770" d="M15014.786,10801.2a5.163,5.163,0,0,0,2.111.761c.8.069,1.633.187,2.449.213a12.361,12.361,0,0,0,1.473-.038c.193-.016,1.063-.254,1.193-.16a29.119,29.119,0,0,1-4.347-3.78,1.21,1.21,0,0,1,1.2-.439,9.689,9.689,0,0,0-3.106-2.395,2.29,2.29,0,0,1,1.5-.754,3.461,3.461,0,0,0-3.286-1.645q1.063-1.187,2.128-2.373a7.584,7.584,0,0,0-6.054,1.7,19.8,19.8,0,0,1-1.9,1.316c-.352.237-1.358,1.2-1.369,1.624l-.012.5,2.354,1.536a.672.672,0,0,0,.321.137,1.371,1.371,0,0,0,.354-.08c.467-.1.887.326,1.082.764a4.2,4.2,0,0,0,.614,1.286,3.053,3.053,0,0,0,1.084.59A21.24,21.24,0,0,1,15014.786,10801.2Z" transform="translate(-14973.542 -10788.742)" fill="#717386" opacity="0.15"/>
              <path id="Path_14771" data-name="Path 14771" d="M14918.239,10965.447c.762-2.542,2.167-4.853,2.973-7.382a30.986,30.986,0,0,0,1.11-6.266,20.87,20.87,0,0,0-5.52,11.326l-1.673,11.257h1.968c.075-.922.14-1.843.206-2.756A28.744,28.744,0,0,1,14918.239,10965.447Z" transform="translate(-14907.848 -10904.375)" fill="#bf411a" opacity="0.5"/>
              <path id="Path_14772" data-name="Path 14772" d="M14894.075,11055.659c-.244-2.907.258-6.166,2.5-8.031a2.062,2.062,0,0,1-2-1.912,4.671,4.671,0,0,1,1.027-2.487c2.151-3.451,2.724-7.567,3.058-11.665h-1.967l-4.531,16.35,1.311,17.989-3.821,7.711a2.3,2.3,0,0,0-.113,1.775l.517,1.5a4.171,4.171,0,0,1,.019-1.046,8.51,8.51,0,0,1,1.7-3.344,17.038,17.038,0,0,0,3.154-8.144C14895.146,11061.442,14894.319,11058.565,14894.075,11055.659Z" transform="translate(-14889.411 -10961.555)" fill="#a58877" opacity="0.4"/>
              <path id="Path_14773" data-name="Path 14773" d="M15090.422,11087.436v-9.057a3.836,3.836,0,0,0-.037.884,21.079,21.079,0,0,1-1,7.554,2.155,2.155,0,0,1-.641,1.1.8.8,0,0,1-1.142-.117q.1.836.2,1.673l-1.479-1.588c.335.875.539,2.116-.3,2.526a1.865,1.865,0,0,1-1.3-.027,35.173,35.173,0,0,1-8.186-3.384,2.934,2.934,0,0,1-1.5-1.461c-.108-.337-.1-.7-.222-1.034s-.472-.632-.806-.517a.855.855,0,0,1-.4,1.06,2.036,2.036,0,0,1-1.22.17,7.475,7.475,0,0,1-4.181-1.807c-1.243-1.09-2.182-2.635-3.737-3.2-.536-.194-1.113-.255-1.651-.445a3.393,3.393,0,0,1-.982-.551,1.059,1.059,0,0,0-.16.562v1.242a2.017,2.017,0,0,0,1.606,1.976l.967.2,2.836,2.3a13.06,13.06,0,0,0,6.406,2.531l10.864,3.734A4.58,4.58,0,0,0,15090.422,11087.436Z" transform="translate(-15012.902 -10995.116)" fill="#a58877" opacity="0.4"/>
            </g>
            <g id="Group_12559" data-name="Group 12559" transform="translate(234.358 212.611)">
              <path id="Path_14774" data-name="Path 14774" d="M15555.268,11120.3l45.933,13.415-31.75,16.742-45.932-13.415Z" transform="translate(-15521.26 -11120.3)" fill="#d1e1f2"/>
              <path id="Path_14775" data-name="Path 14775" d="M15548.242,11123.883l45.107,14.7-32.7,15.831-45.106-14.7Z" transform="translate(-15515.539 -11122.869)" fill="#edf3fa"/>
              <g id="Group_4415" data-name="Group 4415" transform="translate(0 2.999)">
                <path id="Path_14776" data-name="Path 14776" d="M15515.539,11144.739l43.148,17.308,34.521-13.847-43.15-17.307Z" transform="translate(-15515.539 -11130.894)" fill="#fff"/>
                <path id="Path_14777" data-name="Path 14777" d="M15599.324,11196.045l1.761.716,13.82-5.542-1.761-.717Z" transform="translate(-15575.602 -11173.626)" fill="#e2eefa"/>
                <path id="Path_14778" data-name="Path 14778" d="M15590.071,11174.028l.825.337,31.675-12.769-.825-.335Z" transform="translate(-15568.969 -11152.663)" fill="#e2eefa"/>
                <path id="Path_14779" data-name="Path 14779" d="M15581.222,11170.592l.824.336,31.675-12.767-.824-.336Z" transform="translate(-15562.625 -11150.2)" fill="#e2eefa"/>
                <path id="Path_14780" data-name="Path 14780" d="M15572.69,11167.156l.824.335,31.675-12.767-.824-.337Z" transform="translate(-15556.509 -11147.735)" fill="#e2eefa"/>
                <path id="Path_14781" data-name="Path 14781" d="M15564,11163.72l.824.335,31.676-12.768-.825-.335Z" transform="translate(-15550.28 -11145.273)" fill="#e2eefa"/>
                <path id="Path_14782" data-name="Path 14782" d="M15555.23,11159.948l.825.336,31.674-12.768-.823-.335Z" transform="translate(-15543.992 -11142.57)" fill="#e2eefa"/>
                <path id="Path_14783" data-name="Path 14783" d="M15546.624,11156.484l.825.336,31.674-12.767-.824-.337Z" transform="translate(-15537.823 -11140.086)" fill="#e2eefa"/>
                <path id="Path_14784" data-name="Path 14784" d="M15537.933,11171.163l.825.335,13.937-5.6-.823-.336Z" transform="translate(-15531.593 -11155.746)" fill="#e2eefa"/>
                <g id="Group_4411" data-name="Group 4411" transform="translate(51.07 14.014)">
                  <path id="Path_14785" data-name="Path 14785" d="M15698.367,11186.178c-1.582-.631-2.453-1.5-2.453-2.436s.871-1.806,2.453-2.437a17.217,17.217,0,0,1,11.079,0c1.573.63,2.439,1.5,2.439,2.436s-.866,1.8-2.439,2.435a17.182,17.182,0,0,1-11.079,0Zm.545-4.214c-1.229.491-1.905,1.122-1.905,1.778s.677,1.287,1.905,1.777h0a15.773,15.773,0,0,0,9.988,0c1.22-.491,1.893-1.121,1.893-1.778s-.673-1.287-1.893-1.778a15.773,15.773,0,0,0-9.988,0Z" transform="translate(-15695.914 -11180.391)" fill="#d1e1f2"/>
                </g>
                <g id="Group_4412" data-name="Group 4412" transform="translate(50.523 13.623)">
                  <path id="Path_14786" data-name="Path 14786" d="M15696.713,11185.518l1.088-1.318c-1.035-.413-1.63-.941-1.63-1.447s.595-1.035,1.63-1.448a14.893,14.893,0,0,1,9.443,0c1.028.412,1.618.939,1.618,1.448s-.59,1.036-1.618,1.449l1.093,1.315c1.749-.7,2.713-1.684,2.713-2.765s-.964-2.062-2.713-2.766a17.762,17.762,0,0,0-11.624,0c-1.76.7-2.729,1.685-2.729,2.766S15694.953,11184.815,15696.713,11185.518Z" transform="translate(-15693.984 -11179.009)" fill="#8dc63f"/>
                </g>
                <g id="Group_4413" data-name="Group 4413" transform="translate(34.857 20.518)">
                  <path id="Path_14787" data-name="Path 14787" d="M15641.105,11209.147c-1.582-.631-2.453-1.5-2.453-2.436s.871-1.8,2.453-2.437a17.22,17.22,0,0,1,11.08,0c1.572.631,2.439,1.5,2.439,2.436s-.867,1.8-2.439,2.436a17.194,17.194,0,0,1-11.08,0Zm.545-4.213c-1.229.489-1.9,1.121-1.9,1.777s.677,1.287,1.9,1.776h0a15.759,15.759,0,0,0,9.988,0c1.22-.489,1.893-1.12,1.893-1.777s-.672-1.288-1.893-1.778a15.764,15.764,0,0,0-9.988,0Z" transform="translate(-15638.652 -11203.36)" fill="#d1e1f2"/>
                </g>
                <g id="Group_4414" data-name="Group 4414" transform="translate(34.31 21.104)">
                  <path id="Path_14788" data-name="Path 14788" d="M15645.266,11211.939a16.164,16.164,0,0,0,5.808-.979l-1.094-1.316a14.9,14.9,0,0,1-9.442,0c-1.035-.413-1.629-.94-1.629-1.448s.594-1.034,1.629-1.447l-1.09-1.317c-1.758.7-2.727,1.685-2.727,2.765s.969,2.065,2.729,2.767A16.269,16.269,0,0,0,15645.266,11211.939Z" transform="translate(-15636.721 -11205.431)" fill="#ff9800"/>
                </g>
              </g>
            </g>
            <g id="Group_12560" data-name="Group 12560" transform="translate(246.123 212.571)">
              <path id="Path_14789" data-name="Path 14789" d="M15579.429,11120.194l-20.257,5.436-2.078,2.2,2.99.96,19.97-6.437a1.125,1.125,0,0,0,.664-1.565h0A1.125,1.125,0,0,0,15579.429,11120.194Z" transform="translate(-15557.093 -11120.159)" fill="#4d5068"/>
              <path id="Path_14790" data-name="Path 14790" d="M15560.875,11140.32a1.685,1.685,0,0,0-1.615-.927l-.088.022-2.078,2.2,2.99.961.11-.036A1.7,1.7,0,0,0,15560.875,11140.32Z" transform="translate(-15557.093 -11133.946)" fill="#fff"/>
              <path id="Path_14791" data-name="Path 14791" d="M15557.917,11145.732a.366.366,0,0,0-.354-.2l-.019,0-.455.482.654.211.024-.008A.371.371,0,0,0,15557.917,11145.732Z" transform="translate(-15557.09 -11138.346)" fill="#4d5068"/>
            </g>
            <path id="Path_44521" data-name="Path 44521" d="M15261.494,11180.08c3.817,2.453,7.445,6.463,4.3,8.749-1.991,1.447-5.646,1.252-8.826.915-10.172-1.074-20.321-2.591-30.357-4.535-5.024-.973-10.1-2.062-15.171-2.165a99.567,99.567,0,0,0-12.616.99c-10.714,1.133-20.2.691-30.47-3.313-3.865-1.508-7.787-3.389-9.64-6.051s-.589-6.187,3.46-6.724a18.23,18.23,0,0,1,4.646.225c23.88,3.147,47.387,2.916,71.2,4.559,7.751.536,16.44,1.819,21.523,6.066" transform="translate(-15024.786 -10941.789)" fill="#b7d5f2" opacity="0.51"/>
            <g id="Group_12561" data-name="Group 12561" transform="translate(130.894 182.986)">
              <path id="Path_14793" data-name="Path 14793" d="M15176.115,11171.826l-24.182-1.509a1.943,1.943,0,0,1-1.3-3.265l.01-.011h33.67Z" transform="translate(-15150.108 -11124.182)" fill="#edf3fa"/>
              <path id="Path_14794" data-name="Path 14794" d="M15302.422,11063.307h-68.384a3.129,3.129,0,0,1-2.919-4.257l15.988-41.386a3.129,3.129,0,0,1,2.918-2h68.384a3.129,3.129,0,0,1,2.919,4.257l-15.987,41.386A3.13,3.13,0,0,1,15302.422,11063.307Z" transform="translate(-15208.03 -11015.662)" fill="#fff"/>
              <path id="Path_14795" data-name="Path 14795" d="M15383.794,11087.947a4.681,4.681,0,1,1-4.682-4.68A4.681,4.681,0,0,1,15383.794,11087.947Z" transform="translate(-15310.919 -11064.127)" fill="#edf3fa"/>
              <path id="Path_14796" data-name="Path 14796" d="M15378.34,11063.307a3.128,3.128,0,0,0,2.918-2l15.988-41.386a3.129,3.129,0,0,0-2.919-4.257h-17.318c-.486,1.991-.829,4.04-1.369,6.015a29.022,29.022,0,0,1-7.6,12.953c-4.549,4.476-10.416,7.3-15.917,10.537s-10.945,7.2-13.719,12.942a18.519,18.519,0,0,0-1.6,5.2Z" transform="translate(-15283.948 -11015.662)" fill="#b7d5f2" opacity="0.1"/>
            </g>
            <g id="Group_12562" data-name="Group 12562" transform="translate(147.568 45.577)">
              <g id="Group_4419" data-name="Group 4419" transform="translate(1.424 39.554)">
                <circle id="Ellipse_501" data-name="Ellipse 501" cx="5.311" cy="5.311" r="5.311" transform="translate(0 0)" fill="#fed17e"/>
                <path id="Path_14797" data-name="Path 14797" d="M15226.741,10673.994a3.947,3.947,0,1,1-3.947-3.947A3.947,3.947,0,0,1,15226.741,10673.994Z" transform="translate(-15217.483 -10670.047)" fill="#fedc9e"/>
              </g>
              <g id="Group_4420" data-name="Group 4420" transform="translate(0 0)">
                <path id="Path_14798" data-name="Path 14798" d="M15209,10609.457h13.865v-24.406a6.933,6.933,0,0,0-6.932-6.933h0a6.934,6.934,0,0,0-6.934,6.933Z" transform="translate(-15209 -10564.591)" fill="#49b1ec"/>
                <rect id="Rectangle_2487" data-name="Rectangle 2487" width="1.276" height="20.581" transform="translate(6.295)" fill="#b3cdfa"/>
                <path id="Path_14799" data-name="Path 14799" d="M15227.906,10585.051v12.879l-11.875-17.736a6.93,6.93,0,0,1,11.875,4.857Z" transform="translate(-15214.04 -10564.591)" fill="#319fdb"/>
              </g>
            </g>
            <g id="Group_12563" data-name="Group 12563" transform="translate(224.886 0)">
              <g id="Group_4422" data-name="Group 4422" transform="translate(1.424 85.131)">
                <circle id="Ellipse_502" data-name="Ellipse 502" cx="5.311" cy="5.311" r="5.311" transform="translate(0 0)" fill="#fed17e"/>
                <path id="Path_14800" data-name="Path 14800" d="M15499.827,10673.994a3.948,3.948,0,1,1-3.947-3.947A3.948,3.948,0,0,1,15499.827,10673.994Z" transform="translate(-15490.567 -10670.047)" fill="#fedc9e"/>
              </g>
              <g id="Group_4423" data-name="Group 4423" transform="translate(0 0)">
                <path id="Path_14801" data-name="Path 14801" d="M15482.085,10609.457h13.866v-24.406a6.934,6.934,0,0,0-6.934-6.933h0a6.933,6.933,0,0,0-6.933,6.933Z" transform="translate(-15482.085 -10519.015)" fill="#49b1ec"/>
                <rect id="Rectangle_2488" data-name="Rectangle 2488" width="1.276" height="66.157" transform="translate(6.295)" fill="#0c4da4"/>
                <path id="Path_14802" data-name="Path 14802" d="M15500.988,10585.051v12.879l-11.874-17.736a6.929,6.929,0,0,1,11.874,4.857Z" transform="translate(-15487.123 -10519.015)" fill="#319fdb"/>
              </g>
            </g>
            <g id="Group_12564" data-name="Group 12564" transform="translate(26.594 201.326)">
              <g id="Group_4425" data-name="Group 4425" transform="translate(0 11.574)">
                <path id="Path_14803" data-name="Path 14803" d="M14802.205,11132.41l-.021,22.445c-.33,1.644-4.777,2.945-10.22,2.945s-9.889-1.3-10.218-2.945l-.021-22.445Z" transform="translate(-14781.725 -11129.271)" fill="#32aaeb"/>
                <path id="Path_14804" data-name="Path 14804" d="M14796.17,11157.747a21.706,21.706,0,0,1-5.97-1.07v-24.267h5.97Z" transform="translate(-14787.801 -11129.271)" fill="#4287e3"/>
                <ellipse id="Ellipse_503" data-name="Ellipse 503" cx="10.24" cy="3.14" rx="10.24" ry="3.14" fill="#2876df"/>
                <path id="Path_14805" data-name="Path 14805" d="M14783.523,11124.75c0,1.589,4.357,2.878,9.731,2.878s9.731-1.289,9.731-2.878-4.356-2.879-9.731-2.879S14783.523,11123.159,14783.523,11124.75Z" transform="translate(-14783.015 -11121.715)" fill="#0c4da4"/>
              </g>
              <g id="Group_4426" data-name="Group 4426" transform="translate(10.366 5)">
                <path id="Path_14806" data-name="Path 14806" d="M14820.3,11110.461l-1.968-.283,1.436-10.008,1.3-2.07.667,2.353Z" transform="translate(-14818.337 -11098.1)" fill="#ff9800"/>
                <rect id="Rectangle_2489" data-name="Rectangle 2489" width="10.11" height="0.663" transform="translate(0 12.079) rotate(-81.836)" fill="#ffc166"/>
                <rect id="Rectangle_2490" data-name="Rectangle 2490" width="10.11" height="0.663" transform="translate(0.656 12.173) rotate(-81.834)" fill="#ffad33"/>
                <path id="Path_14807" data-name="Path 14807" d="M14823.409,11100.17l1.3-2.07.668,2.353Z" transform="translate(-14821.973 -11098.1)" fill="#fff"/>
                <path id="Path_14808" data-name="Path 14808" d="M14826.785,11098.65l.347-.551.177.626Z" transform="translate(-14824.394 -11098.1)" fill="#3c5185"/>
              </g>
              <g id="Group_4427" data-name="Group 4427" transform="translate(5.321 3.928)">
                <path id="Path_14809" data-name="Path 14809" d="M14802.281,11107.174l2.162.755-1.963-11.571-1.345-2.044-.618,2.365Z" transform="translate(-14800.518 -11094.313)" fill="#ff5722"/>
                <path id="Path_14810" data-name="Path 14810" d="M14807.018,11112.845l-1.879-11.206.653-.107,1.938,11.563Z" transform="translate(-14803.83 -11099.487)" fill="#ff9a7a"/>
                <path id="Path_14811" data-name="Path 14811" d="M14804.647,11112.867l-1.82-10.85.654-.108,1.88,11.208Z" transform="translate(-14802.174 -11099.758)" fill="#ff794e"/>
                <path id="Path_14812" data-name="Path 14812" d="M14802.48,11096.357l-1.345-2.044-.618,2.365Z" transform="translate(-14800.518 -11094.313)" fill="#fff"/>
                <path id="Path_14813" data-name="Path 14813" d="M14802.645,11094.856l-.357-.543-.164.63Z" transform="translate(-14801.669 -11094.313)" fill="#3c5185"/>
              </g>
              <g id="Group_4428" data-name="Group 4428" transform="translate(15.607 3.216)">
                <path id="Path_14814" data-name="Path 14814" d="M14838.946,11105.037l-2.1.551,1.254-11.67,1.217-2.122.762,2.325Z" transform="translate(-14836.851 -11091.796)" fill="#fec55e"/>
                <path id="Path_14815" data-name="Path 14815" d="M14837.628,11110.771l1.194-11.413-.66-.068-1.231,11.661Z" transform="translate(-14836.907 -11097.168)" fill="#fedc9e"/>
                <path id="Path_14816" data-name="Path 14816" d="M14840.071,11110.763l1.174-11.167-.659-.066-1.2,11.412Z" transform="translate(-14838.671 -11097.34)" fill="#fed17e"/>
                <path id="Path_14817" data-name="Path 14817" d="M14841.281,11093.918l1.217-2.122.762,2.325Z" transform="translate(-14840.026 -11091.796)" fill="#fff"/>
                <path id="Path_14818" data-name="Path 14818" d="M14844.435,11092.36l.323-.564.2.619Z" transform="translate(-14842.287 -11091.796)" fill="#3c5185"/>
              </g>
              <g id="Group_4429" data-name="Group 4429" transform="translate(0.988 4.959)">
                <path id="Path_14819" data-name="Path 14819" d="M14790.114,11110.257l2.344.161-5.372-10.892-1.871-1.574.083,2.444Z" transform="translate(-14785.215 -11097.952)" fill="#fec55e"/>
                <path id="Path_14820" data-name="Path 14820" d="M14794.847,11114.343l-5.129-10.538.6-.29,5.372,10.892Z" transform="translate(-14788.442 -11101.939)" fill="#fedc9e"/>
                <path id="Path_14821" data-name="Path 14821" d="M14792.575,11115.03l-4.963-10.2.6-.29,5.129,10.538Z" transform="translate(-14786.933 -11102.674)" fill="#fed17e"/>
                <path id="Path_14822" data-name="Path 14822" d="M14787.086,11099.526l-1.871-1.574.083,2.444Z" transform="translate(-14785.215 -11097.952)" fill="#fff"/>
                <path id="Path_14823" data-name="Path 14823" d="M14785.712,11098.37l-.5-.418.021.65Z" transform="translate(-14785.215 -11097.952)" fill="#3c5185"/>
              </g>
              <g id="Group_4430" data-name="Group 4430" transform="translate(11.161 1.627)">
                <path id="Path_14824" data-name="Path 14824" d="M14823.368,11101.559l-2.222.549,3.729-14.014,1.527-1.91.4,2.414Z" transform="translate(-14821.146 -11086.184)" fill="#536dfe"/>
                <path id="Path_14825" data-name="Path 14825" d="M14821.966,11106.755l3.611-13.658-.642-.168-3.7,14.008Z" transform="translate(-14821.207 -11091.02)" fill="#98a0f6"/>
                <path id="Path_14826" data-name="Path 14826" d="M14824.553,11107l3.521-13.309-.643-.169-3.611,13.658Z" transform="translate(-14823.062 -11091.443)" fill="#7581f3"/>
                <path id="Path_14827" data-name="Path 14827" d="M14834.313,11088.094l1.529-1.91.4,2.414Z" transform="translate(-14830.585 -11086.184)" fill="#fff"/>
                <path id="Path_14828" data-name="Path 14828" d="M14838.276,11086.692l.406-.509.1.643Z" transform="translate(-14833.427 -11086.184)" fill="#3c5185"/>
              </g>
              <g id="Group_4431" data-name="Group 4431" transform="translate(9.246 0)">
                <path id="Path_14829" data-name="Path 14829" d="M14816.37,11097.988h-1.987v-15.315l.993-2.234.994,2.234Z" transform="translate(-14814.383 -11080.438)" fill="#8dc63f"/>
                <rect id="Rectangle_2491" data-name="Rectangle 2491" width="0.663" height="15.315" transform="translate(0 2.235)" fill="#bbdd8c"/>
                <rect id="Rectangle_2492" data-name="Rectangle 2492" width="0.663" height="15.315" transform="translate(0.663 2.235)" fill="#a4d165"/>
                <path id="Path_14830" data-name="Path 14830" d="M14814.383,11082.673l.993-2.234.994,2.234Z" transform="translate(-14814.383 -11080.438)" fill="#fff"/>
                <path id="Path_14831" data-name="Path 14831" d="M14816.959,11081.033l.264-.595.265.595Z" transform="translate(-14816.229 -11080.438)" fill="#3c5185"/>
              </g>
            </g>
          </g>
        </g>
        <path id="Path_44689" data-name="Path 44689" d="M7402.223-1627.374h-15.991l-11.3-49.945h-13.49l20.429,49.945H7377.3l-23.186-49.945h71.3l-23.188,49.945" transform="translate(-7326.885 1756.574)" fill="#007bbe"/>
        <path id="Path_44690" data-name="Path 44690" d="M7422.929-1688.544h-75.716a1.8,1.8,0,0,1-1.8-1.8h0v-6a1.8,1.8,0,0,1,1.8-1.8h75.716a1.8,1.8,0,0,1,1.8,1.8v6a1.8,1.8,0,0,1-1.8,1.8h0" transform="translate(-7322.193 1767.8)" fill="#32aaeb"/>
        <path id="Path_44691" data-name="Path 44691" d="M7425.655-1550.9h-17.6a2.5,2.5,0,0,1-2.494-2.316l-1.169-15.8h24.925l-1.169,15.8a2.49,2.49,0,0,1-.151.692,2.5,2.5,0,0,1-2.342,1.623" transform="translate(-7353.978 1698.208)" fill="#32aaeb"/>
        <g id="Group_75" data-name="Group 75" transform="translate(50.882 15.426)">
          <path id="Path_279" data-name="Path 279" d="M15230.188,103.716a5.607,5.607,0,1,1-5.607-5.608A5.608,5.608,0,0,1,15230.188,103.716Z" transform="translate(-15218.973 -98.108)" fill="#32aaeb"/>
          <g id="Group_72" data-name="Group 72" transform="translate(2.517 3.999)">
            <path id="Path_280" data-name="Path 280" d="M15232.107,117.129a.218.218,0,0,1-.219-.218.669.669,0,1,0-1.339,0,.217.217,0,1,1-.435,0,1.1,1.1,0,1,1,2.209,0A.217.217,0,0,1,15232.107,117.129Z" transform="translate(-15230.115 -115.807)" fill="#4d5068"/>
          </g>
          <g id="Group_73" data-name="Group 73" transform="translate(6.489 3.999)">
            <path id="Path_281" data-name="Path 281" d="M15249.68,117.129a.218.218,0,0,1-.218-.218.669.669,0,1,0-1.339,0,.217.217,0,1,1-.435,0,1.1,1.1,0,1,1,2.209,0A.217.217,0,0,1,15249.68,117.129Z" transform="translate(-15247.688 -115.807)" fill="#4d5068"/>
          </g>
          <g id="Group_74" data-name="Group 74" transform="translate(3.101 7.057)">
            <path id="Path_282" data-name="Path 282" d="M15237.71,129.34a2.507,2.507,0,1,1-5.014,0Z" transform="translate(-15232.696 -129.34)" fill="#fff"/>
          </g>
          <path id="Path_283" data-name="Path 283" d="M15233.745,133.987a2.5,2.5,0,0,0,4.54,0Z" transform="translate(-15230.407 -125.88)" fill="#ff5722"/>
        </g>
        <g id="Group_80" data-name="Group 80" transform="translate(65.858 32.069)">
          <ellipse id="Ellipse_7" data-name="Ellipse 7" cx="7.673" cy="7.673" rx="7.673" ry="7.673" transform="translate(0 14.936) rotate(-76.717)" fill="#ef3f54"/>
          <path id="Path_289" data-name="Path 289" d="M15317.185,201.119a1.272,1.272,0,0,0-.9.372l-1.647-1.128a1.17,1.17,0,0,0,.01-.777l1.668-1.087a1.312,1.312,0,1,0-.329-.508l-1.645,1.072a1.276,1.276,0,1,0-.025,1.812l1.658,1.136a1.272,1.272,0,1,0,1.211-.893Z" transform="translate(-15306.078 -190.752)" fill="#fff"/>
        </g>
        <g id="Group_84" data-name="Group 84" transform="translate(43.168 40.502)">
          <g id="Group_82" data-name="Group 82" transform="translate(0 0)">
            <path id="Path_291" data-name="Path 291" d="M15193.8,213.565a4.484,4.484,0,1,1-4.483-4.484A4.484,4.484,0,0,1,15193.8,213.565Z" transform="translate(-15184.836 -209.081)" fill="#393e87"/>
          </g>
          <g id="Group_83" data-name="Group 83" transform="translate(1.74 1.858)">
            <path id="Path_292" data-name="Path 292" d="M15196.906,222.5l-1.546-.788a.106.106,0,0,0-.1,0l-1.525.828a.1.1,0,0,1-.15-.107l.271-1.715a.1.1,0,0,0-.03-.091l-1.259-1.2a.1.1,0,0,1,.054-.176l1.715-.272a.1.1,0,0,0,.077-.058l.748-1.566a.1.1,0,0,1,.186,0l.787,1.547a.1.1,0,0,0,.08.055l1.72.227a.1.1,0,0,1,.061.175l-1.229,1.228a.105.105,0,0,0-.028.092l.315,1.707A.1.1,0,0,1,15196.906,222.5Z" transform="translate(-15192.536 -217.305)" fill="#fff"/>
          </g>
        </g>
        <g id="Group_89" data-name="Group 89" transform="translate(57.958 57.955)">
          <ellipse id="Ellipse_9" data-name="Ellipse 9" cx="4.139" cy="4.139" rx="4.139" ry="4.139" fill="#f97e0b"/>
          <g id="Group_88" data-name="Group 88" transform="translate(2.154 2.462)">
            <path id="Path_295" data-name="Path 295" d="M15261.26,300.566l-1.437-1.438.821-.821.616.616,1.711-1.712.821.822Z" transform="translate(-15259.822 -297.211)" fill="#fff"/>
          </g>
        </g>
        <g id="Group_92" data-name="Group 92" transform="translate(77.775 11.808)">
          <ellipse id="Ellipse_11" data-name="Ellipse 11" cx="4.68" cy="4.68" rx="4.68" ry="4.68" transform="translate(0 8.647) rotate(-67.5)" fill="#4d5068"/>
          <path id="Path_297" data-name="Path 297" d="M15359.568,98.877v-.72a1.646,1.646,0,0,0-3.292,0v.72a2.081,2.081,0,1,0,3.292,0Zm-1.275,1.981h-.74l.074-.671a.429.429,0,0,1-.141-.318.437.437,0,1,1,.734.318Zm.751-2.463a2.07,2.07,0,0,0-2.242,0v-.238a1.121,1.121,0,0,1,2.242,0Z" transform="translate(-15351.809 -93.254)" fill="#fff"/>
        </g>
        <g id="Group_113" data-name="Group 113" transform="translate(109.423 8.998)">
          <ellipse id="Ellipse_14" data-name="Ellipse 14" cx="6.673" cy="6.673" rx="6.673" ry="6.673" fill="#393e87"/>
          <g id="Group_112" data-name="Group 112" transform="translate(4.093 2.746)">
            <g id="Group_109" data-name="Group 109" transform="translate(0 0.648)">
              <g id="Group_108" data-name="Group 108">
                <path id="Path_365" data-name="Path 365" d="M15499.342,91.051h-2.247a.938.938,0,0,1-.937-.937v-.48h1.333v.084h1.851a.645.645,0,0,0,.644-.645.419.419,0,0,0-.419-.42h-1.655a1.755,1.755,0,0,1-1.753-1.754v-.24a1.981,1.981,0,0,1,1.979-1.979h2.246a.939.939,0,0,1,.937.937v.545h-1.334v-.148h-1.849a.646.646,0,0,0-.646.645v.24a.421.421,0,0,0,.42.42h1.655a1.755,1.755,0,0,1,1.753,1.754A1.981,1.981,0,0,1,15499.342,91.051Z" transform="translate(-15496.158 -84.68)" fill="#f6f6f7"/>
              </g>
            </g>
            <g id="Group_111" data-name="Group 111" transform="translate(1.914)">
              <g id="Group_110" data-name="Group 110">
                <rect id="Rectangle_65" data-name="Rectangle 65" width="1.334" height="7.854" fill="#f6f6f7"/>
              </g>
            </g>
          </g>
        </g>
        <g id="Group_115" data-name="Group 115" transform="translate(67.662 0)">
          <ellipse id="Ellipse_15" data-name="Ellipse 15" cx="4.276" cy="4.276" rx="4.276" ry="4.276" fill="#32aaeb"/>
          <g id="Group_114" data-name="Group 114" transform="translate(2.198 2.198)">
            <path id="Path_366" data-name="Path 366" d="M15306.307,42.454c.094,0,.178-.075.249-.225a1.314,1.314,0,0,0,.106-.565,1.785,1.785,0,0,0-.423-1.221,1.436,1.436,0,0,0-1.136-.484,1.591,1.591,0,0,0-1.2.507,1.7,1.7,0,0,0-.486,1.216,1.622,1.622,0,0,0,.458,1.179,1.512,1.512,0,0,0,1.131.47,1.3,1.3,0,0,0,.931-.387l.215.371a1.6,1.6,0,0,1-.533.3,1.877,1.877,0,0,1-.612.112,1.993,1.993,0,0,1-1.461-.583,1.968,1.968,0,0,1-.588-1.459,2.115,2.115,0,0,1,2.111-2.115,1.963,1.963,0,0,1,1.46.6,2.033,2.033,0,0,1,.585,1.485,1.609,1.609,0,0,1-.237.923.727.727,0,0,1-.625.348.6.6,0,0,1-.364-.12.619.619,0,0,1-.227-.3.886.886,0,0,1-.729.371,1.043,1.043,0,0,1-.77-.334,1.17,1.17,0,0,1-.325-.85,1.305,1.305,0,0,1,.295-.868.961.961,0,0,1,.775-.353.789.789,0,0,1,.519.209l.067.068v-.214h.654v1.668C15306.15,42.367,15306.2,42.454,15306.307,42.454Zm-.806-.79a.674.674,0,0,0-.138-.434.444.444,0,0,0-.363-.172.433.433,0,0,0-.359.172.682.682,0,0,0-.133.426.75.75,0,0,0,.133.442.451.451,0,0,0,.728.008A.728.728,0,0,0,15305.5,41.665Z" transform="translate(-15302.961 -39.568)" fill="#fff"/>
          </g>
        </g>
      </g>
    </g>
  </g>
</svg>
