<svg xmlns="http://www.w3.org/2000/svg" xmlns:xlink="http://www.w3.org/1999/xlink" width="315.217" height="298.706" viewBox="0 0 315.217 298.706">
  <defs>
    <linearGradient id="linear-gradient" x1="-20.234" y1="-38.221" x2="-20.231" y2="-38.221" gradientUnits="objectBoundingBox">
      <stop offset="0" stop-color="#32aaeb"/>
      <stop offset="0.316" stop-color="#32a1eb"/>
      <stop offset="1" stop-color="#3293eb"/>
    </linearGradient>
    <linearGradient id="linear-gradient-2" x1="-172.145" y1="-12.697" x2="-172.119" y2="-12.697" gradientUnits="objectBoundingBox">
      <stop offset="0" stop-color="#e3edfe"/>
      <stop offset="1" stop-color="#b3cdfa"/>
    </linearGradient>
    <linearGradient id="linear-gradient-3" x1="-336.48" y1="-12.697" x2="-336.426" y2="-12.697" xlink:href="#linear-gradient-2"/>
    <linearGradient id="linear-gradient-4" x1="-172.132" y1="-52.029" x2="-172.105" y2="-52.029" xlink:href="#linear-gradient-2"/>
  </defs>
  <g id="Group_13091" data-name="Group 13091" transform="translate(-83 -119.119)">
    <g id="Group_12899" data-name="Group 12899" transform="translate(46 -138.558)">
      <g id="Group_12898" data-name="Group 12898" transform="translate(37 257.677)">
        <path id="Rectangle_162" data-name="Rectangle 162" d="M6384.353,1369.339h206.063a1.1,1.1,0,0,1,1.1,1.1h0v228.3H6383.256v-228.3a1.1,1.1,0,0,1,1.1-1.1Z" transform="translate(-6307.074 -1330.606)" fill="#f2f9fc"/>
        <path id="Rectangle_163" data-name="Rectangle 163" d="M6384.353,1366.141h206.063a1.1,1.1,0,0,1,1.1,1.1h0v15.352H6383.256v-15.352a1.1,1.1,0,0,1,1.1-1.1Z" transform="translate(-6307.074 -1328.306)" fill="#c2e3f2"/>
        <path id="Path_601" data-name="Path 601" d="M6446.344,1393.263a1.831,1.831,0,1,1-1.831-1.831,1.831,1.831,0,0,1,1.831,1.831Z" transform="translate(-6349.814 -1346.496)" fill="#fff"/>
        <path id="Path_602" data-name="Path 602" d="M6470.775,1393.263a1.831,1.831,0,1,1-1.831-1.831,1.831,1.831,0,0,1,1.831,1.831Z" transform="translate(-6367.386 -1346.496)" fill="#fff"/>
        <path id="Path_603" data-name="Path 603" d="M6495.208,1393.263a1.831,1.831,0,1,1-1.83-1.831h0A1.831,1.831,0,0,1,6495.208,1393.263Z" transform="translate(-6384.958 -1346.496)" fill="#fff"/>
        <rect id="Rectangle_164" data-name="Rectangle 164" width="125.449" height="6.633" transform="translate(114.58 85.449)" fill="#d9effc"/>
        <rect id="Rectangle_165" data-name="Rectangle 165" width="22.224" height="6.633" transform="translate(217.805 85.449)" fill="#c7e4f2"/>
        <rect id="Rectangle_166" data-name="Rectangle 166" width="66.232" height="66.232" transform="translate(108.145 110.853)" fill="#f8ac53"/>
        <rect id="Rectangle_167" data-name="Rectangle 167" width="66.232" height="66.232" transform="translate(180.061 110.978)" fill="#d9effc"/>
        <rect id="Rectangle_168" data-name="Rectangle 168" width="66.232" height="66.232" transform="translate(108.298 182.348)" fill="#d9effc"/>
        <rect id="Rectangle_169" data-name="Rectangle 169" width="66.232" height="66.232" transform="translate(180.214 182.473)" fill="#d9effc"/>
        <g id="Group_236" data-name="Group 236" transform="translate(126.03 124.885)">
          <path id="Path_604" data-name="Path 604" d="M6590.618,1699.259a18.79,18.79,0,0,0-.5-5.028,20.2,20.2,0,0,0-.836-3.087,9.511,9.511,0,0,0-2.009-2.653,19.874,19.874,0,0,0-6.206-3.775c-2.88-1.173-2.4-10.1-7.536-8.318-3.215,1.114-15.535,16.735-11.283,16.858-.449-2.744,8.385-17.823,12.922-16.2,1.994.715,2.41,3.933,3,5.329,1.092,2.58,2.869,3.08,5.669,4.444a10.837,10.837,0,0,1,4.41,3.346c.514.778,1.023,2.65.6,3.416-.275.5-.727.4-1.626.57-3.406.649-7.3.408-10.775.4-4.02-.005-8.039-.073-12.055-.169a19.164,19.164,0,0,0-2.6-.112c-.859.127-.646,1.652-.826,2.136a23.512,23.512,0,0,0-.141,4.505c.066.734.129,6.477.425,7.179.248.59.854.986,1.185,1.54.311.523.371,1.2.791,1.678a5.344,5.344,0,0,0,1.4.927,13.534,13.534,0,0,0,3.723,1.218,40.925,40.925,0,0,0,8.007.531,27.559,27.559,0,0,0,9.541-1.56,5.184,5.184,0,0,0,3.046-2.825,8.762,8.762,0,0,0,1.386-2.509A75.7,75.7,0,0,0,6590.618,1699.259Zm-1.754-1.867a19.794,19.794,0,0,1-1.229,2.323,9.664,9.664,0,0,1-3.219,3.566c-2.072,1.126-5.169.7-7.429.658-3.1,0-7.985.358-10.79-1.227-2.117-1.2-3.321-4.583-4.236-6.693a1.678,1.678,0,0,1-.216-.857c.09-.388.857.232,1.24.936.444.818.674,1.716,1.036,2.567.484,1.141,1.238,3.5,2.657,3.811a56.98,56.98,0,0,0,10.75.883c1.539.014,5.6.208,6.707-1.118a30.267,30.267,0,0,0,3.729-5.24c.23-.438.758-1.227,1.133-1.358C6589.782,1695.363,6589.07,1696.933,6588.864,1697.392Z" transform="translate(-6560.786 -1676.165)" fill="#d9811a"/>
        </g>
        <g id="Group_237" data-name="Group 237" transform="translate(199.389 126.748)">
          <path id="Path_605" data-name="Path 605" d="M6822.057,1684.489a29.052,29.052,0,0,0,.624,6.886c.609,2.14,1.991,6.954,2.105,8.117.122,1.187-.135,4.726-.087,5.695a29.259,29.259,0,0,1-.147,2.983,24.326,24.326,0,0,0-1.193,2.647,45.157,45.157,0,0,0-.683,7.691c1.4.522,6.646,2.207,10.1.725a15.527,15.527,0,0,0,.252-2.014s-.056-.5.921-.48a3.44,3.44,0,0,1,2.141.782,13.28,13.28,0,0,0,2.726,2.538,6.744,6.744,0,0,0,3.277.539,39.722,39.722,0,0,0,7.186-1.07,19.97,19.97,0,0,0,3.98-1.6.534.534,0,0,0,.259-.664c-.09-.253-.36-1.82-.564-2.28s-.529-1.379-1.365-1.193a7.293,7.293,0,0,1-2.783.087c-.591-.177-2.45-.573-2.819-.667s-.67-.106-1.672-1.133-3.6-4.532-4.027-5.078a5,5,0,0,1-1.434-2.849c-.288-1.741-.982-8.983-.9-10.554s-.084-5.86.115-6.827a7.678,7.678,0,0,0,.289-2.838c-.2-.462-2.207-.852-3.252-.985a82.629,82.629,0,0,0-8.708-.056C6824.39,1683.032,6822.188,1683.762,6822.057,1684.489Z" transform="translate(-6822.049 -1682.799)" fill="#acd5ea"/>
        </g>
        <g id="Group_238" data-name="Group 238" transform="translate(128.194 199.129)">
          <path id="Path_606" data-name="Path 606" d="M6586.036,1940.959l1.351,1.123a23.438,23.438,0,0,0,2.552.225c.974,0,2.773.449,3.073,1.652s1.725,7.5,1.8,7.871-1.8,1.348-3.674,1.05l-.6-.225a5.215,5.215,0,0,1-.454,1.35c-.3.522-1.273,1.948-1.124,3.073s.149,4.722.677,6.071a46.436,46.436,0,0,1,1.273,8.623,2.059,2.059,0,0,1-1.65,1.275,69.291,69.291,0,0,1-10.5.449,35.764,35.764,0,0,1-6.3-1.272s.375-3.9.521-4.95a26.183,26.183,0,0,1,1.051-3.6,25.416,25.416,0,0,0,.827-4.274,42.205,42.205,0,0,0-1.2-4.124,14.673,14.673,0,0,1-.522-3.15c.075-.751.074-1.35.074-1.35l-.527,1.35s-3.149.3-4.2-.6a53.23,53.23,0,0,1,1.724-6.6,3.3,3.3,0,0,1,1.65-1.725,6.578,6.578,0,0,1,2.548-.9c.754-.075,1.352,0,1.729-.374s1.123-1.351,1.123-1.351,1.8,2.323,2.325,2.775a4.438,4.438,0,0,0,6.071-.748A5.506,5.506,0,0,0,6586.036,1940.959Z" transform="translate(-6568.493 -1940.582)" fill="#acd5ea"/>
        </g>
        <g id="Group_239" data-name="Group 239" transform="translate(201.477 192.278)">
          <path id="Path_607" data-name="Path 607" d="M6834.774,1917.8a26.259,26.259,0,0,1-1.348,4.479,6.876,6.876,0,0,0-.9,2.6,5.162,5.162,0,0,0,.539,2.241,10.992,10.992,0,0,1,.985,3.763c0,1.167.449,5.378.269,6.721a11.957,11.957,0,0,1-.985,4.03,47.334,47.334,0,0,0-2.6,6.093,21.993,21.993,0,0,0-.808,5.736c.09,1.615.626,2.685.357,3.224s-.8,1.344-.8,1.344a14.416,14.416,0,0,0,3.494,3.045,23.356,23.356,0,0,0,8.151,1.615c2.866-.089,4.481-.626,5.289-.626a15.585,15.585,0,0,0,5.017-.9,6.063,6.063,0,0,0,2.15-1.254,11.927,11.927,0,0,1-.985-1.791c-.27-.718,0-2.241,0-3.586s.177-6.364-.358-8.513-1.254-5.287-1.522-6.093a8.608,8.608,0,0,1-.182-3.405,26.932,26.932,0,0,0,.449-4.568,6.126,6.126,0,0,1,.536-2.87c.445-1.166,1.076-2.238.895-3.223a20.1,20.1,0,0,0-.714-2.958,7.252,7.252,0,0,1-.717-2.24,7.505,7.505,0,0,1,.267-2.508,5,5,0,0,1-2.238-.538,9.165,9.165,0,0,1-1.074-.716,31.761,31.761,0,0,1-1.882,3.406,4.208,4.208,0,0,1-2.78,1.7,3,3,0,0,1-2.777-.9c-.678-.737-1.611-1.881-1.881-4.927a3.737,3.737,0,0,1-2.238.718c-.627,0-1.612.089-1.612.089Z" transform="translate(-6829.487 -1916.182)" fill="#acd5ea"/>
        </g>
        <g id="Group_241" data-name="Group 241" transform="translate(158.899 161.911)">
          <circle id="Ellipse_25" data-name="Ellipse 25" cx="5.11" cy="5.11" r="5.11" transform="translate(0 0)" fill="#91c4d8"/>
          <g id="Group_240" data-name="Group 240" transform="translate(2.055 2.823)">
            <path id="Path_608" data-name="Path 608" d="M6687.458,1822.916l-2.292-2.292.862-.879,1.327,1.283,2.957-2.94.964,1.009Z" transform="translate(-6685.166 -1818.088)" fill="#fff"/>
          </g>
        </g>
        <g id="Group_243" data-name="Group 243" transform="translate(233.067 161.911)">
          <circle id="Ellipse_26" data-name="Ellipse 26" cx="5.11" cy="5.11" r="5.11" transform="translate(0 0)" fill="#91c4d8"/>
          <g id="Group_242" data-name="Group 242" transform="translate(2.055 2.823)">
            <path id="Path_609" data-name="Path 609" d="M6951.605,1822.916l-2.292-2.292.862-.879,1.327,1.283,2.957-2.94.964,1.009Z" transform="translate(-6949.313 -1818.088)" fill="#fff"/>
          </g>
        </g>
        <g id="Group_245" data-name="Group 245" transform="translate(158.899 235.477)">
          <circle id="Ellipse_27" data-name="Ellipse 27" cx="5.11" cy="5.11" r="5.11" fill="#91c4d8"/>
          <g id="Group_244" data-name="Group 244" transform="translate(2.055 2.824)">
            <path id="Path_610" data-name="Path 610" d="M6687.458,2084.918l-2.292-2.292.862-.879,1.327,1.283,2.957-2.94.964,1.009Z" transform="translate(-6685.166 -2080.091)" fill="#fff"/>
          </g>
        </g>
        <path id="Path_611" data-name="Path 611" d="M6329.9,2032.028s37.513,1.6,39.034-13.119c.532-5.141-33.937,4.078-33.937,4.078Z" transform="translate(-6268.697 -1796.665)" fill="#bf411a"/>
        <path id="Path_612" data-name="Path 612" d="M6327.317,2028.923a51.1,51.1,0,0,1-.533,12.809c-1.269,8.728-4.368,21.431-4.794,38.494l-2.084,11.241v3.062a2.37,2.37,0,0,0,2.37,2.371h.982a5.688,5.688,0,0,0,5.665-5.173l.7-5.468-1.376-10.2c-.2,1.05,4.508-12.5,9.656-31.983a10.537,10.537,0,0,0,.342-2.324l.768-21.692Z" transform="translate(-6261.511 -1798.613)" fill="#ffcebd"/>
        <path id="Path_613" data-name="Path 613" d="M6326.784,2056.248c-1.269,8.728-4.368,21.431-4.794,38.494l-2.084,11.241v1.774a11.387,11.387,0,0,0,1.518-1.359,10.979,10.979,0,0,0,1.959-2.691,15.638,15.638,0,0,0,1.131-6.4q.2-5.557.389-11.115a29.711,29.711,0,0,1,.628-6.055c.52-2.123,1.5-4.108,2.052-6.222.82-3.152.661-6.511,1.63-9.619.661-2.118,1.833-4.07,2.285-6.242a19.612,19.612,0,0,0,.266-4.146q-.03-4.459-.061-8.92c-.011-1.582-.025-3.173-.164-4.747l-4.221,3.2A51.086,51.086,0,0,1,6326.784,2056.248Z" transform="translate(-6261.511 -1813.128)" fill="#a58877" opacity="0.4" style="isolation: isolate"/>
        <g id="Group_247" data-name="Group 247" transform="translate(58.394 284.912)">
          <path id="Path_614" data-name="Path 614" d="M6328.922,2248.668c-.266,2.93-2.724,3.923-5.665,3.923h-.981c-.915,0-1.192-2.019-1.586-2.78l-.784,4.224v3.064a2.371,2.371,0,0,0,2.371,2.371h.981c2.941,0,5.4.884,5.665-2.047l.7-8.595-.37-2.735Z" transform="translate(-6319.905 -2246.093)" fill="#4d5068"/>
        </g>
        <path id="Path_615" data-name="Path 615" d="M6414.961,2019.018a285.516,285.516,0,0,1-6.388,54.152l1.338,14.928a5.74,5.74,0,0,1-.69,3.283h0a2.269,2.269,0,0,1-1.987,1.174H6404.4a2.268,2.268,0,0,1-2.26-2.073l-.973-11.181,2.375-9.466s-1.393-29.209-.625-33.9l-.849-22.5Z" transform="translate(-6319.957 -1793.849)" fill="#ffcebd"/>
        <path id="Path_616" data-name="Path 616" d="M6422.915,2080.13a285.465,285.465,0,0,0,6.388-54.152l-6.617-2.866c.384,3.554.135,7.328.8,10.854a21.67,21.67,0,0,1,.619,3.847c.01,1.315-.347,2.6-.45,3.914a23.94,23.94,0,0,0,.424,5.23,69.372,69.372,0,0,1-2.615,30.826,5.139,5.139,0,0,0-.357,1.822,6.342,6.342,0,0,0,.462,1.7,11.625,11.625,0,0,1,.571,5.077c-.189,1.695-.675,3.659.477,4.916a2.407,2.407,0,0,0,1.362.749Z" transform="translate(-6334.297 -1800.81)" fill="#a58877" opacity="0.4" style="isolation: isolate"/>
        <g id="Group_248" data-name="Group 248" transform="translate(81.212 284.004)">
          <path id="Path_617" data-name="Path 617" d="M6409.619,2246.708a5.84,5.84,0,0,1-.4.922c-.4.724-1.161,1.8-1.987,1.8H6404.4c-1.177,0-2.158-1.525-2.26-2.7l-.609-3.875-.363,1.449.973,11.181a2.268,2.268,0,0,0,2.26,2.072h2.833a2.268,2.268,0,0,0,1.987-1.174,5.74,5.74,0,0,0,.69-3.283Z" transform="translate(-6401.168 -2242.857)" fill="#4d5068"/>
        </g>
        <path id="Path_618" data-name="Path 618" d="M6370.029,1880.84l-1.1,39.89c-3.019,10.94-23.918.288-39.034,13.119,0,0,.657-15.257.353-24.16a32.138,32.138,0,0,1,2.1-12.586c2.238-5.857,5.966-13.048,11.039-14.134Z" transform="translate(-6268.697 -1698.485)" fill="#ff5722"/>
        <path id="Path_619" data-name="Path 619" d="M6370.537,1913.837a14.183,14.183,0,0,0-1.994-1.406c-3.927-2.281-8.6-2.864-13.131-3.1a58.768,58.768,0,0,0-18.018,1.44q-.639.169-1.27.359a49.608,49.608,0,0,0-2.922,6.374,32.128,32.128,0,0,0-2.1,12.586c.076,2.223.092,4.842.073,7.521,1.42-1.208,2.826-2.394,3.24-4.156a21.1,21.1,0,0,0,.1-3.681c.067-1.229.618-2.6,1.793-2.963,2.038-.627,3.846,2.194,5.943,1.811.008-1.8.484-4.161,2.275-4.352,2.218-.238,3.778,3.367,5.864,2.571a4.194,4.194,0,0,0,1.18-.866c2.371-2.071,5.753-2.391,8.893-2.615,2.513-.179,5.412-.21,7.083,1.675.727.82,1.137,1.937,2.048,2.548a2.409,2.409,0,0,0,.558.275Z" transform="translate(-6269.551 -1718.886)" fill="#bf411a" opacity="0.3" style="isolation: isolate"/>
        <path id="Path_620" data-name="Path 620" d="M6383.449,1605.794c-.229-.4-.605-.689-.834-1.085-.559-.966.047-1.694.229-2.651a8,8,0,0,0-.033-2.714,41.434,41.434,0,0,1-.7-4.15c-.114-2.129.544-4.319-.051-6.367a9.022,9.022,0,0,0-3.039-4.113,3.238,3.238,0,0,1-.95-1.081,3.678,3.678,0,0,1-.112-1.685,9.176,9.176,0,0,0-8.633-9.688q-.231-.013-.464-.015c-2.365-.016-4.639.876-6.987,1.16-1.745.211-3.566.094-5.2.75-2.431.979-3.936,3.528-4.412,6.105-.544,2.943-.025,6.175-1.5,8.78a22.131,22.131,0,0,0-1.668,2.724,6.9,6.9,0,0,0,.07,4.2,17.553,17.553,0,0,1,.874,4.172c.022,1.891-1.26,2.783-1.817,4.386-.625,1.8.752,3.013,1.157,4.627.333,1.331-.307,2.714-.239,4.084a7.975,7.975,0,0,0,.922,2.909,1.13,1.13,0,0,0,.54.647c.554.2.982-.472,1.406-.885,1.027-1,2.733-.553,4.125-.911,1.154-.3,2.154-1.185,3.346-1.186s2.206.888,3.381,1.077c1.844.3,3.457-1.14,5.174-1.872,3.933-1.678,8.89.288,12.529-1.955a8.464,8.464,0,0,0,2.024-1.828C6383.4,1608.263,6384.081,1606.884,6383.449,1605.794Z" transform="translate(-6281.764 -1476.538)" fill="#4d5068"/>
        <rect id="Rectangle_170" data-name="Rectangle 170" width="9.458" height="12.663" transform="translate(78.925 119.709)" fill="#ffcebd"/>
        <path id="Path_621" data-name="Path 621" d="M6401.618,1685.811h-13.067v-6.644l13.067,1.173Z" transform="translate(-6310.882 -1553.439)" fill="#5d7dbe"/>
        <path id="Path_622" data-name="Path 622" d="M6385.8,1719.209H6363.7v-41.062l6.879,1.46,2.185,2.464a6.275,6.275,0,0,0,10.094-.965l.888-1.5h0l5.8,19.072Z" transform="translate(-6293.012 -1552.705)" fill="#fff"/>
        <path id="Path_623" data-name="Path 623" d="M6383.084,1873.986l-29.6-2.085c-2.471.53-4.212,2.918-5.437,6.072,2.935,1.849,6.574,4.621,10.458,4.822a7.812,7.812,0,0,0,6.9-3.494l2.01-3.033.294.62a7.788,7.788,0,0,0,8.5,4.324c3.742-.725,6.929-3.017,9.013-3.922A8.193,8.193,0,0,0,6383.084,1873.986Z" transform="translate(-6281.752 -1692.056)" fill="#191c3c" opacity="0.3" style="isolation: isolate"/>
        <path id="Path_624" data-name="Path 624" d="M6369.866,1679.595s9.97,1.487,11.22,5.329l-4.377,22.6s-.8,7.485.227,9.475,8.248,20.1,8.248,20.1a112.1,112.1,0,0,1-11.6,2.875,7.788,7.788,0,0,1-8.5-4.324l-.294-.62-2.01,3.032a7.811,7.811,0,0,1-6.9,3.494c-4.347-.225-8.4-1.074-11.482-2.935,0,0,4.169-19.083,4.169-20.5l-3.127-19.081,4.294-20.505c.046-.218-.135-.441.083-.393l6.879.286,8.962,35.564,6.045-12.714Z" transform="translate(-6279.129 -1552.694)" fill="#4a65a3"/>
        <path id="Path_625" data-name="Path 625" d="M6347.333,1873.476a1.635,1.635,0,0,0,.7-1.11c.437-1.892-.87-4.259-1.044-6.149a62.2,62.2,0,0,1-.1-6.719c.033-1.547-.453-3.483-.14-5-1.21,5.862-2.347,19.177-2.347,19.177C6345.521,1873.674,6346.619,1873.913,6347.333,1873.476Z" transform="translate(-6279.127 -1679.541)" fill="#191c3c" opacity="0.3" style="isolation: isolate"/>
        <path id="Path_626" data-name="Path 626" d="M6350.153,1716.82l-2.1,10.042a7.765,7.765,0,0,0,.364,2.224l.782,4.77.382,2.328c.046.287.071,1.587.309,1.756.577.412.191-2.727.16-3.044a13.033,13.033,0,0,1,.042-3.851,6.738,6.738,0,0,0,.255-1.628,7.238,7.238,0,0,0-.362-1.528c-.555-2.042-.078-4.618,0-6.738Q6350.07,1718.985,6350.153,1716.82Z" transform="translate(-6281.736 -1580.52)" fill="#191c3c" opacity="0.3" style="isolation: isolate"/>
        <path id="Path_627" data-name="Path 627" d="M6424.332,1683.343l4.967,15.162-2.274,2.144,2.067,3.945-8.963,13.139,6.045-12.714Z" transform="translate(-6333.593 -1556.443)" fill="#384c7a"/>
        <path id="Path_628" data-name="Path 628" d="M6378.589,1679.167l-3.751,11.178,3.751,1.25-1.876,2.4,10.839,20.74Z" transform="translate(-6301.02 -1553.439)" fill="#384c7a"/>
        <g id="Group_249" data-name="Group 249" transform="translate(85.315 167.356)">
          <path id="Path_629" data-name="Path 629" d="M6416.928,1827.454c-.095,4.9.453,10.384-1.136,15.078-.093.276.345.4.437.12,1.534-4.621,1.039-10.4.76-15.2a.031.031,0,0,0-.031-.031.03.03,0,0,0-.03.031Z" transform="translate(-6415.78 -1827.423)" fill="#384c7a"/>
        </g>
        <path id="Path_630" data-name="Path 630" d="M6329.987,1920.986a8.671,8.671,0,0,1,1.95,1.385c.211.218.423.441.634.663a2.637,2.637,0,0,1,.713,2.155,7.209,7.209,0,0,0-.071,2.1c.163.995.681,1.892.456,2.95a1.079,1.079,0,0,1-1.019.909c-.588-.04-1.032-.722-1.614-.636-.414.061-.691.493-1.1.576-.548.11-1.043-.445-1.6-.408-.49.032-.83.5-1.281.692a1.535,1.535,0,0,1-1.375-.146,2.9,2.9,0,0,1-.959-1.05,6.059,6.059,0,0,1-.665-3.381c.014-1.132.459-2.309.4-3.451a1.877,1.877,0,0,1,1.481-1.78c.659-.168.253-.152.927-.227Z" transform="translate(-6264.493 -1727.359)" fill="#ffcebd"/>
        <path id="Path_631" data-name="Path 631" d="M6471.524,1920.986a8.628,8.628,0,0,1,1.95,1.385c.212.218.423.441.636.663a2.634,2.634,0,0,1,.712,2.155,7.26,7.26,0,0,0-.071,2.1c.163.995.681,1.892.456,2.95a1.077,1.077,0,0,1-1.018.909c-.589-.04-1.031-.722-1.614-.636-.413.061-.69.493-1.1.576-.548.11-1.044-.445-1.6-.408-.49.032-.83.5-1.281.692a1.537,1.537,0,0,1-1.375-.146,2.9,2.9,0,0,1-.959-1.05,6.059,6.059,0,0,1-.665-3.381c.015-1.132.46-2.309.4-3.451a1.877,1.877,0,0,1,1.48-1.78c.659-.168.253-.152.927-.227Z" transform="translate(-6366.289 -1727.359)" fill="#ffcebd"/>
        <rect id="Rectangle_171" data-name="Rectangle 171" width="5.887" height="6.264" transform="translate(59.919 191.001)" fill="#5d7dbe"/>
        <path id="Path_632" data-name="Path 632" d="M6323.692,1698.886l3.648-20.74-5.858,3.368a11.958,11.958,0,0,0-5.082,5.776l-2.137,5.141c-1.249,4.059-1.151,11.013-1.085,12.346l2.072,42.062H6324l-.834-30.756Z" transform="translate(-6256.648 -1552.705)" fill="#4a65a3"/>
        <path id="Path_633" data-name="Path 633" d="M6456.962,1702.675l-3.647-20.74,5.858,3.368a11.959,11.959,0,0,1,5.082,5.776l2.137,5.141c1.248,4.058,1.151,11.014,1.085,12.346l-2.072,42.062h-8.754l.833-30.756Z" transform="translate(-6357.461 -1555.43)" fill="#4a65a3"/>
        <path id="Path_634" data-name="Path 634" d="M6445.267,1787.57c-1.024-1.99-.227-9.475-.227-9.475s.354-1.827.326-1.843l-.028.275a5.489,5.489,0,0,0-1.522,1.978c-.948,2.091.348,5.953-1.332,7.388a6.684,6.684,0,0,1-1.956,1.018,2.09,2.09,0,0,0-.953.6.735.735,0,0,0,.073,1.016,1.2,1.2,0,0,0,.637.132,5.1,5.1,0,0,1,4.522,3.454,40.911,40.911,0,0,0,2.521,5.44c.186.391.284.823.5,1.2.634,1.08,2.1,1.442,3.006,2.248C6448.668,1795.613,6445.875,1788.751,6445.267,1787.57Z" transform="translate(-6347.46 -1623.264)" fill="#191c3c" opacity="0.2" style="isolation: isolate"/>
        <path id="Path_635" data-name="Path 635" d="M6402.482,1657.732h-9.458v2.661l1.707,1.5a3.082,3.082,0,0,0,2.033.766h1.451a3.08,3.08,0,0,0,2.081-.809l2.186-2Z" transform="translate(-6314.1 -1538.023)" fill="#191c3c" opacity="0.3" style="isolation: isolate"/>
        <path id="Path_636" data-name="Path 636" d="M6384.392,1599.028v8.929a3.905,3.905,0,0,0,1.328,2.932l2.8,2.458a3.081,3.081,0,0,0,2.033.766h1.451a3.082,3.082,0,0,0,2.081-.809l3.655-3.346a3.905,3.905,0,0,0,1.266-2.877v-8.053s.782-4.377-2.579-6.253a13.427,13.427,0,0,0-8.989,0S6384.392,1593.635,6384.392,1599.028Z" transform="translate(-6307.89 -1490.73)" fill="#ffcebd"/>
        <path id="Path_637" data-name="Path 637" d="M6356.446,1670.636c-.159-.313-.593-.083-.535.225.11.593-2.494,1.019-2.913,1.542-.9,1.123.356,3.121-.681,4.137a2.878,2.878,0,0,0-.808-.5c-.532-.216-1.039.321-1.06.806q-.025.593-.051,1.186a.889.889,0,0,0,.367.753c-.32.5-.666.984-.711,1.039a5.669,5.669,0,0,0-.8,1.255,5.442,5.442,0,0,0-.521,2.931c.077.93,1.592,1.309,1.764.238a8.652,8.652,0,0,1,1.509-3.906,4.406,4.406,0,0,0,1.006-1.928c1.034-.721,1.3-1.9,1.473-3.37q.259-1.03.516-2.06a5.919,5.919,0,0,0,.769-.275c.18-.23.546-.276.711-.533C6356.919,1671.482,6356.774,1671.282,6356.446,1670.636Z" transform="translate(-6282.221 -1547.196)" fill="#3c5185"/>
        <path id="Path_638" data-name="Path 638" d="M6453.152,1681.833c-.961-1.544-.54-2.728-.8-4.347a3.845,3.845,0,0,0-.611-1.329,5.8,5.8,0,0,1-.728-2.93c-.118-2.468-3.775-2.912-4.355-.51a.612.612,0,0,0,1.18.324q1.278-1.29,1.913.316-.187.58-.405,1.149a3.042,3.042,0,0,0-.122,1.355,4.267,4.267,0,0,0,.461.987,4.458,4.458,0,0,1,.55,2.382c-.09,2.134.93,5.463,3.476,5.577a.546.546,0,0,0,.538-.537C6454.305,1683.069,6453.794,1682.864,6453.152,1681.833Z" transform="translate(-6352.659 -1547.657)" fill="#3c5185"/>
        <path id="Path_639" data-name="Path 639" d="M6445.391,1686.684c-2.844-1.537-1.307-4-2.531-6.046a3.422,3.422,0,0,0,.172-1.56,3.2,3.2,0,0,0-.86-1.816c-.5-.513-1.342-.531-1.773-.944-.914-.875.006-1.821-.867-2.824a1.519,1.519,0,0,0-2.13-.276h0c-.849.562-.333,2.139.733,1.741a1.751,1.751,0,0,0-.676,2.545,2.623,2.623,0,0,0,.846.73c1.441.732,1.165-.4,2.336,1.075a1.538,1.538,0,0,0-.4.081c-1.885.677-.9,3.126.816,2.911a9.192,9.192,0,0,0,.713,4.1,4.493,4.493,0,0,0,2.735,2.387A1.153,1.153,0,0,0,6445.391,1686.684Z" transform="translate(-6345.71 -1548.932)" fill="#3c5185"/>
        <path id="Path_640" data-name="Path 640" d="M6395.759,1648.215h7.844S6399.364,1655.6,6395.759,1648.215Z" transform="translate(-6316.066 -1531.178)" fill="#fff"/>
        <path id="Path_641" data-name="Path 641" d="M6357.938,1802.789c-.291-.517-.109-1.157-.142-1.749a4.455,4.455,0,0,0-.952-2.188c-.67-.97-1.4-1.9-2.165-2.795l1.126,6.873c0,.538-.6,3.616-1.343,7.229a6.219,6.219,0,0,0,.9-1.176l1.859-3.036a2.951,2.951,0,0,1,1.1-1.214c.913-.443,2.079.128,2.991-.314-.056-.119-.113-.239-.171-.358C6360.228,1803.308,6358.519,1803.821,6357.938,1802.789Z" transform="translate(-6286.365 -1637.509)" fill="#191c3c" opacity="0.2" style="isolation: isolate"/>
        <path id="Path_642" data-name="Path 642" d="M6418.818,1814.425a.834.834,0,1,1-.834-.834A.834.834,0,0,1,6418.818,1814.425Z" transform="translate(-6331.451 -1650.119)" fill="#384c7a"/>
        <g id="Group_250" data-name="Group 250" transform="translate(43.238 189.817)">
          <rect id="Rectangle_172" data-name="Rectangle 172" width="84.759" height="8.005" transform="translate(1.21 4.316)" fill="#5acdff"/>
          <rect id="Rectangle_173" data-name="Rectangle 173" width="86.693" height="5.939" transform="translate(0 0)" fill="url(#linear-gradient)"/>
          <rect id="Rectangle_174" data-name="Rectangle 174" width="3.752" height="12.321" transform="translate(41.973 0)" fill="#ff5722"/>
        </g>
        <path id="Path_643" data-name="Path 643" d="M6470.812,1937.431l1.861-3.534v-.854a1.4,1.4,0,0,1,1.4-1.4h3.339a2.172,2.172,0,0,1,2.079,1.54l.6,1.977a2.308,2.308,0,0,1-.446,2.164l-.992,1.173Z" transform="translate(-6370.045 -1735.027)" fill="#ffcebd"/>
        <path id="Path_644" data-name="Path 644" d="M6332.309,1937.431l-1.861-3.534v-.854a1.4,1.4,0,0,0-1.4-1.4h-3.338a2.171,2.171,0,0,0-2.078,1.54l-.6,1.977a2.313,2.313,0,0,0,.447,2.164l.992,1.173Z" transform="translate(-6263.689 -1735.027)" fill="#ffcebd"/>
        <g id="Group_251" data-name="Group 251" transform="translate(87.087 161.072)">
          <rect id="Rectangle_175" data-name="Rectangle 175" width="47.965" height="28.839" transform="translate(0 0.442)" fill="#fc7318"/>
          <rect id="Rectangle_176" data-name="Rectangle 176" width="47.965" height="7.249" transform="translate(0 1.064)" fill="#3c5185" opacity="0.3" style="isolation: isolate"/>
          <rect id="Rectangle_177" data-name="Rectangle 177" width="48.7" height="7.249" transform="translate(0 0)" fill="#ffcfaf"/>
          <path id="Path_645" data-name="Path 645" d="M6471.138,1805.044l-29.28,29.281-5.4-.091,29.188-29.189Z" transform="translate(-6432.422 -1805.043)" fill="#5acdff"/>
        </g>
        <g id="Group_252" data-name="Group 252" transform="translate(47.129 165.6)">
          <rect id="Rectangle_178" data-name="Rectangle 178" width="41.349" height="24.678" transform="translate(0.601 0.187)" fill="#ff5722"/>
          <rect id="Rectangle_179" data-name="Rectangle 179" width="1.542" height="24.678" transform="translate(40.408 0.187)" fill="#ff794e"/>
          <rect id="Rectangle_180" data-name="Rectangle 180" width="1.542" height="24.678" transform="translate(37.31 0.187)" fill="#ff794e"/>
          <rect id="Rectangle_181" data-name="Rectangle 181" width="1.542" height="24.678" transform="translate(34.213 0.187)" fill="#ff794e"/>
          <rect id="Rectangle_182" data-name="Rectangle 182" width="1.542" height="24.678" transform="translate(31.115 0.187)" fill="#ff794e"/>
          <rect id="Rectangle_183" data-name="Rectangle 183" width="1.542" height="24.678" transform="translate(28.017 0.187)" fill="#ff794e"/>
          <rect id="Rectangle_184" data-name="Rectangle 184" width="1.542" height="24.678" transform="translate(24.92 0.506)" fill="#d1e1f2"/>
          <rect id="Rectangle_185" data-name="Rectangle 185" width="1.542" height="24.678" transform="translate(21.822 0.187)" fill="#ff794e"/>
          <rect id="Rectangle_186" data-name="Rectangle 186" width="1.542" height="24.678" transform="translate(18.724 0.187)" fill="#ff794e"/>
          <rect id="Rectangle_187" data-name="Rectangle 187" width="1.542" height="24.678" transform="translate(15.626 0.187)" fill="#ff794e"/>
          <rect id="Rectangle_188" data-name="Rectangle 188" width="1.542" height="24.678" transform="translate(12.529 0.187)" fill="#ff794e"/>
          <rect id="Rectangle_189" data-name="Rectangle 189" width="11.185" height="24.678" transform="translate(0.601 0.187)" fill="#bf411a"/>
          <rect id="Rectangle_190" data-name="Rectangle 190" width="1.542" height="24.678" transform="translate(9.431 0.187)" fill="#ff794e"/>
          <rect id="Rectangle_191" data-name="Rectangle 191" width="1.542" height="24.678" transform="translate(6.334 0.187)" fill="#ff794e"/>
          <rect id="Rectangle_192" data-name="Rectangle 192" width="1.542" height="24.678" transform="translate(3.235 0.187)" fill="#ff794e"/>
          <rect id="Rectangle_193" data-name="Rectangle 193" width="1.08" height="24.678" transform="translate(0.601 0.187)" fill="#ff794e"/>
          <rect id="Rectangle_194" data-name="Rectangle 194" width="41.349" height="6.604" transform="translate(0.601 1.064)" fill="#3c5185" opacity="0.3" style="isolation: isolate"/>
          <rect id="Rectangle_195" data-name="Rectangle 195" width="42.551" height="6.604" transform="translate(0)" fill="#ff5722"/>
          <rect id="Rectangle_196" data-name="Rectangle 196" width="11.786" height="6.604" transform="translate(0)" fill="#bf411a"/>
          <rect id="Rectangle_197" data-name="Rectangle 197" width="3.055" height="25.179" transform="translate(4.017)" fill="#fff"/>
          <rect id="Rectangle_198" data-name="Rectangle 198" width="3.752" height="25.179" transform="translate(23.81 0)" fill="#fff"/>
        </g>
        <g id="Group_253" data-name="Group 253" transform="translate(72.324 123.292)">
          <rect id="Rectangle_199" data-name="Rectangle 199" width="32.884" height="43.045" transform="translate(0)" fill="#11284f"/>
          <rect id="Rectangle_200" data-name="Rectangle 200" width="4.231" height="42.91" transform="translate(13.869)" fill="#ff5722"/>
          <rect id="Rectangle_201" data-name="Rectangle 201" width="32.884" height="4.231" transform="translate(0 11.736)" fill="#ff5722"/>
        </g>
        <g id="Group_270" data-name="Group 270" transform="translate(85.157 122.971)">
          <g id="Group_255" data-name="Group 255" transform="translate(13.77)">
            <g id="Group_254" data-name="Group 254">
              <path id="Path_646" data-name="Path 646" d="M6471.8,1678.648a5.005,5.005,0,0,1-2.59-.642c-2.686-1.6-6.116-4.928-4.555-7.56a2.309,2.309,0,0,1,2.116-1.1c1.98,0,4.654,1.641,5.909,3.174a14.838,14.838,0,0,1,2.626,4.866l.127.454-.436.181A9.3,9.3,0,0,1,6471.8,1678.648Zm-5.029-8.237a1.27,1.27,0,0,0-1.2.578c-1.2,2.02,2.3,4.983,4.184,6.1a3.965,3.965,0,0,0,2.047.492,8.1,8.1,0,0,0,2.323-.38,14.278,14.278,0,0,0-2.265-4.008c-1.077-1.315-3.479-2.785-5.086-2.785Z" transform="translate(-6464.261 -1669.348)" fill="#9fc2f1"/>
            </g>
          </g>
          <g id="Group_257" data-name="Group 257" transform="translate(23.495 0)">
            <g id="Group_256" data-name="Group 256">
              <path id="Path_647" data-name="Path 647" d="M6502.528,1678.649h0a9.285,9.285,0,0,1-3.2-.625l-.437-.18.128-.454a14.828,14.828,0,0,1,2.625-4.866c1.255-1.533,3.931-3.174,5.91-3.174a2.308,2.308,0,0,1,2.116,1.1c1.562,2.632-1.869,5.963-4.556,7.56A5,5,0,0,1,6502.528,1678.649Zm-2.323-1.445a8.115,8.115,0,0,0,2.323.381h0a3.963,3.963,0,0,0,2.047-.492c1.882-1.119,5.382-4.083,4.184-6.1a1.269,1.269,0,0,0-1.2-.578c-1.606,0-4.011,1.47-5.088,2.785a14.207,14.207,0,0,0-2.265,4.006Z" transform="translate(-6498.896 -1669.349)" fill="#9fc2f1"/>
            </g>
          </g>
          <g id="Group_269" data-name="Group 269" transform="translate(0 7.676)">
            <rect id="Rectangle_202" data-name="Rectangle 202" width="37.808" height="24.113" transform="translate(5.216 6.211)" fill="#393e87"/>
            <g id="Group_264" data-name="Group 264" transform="translate(0 4.418)">
              <rect id="Rectangle_4525" data-name="Rectangle 4525" width="37.808" height="24.113" transform="translate(5.216 1.793)" fill="none"/>
              <g id="Group_263" data-name="Group 263">
                <g id="Group_258" data-name="Group 258" transform="translate(3.587)">
                  <path id="Path_648" data-name="Path 648" d="M6431.583,1714.214a1.793,1.793,0,1,1-1.793-1.794,1.793,1.793,0,0,1,1.793,1.794Z" transform="translate(-6427.996 -1712.42)" fill="#9fc2f1"/>
                  <path id="Path_649" data-name="Path 649" d="M6456.324,1714.214a1.793,1.793,0,1,1-1.792-1.794h0a1.793,1.793,0,0,1,1.792,1.793Z" transform="translate(-6445.79 -1712.42)" fill="#9fc2f1"/>
                  <path id="Path_650" data-name="Path 650" d="M6481.068,1714.214a1.794,1.794,0,1,1-1.794-1.794,1.794,1.794,0,0,1,1.794,1.794Z" transform="translate(-6463.586 -1712.42)" fill="#9fc2f1"/>
                  <path id="Path_651" data-name="Path 651" d="M6505.811,1714.214a1.794,1.794,0,1,1-1.794-1.794,1.794,1.794,0,0,1,1.794,1.794Z" transform="translate(-6481.381 -1712.42)" fill="#9fc2f1"/>
                  <path id="Path_652" data-name="Path 652" d="M6530.549,1714.214a1.793,1.793,0,1,1-1.793-1.794,1.793,1.793,0,0,1,1.793,1.794Z" transform="translate(-6499.175 -1712.42)" fill="#9fc2f1"/>
                  <path id="Path_653" data-name="Path 653" d="M6555.293,1714.214a1.793,1.793,0,1,1-1.793-1.794h0a1.793,1.793,0,0,1,1.792,1.792Z" transform="translate(-6516.97 -1712.42)" fill="#9fc2f1"/>
                  <path id="Path_654" data-name="Path 654" d="M6580.035,1714.214a1.794,1.794,0,1,1-1.794-1.794,1.794,1.794,0,0,1,1.794,1.794Z" transform="translate(-6534.765 -1712.42)" fill="#9fc2f1"/>
                </g>
                <g id="Group_259" data-name="Group 259" transform="translate(0 5.201)">
                  <path id="Path_655" data-name="Path 655" d="M6418.809,1732.737a1.794,1.794,0,1,1-1.794-1.794h0A1.8,1.8,0,0,1,6418.809,1732.737Z" transform="translate(-6415.22 -1730.943)" fill="#9fc2f1"/>
                  <path id="Path_656" data-name="Path 656" d="M6443.551,1732.737a1.794,1.794,0,1,1-1.793-1.794,1.793,1.793,0,0,1,1.793,1.794Z" transform="translate(-6433.017 -1730.943)" fill="#9fc2f1"/>
                  <path id="Path_657" data-name="Path 657" d="M6468.294,1732.737a1.794,1.794,0,1,1-1.794-1.794,1.794,1.794,0,0,1,1.794,1.794Z" transform="translate(-6450.812 -1730.943)" fill="#9fc2f1"/>
                  <path id="Path_658" data-name="Path 658" d="M6493.037,1732.737a1.793,1.793,0,1,1-1.793-1.794,1.793,1.793,0,0,1,1.793,1.794Z" transform="translate(-6468.607 -1730.943)" fill="#9fc2f1"/>
                  <path id="Path_659" data-name="Path 659" d="M6517.775,1732.737a1.794,1.794,0,1,1-1.793-1.794h0A1.794,1.794,0,0,1,6517.775,1732.737Z" transform="translate(-6486.399 -1730.943)" fill="#9fc2f1"/>
                  <path id="Path_660" data-name="Path 660" d="M6542.518,1732.737a1.794,1.794,0,1,1-1.794-1.794h0A1.794,1.794,0,0,1,6542.518,1732.737Z" transform="translate(-6504.194 -1730.943)" fill="#9fc2f1"/>
                  <path id="Path_661" data-name="Path 661" d="M6567.261,1732.737a1.794,1.794,0,1,1-1.794-1.794,1.794,1.794,0,0,1,1.794,1.794Z" transform="translate(-6521.99 -1730.943)" fill="#9fc2f1"/>
                </g>
                <g id="Group_260" data-name="Group 260" transform="translate(3.588 10.86)">
                  <path id="Path_662" data-name="Path 662" d="M6431.587,1752.892a1.794,1.794,0,1,1-1.795-1.793,1.794,1.794,0,0,1,1.795,1.793Z" transform="translate(-6427.999 -1751.099)" fill="#9fc2f1"/>
                  <path id="Path_663" data-name="Path 663" d="M6456.324,1752.892a1.793,1.793,0,1,1-1.793-1.793h0A1.793,1.793,0,0,1,6456.324,1752.892Z" transform="translate(-6445.791 -1751.099)" fill="#9fc2f1"/>
                  <path id="Path_664" data-name="Path 664" d="M6481.069,1752.892a1.794,1.794,0,1,1-1.794-1.793h0A1.793,1.793,0,0,1,6481.069,1752.892Z" transform="translate(-6463.588 -1751.099)" fill="#9fc2f1"/>
                  <path id="Path_665" data-name="Path 665" d="M6505.811,1752.892a1.794,1.794,0,1,1-1.794-1.793h0A1.794,1.794,0,0,1,6505.811,1752.892Z" transform="translate(-6481.382 -1751.099)" fill="#9fc2f1"/>
                  <path id="Path_666" data-name="Path 666" d="M6530.554,1752.892a1.793,1.793,0,1,1-1.794-1.793,1.793,1.793,0,0,1,1.794,1.793Z" transform="translate(-6499.178 -1751.099)" fill="#9fc2f1"/>
                  <path id="Path_667" data-name="Path 667" d="M6555.293,1752.892a1.793,1.793,0,1,1-1.794-1.793h0A1.793,1.793,0,0,1,6555.293,1752.892Z" transform="translate(-6516.971 -1751.099)" fill="#9fc2f1"/>
                  <path id="Path_668" data-name="Path 668" d="M6580.036,1752.892a1.794,1.794,0,1,1-1.794-1.793h0A1.794,1.794,0,0,1,6580.036,1752.892Z" transform="translate(-6534.766 -1751.099)" fill="#9fc2f1"/>
                </g>
                <g id="Group_261" data-name="Group 261" transform="translate(0.001 16.061)">
                  <path id="Path_669" data-name="Path 669" d="M6418.811,1771.416a1.793,1.793,0,1,1-1.793-1.794,1.793,1.793,0,0,1,1.793,1.794Z" transform="translate(-6415.224 -1769.622)" fill="#9fc2f1"/>
                  <path id="Path_670" data-name="Path 670" d="M6443.551,1771.416a1.794,1.794,0,1,1-1.793-1.794,1.793,1.793,0,0,1,1.793,1.794Z" transform="translate(-6433.017 -1769.622)" fill="#9fc2f1"/>
                  <path id="Path_671" data-name="Path 671" d="M6468.294,1771.416a1.794,1.794,0,1,1-1.794-1.794h0a1.794,1.794,0,0,1,1.794,1.793Z" transform="translate(-6450.813 -1769.622)" fill="#9fc2f1"/>
                  <path id="Path_672" data-name="Path 672" d="M6493.037,1771.416a1.793,1.793,0,1,1-1.793-1.794,1.793,1.793,0,0,1,1.793,1.794Z" transform="translate(-6468.608 -1769.622)" fill="#9fc2f1"/>
                  <path id="Path_673" data-name="Path 673" d="M6517.778,1771.416a1.794,1.794,0,1,1-1.793-1.794A1.794,1.794,0,0,1,6517.778,1771.416Z" transform="translate(-6486.403 -1769.622)" fill="#9fc2f1"/>
                  <path id="Path_674" data-name="Path 674" d="M6542.518,1771.416a1.794,1.794,0,1,1-1.794-1.794h0A1.8,1.8,0,0,1,6542.518,1771.416Z" transform="translate(-6504.195 -1769.622)" fill="#9fc2f1"/>
                  <path id="Path_675" data-name="Path 675" d="M6567.261,1771.416a1.794,1.794,0,1,1-1.793-1.794h0A1.794,1.794,0,0,1,6567.261,1771.416Z" transform="translate(-6521.992 -1769.622)" fill="#9fc2f1"/>
                </g>
                <g id="Group_262" data-name="Group 262" transform="translate(3.588 21.721)">
                  <path id="Path_676" data-name="Path 676" d="M6431.587,1791.571a1.794,1.794,0,1,1-1.793-1.794h0a1.794,1.794,0,0,1,1.793,1.793Z" transform="translate(-6427.999 -1789.777)" fill="#9fc2f1"/>
                  <path id="Path_677" data-name="Path 677" d="M6456.329,1791.571a1.793,1.793,0,1,1-1.793-1.794h0A1.793,1.793,0,0,1,6456.329,1791.571Z" transform="translate(-6445.795 -1789.777)" fill="#9fc2f1"/>
                  <path id="Path_678" data-name="Path 678" d="M6481.072,1791.571a1.793,1.793,0,1,1-1.794-1.794,1.793,1.793,0,0,1,1.794,1.794Z" transform="translate(-6463.591 -1789.777)" fill="#9fc2f1"/>
                  <path id="Path_679" data-name="Path 679" d="M6505.814,1791.571a1.794,1.794,0,1,1-1.794-1.794,1.793,1.793,0,0,1,1.794,1.794Z" transform="translate(-6481.385 -1789.777)" fill="#9fc2f1"/>
                  <path id="Path_680" data-name="Path 680" d="M6530.554,1791.571a1.793,1.793,0,1,1-1.792-1.794h0A1.794,1.794,0,0,1,6530.554,1791.571Z" transform="translate(-6499.178 -1789.777)" fill="#9fc2f1"/>
                  <path id="Path_681" data-name="Path 681" d="M6555.3,1791.571a1.793,1.793,0,1,1-1.793-1.794h0A1.794,1.794,0,0,1,6555.3,1791.571Z" transform="translate(-6516.973 -1789.777)" fill="#9fc2f1"/>
                  <path id="Path_682" data-name="Path 682" d="M6580.04,1791.571a1.794,1.794,0,1,1-1.795-1.794,1.794,1.794,0,0,1,1.795,1.794Z" transform="translate(-6534.769 -1789.777)" fill="#9fc2f1"/>
                </g>
              </g>
            </g>
            <rect id="Rectangle_204" data-name="Rectangle 204" width="37.808" height="4.179" transform="translate(5.216 6.211)" fill="#231f20" opacity="0.2" style="isolation: isolate"/>
            <rect id="Rectangle_205" data-name="Rectangle 205" width="40.507" height="8.727" transform="translate(3.866 0.599)" fill="#393e87"/>
            <g id="Group_268" data-name="Group 268" transform="translate(0.549)">
              <rect id="Rectangle_4526" data-name="Rectangle 4526" width="40.507" height="8.727" transform="translate(3.317 0.599)" fill="none"/>
              <g id="Group_267" data-name="Group 267">
                <g id="Group_265" data-name="Group 265">
                  <path id="Path_683" data-name="Path 683" d="M6420.763,1698.481a1.793,1.793,0,1,1-1.793-1.794,1.794,1.794,0,0,1,1.793,1.794Z" transform="translate(-6417.176 -1696.687)" fill="#a5cbef"/>
                  <path id="Path_684" data-name="Path 684" d="M6445.506,1698.481a1.793,1.793,0,1,1-1.793-1.794h0a1.792,1.792,0,0,1,1.792,1.793Z" transform="translate(-6434.972 -1696.687)" fill="#a5cbef"/>
                  <path id="Path_685" data-name="Path 685" d="M6470.248,1698.481a1.793,1.793,0,1,1-1.794-1.794,1.793,1.793,0,0,1,1.794,1.794Z" transform="translate(-6452.767 -1696.687)" fill="#a5cbef"/>
                  <path id="Path_686" data-name="Path 686" d="M6494.99,1698.481a1.794,1.794,0,1,1-1.794-1.794,1.794,1.794,0,0,1,1.794,1.794Z" transform="translate(-6470.561 -1696.687)" fill="#a5cbef"/>
                  <path id="Path_687" data-name="Path 687" d="M6519.729,1698.481a1.793,1.793,0,1,1-1.792-1.794,1.793,1.793,0,0,1,1.792,1.794Z" transform="translate(-6488.355 -1696.687)" fill="#a5cbef"/>
                  <path id="Path_688" data-name="Path 688" d="M6544.473,1698.481a1.794,1.794,0,1,1-1.793-1.794h0a1.793,1.793,0,0,1,1.793,1.793Z" transform="translate(-6506.149 -1696.687)" fill="#a5cbef"/>
                  <path id="Path_689" data-name="Path 689" d="M6569.214,1698.481a1.794,1.794,0,1,1-1.794-1.794,1.794,1.794,0,0,1,1.794,1.794Z" transform="translate(-6523.944 -1696.687)" fill="#a5cbef"/>
                </g>
                <g id="Group_266" data-name="Group 266" transform="translate(3.448 4.963)">
                  <path id="Path_690" data-name="Path 690" d="M6433.044,1716.155a1.793,1.793,0,1,1-1.793-1.793,1.793,1.793,0,0,1,1.793,1.793Z" transform="translate(-6429.457 -1714.361)" fill="#a5cbef"/>
                  <path id="Path_691" data-name="Path 691" d="M6457.786,1716.155a1.793,1.793,0,1,1-1.793-1.793h0A1.794,1.794,0,0,1,6457.786,1716.155Z" transform="translate(-6447.252 -1714.361)" fill="#a5cbef"/>
                  <path id="Path_692" data-name="Path 692" d="M6482.529,1716.155a1.794,1.794,0,1,1-1.794-1.793,1.794,1.794,0,0,1,1.794,1.793Z" transform="translate(-6465.047 -1714.361)" fill="#a5cbef"/>
                  <path id="Path_693" data-name="Path 693" d="M6507.274,1716.155a1.793,1.793,0,1,1-1.794-1.793,1.793,1.793,0,0,1,1.794,1.793Z" transform="translate(-6482.844 -1714.361)" fill="#a5cbef"/>
                  <path id="Path_694" data-name="Path 694" d="M6532.01,1716.155a1.793,1.793,0,1,1-1.793-1.793,1.793,1.793,0,0,1,1.793,1.793Z" transform="translate(-6500.635 -1714.361)" fill="#393e87"/>
                  <path id="Path_695" data-name="Path 695" d="M6556.754,1716.155a1.793,1.793,0,1,1-1.793-1.793h0a1.793,1.793,0,0,1,1.792,1.793Z" transform="translate(-6518.431 -1714.361)" fill="#a5cbef"/>
                  <path id="Path_696" data-name="Path 696" d="M6581.5,1716.155a1.794,1.794,0,1,1-1.794-1.793,1.794,1.794,0,0,1,1.794,1.793Z" transform="translate(-6536.226 -1714.361)" fill="#a5cbef"/>
                </g>
              </g>
            </g>
          </g>
          <rect id="Rectangle_207" data-name="Rectangle 207" width="3.672" height="29.725" transform="translate(22.284 8.275)" fill="#9fc2f1"/>
        </g>
        <g id="Group_272" data-name="Group 272" transform="translate(68.355 149.898)">
          <rect id="Rectangle_208" data-name="Rectangle 208" width="47.698" height="16.237" transform="translate(0 0.001)" fill="#ff5722"/>
          <g id="Group_271" data-name="Group 271" transform="translate(0)">
            <path id="Path_697" data-name="Path 697" d="M6356.354,1812.879h3.01l-3.982-3.981v3.01Z" transform="translate(-6355.382 -1796.641)" fill="#fff"/>
            <path id="Path_698" data-name="Path 698" d="M6362.528,1797.061h3.012l-10.158-10.157v3.01Z" transform="translate(-6355.382 -1780.823)" fill="#fff"/>
            <path id="Path_699" data-name="Path 699" d="M6368.7,1781.484h3.012l-16.237-16.237h-.1v2.916Z" transform="translate(-6355.382 -1765.247)" fill="#fff"/>
            <path id="Path_700" data-name="Path 700" d="M6386.236,1781.484,6370,1765.247h-3.012l16.238,16.237Z" transform="translate(-6363.729 -1765.247)" fill="#fff"/>
            <path id="Path_701" data-name="Path 701" d="M6408.229,1781.484l-16.237-16.237h-3.01l16.236,16.237Z" transform="translate(-6379.548 -1765.247)" fill="#fff"/>
            <path id="Path_702" data-name="Path 702" d="M6430.22,1781.484l-16.236-16.237h-3.012l16.237,16.237Z" transform="translate(-6395.363 -1765.247)" fill="#fff"/>
            <path id="Path_703" data-name="Path 703" d="M6452.214,1781.484l-16.237-16.237h-3.011l16.237,16.237Z" transform="translate(-6411.181 -1765.247)" fill="#fff"/>
            <path id="Path_704" data-name="Path 704" d="M6471.2,1781.484h3.01l-16.237-16.237h-3.011Z" transform="translate(-6427 -1765.247)" fill="#fff"/>
            <path id="Path_705" data-name="Path 705" d="M6490.514,1778.813v-3.01l-10.552-10.553h-3.011Z" transform="translate(-6442.816 -1765.249)" fill="#fff"/>
            <path id="Path_706" data-name="Path 706" d="M6506.332,1772.638v-3.01l-4.377-4.379h-3.01Z" transform="translate(-6458.634 -1765.249)" fill="#fff"/>
            <path id="Path_707" data-name="Path 707" d="M6522.15,1766.467v-1.213h-1.212Z" transform="translate(-6474.453 -1765.252)" fill="#fff"/>
          </g>
        </g>
        <g id="Group_288" data-name="Group 288" transform="translate(42.982 123.181)">
          <g id="Group_286" data-name="Group 286" transform="translate(0 0)">
            <rect id="Rectangle_209" data-name="Rectangle 209" width="34.514" height="41.982" transform="translate(2.517 1.385)" fill="#fff"/>
            <g id="Group_285" data-name="Group 285" transform="translate(0)">
              <rect id="Rectangle_4527" data-name="Rectangle 4527" width="34.514" height="41.875" transform="translate(2.517 1.385)" fill="none"/>
              <g id="Group_284" data-name="Group 284">
                <g id="Group_283" data-name="Group 283">
                  <g id="Group_273" data-name="Group 273">
                    <rect id="Rectangle_210" data-name="Rectangle 210" width="3.119" height="3.119" transform="matrix(0.707, -0.707, 0.707, 0.707, 0, 2.205)" fill="#4d5068"/>
                    <rect id="Rectangle_211" data-name="Rectangle 211" width="3.118" height="3.118" transform="translate(4.411 2.205) rotate(-45)" fill="#4d5068"/>
                    <rect id="Rectangle_212" data-name="Rectangle 212" width="3.119" height="3.119" transform="matrix(0.707, -0.707, 0.707, 0.707, 8.821, 2.205)" fill="#4d5068"/>
                    <rect id="Rectangle_213" data-name="Rectangle 213" width="3.118" height="3.118" transform="translate(13.232 2.205) rotate(-45)" fill="#4d5068"/>
                    <rect id="Rectangle_214" data-name="Rectangle 214" width="3.119" height="3.119" transform="matrix(0.707, -0.707, 0.707, 0.707, 17.642, 2.205)" fill="#4d5068"/>
                    <rect id="Rectangle_215" data-name="Rectangle 215" width="3.118" height="3.118" transform="translate(22.053 2.205) rotate(-45)" fill="#4d5068"/>
                    <rect id="Rectangle_216" data-name="Rectangle 216" width="3.119" height="3.119" transform="translate(26.463 2.205) rotate(-44.991)" fill="#4d5068"/>
                    <rect id="Rectangle_217" data-name="Rectangle 217" width="3.118" height="3.118" transform="translate(30.874 2.205) rotate(-45.001)" fill="#4d5068"/>
                    <rect id="Rectangle_218" data-name="Rectangle 218" width="3.119" height="3.119" transform="matrix(0.707, -0.707, 0.707, 0.707, 35.284, 2.205)" fill="#4d5068"/>
                  </g>
                  <g id="Group_274" data-name="Group 274" transform="translate(0 4.41)">
                    <rect id="Rectangle_219" data-name="Rectangle 219" width="3.118" height="3.118" transform="translate(0 2.205) rotate(-45)" fill="#4d5068"/>
                    <rect id="Rectangle_220" data-name="Rectangle 220" width="3.118" height="3.118" transform="translate(4.411 2.205) rotate(-45)" fill="#4d5068"/>
                    <rect id="Rectangle_221" data-name="Rectangle 221" width="3.118" height="3.118" transform="translate(8.821 2.205) rotate(-45)" fill="#4d5068"/>
                    <rect id="Rectangle_222" data-name="Rectangle 222" width="3.118" height="3.118" transform="translate(13.232 2.205) rotate(-45)" fill="#4d5068"/>
                    <rect id="Rectangle_223" data-name="Rectangle 223" width="3.118" height="3.118" transform="translate(17.642 2.205) rotate(-45)" fill="#4d5068"/>
                    <rect id="Rectangle_224" data-name="Rectangle 224" width="3.118" height="3.118" transform="translate(22.053 2.205) rotate(-45)" fill="#4d5068"/>
                    <rect id="Rectangle_225" data-name="Rectangle 225" width="3.118" height="3.118" transform="translate(26.463 2.205) rotate(-44.981)" fill="#4d5068"/>
                    <rect id="Rectangle_226" data-name="Rectangle 226" width="3.118" height="3.118" transform="translate(30.874 2.205) rotate(-45)" fill="#4d5068"/>
                    <rect id="Rectangle_227" data-name="Rectangle 227" width="3.118" height="3.118" transform="translate(35.284 2.205) rotate(-45)" fill="#4d5068"/>
                  </g>
                  <g id="Group_275" data-name="Group 275" transform="translate(0 8.819)">
                    <rect id="Rectangle_228" data-name="Rectangle 228" width="3.119" height="3.119" transform="matrix(0.707, -0.707, 0.707, 0.707, 0, 2.205)" fill="#4d5068"/>
                    <rect id="Rectangle_229" data-name="Rectangle 229" width="3.118" height="3.118" transform="translate(4.411 2.205) rotate(-45)" fill="#4d5068"/>
                    <rect id="Rectangle_230" data-name="Rectangle 230" width="3.119" height="3.119" transform="matrix(0.707, -0.707, 0.707, 0.707, 8.821, 2.205)" fill="#4d5068"/>
                    <rect id="Rectangle_231" data-name="Rectangle 231" width="3.118" height="3.118" transform="translate(13.232 2.205) rotate(-45)" fill="#4d5068"/>
                    <rect id="Rectangle_232" data-name="Rectangle 232" width="3.119" height="3.119" transform="matrix(0.707, -0.707, 0.707, 0.707, 17.642, 2.205)" fill="#4d5068"/>
                    <rect id="Rectangle_233" data-name="Rectangle 233" width="3.118" height="3.118" transform="translate(22.053 2.205) rotate(-45)" fill="#4d5068"/>
                    <rect id="Rectangle_234" data-name="Rectangle 234" width="3.119" height="3.119" transform="translate(26.463 2.205) rotate(-44.991)" fill="#4d5068"/>
                    <rect id="Rectangle_235" data-name="Rectangle 235" width="3.118" height="3.118" transform="translate(30.874 2.205) rotate(-45.001)" fill="#4d5068"/>
                    <rect id="Rectangle_236" data-name="Rectangle 236" width="3.119" height="3.119" transform="matrix(0.707, -0.707, 0.707, 0.707, 35.284, 2.205)" fill="#4d5068"/>
                  </g>
                  <g id="Group_276" data-name="Group 276" transform="translate(0 13.229)">
                    <rect id="Rectangle_237" data-name="Rectangle 237" width="3.118" height="3.118" transform="translate(0 2.205) rotate(-44.981)" fill="#4d5068"/>
                    <rect id="Rectangle_238" data-name="Rectangle 238" width="3.118" height="3.118" transform="matrix(0.707, -0.707, 0.707, 0.707, 4.411, 2.205)" fill="#4d5068"/>
                    <rect id="Rectangle_239" data-name="Rectangle 239" width="3.118" height="3.118" transform="translate(8.821 2.205) rotate(-44.981)" fill="#4d5068"/>
                    <rect id="Rectangle_240" data-name="Rectangle 240" width="3.118" height="3.118" transform="translate(13.232 2.205) rotate(-45)" fill="#4d5068"/>
                    <rect id="Rectangle_241" data-name="Rectangle 241" width="3.118" height="3.118" transform="translate(17.642 2.205) rotate(-44.981)" fill="#4d5068"/>
                    <rect id="Rectangle_242" data-name="Rectangle 242" width="3.118" height="3.118" transform="translate(22.053 2.205) rotate(-45)" fill="#4d5068"/>
                    <rect id="Rectangle_243" data-name="Rectangle 243" width="3.118" height="3.118" transform="translate(26.463 2.205) rotate(-45)" fill="#4d5068"/>
                    <rect id="Rectangle_244" data-name="Rectangle 244" width="3.118" height="3.118" transform="translate(30.874 2.205) rotate(-44.991)" fill="#4d5068"/>
                    <rect id="Rectangle_245" data-name="Rectangle 245" width="3.118" height="3.118" transform="translate(35.284 2.205) rotate(-44.981)" fill="#4d5068"/>
                  </g>
                  <g id="Group_277" data-name="Group 277" transform="translate(0 17.639)">
                    <rect id="Rectangle_246" data-name="Rectangle 246" width="3.119" height="3.119" transform="translate(0 2.205) rotate(-44.981)" fill="#4d5068"/>
                    <rect id="Rectangle_247" data-name="Rectangle 247" width="3.118" height="3.118" transform="matrix(0.707, -0.707, 0.707, 0.707, 4.411, 2.205)" fill="#4d5068"/>
                    <rect id="Rectangle_248" data-name="Rectangle 248" width="3.119" height="3.119" transform="translate(8.821 2.205) rotate(-44.981)" fill="#4d5068"/>
                    <rect id="Rectangle_249" data-name="Rectangle 249" width="3.118" height="3.118" transform="translate(13.232 2.205) rotate(-45)" fill="#4d5068"/>
                    <rect id="Rectangle_250" data-name="Rectangle 250" width="3.119" height="3.119" transform="translate(17.642 2.205) rotate(-44.981)" fill="#4d5068"/>
                    <rect id="Rectangle_251" data-name="Rectangle 251" width="3.118" height="3.118" transform="translate(22.053 2.205) rotate(-45)" fill="#4d5068"/>
                    <rect id="Rectangle_252" data-name="Rectangle 252" width="3.118" height="3.118" transform="translate(26.463 2.205) rotate(-45)" fill="#4d5068"/>
                    <rect id="Rectangle_253" data-name="Rectangle 253" width="3.118" height="3.118" transform="translate(30.874 2.205) rotate(-45)" fill="#4d5068"/>
                    <rect id="Rectangle_254" data-name="Rectangle 254" width="3.119" height="3.119" transform="translate(35.284 2.205) rotate(-44.981)" fill="#4d5068"/>
                  </g>
                  <g id="Group_278" data-name="Group 278" transform="translate(0 22.049)">
                    <rect id="Rectangle_255" data-name="Rectangle 255" width="3.118" height="3.118" transform="translate(0 2.205) rotate(-45)" fill="#4d5068"/>
                    <rect id="Rectangle_256" data-name="Rectangle 256" width="3.118" height="3.118" transform="translate(4.411 2.205) rotate(-45)" fill="#4d5068"/>
                    <rect id="Rectangle_257" data-name="Rectangle 257" width="3.118" height="3.118" transform="translate(8.821 2.205) rotate(-45)" fill="#4d5068"/>
                    <rect id="Rectangle_258" data-name="Rectangle 258" width="3.118" height="3.118" transform="translate(13.232 2.205) rotate(-45.001)" fill="#4d5068"/>
                    <rect id="Rectangle_259" data-name="Rectangle 259" width="3.118" height="3.118" transform="translate(17.642 2.205) rotate(-45)" fill="#4d5068"/>
                    <rect id="Rectangle_260" data-name="Rectangle 260" width="3.118" height="3.118" transform="translate(22.053 2.205) rotate(-45.001)" fill="#4d5068"/>
                    <rect id="Rectangle_261" data-name="Rectangle 261" width="3.119" height="3.119" transform="translate(26.463 2.205) rotate(-44.991)" fill="#4d5068"/>
                    <rect id="Rectangle_262" data-name="Rectangle 262" width="3.118" height="3.118" transform="translate(30.874 2.205) rotate(-45)" fill="#4d5068"/>
                    <rect id="Rectangle_263" data-name="Rectangle 263" width="3.118" height="3.118" transform="translate(35.284 2.205) rotate(-45)" fill="#4d5068"/>
                  </g>
                  <g id="Group_279" data-name="Group 279" transform="translate(0 26.459)">
                    <rect id="Rectangle_264" data-name="Rectangle 264" width="3.118" height="3.118" transform="translate(0 2.205) rotate(-44.981)" fill="#4d5068"/>
                    <rect id="Rectangle_265" data-name="Rectangle 265" width="3.118" height="3.118" transform="matrix(0.707, -0.707, 0.707, 0.707, 4.411, 2.205)" fill="#4d5068"/>
                    <rect id="Rectangle_266" data-name="Rectangle 266" width="3.118" height="3.118" transform="translate(8.821 2.205) rotate(-44.981)" fill="#4d5068"/>
                    <rect id="Rectangle_267" data-name="Rectangle 267" width="3.118" height="3.118" transform="translate(13.232 2.205) rotate(-45)" fill="#4d5068"/>
                    <rect id="Rectangle_268" data-name="Rectangle 268" width="3.118" height="3.118" transform="translate(17.642 2.205) rotate(-44.981)" fill="#4d5068"/>
                    <rect id="Rectangle_269" data-name="Rectangle 269" width="3.118" height="3.118" transform="translate(22.053 2.205) rotate(-45)" fill="#4d5068"/>
                    <rect id="Rectangle_270" data-name="Rectangle 270" width="3.118" height="3.118" transform="translate(26.463 2.205) rotate(-45)" fill="#4d5068"/>
                    <rect id="Rectangle_271" data-name="Rectangle 271" width="3.118" height="3.118" transform="translate(30.874 2.205) rotate(-44.991)" fill="#4d5068"/>
                    <rect id="Rectangle_272" data-name="Rectangle 272" width="3.118" height="3.118" transform="translate(35.284 2.205) rotate(-44.981)" fill="#4d5068"/>
                  </g>
                  <g id="Group_280" data-name="Group 280" transform="translate(0 30.869)">
                    <rect id="Rectangle_273" data-name="Rectangle 273" width="3.119" height="3.119" transform="matrix(0.707, -0.707, 0.707, 0.707, 0, 2.205)" fill="#4d5068"/>
                    <rect id="Rectangle_274" data-name="Rectangle 274" width="3.118" height="3.118" transform="translate(4.411 2.205) rotate(-45)" fill="#4d5068"/>
                    <rect id="Rectangle_275" data-name="Rectangle 275" width="3.119" height="3.119" transform="matrix(0.707, -0.707, 0.707, 0.707, 8.821, 2.205)" fill="#4d5068"/>
                    <rect id="Rectangle_276" data-name="Rectangle 276" width="3.118" height="3.118" transform="translate(13.232 2.205) rotate(-45.002)" fill="#4d5068"/>
                    <rect id="Rectangle_277" data-name="Rectangle 277" width="3.119" height="3.119" transform="matrix(0.707, -0.707, 0.707, 0.707, 17.642, 2.205)" fill="#4d5068"/>
                    <rect id="Rectangle_278" data-name="Rectangle 278" width="3.118" height="3.118" transform="translate(22.053 2.205) rotate(-45.002)" fill="#4d5068"/>
                    <rect id="Rectangle_279" data-name="Rectangle 279" width="3.118" height="3.118" transform="translate(26.463 2.205) rotate(-45)" fill="#4d5068"/>
                    <rect id="Rectangle_280" data-name="Rectangle 280" width="3.118" height="3.118" transform="translate(30.874 2.205) rotate(-45)" fill="#4d5068"/>
                    <rect id="Rectangle_281" data-name="Rectangle 281" width="3.119" height="3.119" transform="matrix(0.707, -0.707, 0.707, 0.707, 35.284, 2.205)" fill="#4d5068"/>
                  </g>
                  <g id="Group_281" data-name="Group 281" transform="translate(0 35.279)">
                    <rect id="Rectangle_282" data-name="Rectangle 282" width="3.118" height="3.118" transform="translate(0 2.204) rotate(-44.981)" fill="#4d5068"/>
                    <rect id="Rectangle_283" data-name="Rectangle 283" width="3.118" height="3.118" transform="translate(4.411 2.205) rotate(-45)" fill="#4d5068"/>
                    <rect id="Rectangle_284" data-name="Rectangle 284" width="3.118" height="3.118" transform="translate(8.821 2.204) rotate(-44.981)" fill="#4d5068"/>
                    <rect id="Rectangle_285" data-name="Rectangle 285" width="3.118" height="3.118" transform="translate(13.232 2.205) rotate(-44.992)" fill="#4d5068"/>
                    <rect id="Rectangle_286" data-name="Rectangle 286" width="3.118" height="3.118" transform="translate(17.642 2.204) rotate(-44.981)" fill="#4d5068"/>
                    <rect id="Rectangle_287" data-name="Rectangle 287" width="3.118" height="3.118" transform="translate(22.053 2.205) rotate(-44.992)" fill="#4d5068"/>
                    <rect id="Rectangle_288" data-name="Rectangle 288" width="3.118" height="3.118" transform="translate(26.463 2.204) rotate(-44.981)" fill="#4d5068"/>
                    <rect id="Rectangle_289" data-name="Rectangle 289" width="3.118" height="3.118" transform="translate(30.874 2.205) rotate(-44.991)" fill="#4d5068"/>
                    <rect id="Rectangle_290" data-name="Rectangle 290" width="3.118" height="3.118" transform="translate(35.284 2.204) rotate(-44.981)" fill="#4d5068"/>
                  </g>
                  <g id="Group_282" data-name="Group 282" transform="translate(0 39.688)">
                    <rect id="Rectangle_291" data-name="Rectangle 291" width="3.119" height="3.119" transform="translate(0 2.205) rotate(-44.981)" fill="#4d5068"/>
                    <rect id="Rectangle_292" data-name="Rectangle 292" width="3.118" height="3.118" transform="matrix(0.707, -0.707, 0.707, 0.707, 4.411, 2.205)" fill="#4d5068"/>
                    <rect id="Rectangle_293" data-name="Rectangle 293" width="3.119" height="3.119" transform="translate(8.821 2.205) rotate(-44.981)" fill="#4d5068"/>
                    <rect id="Rectangle_294" data-name="Rectangle 294" width="3.118" height="3.118" transform="translate(13.232 2.205) rotate(-45)" fill="#4d5068"/>
                    <rect id="Rectangle_295" data-name="Rectangle 295" width="3.119" height="3.119" transform="translate(17.642 2.205) rotate(-44.981)" fill="#4d5068"/>
                    <rect id="Rectangle_296" data-name="Rectangle 296" width="3.118" height="3.118" transform="translate(22.053 2.205) rotate(-45)" fill="#4d5068"/>
                    <rect id="Rectangle_297" data-name="Rectangle 297" width="3.118" height="3.118" transform="translate(26.463 2.205) rotate(-45)" fill="#4d5068"/>
                    <rect id="Rectangle_298" data-name="Rectangle 298" width="3.118" height="3.118" transform="translate(30.874 2.205) rotate(-44.991)" fill="#4d5068"/>
                    <rect id="Rectangle_299" data-name="Rectangle 299" width="3.119" height="3.119" transform="translate(35.284 2.205) rotate(-44.981)" fill="#4d5068"/>
                  </g>
                </g>
              </g>
            </g>
          </g>
          <rect id="Rectangle_301" data-name="Rectangle 301" width="3.735" height="42.03" transform="translate(17.979 1.453)" fill="#feb423"/>
          <rect id="Rectangle_302" data-name="Rectangle 302" width="34.514" height="3.735" transform="translate(2.517 12.091)" fill="#feb423"/>
          <g id="Group_287" data-name="Group 287" transform="translate(12.75 10.353)">
            <path id="Path_708" data-name="Path 708" d="M6317.363,1711.759a.674.674,0,0,1-.339.812l-4.953,2.169c-.309.15-.972-.426-1.256-1.338a8.415,8.415,0,0,1,0-5.074c.284-.912.946-1.487,1.256-1.338l4.953,2.17a.674.674,0,0,1,.339.813A2.97,2.97,0,0,0,6317.363,1711.759Z" transform="translate(-6310.424 -1706.968)" fill="#feb423"/>
            <path id="Path_709" data-name="Path 709" d="M6338.357,1711.759a.674.674,0,0,0,.338.812l4.952,2.169c.311.15.972-.426,1.256-1.338a8.415,8.415,0,0,0,0-5.074c-.284-.912-.945-1.487-1.256-1.338l-4.952,2.17a.673.673,0,0,0-.338.813A2.955,2.955,0,0,1,6338.357,1711.759Z" transform="translate(-6330.49 -1706.968)" fill="#feb423"/>
            <path id="Path_710" data-name="Path 710" d="M6320.953,1720.176c-.944-.025-.49-.661-.2-.653a22.94,22.94,0,0,1,2.977.365A10.77,10.77,0,0,1,6320.953,1720.176Z" transform="translate(-6317.588 -1715.997)" fill="#bf7200"/>
            <path id="Path_711" data-name="Path 711" d="M6328.048,1718.192a11.7,11.7,0,0,0-1.3-1.155c-.135-.1-.589.112-.14.427A5.48,5.48,0,0,0,6328.048,1718.192Z" transform="translate(-6321.921 -1714.193)" fill="#bf7200"/>
            <path id="Path_712" data-name="Path 712" d="M6328.047,1720.274a12.525,12.525,0,0,0-1.618.929c-.144.1-.087.636.386.289A5.9,5.9,0,0,0,6328.047,1720.274Z" transform="translate(-6321.885 -1716.538)" fill="#bf7200"/>
            <path id="Path_713" data-name="Path 713" d="M6341.36,1720.076a22.774,22.774,0,0,1,2.976-.365c.286-.008.74.628-.2.653A10.778,10.778,0,0,1,6341.36,1720.076Z" transform="translate(-6332.674 -1716.132)" fill="#bf7200"/>
            <path id="Path_714" data-name="Path 714" d="M6341.395,1718.378a11.575,11.575,0,0,1,1.3-1.154c.136-.1.587.112.141.427A5.5,5.5,0,0,1,6341.395,1718.378Z" transform="translate(-6332.698 -1714.327)" fill="#bf7200"/>
            <path id="Path_715" data-name="Path 715" d="M6341.269,1720.461a12.589,12.589,0,0,1,1.618.93c.142.1.086.636-.387.289A5.9,5.9,0,0,1,6341.269,1720.461Z" transform="translate(-6332.608 -1716.672)" fill="#bf7200"/>
            <path id="Path_716" data-name="Path 716" d="M6333.322,1716.261c-.075.387-.457.477-.824.319a2.766,2.766,0,0,0-2.131,0c-.367.158-.749.068-.824-.319a11.882,11.882,0,0,1,0-4.373c.075-.388.457-.477.824-.32a2.76,2.76,0,0,0,2.131,0c.367-.158.749-.068.824.32A11.9,11.9,0,0,1,6333.322,1716.261Z" transform="translate(-6324.03 -1710.223)" fill="#ff5722"/>
          </g>
        </g>
        <path id="Path_717" data-name="Path 717" d="M6390.148,1592.7a47.4,47.4,0,0,0-2.007-6.235,10.148,10.148,0,0,0-1.6-2.762,8.217,8.217,0,0,0-5.2-2.54,19.8,19.8,0,0,0-5.888.35,9.277,9.277,0,0,0-2.267.613,9.931,9.931,0,0,0-2.751,2.157,8.114,8.114,0,0,0-3.255,6.256q-.375,3.269-.751,6.539l1.1,6.473a21.893,21.893,0,0,1,2.426-5.078c.408-.573.871-1.106,1.259-1.691,1.522-2.289,1.805-5.161,1.962-7.905q.091-1.577.145-3.157c3.42,1.111,5.912,4.11,9.21,5.546a28.713,28.713,0,0,1,3.628,1.521,8.356,8.356,0,0,1,3.311,4.408,24.817,24.817,0,0,1,1.067,5.506C6391.831,1599.553,6391.026,1595.98,6390.148,1592.7Z" transform="translate(-6294.969 -1482.879)" fill="#4d5068"/>
        <path id="Path_718" data-name="Path 718" d="M6987.622,1244.656a.866.866,0,0,0-.866.866V1282.1a.866.866,0,0,0,.866.866h37.938v-38.311Z" transform="translate(-6741.12 -1240.932)" fill="#1067db" opacity="0.2" style="isolation: isolate"/>
        <rect id="Rectangle_303" data-name="Rectangle 303" width="65.857" height="38.311" rx="2.209" transform="translate(249.36)" fill="#2f4e9e"/>
        <rect id="Rectangle_304" data-name="Rectangle 304" width="12.041" height="12.041" rx="0.584" transform="translate(254.706 9.718)" fill="#f9d30b"/>
        <rect id="Rectangle_305" data-name="Rectangle 305" width="14.471" height="3.677" transform="translate(253.49 28.604)" fill="#c2e3f2"/>
        <rect id="Rectangle_306" data-name="Rectangle 306" width="33.545" height="3.677" transform="translate(271.543 28.604)" fill="#c2e3f2"/>
        <path id="Path_719" data-name="Path 719" d="M6961.282,1621.06H6927.8a3.345,3.345,0,0,0-3.345,3.345v28.26a3.451,3.451,0,0,0,3.451,3.451h33.27a3.452,3.452,0,0,0,3.452-3.451V1624.4a3.346,3.346,0,0,0-3.346-3.345Z" transform="translate(-6696.313 -1511.648)" fill="#1067db" opacity="0.2" style="isolation: isolate"/>
        <rect id="Rectangle_307" data-name="Rectangle 307" width="40.173" height="35.056" rx="8.805" transform="translate(230.886 107.453)" fill="#fff"/>
        <path id="Path_720" data-name="Path 720" d="M6971.051,1614.084h-33.482a3.347,3.347,0,0,0-3.346,3.345v3.809H6974.4v-3.81A3.345,3.345,0,0,0,6971.051,1614.084Z" transform="translate(-6703.337 -1506.63)" fill="#ff5722"/>
        <path id="Path_721" data-name="Path 721" d="M6949.354,1625.25a.613.613,0,1,1-.613-.613h0A.612.612,0,0,1,6949.354,1625.25Z" transform="translate(-6713.339 -1514.22)" fill="#fff"/>
        <path id="Path_722" data-name="Path 722" d="M6958.835,1625.25a.613.613,0,1,1-.613-.613h0A.613.613,0,0,1,6958.835,1625.25Z" transform="translate(-6720.157 -1514.22)" fill="#fff"/>
        <path id="Path_723" data-name="Path 723" d="M6958.835,1625.25a.613.613,0,1,1-.613-.613h0A.613.613,0,0,1,6958.835,1625.25Z" transform="translate(-6720.157 -1514.22)" fill="#fff"/>
        <path id="Path_724" data-name="Path 724" d="M6968.315,1625.25a.613.613,0,1,1-.613-.613h0a.613.613,0,0,1,.613.612Z" transform="translate(-6726.976 -1514.22)" fill="#fff"/>
        <circle id="Ellipse_28" data-name="Ellipse 28" cx="4.792" cy="4.792" r="4.792" transform="translate(233.886 119.192)" fill="#d1e1fc"/>
        <rect id="Rectangle_308" data-name="Rectangle 308" width="21.942" height="1.291" transform="translate(246.051 121.403)" fill="#d1e1fc"/>
        <rect id="Rectangle_309" data-name="Rectangle 309" width="21.942" height="1.291" transform="translate(246.051 125.161)" fill="#d1e1fc"/>
        <rect id="Rectangle_310" data-name="Rectangle 310" width="8.228" height="1.291" transform="translate(246.051 128.919)" fill="#ff9a7a"/>
        <path id="Path_725" data-name="Path 725" d="M6650.4,1340.209h-73.158a.775.775,0,0,0-.775.775h0v38.8a.775.775,0,0,0,.775.775H6650.4a.776.776,0,0,0,.776-.775h0v-38.8a.776.776,0,0,0-.776-.775Z" transform="translate(-6446.036 -1309.655)" fill="#1067db" opacity="0.2" style="isolation: isolate"/>
        <rect id="Rectangle_311" data-name="Rectangle 311" width="74.709" height="40.348" rx="1.978" transform="translate(133.57 27.614)" fill="#fff"/>
        <path id="Rectangle_312" data-name="Rectangle 312" d="M6588.2,1329.738h73.589a.56.56,0,0,1,.56.56v8.434h-74.709V1330.3A.56.56,0,0,1,6588.2,1329.738Z" transform="translate(-6454.068 -1302.124)" fill="#2f4e9e"/>
        <path id="Path_726" data-name="Path 726" d="M6606.144,1408.31h65.4c-.1,0,.156-14.711-.035-16.191-2.252,1.183-3.969,3.449-6.357,4.63a10.82,10.82,0,0,1-6.392,1.168c-2.015-.339-3.656-1.859-5.725-2-2.687-.18-4.507,2.009-6.426,3.511-2.7,2.109-6.111,4.667-9.583,5.2a5.736,5.736,0,0,1-5.439-2.346c-1.8-2.183-2.723-4.167-5.781-4.587a9.584,9.584,0,0,0-6.964,1.754c-2.342,1.827-3.741,4.827-6.432,6.087a6.107,6.107,0,0,1-3.075.541c-.686-.056-2.443-.988-3.049-.456C6605.838,1406.011,6606.144,1407.712,6606.144,1408.31Z" transform="translate(-6467.305 -1346.99)" fill="#b5d73c"/>
        <path id="Path_727" data-name="Path 727" d="M6608.86,1343.034a.985.985,0,1,1-.986-.985h0A.985.985,0,0,1,6608.86,1343.034Z" transform="translate(-6467.915 -1310.979)" fill="#fff"/>
        <path id="Path_728" data-name="Path 728" d="M6625.165,1343.034a.985.985,0,1,1-.985-.985h0A.985.985,0,0,1,6625.165,1343.034Z" transform="translate(-6479.642 -1310.979)" fill="#fff"/>
        <path id="Path_729" data-name="Path 729" d="M6641.465,1343.034a.985.985,0,1,1-.985-.985h0A.985.985,0,0,1,6641.465,1343.034Z" transform="translate(-6491.365 -1310.979)" fill="#fff"/>
        <path id="Path_730" data-name="Path 730" d="M6383.256,1320.72h26.826a1.444,1.444,0,0,0,1.444-1.444h0v-30.163a1.237,1.237,0,0,0-1.236-1.237h-27.034Z" transform="translate(-6307.074 -1272.017)" fill="#1067db" opacity="0.2" style="isolation: isolate"/>
        <rect id="Rectangle_313" data-name="Rectangle 313" width="100.73" height="32.845" rx="3.047" transform="translate(0 11.94)" fill="#fff"/>
        <path id="Path_731" data-name="Path 731" d="M6211.449,1273.916h-98.294a1.217,1.217,0,0,0-1.218,1.217h0v6.025a.523.523,0,0,0,.523.523h99.684a.523.523,0,0,0,.523-.523h0v-6.025A1.218,1.218,0,0,0,6211.449,1273.916Z" transform="translate(-6111.937 -1261.976)" fill="#2f4e9e"/>
        <path id="Path_732" data-name="Path 732" d="M6152.982,1327.964a7.693,7.693,0,1,1-7.693-7.693,7.693,7.693,0,0,1,7.693,7.693Z" transform="translate(-6130.391 -1295.316)" fill="#d9effc"/>
        <rect id="Rectangle_314" data-name="Rectangle 314" width="65.522" height="2.072" transform="translate(26.736 25.588)" fill="#d9effc"/>
        <rect id="Rectangle_315" data-name="Rectangle 315" width="65.522" height="2.072" transform="translate(26.736 31.622)" fill="#d9effc"/>
        <rect id="Rectangle_316" data-name="Rectangle 316" width="24.571" height="2.072" transform="translate(26.736 37.656)" fill="#d9effc"/>
        <path id="Path_733" data-name="Path 733" d="M6128.394,1285.228a.983.983,0,1,1-.983-.983h0A.983.983,0,0,1,6128.394,1285.228Z" transform="translate(-6122.359 -1269.405)" fill="#fff"/>
        <path id="Path_734" data-name="Path 734" d="M6143.62,1285.228a.983.983,0,1,1-.985-.983A.983.983,0,0,1,6143.62,1285.228Z" transform="translate(-6133.31 -1269.405)" fill="#fff"/>
        <path id="Path_735" data-name="Path 735" d="M6158.838,1285.228a.983.983,0,1,1-.983-.983h0A.984.984,0,0,1,6158.838,1285.228Z" transform="translate(-6144.256 -1269.405)" fill="#fff"/>
        <path id="Path_736" data-name="Path 736" d="M6709.323,2146.041l1.954,0a.715.715,0,0,0,.716-.715h0v-2.493a.717.717,0,0,0-.717-.716h-1.529a.6.6,0,0,1-.562-.4c-.054-.143-.112-.283-.175-.421a.6.6,0,0,1,.112-.68l1.083-1.082a.717.717,0,0,0,0-1.014l-1.764-1.762a.718.718,0,0,0-1.014,0l-1.09,1.09a.589.589,0,0,1-.652.126c-.156-.067-.324-.134-.469-.191a.588.588,0,0,1-.375-.551v-1.544a.717.717,0,0,0-.717-.716h-2.493a.717.717,0,0,0-.717.716v1.531a.6.6,0,0,1-.4.559q-.225.084-.443.185a.6.6,0,0,1-.68-.11l-1.086-1.08a.717.717,0,0,0-1.014,0h0l-1.758,1.769a.716.716,0,0,0,0,1.013h0l1.093,1.087a.594.594,0,0,1,.128.653c-.067.155-.134.323-.189.469a.589.589,0,0,1-.55.375l-1.546,0a.716.716,0,0,0-.714.717h0l.006,2.493a.717.717,0,0,0,.717.715h0l1.531,0a.6.6,0,0,1,.562.4q.081.214.176.421a.6.6,0,0,1-.111.68l-1.08,1.085a.717.717,0,0,0,0,1.013l1.767,1.76a.716.716,0,0,0,1.013,0h0l1.088-1.093a.593.593,0,0,1,.653-.126c.156.067.324.134.468.189a.591.591,0,0,1,.375.55l0,1.544a.716.716,0,0,0,.717.715h0l2.493,0a.716.716,0,0,0,.715-.718h0l0-1.53a.6.6,0,0,1,.4-.562q.215-.081.423-.176a.6.6,0,0,1,.68.113l1.084,1.081a.717.717,0,0,0,1.014,0h0l1.761-1.765a.716.716,0,0,0,0-1.012h0l-1.093-1.089a.594.594,0,0,1-.125-.653C6709.15,2146.511,6709.314,2146.067,6709.323,2146.041Zm-9.923-2.594a3.536,3.536,0,1,1,2.2,3.931A3.533,3.533,0,0,1,6699.4,2143.447Z" transform="translate(-6530.391 -1881.257)" fill="#11284f"/>
        <g id="Group_295" data-name="Group 295" transform="translate(209.548 251.953)">
          <path id="Path_737" data-name="Path 737" d="M6867.161,2146.568a8.929,8.929,0,1,1,8.929-8.929h0A8.942,8.942,0,0,1,6867.161,2146.568Zm0-16.293a7.363,7.363,0,1,0,7.362,7.365h0A7.371,7.371,0,0,0,6867.161,2130.274Z" transform="translate(-6858.232 -2128.71)" fill="#d3dee2"/>
        </g>
        <g id="Group_296" data-name="Group 296" transform="translate(228.997 251.953)">
          <path id="Path_738" data-name="Path 738" d="M6936.424,2146.568a8.929,8.929,0,1,1,8.931-8.929A8.929,8.929,0,0,1,6936.424,2146.568Zm0-16.293a7.363,7.363,0,1,0,7.363,7.364A7.364,7.364,0,0,0,6936.424,2130.274Z" transform="translate(-6927.497 -2128.71)" fill="#d3dee2"/>
        </g>
        <g id="Group_297" data-name="Group 297" transform="translate(248.441 251.953)">
          <path id="Path_739" data-name="Path 739" d="M7005.676,2146.568a8.929,8.929,0,1,1,8.929-8.929h0A8.94,8.94,0,0,1,7005.676,2146.568Zm0-16.293a7.363,7.363,0,1,0,7.363,7.364h0A7.371,7.371,0,0,0,7005.676,2130.274Z" transform="translate(-6996.747 -2128.71)" fill="#d3dee2"/>
        </g>
        <g id="Group_298" data-name="Group 298" transform="translate(209.55 251.954)">
          <path id="Path_740" data-name="Path 740" d="M6867.165,2146.57a8.932,8.932,0,1,1,6.313-15.245l-1.107,1.108a7.374,7.374,0,1,0,2.156,5.206h1.568a8.924,8.924,0,0,1-8.919,8.929h-.011Z" transform="translate(-6858.237 -2128.713)" fill="#ef3f54"/>
        </g>
        <g id="Group_299" data-name="Group 299" transform="translate(228.993 251.95)">
          <path id="Path_741" data-name="Path 741" d="M6936.415,2146.562a8.93,8.93,0,0,1,0-17.861v1.567a7.367,7.367,0,1,0,7.363,7.364h1.568a8.926,8.926,0,0,1-8.923,8.929h-.008Z" transform="translate(-6927.485 -2128.701)" fill="#b5d73c"/>
        </g>
        <g id="Group_300" data-name="Group 300" transform="translate(249.143 251.953)">
          <path id="Path_742" data-name="Path 742" d="M7010.948,2145.867l-.61-1.444a7.363,7.363,0,1,0-9.65-9.65l-1.443-.611a8.93,8.93,0,1,1,11.7,11.7Z" transform="translate(-6999.244 -2128.712)" fill="#32aaeb"/>
        </g>
        <path id="Path_743" data-name="Path 743" d="M6820.472,2110.969v12.191l.007.006,8.6,8.625a12.144,12.144,0,0,0,3.58-8.6c0-.012,0-.024,0-.036A12.191,12.191,0,0,0,6820.472,2110.969Z" transform="translate(-6621.526 -1863.998)" fill="#32aaeb"/>
        <path id="Path_744" data-name="Path 744" d="M6778.533,2114.527a12.151,12.151,0,0,0-3.582,8.608l12.19.03v-12.2A12.152,12.152,0,0,0,6778.533,2114.527Z" transform="translate(-6588.787 -1863.998)" fill="#b5d73c"/>
        <path id="Path_745" data-name="Path 745" d="M6787.147,2156.44h-.006l-12.19-.03v.023a12.19,12.19,0,0,0,20.8,8.631Z" transform="translate(-6588.787 -1896.679)" fill="#4d5068"/>
        <g id="Group_303" data-name="Group 303" transform="translate(123.592 255.626)">
          <path id="Path_746" data-name="Path 746" d="M6600.1,2158.679a.123.123,0,0,1-.122-.122v-8.042a7.938,7.938,0,0,0-15.875,0v8.042a.122.122,0,0,1-.122.122h-.542a.122.122,0,0,1-.122-.122v-8.042a8.723,8.723,0,1,1,17.446,0v8.042a.121.121,0,0,1-.121.122Z" transform="translate(-6574.555 -2141.793)" fill="#6c98e3"/>
          <path id="Rectangle_317" data-name="Rectangle 317" d="M6552.52,2179.309h10.03v24.2H6552.1v-23.781a.417.417,0,0,1,.417-.416Z" transform="translate(-6552.104 -2168.775)" fill="url(#linear-gradient-2)"/>
          <path id="Rectangle_318" data-name="Rectangle 318" d="M6617.292,2203.506h-28.969v-24.2H6617.3a.272.272,0,0,1,.271.271h0v23.65A.276.276,0,0,1,6617.292,2203.506Z" transform="translate(-6578.153 -2168.774)" fill="#b3cdfa"/>
          <path id="Rectangle_319" data-name="Rectangle 319" d="M6552.379,2179.309h4.947v24.2H6552.1v-23.922A.276.276,0,0,1,6552.379,2179.309Z" transform="translate(-6552.104 -2168.775)" fill="url(#linear-gradient-3)"/>
          <path id="Path_747" data-name="Path 747" d="M6562.551,2249.657H6552.1l5.225-6.18,5.222,6.18Z" transform="translate(-6552.104 -2214.926)" fill="url(#linear-gradient-4)"/>
          <path id="Path_748" data-name="Path 748" d="M6609.709,2196.6a1.809,1.809,0,1,1-1.81-1.81,1.81,1.81,0,0,1,1.81,1.81Z" transform="translate(-6590.932 -2179.911)" fill="#89ade9"/>
          <path id="Path_749" data-name="Path 749" d="M6669.048,2196.6a1.81,1.81,0,1,1-1.81-1.81h0A1.81,1.81,0,0,1,6669.048,2196.6Z" transform="translate(-6633.609 -2179.911)" fill="#89ade9"/>
          <path id="Path_750" data-name="Path 750" d="M6627.917,2158.679a.122.122,0,0,1-.122-.122v-8.042a7.938,7.938,0,0,0-15.875-.092q0,.046,0,.092v8.042a.123.123,0,0,1-.122.122h-.542a.122.122,0,0,1-.122-.122v-8.042a8.723,8.723,0,1,1,17.446,0v8.042a.122.122,0,0,1-.122.122Z" transform="translate(-6594.56 -2141.793)" fill="#6c98e3"/>
        </g>
        <g id="Group_304" data-name="Group 304" transform="translate(134.322 266.16)">
          <path id="Rectangle_320" data-name="Rectangle 320" d="M6590.322,2179.308h7.041v23.542a.655.655,0,0,1-.655.655h-6.386v-24.2Z" transform="translate(-6590.32 -2179.308)" fill="rgba(255,255,255,0)"/>
          <path id="Path_751" data-name="Path 751" d="M6597.273,2202.181a1.325,1.325,0,0,1-1.325,1.325h-5.626v-24.2h6.951Z" transform="translate(-6590.32 -2179.308)" fill="#fafbfd" opacity="0.024" style="isolation: isolate"/>
          <path id="Path_752" data-name="Path 752" d="M6597.183,2202.181a1.325,1.325,0,0,1-1.325,1.325h-5.536v-24.2h6.861Z" transform="translate(-6590.32 -2179.308)" fill="#f5f7fb" opacity="0.049" style="isolation: isolate"/>
          <path id="Path_753" data-name="Path 753" d="M6597.092,2202.181a1.324,1.324,0,0,1-1.325,1.325h-5.446v-24.2h6.771Z" transform="translate(-6590.32 -2179.308)" fill="#f0f3fa" opacity="0.073" style="isolation: isolate"/>
          <path id="Path_754" data-name="Path 754" d="M6597,2202.181a1.324,1.324,0,0,1-1.324,1.325h-5.356v-24.2H6597Z" transform="translate(-6590.32 -2179.308)" fill="#ebeff8" opacity="0.098" style="isolation: isolate"/>
          <path id="Path_755" data-name="Path 755" d="M6596.913,2202.181a1.324,1.324,0,0,1-1.324,1.325h-5.267v-24.2h6.591Z" transform="translate(-6590.32 -2179.308)" fill="#e6ebf6" opacity="0.122" style="isolation: isolate"/>
          <path id="Path_756" data-name="Path 756" d="M6596.823,2202.181a1.325,1.325,0,0,1-1.325,1.325h-5.176v-24.2h6.5Z" transform="translate(-6590.32 -2179.308)" fill="#e1e6f4" opacity="0.146" style="isolation: isolate"/>
          <path id="Path_757" data-name="Path 757" d="M6596.733,2202.181a1.325,1.325,0,0,1-1.325,1.325h-5.086v-24.2h6.411Z" transform="translate(-6590.32 -2179.308)" fill="#dce2f2" opacity="0.171" style="isolation: isolate"/>
          <path id="Path_758" data-name="Path 758" d="M6596.643,2202.181a1.325,1.325,0,0,1-1.325,1.325h-5v-24.2h6.321Z" transform="translate(-6590.32 -2179.308)" fill="#d7def0" opacity="0.195" style="isolation: isolate"/>
          <path id="Path_759" data-name="Path 759" d="M6596.552,2202.181a1.324,1.324,0,0,1-1.324,1.325h-4.907v-24.2h6.23Z" transform="translate(-6590.32 -2179.308)" fill="#d2daef" opacity="0.22" style="isolation: isolate"/>
          <path id="Path_760" data-name="Path 760" d="M6596.462,2202.181a1.325,1.325,0,0,1-1.325,1.325h-4.816v-24.2h6.141Z" transform="translate(-6590.32 -2179.308)" fill="#cdd6ed" opacity="0.244" style="isolation: isolate"/>
          <path id="Path_761" data-name="Path 761" d="M6596.373,2202.181a1.325,1.325,0,0,1-1.325,1.325h-4.726v-24.2h6.051Z" transform="translate(-6590.32 -2179.308)" fill="#c9d2eb" opacity="0.268" style="isolation: isolate"/>
          <path id="Path_762" data-name="Path 762" d="M6596.282,2202.181a1.325,1.325,0,0,1-1.324,1.325h-4.636v-24.2h5.96Z" transform="translate(-6590.32 -2179.308)" fill="#c4cee9" opacity="0.293" style="isolation: isolate"/>
          <path id="Path_763" data-name="Path 763" d="M6596.193,2202.181a1.324,1.324,0,0,1-1.324,1.325h-4.545v-24.2h5.87Z" transform="translate(-6590.322 -2179.308)" fill="#bfcae7" opacity="0.317" style="isolation: isolate"/>
          <path id="Path_764" data-name="Path 764" d="M6596.1,2202.181a1.325,1.325,0,0,1-1.325,1.325h-4.456v-24.2h5.781Z" transform="translate(-6590.316 -2179.308)" fill="#bac6e5" opacity="0.341" style="isolation: isolate"/>
          <path id="Path_765" data-name="Path 765" d="M6596.012,2202.181a1.324,1.324,0,0,1-1.324,1.325h-4.366v-24.2h5.69Z" transform="translate(-6590.32 -2179.308)" fill="#b5c2e4" opacity="0.366" style="isolation: isolate"/>
          <path id="Path_766" data-name="Path 766" d="M6595.922,2202.181a1.325,1.325,0,0,1-1.325,1.325h-4.275v-24.2h5.6Z" transform="translate(-6590.32 -2179.308)" fill="#b0bde2" opacity="0.39" style="isolation: isolate"/>
          <path id="Path_767" data-name="Path 767" d="M6595.832,2202.181a1.325,1.325,0,0,1-1.325,1.325h-4.185v-24.2h5.51Z" transform="translate(-6590.32 -2179.308)" fill="#abb9e0" opacity="0.415" style="isolation: isolate"/>
          <path id="Path_768" data-name="Path 768" d="M6595.742,2202.181a1.325,1.325,0,0,1-1.325,1.325h-4.1v-24.2h5.419Z" transform="translate(-6590.32 -2179.308)" fill="#a6b5de" opacity="0.439" style="isolation: isolate"/>
          <path id="Path_769" data-name="Path 769" d="M6595.651,2202.181a1.325,1.325,0,0,1-1.325,1.325h-4.006v-24.2h5.331Z" transform="translate(-6590.319 -2179.308)" fill="#a1b1dc" opacity="0.463" style="isolation: isolate"/>
          <path id="Path_770" data-name="Path 770" d="M6595.562,2202.181a1.325,1.325,0,0,1-1.325,1.325h-3.915v-24.2h5.24Z" transform="translate(-6590.32 -2179.308)" fill="#9cadda" opacity="0.488" style="isolation: isolate"/>
          <path id="Path_771" data-name="Path 771" d="M6595.472,2202.181a1.325,1.325,0,0,1-1.325,1.325h-3.825v-24.2h5.15Z" transform="translate(-6590.32 -2179.308)" fill="#97a9d9" opacity="0.512" style="isolation: isolate"/>
          <path id="Path_772" data-name="Path 772" d="M6595.385,2202.181a1.325,1.325,0,0,1-1.325,1.325h-3.735v-24.2h5.061Z" transform="translate(-6590.323 -2179.308)" fill="#92a5d7" opacity="0.537" style="isolation: isolate"/>
          <path id="Path_773" data-name="Path 773" d="M6595.292,2202.181a1.325,1.325,0,0,1-1.326,1.324h-3.646v-24.2h4.971Z" transform="translate(-6590.319 -2179.308)" fill="#8da1d5" opacity="0.561" style="isolation: isolate"/>
          <path id="Path_774" data-name="Path 774" d="M6595.2,2202.181a1.325,1.325,0,0,1-1.325,1.325h-3.555v-24.2h4.88Z" transform="translate(-6590.322 -2179.308)" fill="#889dd3" opacity="0.585" style="isolation: isolate"/>
          <path id="Path_775" data-name="Path 775" d="M6595.112,2202.181a1.325,1.325,0,0,1-1.325,1.325h-3.466v-24.2h4.791Z" transform="translate(-6590.32 -2179.308)" fill="#8399d1" opacity="0.61" style="isolation: isolate"/>
          <path id="Path_776" data-name="Path 776" d="M6595.021,2202.181a1.324,1.324,0,0,1-1.325,1.325h-3.375v-24.2h4.7Z" transform="translate(-6590.32 -2179.308)" fill="#7e94cf" opacity="0.634" style="isolation: isolate"/>
          <path id="Path_777" data-name="Path 777" d="M6594.932,2202.181a1.325,1.325,0,0,1-1.325,1.325h-3.286v-24.2h4.61Z" transform="translate(-6590.319 -2179.308)" fill="#7990ce" opacity="0.659" style="isolation: isolate"/>
          <path id="Path_778" data-name="Path 778" d="M6594.842,2202.181a1.325,1.325,0,0,1-1.325,1.325h-3.2v-24.2h4.521Z" transform="translate(-6590.32 -2179.308)" fill="#748ccc" opacity="0.683" style="isolation: isolate"/>
          <path id="Path_779" data-name="Path 779" d="M6594.751,2202.181a1.324,1.324,0,0,1-1.324,1.325h-3.1v-24.2h4.429Z" transform="translate(-6590.32 -2179.308)" fill="#6f88ca" opacity="0.707" style="isolation: isolate"/>
          <path id="Path_780" data-name="Path 780" d="M6594.661,2202.181a1.324,1.324,0,0,1-1.324,1.325h-3.016v-24.2h4.339Z" transform="translate(-6590.32 -2179.308)" fill="#6a84c8" opacity="0.732" style="isolation: isolate"/>
          <path id="Path_781" data-name="Path 781" d="M6594.571,2202.181a1.324,1.324,0,0,1-1.324,1.325h-2.926v-24.2h4.25Z" transform="translate(-6590.32 -2179.308)" fill="#6680c6" opacity="0.756" style="isolation: isolate"/>
          <path id="Path_782" data-name="Path 782" d="M6594.479,2202.181a1.324,1.324,0,0,1-1.324,1.325h-2.836v-24.2h4.159Z" transform="translate(-6590.318 -2179.308)" fill="#617cc4" opacity="0.78" style="isolation: isolate"/>
          <path id="Path_783" data-name="Path 783" d="M6594.392,2202.181a1.325,1.325,0,0,1-1.325,1.325h-2.745v-24.2h4.07Z" transform="translate(-6590.32 -2179.308)" fill="#5c78c3" opacity="0.805" style="isolation: isolate"/>
          <path id="Path_784" data-name="Path 784" d="M6594.3,2202.181a1.326,1.326,0,0,1-1.326,1.325h-2.654v-24.2h3.98Z" transform="translate(-6590.32 -2179.308)" fill="#5774c1" opacity="0.829" style="isolation: isolate"/>
          <path id="Path_785" data-name="Path 785" d="M6594.211,2202.181a1.326,1.326,0,0,1-1.325,1.325h-2.564v-24.2h3.89Z" transform="translate(-6590.32 -2179.308)" fill="#5270bf" opacity="0.854" style="isolation: isolate"/>
          <path id="Path_786" data-name="Path 786" d="M6594.121,2202.181a1.325,1.325,0,0,1-1.326,1.325h-2.474v-24.2h3.8Z" transform="translate(-6590.32 -2179.308)" fill="#4d6bbd" opacity="0.878" style="isolation: isolate"/>
          <path id="Path_787" data-name="Path 787" d="M6594.03,2202.181a1.325,1.325,0,0,1-1.325,1.325h-2.385v-24.2h3.71Z" transform="translate(-6590.319 -2179.308)" fill="#4867bb" opacity="0.902" style="isolation: isolate"/>
          <path id="Path_788" data-name="Path 788" d="M6593.941,2202.181a1.325,1.325,0,0,1-1.326,1.325h-2.294v-24.2h3.62Z" transform="translate(-6590.32 -2179.308)" fill="#4363b9" opacity="0.927" style="isolation: isolate"/>
          <path id="Path_789" data-name="Path 789" d="M6593.851,2202.181a1.325,1.325,0,0,1-1.325,1.325h-2.2v-24.2h3.529Z" transform="translate(-6590.32 -2179.308)" fill="#3e5fb8" opacity="0.951" style="isolation: isolate"/>
          <path id="Path_790" data-name="Path 790" d="M6593.761,2202.181a1.325,1.325,0,0,1-1.325,1.325h-2.114v-24.2h3.439Z" transform="translate(-6590.32 -2179.308)" fill="#395bb6" opacity="0.976" style="isolation: isolate"/>
          <path id="Path_791" data-name="Path 791" d="M6593.671,2202.181v-22.873h-3.35v24.2h2.024A1.326,1.326,0,0,0,6593.671,2202.181Z" transform="translate(-6590.32 -2179.308)" fill="#3457b4"/>
        </g>
        <g id="Group_305" data-name="Group 305" transform="translate(98.883 241.141)">
          <path id="Path_792" data-name="Path 792" d="M6512.1,2107.091a.122.122,0,0,1-.122-.122v-8.042a7.938,7.938,0,0,0-15.876,0v8.042a.122.122,0,0,1-.122.122h-.541a.123.123,0,0,1-.123-.122v-8.042a8.724,8.724,0,0,1,17.447,0v8.042a.122.122,0,0,1-.122.122Z" transform="translate(-6486.554 -2090.204)" fill="#6c98e3"/>
          <path id="Rectangle_321" data-name="Rectangle 321" d="M6464.52,2127.722h10.031V2166.4H6464.1v-38.266a.416.416,0,0,1,.416-.416Z" transform="translate(-6464.104 -2117.188)" fill="#93b0e2"/>
          <path id="Rectangle_322" data-name="Rectangle 322" d="M6529.292,2166.4h-28.969v-38.682H6529.3a.272.272,0,0,1,.271.271v38.135A.276.276,0,0,1,6529.292,2166.4Z" transform="translate(-6490.153 -2117.188)" fill="#e3edfe"/>
          <path id="Rectangle_323" data-name="Rectangle 323" d="M6464.38,2127.722h4.947V2166.4H6464.1V2128A.276.276,0,0,1,6464.38,2127.722Z" transform="translate(-6464.104 -2117.188)" fill="#c6dbff"/>
          <path id="Path_793" data-name="Path 793" d="M6474.551,2249.657H6464.1l5.225-6.18,5.222,6.18Z" transform="translate(-6464.104 -2200.44)" fill="#eceff5"/>
          <path id="Path_794" data-name="Path 794" d="M6521.709,2145.015a1.809,1.809,0,1,1-1.809-1.809A1.809,1.809,0,0,1,6521.709,2145.015Z" transform="translate(-6502.932 -2128.324)" fill="#89ade9"/>
          <path id="Path_795" data-name="Path 795" d="M6581.049,2145.015a1.81,1.81,0,1,1-1.81-1.809h0a1.809,1.809,0,0,1,1.81,1.809Z" transform="translate(-6545.61 -2128.324)" fill="#89ade9"/>
          <path id="Path_796" data-name="Path 796" d="M6539.917,2107.091a.122.122,0,0,1-.122-.122v-8.042a7.938,7.938,0,0,0-15.875,0v8.042a.122.122,0,0,1-.123.122h-.542a.122.122,0,0,1-.122-.122v-8.042a8.723,8.723,0,0,1,17.447,0v8.042a.122.122,0,0,1-.123.122Z" transform="translate(-6506.56 -2090.204)" fill="#6c98e3"/>
        </g>
      </g>
    </g>
  </g>
</svg>
