<svg xmlns="http://www.w3.org/2000/svg" xmlns:xlink="http://www.w3.org/1999/xlink" width="384.271" height="285.523" viewBox="0 0 384.271 285.523">
  <defs>
    <linearGradient id="linear-gradient" y1="0.5" x2="1" y2="0.5" gradientUnits="objectBoundingBox">
      <stop offset="0" stop-color="#cedffc"/>
      <stop offset="1" stop-color="#b3cdfa"/>
    </linearGradient>
    <linearGradient id="linear-gradient-3" y1="0.5" x2="1" y2="0.5" gradientUnits="objectBoundingBox">
      <stop offset="0" stop-color="#eef4fe"/>
      <stop offset="0.848" stop-color="#e4edfe"/>
    </linearGradient>
  </defs>
  <g id="Group_12419" data-name="Group 12419" transform="translate(-300.816 -293.659)">
    <g id="Group_12416" data-name="Group 12416" transform="translate(244.921 293.659)">
      <g id="Group_626" data-name="Group 626" transform="translate(0 0)">
        <g id="Group_605" data-name="Group 605" transform="translate(164.901 62.053)">
          <rect id="Rectangle_541" data-name="Rectangle 541" width="166.783" height="87.413" rx="1.96" fill="#eef4fe"/>
          <rect id="Rectangle_542" data-name="Rectangle 542" width="9.696" height="4.92" transform="translate(8.349 7.075)" fill="#d1e1fc"/>
          <rect id="Rectangle_543" data-name="Rectangle 543" width="74.508" height="4.92" transform="translate(81.782 14.959)" fill="#d1e1fc"/>
          <rect id="Rectangle_544" data-name="Rectangle 544" width="74.508" height="4.92" transform="translate(81.782 28.836)" fill="#d1e1fc"/>
          <rect id="Rectangle_545" data-name="Rectangle 545" width="74.508" height="4.92" transform="translate(81.782 42.713)" fill="#d1e1fc"/>
          <rect id="Rectangle_546" data-name="Rectangle 546" width="42.691" height="4.92" transform="translate(81.782 56.59)" fill="#d1e1fc"/>
          <rect id="Rectangle_547" data-name="Rectangle 547" width="9.696" height="4.92" transform="translate(8.349 20.663)" fill="#d1e1fc"/>
          <rect id="Rectangle_548" data-name="Rectangle 548" width="9.696" height="4.92" transform="translate(8.349 34.25)" fill="#d1e1fc"/>
          <rect id="Rectangle_549" data-name="Rectangle 549" width="9.696" height="4.92" transform="translate(8.349 47.838)" fill="#d1e1fc"/>
          <rect id="Rectangle_550" data-name="Rectangle 550" width="9.696" height="4.92" transform="translate(8.349 61.426)" fill="#d1e1fc"/>
          <rect id="Rectangle_551" data-name="Rectangle 551" width="9.696" height="4.92" transform="translate(8.349 75.013)" fill="#d1e1fc"/>
          <g id="Group_604" data-name="Group 604" transform="translate(26.861 8.461)">
            <path id="Path_1595" data-name="Path 1595" d="M4493.047,236.942v22.823l.012.012,16.1,16.147a22.745,22.745,0,0,0,6.7-16.091c0-.023,0-.045,0-.067A22.823,22.823,0,0,0,4493.047,236.942Z" transform="translate(-4469.115 -236.942)" fill="#b3cdfa"/>
            <path id="Path_1596" data-name="Path 1596" d="M4454.649,243.606a22.747,22.747,0,0,0-6.705,16.116l22.82.055V236.942A22.75,22.75,0,0,0,4454.649,243.606Z" transform="translate(-4447.941 -236.942)" fill="#70a4e9"/>
            <path id="Path_1597" data-name="Path 1597" d="M4470.773,282.023h-.012l-22.82-.056c0,.015,0,.029,0,.043a22.822,22.822,0,0,0,38.939,16.159Z" transform="translate(-4447.938 -258.079)" fill="#b3cdfa"/>
          </g>
        </g>
        <g id="Group_617" data-name="Group 617" transform="translate(251.182 0)">
          <path id="Path_1605" data-name="Path 1605" d="M4768.3,601.823l4.087,6.067,7.772,4.451a4.828,4.828,0,0,1,2.428,4.189v.124h-18.762l-11.445-2.712.416-14.815Z" transform="translate(-4641.281 -336.459)" fill="#3a3c4e"/>
          <path id="Path_1606" data-name="Path 1606" d="M4700.593,601.823l-4.087,6.067-7.771,4.451a4.826,4.826,0,0,0-2.428,4.189v.124h18.762l11.445-2.712-.416-14.815Z" transform="translate(-4610.263 -336.459)" fill="#3a3c4e"/>
          <path id="Path_1607" data-name="Path 1607" d="M4694.126,612.342l7.773-4.451,4.087-6.067,10.137-1.763-.026-.933-15.5,2.7-4.087,6.067-7.771,4.451a4.826,4.826,0,0,0-2.428,4.189v.124h5.393v-.124A4.827,4.827,0,0,1,4694.126,612.342Z" transform="translate(-4610.263 -336.459)" fill="#9496a4" opacity="0.1"/>
          <path id="Path_1608" data-name="Path 1608" d="M4775.107,612.342l-7.772-4.451-4.087-6.067-10.138-1.763.026-.933,15.5,2.7,4.087,6.067,7.772,4.451a4.827,4.827,0,0,1,2.429,4.189v.124h-5.393v-.124A4.827,4.827,0,0,0,4775.107,612.342Z" transform="translate(-4641.624 -336.459)" fill="#9496a4" opacity="0.1"/>
          <path id="Path_1609" data-name="Path 1609" d="M4740.688,271.771h-48.206V201.306l19.924-20.914,28.282,5.639Z" transform="translate(-4613.162 -139.88)" fill="#fff"/>
          <path id="Path_1610" data-name="Path 1610" d="M4692.481,328.911l5.168,81.483,5.842,64.574H4719l-2.412-63.366L4719,355.876l7.652,58.98-2.259,60.113h15.79l2.68-60.113,1.424-85.944Z" transform="translate(-4613.162 -209.604)" fill="#4d5068"/>
          <path id="Path_1611" data-name="Path 1611" d="M4692.766,331.278l5.018,79.116,5.842,64.574h5.232a137.083,137.083,0,0,1-1.383-18c-.109-10.3.945-20.623.208-30.9-1.209-16.885-7.227-33.513-5.436-50.346.9-8.432,3.731-16.537,5.161-24.9,1.253-7.329,1.3-15.254-1.782-21.915h-7.577Z" transform="translate(-4613.296 -209.604)" fill="#191c3c" opacity="0.2"/>
          <path id="Path_1612" data-name="Path 1612" d="M4773.744,414.855l1.424-85.944h-12.792a35.12,35.12,0,0,0-4.106,16.454c.009,10.777,4.954,20.906,6.7,31.54,2.735,16.627-2.409,33.948,1.292,50.387a67.877,67.877,0,0,1,1.795,8.462,39.673,39.673,0,0,1-.116,6.612q-1.006,13.686-2.01,27.371a14.593,14.593,0,0,0,.289,5.232h4.842Z" transform="translate(-4644.047 -209.604)" fill="#191c3c" opacity="0.2"/>
          <path id="Path_1613" data-name="Path 1613" d="M4810.9,368.846v3.993l1.69,1.647a3.9,3.9,0,0,1,1.18,2.794v6.15l-.265.593a2.733,2.733,0,0,1-2.5,1.624h-5.494a3.539,3.539,0,0,1-2.241-.8l-.58-.474a3.14,3.14,0,0,1-1.152-2.431V378.5l-1.478-1.257v-3.915l1.478-.985,1.971-1.231.246-2.269Z" transform="translate(-4663.666 -228.351)" fill="#ffcebd"/>
          <rect id="Rectangle_574" data-name="Rectangle 574" width="48.314" height="4.281" transform="translate(79.32 119.308)" fill="#3a3c4e"/>
          <rect id="Rectangle_575" data-name="Rectangle 575" width="12.484" height="4.281" transform="translate(95.533 119.308)" fill="#fc7318"/>
          <path id="Path_1614" data-name="Path 1614" d="M4747.188,174.878l-8.576,6.292-8.576-6.292V160.509h17.152Z" transform="translate(-4630.792 -130.546)" fill="#ffcebd"/>
          <g id="Group_612" data-name="Group 612" transform="translate(91.752)">
            <path id="Path_1615" data-name="Path 1615" d="M4724.039,160.251c-.014-.018-.022-.039-.036-.058l-.152-.087Z" transform="translate(-4719.64 -130.357)" fill="#41445d"/>
            <path id="Path_1616" data-name="Path 1616" d="M4745.355,117.981c-.216-1.723-.884-3.375-1-5.108a7.145,7.145,0,0,0-.283-2.211c-.668-1.661-2.9-2.2-3.705-3.8a7.848,7.848,0,0,0-.509-1.068,2.449,2.449,0,0,0-1.1-.788,5.078,5.078,0,0,0-3.595-.09,4.729,4.729,0,0,1-1.355.4c-1.127.046-1.99-1.05-3.1-1.254-1.181-.217-2.3.615-3.5.717-1.438.121-2.966-.807-4.26-.168-1.21.6-2.062,1.957-3.269,2.68a4.362,4.362,0,0,0-2.166,2.4c-.516,1.183-1.6,2.242-1.6,3.564-.008,1.495,1.042,2.828.8,4.355-.12.747-.554,1.413-.7,2.156-.307,1.6.746,2.526,1.279,3.869a14.852,14.852,0,0,1,.447,3.377,14.623,14.623,0,0,0,2.536,6.854,21.453,21.453,0,0,0,6.365,2.822,22,22,0,0,0,5.588.174c2.352-.128,4.943-.36,6.574-2.058a9.441,9.441,0,0,0,1.483-2.317l1.669-3.274a13.464,13.464,0,0,0,1.677-4.85C4744.123,122.09,4745.667,120.472,4745.355,117.981Z" transform="translate(-4715.914 -104.032)" fill="#41445d"/>
          </g>
          <path id="Path_1617" data-name="Path 1617" d="M4763.634,139.4s2.529-1.511,2.529-.162a10.783,10.783,0,0,1-.154,3.842,4.55,4.55,0,0,1-2.886,3.078h0l-1.6-4.115Z" transform="translate(-4645.572 -120.297)" fill="#ffcebd"/>
          <path id="Path_1618" data-name="Path 1618" d="M4730.036,170.1a6.431,6.431,0,0,0,3.056.8h1.886a10.206,10.206,0,0,0,6.08-2.008l1.66-1.23a11.76,11.76,0,0,0,4.471-6.926v-.234h-17.153Z" transform="translate(-4630.792 -130.546)" fill="#a58877" opacity="0.4"/>
          <path id="Path_1619" data-name="Path 1619" d="M4720.657,126.451l.439,8.6a14.981,14.981,0,0,0,3.568,8.962h0a6.463,6.463,0,0,0,4.917,2.268h1.886a10.208,10.208,0,0,0,6.08-2.008l1.66-1.23a11.77,11.77,0,0,0,4.727-8.567l.574-7.594a11.887,11.887,0,0,0-4.88-10.592,12.4,12.4,0,0,0-8.14-2.471A11.933,11.933,0,0,0,4720.657,126.451Z" transform="translate(-4626.381 -108.613)" fill="#ffcebd"/>
          <path id="Path_1620" data-name="Path 1620" d="M4718.36,120.942c.01,2.285-.393,4.533-.285,6.829a5.323,5.323,0,0,0,1.321,3.774c.381.349,1.045.566,1.372.164a1,1,0,0,0,.167-.641,12.2,12.2,0,0,0-.624-2.929c-.521-2.08-.976-4.26.513-5.994a7.743,7.743,0,0,0,1.93-2.834,3.982,3.982,0,0,1,.337-1.116c.493-.794,1.667-.745,2.55-.441a4.449,4.449,0,0,0,2.7.488c.571-.182,1.136-.664,1.692-.439a2,2,0,0,1,.607.514,3,3,0,0,0,3.309.6c.4-.185.756-.458,1.17-.606a3.061,3.061,0,0,1,2.891.759,5.368,5.368,0,0,1,1.872,4.159,2.936,2.936,0,0,0,.137,1.421c.472.919,1.942.882,2.47,1.77a2.043,2.043,0,0,1-.189,1.958c-.326.609-1.122,1.548-.768,2.282.469.973,1.275.435,1.712-.314a5.332,5.332,0,0,0,.408-3.382,7.663,7.663,0,0,1-.1-3.392,13.018,13.018,0,0,0,1.031-3.277c.139-2.373-1.463-4.555-3.435-5.882a31.18,31.18,0,0,0-6.521-2.837,9.8,9.8,0,0,0-3.938-.965,8.776,8.776,0,0,0-3.582,1.312l-3.313,1.8a6.138,6.138,0,0,0-1.584,1.093c-.638.677-.952,1.627-1.656,2.235-.41.353-.928.569-1.319.943A3.965,3.965,0,0,0,4718.36,120.942Z" transform="translate(-4625.168 -107.117)" fill="#4d5068"/>
          <path id="Path_1621" data-name="Path 1621" d="M4692.481,201.306v70.465h.8l.007.115,7.839-5.479a14.506,14.506,0,0,0,5.306-16.7c-5.123-14.768-8.189-39.29,6.595-67.089l-.1-2.118-.524-.1Z" transform="translate(-4613.162 -139.88)" fill="#191c3c" opacity="0.3"/>
          <path id="Path_1622" data-name="Path 1622" d="M4666.211,180.392l-8.464,5.842-7.915,1.28a6.714,6.714,0,0,0-3.84,2.053l-21.7,23.321a5.3,5.3,0,0,1-6.406,1.046L4598.9,203.611l-4.814,8.539,22.592,17.544a7.98,7.98,0,0,0,8.861.622l13.471-10.739,3.237,15.845-7.7,42.061,15.964-10.107a14.506,14.506,0,0,0,6.061-16.445c-4.444-14.986-6.391-39.622,9.645-66.718Z" transform="translate(-4566.968 -139.88)" fill="#32aaeb"/>
          <path id="Path_1623" data-name="Path 1623" d="M4570.545,230.931l-3.452-2.636H4553.91l-7.49-1.648-3.445-3.445h0a2.576,2.576,0,0,1,3.595-.6l2.1,1.5,9.644.795a2.956,2.956,0,0,0,1.607-.323,9.181,9.181,0,0,1,4.2-1.13l7.418,0,2.326,1.605Z" transform="translate(-4542.975 -159.471)" fill="#ffcebd"/>
          <path id="Path_1624" data-name="Path 1624" d="M4771.975,276.8l.237-14.307h-3.6V189.335l-9.559-1.906c-4.515,30.46-6.345,51.631-7.052,64.948a23.048,23.048,0,0,0,16.131,23.218Z" transform="translate(-4641.091 -143.184)" fill="#191c3c" opacity="0.3"/>
          <path id="Path_1625" data-name="Path 1625" d="M4759.792,173.051l7.19,7.715,20.972,7.415-11.535,40.2,12.883,43.84-14.49-3.374a23.047,23.047,0,0,1-17.827-21.943C4756.665,232.363,4756.968,208.44,4759.792,173.051Z" transform="translate(-4643.396 -136.434)" fill="#32aaeb"/>
          <path id="Path_1626" data-name="Path 1626" d="M4736.634,193.884l-6.628,6.741-4.183-9.057,2.235-3.976Z" transform="translate(-4628.814 -143.26)" fill="url(#linear-gradient)"/>
          <path id="Path_1627" data-name="Path 1627" d="M4746.2,194.288l3.183,6.741,4.142-3.37.628-9.205Z" transform="translate(-4638.381 -143.664)" fill="url(#linear-gradient)"/>
          <path id="Path_1628" data-name="Path 1628" d="M4741.417,199.451l-5.406,5.5h8Z" transform="translate(-4633.598 -148.827)" fill="#84aae8"/>
          <path id="Path_1629" data-name="Path 1629" d="M4730.851,209.812s-10.837,31.953-8.687,52.1l7.116,6.934,6.666-7.324s-9.116-25.324-.225-51.712Z" transform="translate(-4626.964 -153.691)" fill="#84aae8"/>
          <g id="Group_613" data-name="Group 613" transform="translate(124.632 83.798)" opacity="0.55">
            <path id="Path_1630" data-name="Path 1630" d="M4795.915,261.98a8.1,8.1,0,0,0-1.955,7.336l2.021-7.04C4795.958,262.177,4795.938,262.079,4795.915,261.98Z" transform="translate(-4785.335 -261.98)" fill="#272834" opacity="0.3"/>
            <path id="Path_1631" data-name="Path 1631" d="M4788.269,285.786a48.552,48.552,0,0,1,1.38,5.966,9.511,9.511,0,0,0,2.4,4.672l-5.763-19.606.169-.588a33.975,33.975,0,0,1-8.56,1.328,22.119,22.119,0,0,1,8.6,2.7l-2.02.471A11.36,11.36,0,0,1,4788.269,285.786Z" transform="translate(-4777.89 -268.67)" fill="#272834" opacity="0.3"/>
          </g>
          <g id="Group_614" data-name="Group 614" transform="translate(72.817 87.955)" opacity="0.55">
            <path id="Path_1632" data-name="Path 1632" d="M4684.742,273.548a7.294,7.294,0,0,1-2.805-3.732l1.55,7.586-.08.438,4.851-.721a2.29,2.29,0,0,0-1.107-2.3C4686.406,274.294,4685.515,274.025,4684.742,273.548Z" transform="translate(-4681.029 -269.816)" fill="#272834" opacity="0.3"/>
            <path id="Path_1633" data-name="Path 1633" d="M4682.153,294.476a.976.976,0,0,1-.391-.871l-1.536,8.389a48.98,48.98,0,0,1,3.366-7.961A1.018,1.018,0,0,1,4682.153,294.476Z" transform="translate(-4680.227 -280.984)" fill="#272834" opacity="0.3"/>
            <path id="Path_1634" data-name="Path 1634" d="M4683.414,288.986a1.947,1.947,0,0,1,.664-.382l3.872-1.594A16.6,16.6,0,0,0,4684,285.1l-.768,4.192A.869.869,0,0,1,4683.414,288.986Z" transform="translate(-4681.637 -276.991)" fill="#272834" opacity="0.3"/>
          </g>
          <path id="Path_1635" data-name="Path 1635" d="M4756.986,246.9c.011.5.052.985.094,1.473l.128,1.128c.014.1.03.2.045.3l10.774-57.254-3.933-5.5,5.583-3.169-9.886-10.837C4756.968,208.44,4756.665,232.363,4756.986,246.9Z" transform="translate(-4643.396 -136.434)" fill="#1f95dd"/>
          <path id="Path_1636" data-name="Path 1636" d="M4701.418,192.427s-10.636,20.224,3.763,58.5c-4.445-14.986-6.391-39.622,9.645-66.718v-3.82l-8.464,5.842,3.479,2.087Z" transform="translate(-4615.582 -139.88)" fill="#1f95dd"/>
          <g id="Group_615" data-name="Group 615" transform="translate(136.426 108.092)" opacity="0.3">
            <path id="Path_1637" data-name="Path 1637" d="M4801.463,307.771l-1.343,25.486,9.481,2.207Z" transform="translate(-4800.12 -307.771)" fill="#191c3c" opacity="0.3"/>
          </g>
          <path id="Path_1638" data-name="Path 1638" d="M4806.567,201.568l10.187,47.637-6.142,41.739-9.887.158,2.247-42.646-6.441-23.219Z" transform="translate(-4662.009 -149.821)" fill="#1f95dd"/>
          <g id="Group_616" data-name="Group 616" transform="translate(42.189 67.307)" opacity="0.2">
            <path id="Path_1639" data-name="Path 1639" d="M4622.84,235.022c-.114.1-.236.18-.344.287.85.28,1.7.579,2.542.907Z" transform="translate(-4622.497 -232.834)" fill="#272834"/>
            <path id="Path_1640" data-name="Path 1640" d="M4643.008,236.6a5.3,5.3,0,0,1-6.406,1.046l-2.655-1.443c.137.106.289.188.42.3.7.6,1.3,1.309,1.986,1.934a23,23,0,0,0,5.625,3.447,5.392,5.392,0,0,0-.385-2.347,17.3,17.3,0,0,0,1.957,3.558q.093-2.372.186-4.745.059,1.042.116,2.084a63.489,63.489,0,0,1,4.459-9.536Z" transform="translate(-4627.871 -230.898)" fill="#272834"/>
          </g>
          <path id="Path_1641" data-name="Path 1641" d="M4809.445,284.736c.771-.439,2.48-1.173,1.524-1.382-.266-.058-2.651.474-2.91.408.471-.463,2.615-1.914,1.949-2.362l-4.557-3.061.914,3.3.269.18c-.064.023-.132.052-.2.076l.723,2.607v.009c.089.033.178.072.269.105-.1.066-.191.152-.286.223l-.126,2.385c.136.03.266.041.4.071a1.986,1.986,0,0,0-.164.2,3.542,3.542,0,0,0-.28.527l-.331,6.277a.881.881,0,0,0,1.143-.514c.553-1.233.686-2.528,1.128-3.758.532-1.481,1.809-1.788,2.9-2.752C4812.458,286.691,4810.25,284.877,4809.445,284.736Z" transform="translate(-4666.197 -185.862)" fill="#272834" opacity="0.2"/>
        </g>
        <g id="Group_621" data-name="Group 621" transform="translate(145.45 82.395)">
          <rect id="Rectangle_576" data-name="Rectangle 576" width="9.705" height="16.271" transform="translate(133.782 176.641) rotate(-45.628)" fill="#ffcebd"/>
          <rect id="Rectangle_577" data-name="Rectangle 577" width="9.705" height="16.271" transform="translate(85.66 171.056) rotate(17.062)" fill="#ffcebd"/>
          <g id="Group_618" data-name="Group 618" transform="translate(23.356 124.788)">
            <path id="Path_1642" data-name="Path 1642" d="M4396.611,510.448l-8.9,63.555,3.134.083,16.6-65.633H4396.8Z" transform="translate(-4387.708 -501.074)" fill="#4d5068"/>
            <path id="Path_1643" data-name="Path 1643" d="M4518.981,510.448l8.9,63.555-3.134.083-16.6-65.633h10.65Z" transform="translate(-4444.249 -501.074)" fill="#4d5068"/>
            <path id="Rectangle_578" data-name="Rectangle 578" d="M4.763,0H75.734A4.763,4.763,0,0,1,80.5,4.763V9.374a0,0,0,0,1,0,0H0a0,0,0,0,1,0,0V4.763A4.763,4.763,0,0,1,4.763,0Z" transform="translate(1.522)" fill="#a5cbef"/>
          </g>
          <path id="Path_1644" data-name="Path 1644" d="M4396.865,451.316l60.281,27.745,51.706,46.553L4518.52,516l-44.494-49.641-44.8-31.856Z" transform="translate(-4368.651 -341.569)" fill="#43465b"/>
          <path id="Path_1645" data-name="Path 1645" d="M4390.049,440.576v11.35a17.8,17.8,0,0,0,17.8,17.8h56.19c-10.089,12.191-15.87,51.5-15.87,51.5l12.655,3.457,22.344-57.187a16.127,16.127,0,0,0-15.069-21.871h-40.22l.289-5.044Z" transform="translate(-4365.452 -344.421)" fill="#4d5068"/>
          <g id="Group_619" data-name="Group 619" transform="translate(76.024 183.734)">
            <path id="Path_1646" data-name="Path 1646" d="M4490.083,605.65l-3.1,7.86v6.206h38.061V618a3.326,3.326,0,0,0-2.556-3.235l-6.132-1.46-12.825-7.654h-2.275l-1.034,2.275H4493.6l-.621-2.275Z" transform="translate(-4486.979 -605.65)" fill="#4d5068"/>
            <path id="Path_1647" data-name="Path 1647" d="M4486.979,625.924v3.31h38.061v-1.717a3.321,3.321,0,0,0-.407-1.593Z" transform="translate(-4486.979 -615.168)" fill="#fff"/>
          </g>
          <g id="Group_620" data-name="Group 620" transform="translate(142.217 165.52)">
            <path id="Path_1648" data-name="Path 1648" d="M4611.746,592.62l4.446,7.186,4.975,3.71,23.623-30.511-1.376-1.027a3.325,3.325,0,0,0-4.121.114l-4.837,4.043-14.672,5.705-1.361,1.824,1.206,2.189-3.957,5.307-2.195-.863Z" transform="translate(-4611.746 -571.319)" fill="#4d5068"/>
            <path id="Path_1649" data-name="Path 1649" d="M4624.5,601.568l2.653,1.979,23.624-30.511-1.376-1.027a3.309,3.309,0,0,0-1.52-.626Z" transform="translate(-4617.734 -571.349)" fill="#fff"/>
          </g>
          <path id="Path_1650" data-name="Path 1650" d="M4468.945,473.188a12.152,12.152,0,0,0-5.44-5.847c-5.785-3.481-12.809-4.468-19.538-3.92-3.446.281-6.848.941-10.284,1.322a63.921,63.921,0,0,1-19.562-.854c-2.6-.52-5.744-1.93-5.645-4.574l-18.428-5.553v4.354a17.8,17.8,0,0,0,17.8,17.8h56.19c-10.089,12.191-15.87,51.5-15.87,51.5l6.291,1.718q.164-5.413.328-10.826a34.614,34.614,0,0,1,.719-7.173c.806-3.307,2.56-6.289,4.179-9.282a132.909,132.909,0,0,0,8.255-18.516C4469.1,480.064,4470.142,476.447,4468.945,473.188Z" transform="translate(-4365.452 -350.611)" fill="#43465b" opacity="0.5"/>
          <path id="Path_1651" data-name="Path 1651" d="M4410.72,337.91l10.487,1.978a20.8,20.8,0,0,1,14.8,11.252l8.582,17.438L4436,387.9l-.874,8.685s-41.633,18.452-51.855,10.089l-.475-44.4,15.715-22.983Z" transform="translate(-4362.047 -296.223)" fill="#32aaeb"/>
          <path id="Path_1652" data-name="Path 1652" d="M4383.28,428.9c4.044,3.309,13.007,2.418,22.362.135a9.782,9.782,0,0,0-1.931-3.944c-1.548-1.966-3.58-3.5-5.239-5.37a37.262,37.262,0,0,1-4.945-7.932,10.508,10.508,0,0,1-1.537-4.75,5.4,5.4,0,0,1,4.535-5.123c.5-.066,1.126-.133,1.315-.6.238-.6-.468-1.123-1.065-1.363-3.824-1.536-8.417-2.334-10.647-5.8-1.72-2.672-1.524-6.292-3.315-8.884Z" transform="translate(-4362.055 -318.457)" fill="#6c98e3" opacity="0.3"/>
          <path id="Path_1653" data-name="Path 1653" d="M4407.961,313.676s3.325,14.94,2.625,23.627h12.19s-1.259-14.828,1.261-17.27Z" transform="translate(-4373.86 -284.846)" fill="#ffcebd"/>
          <path id="Path_1654" data-name="Path 1654" d="M4426.76,281.248a22.646,22.646,0,0,0-2.4-7.789l-.455.221a11.1,11.1,0,0,0-10.457-2.41,14.845,14.845,0,0,0-8.573,6.813,17.831,17.831,0,0,0-1.33,15.358,17.416,17.416,0,0,0,11.4,10.339c2.048.565,4.437.675,6.1-.641a8.407,8.407,0,0,0,1.651-1.967,16.453,16.453,0,0,0,2.882-5.9,37.665,37.665,0,0,0,.209-5.224C4425.935,287.1,4426.926,284.2,4426.76,281.248Z" transform="translate(-4371.247 -264.747)" fill="#ffcebd"/>
          <path id="Path_1655" data-name="Path 1655" d="M4416.708,264.459a34.344,34.344,0,0,0-4.51-3.293,16.71,16.71,0,0,0-4.109-1.41c-3.577-.822-5.989-.589-8.723,2.069a11.462,11.462,0,0,0-3.516,7.678,7.31,7.31,0,0,1-.191,1.953,7.042,7.042,0,0,1-1.217,1.955,13.073,13.073,0,0,0-1.515,12.049c.637,1.753,1.662,3.738,3.317,4.688,1.332.764,4.783,1.344,5.437,2.949a16.516,16.516,0,0,1-1.14-7.729,4.16,4.16,0,0,1,.558-1.947,1.7,1.7,0,0,1,1.747-.793,3.722,3.722,0,0,1,1.212.8,4.112,4.112,0,0,0,2.442.837,1.7,1.7,0,0,0,.987-.238,1.817,1.817,0,0,0,.642-1.2c.437-2.235-.313-4.781-1.036-6.882-.609-1.773-.726-4.091,1.633-3.941,2.12.134,4.29,1.434,6.555,1.558A18.929,18.929,0,0,0,4428.2,269.5,26.892,26.892,0,0,1,4416.708,264.459Z" transform="translate(-4366.419 -259.336)" fill="#4d5068"/>
          <path id="Path_1656" data-name="Path 1656" d="M4428.754,347.936l3.54-11.611,2.093.395,2.214,18.643Z" transform="translate(-4383.622 -295.479)" fill="#1c8ecc"/>
          <path id="Path_1657" data-name="Path 1657" d="M4379.982,337.91l-11.152,2.11a16.558,16.558,0,0,0-12.185,9.852L4344.189,379.5a6.367,6.367,0,0,0,5.87,8.835l44.55-2.226,2.055-6.308-4.9,1.667-27.884-2.363a2.94,2.94,0,0,1-2.133-4.653l18.667-25.773S4383.759,339.471,4379.982,337.91Z" transform="translate(-4343.685 -296.223)" fill="#ffcebd"/>
          <path id="Path_1658" data-name="Path 1658" d="M4394.667,387.991a8.665,8.665,0,0,0-.868-.577c-3.048-1.747-6.711-1.959-10.225-2.02a168.652,168.652,0,0,0-20.9.937c-2.582.277-5.247.607-7.732-.143s-4.757-2.914-4.721-5.51c.029-2.041,1.4-3.772,2.343-5.584,2.181-4.2,2.166-9.372,4.783-13.32a29.482,29.482,0,0,1,2.824-3.363,31.463,31.463,0,0,0,6.508-10.193,19.4,19.4,0,0,0,1.165-5.92,16.559,16.559,0,0,0-11.2,9.634l-12.456,29.628a6.367,6.367,0,0,0,5.87,8.835l44.55-2.226Z" transform="translate(-4343.685 -298.284)" fill="#a58877" opacity="0.4"/>
          <path id="Path_1659" data-name="Path 1659" d="M4383.838,337.91l-11.152,2.11a16.558,16.558,0,0,0-12.185,9.852l-8.6,18.286c6.726-.7,13.7,6.295,18.5,2.522l13.873-22S4387.614,339.471,4383.838,337.91Z" transform="translate(-4347.54 -296.223)" fill="#32aaeb"/>
          <path id="Path_1660" data-name="Path 1660" d="M4409.179,336.544l8.934,11.495-6.306,8.267-5.72-19.038Z" transform="translate(-4372.979 -295.582)" fill="#1c8ecc"/>
          <path id="Path_1661" data-name="Path 1661" d="M4357.908,371.154c.917-3.224,1.457-6.6,3.3-9.379a29.486,29.486,0,0,1,2.825-3.363,31.462,31.462,0,0,0,6.507-10.193,19.371,19.371,0,0,0,1.165-5.92,16.559,16.559,0,0,0-11.2,9.634l-8.6,18.286A14.331,14.331,0,0,1,4357.908,371.154Z" transform="translate(-4347.54 -298.284)" fill="#6c98e3" opacity="0.3"/>
          <path id="Path_1662" data-name="Path 1662" d="M4430.028,330.393s-2.822,2.394-6.917-2.475l5.567,7.63.966-3.169Z" transform="translate(-4380.972 -291.532)" fill="#a58877" opacity="0.4"/>
        </g>
        <g id="Group_622" data-name="Group 622" transform="translate(55.895 173.185)">
          <path id="Path_1663" data-name="Path 1663" d="M4232.237,439.275l-18.961,107.3h3.29l26.9-108.069Z" transform="translate(-4192.908 -434.24)" fill="#4d5068"/>
          <path id="Path_1664" data-name="Path 1664" d="M4800.559,439.275l18.961,107.3h-3.29l-26.9-108.069Z" transform="translate(-4463.34 -434.24)" fill="#4d5068"/>
          <rect id="Rectangle_579" data-name="Rectangle 579" width="376.727" height="5.094" transform="translate(0 11.089)" fill="#a5cbef"/>
          <path id="Path_1665" data-name="Path 1665" d="M4174.885,441.552l20.891-11.089h363.38l-7.457,11.089Z" transform="translate(-4174.885 -430.464)" fill="url(#linear-gradient-3)"/>
          <path id="Path_1666" data-name="Path 1666" d="M4884.965,446.647l7.544-10.639v-5.544l-7.457,11.089Z" transform="translate(-4508.238 -430.464)" fill="url(#linear-gradient-3)"/>
        </g>
        <g id="Group_623" data-name="Group 623" transform="translate(158.643 149.52)">
          <rect id="Rectangle_580" data-name="Rectangle 580" width="25.9" height="3.397" transform="translate(0 30.429)" fill="#4d5068"/>
          <path id="Path_1667" data-name="Path 1667" d="M4453.608,419.684H4400.3l12.566-32.529a2.027,2.027,0,0,1,1.891-1.3h48.966a2.027,2.027,0,0,1,1.892,2.758Z" transform="translate(-4383.454 -385.858)" fill="#4d5068"/>
          <path id="Path_1668" data-name="Path 1668" d="M4463.238,414.8a3.323,3.323,0,1,1-3.323-3.323A3.323,3.323,0,0,1,4463.238,414.8Z" transform="translate(-4409.882 -397.883)" fill="#717386"/>
        </g>
        <g id="Rectangle_4516" data-name="Rectangle 4516" transform="translate(152.079 12.973)" fill="none" stroke="#fff" stroke-width="3">
          <rect width="176" height="34" stroke="none"/>
          <rect x="1.5" y="1.5" width="173" height="31" fill="none"/>
        </g>
        <g id="Group_12417" data-name="Group 12417" transform="translate(86.104 0.099)">
          <g id="Group_3452" data-name="Group 3452" transform="translate(0)">
            <rect id="Rectangle_1483" data-name="Rectangle 1483" width="5.114" height="9.955" transform="matrix(0.769, 0.639, -0.639, 0.769, 36.851, 47.434)" fill="#3a3c4e"/>
            <rect id="Rectangle_1484" data-name="Rectangle 1484" width="46.655" height="9.974" transform="matrix(0.639, -0.769, 0.769, 0.639, 0.195, 87.958)" fill="#4d5068"/>
            <path id="Path_13608" data-name="Path 13608" d="M13687.253,9816.982a30.636,30.636,0,1,0,3.99,43.141A30.672,30.672,0,0,0,13687.253,9816.982Zm-35.017,42.154a24.166,24.166,0,1,1,34.03-3.147A24.192,24.192,0,0,1,13652.236,9859.137Z" transform="translate(-13613.536 -9809.926)" fill="#f8b018"/>
            <path id="Path_13609" data-name="Path 13609" d="M13692.983,9862.682a24.353,24.353,0,1,0-34.293,3.173A24.38,24.38,0,0,0,13692.983,9862.682Zm-32.8,1.381a22.024,22.024,0,1,1,31.013-2.869A22.05,22.05,0,0,1,13660.18,9864.063Z" transform="translate(-13620.11 -9816.498)" fill="#717386"/>
            <rect id="Rectangle_1485" data-name="Rectangle 1485" width="46.655" height="5.114" transform="translate(0 87.796) rotate(-50.285)" fill="#717386"/>
            <g id="Group_3426" data-name="Group 3426" transform="translate(35.903 11.74)">
              <path id="Path_13610" data-name="Path 13610" d="M13662.479,9852.819a17.441,17.441,0,0,1,.012-3.326,17.256,17.256,0,0,1,1.955-6.437,17.519,17.519,0,0,1,4.464-5.375,17.262,17.262,0,0,1,5.971-3.1,17.433,17.433,0,0,1,3.268-.621l.179,1.953a15.347,15.347,0,0,0-8.191,3.3,15.519,15.519,0,0,0-3.962,4.771,15.122,15.122,0,0,0-1.153,2.79,15.419,15.419,0,0,0-.59,5.867Z" transform="translate(-13662.405 -9833.956)" fill="#fff"/>
            </g>
          </g>
        </g>
      </g>
    </g>
  </g>
</svg>
