<svg xmlns="http://www.w3.org/2000/svg" width="428.894" height="341.747" viewBox="0 0 428.894 341.747">
  <g id="Group_13522" data-name="Group 13522" transform="translate(-256.441 -169.916)">
    <g id="Group_13521" data-name="Group 13521">
      <g id="Group_13104" data-name="Group 13104" transform="translate(368.725 179.159)">
        <rect id="Rectangle_4628" data-name="Rectangle 4628" width="120.708" height="2.99" transform="translate(131.688 120.703) rotate(-89.523)" fill="#fff"/>
        <rect id="Rectangle_4629" data-name="Rectangle 4629" width="40.64" height="2.992" transform="translate(0 119.606) rotate(-89.523)" fill="#edf4fc"/>
        <rect id="Rectangle_4630" data-name="Rectangle 4630" width="85.09" height="2.99" transform="matrix(0.008, -1, 1, 0.008, 65.842, 120.155)" fill="#edf4fc"/>
        <path id="Path_44840" data-name="Path 44840" d="M498.7,314.844h-.2c-17.7-.147-26.211-19.612-34.449-38.438-8.182-18.7-15.909-36.361-31.5-36.491h-.171c-15.477,0-23.47,17.468-31.93,35.961-8.516,18.612-17.324,37.856-34.886,37.856h-.2l.027-3.247h.173c15.477,0,23.47-17.468,31.932-35.961,8.516-18.612,17.322-37.859,34.881-37.859.067,0,.133,0,.2,0,17.7.147,26.211,19.612,34.449,38.435,8.18,18.7,15.909,36.363,31.495,36.494h.173c15.48,0,23.473-17.471,31.932-35.963,8.521-18.612,17.327-37.856,34.889-37.856h.2l-.027,3.25h-.176c-15.477,0-23.467,17.466-31.932,35.958C525.07,295.6,516.264,314.844,498.7,314.844Z" transform="translate(-365.049 -222.434)" fill="#ffc550"/>
      </g>
      <path id="Path_44831" data-name="Path 44831" d="M553.453,353.137c.319,5.017-3.839,9.32-9.285,9.613l-104.334,5.594-9.535.516-6.4.338-9.675.516-15.309.822-12.667.677-5.389.29-12.632.677L268.16,377.547c-5.448.293-10.12-3.536-10.436-8.552L247.1,200.794,542.813,184.92Z" transform="translate(115.583 78.125) rotate(2)" fill="#99b701"/>
      <g id="Group_13111" data-name="Group 13111" transform="translate(520.8 169.916)">
        <g id="Group_13107" data-name="Group 13107" transform="translate(36.435)">
          <path id="Path_44847" data-name="Path 44847" d="M396.471,245.761A59.633,59.633,0,0,0,479.128,207.7l-28.607-7.99a29.959,29.959,0,0,1-30.545,21.851,29.611,29.611,0,0,1-10.949-2.749Z" transform="translate(-362.018 -132.016)" fill="#ffc550"/>
          <path id="Path_44848" data-name="Path 44848" d="M397.482,271.328c.436.492.9.963,1.355,1.436l21.492-20.5A29.938,29.938,0,1,1,469.55,219.9L496.9,208.284a59.045,59.045,0,0,0-10.4-16.418,59.664,59.664,0,1,0-89.021,79.462Z" transform="translate(-382.335 -171.936)" fill="#edf4fc"/>
          <path id="Path_44849" data-name="Path 44849" d="M420.458,211.851a30.128,30.128,0,0,1-1.05,6.344l28.607,7.99a59.383,59.383,0,0,0-2.547-39.336l-27.349,11.616A29.624,29.624,0,0,1,420.458,211.851Z" transform="translate(-330.904 -150.501)" fill="#f5a80b"/>
          <path id="Path_44850" data-name="Path 44850" d="M389.106,225.393a58.855,58.855,0,0,0,17.951,12.918l12.557-26.95a29.654,29.654,0,0,1-9.016-6.469Z" transform="translate(-372.604 -124.566)" fill="#d1d9fe"/>
        </g>
        <g id="Group_13108" data-name="Group 13108" transform="translate(3.603 17.879)">
          <path id="Path_44851" data-name="Path 44851" d="M371.8,179.811a10.475,10.475,0,0,1,13.673,8.292l-5.152.826a5.263,5.263,0,0,0-6.866-4.163Z" transform="translate(-364.642 -179.272)" fill="#edf4fc"/>
          <path id="Path_44852" data-name="Path 44852" d="M372.37,180.5c.085-.076.175-.149.263-.224l3.344,4.009a5.262,5.262,0,1,0,7.951,6.632l4.543,2.571a10.326,10.326,0,0,1-2.142,2.662A10.485,10.485,0,1,1,372.37,180.5Z" transform="translate(-368.865 -177.835)" fill="#ffc550"/>
          <path id="Path_44853" data-name="Path 44853" d="M375.72,184.85a5.4,5.4,0,0,0-.056-1.128l5.152-.826a10.44,10.44,0,0,1-1.228,6.817l-4.543-2.571A5.2,5.2,0,0,0,375.72,184.85Z" transform="translate(-359.982 -174.064)" fill="#ffc550"/>
          <path id="Path_44854" data-name="Path 44854" d="M370.411,181.389a10.365,10.365,0,0,1,3.393-1.9l1.655,4.955a5.255,5.255,0,0,0-1.7.951Z" transform="translate(-366.643 -178.953)" fill="#4c8"/>
        </g>
        <g id="Group_13109" data-name="Group 13109" transform="translate(0 81.241)">
          <path id="Path_44855" data-name="Path 44855" d="M384.7,212.869a10.481,10.481,0,0,1-9.978,5.784,10.371,10.371,0,0,1-5.555-1.979l3.061-4.229a5.266,5.266,0,0,0,6.591-.334,5.18,5.18,0,0,0,1.206-1.577Z" transform="translate(-364.831 -197.699)" fill="#007bbe"/>
          <path id="Path_44856" data-name="Path 44856" d="M388.339,216.351c-.007.115-.017.232-.027.346l-5.2-.468a5.261,5.261,0,1,0-10.31.931l-5.033,1.394a10.485,10.485,0,1,1,20.571-2.2Z" transform="translate(-367.387 -205.268)" fill="#d1d9fe"/>
          <path id="Path_44857" data-name="Path 44857" d="M373.719,212.243a5.2,5.2,0,0,0,.838.758L371.5,217.23a10.452,10.452,0,0,1-3.953-5.689l5.033-1.394A5.2,5.2,0,0,0,373.719,212.243Z" transform="translate(-367.162 -198.255)" fill="#edf4fc"/>
          <path id="Path_44858" data-name="Path 44858" d="M379.353,210.233a10.373,10.373,0,0,1-1.058,3.741l-4.675-2.335a5.245,5.245,0,0,0,.531-1.874Z" transform="translate(-358.428 -198.804)" fill="#ffc550"/>
        </g>
        <g id="Group_13110" data-name="Group 13110" transform="translate(1.801 49.56)">
          <path id="Path_44859" data-name="Path 44859" d="M373.929,209.58a10.479,10.479,0,0,1-3.807-15.531l4.229,3.061a5.266,5.266,0,0,0,.334,6.591,5.2,5.2,0,0,0,1.577,1.2Z" transform="translate(-368.126 -189.712)" fill="#d1d9fe"/>
          <path id="Path_44860" data-name="Path 44860" d="M373.482,213.224c-.115-.007-.232-.02-.346-.029l.468-5.2a5.261,5.261,0,1,0-.931-10.31l-1.394-5.033a10.331,10.331,0,0,1,3.4-.366,10.485,10.485,0,1,1-1.192,20.937Z" transform="translate(-363.594 -192.27)" fill="#edf4fc"/>
          <path id="Path_44861" data-name="Path 44861" d="M373.929,198.6a5.429,5.429,0,0,0-.756.841l-4.229-3.061a10.431,10.431,0,0,1,5.689-3.953l1.394,5.033A5.219,5.219,0,0,0,373.929,198.6Z" transform="translate(-366.949 -192.044)" fill="#ffc550"/>
          <path id="Path_44862" data-name="Path 44862" d="M374.246,204.236a10.3,10.3,0,0,1-3.739-1.058l2.333-4.675a5.2,5.2,0,0,0,1.874.534Z" transform="translate(-364.703 -183.311)" fill="#edf4fc"/>
        </g>
      </g>
      <g id="Group_13102" data-name="Group 13102" transform="translate(355.625 242.997) rotate(2)">
        <path id="Path_44833" data-name="Path 44833" d="M563.649,197.725,247.782,215.577l-1.475-24.569a4.261,4.261,0,0,1,4.083-4.451l307.2-17.363a4.3,4.3,0,0,1,4.588,3.962Z" transform="translate(-246.3 -169.187)" fill="#bad531"/>
        <path id="Path_45324" data-name="Path 45324" d="M0,0,305.049.548l.018,9.512L.018,9.512Z" transform="translate(6.199 30.535) rotate(-3.334)" fill="#f2f2f2"/>
        <rect id="Rectangle_4620" data-name="Rectangle 4620" width="4.942" height="4.943" transform="matrix(0.998, -0.058, 0.058, 0.998, 5.725, 22.402)" fill="#f9f4ea"/>
        <rect id="Rectangle_4621" data-name="Rectangle 4621" width="4.942" height="4.942" transform="matrix(0.998, -0.058, 0.058, 0.998, 14.497, 21.892)" fill="#f9f4ea"/>
        <rect id="Rectangle_4622" data-name="Rectangle 4622" width="4.942" height="4.942" transform="matrix(0.998, -0.058, 0.058, 0.998, 23.269, 21.381)" fill="#f9f4ea"/>
      </g>
      <g id="Group_13221" data-name="Group 13221" transform="matrix(0.999, -0.035, 0.035, 0.999, 171.717, 182.76)">
        <path id="Path_45010" data-name="Path 45010" d="M183.043,298.433,178.721,121.1l316.352-2.192L488.6,298.049Z" transform="translate(0 0)" fill="#d8f2ff" fill-rule="evenodd"/>
        <path id="Path_45011" data-name="Path 45011" d="M457.043,197.923H193.791V159.037H458.574Z" transform="translate(9.399 38.858)" fill="#fff" fill-rule="evenodd" style="mix-blend-mode: hard-light;isolation: isolate"/>
        <g id="Group_13209" data-name="Group 13209" transform="translate(203.19 158.775)">
          <path id="Path_45012" data-name="Path 45012" d="M193.791,141.123l.609,25.253H454.731l1.533-25.253Zm209.478,23.824H196.788l-.609-22.566,207.09,1.224Z" transform="translate(-193.791 -138.081)" fill="#007bbe" fill-rule="evenodd" style="mix-blend-mode: multiply;isolation: isolate"/>
          <path id="Path_45013" data-name="Path 45013" d="M359.225,164.5l-7.191,3.041H307.652V141.737l1.488-2.487Z" transform="translate(-91.949 -139.25)" fill="#d97500" fill-rule="evenodd"/>
          <path id="Path_45014" data-name="Path 45014" d="M308.568,164.5V139.25h51.578L358.654,164.5Z" transform="translate(-91.378 -139.25)" fill="#f8ac53" fill-rule="evenodd"/>
          <g id="Group_13208" data-name="Group 13208" transform="translate(233.691 4.981)">
            <path id="Path_45015" data-name="Path 45015" d="M320.722,144.309a6.8,6.8,0,1,0,9.619,0A6.8,6.8,0,0,0,320.722,144.309Zm8.089,8.089a4.637,4.637,0,1,1,0-6.558A4.638,4.638,0,0,1,328.811,152.4Z" transform="translate(-318.73 -142.318)" fill="#fff" fill-rule="evenodd"/>
            <rect id="Rectangle_4690" data-name="Rectangle 4690" width="2.563" height="7.266" transform="translate(9.504 11.491) rotate(-45.003)" fill="#fff"/>
          </g>
          <path id="Path_45016" data-name="Path 45016" d="M352.035,156.676l-1.776,7.665H309.139l-1.488-7.665Z" transform="translate(-91.949 -128.381)" fill="#60bbea" fill-rule="evenodd" opacity="0.2" style="mix-blend-mode: multiply;isolation: isolate"/>
        </g>
        <path id="Path_45017" data-name="Path 45017" d="M178.721,120.8v14.881h315.65l.7-16.773Z" transform="translate(0 0)" fill="#60bbea" fill-rule="evenodd" opacity="0.2" style="mix-blend-mode: multiply;isolation: isolate"/>
        <g id="Group_13213" data-name="Group 13213" transform="translate(205.351 200.353)">
          <g id="Group_13212" data-name="Group 13212" opacity="0.2" style="mix-blend-mode: multiply;isolation: isolate">
            <rect id="Rectangle_4691" data-name="Rectangle 4691" width="129.169" height="2.935" transform="translate(31.936 28.771)" fill="#007bbe"/>
            <rect id="Rectangle_4692" data-name="Rectangle 4692" width="74.658" height="2.935" transform="translate(31.936 14.968)" fill="#007bbe"/>
            <g id="Group_13211" data-name="Group 13211" transform="translate(31.936 21.782)">
              <rect id="Rectangle_4693" data-name="Rectangle 4693" width="74.658" height="2.935" transform="translate(0 0.176)" fill="#007bbe"/>
              <rect id="Rectangle_4694" data-name="Rectangle 4694" width="13.717" height="2.935" transform="translate(81.499)" fill="#007bbe"/>
            </g>
            <rect id="Rectangle_4695" data-name="Rectangle 4695" width="26.981" height="2.935" fill="#60bbea"/>
          </g>
          <rect id="Rectangle_4696" data-name="Rectangle 4696" width="92.644" height="5.159" transform="translate(0 6.315)" fill="#60bbea"/>
          <rect id="Rectangle_4763" data-name="Rectangle 4763" width="92.644" height="5.159" transform="translate(7.183 -27.455)" fill="#60bbea"/>
          <path id="Path_45323" data-name="Path 45323" d="M0,0H28.427V16.738H0Z" transform="translate(0 14.968)" fill="#60bbea" opacity="0.996" style="mix-blend-mode: multiply;isolation: isolate"/>
          <path id="Path_45033" data-name="Path 45033" d="M202.8,172.46v7.772l4.668-3.87Z" transform="translate(-190.336 -153.386)" fill="#fff"/>
        </g>
        <g id="Group_13216" data-name="Group 13216" transform="translate(205.351 253.514)">
          <g id="Group_13215" data-name="Group 13215" opacity="0.2" style="mix-blend-mode: multiply;isolation: isolate">
            <rect id="Rectangle_4698" data-name="Rectangle 4698" width="161.105" height="2.935" transform="translate(0 28.771)" fill="#60bbea"/>
            <rect id="Rectangle_4699" data-name="Rectangle 4699" width="106.594" height="2.935" transform="translate(0 14.968)" fill="#60bbea"/>
            <g id="Group_13214" data-name="Group 13214" transform="translate(0 21.782)">
              <rect id="Rectangle_4700" data-name="Rectangle 4700" width="106.594" height="2.935" transform="translate(0 0.176)" fill="#60bbea"/>
              <rect id="Rectangle_4701" data-name="Rectangle 4701" width="13.717" height="2.935" transform="translate(113.435)" fill="#60bbea"/>
            </g>
            <rect id="Rectangle_4702" data-name="Rectangle 4702" width="26.981" height="2.935" fill="#60bbea"/>
          </g>
          <rect id="Rectangle_4703" data-name="Rectangle 4703" width="92.644" height="5.159" transform="translate(0 6.315)" fill="#60bbea"/>
        </g>
        <rect id="Rectangle_4704" data-name="Rectangle 4704" width="26.981" height="2.935" transform="translate(204.451 142.341)" fill="#0075be"/>
        <rect id="Rectangle_4705" data-name="Rectangle 4705" width="20.427" height="0.968" transform="translate(207.727 147.248)" fill="#0075be"/>
        <rect id="Rectangle_4706" data-name="Rectangle 4706" width="26.981" height="2.935" transform="translate(248.635 142.341)" fill="#60bbea" opacity="0.2" style="mix-blend-mode: multiply;isolation: isolate"/>
        <rect id="Rectangle_4707" data-name="Rectangle 4707" width="26.981" height="2.935" transform="translate(289.751 142.341)" fill="#60bbea" opacity="0.2" style="mix-blend-mode: multiply;isolation: isolate"/>
        <rect id="Rectangle_4708" data-name="Rectangle 4708" width="26.981" height="2.935" transform="translate(330.867 142.341)" fill="#60bbea" opacity="0.2" style="mix-blend-mode: multiply;isolation: isolate"/>
        <rect id="Rectangle_4709" data-name="Rectangle 4709" width="26.981" height="2.935" transform="translate(371.983 142.341)" fill="#60bbea" opacity="0.2" style="mix-blend-mode: multiply;isolation: isolate"/>
        <g id="Group_13217" data-name="Group 13217" transform="translate(479.638 122.853)" opacity="0.2" style="mix-blend-mode: multiply;isolation: isolate">
          <path id="Path_45034" data-name="Path 45034" d="M345.065,123.337l2-2,6.722,7.879-1,1Z" transform="translate(-345.065 -121.337)" fill="#401734"/>
          <path id="Path_45035" data-name="Path 45035" d="M352.2,121.337l2,2-7.879,6.722-1-1Z" transform="translate(-344.903 -121.337)" fill="#401734"/>
        </g>
        <g id="Group_13219" data-name="Group 13219" transform="translate(422.7 218.864)">
          <path id="Path_45036" data-name="Path 45036" d="M322.3,210.133l-11.479-39.927,38.562,18.612-18.449,7.01Z" transform="translate(-309.482 -168.616)" fill="#fff"/>
          <g id="Group_13218" data-name="Group 13218">
            <path id="Path_45037" data-name="Path 45037" d="M322.54,212.85,310,169.227l42.053,20.3-20.023,7.607Zm-9.86-40.442,10.417,36.23,7.779-12.889,16.88-6.413Z" transform="translate(-309.997 -169.227)" fill="#006da5"/>
          </g>
          <path id="Path_45038" data-name="Path 45038" d="M310.824,170.206l20.114,25.622-8.635,14.3Z" transform="translate(-309.482 -168.616)" fill="#60bbea" opacity="0.5" style="mix-blend-mode: multiply;isolation: isolate"/>
          <path id="Path_45039" data-name="Path 45039" d="M347.038,181.813l-1.492,5.086-12.008,9.573-10.9,9.586-4.906-1.285,8.9-16.184Z" transform="translate(-305.174 -161.377)" fill="#006da5"/>
        </g>
        <g id="Group_13220" data-name="Group 13220" transform="translate(478.596 139.771)" opacity="0.2" style="mix-blend-mode: multiply;isolation: isolate">
          <path id="Path_45040" data-name="Path 45040" d="M351.215,138.75l.969-1.331-.844-.46a3.072,3.072,0,0,0,.219-.961l.938-.062-.255-1.627-.922.273a3.085,3.085,0,0,0-.524-.835l.62-.708-1.331-.969-.458.844a3.081,3.081,0,0,0-.963-.219l-.06-.938-1.627.255.273.922a3.031,3.031,0,0,0-.836.524l-.706-.62-.969,1.331.843.458a3.084,3.084,0,0,0-.219.963l-.938.06.257,1.627L345.6,137a3.106,3.106,0,0,0,.524.836l-.62.706,1.331.969.459-.843a3.072,3.072,0,0,0,.961.219l.062.938,1.627-.257-.273-.921a3.127,3.127,0,0,0,.835-.524Zm-3.689-1.612a1.637,1.637,0,1,1,2.28-.409A1.636,1.636,0,0,1,347.526,137.138Z" transform="translate(-344.423 -131.757)" fill="#6d1748" fill-rule="evenodd"/>
        </g>
        <line id="Line_22" data-name="Line 22" y2="18.024" transform="translate(308.528 166.596)" fill="none" stroke="#60bbea" stroke-width="0.3"/>
      </g>
      <g id="Group_13128" data-name="Group 13128" transform="translate(26.861 41.058)">
        <g id="Group_13100" data-name="Group 13100" transform="translate(288.154 172.559)">
          <path id="Path_44825" data-name="Path 44825" d="M279.984,212.789l-6.58-6.58,2.451-2.843a20.627,20.627,0,0,1-2.43-5.857l-3.741-.277v-9.305l3.741-.277a20.638,20.638,0,0,1,2.43-5.858L273.4,178.95l6.58-6.58,2.843,2.45a20.691,20.691,0,0,1,5.858-2.43l.276-3.739h9.305l.279,3.739a20.7,20.7,0,0,1,5.857,2.43l2.841-2.45,6.58,6.58-2.448,2.841a20.743,20.743,0,0,1,2.43,5.858l3.737.277v9.305l-3.737.277a20.732,20.732,0,0,1-2.43,5.857l2.448,2.843-6.58,6.58-2.841-2.45a20.643,20.643,0,0,1-5.857,2.428l-.279,3.741h-9.305l-.276-3.741a20.611,20.611,0,0,1-5.858-2.428Zm17.711-13.169a7.946,7.946,0,0,0,2.961-2.961,8.145,8.145,0,0,0-12.8-9.84,8.142,8.142,0,0,0,9.84,12.8Z" transform="translate(-244.051 -183.753)" fill="#2492d1"/>
          <path id="Path_44826" data-name="Path 44826" d="M259.227,187.493l-1.947-4.5,1.755-.917a10.772,10.772,0,0,1-.053-3.342l-1.781-.863,1.808-4.562,1.888.593a10.851,10.851,0,0,1,2.328-2.4l-.647-1.869,4.5-1.947.918,1.753a10.9,10.9,0,0,1,3.344-.053l.863-1.779,4.56,1.808-.591,1.888a10.851,10.851,0,0,1,2.4,2.328l1.869-.649,1.947,4.5-1.753.917a10.943,10.943,0,0,1,.053,3.342l1.779.863-1.808,4.562-1.886-.591a10.937,10.937,0,0,1-2.33,2.4l.649,1.869-4.506,1.946-.914-1.753a10.91,10.91,0,0,1-3.345.054l-.863,1.779-4.558-1.81.589-1.886a10.856,10.856,0,0,1-2.4-2.33Zm11.24-3.014a4.289,4.289,0,0,0,3.612-4.876,4.367,4.367,0,0,0-.3-1.072,4.327,4.327,0,0,0-4.575-2.54,4.379,4.379,0,0,0-1.073.3,4.316,4.316,0,0,0-2.538,4.575,4.192,4.192,0,0,0,.3,1.072,4.381,4.381,0,0,0,.573.956A4.3,4.3,0,0,0,270.467,184.479Z" transform="translate(-257.202 -167.604)" fill="#fff" opacity="0.4"/>
        </g>
        <g id="Group_13101" data-name="Group 13101" transform="translate(229.579 162.085)">
          <path id="Path_44827" data-name="Path 44827" d="M344.346,167.872a3.023,3.023,0,1,1,3.024-3.023A3.022,3.022,0,0,1,344.346,167.872Z" transform="translate(-130.222 -161.827)" fill="#fff" opacity="0.4"/>
          <path id="Path_44828" data-name="Path 44828" d="M230.772,252.224a4.707,4.707,0,1,1,4.705-4.707A4.712,4.712,0,0,1,230.772,252.224Zm0-7.6a2.894,2.894,0,1,0,2.892,2.894A2.9,2.9,0,0,0,230.772,244.623Z" transform="translate(-223.947 -95.973)" fill="#46cccc" opacity="0.4"/>
          <path id="Path_44829" data-name="Path 44829" d="M340.72,172.778v-1.71h1.712a1.4,1.4,0,0,0,0-2.8H340.72v-1.71a1.4,1.4,0,1,0-2.8,0v1.71h-1.708a1.4,1.4,0,1,0,0,2.8h1.708v1.71a1.4,1.4,0,0,0,2.8,0Z" transform="translate(-135.514 -159.116)" fill="#fff" opacity="0.4"/>
          <path id="Path_44830" data-name="Path 44830" d="M226.409,240.095a1.511,1.511,0,1,1,1.51-1.512A1.511,1.511,0,0,1,226.409,240.095Z" transform="translate(-224.897 -100.639)" fill="#48cc90" opacity="0.4"/>
        </g>
        <g id="Group_13116" data-name="Group 13116" transform="translate(247.386 368.489)">
          <path id="Path_44871" data-name="Path 44871" d="M235.735,286.864l3.706,19.064a2.885,2.885,0,0,0,3.4,2.29l39.788-7.733a2.887,2.887,0,0,0,2.292-3.4l-3.706-19.064a2.9,2.9,0,0,0-3.4-2.308l-39.788,7.735A2.9,2.9,0,0,0,235.735,286.864Z" transform="translate(-233.935 -275.662)" fill="#ffc550"/>
          <path id="Path_44872" data-name="Path 44872" d="M235.733,286.846l.2,1.034,21.715,8.39a6.5,6.5,0,0,0,6.787-1.318l16.975-15.911-.2-1.017a2.914,2.914,0,0,0-3.416-2.3l-39.772,7.731A2.9,2.9,0,0,0,235.733,286.846Z" transform="translate(-233.936 -275.661)" fill="#ffe1ab"/>
          <path id="Path_44873" data-name="Path 44873" d="M234.852,297.989a7.246,7.246,0,1,0,5.73-8.495A7.245,7.245,0,0,0,234.852,297.989Z" transform="translate(-234.718 -264.524)" fill="#a3dfff"/>
        </g>
        <g id="Group_13117" data-name="Group 13117" transform="translate(322.529 402.887)">
          <path id="Path_44874" data-name="Path 44874" d="M304.748,323.221,292.9,335.065l-11.842-11.844a16.747,16.747,0,1,1,23.686,0Z" transform="translate(-276.16 -294.634)" fill="#fff"/>
          <path id="Path_44875" data-name="Path 44875" d="M292.028,310.5a5.739,5.739,0,1,1,0-8.114A5.736,5.736,0,0,1,292.028,310.5Z" transform="translate(-271.224 -289.697)" fill="#007bbe"/>
        </g>
        <g id="Group_10814" data-name="Group 10814" transform="translate(253.936 236.445)">
          <path id="Path_5939" data-name="Path 5939" d="M29.926,55.9s-14.4-7.3-25.594-13.216A8.534,8.534,0,0,1,1.36,30.607l20.7-27.29a8.113,8.113,0,0,1,11.667-1.49h0a9.076,9.076,0,0,1,.713,13.283L18.062,31.737a1.781,1.781,0,0,0,.31,2.736L34.505,48.382Z" transform="translate(0 42.375)" fill="#ffbb2f"/>
          <path id="Path_5940" data-name="Path 5940" d="M18.9,7.883c-.61.683-1.2,1.382-1.826,2-2.941,2.878-7,4.132-10.25,6.618C3.99,18.666-3.763,28.05,2.194,30.858c1.093.515,2.321.661,3.4,1.209A22.537,22.537,0,0,1,9.113,34.94c1.632,1.307,3.641,2.066,5.146,3.531a35.4,35.4,0,0,1,2.6,3.288c1.844,2.283,5.612,4.374,8.48,4.433l2.326-3.819L11.53,28.464a1.781,1.781,0,0,1-.311-2.736L27.593,9.1A9.08,9.08,0,0,0,29.7,0a37.948,37.948,0,0,0-3.955,3.237,6.293,6.293,0,0,1-3.1,1.757A9.283,9.283,0,0,0,18.9,7.883Z" transform="translate(6.842 48.385)" fill="#a8daf7" opacity="0.1"/>
          <path id="Path_5941" data-name="Path 5941" d="M14.695,2.226S11.589,7.274,16.617,13.45l-1.762,8.271L0,18.235S5.087,7.489,5.209,0Z" transform="translate(5.483 204.634)" fill="#ffcebd"/>
          <path id="Path_5942" data-name="Path 5942" d="M16.984,2.1s3.1,7.273,7.154,9.534c0,0,1.6.93,3.562,1.952,1.375.716,2.927.085,4.227.6a2.537,2.537,0,0,1,1.5,2.9l-.189.885L26.9,17.874,0,11.559,3.595,0,4.78.383S13.126,14.878,16.984,2.1Z" transform="translate(4.208 214.105)" fill="#4d5068"/>
          <path id="Path_5943" data-name="Path 5943" d="M32.939,9.528l-4.317.38L1.7,3.59A2.288,2.288,0,0,1,.053.862h0A1.049,1.049,0,0,1,1.343.036L29.769,7.819l3.209-.224c.664-.145,1.191.015,1.686-.394l.467-.2-.265,1.244A1.615,1.615,0,0,1,32.939,9.528Z" transform="translate(2.911 224.252)" fill="#fff"/>
          <path id="Path_5944" data-name="Path 5944" d="M33.625,4.531,24.613,58.873,10.367,98.761,0,96.328A179.939,179.939,0,0,0,5.608,72.16C7.527,60.2,11.08,57.2,10.625,55.485,8.56,47.694,8.942,26.859,8.942,26.859a40.214,40.214,0,0,0-.624-5.974l-.96-5.308L5.166,0Z" transform="translate(9.852 109.698)" fill="#293d6c"/>
          <path id="Path_5945" data-name="Path 5945" d="M.406.905,2.455,15.458l.96,5.308a40.215,40.215,0,0,1,.624,5.974s-.115,6.315.125,13.291A72.477,72.477,0,0,1,8.41,48.048,42.178,42.178,0,0,1,4.163,88.306C2.732,90.3,1.084,92.218.391,94.6A10.737,10.737,0,0,0,0,97.359l5.463,1.282L19.709,58.754,28.721,4.412,1.012,0C.807.3.6.6.406.905Z" transform="translate(14.756 109.818)" fill="#293d6c" opacity="0.4"/>
          <path id="Path_5946" data-name="Path 5946" d="M11.011,0s-1.982,5.637,4.21,10.512v8.476H0S3.062,6.871,1.439,0Z" transform="translate(20.477 209.866)" fill="#ffcebd"/>
          <path id="Path_5947" data-name="Path 5947" d="M14.607,0s4.537,6.387,8.964,7.665a74.4,74.4,0,0,0,8.422,2.068,2.475,2.475,0,0,1,2.063,2.483v.907H0l1.1-12.1,1.237.1S13.5,13.355,14.607,0Z" transform="translate(19.813 218.751)" fill="#4d5068"/>
          <path id="Path_5948" data-name="Path 5948" d="M34.185,3.386H2.176A2.232,2.232,0,0,1,0,1.1H0A1.075,1.075,0,0,1,1.088,0L33.793,1.208A1.68,1.68,0,0,0,35.385.72l.415-.3V1.692A1.655,1.655,0,0,1,34.185,3.386Z" transform="translate(18.485 230.52)" fill="#fff"/>
          <path id="Path_5949" data-name="Path 5949" d="M2,0a24.445,24.445,0,0,0,1.183,21.73A25.614,25.614,0,0,1,6.25,32.306c.649,8.443.268,17.517,2.164,30.175,0,0-1.96,8.6-1.665,14.324.485,9.412-.327,14.246-2.119,26.557H15.7l8.43-41.438a12.579,12.579,0,0,0,.331-1.7c.567-4.579,4.761-32.117,7.29-47.215,1-5.95.8-5.28.57-7.9Z" transform="translate(16.489 109.698)" fill="#223257"/>
          <path id="Path_5950" data-name="Path 5950" d="M22.605,60.016C23.172,55.437,27.367,27.9,29.9,12.8c1-5.95.8-5.28.57-7.9L1.362,0A12.123,12.123,0,0,0,.646,1.644C-.971,6.376.667,11.685,3.14,15.99s5.771,8.075,7.925,12.566c3.586,7.478,3.675,16.2,3.688,24.573.014,9.192.016,18.5-2.114,27.412-.976,4.088-2.4,8.092-2.75,12.291a32.413,32.413,0,0,0,.991,10.325h2.964l8.43-41.438A12.574,12.574,0,0,0,22.605,60.016Z" transform="translate(18.341 109.903)" fill="#4d5068" opacity="0.4"/>
          <path id="Path_5951" data-name="Path 5951" d="M18.562,3.03s-5.648,3.908-3.377,14.192C16.107,21.4,0,10.868,0,10.868S2.206,6.113,1.4,3.637L13.511,0Z" transform="translate(24.93 22.3)" fill="#ffcebd"/>
          <path id="Path_5952" data-name="Path 5952" d="M15.3,3.03A10.253,10.253,0,0,0,11.879,8.65l-2.767-2L0,2.337,10.245,0Z" transform="translate(28.196 22.3)" fill="#a58877" opacity="0.4"/>
          <path id="Path_5953" data-name="Path 5953" d="M16.844.005s3.275.891,3.9,2.342l.979,2.284a16.55,16.55,0,0,1,1.318,5.853l0,.039,3.248,7a.926.926,0,0,1-.531,1.33l-1.529.27.475,7.138a2.815,2.815,0,0,1-4.3,2.765L14.3,25.8,3.029,24.412S3.335,18.346.851,16.09C.851,16.09-5.565-.34,16.844.005Z" transform="translate(23.303 1.524)" fill="#ffcebd"/>
          <path id="Path_5954" data-name="Path 5954" d="M.372,6.731a4.806,4.806,0,0,1,.669-1.424c1.928-2.733,5.6-1.968,8.353-2.535C12,2.236,14.42.988,17,.355s5.559-.541,7.551,1.293a3.189,3.189,0,0,1,.838,3.506,7.749,7.749,0,0,1-1.266,1.961,6.46,6.46,0,0,1-.95,1.026,6.154,6.154,0,0,1-1.283.733c-1.152.541-4.719,1.051-5.277,2.35-.671,1.563,1.5,4.805,1.767,6.434.368,2.229.6,4.491.9,6.731a1.447,1.447,0,0,0,.222.7c.313.407.916.323,1.4.2q.235-1.3.555-2.588a3.121,3.121,0,0,1,1.026-1.917,2.64,2.64,0,0,1,3.79,1.033,5.587,5.587,0,0,1,.329,2.146q.062,2.856.123,5.711a3.677,3.677,0,0,1-.541,2.478,3.276,3.276,0,0,1-2.542.81c-1.615.037-3.172-.923-4.719-1.507a15.76,15.76,0,0,1-3.83-2.239,7.365,7.365,0,0,1-2.289-2.442,3.127,3.127,0,0,1,.135-3.255c.826-1.04,2.512-1.274,2.956-2.68.407-1.288-.308-3.022-.977-4.055a2.584,2.584,0,0,0-1.8-1.411,1.761,1.761,0,0,0-1.5.908c-.977,1.584-.86,4.167-1.1,5.97-.238,1.78-.719,3.439-2.383,4.08-1.4.54-3.326.894-4.7.044-1.307-.81-1.577-2.96-1.967-4.426A43.642,43.642,0,0,1,.016,9.546,11.169,11.169,0,0,1,.372,6.731Z" transform="translate(22.321 0)" fill="#4d5068"/>
          <path id="Path_5955" data-name="Path 5955" d="M37.5,84.578l.567-54.036h0c-.7-19.184-10.6-26.714-17.689-29.65A11.64,11.64,0,0,0,7.939,3.159C4.613,6.246.955,10.768,1.049,15.669c.111,5.806,3.868,21.854,3.267,29.78C3.369,57.921,0,83.556,0,83.556,6.435,91.494,18.958,77.756,37.5,84.578Z" transform="translate(13.04 34.309)" fill="#f5a80b"/>
          <path id="Path_5956" data-name="Path 5956" d="M2.838,77.007C1.052,79.119.511,82.055.084,84.843c-.029.188-.056.378-.084.568,6.8-1.571,15.8-4.963,27.017-.837l.567-54.036c-.7-19.184-10.6-26.714-17.689-29.65A11.612,11.612,0,0,0,3.21.217C1.3,4.242.354,8.642,1.87,12.725a24.584,24.584,0,0,0,3.637,5.9,40.769,40.769,0,0,1,6.392,11.4c1.369,4.19,1.582,8.946-.2,12.961-1.386,3.121-3.919,5.729-4.512,9.114-.576,3.287.8,6.554,1.849,9.709s1.735,6.874-.017,9.664C7.519,73.854,4.646,74.87,2.838,77.007Z" transform="translate(23.519 34.313)" fill="#f5a80b" opacity="0.1"/>
          <path id="Path_5957" data-name="Path 5957" d="M14.3,18.532,28.678,36.161a1.557,1.557,0,0,0,2.544-.153L47.388,18.118l-.378-2.643a5.537,5.537,0,0,1,1.1-4.19L51.2,7.339,60.98,0V.539a5.358,5.358,0,0,1-1.514,3.754l-3.732,3.8,2.333,4.9a7.667,7.667,0,0,1,.44,5.4h0a2.859,2.859,0,0,1-1.642,1.867L53.588,21.6s-9.5,18.131-15.622,29.163a7.485,7.485,0,0,1-11.321,2.3L2.687,30.415A8.831,8.831,0,0,1,2,18.469H2A7.881,7.881,0,0,1,14.3,18.532Z" transform="translate(23.238 28.916)" fill="#ffcebd"/>
          <path id="Path_5958" data-name="Path 5958" d="M.538,1.4a24.72,24.72,0,0,1,19.44,1.3,1.3,1.3,0,0,1,.692,1.227l-.323,7.2S8.678,2.872,1.611,4.769a.791.791,0,0,1-.935-.528L.053,2.5A.86.86,0,0,1,.538,1.4Z" transform="translate(21.822 31.25)" fill="#ffc550"/>
          <path id="Path_5959" data-name="Path 5959" d="M56.858,7.332A2.858,2.858,0,0,0,58.5,5.466a7.669,7.669,0,0,0-.44-5.4L58.03,0a27.267,27.267,0,0,0-4.664,6.538A18.344,18.344,0,0,1,51.122,10.4a33.613,33.613,0,0,1-3.253,2.754c-3.786,3.364-4.945,9.088-8.491,12.727-2.924,3-7.5,4.693-8.648,8.811C25.318,30.8,19.788,26.789,16,21.167c-2.216-3.291-3.836-7.131-6.79-9.706A14.522,14.522,0,0,0,.544,8.088a8.818,8.818,0,0,0,2.136,9.4L26.637,40.146a7.484,7.484,0,0,0,11.321-2.3C44.079,26.81,53.581,8.678,53.581,8.678Z" transform="translate(23.238 41.974)" fill="#a58877" opacity="0.4"/>
          <path id="Path_5960" data-name="Path 5960" d="M53.261,10.293s-7.826,14.633-14.134,26A7.713,7.713,0,0,1,27.459,38.67L2.77,15.322a9.1,9.1,0,0,1-.7-12.312h0a8.122,8.122,0,0,1,12.676.065L29.555,21.244a1.6,1.6,0,0,0,2.622-.158L46.391,5.037Z" transform="translate(22.279 43.399)" fill="#ffb92b"/>
          <path id="Path_5961" data-name="Path 5961" d="M51.765,2.686c-.9.907-1.984,1.593-2.938,2.441-3.786,3.363-4.944,9.088-8.491,12.727-2.924,3-7.5,4.693-8.649,8.811-5.412-3.892-10.942-7.9-14.728-13.527-2.216-3.291-3.836-7.131-6.791-9.706A15.087,15.087,0,0,0,.3,0,9.066,9.066,0,0,0,2.762,8.853L27.451,32.2a7.713,7.713,0,0,0,11.668-2.375c6.308-11.369,14.134-26,14.134-26Z" transform="translate(22.287 49.869)" fill="#f5a80b" opacity="0.2"/>
        </g>
      </g>
      <g id="Group_13115" data-name="Group 13115" transform="translate(623.559 435.33)">
        <path id="Path_44863" data-name="Path 44863" d="M438.141,300.813,426.594,329.4a3.02,3.02,0,0,1-3.935,1.672l-39.174-15.822a3.021,3.021,0,0,1-1.672-3.935l11.546-28.59a3.018,3.018,0,0,1,3.935-1.67l39.176,15.822A3.017,3.017,0,0,1,438.141,300.813Z" transform="translate(-381.593 -276.24)" fill="#abb2b7" opacity="0.5" style="mix-blend-mode: multiply;isolation: isolate"/>
        <path id="Path_44864" data-name="Path 44864" d="M438.977,297.964l-10,29.167a3.024,3.024,0,0,1-3.84,1.88l-39.964-13.7a3.021,3.021,0,0,1-1.878-3.84l10-29.167a3.02,3.02,0,0,1,3.84-1.879l39.966,13.7A3.023,3.023,0,0,1,438.977,297.964Z" transform="translate(-380.345 -276.709)" fill="#cad3db" opacity="0.5" style="mix-blend-mode: multiply;isolation: isolate"/>
        <path id="Path_44865" data-name="Path 44865" d="M440.189,294.25l-8.123,29.743a3.021,3.021,0,0,1-3.712,2.12L387.6,314.982a3.02,3.02,0,0,1-2.12-3.712l8.123-29.745a3.021,3.021,0,0,1,3.712-2.12l40.757,11.131A3.021,3.021,0,0,1,440.189,294.25Z" transform="translate(-378.521 -277.49)" fill="#edf4fc"/>
        <path id="Path_44866" data-name="Path 44866" d="M437.306,294.25l-1.8,6.6-46.588-12.723,1.8-6.6a3.021,3.021,0,0,1,3.712-2.12l40.757,11.131A3.021,3.021,0,0,1,437.306,294.25Z" transform="translate(-375.638 -277.49)" fill="#6fc9fa"/>
        <rect id="Rectangle_4645" data-name="Rectangle 4645" width="48.294" height="2.225" transform="translate(13.278 10.635) rotate(15.274)" fill="#fff"/>
        <path id="Path_44867" data-name="Path 44867" d="M400.956,285.09a3.616,3.616,0,1,1-2.537-4.44A3.619,3.619,0,0,1,400.956,285.09Z" transform="translate(-371.626 -276.495)" fill="#32a066"/>
        <path id="Path_44868" data-name="Path 44868" d="M414.591,288.816a3.615,3.615,0,1,1-2.535-4.442A3.615,3.615,0,0,1,414.591,288.816Z" transform="translate(-360.537 -273.466)" fill="#32a066"/>
        <g id="Group_13114" data-name="Group 13114" transform="translate(23.369)">
          <g id="Group_13113" data-name="Group 13113">
            <path id="Path_44869" data-name="Path 44869" d="M396.956,288.415a2.471,2.471,0,0,1-2.386-3.122l1.411-5.166a2.471,2.471,0,1,1,4.769,1.3l-1.411,5.168A2.472,2.472,0,0,1,396.956,288.415Z" transform="translate(-394.481 -278.301)" fill="#ffc550"/>
            <path id="Path_44870" data-name="Path 44870" d="M410.592,292.14a2.464,2.464,0,0,1-2.386-3.122l1.412-5.169a2.472,2.472,0,1,1,4.769,1.3l-1.411,5.169A2.472,2.472,0,0,1,410.592,292.14Z" transform="translate(-383.393 -275.272)" fill="#ffc550"/>
          </g>
        </g>
        <rect id="Rectangle_4646" data-name="Rectangle 4646" width="4.698" height="3.989" transform="translate(17.059 17.943) rotate(15.272)" fill="#a2deff"/>
        <rect id="Rectangle_4647" data-name="Rectangle 4647" width="4.698" height="3.989" transform="translate(48.363 26.492) rotate(15.278)" fill="#a2deff"/>
        <rect id="Rectangle_4648" data-name="Rectangle 4648" width="4.698" height="3.989" transform="translate(40.537 24.355) rotate(15.272)" fill="#a2deff"/>
        <rect id="Rectangle_4649" data-name="Rectangle 4649" width="4.699" height="3.989" transform="translate(32.71 22.217) rotate(15.272)" fill="#a2deff"/>
        <rect id="Rectangle_4650" data-name="Rectangle 4650" width="4.699" height="3.988" transform="translate(24.885 20.08) rotate(15.272)" fill="#a2deff"/>
        <rect id="Rectangle_4651" data-name="Rectangle 4651" width="4.699" height="3.991" transform="translate(15.351 24.197) rotate(15.272)" fill="#a2deff"/>
        <rect id="Rectangle_4652" data-name="Rectangle 4652" width="4.698" height="3.99" transform="translate(46.655 32.746) rotate(15.272)" fill="#a2deff"/>
        <rect id="Rectangle_4653" data-name="Rectangle 4653" width="4.699" height="3.991" transform="translate(38.828 30.608) rotate(15.272)" fill="#a2deff"/>
        <rect id="Rectangle_4654" data-name="Rectangle 4654" width="4.698" height="3.99" transform="translate(31.003 28.471) rotate(15.278)" fill="#a2deff"/>
        <rect id="Rectangle_4655" data-name="Rectangle 4655" width="4.698" height="3.99" transform="translate(23.177 26.334) rotate(15.272)" fill="#a2deff"/>
        <rect id="Rectangle_4656" data-name="Rectangle 4656" width="4.698" height="3.99" transform="translate(13.643 30.451) rotate(15.278)" fill="#a2deff"/>
        <rect id="Rectangle_4657" data-name="Rectangle 4657" width="4.699" height="3.99" transform="translate(44.946 39) rotate(15.272)" fill="#a2deff"/>
        <rect id="Rectangle_4658" data-name="Rectangle 4658" width="4.698" height="3.99" transform="translate(37.121 36.863) rotate(15.277)" fill="#a2deff"/>
        <rect id="Rectangle_4659" data-name="Rectangle 4659" width="4.699" height="3.991" transform="translate(29.295 34.725) rotate(15.272)" fill="#a2deff"/>
        <rect id="Rectangle_4660" data-name="Rectangle 4660" width="4.699" height="3.991" transform="translate(21.469 32.588) rotate(15.272)" fill="#a2deff"/>
      </g>
      <g id="Group_13116-2" data-name="Group 13116" transform="translate(466.248 465.547)">
        <path id="Path_44871-2" data-name="Path 44871" d="M235.735,286.864l3.706,19.064a2.885,2.885,0,0,0,3.4,2.29l39.788-7.733a2.887,2.887,0,0,0,2.292-3.4l-3.706-19.064a2.9,2.9,0,0,0-3.4-2.308l-39.788,7.735A2.9,2.9,0,0,0,235.735,286.864Z" transform="translate(-233.935 -275.662)" fill="#ffc550"/>
        <path id="Path_44872-2" data-name="Path 44872" d="M235.733,286.846l.2,1.034,21.715,8.39a6.5,6.5,0,0,0,6.787-1.318l16.975-15.911-.2-1.017a2.914,2.914,0,0,0-3.416-2.3l-39.772,7.731A2.9,2.9,0,0,0,235.733,286.846Z" transform="translate(-233.936 -275.661)" fill="#ffe1ab"/>
        <path id="Path_44873-2" data-name="Path 44873" d="M234.852,297.989a7.246,7.246,0,1,0,5.73-8.495A7.245,7.245,0,0,0,234.852,297.989Z" transform="translate(-234.718 -264.524)" fill="#a3dfff"/>
      </g>
      <g id="Group_13117-2" data-name="Group 13117" transform="translate(432.39 464.945)">
        <path id="Path_44874-2" data-name="Path 44874" d="M304.748,323.221,292.9,335.065l-11.842-11.844a16.747,16.747,0,1,1,23.686,0Z" transform="translate(-276.16 -294.634)" fill="#fff"/>
        <path id="Path_44875-2" data-name="Path 44875" d="M292.028,310.5a5.739,5.739,0,1,1,0-8.114A5.736,5.736,0,0,1,292.028,310.5Z" transform="translate(-271.224 -289.697)" fill="#007bbe"/>
      </g>
    </g>
  </g>
</svg>
