<svg id="seo2" xmlns="http://www.w3.org/2000/svg" xmlns:xlink="http://www.w3.org/1999/xlink" width="694.747" height="487.164" viewBox="0 0 694.747 487.164">
  <defs>
    <filter id="Ellipse_615" x="3.107" y="65.024" width="217.14" height="217.14" filterUnits="userSpaceOnUse">
      <feOffset dy="16" input="SourceAlpha"/>
      <feGaussianBlur stdDeviation="13.5" result="blur"/>
      <feFlood flood-color="#9d9faf"/>
      <feComposite operator="in" in2="blur"/>
      <feComposite in="SourceGraphic"/>
    </filter>
    <filter id="Ellipse_615-2" x="68.107" y="206.024" width="217.14" height="217.14" filterUnits="userSpaceOnUse">
      <feOffset dy="16" input="SourceAlpha"/>
      <feGaussianBlur stdDeviation="13.5" result="blur-2"/>
      <feFlood flood-opacity="0.161"/>
      <feComposite operator="in" in2="blur-2"/>
      <feComposite in="SourceGraphic"/>
    </filter>
    <filter id="Ellipse_615-3" x="234.107" y="173.024" width="217.14" height="217.14" filterUnits="userSpaceOnUse">
      <feOffset dy="13" input="SourceAlpha"/>
      <feGaussianBlur stdDeviation="13.5" result="blur-3"/>
      <feFlood flood-color="#e5a390"/>
      <feComposite operator="in" in2="blur-3"/>
      <feComposite in="SourceGraphic"/>
    </filter>
    <filter id="Path_45388" x="346.926" y="265.843" width="221.321" height="221.321" filterUnits="userSpaceOnUse">
      <feOffset dy="13" input="SourceAlpha"/>
      <feGaussianBlur stdDeviation="13.5" result="blur-4"/>
      <feFlood flood-color="#ffd5a3"/>
      <feComposite operator="in" in2="blur-4"/>
      <feComposite in="SourceGraphic"/>
    </filter>
    <filter id="Ellipse_615-4" x="468.607" y="161.524" width="214.14" height="214.14" filterUnits="userSpaceOnUse">
      <feOffset dy="11" input="SourceAlpha"/>
      <feGaussianBlur stdDeviation="13" result="blur-5"/>
      <feFlood flood-color="#dfeaa6"/>
      <feComposite operator="in" in2="blur-5"/>
      <feComposite in="SourceGraphic"/>
    </filter>
  </defs>
  <g id="Group_13509" data-name="Group 13509" transform="translate(3.362 -114.854)">
    <g id="Background_Complete" data-name="Background Complete" transform="translate(-62 44)">
      <g id="Group_13329" data-name="Group 13329">
        <rect id="Rectangle_4764" data-name="Rectangle 4764" width="56.698" height="77.587" transform="translate(234.846 113.999) rotate(-12.187)" fill="#f5f5f5"/>
      </g>
      <g id="Group_13338" data-name="Group 13338">
        <g id="Group_13330" data-name="Group 13330">
          <rect id="Rectangle_4765" data-name="Rectangle 4765" width="188.888" height="122.832" transform="translate(365.235 70.854)" fill="#f5f5f5"/>
        </g>
        <g id="Group_13333" data-name="Group 13333">
          <g id="Group_13331" data-name="Group 13331">
            <circle id="Ellipse_605" data-name="Ellipse 605" cx="25.703" cy="25.703" r="25.703" transform="matrix(0.232, -0.973, 0.973, 0.232, 428.709, 146.106)" fill="#e0e0e0"/>
          </g>
          <g id="Group_13332" data-name="Group 13332">
            <path id="Path_45325" data-name="Path 45325" d="M468.318,127.077l-6.712,3.875-6.712,3.875v-15.5l6.712,3.875Z" fill="#f5f5f5"/>
          </g>
        </g>
        <g id="Group_13334" data-name="Group 13334">
          <rect id="Rectangle_4766" data-name="Rectangle 4766" width="188.888" height="22.065" transform="translate(365.235 171.622)" fill="#e0e0e0"/>
        </g>
        <g id="Group_13335" data-name="Group 13335">
          <path id="Path_45326" data-name="Path 45326" d="M383.592,182.654l-2.724,1.573-2.724,1.573v-6.291l2.724,1.573Z" fill="#f5f5f5"/>
        </g>
        <g id="Group_13336" data-name="Group 13336">
          <rect id="Rectangle_4767" data-name="Rectangle 4767" width="139.33" height="1" transform="translate(399.248 182.154)" fill="#f5f5f5"/>
        </g>
        <g id="Group_13337" data-name="Group 13337">
          <path id="Path_45327" data-name="Path 45327" d="M402.069,182.654a2.077,2.077,0,1,1-2.077-2.076A2.077,2.077,0,0,1,402.069,182.654Z" fill="#f5f5f5"/>
        </g>
      </g>
      <g id="Group_13364" data-name="Group 13364">
        <g id="Group_13355" data-name="Group 13355">
          <g id="Group_13344" data-name="Group 13344">
            <g id="Group_13339" data-name="Group 13339">
              <rect id="Rectangle_4768" data-name="Rectangle 4768" width="193.381" height="174.277" rx="5.487" transform="translate(498.938 159.322)" fill="#f5f5f5"/>
            </g>
            <g id="Group_13340" data-name="Group 13340">
              <path id="Rectangle_4769" data-name="Rectangle 4769" d="M6.409,0H186.972a6.409,6.409,0,0,1,6.409,6.409v13.05a0,0,0,0,1,0,0H0a0,0,0,0,1,0,0V6.409A6.409,6.409,0,0,1,6.409,0Z" transform="translate(498.938 159.322)" fill="#ebebeb"/>
            </g>
            <g id="Group_13341" data-name="Group 13341">
              <circle id="Ellipse_606" data-name="Ellipse 606" cx="1.525" cy="1.525" r="1.525" transform="translate(509.212 167.559)" fill="#fafafa"/>
            </g>
            <g id="Group_13342" data-name="Group 13342">
              <path id="Path_45328" data-name="Path 45328" d="M521.416,169.084a1.526,1.526,0,1,1-1.526-1.525A1.526,1.526,0,0,1,521.416,169.084Z" fill="#fafafa"/>
            </g>
            <g id="Group_13343" data-name="Group 13343">
              <circle id="Ellipse_607" data-name="Ellipse 607" cx="1.525" cy="1.525" r="1.525" transform="translate(527.517 167.559)" fill="#fafafa"/>
            </g>
          </g>
          <g id="Group_13345" data-name="Group 13345">
            <rect id="Rectangle_4770" data-name="Rectangle 4770" width="73.022" height="2.643" transform="translate(596.044 194.469)" fill="#fafafa"/>
          </g>
          <g id="Group_13346" data-name="Group 13346">
            <rect id="Rectangle_4771" data-name="Rectangle 4771" width="73.022" height="2.643" transform="translate(596.044 205.345)" fill="#fafafa"/>
          </g>
          <g id="Group_13347" data-name="Group 13347">
            <rect id="Rectangle_4772" data-name="Rectangle 4772" width="73.022" height="2.643" transform="translate(596.044 216.22)" fill="#fafafa"/>
          </g>
          <g id="Group_13348" data-name="Group 13348">
            <rect id="Rectangle_4773" data-name="Rectangle 4773" width="73.022" height="2.643" transform="translate(596.044 227.096)" fill="#fafafa"/>
          </g>
          <g id="Group_13349" data-name="Group 13349">
            <rect id="Rectangle_4774" data-name="Rectangle 4774" width="36.511" height="2.643" transform="translate(596.044 237.971)" fill="#fafafa"/>
          </g>
          <g id="Group_13350" data-name="Group 13350">
            <rect id="Rectangle_4775" data-name="Rectangle 4775" width="73.021" height="2.643" transform="translate(591.507 262.006) rotate(180)" fill="#fafafa"/>
          </g>
          <g id="Group_13351" data-name="Group 13351">
            <rect id="Rectangle_4776" data-name="Rectangle 4776" width="73.021" height="2.643" transform="translate(591.507 272.881) rotate(180)" fill="#fafafa"/>
          </g>
          <g id="Group_13352" data-name="Group 13352">
            <rect id="Rectangle_4777" data-name="Rectangle 4777" width="73.021" height="2.643" transform="translate(591.507 283.757) rotate(180)" fill="#fafafa"/>
          </g>
          <g id="Group_13353" data-name="Group 13353">
            <rect id="Rectangle_4778" data-name="Rectangle 4778" width="73.021" height="2.643" transform="translate(591.507 294.632) rotate(180)" fill="#fafafa"/>
          </g>
          <g id="Group_13354" data-name="Group 13354">
            <rect id="Rectangle_4779" data-name="Rectangle 4779" width="36.511" height="2.643" transform="translate(591.507 305.508) rotate(180)" fill="#fafafa"/>
          </g>
        </g>
        <g id="Group_13359" data-name="Group 13359">
          <g id="Group_13356" data-name="Group 13356">
            <rect id="Rectangle_4780" data-name="Rectangle 4780" width="62.486" height="51.991" transform="translate(604.122 256.44)" fill="#fafafa"/>
          </g>
          <g id="Group_13357" data-name="Group 13357">
            <path id="Path_45329" data-name="Path 45329" d="M604.016,292.731l18.465-12.938,12.885,8.914,20.264-17.146,10.979,10.875v26H604.122Z" fill="#ebebeb"/>
          </g>
          <g id="Group_13358" data-name="Group 13358">
            <circle id="Ellipse_608" data-name="Ellipse 608" cx="5.234" cy="5.234" r="5.234" transform="translate(631.212 266.326)" fill="#ebebeb"/>
          </g>
        </g>
        <g id="Group_13363" data-name="Group 13363">
          <g id="Group_13360" data-name="Group 13360">
            <rect id="Rectangle_4781" data-name="Rectangle 4781" width="62.486" height="51.991" transform="translate(518.486 192.868)" fill="#fafafa"/>
          </g>
          <g id="Group_13361" data-name="Group 13361">
            <path id="Path_45330" data-name="Path 45330" d="M518.379,229.159l18.465-12.938,12.885,8.914,20.264-17.146,10.979,10.875v26H518.486Z" fill="#ebebeb"/>
          </g>
          <g id="Group_13362" data-name="Group 13362">
            <circle id="Ellipse_609" data-name="Ellipse 609" cx="5.234" cy="5.234" r="5.234" transform="translate(545.575 202.754)" fill="#ebebeb"/>
          </g>
        </g>
      </g>
      <g id="Group_13381" data-name="Group 13381">
        <g id="Group_13376" data-name="Group 13376">
          <g id="Group_13370" data-name="Group 13370">
            <g id="Group_13365" data-name="Group 13365">
              <path id="Rectangle_4782" data-name="Rectangle 4782" d="M0,0H232.644a0,0,0,0,1,0,0V121.359a4.651,4.651,0,0,1-4.651,4.651H4.651A4.651,4.651,0,0,1,0,121.359V0A0,0,0,0,1,0,0Z" transform="translate(58.638 240.543)" fill="#f5f5f5"/>
            </g>
            <g id="Group_13366" data-name="Group 13366">
              <rect id="Rectangle_4783" data-name="Rectangle 4783" width="232.644" height="23.41" transform="translate(58.638 240.543)" fill="#ebebeb"/>
            </g>
            <g id="Group_13367" data-name="Group 13367">
              <circle id="Ellipse_610" data-name="Ellipse 610" cx="1.835" cy="1.835" r="1.835" transform="translate(70.999 250.452)" fill="#fafafa"/>
            </g>
            <g id="Group_13368" data-name="Group 13368">
              <circle id="Ellipse_611" data-name="Ellipse 611" cx="1.835" cy="1.835" r="1.835" transform="translate(82.009 250.452)" fill="#fafafa"/>
            </g>
            <g id="Group_13369" data-name="Group 13369">
              <circle id="Ellipse_612" data-name="Ellipse 612" cx="1.835" cy="1.835" r="1.835" transform="translate(93.02 250.452)" fill="#fafafa"/>
            </g>
          </g>
          <g id="Group_13371" data-name="Group 13371">
            <rect id="Rectangle_4784" data-name="Rectangle 4784" width="87.847" height="3.18" transform="translate(175.46 282.826)" fill="#ebebeb"/>
          </g>
          <g id="Group_13372" data-name="Group 13372">
            <rect id="Rectangle_4785" data-name="Rectangle 4785" width="87.847" height="3.18" transform="translate(175.46 295.909)" fill="#ebebeb"/>
          </g>
          <g id="Group_13373" data-name="Group 13373">
            <rect id="Rectangle_4786" data-name="Rectangle 4786" width="87.847" height="3.18" transform="translate(175.46 308.993)" fill="#ebebeb"/>
          </g>
          <g id="Group_13374" data-name="Group 13374">
            <rect id="Rectangle_4787" data-name="Rectangle 4787" width="87.847" height="3.18" transform="translate(175.46 322.077)" fill="#ebebeb"/>
          </g>
          <g id="Group_13375" data-name="Group 13375">
            <rect id="Rectangle_4788" data-name="Rectangle 4788" width="43.924" height="3.18" transform="translate(175.46 335.16)" fill="#ebebeb"/>
          </g>
        </g>
        <g id="Group_13380" data-name="Group 13380">
          <g id="Group_13377" data-name="Group 13377">
            <rect id="Rectangle_4789" data-name="Rectangle 4789" width="75.173" height="62.547" transform="translate(77.989 280.598)" fill="#fafafa"/>
          </g>
          <g id="Group_13378" data-name="Group 13378">
            <path id="Path_45331" data-name="Path 45331" d="M77.861,324.257l22.214-15.565,15.5,10.724,24.378-20.628,13.209,13.084v31.274H77.989Z" fill="#ebebeb"/>
          </g>
          <g id="Group_13379" data-name="Group 13379">
            <path id="Path_45332" data-name="Path 45332" d="M123.172,298.788a6.3,6.3,0,1,1-6.3-6.3A6.3,6.3,0,0,1,123.172,298.788Z" fill="#ebebeb"/>
          </g>
        </g>
      </g>
    </g>
    <g id="Document">
      <g id="Group_13402" data-name="Group 13402">
        <g id="Group_13385" data-name="Group 13385">
          <g id="Group_13382" data-name="Group 13382">
            <rect id="Rectangle_4790" data-name="Rectangle 4790" width="56.698" height="77.587" transform="translate(227.855 127.692) rotate(-12.187)" fill="#fff"/>
          </g>
          <g id="Group_13384" data-name="Group 13384">
            <g id="Group_13383" data-name="Group 13383">
              <path id="Path_45333" data-name="Path 45333" d="M299.655,191.561s-.037-.127-.094-.369-.14-.609-.245-1.069c-.213-.955-.522-2.34-.922-4.137-.8-3.623-1.958-8.894-3.426-15.562-2.91-13.34-7.038-32.26-11.923-54.651l.28.181-55.408,11.992h-.007l.2-.309c6.1,28.331,11.748,54.561,16.332,75.848l-.252-.163,40.272-8.584,11.208-2.365,2.955-.614c.671-.137,1.03-.2,1.03-.2s-.323.086-.976.235l-2.906.652-11.138,2.461-40.356,8.829-.207.046-.045-.209c-4.61-21.281-10.291-47.5-16.426-75.828l-.055-.254.255-.055h.006l55.419-11.944.231-.05.049.23c4.8,22.473,8.864,41.462,11.727,54.851,1.41,6.658,2.525,11.919,3.291,15.537.372,1.782.659,3.156.857,4.1.092.451.162.8.213,1.049C299.64,191.448,299.655,191.561,299.655,191.561Z" fill="#263238"/>
            </g>
          </g>
        </g>
        <g id="Group_13387" data-name="Group 13387">
          <g id="Group_13386" data-name="Group 13386">
            <path id="Path_45334" data-name="Path 45334" d="M265.041,135.615c.03.141-5.975,1.557-13.411,3.163s-13.491,2.794-13.521,2.654,5.973-1.557,13.411-3.163S265.01,135.474,265.041,135.615Z" fill="#263238"/>
          </g>
        </g>
        <g id="Group_13389" data-name="Group 13389">
          <g id="Group_13388" data-name="Group 13388">
            <path id="Path_45335" data-name="Path 45335" d="M281.03,139.059c.03.141-9.236,2.261-20.693,4.735s-20.775,4.368-20.805,4.227,9.233-2.26,20.695-4.736S281,138.918,281.03,139.059Z" fill="#263238"/>
          </g>
        </g>
        <g id="Group_13391" data-name="Group 13391">
          <g id="Group_13390" data-name="Group 13390">
            <path id="Path_45336" data-name="Path 45336" d="M282.515,145.934c.03.14-9.236,2.261-20.693,4.735s-20.775,4.368-20.8,4.227,9.233-2.26,20.7-4.736S282.484,145.793,282.515,145.934Z" fill="#263238"/>
          </g>
        </g>
        <g id="Group_13393" data-name="Group 13393">
          <g id="Group_13392" data-name="Group 13392">
            <path id="Path_45337" data-name="Path 45337" d="M284,152.809c.031.14-9.235,2.261-20.693,4.735s-20.774,4.368-20.8,4.227,9.234-2.26,20.7-4.736S283.969,152.668,284,152.809Z" fill="#263238"/>
          </g>
        </g>
        <g id="Group_13395" data-name="Group 13395">
          <g id="Group_13394" data-name="Group 13394">
            <path id="Path_45338" data-name="Path 45338" d="M285.484,159.684c.031.14-9.235,2.261-20.693,4.735s-20.774,4.368-20.8,4.227,9.234-2.26,20.7-4.736S285.454,159.543,285.484,159.684Z" fill="#263238"/>
          </g>
        </g>
        <g id="Group_13397" data-name="Group 13397">
          <g id="Group_13396" data-name="Group 13396">
            <path id="Path_45339" data-name="Path 45339" d="M286.969,166.558c.03.141-9.235,2.262-20.693,4.736s-20.775,4.368-20.805,4.227,9.233-2.261,20.695-4.736S286.939,166.418,286.969,166.558Z" fill="#263238"/>
          </g>
        </g>
        <g id="Group_13399" data-name="Group 13399">
          <g id="Group_13398" data-name="Group 13398">
            <path id="Path_45340" data-name="Path 45340" d="M288.454,173.433c.03.141-9.236,2.261-20.693,4.736s-20.775,4.367-20.8,4.227,9.233-2.261,20.7-4.736S288.423,173.293,288.454,173.433Z" fill="#263238"/>
          </g>
        </g>
        <g id="Group_13401" data-name="Group 13401">
          <g id="Group_13400" data-name="Group 13400">
            <path id="Path_45341" data-name="Path 45341" d="M270.746,184.453c.03.141-4.939,1.333-11.1,2.663s-11.178,2.295-11.208,2.155,4.937-1.333,11.1-2.664S270.716,184.313,270.746,184.453Z" fill="#263238"/>
          </g>
        </g>
      </g>
    </g>
    <g id="Pointer" transform="translate(695.245 -290.424) rotate(79)">
      <g id="Group_13412" data-name="Group 13412">
        <g id="Group_13403" data-name="Group 13403">
          <path id="Path_45342" data-name="Path 45342" d="M542.569,309.846l14.183,36.417,5.914-9.553,8.193,10.758,9.772-9.293-9.312-8.971,8.593-5.812Z" fill="#ef5023"/>
        </g>
        <g id="Group_13405" data-name="Group 13405">
          <g id="Group_13404" data-name="Group 13404">
            <path id="Path_45343" data-name="Path 45343" d="M537.23,315.229a75.979,75.979,0,0,1-10.617,6.734,75.979,75.979,0,0,1,10.617-6.734Z" fill="#263238"/>
          </g>
        </g>
        <g id="Group_13407" data-name="Group 13407">
          <g id="Group_13406" data-name="Group 13406">
            <path id="Path_45344" data-name="Path 45344" d="M538.332,307.894a9.982,9.982,0,0,1-2.28-.6c-1.384-.443-3.278-1.117-5.333-1.951s-3.888-1.653-5.2-2.271a10.484,10.484,0,0,1-2.081-1.105,10.747,10.747,0,0,1,2.227.767l5.252,2.126,5.261,2.087A11.317,11.317,0,0,1,538.332,307.894Z" fill="#263238"/>
          </g>
        </g>
        <g id="Group_13409" data-name="Group 13409">
          <g id="Group_13408" data-name="Group 13408">
            <path id="Path_45345" data-name="Path 45345" d="M542.611,291.359a7.93,7.93,0,0,1,.516,2.009c.246,1.254.532,3,.775,4.932s.394,3.7.465,4.972a7.9,7.9,0,0,1-.005,2.074,67.968,67.968,0,0,1-.977-6.981A68.251,68.251,0,0,1,542.611,291.359Z" fill="#263238"/>
          </g>
        </g>
        <g id="Group_13411" data-name="Group 13411">
          <g id="Group_13410" data-name="Group 13410">
            <path id="Path_45346" data-name="Path 45346" d="M562.244,299.507c.06.146-2.566,1.276-5.524,3.171s-5.3,3.552-5.394,3.419a6.664,6.664,0,0,1,1.41-1.248c.915-.71,2.2-1.666,3.707-2.612A19.372,19.372,0,0,1,562.244,299.507Z" fill="#263238"/>
          </g>
        </g>
      </g>
    </g>
    <g id="Plus">
      <g id="Group_13419" data-name="Group 13419">
        <g id="Group_13414" data-name="Group 13414">
          <g id="Group_13413" data-name="Group 13413">
            <path id="Path_45347" data-name="Path 45347" d="M212.6,316.047a28.183,28.183,0,0,0-.665-4.4,17.367,17.367,0,0,0-2.024-4.784,17.944,17.944,0,0,0-21.549-7.623,16.79,16.79,0,0,0-4.525,2.44,16.34,16.34,0,0,0-3.78,3.8,17.81,17.81,0,0,0,0,21.142,16.349,16.349,0,0,0,3.78,3.8,16.823,16.823,0,0,0,4.526,2.44,18,18,0,0,0,21.55-7.624,17.361,17.361,0,0,0,2.023-4.784,28.164,28.164,0,0,0,.665-4.4,1.219,1.219,0,0,1,.012.294l-.018.865a8.341,8.341,0,0,1-.117,1.4,12.706,12.706,0,0,1-.346,1.891,17.136,17.136,0,0,1-1.969,4.884,18.29,18.29,0,0,1-12.314,8.694,18.369,18.369,0,0,1-9.649-.768,17.244,17.244,0,0,1-4.659-2.491,16.818,16.818,0,0,1-3.9-3.9,18.275,18.275,0,0,1,0-21.746,20.683,20.683,0,0,1,1.806-2.129,20.45,20.45,0,0,1,2.089-1.769,17.238,17.238,0,0,1,4.658-2.491,18.375,18.375,0,0,1,9.648-.768,18.285,18.285,0,0,1,12.314,8.693,17.141,17.141,0,0,1,1.97,4.884,12.741,12.741,0,0,1,.346,1.892,8.334,8.334,0,0,1,.117,1.4l.018.865A1.226,1.226,0,0,1,212.6,316.047Z" fill="#263238"/>
          </g>
        </g>
        <g id="Group_13416" data-name="Group 13416">
          <g id="Group_13415" data-name="Group 13415">
            <path id="Path_45348" data-name="Path 45348" d="M194.465,325.156a79.757,79.757,0,0,1-.261-9.109,79.743,79.743,0,0,1,.261-9.109,79.893,79.893,0,0,1,.26,9.109A79.908,79.908,0,0,1,194.465,325.156Z" fill="#263238"/>
          </g>
        </g>
        <g id="Group_13418" data-name="Group 13418">
          <g id="Group_13417" data-name="Group 13417">
            <path id="Path_45349" data-name="Path 45349" d="M203.573,316.047a79.878,79.878,0,0,1-9.108.26,79.889,79.889,0,0,1-9.109-.26,79.9,79.9,0,0,1,9.109-.26A79.886,79.886,0,0,1,203.573,316.047Z" fill="#263238"/>
          </g>
        </g>
      </g>
    </g>
    <g id="Search_Engine" data-name="Search Engine">
      <g id="Group_13457" data-name="Group 13457">
        <g id="Group_13427" data-name="Group 13427" transform="translate(57 -44)">
          <g id="Group_13421" data-name="Group 13421" transform="translate(435.279 287.627)">
            <g id="Group_13420" data-name="Group 13420">
              <path id="Path_45350" data-name="Path 45350" d="M476.9,354.739c-.09.059-9.481-14.917-20.972-33.446s-20.735-33.607-20.645-33.666,9.479,14.913,20.973,33.449S476.987,354.679,476.9,354.739Z" transform="translate(-435.279 -287.627)" fill="#263238"/>
            </g>
          </g>
        </g>
        <g id="Group_13435" data-name="Group 13435">
          <g id="Group_13429" data-name="Group 13429">
            <g id="Group_13428" data-name="Group 13428">
              <path id="Path_45352" data-name="Path 45352" d="M380.088,376.639c-.144,0-.261-20.074-.261-44.83s.117-44.833.261-44.833.26,20.069.26,44.833S380.231,376.639,380.088,376.639Z" fill="#263238"/>
            </g>
          </g>
        </g>
        <g id="Group_13518" data-name="Group 13518" transform="translate(71 2)">
          <g id="Group_13429-2" data-name="Group 13429" transform="translate(379.827 286.976)">
            <g id="Group_13428-2" data-name="Group 13428">
              <path id="Path_45352-2" data-name="Path 45352" d="M380.088,400.256c-.144,0-.261-25.361-.261-56.638s.117-56.642.261-56.642.26,25.355.26,56.642S380.231,400.256,380.088,400.256Z" transform="translate(-379.827 -286.976)" fill="#263238"/>
            </g>
          </g>
        </g>
        <g id="Group_13443" data-name="Group 13443" transform="translate(-39 -5)">
          <g id="Group_13437" data-name="Group 13437" transform="matrix(0.985, 0.174, -0.174, 0.985, 62.058, -46.277)">
            <g id="Group_13436" data-name="Group 13436">
              <path id="Path_45354" data-name="Path 45354" d="M267.251,375.7c-.122-.078,12.429-19.922,28.029-44.317s28.35-44.118,28.471-44.04-12.427,19.917-28.032,44.321S267.372,375.78,267.251,375.7Z" fill="#263238"/>
            </g>
          </g>
          <g id="Group_13511" data-name="Group 13511" transform="translate(277.591 -166.579) rotate(52)">
            <g id="Group_13436-2" data-name="Group 13436" transform="translate(267.25 287.346)">
              <path id="Path_45354-2" data-name="Path 45354" d="M267.251,340.735c-.094-.047,9.615-12.038,21.684-26.778s21.932-26.658,22.026-26.611-9.614,12.035-21.686,26.781S267.344,340.782,267.251,340.735Z" transform="translate(-267.25 -287.346)" fill="#263238"/>
            </g>
          </g>
        </g>
        <g id="Group_13456" data-name="Group 13456">
          <g id="Group_13453" data-name="Group 13453">
            <g id="Group_13451" data-name="Group 13451">
              <g id="Group_13444" data-name="Group 13444">
                <rect id="Rectangle_4791" data-name="Rectangle 4791" width="305.653" height="50.189" rx="23.79" transform="translate(232.317 237.901)" fill="#fff"/>
              </g>
              <g id="Group_13445" data-name="Group 13445">
                <path id="Path_45356" data-name="Path 45356" d="M470.251,237.445V288.09h42.7a25.322,25.322,0,0,0,25.322-25.322h0a25.322,25.322,0,0,0-25.322-25.323Z" fill="#60bbea"/>
              </g>
              <g id="Group_13450" data-name="Group 13450">
                <g id="Group_13447" data-name="Group 13447">
                  <g id="Group_13446" data-name="Group 13446">
                    <path id="Path_45357" data-name="Path 45357" d="M509.99,261.361a22.588,22.588,0,0,0-.432-2.585,10.662,10.662,0,0,0-3.9-5.767,10.482,10.482,0,0,0-9.917-1.464,10.492,10.492,0,0,0-4.844,3.648,10.4,10.4,0,0,0,0,12.336,10.487,10.487,0,0,0,4.845,3.648,10.476,10.476,0,0,0,9.918-1.464,10.661,10.661,0,0,0,3.9-5.766,22.58,22.58,0,0,0,.432-2.586,8.276,8.276,0,0,1-.236,2.635,10.643,10.643,0,0,1-3.874,6.01,10.753,10.753,0,0,1-4.568,2.069,10.907,10.907,0,0,1-5.737-.447,10.916,10.916,0,0,1-5.092-3.8,10.865,10.865,0,0,1,0-12.94,10.92,10.92,0,0,1,5.091-3.8,10.916,10.916,0,0,1,5.737-.447,10.749,10.749,0,0,1,4.567,2.07,10.64,10.64,0,0,1,3.875,6.009A8.276,8.276,0,0,1,509.99,261.361Z" fill="#fff"/>
                  </g>
                </g>
                <g id="Group_13449" data-name="Group 13449">
                  <g id="Group_13448" data-name="Group 13448">
                    <path id="Path_45358" data-name="Path 45358" d="M519.919,276.318a104.8,104.8,0,0,1-12.019-8.607,105.141,105.141,0,0,1,12.019,8.607Z" fill="#fff"/>
                  </g>
                </g>
              </g>
            </g>
            <g id="Group_13452" data-name="Group 13452">
              <rect id="Rectangle_4792" data-name="Rectangle 4792" width="186.849" height="10.742" transform="translate(261.382 258.295)" fill="#ebebeb"/>
            </g>
          </g>
          <g id="Group_13455" data-name="Group 13455">
            <g id="Group_13454" data-name="Group 13454">
              <path id="Path_45359" data-name="Path 45359" d="M514.18,288.09s.585-.048,1.727-.114a15.7,15.7,0,0,0,2.112-.264,21.865,21.865,0,0,0,2.867-.651,24.221,24.221,0,0,0,7.326-3.677l.994-.748c.321-.274.633-.572.958-.865a19.691,19.691,0,0,0,1.9-1.946c.648-.678,1.163-1.506,1.776-2.291l.786-1.3.4-.665.34-.709a22.966,22.966,0,0,0,2.1-6.321q.132-.87.266-1.76.047-.9.095-1.819c.054-1.225.041-2.5,0-3.781A23.637,23.637,0,0,0,514.911,238.1c-6.824-.067-14.057-.007-21.642-.018l-237.145.076a23.675,23.675,0,0,0-15.6,5.938,23.284,23.284,0,0,0-7.725,14.558,16.1,16.1,0,0,0-.169,2.081c-.049.692-.057,1.393-.049,2.1a40.547,40.547,0,0,0,.167,4.169,22.765,22.765,0,0,0,2.366,7.877,23.362,23.362,0,0,0,19.431,12.876c1.33.1,2.682.083,4.029.08H262.6l15.918,0,30.818.009,106.615.056,71.876.083,19.541.049,5.082.025c1.145.009,1.732.027,1.732.027s-.587.018-1.732.027l-5.082.025-19.541.049-71.876.083-106.615.056-30.818.009-15.918,0h-4.029c-1.346,0-2.693.017-4.063-.08a23.867,23.867,0,0,1-19.856-13.15,23.286,23.286,0,0,1-2.421-8.05,41.311,41.311,0,0,1-.17-4.228c-.008-.7,0-1.4.048-2.118a16.621,16.621,0,0,1,.173-2.126,23.807,23.807,0,0,1,7.893-14.881,24.2,24.2,0,0,1,15.951-6.07l237.145.077c7.589.022,14.808-.026,21.652.055a23.914,23.914,0,0,1,23.147,23.4c.035,1.3.045,2.552-.013,3.793q-.051.929-.1,1.836-.138.9-.274,1.776a23.182,23.182,0,0,1-2.136,6.372c-.116.239-.232.477-.346.714l-.405.669-.8,1.306c-.621.789-1.143,1.621-1.8,2.3a19.81,19.81,0,0,1-1.918,1.951c-.329.294-.645.592-.968.867l-1.005.748a24.2,24.2,0,0,1-7.388,3.653,21.738,21.738,0,0,1-2.885.629,15.085,15.085,0,0,1-2.12.238C514.765,288.078,514.18,288.09,514.18,288.09Z" fill="#263238"/>
            </g>
          </g>
        </g>
        <g id="Group_13517" data-name="Group 13517" transform="matrix(0.545, -0.839, 0.839, 0.545, 74.029, 500.881)">
          <g id="Group_13421-2" data-name="Group 13421" transform="translate(450.298 261.18)">
            <g id="Group_13420-2" data-name="Group 13420">
              <path id="Path_45350-2" data-name="Path 45350" d="M465.995,335c-.067.042-7-10.529-15.478-23.609s-15.3-23.722-15.237-23.764,7,10.527,15.479,23.611S466.061,334.958,465.995,335Z" transform="translate(-435.279 -287.627)" fill="#263238"/>
            </g>
          </g>
        </g>
      </g>
    </g>
    <g id="Character">
      <g id="Group_13508" data-name="Group 13508">
        <g id="Group_13464" data-name="Group 13464">
          <g id="Group_13459" data-name="Group 13459">
            <g id="Group_13458" data-name="Group 13458">
              <path id="Path_45360" data-name="Path 45360" d="M381.753,256.887c-.91-1.06-1-1.957,1.045-2.141,4.512-.406,7.836-2.376,8.36-3.516s-.906-2.255-2.129-1.57a16.9,16.9,0,0,1-4.394,1.244,11.029,11.029,0,0,1-3.661.05c-1.051-.165-1.974-.342-2.8-.517,0,0-4.775-1.029-6.837-2.638l-10.1,10.793,4.736,5.352a7.192,7.192,0,0,0,6.325,2.981c4.064-.4,9.528-3.318,9.528-3.318.739-1.135,7.282,2.9,9.389,4.413,2.081,1.5,3.664,1.132,3.585-.323-.055-.991-6.393-5.775-8.512-7.224a26.57,26.57,0,0,1-4.537-3.586" fill="#ffbe9d"/>
            </g>
          </g>
          <g id="Group_13461" data-name="Group 13461">
            <g id="Group_13460" data-name="Group 13460">
              <path id="Path_45361" data-name="Path 45361" d="M375.817,266.264c.011.061-.291.191-.813.177a3.48,3.48,0,0,1-3.064-2.318c-.156-.5-.114-.824-.052-.83.144-.033.391,1.188,1.549,2.035A6.853,6.853,0,0,0,375.817,266.264Z" fill="#eb996e"/>
            </g>
          </g>
          <g id="Group_13463" data-name="Group 13463">
            <g id="Group_13462" data-name="Group 13462">
              <path id="Path_45362" data-name="Path 45362" d="M379.818,264.688c.007.063-.287.172-.785.14a3.448,3.448,0,0,1-2.912-2.265c-.153-.475-.12-.787-.057-.795.145-.035.413,1.116,1.5,1.939A7.737,7.737,0,0,0,379.818,264.688Z" fill="#eb996e"/>
            </g>
          </g>
        </g>
        <g id="Group_13465" data-name="Group 13465">
          <path id="Path_45363" data-name="Path 45363" d="M390.706,152.429c.422,8.862,11.23,21,19.269,22.965,4.226,1.032,9.089.546,12.437,3.385,5.743,4.87,2.384,14.964,6.258,21.5,2.382,4.016,7.111,5.986,9.79,9.8,4.451,6.337,1.463,15.916-4.611,20.635s-14.166,5.622-21.779,5.425c-16.746-.433-33.9-5.755-46-17.626-5.687-5.575-27.936-22.793-20.177-63.6" fill="#263238"/>
        </g>
        <g id="Group_13482" data-name="Group 13482">
          <path id="Path_45364" data-name="Path 45364" d="M451.15,215.835l-63.671-18.9a40.381,40.381,0,0,0-9.273-2.791l-21.5.144a20.9,20.9,0,0,0-8.246,1.725l-57.955,19.25c-4.289,1.356-7.252,5.755-7.252,10.766h0c0,6.176,4.453,11.183,9.945,11.183h26.762c-.076.252-.117.393-.117.393l93.085.349v-.036l35.527.08c5.492,0,9.944-5.055,9.944-11.291C458.4,221.646,455.439,217.2,451.15,215.835Z" fill="#f8ac53"/>
          <g id="Group_13467" data-name="Group 13467">
            <g id="Group_13466" data-name="Group 13466">
              <path id="Path_45365" data-name="Path 45365" d="M438.39,222.717a2.362,2.362,0,0,1-.578-.029l-1.64-.186c-1.421-.18-3.481-.41-6.029-.655a181.552,181.552,0,0,0-39.917.523c-2.54.312-4.594.6-6.009.812l-1.635.229a2.444,2.444,0,0,1-.576.045,2.4,2.4,0,0,1,.558-.148l1.619-.326c1.407-.279,3.456-.618,6-.977a160.023,160.023,0,0,1,40-.524c2.549.293,4.606.578,6.02.82l1.627.283A2.461,2.461,0,0,1,438.39,222.717Z" fill="#263238"/>
            </g>
          </g>
          <g id="Group_13469" data-name="Group 13469" opacity="0.6">
            <g id="Group_13468" data-name="Group 13468">
              <path id="Path_45366" data-name="Path 45366" d="M423.449,207.247a1.046,1.046,0,0,1-.178.214l-.561.592c-.5.511-1.244,1.265-2.251,2.183a36.216,36.216,0,0,1-3.869,3.116,19.153,19.153,0,0,1-5.945,2.833,15.172,15.172,0,0,1-7.956-.158,39.441,39.441,0,0,1-8.376-3.7,50.9,50.9,0,0,0-9.07-4.252,13.992,13.992,0,0,0-10.371.534c-3.35,1.51-6.2,3.813-9.316,5.473-.771.43-1.587.761-2.377,1.118a25,25,0,0,1-2.444.815,23.729,23.729,0,0,1-4.9.846,25.267,25.267,0,0,1-16.289-4.48,44.461,44.461,0,0,1-4.92-4.369,23.977,23.977,0,0,0-3.809-3.114,10.572,10.572,0,0,0-3.9-1.463,5.983,5.983,0,0,1,1.087.129,9.179,9.179,0,0,1,2.92,1.16,23.37,23.37,0,0,1,3.9,3.076,45.663,45.663,0,0,0,4.932,4.28,25.035,25.035,0,0,0,16.043,4.3,23.278,23.278,0,0,0,4.8-.846,24.936,24.936,0,0,0,2.39-.8c.772-.353,1.567-.676,2.324-1.1,3.061-1.635,5.909-3.947,9.346-5.5a14.487,14.487,0,0,1,10.732-.546,50.821,50.821,0,0,1,9.15,4.318,39.434,39.434,0,0,0,8.262,3.706,14.871,14.871,0,0,0,7.749.218,19.088,19.088,0,0,0,5.874-2.718,38.422,38.422,0,0,0,3.9-3.026c1.024-.892,1.787-1.621,2.313-2.107l.6-.554A1.181,1.181,0,0,1,423.449,207.247Z" fill="#fff"/>
            </g>
          </g>
          <g id="Group_13470" data-name="Group 13470" opacity="0.2">
            <path id="Path_45367" data-name="Path 45367" d="M324.51,222.589l40.246,7.587-4.649,7.572-1.224.019Z"/>
          </g>
          <g id="Group_13472" data-name="Group 13472" opacity="0.6">
            <g id="Group_13471" data-name="Group 13471">
              <path id="Path_45368" data-name="Path 45368" d="M446.338,214.637a2.76,2.76,0,0,1,.02.617,13.459,13.459,0,0,1-.177,1.761,15.258,15.258,0,0,1-10.024,11.853,15.487,15.487,0,0,1-5.664.885,25.791,25.791,0,0,1-6.038-1.1c-2.016-.568-3.952-1.2-5.864-1.581a17.026,17.026,0,0,0-5.562-.289,17.765,17.765,0,0,0-8.678,3.554,17.438,17.438,0,0,0-4.311,4.711l-.521.868c-.124.249-.234.468-.332.663a2.829,2.829,0,0,1-.3.536,2.677,2.677,0,0,1,.208-.579c.086-.2.182-.432.291-.691.145-.27.306-.569.483-.9a16.769,16.769,0,0,1,4.261-4.9,17.867,17.867,0,0,1,8.846-3.739,17.31,17.31,0,0,1,5.72.265c1.951.387,3.9,1.016,5.9,1.58a25.713,25.713,0,0,0,5.916,1.1,15.248,15.248,0,0,0,12.942-6.415,15.833,15.833,0,0,0,2.529-5.851C446.286,215.486,446.285,214.633,446.338,214.637Z" fill="#fff"/>
            </g>
          </g>
          <g id="Group_13480" data-name="Group 13480">
            <g id="Group_13473" data-name="Group 13473">
              <path id="Path_45369" data-name="Path 45369" d="M290.563,235.918s72.758,32.105,72.383,31.376S374.5,245.509,374.5,245.509l-58.949-29.134Z" fill="#f8ac53"/>
            </g>
            <g id="Group_13475" data-name="Group 13475">
              <g id="Group_13474" data-name="Group 13474">
                <path id="Path_45370" data-name="Path 45370" d="M323.961,220.532a9.716,9.716,0,0,1,1.5.628l4,1.887c3.371,1.613,8.012,3.874,13.124,6.4s9.73,4.841,13.06,6.539l3.932,2.036a9.785,9.785,0,0,1,1.412.811,9.567,9.567,0,0,1-1.5-.627l-4-1.887c-3.371-1.613-8.013-3.875-13.128-6.4s-9.728-4.841-13.059-6.54l-3.932-2.035A9.608,9.608,0,0,1,323.961,220.532Z" fill="#263238"/>
              </g>
            </g>
            <g id="Group_13477" data-name="Group 13477" opacity="0.6">
              <g id="Group_13476" data-name="Group 13476">
                <path id="Path_45371" data-name="Path 45371" d="M339.939,230.271a6.255,6.255,0,0,1-.677,2.158,10.187,10.187,0,0,1-4.339,4.337,13.328,13.328,0,0,1-4.041,1.439,15.931,15.931,0,0,1-4.92.058,37.178,37.178,0,0,1-10.611-3.56,55.44,55.44,0,0,0-10.319-4.07,18.557,18.557,0,0,0-4.766-.552,14.869,14.869,0,0,0-4.115.7,11.239,11.239,0,0,0-5.077,3.18,20.745,20.745,0,0,0-1.318,1.809,6.738,6.738,0,0,1,1.163-1.94,11.075,11.075,0,0,1,5.117-3.4,14.989,14.989,0,0,1,4.215-.777,18.68,18.68,0,0,1,4.89.517,53.71,53.71,0,0,1,10.429,4.065,37.689,37.689,0,0,0,10.456,3.557,15.743,15.743,0,0,0,4.781-.008,13.16,13.16,0,0,0,3.941-1.338,10.281,10.281,0,0,0,4.334-4.106A17.148,17.148,0,0,0,339.939,230.271Z" fill="#fff"/>
              </g>
            </g>
            <g id="Group_13479" data-name="Group 13479" opacity="0.6">
              <g id="Group_13478" data-name="Group 13478">
                <path id="Path_45372" data-name="Path 45372" d="M370.83,252.277c-.015.1-1.614-.17-4.213-.212a35.317,35.317,0,0,0-4.55.231,34.79,34.79,0,0,0-10.688,3.027,35.492,35.492,0,0,0-4,2.19c-2.191,1.4-3.412,2.465-3.475,2.389a4.751,4.751,0,0,1,.813-.8,23.635,23.635,0,0,1,2.459-1.9,31.1,31.1,0,0,1,3.993-2.315,32.376,32.376,0,0,1,10.842-3.071,30.915,30.915,0,0,1,4.613-.122,23.413,23.413,0,0,1,3.09.327A4.711,4.711,0,0,1,370.83,252.277Z" fill="#fff"/>
              </g>
            </g>
          </g>
          <g id="Group_13481" data-name="Group 13481" opacity="0.2">
            <path id="Path_45373" data-name="Path 45373" d="M379.8,194.006c-1.2,3.366.6,6.992,2.355,10.107a27.454,27.454,0,0,0,4.22,6.123,9.238,9.238,0,0,0,6.616,2.973c3.266-.107,6.191-2.519,9.454-2.331,2.219.128,4.169,1.439,6.011,2.683a47.557,47.557,0,0,0,10.085,5.587,18.111,18.111,0,0,0,11.338.712,11.3,11.3,0,0,0,7.846-7.767"/>
          </g>
        </g>
        <g id="Group_13505" data-name="Group 13505">
          <g id="Group_13498" data-name="Group 13498">
            <g id="Group_13497" data-name="Group 13497">
              <g id="Group_13483" data-name="Group 13483">
                <path id="Path_45374" data-name="Path 45374" d="M380.075,193.078c.167-3.917.378-7.462.378-7.462s8.754-1.1,9.132-10.039-.512-29.511-.512-29.511l-16.113-7.738-17.335,13.966,2.719,41.037A10.882,10.882,0,0,0,369.7,203.483h0A10.884,10.884,0,0,0,380.075,193.078Z" fill="#ffbe9d"/>
              </g>
              <g id="Group_13487" data-name="Group 13487">
                <g id="Group_13484" data-name="Group 13484">
                  <path id="Path_45375" data-name="Path 45375" d="M387.563,162.223a1.114,1.114,0,1,1-1.133-1.124A1.128,1.128,0,0,1,387.563,162.223Z" fill="#263238"/>
                </g>
                <g id="Group_13486" data-name="Group 13486">
                  <g id="Group_13485" data-name="Group 13485">
                    <path id="Path_45376" data-name="Path 45376" d="M388.644,159.837c-.141.15-.975-.554-2.175-.6-1.2-.063-2.09.563-2.217.4-.063-.072.082-.347.47-.631a2.895,2.895,0,0,1,3.506.158C388.592,159.483,388.713,159.77,388.644,159.837Z" fill="#263238"/>
                  </g>
                </g>
              </g>
              <g id="Group_13491" data-name="Group 13491">
                <g id="Group_13488" data-name="Group 13488">
                  <path id="Path_45377" data-name="Path 45377" d="M374.278,162.223a1.114,1.114,0,1,1-1.134-1.124A1.128,1.128,0,0,1,374.278,162.223Z" fill="#263238"/>
                </g>
                <g id="Group_13490" data-name="Group 13490">
                  <g id="Group_13489" data-name="Group 13489">
                    <path id="Path_45378" data-name="Path 45378" d="M375.359,160.067c-.141.15-.976-.553-2.175-.6-1.2-.064-2.09.562-2.217.4-.063-.072.081-.347.47-.631a2.9,2.9,0,0,1,3.506.158C375.306,159.713,375.428,160,375.359,160.067Z" fill="#263238"/>
                  </g>
                </g>
              </g>
              <g id="Group_13493" data-name="Group 13493">
                <g id="Group_13492" data-name="Group 13492">
                  <path id="Path_45379" data-name="Path 45379" d="M379.863,170.381a7.294,7.294,0,0,1,1.954-.3c.307-.022.6-.075.654-.3a1.8,1.8,0,0,0-.19-.981q-.412-1.207-.867-2.534a46.1,46.1,0,0,1-1.932-6.616A45.811,45.811,0,0,1,381.9,166.1c.289.889.565,1.736.828,2.548a2.034,2.034,0,0,1,.139,1.293.763.763,0,0,1-.511.46,1.921,1.921,0,0,1-.522.056A7.35,7.35,0,0,1,379.863,170.381Z" fill="#263238"/>
                </g>
              </g>
              <g id="Group_13494" data-name="Group 13494">
                <path id="Path_45380" data-name="Path 45380" d="M375.924,171.613c-1.227-.805,3.385,1.989,5.83,1.947a3.277,3.277,0,0,1-3.953,1.225C375.224,173.721,375.924,171.613,375.924,171.613Z" fill="#fff"/>
              </g>
              <g id="Group_13495" data-name="Group 13495">
                <path id="Path_45381" data-name="Path 45381" d="M380.453,185.616a21.32,21.32,0,0,1-11.592-3.795s2.725,6.509,11.44,5.988Z" fill="#eb996e"/>
              </g>
              <g id="Group_13496" data-name="Group 13496">
                <path id="Path_45382" data-name="Path 45382" d="M346.223,161.1h0c-.031,7.734-2.056,28.184,12.04,31.02l-.512-28.164s13.65-6.436,15.955-19.842l.083.077c.875,2.023,2.432,6.369,1.486,9.908l12.782,3.15,1.47,1.346s4.552-9.974-4.23-19.022-16.285-2.491-20.993-3.056c-3.131-.376-13.989-.3-18.411,18.395Z" fill="#263238"/>
              </g>
            </g>
          </g>
          <g id="Group_13504" data-name="Group 13504">
            <g id="Group_13502" data-name="Group 13502">
              <g id="Group_13499" data-name="Group 13499">
                <path id="Path_45383" data-name="Path 45383" d="M358.1,164.27c-1.192-.736-2.819-.131-3.765.9a5.136,5.136,0,0,0,5.111,8.431" fill="#ffbe9d"/>
              </g>
              <g id="Group_13501" data-name="Group 13501">
                <g id="Group_13500" data-name="Group 13500">
                  <path id="Path_45384" data-name="Path 45384" d="M357.827,170.925c0,.063-.4.132-1.024-.036a2.7,2.7,0,0,1-1.87-1.658,1.992,1.992,0,0,1,.053-1.458,2.108,2.108,0,0,1,.762-.888c.562-.363.99-.337,1-.279.022.08-.35.19-.771.57a1.741,1.741,0,0,0-.546,1.889,2.659,2.659,0,0,0,1.5,1.478C357.459,170.78,357.835,170.846,357.827,170.925Z" fill="#eb996e"/>
                </g>
              </g>
            </g>
            <g id="Group_13503" data-name="Group 13503">
              <path id="Path_45385" data-name="Path 45385" d="M356.66,172.686a1.015,1.015,0,1,0,.386-.016" fill="#e8505b"/>
            </g>
          </g>
        </g>
        <g id="Group_13506" data-name="Group 13506">
          <path id="Path_45386" data-name="Path 45386" d="M382.564,237.995V223.308s-21.811,4.525-22.21,14.512Z" fill="#ffbe9d"/>
        </g>
        <g id="Group_13507" data-name="Group 13507">
          <path id="Path_45387" data-name="Path 45387" d="M380.294,191.532a18.275,18.275,0,0,0,17.9,16.815c3.22.057,6.615-.709,9.554.607,2.556,1.143,4.2,3.621,6.215,5.568a18.441,18.441,0,0,0,18.285,4.134c2.641-.886,6.838-2.784,7.33-5.526.374-2.089-2.179-4.165-3.684-5.661a18.618,18.618,0,0,0-5.371-3.358c-15.536-7.3-32.214-12.6-49.354-13.512" fill="#263238"/>
        </g>
      </g>
    </g>
  </g>
  <g id="Group_13510" data-name="Group 13510" transform="translate(-193.121 -274.854)">
    <g id="Group_13441" data-name="Group 13441" transform="translate(233.121 358.873)">
      <g id="Group_13438" data-name="Group 13438" transform="translate(3.607 5.506)">
        <g transform="matrix(1, 0, 0, 1, -43.61, -89.52)" filter="url(#Ellipse_615)">
          <circle id="Ellipse_615-5" data-name="Ellipse 615" cx="68.07" cy="68.07" r="68.07" transform="translate(43.61 89.52)" fill="#4c4e60"/>
        </g>
      </g>
    </g>
  </g>
  <g id="Group_13516" data-name="Group 13516" transform="translate(325.879 -307.854)">
    <g id="Group_13441-2" data-name="Group 13441" transform="translate(233.121 358.873)">
      <g id="Group_13438-2" data-name="Group 13438" transform="translate(-0.393 3.506)">
        <circle id="Ellipse_615-6" data-name="Ellipse 615" cx="68.07" cy="68.07" r="68.07" fill="#60bbea"/>
      </g>
    </g>
  </g>
  <path id="Path_45389" data-name="Path 45389" d="M1.694,0H4.928V-3.85L6.6-6.05,10.1,0H13.64L8.514-8.624l4.334-5.72H9.284L5.016-8.47H4.928v-5.874H1.694ZM19.47.264A7.138,7.138,0,0,0,23.342-.968L22.264-2.926A4.4,4.4,0,0,1,19.91-2.2a2.64,2.64,0,0,1-2.838-2.31h6.534a7.149,7.149,0,0,0,.132-1.43c0-2.97-1.54-5.236-4.642-5.236-2.618,0-5.148,2.178-5.148,5.72A5.319,5.319,0,0,0,19.47.264ZM17.05-6.644a2.161,2.161,0,0,1,2.112-2.068c1.3,0,1.826.858,1.826,2.068ZM27.06,4.268c2.574,0,3.74-1.408,4.774-4.158l3.784-11.022h-3.1L31.2-6.226c-.264,1.034-.506,2.068-.748,3.1H30.36c-.286-1.078-.55-2.112-.858-3.1L27.94-10.912H24.684l4.2,10.626-.154.572a1.854,1.854,0,0,1-1.914,1.43,3.553,3.553,0,0,1-.726-.132L25.52,4.048A4.971,4.971,0,0,0,27.06,4.268ZM39.138,0h3.7L43.8-4.356c.2-1.012.352-2.024.55-3.19h.088c.2,1.166.374,2.178.594,3.19L46.024,0h3.784l2.618-10.912H49.434L48.4-5.852c-.2,1.078-.308,2.134-.506,3.234h-.088c-.22-1.1-.418-2.156-.682-3.234l-1.232-5.06H43.1l-1.21,5.06c-.264,1.034-.44,2.134-.638,3.234h-.088c-.176-1.1-.308-2.156-.484-3.234l-1.056-5.06H36.41ZM58.894.264a5.344,5.344,0,0,0,5.3-5.72,5.344,5.344,0,0,0-5.3-5.72,5.348,5.348,0,0,0-5.324,5.72A5.348,5.348,0,0,0,58.894.264Zm0-2.618c-1.342,0-2-1.21-2-3.1s.66-3.1,2-3.1c1.32,0,2,1.21,2,3.1S60.214-2.354,58.894-2.354ZM66.418,0h3.234V-6.336a2.7,2.7,0,0,1,2.4-2,4.076,4.076,0,0,1,1.188.176l.528-2.794a3.135,3.135,0,0,0-1.3-.22A3.654,3.654,0,0,0,69.366-9h-.088l-.22-1.914h-2.64Zm12.43.264a4.318,4.318,0,0,0,2.9-1.342h.088L82.06,0H84.7V-15.422H81.466V-11.7l.132,1.672a3.575,3.575,0,0,0-2.684-1.144c-2.31,0-4.532,2.156-4.532,5.72S76.142.264,78.848.264Zm.836-2.64c-1.254,0-1.98-.968-1.98-3.124,0-2.068.924-3.036,1.958-3.036a2.584,2.584,0,0,1,1.8.7v4.466A2.05,2.05,0,0,1,79.684-2.376ZM1.694,23H4.928V17.83H6.71L9.46,23h3.63L9.834,17.258a4.193,4.193,0,0,0,2.552-4.136c0-3.41-2.486-4.466-5.522-4.466H1.694Zm3.234-7.744V11.23H6.6c1.694,0,2.618.484,2.618,1.892S8.294,15.256,6.6,15.256ZM19.58,23.264a7.138,7.138,0,0,0,3.872-1.232l-1.078-1.958a4.4,4.4,0,0,1-2.354.726,2.64,2.64,0,0,1-2.838-2.31h6.534a7.149,7.149,0,0,0,.132-1.43c0-2.97-1.54-5.236-4.642-5.236-2.618,0-5.148,2.178-5.148,5.72A5.319,5.319,0,0,0,19.58,23.264Zm-2.42-6.908a2.161,2.161,0,0,1,2.112-2.068c1.3,0,1.826.858,1.826,2.068ZM29.3,23.264c2.926,0,4.488-1.54,4.488-3.52,0-2-1.562-2.772-2.948-3.278-1.122-.418-2.09-.682-2.09-1.386,0-.55.418-.858,1.254-.858a3.966,3.966,0,0,1,2.288.924l1.452-1.936a6.224,6.224,0,0,0-3.85-1.386c-2.508,0-4.18,1.386-4.18,3.41,0,1.8,1.518,2.706,2.838,3.212,1.122.44,2.222.77,2.222,1.5,0,.572-.418.924-1.386.924a4.7,4.7,0,0,1-2.816-1.144l-1.452,2.024A7.044,7.044,0,0,0,29.3,23.264Zm11.418,0a7.138,7.138,0,0,0,3.872-1.232l-1.078-1.958a4.4,4.4,0,0,1-2.354.726,2.64,2.64,0,0,1-2.838-2.31h6.534a7.149,7.149,0,0,0,.132-1.43c0-2.97-1.54-5.236-4.642-5.236-2.618,0-5.148,2.178-5.148,5.72A5.319,5.319,0,0,0,40.722,23.264ZM38.3,16.356a2.161,2.161,0,0,1,2.112-2.068c1.3,0,1.826.858,1.826,2.068Zm11.44,6.908a4.748,4.748,0,0,0,3.168-1.386H53L53.218,23h2.64V16.752c0-3.344-1.54-4.928-4.334-4.928a9.02,9.02,0,0,0-4.664,1.43l1.166,2.134a5.8,5.8,0,0,1,2.882-.99,1.509,1.509,0,0,1,1.716,1.584c-4.312.44-6.138,1.694-6.138,3.982A3.141,3.141,0,0,0,49.742,23.264Zm1.1-2.508c-.77,0-1.254-.33-1.254-1.034,0-.836.748-1.5,3.036-1.8v1.914A2.425,2.425,0,0,1,50.842,20.756ZM58.586,23H61.82V16.664a2.7,2.7,0,0,1,2.4-2,4.076,4.076,0,0,1,1.188.176l.528-2.794a3.135,3.135,0,0,0-1.3-.22A3.654,3.654,0,0,0,61.534,14h-.088l-.22-1.914h-2.64Zm13.288.264a5.45,5.45,0,0,0,3.608-1.3l-1.276-2.112a3.336,3.336,0,0,1-1.958.792c-1.408,0-2.442-1.21-2.442-3.1s.99-3.1,2.552-3.1a2.234,2.234,0,0,1,1.474.638l1.518-2.09a4.818,4.818,0,0,0-3.19-1.166,5.484,5.484,0,0,0-5.676,5.72C66.484,21.174,68.838,23.264,71.874,23.264ZM77.4,23H80.63V15.63a2.761,2.761,0,0,1,2.024-1.056c.924,0,1.342.484,1.342,2.068V23H87.23V16.224c0-2.728-1.012-4.4-3.388-4.4a5.012,5.012,0,0,0-3.366,1.5l.154-1.958V7.578H77.4Z" transform="translate(65 152)" fill="#fff"/>
  <g id="Group_13512" data-name="Group 13512" transform="translate(-125.121 -128.854)">
    <g id="Group_13441-3" data-name="Group 13441" transform="translate(233.121 358.873)">
      <g id="Group_13438-3" data-name="Group 13438" transform="translate(0.607 0.506)">
        <g transform="matrix(1, 0, 0, 1, -108.61, -230.52)" filter="url(#Ellipse_615-2)">
          <circle id="Ellipse_615-7" data-name="Ellipse 615" cx="68.07" cy="68.07" r="68.07" transform="translate(108.61 230.52)" fill="#777"/>
        </g>
      </g>
    </g>
  </g>
  <path id="Path_45394" data-name="Path 45394" d="M1.694,0H7.018c3.1,0,5.566-1.3,5.566-4.224A3.249,3.249,0,0,0,10.01-7.59v-.088a3.324,3.324,0,0,0,1.87-3.1c0-2.75-2.31-3.564-5.28-3.564H1.694ZM4.928-8.6v-3.234h1.54c1.518,0,2.244.418,2.244,1.54C8.712-9.262,8.03-8.6,6.446-8.6Zm0,6.094V-6.2H6.754c1.782,0,2.662.506,2.662,1.76,0,1.32-.9,1.936-2.662,1.936ZM18.018.264A4.253,4.253,0,0,0,21.45-1.518h.066L21.758,0H24.4V-10.912H21.164V-3.7c-.638.858-1.122,1.21-1.936,1.21-.946,0-1.364-.506-1.364-2.068v-6.358H14.63v6.776C14.63-1.408,15.642.264,18.018.264Zm12.43,0c2.926,0,4.488-1.54,4.488-3.52,0-2-1.562-2.772-2.948-3.278-1.122-.418-2.09-.682-2.09-1.386,0-.55.418-.858,1.254-.858a3.966,3.966,0,0,1,2.288.924L34.892-9.79a6.224,6.224,0,0,0-3.85-1.386c-2.508,0-4.18,1.386-4.18,3.41,0,1.8,1.518,2.706,2.838,3.212,1.122.44,2.222.77,2.222,1.5,0,.572-.418.924-1.386.924A4.7,4.7,0,0,1,27.72-3.278L26.268-1.254A7.044,7.044,0,0,0,30.448.264ZM36.982,0h3.234V-10.912H36.982Zm1.606-12.518a1.666,1.666,0,0,0,1.826-1.694,1.678,1.678,0,0,0-1.826-1.694,1.678,1.678,0,0,0-1.826,1.694A1.666,1.666,0,0,0,38.588-12.518ZM43.054,0h3.234V-7.37a2.761,2.761,0,0,1,2.024-1.056c.924,0,1.342.484,1.342,2.068V0h3.234V-6.776c0-2.728-1.012-4.4-3.388-4.4A5.029,5.029,0,0,0,46-9.526h-.088l-.22-1.386h-2.64ZM60.522.264A7.138,7.138,0,0,0,64.394-.968L63.316-2.926a4.4,4.4,0,0,1-2.354.726,2.64,2.64,0,0,1-2.838-2.31h6.534a7.15,7.15,0,0,0,.132-1.43c0-2.97-1.54-5.236-4.642-5.236C57.53-11.176,55-9,55-5.456A5.319,5.319,0,0,0,60.522.264ZM58.1-6.644a2.161,2.161,0,0,1,2.112-2.068c1.3,0,1.826.858,1.826,2.068ZM70.246.264c2.926,0,4.488-1.54,4.488-3.52,0-2-1.562-2.772-2.948-3.278-1.122-.418-2.09-.682-2.09-1.386,0-.55.418-.858,1.254-.858a3.966,3.966,0,0,1,2.288.924L74.69-9.79a6.224,6.224,0,0,0-3.85-1.386c-2.508,0-4.18,1.386-4.18,3.41,0,1.8,1.518,2.706,2.838,3.212,1.122.44,2.222.77,2.222,1.5,0,.572-.418.924-1.386.924a4.7,4.7,0,0,1-2.816-1.144L66.066-1.254A7.044,7.044,0,0,0,70.246.264Zm9.746,0c2.926,0,4.488-1.54,4.488-3.52,0-2-1.562-2.772-2.948-3.278-1.122-.418-2.09-.682-2.09-1.386,0-.55.418-.858,1.254-.858a3.966,3.966,0,0,1,2.288.924L84.436-9.79a6.224,6.224,0,0,0-3.85-1.386c-2.508,0-4.18,1.386-4.18,3.41,0,1.8,1.518,2.706,2.838,3.212,1.122.44,2.222.77,2.222,1.5,0,.572-.418.924-1.386.924a4.7,4.7,0,0,1-2.816-1.144L75.812-1.254A7.044,7.044,0,0,0,79.992.264ZM5.06,15.74c.4-1.43.77-3.1,1.122-4.62H6.27c.374,1.5.77,3.19,1.166,4.62l.33,1.32H4.708ZM-.132,23h3.3l.88-3.41H8.426L9.306,23h3.432L8.25,8.656H4.356Zm14.168,0H17.27V15.63a2.761,2.761,0,0,1,2.024-1.056c.924,0,1.342.484,1.342,2.068V23H23.87V16.224c0-2.728-1.012-4.4-3.388-4.4a5.029,5.029,0,0,0-3.5,1.65H16.9l-.22-1.386h-2.64Zm15.334.264a4.748,4.748,0,0,0,3.168-1.386h.088L32.846,23h2.64V16.752c0-3.344-1.54-4.928-4.334-4.928a9.02,9.02,0,0,0-4.664,1.43l1.166,2.134a5.8,5.8,0,0,1,2.882-.99,1.509,1.509,0,0,1,1.716,1.584c-4.312.44-6.138,1.694-6.138,3.982A3.141,3.141,0,0,0,29.37,23.264Zm1.1-2.508c-.77,0-1.254-.33-1.254-1.034,0-.836.748-1.5,3.036-1.8v1.914A2.425,2.425,0,0,1,30.47,20.756Zm10.714,2.508A4.216,4.216,0,0,0,42.812,23l-.4-2.4a1.357,1.357,0,0,1-.4.044c-.264,0-.572-.22-.572-.9V7.578H38.214V19.612C38.214,21.812,38.962,23.264,41.184,23.264Zm4.532,4c2.574,0,3.74-1.408,4.774-4.158l3.784-11.022h-3.1l-1.32,4.686c-.264,1.034-.506,2.068-.748,3.1h-.088c-.286-1.078-.55-2.112-.858-3.1L46.6,12.088H43.34l4.2,10.626-.154.572a1.854,1.854,0,0,1-1.914,1.43,3.553,3.553,0,0,1-.726-.132l-.572,2.464A4.971,4.971,0,0,0,45.716,27.268Zm13.464-4c2.926,0,4.488-1.54,4.488-3.52,0-2-1.562-2.772-2.948-3.278-1.122-.418-2.09-.682-2.09-1.386,0-.55.418-.858,1.254-.858a3.966,3.966,0,0,1,2.288.924l1.452-1.936a6.224,6.224,0,0,0-3.85-1.386c-2.508,0-4.18,1.386-4.18,3.41,0,1.8,1.518,2.706,2.838,3.212,1.122.44,2.222.77,2.222,1.5,0,.572-.418.924-1.386.924a4.7,4.7,0,0,1-2.816-1.144L55,21.746A7.044,7.044,0,0,0,59.18,23.264ZM65.714,23h3.234V12.088H65.714ZM67.32,10.482a1.7,1.7,0,1,0-1.826-1.694A1.666,1.666,0,0,0,67.32,10.482ZM75,23.264c2.926,0,4.488-1.54,4.488-3.52,0-2-1.562-2.772-2.948-3.278-1.122-.418-2.09-.682-2.09-1.386,0-.55.418-.858,1.254-.858a3.966,3.966,0,0,1,2.288.924l1.452-1.936a6.224,6.224,0,0,0-3.85-1.386c-2.508,0-4.18,1.386-4.18,3.41,0,1.8,1.518,2.706,2.838,3.212,1.122.44,2.222.77,2.222,1.5,0,.572-.418.924-1.386.924a4.7,4.7,0,0,1-2.816-1.144l-1.452,2.024A7.044,7.044,0,0,0,75,23.264Z" transform="translate(133 294)" fill="#fff"/>
  <g id="Group_13513" data-name="Group 13513" transform="translate(40.879 -163.854)">
    <g id="Group_13441-4" data-name="Group 13441" transform="translate(233.121 358.873)">
      <g id="Group_13438-4" data-name="Group 13438" transform="translate(0.607 0.506)">
        <g transform="matrix(1, 0, 0, 1, -274.61, -195.52)" filter="url(#Ellipse_615-3)">
          <circle id="Ellipse_615-8" data-name="Ellipse 615" cx="68.07" cy="68.07" r="68.07" transform="translate(274.61 200.52)" fill="#ef5023"/>
        </g>
      </g>
    </g>
  </g>
  <g id="Group_13514" data-name="Group 13514" transform="translate(151.618 -69.143)">
    <g id="Group_13441-5" data-name="Group 13441" transform="translate(233.121 358.873)">
      <g id="Group_13438-5" data-name="Group 13438" transform="translate(2.687 3.613)">
        <g transform="matrix(1, 0, 0, 1, -387.43, -293.34)" filter="url(#Path_45388)">
          <path id="Path_45388-2" data-name="Path 45388" d="M70.16,0A70.16,70.16,0,1,1,0,70.16,70.16,70.16,0,0,1,70.16,0Z" transform="translate(387.43 293.34)" fill="#f8ac53"/>
        </g>
      </g>
    </g>
  </g>
  <g id="Group_13515" data-name="Group 13515" transform="translate(273.879 -165.854)">
    <g id="Group_13441-6" data-name="Group 13441" transform="translate(233.121 358.873)">
      <g id="Group_13438-6" data-name="Group 13438" transform="translate(0.607 -3.494)">
        <g transform="matrix(1, 0, 0, 1, -507.61, -189.52)" filter="url(#Ellipse_615-4)">
          <circle id="Ellipse_615-9" data-name="Ellipse 615" cx="68.07" cy="68.07" r="68.07" transform="translate(507.61 189.52)" fill="#bad531"/>
        </g>
      </g>
    </g>
  </g>
  <path id="Path_45393" data-name="Path 45393" d="M-12.793.264C-9.361.264-7.381-1.8-7.381-4.18a3.956,3.956,0,0,0-2.838-3.894l-1.848-.748c-1.232-.506-2.178-.814-2.178-1.694,0-.814.7-1.3,1.826-1.3a4.649,4.649,0,0,1,2.97,1.144l1.65-2.046a6.641,6.641,0,0,0-4.62-1.892c-2.992,0-5.1,1.892-5.1,4.268a4.181,4.181,0,0,0,2.882,3.916l1.87.792c1.254.528,2.068.814,2.068,1.716,0,.858-.66,1.386-2,1.386a5.816,5.816,0,0,1-3.542-1.5L-18.095-1.8A7.854,7.854,0,0,0-12.793.264ZM-5.2,0h3.234V-10.912H-5.2ZM-3.6-12.518a1.666,1.666,0,0,0,1.826-1.694A1.678,1.678,0,0,0-3.6-15.906a1.678,1.678,0,0,0-1.826,1.694A1.666,1.666,0,0,0-3.6-12.518ZM5.071.264a7.858,7.858,0,0,0,2.42-.4L6.985-2.486a3.09,3.09,0,0,1-1.034.22c-.858,0-1.408-.506-1.408-1.738V-8.382H7.161v-2.53H4.543v-2.9H1.859l-.374,2.9-1.672.132v2.4h1.5V-3.96C1.309-1.43,2.365.264,5.071.264Zm8.712,0A7.138,7.138,0,0,0,17.655-.968L16.577-2.926a4.4,4.4,0,0,1-2.354.726,2.64,2.64,0,0,1-2.838-2.31h6.534a7.149,7.149,0,0,0,.132-1.43c0-2.97-1.54-5.236-4.642-5.236-2.618,0-5.148,2.178-5.148,5.72A5.319,5.319,0,0,0,13.783.264Zm-2.42-6.908a2.161,2.161,0,0,1,2.112-2.068c1.3,0,1.826.858,1.826,2.068ZM-55.132,15.74c.4-1.43.77-3.1,1.122-4.62h.088c.374,1.5.77,3.19,1.166,4.62l.33,1.32h-3.058ZM-60.324,23h3.3l.88-3.41h4.378l.88,3.41h3.432L-51.942,8.656h-3.894Zm14.168,0h3.234V16.664a2.7,2.7,0,0,1,2.4-2,4.076,4.076,0,0,1,1.188.176l.528-2.794a3.135,3.135,0,0,0-1.3-.22A3.654,3.654,0,0,0-43.208,14H-43.3l-.22-1.914h-2.64Zm13.288.264a5.45,5.45,0,0,0,3.608-1.3l-1.276-2.112a3.336,3.336,0,0,1-1.958.792c-1.408,0-2.442-1.21-2.442-3.1s.99-3.1,2.552-3.1a2.234,2.234,0,0,1,1.474.638l1.518-2.09a4.818,4.818,0,0,0-3.19-1.166,5.484,5.484,0,0,0-5.676,5.72C-38.258,21.174-35.9,23.264-32.868,23.264ZM-27.346,23h3.234V15.63a2.761,2.761,0,0,1,2.024-1.056c.924,0,1.342.484,1.342,2.068V23h3.234V16.224c0-2.728-1.012-4.4-3.388-4.4a5.012,5.012,0,0,0-3.366,1.5l.154-1.958V7.578h-3.234Zm12.562,0h3.234V12.088h-3.234Zm1.606-12.518a1.666,1.666,0,0,0,1.826-1.694,1.678,1.678,0,0,0-1.826-1.694A1.678,1.678,0,0,0-15,8.788,1.666,1.666,0,0,0-13.178,10.482ZM-4.51,23.264a7.857,7.857,0,0,0,2.42-.4L-2.6,20.514a3.09,3.09,0,0,1-1.034.22c-.858,0-1.408-.506-1.408-1.738V14.618H-2.42v-2.53H-5.038v-2.9H-7.722l-.374,2.9-1.672.132v2.4h1.5V19.04C-8.272,21.57-7.216,23.264-4.51,23.264Zm8.712,0a7.138,7.138,0,0,0,3.872-1.232L7,20.074a4.4,4.4,0,0,1-2.354.726A2.64,2.64,0,0,1,1.8,18.49H8.338a7.149,7.149,0,0,0,.132-1.43c0-2.97-1.54-5.236-4.642-5.236C1.21,11.824-1.32,14-1.32,17.544A5.319,5.319,0,0,0,4.2,23.264Zm-2.42-6.908a2.161,2.161,0,0,1,2.112-2.068c1.3,0,1.826.858,1.826,2.068Zm13.684,6.908a5.45,5.45,0,0,0,3.608-1.3L17.8,19.854a3.336,3.336,0,0,1-1.958.792c-1.408,0-2.442-1.21-2.442-3.1s.99-3.1,2.552-3.1a2.234,2.234,0,0,1,1.474.638l1.518-2.09a4.818,4.818,0,0,0-3.19-1.166,5.484,5.484,0,0,0-5.676,5.72C10.076,21.174,12.43,23.264,15.466,23.264Zm9.5,0a7.858,7.858,0,0,0,2.42-.4l-.506-2.354a3.09,3.09,0,0,1-1.034.22c-.858,0-1.408-.506-1.408-1.738V14.618H27.06v-2.53H24.442v-2.9H21.758l-.374,2.9-1.672.132v2.4h1.5V19.04C21.208,21.57,22.264,23.264,24.97,23.264Zm7.5,0A4.253,4.253,0,0,0,35.9,21.482h.066L36.212,23h2.64V12.088H35.618V19.3c-.638.858-1.122,1.21-1.936,1.21-.946,0-1.364-.506-1.364-2.068V12.088H29.084v6.776C29.084,21.592,30.1,23.264,32.472,23.264ZM41.69,23h3.234V16.664a2.7,2.7,0,0,1,2.4-2,4.076,4.076,0,0,1,1.188.176l.528-2.794a3.135,3.135,0,0,0-1.3-.22A3.654,3.654,0,0,0,44.638,14H44.55l-.22-1.914H41.69Zm13.42.264a7.138,7.138,0,0,0,3.872-1.232L57.9,20.074a4.4,4.4,0,0,1-2.354.726,2.64,2.64,0,0,1-2.838-2.31h6.534a7.149,7.149,0,0,0,.132-1.43c0-2.97-1.54-5.236-4.642-5.236-2.618,0-5.148,2.178-5.148,5.72A5.319,5.319,0,0,0,55.11,23.264Zm-2.42-6.908A2.161,2.161,0,0,1,54.8,14.288c1.3,0,1.826.858,1.826,2.068Z" transform="translate(343 257)" fill="#fff"/>
  <path id="Path_45392" data-name="Path 45392" d="M7.524.264c3.872,0,6.512-2.816,6.512-7.5,0-4.664-2.64-7.37-6.512-7.37s-6.512,2.684-6.512,7.37S3.652.264,7.524.264Zm0-2.794c-1.958,0-3.19-1.826-3.19-4.708,0-2.86,1.232-4.576,3.19-4.576s3.19,1.716,3.19,4.576C10.714-4.356,9.482-2.53,7.524-2.53ZM16.478,0h3.234V-7.37a2.761,2.761,0,0,1,2.024-1.056c.924,0,1.342.484,1.342,2.068V0h3.234V-6.776c0-2.728-1.012-4.4-3.388-4.4a5.029,5.029,0,0,0-3.5,1.65h-.088l-.22-1.386h-2.64Zm12.1-4.422H33.99V-6.71H28.578ZM36.63,0h3.234V-4.862h1.782c3.036,0,5.61-1.5,5.61-4.862,0-3.476-2.552-4.62-5.7-4.62H36.63Zm3.234-7.436V-11.77h1.5c1.76,0,2.728.55,2.728,2.046s-.858,2.288-2.64,2.288ZM51.48.264a4.748,4.748,0,0,0,3.168-1.386h.088L54.956,0H57.6V-6.248c0-3.344-1.54-4.928-4.334-4.928A9.02,9.02,0,0,0,48.6-9.746l1.166,2.134a5.8,5.8,0,0,1,2.882-.99,1.509,1.509,0,0,1,1.716,1.584c-4.312.44-6.138,1.694-6.138,3.982A3.141,3.141,0,0,0,51.48.264Zm1.1-2.508c-.77,0-1.254-.33-1.254-1.034,0-.836.748-1.5,3.036-1.8v1.914A2.425,2.425,0,0,1,52.58-2.244ZM64.218,4.642c3.74,0,6.094-1.65,6.094-3.916,0-1.958-1.474-2.772-4.158-2.772h-1.76c-1.21,0-1.65-.264-1.65-.814a.926.926,0,0,1,.4-.814,4.352,4.352,0,0,0,1.32.22c2.4,0,4.29-1.166,4.29-3.674a2.912,2.912,0,0,0-.352-1.43h1.738v-2.354H66.154a5.071,5.071,0,0,0-1.694-.264c-2.354,0-4.51,1.32-4.51,3.938A3.493,3.493,0,0,0,61.424-4.4v.088a2.636,2.636,0,0,0-1.232,2.046A2.093,2.093,0,0,0,61.2-.418V-.33a2.563,2.563,0,0,0-1.562,2.2C59.642,3.806,61.666,4.642,64.218,4.642ZM64.46-5.412c-.858,0-1.5-.616-1.5-1.826C62.964-8.4,63.6-9,64.46-9s1.5.616,1.5,1.76C65.956-6.028,65.318-5.412,64.46-5.412Zm.264,8.03c-1.452,0-2.42-.44-2.42-1.254A1.43,1.43,0,0,1,62.9.286a6.348,6.348,0,0,0,1.54.132H65.56c1.078,0,1.672.176,1.672.858C67.232,2.024,66.176,2.618,64.724,2.618ZM76.56.264A7.138,7.138,0,0,0,80.432-.968L79.354-2.926A4.4,4.4,0,0,1,77-2.2a2.64,2.64,0,0,1-2.838-2.31H80.7a7.149,7.149,0,0,0,.132-1.43c0-2.97-1.54-5.236-4.642-5.236-2.618,0-5.148,2.178-5.148,5.72A5.319,5.319,0,0,0,76.56.264ZM74.14-6.644a2.161,2.161,0,0,1,2.112-2.068c1.3,0,1.826.858,1.826,2.068ZM7.524,23.264c3.872,0,6.512-2.816,6.512-7.5,0-4.664-2.64-7.37-6.512-7.37s-6.512,2.684-6.512,7.37S3.652,23.264,7.524,23.264Zm0-2.794c-1.958,0-3.19-1.826-3.19-4.708,0-2.86,1.232-4.576,3.19-4.576s3.19,1.716,3.19,4.576C10.714,18.644,9.482,20.47,7.524,20.47Zm8.954,6.578h3.234v-3.19L19.6,22.12a3.782,3.782,0,0,0,2.6,1.144c2.354,0,4.6-2.156,4.6-5.9,0-3.366-1.628-5.544-4.268-5.544a4.8,4.8,0,0,0-3.1,1.342h-.088l-.22-1.078h-2.64Zm4.972-6.424a2.509,2.509,0,0,1-1.738-.7V15.454a2.524,2.524,0,0,1,1.87-.99c1.3,0,1.892.99,1.892,2.948C23.474,19.656,22.572,20.624,21.45,20.624Zm11.264,2.64a7.858,7.858,0,0,0,2.42-.4l-.506-2.354a3.09,3.09,0,0,1-1.034.22c-.858,0-1.408-.506-1.408-1.738V14.618H34.8v-2.53H32.186v-2.9H29.5l-.374,2.9-1.672.132v2.4h1.5V19.04C28.952,21.57,30.008,23.264,32.714,23.264ZM36.938,23h3.234V12.088H36.938Zm1.606-12.518a1.7,1.7,0,1,0-1.826-1.694A1.666,1.666,0,0,0,38.544,10.482ZM43.01,23h3.234V15.63a2.848,2.848,0,0,1,1.848-1.056c.924,0,1.342.484,1.342,2.068V23h3.234V15.63a2.887,2.887,0,0,1,1.87-1.056c.924,0,1.342.484,1.342,2.068V23h3.234V16.224c0-2.728-1.056-4.4-3.41-4.4a4.78,4.78,0,0,0-3.432,1.826,3.018,3.018,0,0,0-3.014-1.826,4.568,4.568,0,0,0-3.3,1.672H45.87l-.22-1.408H43.01Zm18.854,0H65.1V12.088H61.864ZM63.47,10.482a1.7,1.7,0,1,0-1.826-1.694A1.666,1.666,0,0,0,63.47,10.482ZM67.342,23H76.1V20.47h-4.73L75.944,13.8V12.088h-8.1v2.53h4.07l-4.576,6.644Zm13.156.264a4.748,4.748,0,0,0,3.168-1.386h.088L83.974,23h2.64V16.752c0-3.344-1.54-4.928-4.334-4.928a9.02,9.02,0,0,0-4.664,1.43l1.166,2.134a5.8,5.8,0,0,1,2.882-.99,1.509,1.509,0,0,1,1.716,1.584c-4.312.44-6.138,1.694-6.138,3.982A3.141,3.141,0,0,0,80.5,23.264Zm1.1-2.508c-.77,0-1.254-.33-1.254-1.034,0-.836.748-1.5,3.036-1.8v1.914A2.425,2.425,0,0,1,81.6,20.756Zm11.55,2.508a7.857,7.857,0,0,0,2.42-.4l-.506-2.354a3.09,3.09,0,0,1-1.034.22c-.858,0-1.408-.506-1.408-1.738V14.618h2.618v-2.53H92.62v-2.9H89.936l-.374,2.9-1.672.132v2.4h1.5V19.04C89.386,21.57,90.442,23.264,93.148,23.264ZM97.372,23h3.234V12.088H97.372Zm1.606-12.518a1.7,1.7,0,1,0-1.826-1.694A1.666,1.666,0,0,0,98.978,10.482Zm9.152,12.782a5.344,5.344,0,0,0,5.3-5.72,5.327,5.327,0,1,0-10.626,0A5.348,5.348,0,0,0,108.13,23.264Zm0-2.618c-1.342,0-2-1.21-2-3.1s.66-3.1,2-3.1c1.32,0,2,1.21,2,3.1S109.45,20.646,108.13,20.646ZM115.654,23h3.234V15.63a2.761,2.761,0,0,1,2.024-1.056c.924,0,1.342.484,1.342,2.068V23h3.234V16.224c0-2.728-1.012-4.4-3.388-4.4a5.029,5.029,0,0,0-3.5,1.65h-.088l-.22-1.386h-2.64Z" transform="translate(392 356)" fill="#fff"/>
  <path id="Path_45391" data-name="Path 45391" d="M7.678.264A5.9,5.9,0,0,0,12.32-1.848L10.6-3.872A3.825,3.825,0,0,1,7.81-2.53C5.7-2.53,4.334-4.246,4.334-7.194c0-2.882,1.562-4.62,3.52-4.62a3.665,3.665,0,0,1,2.53,1.144L12.1-12.738a6.064,6.064,0,0,0-4.312-1.87c-3.63,0-6.776,2.772-6.776,7.524C1.012-2.266,4.048.264,7.678.264Zm9.306,0a4.748,4.748,0,0,0,3.168-1.386h.088L20.46,0H23.1V-6.248c0-3.344-1.54-4.928-4.334-4.928A9.02,9.02,0,0,0,14.1-9.746l1.166,2.134A5.8,5.8,0,0,1,18.15-8.6a1.509,1.509,0,0,1,1.716,1.584c-4.312.44-6.138,1.694-6.138,3.982A3.141,3.141,0,0,0,16.984.264Zm1.1-2.508c-.77,0-1.254-.33-1.254-1.034,0-.836.748-1.5,3.036-1.8v1.914A2.425,2.425,0,0,1,18.084-2.244ZM25.828,0h3.234V-7.37A2.848,2.848,0,0,1,30.91-8.426c.924,0,1.342.484,1.342,2.068V0h3.234V-7.37a2.887,2.887,0,0,1,1.87-1.056c.924,0,1.342.484,1.342,2.068V0h3.234V-6.776c0-2.728-1.056-4.4-3.41-4.4A4.78,4.78,0,0,0,35.09-9.35a3.018,3.018,0,0,0-3.014-1.826,4.568,4.568,0,0,0-3.3,1.672h-.088l-.22-1.408h-2.64ZM44.682,4.048h3.234V.858L47.806-.88A3.782,3.782,0,0,0,50.4.264c2.354,0,4.6-2.156,4.6-5.9,0-3.366-1.628-5.544-4.268-5.544a4.8,4.8,0,0,0-3.1,1.342h-.088l-.22-1.078h-2.64Zm4.972-6.424a2.509,2.509,0,0,1-1.738-.7V-7.546a2.524,2.524,0,0,1,1.87-.99c1.3,0,1.892.99,1.892,2.948C51.678-3.344,50.776-2.376,49.654-2.376ZM59.8.264a4.748,4.748,0,0,0,3.168-1.386h.088L63.272,0h2.64V-6.248c0-3.344-1.54-4.928-4.334-4.928a9.02,9.02,0,0,0-4.664,1.43L58.08-7.612a5.8,5.8,0,0,1,2.882-.99,1.509,1.509,0,0,1,1.716,1.584c-4.312.44-6.138,1.694-6.138,3.982A3.141,3.141,0,0,0,59.8.264Zm1.1-2.508c-.77,0-1.254-.33-1.254-1.034,0-.836.748-1.5,3.036-1.8v1.914A2.425,2.425,0,0,1,60.9-2.244ZM68.64,0h3.234V-10.912H68.64Zm1.606-12.518a1.666,1.666,0,0,0,1.826-1.694,1.678,1.678,0,0,0-1.826-1.694,1.678,1.678,0,0,0-1.826,1.694A1.666,1.666,0,0,0,70.246-12.518Zm8.36,17.16c3.74,0,6.094-1.65,6.094-3.916,0-1.958-1.474-2.772-4.158-2.772h-1.76c-1.21,0-1.65-.264-1.65-.814a.926.926,0,0,1,.4-.814,4.352,4.352,0,0,0,1.32.22c2.4,0,4.29-1.166,4.29-3.674a2.912,2.912,0,0,0-.352-1.43h1.738v-2.354H80.542a5.071,5.071,0,0,0-1.694-.264c-2.354,0-4.51,1.32-4.51,3.938A3.493,3.493,0,0,0,75.812-4.4v.088A2.636,2.636,0,0,0,74.58-2.266,2.093,2.093,0,0,0,75.592-.418V-.33a2.563,2.563,0,0,0-1.562,2.2C74.03,3.806,76.054,4.642,78.606,4.642Zm.242-10.054c-.858,0-1.5-.616-1.5-1.826,0-1.166.638-1.76,1.5-1.76s1.5.616,1.5,1.76C80.344-6.028,79.706-5.412,78.848-5.412Zm.264,8.03c-1.452,0-2.42-.44-2.42-1.254A1.43,1.43,0,0,1,77.286.286a6.348,6.348,0,0,0,1.54.132h1.122c1.078,0,1.672.176,1.672.858C81.62,2.024,80.564,2.618,79.112,2.618ZM86.46,0h3.234V-7.37a2.761,2.761,0,0,1,2.024-1.056c.924,0,1.342.484,1.342,2.068V0h3.234V-6.776c0-2.728-1.012-4.4-3.388-4.4a5.029,5.029,0,0,0-3.5,1.65H89.32l-.22-1.386H86.46ZM1.694,23H4.928V17.83H6.71L9.46,23h3.63L9.834,17.258a4.193,4.193,0,0,0,2.552-4.136c0-3.41-2.486-4.466-5.522-4.466H1.694Zm3.234-7.744V11.23H6.6c1.694,0,2.618.484,2.618,1.892S8.294,15.256,6.6,15.256ZM19.58,23.264a7.138,7.138,0,0,0,3.872-1.232l-1.078-1.958a4.4,4.4,0,0,1-2.354.726,2.64,2.64,0,0,1-2.838-2.31h6.534a7.149,7.149,0,0,0,.132-1.43c0-2.97-1.54-5.236-4.642-5.236-2.618,0-5.148,2.178-5.148,5.72A5.319,5.319,0,0,0,19.58,23.264Zm-2.42-6.908a2.161,2.161,0,0,1,2.112-2.068c1.3,0,1.826.858,1.826,2.068Zm8.932,10.692h3.234v-3.19l-.11-1.738a3.782,3.782,0,0,0,2.6,1.144c2.354,0,4.6-2.156,4.6-5.9,0-3.366-1.628-5.544-4.268-5.544a4.8,4.8,0,0,0-3.1,1.342h-.088l-.22-1.078h-2.64Zm4.972-6.424a2.509,2.509,0,0,1-1.738-.7V15.454a2.524,2.524,0,0,1,1.87-.99c1.3,0,1.892.99,1.892,2.948C33.088,19.656,32.186,20.624,31.064,20.624Zm12.32,2.64a5.344,5.344,0,0,0,5.3-5.72,5.327,5.327,0,1,0-10.626,0A5.348,5.348,0,0,0,43.384,23.264Zm0-2.618c-1.342,0-2-1.21-2-3.1s.66-3.1,2-3.1c1.32,0,2,1.21,2,3.1S44.7,20.646,43.384,20.646ZM50.908,23h3.234V16.664a2.7,2.7,0,0,1,2.4-2,4.076,4.076,0,0,1,1.188.176l.528-2.794a3.135,3.135,0,0,0-1.3-.22A3.654,3.654,0,0,0,53.856,14h-.088l-.22-1.914h-2.64Zm12.958.264a7.857,7.857,0,0,0,2.42-.4l-.506-2.354a3.09,3.09,0,0,1-1.034.22c-.858,0-1.408-.506-1.408-1.738V14.618h2.618v-2.53H63.338v-2.9H60.654l-.374,2.9-1.672.132v2.4h1.5V19.04C60.1,21.57,61.16,23.264,63.866,23.264ZM68.09,23h3.234V12.088H68.09ZM69.7,10.482A1.7,1.7,0,1,0,67.87,8.788,1.666,1.666,0,0,0,69.7,10.482ZM74.162,23H77.4V15.63a2.761,2.761,0,0,1,2.024-1.056c.924,0,1.342.484,1.342,2.068V23H84V16.224c0-2.728-1.012-4.4-3.388-4.4a5.029,5.029,0,0,0-3.5,1.65h-.088l-.22-1.386h-2.64ZM90.64,27.642c3.74,0,6.094-1.65,6.094-3.916,0-1.958-1.474-2.772-4.158-2.772h-1.76c-1.21,0-1.65-.264-1.65-.814a.926.926,0,0,1,.4-.814,4.352,4.352,0,0,0,1.32.22c2.4,0,4.29-1.166,4.29-3.674a2.912,2.912,0,0,0-.352-1.43h1.738V12.088H92.576a5.071,5.071,0,0,0-1.694-.264c-2.354,0-4.51,1.32-4.51,3.938A3.493,3.493,0,0,0,87.846,18.6v.088a2.636,2.636,0,0,0-1.232,2.046,2.093,2.093,0,0,0,1.012,1.848v.088a2.563,2.563,0,0,0-1.562,2.2C86.064,26.806,88.088,27.642,90.64,27.642Zm.242-10.054c-.858,0-1.5-.616-1.5-1.826,0-1.166.638-1.76,1.5-1.76s1.5.616,1.5,1.76C92.378,16.972,91.74,17.588,90.882,17.588Zm.264,8.03c-1.452,0-2.42-.44-2.42-1.254a1.43,1.43,0,0,1,.594-1.078,6.348,6.348,0,0,0,1.54.132h1.122c1.078,0,1.672.176,1.672.858C93.654,25.024,92.6,25.618,91.146,25.618Z" transform="translate(525 251)" fill="#fff"/>
  <path id="Path_45390" data-name="Path 45390" d="M1.694,0H5.918c4.2,0,7.018-2.31,7.018-7.238s-2.816-7.106-7.194-7.106H1.694ZM4.928-2.618v-9.108h.616c2.442,0,4.07,1.056,4.07,4.488s-1.628,4.62-4.07,4.62ZM20.086.264a5.344,5.344,0,0,0,5.3-5.72,5.344,5.344,0,0,0-5.3-5.72,5.348,5.348,0,0,0-5.324,5.72A5.348,5.348,0,0,0,20.086.264Zm0-2.618c-1.342,0-2-1.21-2-3.1s.66-3.1,2-3.1c1.32,0,2,1.21,2,3.1S21.406-2.354,20.086-2.354ZM27.61,0h3.234V-7.37a2.848,2.848,0,0,1,1.848-1.056c.924,0,1.342.484,1.342,2.068V0h3.234V-7.37a2.887,2.887,0,0,1,1.87-1.056c.924,0,1.342.484,1.342,2.068V0h3.234V-6.776c0-2.728-1.056-4.4-3.41-4.4A4.78,4.78,0,0,0,36.872-9.35a3.018,3.018,0,0,0-3.014-1.826,4.568,4.568,0,0,0-3.3,1.672H30.47l-.22-1.408H27.61Zm21.6.264a4.748,4.748,0,0,0,3.168-1.386h.088L52.69,0h2.64V-6.248c0-3.344-1.54-4.928-4.334-4.928a9.02,9.02,0,0,0-4.664,1.43L47.5-7.612A5.8,5.8,0,0,1,50.38-8.6,1.509,1.509,0,0,1,52.1-7.018c-4.312.44-6.138,1.694-6.138,3.982A3.141,3.141,0,0,0,49.214.264Zm1.1-2.508c-.77,0-1.254-.33-1.254-1.034,0-.836.748-1.5,3.036-1.8v1.914A2.425,2.425,0,0,1,50.314-2.244ZM58.058,0h3.234V-10.912H58.058Zm1.606-12.518a1.666,1.666,0,0,0,1.826-1.694,1.678,1.678,0,0,0-1.826-1.694,1.678,1.678,0,0,0-1.826,1.694A1.666,1.666,0,0,0,59.664-12.518ZM64.13,0h3.234V-7.37a2.761,2.761,0,0,1,2.024-1.056c.924,0,1.342.484,1.342,2.068V0h3.234V-6.776c0-2.728-1.012-4.4-3.388-4.4a5.029,5.029,0,0,0-3.5,1.65H66.99l-.22-1.386H64.13ZM5.06,15.74c.4-1.43.77-3.1,1.122-4.62H6.27c.374,1.5.77,3.19,1.166,4.62l.33,1.32H4.708ZM-.132,23h3.3l.88-3.41H8.426L9.306,23h3.432L8.25,8.656H4.356Zm17.446.264a4.253,4.253,0,0,0,3.432-1.782h.066L21.054,23h2.64V12.088H20.46V19.3c-.638.858-1.122,1.21-1.936,1.21-.946,0-1.364-.506-1.364-2.068V12.088H13.926v6.776C13.926,21.592,14.938,23.264,17.314,23.264Zm13.42,0a7.858,7.858,0,0,0,2.42-.4l-.506-2.354a3.09,3.09,0,0,1-1.034.22c-.858,0-1.408-.506-1.408-1.738V14.618h2.618v-2.53H30.206v-2.9H27.522l-.374,2.9-1.672.132v2.4h1.5V19.04C26.972,21.57,28.028,23.264,30.734,23.264ZM34.958,23h3.234V15.63a2.761,2.761,0,0,1,2.024-1.056c.924,0,1.342.484,1.342,2.068V23h3.234V16.224c0-2.728-1.012-4.4-3.388-4.4a5.012,5.012,0,0,0-3.366,1.5l.154-1.958V7.578H34.958Zm17.248.264a5.344,5.344,0,0,0,5.3-5.72,5.327,5.327,0,1,0-10.626,0A5.348,5.348,0,0,0,52.206,23.264Zm0-2.618c-1.342,0-2-1.21-2-3.1s.66-3.1,2-3.1c1.32,0,2,1.21,2,3.1S53.526,20.646,52.206,20.646ZM59.73,23h3.234V16.664a2.7,2.7,0,0,1,2.4-2,4.076,4.076,0,0,1,1.188.176l.528-2.794a3.135,3.135,0,0,0-1.3-.22A3.654,3.654,0,0,0,62.678,14H62.59l-.22-1.914H59.73Zm8.756,0H71.72V12.088H68.486Zm1.606-12.518a1.7,1.7,0,1,0-1.826-1.694A1.666,1.666,0,0,0,70.092,10.482ZM78.76,23.264a7.857,7.857,0,0,0,2.42-.4l-.506-2.354a3.09,3.09,0,0,1-1.034.22c-.858,0-1.408-.506-1.408-1.738V14.618H80.85v-2.53H78.232v-2.9H75.548l-.374,2.9L73.5,12.22v2.4H75V19.04C75,21.57,76.054,23.264,78.76,23.264Zm5.434,4c2.574,0,3.74-1.408,4.774-4.158l3.784-11.022h-3.1l-1.32,4.686c-.264,1.034-.506,2.068-.748,3.1h-.088c-.286-1.078-.55-2.112-.858-3.1l-1.562-4.686H81.818l4.2,10.626-.154.572a1.854,1.854,0,0,1-1.914,1.43,3.553,3.553,0,0,1-.726-.132l-.572,2.464A4.971,4.971,0,0,0,84.194,27.268Z" transform="translate(583 116)" fill="#fff"/>
</svg>
