<svg xmlns="http://www.w3.org/2000/svg" width="205.445" height="337.589" viewBox="0 0 205.445 337.589">
  <g id="seo5" transform="translate(-252.005 -47.232)">
    <g id="Group_13175" data-name="Group 13175" transform="translate(296.099 150.087)">
      <rect id="Rectangle_4672" data-name="Rectangle 4672" width="72.53" height="233.928" transform="translate(0 0.069)" fill="#bad531"/>
      <rect id="Rectangle_4673" data-name="Rectangle 4673" width="49.062" height="233.928" transform="translate(23.467)" fill="#b2cc2a"/>
    </g>
    <g id="Group_13176" data-name="Group 13176" transform="translate(335.918 163.861)">
      <line id="Line_5" data-name="Line 5" x2="14.145" y2="67.009" fill="none" stroke="#012456" stroke-miterlimit="10" stroke-width="1"/>
      <line id="Line_6" data-name="Line 6" x2="14.145" y2="67.009" transform="translate(29.695)" fill="none" stroke="#012456" stroke-miterlimit="10" stroke-width="1"/>
      <line id="Line_7" data-name="Line 7" x1="29.695" transform="translate(9.085 43.602)" fill="none" stroke="#012456" stroke-miterlimit="10" stroke-width="1"/>
      <line id="Line_8" data-name="Line 8" x1="29.695" transform="translate(12.602 58.271)" fill="none" stroke="#012456" stroke-miterlimit="10" stroke-width="1"/>
      <line id="Line_9" data-name="Line 9" x1="29.695" transform="translate(3.016 14.262)" fill="none" stroke="#012456" stroke-miterlimit="10" stroke-width="1"/>
      <line id="Line_10" data-name="Line 10" x1="29.695" transform="translate(6.282 28.932)" fill="none" stroke="#012456" stroke-miterlimit="10" stroke-width="1"/>
    </g>
    <g id="Group_13177" data-name="Group 13177" transform="translate(396.316 287.233)">
      <rect id="Rectangle_4674" data-name="Rectangle 4674" width="61.135" height="96.85" transform="translate(0)" fill="#303338"/>
      <rect id="Rectangle_4675" data-name="Rectangle 4675" width="25.884" height="96.85" transform="translate(0)" fill="#4c4e60"/>
    </g>
    <g id="Group_13178" data-name="Group 13178" transform="translate(252.005 254.217)">
      <rect id="Rectangle_4676" data-name="Rectangle 4676" width="61.135" height="129.867" fill="#0e72cc"/>
      <rect id="Rectangle_4677" data-name="Rectangle 4677" width="48.693" height="129.867" fill="#60bbea"/>
    </g>
    <g id="Group_13179" data-name="Group 13179" transform="translate(290.177 304.127)">
      <rect id="Rectangle_4678" data-name="Rectangle 4678" width="61.135" height="79.957" fill="#efefef"/>
      <rect id="Rectangle_4679" data-name="Rectangle 4679" width="37.973" height="79.957" fill="#fff" opacity="0.9"/>
    </g>
    <g id="Group_13180" data-name="Group 13180" transform="translate(343.681 230.387)">
      <rect id="Rectangle_4680" data-name="Rectangle 4680" width="61.135" height="153.697" transform="translate(0 0.044)" fill="#bcbcbc" opacity="0.9"/>
      <rect id="Rectangle_4681" data-name="Rectangle 4681" width="39.203" height="153.697" transform="translate(21.932)" fill="#c6c6c6" opacity="0.9"/>
    </g>
    <g id="Group_13186" data-name="Group 13186" transform="translate(302.994 235.218)">
      <g id="Group_13181" data-name="Group 13181" transform="translate(0 18.999)">
        <line id="Line_11" data-name="Line 11" x1="27.583" y2="130.5" transform="translate(29.695)" fill="none" stroke="#f5ae3d" stroke-miterlimit="10" stroke-width="1"/>
        <line id="Line_12" data-name="Line 12" x1="27.583" y2="130.5" fill="none" stroke="#f5ae3d" stroke-miterlimit="10" stroke-width="1"/>
        <line id="Line_13" data-name="Line 13" x2="29.695" transform="translate(9.065 87.611)" fill="none" stroke="#f5ae3d" stroke-miterlimit="10" stroke-width="1"/>
        <line id="Line_14" data-name="Line 14" x2="29.695" transform="translate(5.968 102.28)" fill="none" stroke="#f5ae3d" stroke-miterlimit="10" stroke-width="1"/>
        <line id="Line_15" data-name="Line 15" x2="29.695" transform="translate(2.665 116.95)" fill="none" stroke="#f5ae3d" stroke-miterlimit="10" stroke-width="1"/>
        <line id="Line_16" data-name="Line 16" x2="29.695" transform="translate(18.498 43.602)" fill="none" stroke="#f5ae3d" stroke-miterlimit="10" stroke-width="1"/>
        <line id="Line_17" data-name="Line 17" x2="29.695" transform="translate(14.981 58.271)" fill="none" stroke="#f5ae3d" stroke-miterlimit="10" stroke-width="1"/>
        <line id="Line_18" data-name="Line 18" x2="29.695" transform="translate(12.736 72.941)" fill="none" stroke="#f5ae3d" stroke-miterlimit="10" stroke-width="1"/>
        <line id="Line_19" data-name="Line 19" x2="29.695" transform="translate(24.567 14.263)" fill="none" stroke="#f5ae3d" stroke-miterlimit="10" stroke-width="1"/>
        <line id="Line_20" data-name="Line 20" x2="29.695" transform="translate(21.301 28.932)" fill="none" stroke="#f5ae3d" stroke-miterlimit="10" stroke-width="1"/>
      </g>
      <g id="Group_13185" data-name="Group 13185" transform="translate(22.828)">
        <path id="Path_44943" data-name="Path 44943" d="M350.04,273.786s4.932-7.4,13.236-10.5v2.7s-6.392,4-6.55,7.991S350.04,273.786,350.04,273.786Z" transform="translate(-345.417 -263.289)" fill="#efefef"/>
        <g id="Group_13184" data-name="Group 13184">
          <path id="Path_44944" data-name="Path 44944" d="M383.546,266.991c-.9.9-2.121,1.146-2.723.544s-.358-1.82.545-2.722,2.12-1.146,2.722-.545S384.448,266.089,383.546,266.991Z" transform="translate(-349.374 -263.373)" fill="#eba883"/>
          <path id="Path_44945" data-name="Path 44945" d="M352.893,272.722c-1.342,1.1-3.62.55-5.088-1.236s-1.572-4.128-.231-5.231,4.357-.726,5.826,1.061l-.51.473C354.137,269.529,354.16,271.679,352.893,272.722Z" transform="translate(-344.974 -263.594)" fill="#eba883"/>
          <path id="Path_44946" data-name="Path 44946" d="M353.165,275.873l-3.125-.784.1-1.142,2.022-.626Z" transform="translate(-345.417 -264.592)" fill="#eba883"/>
          <path id="Path_44947" data-name="Path 44947" d="M349.634,274.189a67.245,67.245,0,0,0-2.719,13.414l9.123-.043a16.759,16.759,0,0,1,2.032-5.72c1.392-2.084,1.691-3.176,7.854-4.626s11.625-9.006,11.625-9.006l-1.45-1.813s-6.164,6.888-12.145,7.614A95.111,95.111,0,0,1,349.634,274.189Z" transform="translate(-345.011 -263.692)" fill="#fff"/>
          <path id="Path_44948" data-name="Path 44948" d="M349.452,272.643a9.221,9.221,0,0,1-3.82-2.157,2.96,2.96,0,0,1,.037-4.295l3.047-2.9.4.554a1.832,1.832,0,0,1-.111,2.294l-.4.452a3.352,3.352,0,0,0-.4,3.9Z" transform="translate(-344.727 -263.289)" fill="#001524"/>
          <g id="Group_13182" data-name="Group 13182" transform="translate(0.845 23.911)">
            <path id="Path_44949" data-name="Path 44949" d="M351.4,290.77h-4.644s-2.708,5.924.536,9.62c0,0,.532,8.15.142,17.424-.042,1-.26,5.6-.255,7.745h3.828C352.338,317.034,354.863,297.206,351.4,290.77Z" transform="translate(-345.698 -290.77)" fill="#001e42"/>
          </g>
          <g id="Group_13183" data-name="Group 13183" transform="translate(1.303 23.867)">
            <path id="Path_44950" data-name="Path 44950" d="M365.3,300.447c-1.8-3.4-5.039-8.167-9.348-9.727l-9.123.043s-3.922,9.117,8.267,9.117c5.113,0,6.074,3.215,6.123,6.771l.151,4.126h3.828S366.059,301.893,365.3,300.447Z" transform="translate(-346.224 -290.72)" fill="#012456"/>
          </g>
        </g>
      </g>
    </g>
    <g id="Group_13188" data-name="Group 13188" transform="translate(342.266 279.142)">
      <path id="Path_44953" data-name="Path 44953" d="M363.626,317h8.43v-.854h0a.854.854,0,0,0-.854-.854h0a3.785,3.785,0,0,1-1.818-.465l-1.929-1.055h-3.828Z" transform="translate(-363.626 -313.772)" fill="#001524"/>
      <rect id="Rectangle_4682" data-name="Rectangle 4682" width="8.43" height="0.672" transform="translate(0 3.229)" fill="#707070"/>
    </g>
    <g id="Group_13189" data-name="Group 13189" transform="translate(328.149 293.918)">
      <path id="Path_44954" data-name="Path 44954" d="M347.4,333.983h8.43v-.854h0a.854.854,0,0,0-.854-.854h0a3.8,3.8,0,0,1-1.819-.465l-1.929-1.056H347.4Z" transform="translate(-347.401 -330.754)" fill="#001524"/>
      <rect id="Rectangle_4683" data-name="Rectangle 4683" width="8.43" height="0.672" transform="translate(0 3.229)" fill="#707070"/>
    </g>
    <g id="Group_13196" data-name="Group 13196" transform="translate(308.941 47.232)">
      <g id="Group_13190" data-name="Group 13190" transform="translate(7.792 50.66)">
        <path id="Path_44955" data-name="Path 44955" d="M353.994,107.04s-9.026,2.571-9.546,2.4-9.625-3.9-10.106-2.885c-.808,1.7,6.383,6.8,10.518,5.57a89.212,89.212,0,0,0,9.8-3.879Z" transform="translate(-334.28 -105.576)" fill="#eba883"/>
        <path id="Path_44956" data-name="Path 44956" d="M354.845,108.627c.256,1.1,1.675,1.555,3.171,1.023s2.5-1.852,2.244-2.949-1.675-1.555-3.17-1.022S354.589,107.53,354.845,108.627Z" transform="translate(-336.947 -105.457)" fill="#eba883"/>
      </g>
      <g id="Group_13192" data-name="Group 13192" transform="translate(27.274)">
        <path id="Path_44957" data-name="Path 44957" d="M427.738,72.148,397.325,83.907V58.064Z" transform="translate(-361.953 -48.639)" fill="#e8551a"/>
        <path id="Path_44958" data-name="Path 44958" d="M397.325,86.01l5.912-10.874-5.912-.884Z" transform="translate(-361.953 -50.742)" fill="#d63700"/>
        <g id="Group_13191" data-name="Group 13191">
          <path id="Path_44959" data-name="Path 44959" d="M397.956,71.625l-41.284,1.45V47.232L397.956,52.6Z" transform="translate(-356.671 -47.232)" fill="#f9662b"/>
          <line id="Line_21" data-name="Line 21" y2="102.924" fill="none" stroke="#f5ae3d" stroke-miterlimit="10" stroke-width="1"/>
        </g>
      </g>
      <g id="Group_13195" data-name="Group 13195" transform="translate(0 39.148)">
        <path id="Path_44960" data-name="Path 44960" d="M354.053,115.3c0,1.142,1.262,2.066,2.817,2.066s2.817-.925,2.817-2.066-1.262-2.066-2.817-2.066S354.053,114.157,354.053,115.3Z" transform="translate(-329.057 -94.954)" fill="#eba883"/>
        <rect id="Rectangle_4684" data-name="Rectangle 4684" width="3.238" height="4.867" transform="matrix(-0.99, -0.139, 0.139, -0.99, 11.731, 10.578)" fill="#eba883"/>
        <path id="Path_44961" data-name="Path 44961" d="M337.862,101.612c-1.657-.52-2.438-2.73-1.745-4.937s2.6-3.573,4.254-3.052,2.99,3.252,2.3,5.458l-.676-.168C341.215,100.909,339.428,102.1,337.862,101.612Z" transform="translate(-326.694 -92.392)" fill="#eba883"/>
        <path id="Path_44962" data-name="Path 44962" d="M342.762,123.452H330.59s.7-17,2.307-19.587c.9-1.456,4.976-.633,7.123,2.28C341.728,108.461,342.012,113.213,342.762,123.452Z" transform="translate(-326.009 -93.646)" fill="#003c77"/>
        <path id="Path_44963" data-name="Path 44963" d="M353.014,113.947s-9.378-.35-9.818-.676-7.945-6.687-8.716-5.873c-1.294,1.365,3.963,8.445,8.277,8.554a89.367,89.367,0,0,0,10.52-.653Z" transform="translate(-326.488 -94.187)" fill="#eba883"/>
        <path id="Path_44964" data-name="Path 44964" d="M342.329,126.482s1.02,12.768-6.709,22.157c-2.254,2.738-4.908,5.366-4.908,5.366l-3.454-1.651,7.914-15.071a30.324,30.324,0,0,0,.364-4.444c.01-2.327-.3-4.972-1.571-6.358Z" transform="translate(-325.576 -96.676)" fill="#001e42"/>
        <path id="Path_44965" data-name="Path 44965" d="M330.648,126.482s-1.383,4.648,2.725,6.178a8.353,8.353,0,0,1,3.424,2.026c1.952,2.248,2.329,4.763,2.329,7.741l-.272,14.126h3.828l2.082-16.132s.385-5.066-2.073-8.917c-2.57-4.027-4.443-5.02-4.443-5.02Z" transform="translate(-325.987 -96.676)" fill="#012456"/>
        <path id="Path_44966" data-name="Path 44966" d="M335.782,98.4a9.212,9.212,0,0,1,.6-4.345,2.958,2.958,0,0,1,4.006-1.547l3.821,1.764-.367.579a1.832,1.832,0,0,1-2.173.741l-.569-.207a3.351,3.351,0,0,0-3.77,1.067Z" transform="translate(-326.676 -92.225)" fill="#001524"/>
        <path id="Path_44967" data-name="Path 44967" d="M339.665,110.522l-1.8,3.1-3.308-2.748c-2.027-2.017-1.351-5.116,2.168-2.736Z" transform="translate(-326.377 -94.181)" fill="#09468e"/>
        <g id="Group_13193" data-name="Group 13193" transform="translate(12.866 59.876)">
          <path id="Path_44968" data-name="Path 44968" d="M340.112,164.27h8.43v-.854h0a.854.854,0,0,0-.854-.854h0a3.787,3.787,0,0,1-1.818-.465l-1.929-1.055h-3.828Z" transform="translate(-340.112 -161.042)" fill="#001524"/>
          <rect id="Rectangle_4685" data-name="Rectangle 4685" width="8.43" height="0.672" transform="translate(0 3.228)" fill="#707070"/>
        </g>
        <g id="Group_13194" data-name="Group 13194" transform="translate(0 55.679)">
          <path id="Path_44969" data-name="Path 44969" d="M325.658,159.131l7.606,3.634.368-.77h0a.855.855,0,0,0-.4-1.139h0a3.787,3.787,0,0,1-1.44-1.2l-1.285-1.784-3.454-1.651Z" transform="translate(-325.368 -156.218)" fill="#001524"/>
          <rect id="Rectangle_4686" data-name="Rectangle 4686" width="8.43" height="0.672" transform="matrix(0.902, 0.431, -0.431, 0.902, 0.29, 2.913)" fill="#707070"/>
        </g>
      </g>
    </g>
    <g id="Group_13197" data-name="Group 13197" transform="translate(335.098 342.488)">
      <path id="Path_44970" data-name="Path 44970" d="M359.617,400.118c-1.173-.5-1.852-1.543-1.517-2.326s1.557-1.008,2.73-.505,1.852,1.544,1.517,2.326S360.79,400.621,359.617,400.118Z" transform="translate(-355.729 -387.934)" fill="#eba883"/>
      <path id="Path_44971" data-name="Path 44971" d="M381.276,396.173s-4.961,5.214-7.406,5.127-11.036-3.147-11.036-3.147l-.952,2.518s11.54,5.363,16.058,3.252a30.685,30.685,0,0,0,7.919-5.588Z" transform="translate(-356.231 -387.824)" fill="#003c77"/>
      <path id="Path_44972" data-name="Path 44972" d="M357.369,408.6c-1.251-.251-2.129-1.132-1.961-1.966s1.317-1.306,2.568-1.055,2.129,1.131,1.961,1.966S358.62,408.848,357.369,408.6Z" transform="translate(-355.387 -389.037)" fill="#eba883"/>
      <path id="Path_44973" data-name="Path 44973" d="M378.774,396.253c1.1-1.342.55-3.619-1.236-5.088s-4.128-1.572-5.231-.231-.726,4.357,1.061,5.826l.474-.509C375.581,397.5,377.731,397.521,378.774,396.253Z" transform="translate(-357.505 -387.021)" fill="#eba883"/>
      <path id="Path_44974" data-name="Path 44974" d="M382.883,395.759l4.328,2.051s9.06,3.74,10.058,9.974l-9.06,1.247-2.992-2.576s-2.968.933-4.685-1.445S382.883,395.759,382.883,395.759Z" transform="translate(-358.599 -387.77)" fill="#09468e"/>
      <path id="Path_44975" data-name="Path 44975" d="M380.245,395.759s-6.167,9.6-8.578,10.017-11.447-.819-11.447-.819l-.416,2.66s12.394,2.885,16.384-.107,8.385-9.7,8.385-9.7Z" transform="translate(-355.961 -387.77)" fill="#09468e"/>
      <path id="Path_44976" data-name="Path 44976" d="M398.365,409.579s2.057,5.7-1.195,7.832-3.051,7.668-3.051,7.668l9.152-1.952v3.641l-11.521,3.488-2.489-2.248s-2.98-14.643,3.206-17.617Z" transform="translate(-359.695 -389.565)" fill="#001e42"/>
      <path id="Path_44977" data-name="Path 44977" d="M396.935,409.579s1.3,8.464-6.968,7.511-4.009,2.656-4.009,2.656l2.594,3.153a12.961,12.961,0,0,1,2.535,4.977l.067.258h-3.641S367.486,413.54,384.2,412.3c4.158-.54,3.678-1.47,3.678-1.47Z" transform="translate(-358.266 -389.565)" fill="#012456"/>
      <path id="Path_44978" data-name="Path 44978" d="M377.467,390.477a3.613,3.613,0,1,1-3.316-3.888A3.612,3.612,0,0,1,377.467,390.477Z" transform="translate(-357.318 -386.577)" fill="#001524"/>
      <path id="Path_44979" data-name="Path 44979" d="M382.567,391.7a2.527,2.527,0,1,1-2.319-2.719A2.527,2.527,0,0,1,382.567,391.7Z" transform="translate(-358.263 -386.888)" fill="#001524"/>
      <path id="Path_44980" data-name="Path 44980" d="M382.847,395.609l-2.623-1-.391,2.245,1.313,1.28Z" transform="translate(-358.563 -387.62)" fill="#eba883"/>
      <path id="Path_44981" data-name="Path 44981" d="M391.989,433.975h-1.56l.016-.723h-.133a3.783,3.783,0,0,0-1.572.342l-.835.381h-3.12a.812.812,0,0,1-.812-.812h0a.812.812,0,0,1,.812-.812h0a3.6,3.6,0,0,0,1.73-.443l1.834-1h3.641Z" transform="translate(-359.101 -392.336)" fill="#001524"/>
      <path id="Path_44982" data-name="Path 44982" d="M408.542,425.15v1.56l-.722-.016v.133a3.8,3.8,0,0,0,.341,1.572l.382.835v3.12a.812.812,0,0,1-.813.812h0a.812.812,0,0,1-.812-.812h0a3.606,3.606,0,0,0-.442-1.73l-1-1.834V425.15Z" transform="translate(-361.894 -391.588)" fill="#001524"/>
    </g>
    <g id="Group_13198" data-name="Group 13198" transform="translate(272.246 188.04)">
      <path id="Path_44983" data-name="Path 44983" d="M294.947,219.048c-1.538.806-3.655-.2-4.728-2.251s-.694-4.363.844-5.167,4.414.181,5.486,2.229l-.6.36C296.818,216.178,296.4,218.287,294.947,219.048Z" transform="translate(-283.99 -209.363)" fill="#eba883"/>
      <path id="Path_44984" data-name="Path 44984" d="M298.951,222.294s6.8,3.191,4.637,13.243-3.2,14.092-3.2,14.092l-1.441-12.147Z" transform="translate(-285.204 -210.785)" fill="#012456"/>
      <path id="Path_44985" data-name="Path 44985" d="M287.314,237.387h10.972s2.034-14.272-.847-15.188-7.244-.786-8.684,0S287.314,237.387,287.314,237.387Z" transform="translate(-283.692 -210.689)" fill="#001e42"/>
      <path id="Path_44986" data-name="Path 44986" d="M288.214,222.294s-6.8,3.191-4.637,13.243,3.2,14.092,3.2,14.092V237.482Z" transform="translate(-283.151 -210.785)" fill="#012456"/>
      <path id="Path_44987" data-name="Path 44987" d="M287.463,239.75h5.913l-.084,37.073h-2.018S288.774,248.861,287.463,239.75Z" transform="translate(-283.711 -213.053)" fill="#eba883"/>
      <path id="Path_44988" data-name="Path 44988" d="M294.14,239.75l1.513,37.073h2.018s.552-30.2,1.495-37.073Z" transform="translate(-284.579 -213.053)" fill="#ebbca3"/>
      <path id="Path_44989" data-name="Path 44989" d="M293.764,223.673h0a1.483,1.483,0,0,1-1.483-1.483v-3.609a1.483,1.483,0,0,1,1.483-1.483h0a1.483,1.483,0,0,1,1.483,1.483v3.609A1.483,1.483,0,0,1,293.764,223.673Z" transform="translate(-284.337 -210.11)" fill="#eba883"/>
      <path id="Path_44990" data-name="Path 44990" d="M294.423,211.054a1.989,1.989,0,1,1-1.988-1.988A1.988,1.988,0,0,1,294.423,211.054Z" transform="translate(-284.099 -209.066)" fill="#001524"/>
      <path id="Path_44991" data-name="Path 44991" d="M291.687,213.114a1.988,1.988,0,1,1-1.988-1.988A1.988,1.988,0,0,1,291.687,213.114Z" transform="translate(-283.743 -209.334)" fill="#001524"/>
      <path id="Path_44992" data-name="Path 44992" d="M292.308,216.8a1.989,1.989,0,1,1-1.989-1.988A1.99,1.99,0,0,1,292.308,216.8Z" transform="translate(-283.824 -209.813)" fill="#001524"/>
      <path id="Path_44993" data-name="Path 44993" d="M293.329,284.766h-1.085l.01-.5h-.092a2.639,2.639,0,0,0-1.094.238l-.58.265h-2.17a.564.564,0,0,1-.565-.565h0a.564.564,0,0,1,.565-.565h0a2.5,2.5,0,0,0,1.2-.308l1.791-.969h2.018Z" transform="translate(-283.749 -218.588)" fill="#001524"/>
      <path id="Path_44994" data-name="Path 44994" d="M295.879,284.766h1.086l-.011-.5h.092a2.633,2.633,0,0,1,1.094.238l.581.265h2.17a.565.565,0,0,0,.565-.565h0a.565.565,0,0,0-.565-.565h0a2.505,2.505,0,0,1-1.2-.308l-1.791-.969h-2.018Z" transform="translate(-284.805 -218.588)" fill="#001524"/>
      <path id="Path_44995" data-name="Path 44995" d="M298.565,260.231H287.189c-2.153-6.62-1.148-13.553-.057-20.481H298.1C300.122,247.748,300.855,253.887,298.565,260.231Z" transform="translate(-283.511 -213.053)" fill="#001524"/>
      <path id="Path_44996" data-name="Path 44996" d="M292.147,221.559l-.9.118.9,3.416,1.483-.84,1.483.84,1.148-3.3s-.472-.077-.629-.1c-.13-.016-.519-.047-.519-.047l-1.452,2.2Z" transform="translate(-284.203 -210.689)" fill="#fff"/>
    </g>
  </g>
</svg>
