<svg id="smmp-2" xmlns="http://www.w3.org/2000/svg" width="282.192" height="408.845" viewBox="0 0 282.192 408.845">
  <g id="Group_12654" data-name="Group 12654" transform="translate(-415.77 -237.245)">
    <g id="Group_12381" data-name="Group 12381" transform="translate(415.77 254.098)">
      <g id="Group_12379" data-name="Group 12379" transform="translate(0 0)">
        <g id="Group_12374" data-name="Group 12374" transform="translate(0 0)">
          <g id="Group_1310" data-name="Group 1310" transform="translate(65.962 113.443)">
            <rect id="Rectangle_402" data-name="Rectangle 402" width="102.548" height="48.25" rx="3.463" transform="translate(0 0)" fill="#edf5fc"/>
            <rect id="Rectangle_403" data-name="Rectangle 403" width="30.354" height="2.702" transform="translate(13.555 7.931)" fill="#edf5fc"/>
            <rect id="Rectangle_404" data-name="Rectangle 404" width="15.177" height="2.703" transform="translate(13.555 13.744)" fill="#ff5722"/>
            <path id="Path_4159" data-name="Path 4159" d="M-5906.3,324.634h-69.468l9.785-7.417a1.555,1.555,0,0,0,1.1.452,1.552,1.552,0,0,0,1.241-.625l6.221,3.711a1.663,1.663,0,0,0-.023.234,1.559,1.559,0,0,0,1.559,1.559,1.559,1.559,0,0,0,1.56-1.559,1.555,1.555,0,0,0-.136-.633l14.5-14.656a1.55,1.55,0,0,0,.855.257,1.545,1.545,0,0,0,.785-.219l5.332,6.522a1.549,1.549,0,0,0-.3.91,1.559,1.559,0,0,0,1.56,1.56,1.56,1.56,0,0,0,1.56-1.56,1.542,1.542,0,0,0-.036-.328l13.8-10.061a1.546,1.546,0,0,0,1.01.38,1.56,1.56,0,0,0,1.56-1.559,1.559,1.559,0,0,0-1.56-1.56,1.56,1.56,0,0,0-1.561,1.56,1.557,1.557,0,0,0,.14.638l-13.681,9.981a1.553,1.553,0,0,0-1.23-.611,1.544,1.544,0,0,0-.752.2l-5.341-6.533a1.551,1.551,0,0,0,.274-.881,1.56,1.56,0,0,0-1.56-1.56,1.56,1.56,0,0,0-1.56,1.56,1.544,1.544,0,0,0,.234.812l-14.448,14.6a1.543,1.543,0,0,0-1.009-.38,1.557,1.557,0,0,0-1.289.683l-6.182-3.687a1.554,1.554,0,0,0,.032-.315,1.56,1.56,0,0,0-1.56-1.56,1.561,1.561,0,0,0-1.561,1.56,1.55,1.55,0,0,0,.1.531l-10.017,7.593V294.042h-.679v30.592h-5.754v.679h5.754v3.566h.679v-3.566h70.064Z" transform="translate(5985.042 -285.988)" fill="#9fc2f1"/>
          </g>
          <g id="Group_1329" data-name="Group 1329">
            <rect id="Rectangle_428" data-name="Rectangle 428" width="144.539" height="47.129" rx="13.165" transform="translate(0 0)" fill="#d9e6fd"/>
            <path id="Path_4182" data-name="Path 4182" d="M-5887.647,163.3h-130.965a6.787,6.787,0,0,0-6.787,6.787v4.357h144.539v-4.357A6.787,6.787,0,0,0-5887.647,163.3Z" transform="translate(6025.398 -163.301)" fill="#f8b018"/>
            <path id="Path_46722" data-name="Path 46722" d="M11.041,0A11.041,11.041,0,1,1,0,11.041,11.041,11.041,0,0,1,11.041,0Z" transform="translate(10.335 18.676)" fill="#fff"/>
            <rect id="Rectangle_429" data-name="Rectangle 429" width="94.019" height="2.974" transform="translate(38.364 19.585)" fill="#edf5fc"/>
            <rect id="Rectangle_430" data-name="Rectangle 430" width="94.019" height="2.974" transform="translate(38.364 28.243)" fill="#edf5fc"/>
            <rect id="Rectangle_431" data-name="Rectangle 431" width="35.257" height="2.974" transform="translate(38.364 36.901)" fill="#ffddd3"/>
            <path id="Path_4183" data-name="Path 4183" d="M-6002.468,172.806a1.412,1.412,0,0,1-1.412,1.412,1.413,1.413,0,0,1-1.413-1.412,1.412,1.412,0,0,1,1.413-1.411A1.411,1.411,0,0,1-6002.468,172.806Z" transform="translate(6015.627 -167.235)" fill="#fff"/>
            <path id="Path_4184" data-name="Path 4184" d="M-5990.536,172.806a1.412,1.412,0,0,1-1.412,1.412,1.412,1.412,0,0,1-1.412-1.412,1.412,1.412,0,0,1,1.412-1.411A1.411,1.411,0,0,1-5990.536,172.806Z" transform="translate(6009.828 -167.235)" fill="#fff"/>
            <path id="Path_4185" data-name="Path 4185" d="M-5978.6,172.806a1.412,1.412,0,0,1-1.412,1.412,1.412,1.412,0,0,1-1.412-1.412,1.411,1.411,0,0,1,1.412-1.411A1.411,1.411,0,0,1-5978.6,172.806Z" transform="translate(6004.03 -167.235)" fill="#fff"/>
          </g>
          <g id="Group_12380" data-name="Group 12380" transform="translate(49.977 80.505)">
            <g id="Group_3414" data-name="Group 3414" transform="translate(0)">
              <path id="Rectangle_1480" data-name="Rectangle 1480" d="M1.174,0H147.415a1.174,1.174,0,0,1,1.174,1.174V178.956a0,0,0,0,1,0,0H0a0,0,0,0,1,0,0V1.174A1.174,1.174,0,0,1,1.174,0Z" fill="#fff"/>
              <path id="Path_13591" data-name="Path 13591" d="M13657.918,9621.794v-17.218a5.148,5.148,0,0,0-5.147-5.147h-138.293a5.148,5.148,0,0,0-5.148,5.147v17.218Z" transform="translate(-13509.329 -9599.429)" fill="#f8b018"/>
              <rect id="Rectangle_1481" data-name="Rectangle 1481" width="105.197" height="45.199" transform="translate(21.414 26.515)" fill="#dbeaf9"/>
              <rect id="Rectangle_4510" data-name="Rectangle 4510" width="38.698" height="7.913" transform="translate(77.151 92.246)" fill="#dbeaf9"/>
              <rect id="Rectangle_4512" data-name="Rectangle 4512" width="96.409" height="7.913" transform="translate(21.414 142.217)" fill="#dbeaf9"/>
              <rect id="Rectangle_4511" data-name="Rectangle 4511" width="38.698" height="7.913" transform="translate(77.151 104.162)" fill="#dbeaf9"/>
              <rect id="Rectangle_4513" data-name="Rectangle 4513" width="96.409" height="7.913" transform="translate(21.414 154.133)" fill="#dbeaf9"/>
              <path id="Path_13592" data-name="Path 13592" d="M13542.231,9613.859a1.495,1.495,0,1,1-1.494-1.494A1.493,1.493,0,0,1,13542.231,9613.859Z" transform="translate(-13527.744 -9607.393)" fill="#fff"/>
              <path id="Path_13593" data-name="Path 13593" d="M13555.191,9613.859a1.5,1.5,0,1,1-1.5-1.494A1.493,1.493,0,0,1,13555.191,9613.859Z" transform="translate(-13535.722 -9607.393)" fill="#fff"/>
              <path id="Path_13594" data-name="Path 13594" d="M13568.15,9613.859a1.5,1.5,0,1,1-1.5-1.494A1.493,1.493,0,0,1,13568.15,9613.859Z" transform="translate(-13543.699 -9607.393)" fill="#fff"/>
              <path id="Path_13595" data-name="Path 13595" d="M13871.955,9599.429h-6.578a5.147,5.147,0,0,1,5.148,5.147v173.809h6.577V9604.576A5.147,5.147,0,0,0,13871.955,9599.429Z" transform="translate(-13728.515 -9599.429)" fill="#414042" opacity="0.2"/>
              <rect id="Rectangle_1482" data-name="Rectangle 1482" width="95.471" height="4.303" transform="translate(29.383 12.994)" fill="#fafcff"/>
            </g>
            <path id="Path_13597" data-name="Path 13597" d="M13699.9,9740.951l53.356,14.157Z" transform="translate(-13626.646 -9686.551)" fill="#ff5722"/>
            <path id="Path_13598" data-name="Path 13598" d="M13665.061,9815.745a23.577,23.577,0,1,1-23.577-23.577A23.577,23.577,0,0,1,13665.061,9815.745Z" transform="translate(-13598.85 -9709.624)" fill="#d8f0ff"/>
          </g>
        </g>
        <g id="Group_12377" data-name="Group 12377" transform="translate(151.435 42.659)">
          <path id="Path_24" data-name="Path 24" d="M285.043,90.83H200.565a6.684,6.684,0,0,0-6.685,6.685v49.346a6.684,6.684,0,0,0,6.685,6.685h5.106v14.531L220.2,153.546h64.841a6.684,6.684,0,0,0,6.685-6.685V97.515A6.684,6.684,0,0,0,285.043,90.83Z" transform="translate(-193.88 -90.83)" fill="#d1e1f2"/>
          <path id="Path_25" data-name="Path 25" d="M319.677,118.334h-18.7v35.591a6.684,6.684,0,0,1-6.685,6.685H247.081v4.867a6.685,6.685,0,0,0,6.685,6.685h55.089l8.451,8.451v-8.451h2.371a6.685,6.685,0,0,0,6.685-6.685V125.019A6.684,6.684,0,0,0,319.677,118.334Z" transform="translate(-199.441 -93.705)" fill="#ebeae4"/>
          <rect id="Rectangle_47" data-name="Rectangle 47" width="76.592" height="5.222" transform="translate(11.081 11.722)" fill="#fff"/>
          <rect id="Rectangle_48" data-name="Rectangle 48" width="76.592" height="5.222" transform="translate(11.081 22.018)" fill="#fff"/>
          <rect id="Rectangle_49" data-name="Rectangle 49" width="76.592" height="5.222" transform="translate(11.081 32.314)" fill="#fff"/>
          <rect id="Rectangle_50" data-name="Rectangle 50" width="35.764" height="5.222" transform="translate(11.081 42.611)" fill="#fff"/>
        </g>
      </g>
    </g>
    <g id="Group_6" data-name="Group 6" transform="translate(518.317 374.516)">
      <path id="Path_19" data-name="Path 19" d="M14122.9,1008.6h-89.192a1.371,1.371,0,0,1-1.388-1.609l6.211-45.216a1.906,1.906,0,0,1,1.829-1.608h89.193a1.369,1.369,0,0,1,1.387,1.608l-6.211,45.216A1.906,1.906,0,0,1,14122.9,1008.6Z" transform="translate(-14032.308 -960.164)" fill="#eef4fe"/>
      <path id="Path_20" data-name="Path 20" d="M14129.557,960.164h-.259l-6.206,45.183a1.906,1.906,0,0,1-1.829,1.608h-88.935l0,.033a1.371,1.371,0,0,0,1.388,1.609h89.192a1.906,1.906,0,0,0,1.829-1.609l6.211-45.216A1.369,1.369,0,0,0,14129.557,960.164Z" transform="translate(-14032.308 -960.164)" fill="#dbeaf9"/>
      <path id="Path_21" data-name="Path 21" d="M14062.184,972.344h-5.373l.375-2.726h5.373Z" transform="translate(-14046.65 -965.698)" fill="#dbeaf9"/>
      <path id="Path_22" data-name="Path 22" d="M14059.688,990.5h-5.372l.375-2.726h5.371Z" transform="translate(-14045.189 -976.326)" fill="#dbeaf9"/>
      <path id="Path_23" data-name="Path 23" d="M14057.2,1008.656h-5.373l.375-2.726h5.372Z" transform="translate(-14043.73 -986.953)" fill="#dbeaf9"/>
      <path id="Path_24-2" data-name="Path 24" d="M14054.7,1026.812h-5.371l.374-2.726h5.372Z" transform="translate(-14042.272 -997.581)" fill="#dbeaf9"/>
      <path id="Path_25-2" data-name="Path 25" d="M14052.208,1044.968h-5.372l.374-2.726h5.373Z" transform="translate(-14040.813 -1008.208)" fill="#dbeaf9"/>
      <path id="Path_26" data-name="Path 26" d="M14049.714,1063.124h-5.372l.374-2.726h5.372Z" transform="translate(-14039.353 -1018.836)" fill="#dbeaf9"/>
      <path id="Path_27" data-name="Path 27" d="M14207.507,999.461h-28.076l.375-2.726h28.076Z" transform="translate(-14118.426 -981.571)" fill="#dbeaf9"/>
      <path id="Path_28" data-name="Path 28" d="M14204.959,1018h-28.074l.373-2.726h28.076Z" transform="translate(-14116.936 -992.425)" fill="#dbeaf9"/>
      <path id="Path_29" data-name="Path 29" d="M14190.424,1036.547h-16.086l.374-2.726h16.087Z" transform="translate(-14115.445 -1003.279)" fill="#dbeaf9"/>
      <path id="Path_30" data-name="Path 30" d="M14103.357,979.7h0a19.82,19.82,0,0,0-12.964,5.081,20.166,20.166,0,0,0-6.765,12.266c-1.316,9.58,5.383,17.346,14.963,17.346a19.824,19.824,0,0,0,12.964-5.081,20.167,20.167,0,0,0,6.766-12.265h0C14119.637,987.467,14112.938,979.7,14103.357,979.7Zm5.187,26.121a14.181,14.181,0,0,1-9.274,3.634,10.57,10.57,0,0,1-10.7-12.409,14.427,14.427,0,0,1,4.839-8.774,14.182,14.182,0,0,1,9.273-3.635h0a10.571,10.571,0,0,1,10.7,12.409h0A14.422,14.422,0,0,1,14108.544,1005.821Z" transform="translate(-14062.252 -971.599)" fill="#dbeaf9"/>
      <g id="Group_5" data-name="Group 5" transform="translate(17.93 6.87)">
        <path id="Path_31" data-name="Path 31" d="M14104.545,981.67h0l.678-4.938h0a19.822,19.822,0,0,0-12.964,5.081l3.013,3.491A14.179,14.179,0,0,1,14104.545,981.67Z" transform="translate(-14085.328 -976.732)" fill="#4d5068"/>
        <path id="Path_32" data-name="Path 32" d="M14122.568,976.732l-.678,4.938a10.57,10.57,0,0,1,10.7,12.409h0a14.427,14.427,0,0,1-4.839,8.774l3.011,3.491a20.165,20.165,0,0,0,6.767-12.266h0C14138.848,984.5,14132.148,976.732,14122.568,976.732Z" transform="translate(-14102.675 -976.732)" fill="#32aaeb"/>
        <path id="Path_33" data-name="Path 33" d="M14080.885,1001.251a14.433,14.433,0,0,1,4.84-8.774l-3.012-3.491a20.162,20.162,0,0,0-6.766,12.266h4.938Z" transform="translate(-14075.782 -983.904)" fill="#f9d30b"/>
        <path id="Path_34" data-name="Path 34" d="M14100.628,1027.339a14.175,14.175,0,0,1-9.272,3.634,10.571,10.571,0,0,1-10.7-12.409h-4.937c-1.316,9.58,5.383,17.347,14.963,17.347a19.825,19.825,0,0,0,12.964-5.081Z" transform="translate(-14075.55 -1001.219)" fill="#ef3f54"/>
      </g>
    </g>
    <g id="Group_8" data-name="Group 8" transform="translate(616.908 383.978)">
      <path id="Path_42" data-name="Path 42" d="M14376.268,1107.375h-52.6a6.585,6.585,0,0,1-6.66-7.876l12.514-80.2a9.534,9.534,0,0,1,9.092-7.876h52.6a6.584,6.584,0,0,1,6.661,7.876l-12.514,80.2A9.533,9.533,0,0,1,14376.268,1107.375Z" transform="translate(-14316.913 -1011.421)" fill="#eef4fe"/>
      <path id="Path_43" data-name="Path 43" d="M14396.963,1014.412a6.957,6.957,0,0,1,1.117,5.133l-12.514,80.2a9.532,9.532,0,0,1-9.09,7.876h-52.6a6.911,6.911,0,0,1-4.039-1.24,6.635,6.635,0,0,0,5.543,2.743h52.6a9.532,9.532,0,0,0,9.092-7.876l12.514-80.2A6.682,6.682,0,0,0,14396.963,1014.412Z" transform="translate(-14318.625 -1013.172)" fill="#dbeaf9"/>
      <path id="Path_44" data-name="Path 44" d="M14355.13,1088.182h-3.155l8.435-54.076h3.153Z" transform="translate(-14337.436 -1024.699)" fill="#dbeaf9"/>
      <path id="Path_45" data-name="Path 45" d="M14374.654,1088.186h-3.154l8.434-54.077h3.154Z" transform="translate(-14348.865 -1024.701)" fill="#dbeaf9"/>
      <path id="Path_46" data-name="Path 46" d="M14394.176,1088.19h-3.156l8.436-54.076h3.154Z" transform="translate(-14360.29 -1024.704)" fill="#dbeaf9"/>
      <path id="Path_47" data-name="Path 47" d="M14413.7,1088.194h-3.156l8.435-54.077h3.155Z" transform="translate(-14371.718 -1024.706)" fill="#dbeaf9"/>
      <path id="Path_48" data-name="Path 48" d="M14433.222,1088.2h-3.153l8.434-54.077h3.154Z" transform="translate(-14383.148 -1024.708)" fill="#dbeaf9"/>
      <path id="Path_49" data-name="Path 49" d="M14452.744,1088.2h-3.154l8.434-54.077h3.154Z" transform="translate(-14394.575 -1024.71)" fill="#dbeaf9"/>
      <path id="Path_50" data-name="Path 50" d="M14355.13,1130.916h-3.155l3.712-23.8h3.155Z" transform="translate(-14337.436 -1067.432)" fill="#32aaeb"/>
      <path id="Path_51" data-name="Path 51" d="M14374.654,1116.961h-3.154l5.255-33.693h3.153Z" transform="translate(-14348.865 -1053.476)" fill="#32aaeb"/>
      <path id="Path_52" data-name="Path 52" d="M14394.176,1109.867h-3.156l6.039-38.72h3.154Z" transform="translate(-14360.29 -1046.381)" fill="#32aaeb"/>
      <path id="Path_53" data-name="Path 53" d="M14413.7,1116.969h-3.156l5.256-33.693h3.153Z" transform="translate(-14371.718 -1053.481)" fill="#32aaeb"/>
      <path id="Path_54" data-name="Path 54" d="M14433.222,1103.014h-3.153l6.8-43.581h3.154Z" transform="translate(-14383.148 -1039.525)" fill="#32aaeb"/>
      <path id="Path_55" data-name="Path 55" d="M14452.744,1095.447h-3.154l7.633-48.943h3.154Z" transform="translate(-14394.575 -1031.956)" fill="#32aaeb"/>
      <path id="Path_56" data-name="Path 56" d="M14357.975,1189.82a7.729,7.729,0,0,1-7.377,6.505,5.481,5.481,0,0,1-5.512-6.507,7.728,7.728,0,0,1,7.375-6.505A5.484,5.484,0,0,1,14357.975,1189.82Z" transform="translate(-14333.362 -1112.037)" fill="#dbeaf9"/>
      <path id="Path_57" data-name="Path 57" d="M14413.847,1187.556l-27.926-.006.252-1.752,27.925.006Z" transform="translate(-14357.306 -1113.491)" fill="#dbeaf9"/>
      <path id="Path_58" data-name="Path 58" d="M14412.085,1199.861l-27.925-.006.252-1.752,27.923.006Z" transform="translate(-14356.275 -1120.694)" fill="#dbeaf9"/>
      <path id="Path_59" data-name="Path 59" d="M14394.271,1212.164l-11.873,0,.252-1.752,11.871,0Z" transform="translate(-14355.243 -1127.897)" fill="#dbeaf9"/>
    </g>
    <g id="Group_34" data-name="Group 34" transform="translate(567.727 237.245)">
      <ellipse id="Ellipse_13" data-name="Ellipse 13" cx="27.732" cy="27.732" rx="27.732" ry="27.732" fill="#fff"/>
      <path id="Path_29-2" data-name="Path 29" d="M422.3,174.652a7.345,7.345,0,0,0-6.864,4.879,7.345,7.345,0,0,0-6.864-4.879c-5.279,0-6.176,5.257-6.176,7.211,0,7.339,6.9,14.021,13.04,17.337,6.136-3.316,13.041-10,13.041-17.337C428.475,179.909,427.577,174.652,422.3,174.652Z" transform="translate(-387.701 -159.194)" fill="#e23030"/>
    </g>
    <g id="Group_1451" data-name="Group 1451" transform="translate(555.04 425.065)">
      <g id="Group_1449" data-name="Group 1449" transform="translate(0 0)">
        <rect id="Rectangle_549" data-name="Rectangle 549" width="97.705" height="125.815" rx="2.268" fill="#9ac9f2"/>
        <rect id="Rectangle_550" data-name="Rectangle 550" width="79.091" height="100.741" transform="translate(9.307 11.321)" fill="#fff"/>
        <path id="Path_4345" data-name="Path 4345" d="M5083.624,425.125h-13.9a.7.7,0,0,1-.7-.695h0a.7.7,0,0,1,.7-.7h13.9a.7.7,0,0,1,.7.7h0A.7.7,0,0,1,5083.624,425.125Z" transform="translate(-5027.822 -419.36)" fill="#259ada"/>
      </g>
      <path id="Rectangle_551" data-name="Rectangle 551" d="M0,0H13.331a0,0,0,0,1,0,0V98.1a2.639,2.639,0,0,1-2.639,2.639H0a0,0,0,0,1,0,0V0A0,0,0,0,1,0,0Z" transform="translate(66.496 11.321)" fill="#1067db" opacity="0.2"/>
      <path id="Rectangle_552" data-name="Rectangle 552" d="M0,0H67.673a0,0,0,0,1,0,0V98.776a1.965,1.965,0,0,1-1.965,1.965H0a0,0,0,0,1,0,0V0A0,0,0,0,1,0,0Z" transform="translate(9.307 11.321)" fill="#edf5fc"/>
      <path id="Path_4346" data-name="Path 4346" d="M5142.836,526.878c0-3.938-2.873-6.2-5.615-6.2h-2.4V425.241h2.322a5.7,5.7,0,0,1,5.7,5.7Z" transform="translate(-5065.857 -420.231)" fill="#b5d73c"/>
      <g id="Group_1450" data-name="Group 1450" transform="translate(15.488 19.248)">
        <path id="Path_4347" data-name="Path 4347" d="M5024.971,475.874h-10.877l-1.782,3.923h-4.25l9.333-20.8h4.279L5031,479.8h-4.279Zm-5.438-12.512-3.863,8.857h7.726Z" transform="translate(-5008.062 -458.993)" fill="#ff5722"/>
      </g>
      <rect id="Rectangle_553" data-name="Rectangle 553" width="27.378" height="3.589" transform="translate(39.118 19.248)" fill="#a5cbef"/>
      <rect id="Rectangle_554" data-name="Rectangle 554" width="27.378" height="3.589" transform="translate(39.055 27.856)" fill="#a5cbef"/>
      <rect id="Rectangle_555" data-name="Rectangle 555" width="27.378" height="3.589" transform="translate(38.992 36.464)" fill="#a5cbef"/>
      <rect id="Rectangle_556" data-name="Rectangle 556" width="50.127" height="3.589" transform="translate(16.18 45.071)" fill="#a5cbef"/>
      <rect id="Rectangle_557" data-name="Rectangle 557" width="50.127" height="3.589" transform="translate(16.065 53.679)" fill="#a5cbef"/>
      <rect id="Rectangle_558" data-name="Rectangle 558" width="50.127" height="3.589" transform="translate(15.95 62.287)" fill="#a5cbef"/>
      <rect id="Rectangle_559" data-name="Rectangle 559" width="50.127" height="3.588" transform="translate(15.834 70.894)" fill="#a5cbef"/>
      <rect id="Rectangle_560" data-name="Rectangle 560" width="50.127" height="3.589" transform="translate(15.719 79.502)" fill="#a5cbef"/>
      <rect id="Rectangle_561" data-name="Rectangle 561" width="50.127" height="3.589" transform="translate(15.603 88.109)" fill="#a5cbef"/>
      <rect id="Rectangle_562" data-name="Rectangle 562" width="50.127" height="3.589" transform="translate(15.488 96.717)" fill="#a5cbef"/>
    </g>
  </g>
  <path id="Path_2031" data-name="Path 2031" d="M4457.606,1503.28s5.4,7.128,2.81,15.84c-2.593,8.784-12.888,10.872-25.92,9.216s-39.46-7.92-39.46-7.92S4442.773,1496.44,4457.606,1503.28Z" transform="translate(-4254.842 -1127.347)" fill="#272c48"/>
  <path id="Path_2032" data-name="Path 2032" d="M4260.971,1435.338c-.216.072-3.458,1.8-3.816,2.017l-1.44,18.648-66.6,11.593s-10.009-2.3-28.657-10.584c-18.577-8.208-29.81-19.729-22.825-39.384a17.377,17.377,0,0,1,7.776-9.648c11.593-6.7,31.61-1.3,48.169,3.96,1.729.576,3.6,1.152,5.62,1.8l.143.072a91.081,91.081,0,0,1,22.465,6.912c6.695,3.1,18.648,7.416,27.5,10.584C4256,1433.61,4260.971,1435.338,4260.971,1435.338Z" transform="translate(-4135.539 -1082.662)" fill="#353a55"/>
  <path id="Path_2033" data-name="Path 2033" d="M4233.292,1444.4c-10.8-2.952-64.945-17.928-76.106-26.353-4.97-3.744-5.112-7.272-3.743-9.936,11.591-6.7,31.608-1.3,48.169,3.959,1.728.577,3.6,1.152,5.614,1.8l.145.072a91.071,91.071,0,0,1,22.464,6.913c6.7,3.1,18.65,7.416,27.505,10.584C4262.166,1443.533,4243.083,1447.063,4233.292,1444.4Z" transform="translate(-4143.428 -1082.723)" fill="#272c48"/>
  <path id="Path_2034" data-name="Path 2034" d="M4454.148,1452.57c-10.44,10.8-21.313,10.872-35.354,13.1-14.041,2.3-53.354,12.96-73.586,14.185-20.162,1.224-41.617,3.1-41.617,3.1s-6.408-20.233-1.8-31.321c0,0,42.77-17.424,53.857-23.041s46.8-15.552,46.8-15.552a81.344,81.344,0,0,1,11.015-3.1c9.793-2.016,24.048-3.241,34.489,3.528a37.159,37.159,0,0,1,8.209,7.2C4464.66,1431.258,4462.5,1443.93,4454.148,1452.57Z" transform="translate(-4211.207 -1084.269)" fill="#272c48"/>
  <path id="Path_2035" data-name="Path 2035" d="M4543.959,1432.687c-17.208,10.44-45.435,3.312-41.545-7.344a64.045,64.045,0,0,0,3.817-15.264c9.792-2.017,24.049-3.241,34.488,3.527a37.175,37.175,0,0,1,8.208,7.2C4551.014,1424.694,4550.3,1428.941,4543.959,1432.687Z" transform="translate(-4304.042 -1084.331)" fill="#353a55"/>
  <path id="Path_2036" data-name="Path 2036" d="M4370.442,1332.352c-10.441,13.465-38.45,29.593-56.163,39.6a39.932,39.932,0,0,0-4.679-11.017,34.072,34.072,0,0,0-8.28-9.216,21.611,21.611,0,0,1-4.248.792h-.792l.216-3.168v-.574c.216-.144,1.368-.721,2.376-1.3h.073a14.884,14.884,0,0,0,1.367-.72.229.229,0,0,1-.144-.071c-1.513-.5-17.425-5.9-29.737-10.656-3.528-1.369-6.7-2.665-9.217-3.817a88.729,88.729,0,0,0-13.607-4.9c1.366-1.3,2.3-5.04,2.3-5.328h0l-.648.216c-.072,0-.072,0-.144.072-.866.288-1.73.576-2.593.792-.145.073-.289.073-.433.144s-.359.072-.5.144-.289.073-.432.145a49.719,49.719,0,0,1-8.712,1.3c-2.88-.937-7.488-2.52-8.856-2.88-4.538-3.168-6.483-8.641-6.483-14.329.072-6.051,1.872-18.721,4.9-31.969,3.457-15.192,8.567-31.1,14.472-38.376,6.553-7.992,22.466-15.336,34.345-19.944,8.209-3.241,14.545-5.112,14.545-5.112l-2.3,3.025a14.358,14.358,0,0,1,4.681-.5l26.064,4.538.431.216,2.88-6.193s5.9.144,14.9,3.96a75.031,75.031,0,0,1,15.121,8.785c15.984,11.808,19.152,18.576,22.1,37.584q.216,1.512.432,3.025C4376.778,1288,4382.465,1316.728,4370.442,1332.352Z" transform="translate(-4174.877 -994.077)" fill="#eba000"/>
  <path id="Path_2037" data-name="Path 2037" d="M4270.882,1415.828c-.865.288-1.729.576-2.594.792C4269.153,1416.4,4270.018,1416.116,4270.882,1415.828Z" transform="translate(-4196.571 -1087.705)" fill="#6d5ac7"/>
  <path id="Path_2038" data-name="Path 2038" d="M4368.619,1306.133c-1.079,12.385-10.511,18.937-20.736,31.177-9.432,11.233-24.624,23.185-34.057,27.721a15.582,15.582,0,0,1-2.377,1.008c-6.268,2.377-9-4.824-10.082-9.432a25.825,25.825,0,0,1-.575-3.167,1.267,1.267,0,0,1-.071-.361l.071-.071c.216-.144,1.081-.648,2.377-1.44h.071c.36-.216.792-.432,1.225-.719,3.528-2.161,9.432-5.834,16.993-10.8,12.673-8.424,23.185-19.657,26.64-27.865,3.528-8.208.433-23.76-1.3-32.256s-5.113-23.4-5.113-23.4-.648,0-3.168,27.865-9.216,30.456-18.792,36.142c-9.721,5.619-1.729,6.7-6.408,9.216-4.032,2.161-20.3,7.344-38.594,10.441-3.528-1.368-6.7-2.665-9.216-3.817a88.793,88.793,0,0,0-13.609-4.9c1.368-1.3,2.3-5.04,2.3-5.328,15.624-5.112,33.191-15.913,35.784-17.641,3.6-2.3,20.088-13.608,22.969-15.624s2.231-3.169,2.231-3.169-1.008-23.328-10.3-11.88c-9.287,11.52-48.817,34.776-59.185,33.913-10.442-.864-8.354-9.648-3.026-13.608s20.594-12.312,20.594-12.312l2.447-15.768c-6.552,10.152-21.1,25.345-29.376,19.944-3.744-2.377-5.329-6.552-6.051-10.368,3.458-15.193,8.569-31.1,14.472-38.377,6.553-7.993,22.465-15.336,34.346-19.945,7.272,3.529,23.617,15.7,36.791,12.6,9.073-2.161,15.48-8.568,24.336-12.672a75.02,75.02,0,0,1,15.121,8.784c15.985,11.808,19.153,18.576,22.1,37.585C4364.444,1272.293,4369.7,1294.181,4368.619,1306.133Z" transform="translate(-4179.105 -998.243)" fill="#f8b018"/>
  <path id="Path_2039" data-name="Path 2039" d="M4342.585,1464.874c5.04,2.52,13.9,8.928,17.784,23.185l-7.56,4.248c-15.913,9-25.561,11.808-30.528,2.81C4317.96,1487.41,4329.481,1474.162,4342.585,1464.874Z" transform="translate(-4220.969 -1110.254)" fill="#ffcebd"/>
  <path id="Path_2040" data-name="Path 2040" d="M4363.985,1282.27s-1.8-15.7-1.08-19.008c3.89-.865,27.289-4.824,29.881-4.97.144,5.256.648,24.193.648,24.193Z" transform="translate(-4239.993 -1015.277)" fill="#1d2159"/>
  <path id="Path_2041" data-name="Path 2041" d="M4346.923,1295.42c4.679-2.52,8.28-4.538,9.217-5.183,3.167-2.161,10.3-13.969,13.536-11.233s1.37,11.09,1.37,11.09c21.889-9.216,22.9,1.8,13.753,13.248-3.313,4.248-10.009,9.864-18.29,15.841C4356.715,1313.206,4349.586,1300.749,4346.923,1295.42Z" transform="translate(-4232.721 -1024.611)" fill="#ffcebd"/>
  <path id="Path_2042" data-name="Path 2042" d="M4321.662,1144.468s-8.568,2.52-8.856,10.3c-.145,7.847,10.656,8.928,10.656,8.928s-.361,19.584,14.111,26.065,30.6-1.008,31.322-23.617c0,0,7.776-1.368,8.928-7.345s-.792-7.847-4.754-9.575c0,0-4.754-16.993-7.848-19.513-2.952-2.52-18.72.216-18.72.216Z" transform="translate(-4217.037 -955.669)" fill="#ffcebd"/>
  <path id="Path_2043" data-name="Path 2043" d="M4361.055,1120.125s-.577,4.032,3.241,9.937a54.357,54.357,0,0,0,5.618,7.632,7.119,7.119,0,0,1,2.232-2.665c1.439-.936,3.673-.432,5.328,1.872,0,0,1.152-8.208,2.09-15.768.791-7.633-4.539-15.121-14.257-9.649a36.4,36.4,0,0,0-20.522-14.473c-13.752-3.457-23.687,4.68-28.44,15.552s-.359,22.609,2.161,26.857a21.282,21.282,0,0,0,5.759,6.408s2.232-8.785,2.881-10.8C4327.069,1134.957,4347.085,1141.58,4361.055,1120.125Z" transform="translate(-4217.692 -940.757)" fill="#000439"/>
  <path id="Path_2044" data-name="Path 2044" d="M4244.472,1489.129a74.126,74.126,0,0,0-.647,12.817c.286,5.112,1.8,14.472,2.447,18a3,3,0,0,0-.359.073c-6.192,1.224-39.384,7.272-55.874,9.288-16.417,2.016-20.881,1.945-5.977-12.024,14.833-13.968,31.465-22.824,38.018-23.328,6.482-.5,3.6,3.313,22.176-4.608C4244.4,1489.2,4244.472,1489.2,4244.472,1489.129Z" transform="translate(-4153.672 -1121.405)" fill="#4f4640"/>
</svg>
