<svg id="smmp-1" xmlns="http://www.w3.org/2000/svg" xmlns:xlink="http://www.w3.org/1999/xlink" width="464.785" height="353.48" viewBox="0 0 464.785 353.48">
  <defs>
    <linearGradient id="linear-gradient" x1="1" y1="0.5" x2="0" y2="0.5" gradientUnits="objectBoundingBox">
      <stop offset="0" stop-color="#b3cdfa"/>
      <stop offset="0.814" stop-color="#e3edfe"/>
    </linearGradient>
  </defs>
  <g id="Group_12909" data-name="Group 12909" transform="translate(-2848.094 -1424.345)">
    <g id="Group_12520" data-name="Group 12520" transform="translate(2894.095 1442.163)">
      <g id="Group_64" data-name="Group 64" transform="translate(0 17.837)">
        <path id="Path_258" data-name="Path 258" d="M3312.879,1793.191H2894.095V1497.769a3.913,3.913,0,0,1,3.913-3.913h410.959a3.912,3.912,0,0,1,3.912,3.912h0Z" transform="translate(-2894.095 -1493.856)" fill="#e8f5f9"/>
        <path id="Path_259" data-name="Path 259" d="M3312.879,1563.177H2894.095v-43.555c0-.319,1.751-.577,3.913-.577h410.959c2.161,0,3.912.258,3.912.577Z" transform="translate(-2894.095 -1510.353)" fill="#fff"/>
        <path id="Path_260" data-name="Path 260" d="M3312.879,1518.795v-20.329a4.609,4.609,0,0,0-4.609-4.61H2898.705a4.61,4.61,0,0,0-4.61,4.61h0V1518.8Z" transform="translate(-2894.095 -1493.856)" fill="#f8b018"/>
        <path id="Path_261" data-name="Path 261" d="M2957.366,1522.112a3.071,3.071,0,1,1-3.071-3.071,3.071,3.071,0,0,1,3.071,3.071Z" transform="translate(-2931.511 -1510.351)" fill="#fff"/>
        <path id="Path_262" data-name="Path 262" d="M2987.023,1522.112a3.071,3.071,0,1,1-3.071-3.071,3.071,3.071,0,0,1,3.071,3.071Z" transform="translate(-2950.934 -1510.351)" fill="#fff"/>
        <path id="Path_263" data-name="Path 263" d="M3016.677,1522.112a3.071,3.071,0,1,1-3.071-3.071,3.071,3.071,0,0,1,3.071,3.071Z" transform="translate(-2970.355 -1510.351)" fill="#fff"/>
        <rect id="Rectangle_10" data-name="Rectangle 10" width="260.761" height="9.09" transform="translate(56.406 33.537)" fill="#f8b018"/>
        <g id="Group_63" data-name="Group 63" transform="translate(394.158 31.942)">
          <path id="Path_264" data-name="Path 264" d="M4046.986,1588.94h-9.362a1.257,1.257,0,0,1-1.258-1.257h0a1.258,1.258,0,0,1,1.257-1.258h9.363a1.258,1.258,0,0,1,1.258,1.258h0A1.258,1.258,0,0,1,4046.986,1588.94Z" transform="translate(-4036.367 -1586.424)" fill="#edf5fc"/>
          <path id="Path_265" data-name="Path 265" d="M4046.986,1602.968h-9.362a1.257,1.257,0,0,1-1.258-1.257h0a1.258,1.258,0,0,1,1.258-1.258h9.362a1.259,1.259,0,0,1,1.258,1.258h0A1.258,1.258,0,0,1,4046.986,1602.968Z" transform="translate(-4036.367 -1595.611)" fill="#edf5fc"/>
          <path id="Path_266" data-name="Path 266" d="M4046.986,1617h-9.362a1.257,1.257,0,0,1-1.258-1.257h0a1.258,1.258,0,0,1,1.257-1.258h9.363a1.258,1.258,0,0,1,1.258,1.258h0A1.258,1.258,0,0,1,4046.986,1617Z" transform="translate(-4036.367 -1604.8)" fill="#edf5fc"/>
        </g>
        <circle id="Ellipse_6" data-name="Ellipse 6" cx="13.266" cy="13.266" r="13.266" transform="translate(91.561 220.693)" fill="#aedced"/>
        <rect id="Rectangle_11" data-name="Rectangle 11" width="225.608" height="124.766" transform="translate(91.559 69.861)" fill="#fdfdff"/>
        <rect id="Rectangle_12" data-name="Rectangle 12" width="79.776" height="229.474" transform="translate(326.341 69.861)" fill="#fdfdff"/>
        <rect id="Rectangle_13" data-name="Rectangle 13" width="55.045" height="5.266" transform="translate(26.26 96.399)" fill="#aedced"/>
        <rect id="Rectangle_14" data-name="Rectangle 14" width="5.116" height="5.266" transform="translate(16.027 96.399)" fill="#aedced"/>
        <rect id="Rectangle_15" data-name="Rectangle 15" width="55.045" height="5.265" transform="translate(26.26 108.263)" fill="#aedced"/>
        <rect id="Rectangle_16" data-name="Rectangle 16" width="5.116" height="5.265" transform="translate(16.027 108.263)" fill="#aedced"/>
        <rect id="Rectangle_17" data-name="Rectangle 17" width="55.045" height="5.266" transform="translate(26.26 120.127)" fill="#aedced"/>
        <rect id="Rectangle_18" data-name="Rectangle 18" width="43.299" height="7.699" transform="translate(15.728 81.328)" fill="#aedced"/>
        <rect id="Rectangle_19" data-name="Rectangle 19" width="43.299" height="7.699" transform="translate(15.728 143.248)" fill="#aedced"/>
        <rect id="Rectangle_20" data-name="Rectangle 20" width="65.278" height="72.545" transform="translate(15.428 226.79)" fill="#aedced"/>
        <rect id="Rectangle_21" data-name="Rectangle 21" width="5.116" height="5.266" transform="translate(16.027 120.127)" fill="#aedced"/>
        <rect id="Rectangle_22" data-name="Rectangle 22" width="55.045" height="5.265" transform="translate(26.26 160.284)" fill="#aedced"/>
        <rect id="Rectangle_23" data-name="Rectangle 23" width="82.357" height="5.266" transform="translate(125.343 224.157)" fill="#aedced"/>
        <rect id="Rectangle_24" data-name="Rectangle 24" width="191.824" height="5.265" transform="translate(125.343 235.964)" fill="#aedced"/>
        <rect id="Rectangle_25" data-name="Rectangle 25" width="225.608" height="5.266" transform="translate(91.559 271.486)" fill="#aedced"/>
        <rect id="Rectangle_26" data-name="Rectangle 26" width="225.608" height="5.265" transform="translate(91.559 286.721)" fill="#aedced"/>
        <rect id="Rectangle_27" data-name="Rectangle 27" width="5.116" height="5.265" transform="translate(16.027 160.284)" fill="#aedced"/>
        <rect id="Rectangle_28" data-name="Rectangle 28" width="55.045" height="5.266" transform="translate(26.26 172.148)" fill="#aedced"/>
        <rect id="Rectangle_29" data-name="Rectangle 29" width="5.116" height="5.266" transform="translate(16.027 172.148)" fill="#aedced"/>
        <rect id="Rectangle_30" data-name="Rectangle 30" width="55.045" height="5.266" transform="translate(26.26 184.013)" fill="#aedced"/>
        <rect id="Rectangle_31" data-name="Rectangle 31" width="5.116" height="5.266" transform="translate(16.027 184.013)" fill="#aedced"/>
        <rect id="Rectangle_32" data-name="Rectangle 32" width="55.045" height="5.266" transform="translate(25.961 195.479)" fill="#aedced"/>
        <rect id="Rectangle_33" data-name="Rectangle 33" width="5.116" height="5.266" transform="translate(15.728 195.479)" fill="#aedced"/>
        <rect id="Rectangle_34" data-name="Rectangle 34" width="55.045" height="5.266" transform="translate(25.661 206.946)" fill="#aedced"/>
        <rect id="Rectangle_35" data-name="Rectangle 35" width="5.116" height="5.266" transform="translate(15.429 206.946)" fill="#aedced"/>
        <path id="Path_267" data-name="Path 267" d="M3871.389,1824.284a7.236,7.236,0,1,1-7.236-7.236h0a7.236,7.236,0,0,1,7.235,7.236Z" transform="translate(-3524.681 -1705.526)" fill="#aedced"/>
        <rect id="Rectangle_36" data-name="Rectangle 36" width="24.817" height="3.931" transform="translate(351.239 114.827)" fill="#aedced"/>
        <rect id="Rectangle_37" data-name="Rectangle 37" width="24.817" height="8.109" transform="translate(332.238 76.004)" fill="#aedced"/>
        <rect id="Rectangle_38" data-name="Rectangle 38" width="9.174" height="8.109" transform="translate(360.004 76.004)" fill="#aedced"/>
        <rect id="Rectangle_39" data-name="Rectangle 39" width="43.983" height="3.931" transform="translate(351.239 122.063)" fill="#aedced"/>
        <path id="Path_268" data-name="Path 268" d="M3871.157,1934.827a7.237,7.237,0,1,1-7.237-7.236h0A7.237,7.237,0,0,1,3871.157,1934.827Z" transform="translate(-3524.528 -1777.924)" fill="#aedced"/>
        <rect id="Rectangle_40" data-name="Rectangle 40" width="24.817" height="3.931" transform="translate(351.158 152.972)" fill="#aedced"/>
        <rect id="Rectangle_41" data-name="Rectangle 41" width="43.983" height="3.932" transform="translate(351.158 160.208)" fill="#aedced"/>
        <path id="Path_269" data-name="Path 269" d="M3870.918,2045.374a7.236,7.236,0,1,1-7.236-7.236h0A7.236,7.236,0,0,1,3870.918,2045.374Z" transform="translate(-3524.373 -1850.325)" fill="#aedced"/>
        <rect id="Rectangle_42" data-name="Rectangle 42" width="24.817" height="3.931" transform="translate(351.076 191.118)" fill="#aedced"/>
        <rect id="Rectangle_43" data-name="Rectangle 43" width="43.983" height="3.932" transform="translate(351.076 198.354)" fill="#aedced"/>
        <path id="Path_270" data-name="Path 270" d="M3870.682,2155.919a7.236,7.236,0,1,1-7.235-7.236h0a7.236,7.236,0,0,1,7.235,7.236Z" transform="translate(-3524.218 -1922.725)" fill="#aedced"/>
        <rect id="Rectangle_44" data-name="Rectangle 44" width="24.817" height="3.932" transform="translate(350.994 229.263)" fill="#aedced"/>
        <rect id="Rectangle_45" data-name="Rectangle 45" width="43.983" height="3.931" transform="translate(350.994 236.499)" fill="#aedced"/>
        <path id="Path_271" data-name="Path 271" d="M3870.445,2266.466a7.237,7.237,0,1,1-7.237-7.236h0a7.236,7.236,0,0,1,7.236,7.236Z" transform="translate(-3524.062 -1995.126)" fill="#aedced"/>
        <rect id="Rectangle_46" data-name="Rectangle 46" width="24.817" height="3.932" transform="translate(350.912 267.408)" fill="#aedced"/>
        <rect id="Rectangle_47" data-name="Rectangle 47" width="43.983" height="3.931" transform="translate(350.912 274.645)" fill="#aedced"/>
      </g>
      <g id="Group_69" data-name="Group 69" transform="translate(86.764 236.306)">
        <g id="Group_66" data-name="Group 66">
          <g id="Group_65" data-name="Group 65">
            <rect id="Rectangle_48" data-name="Rectangle 48" width="122.191" height="80.867" rx="2.22" fill="#ef3f54"/>
          </g>
        </g>
        <g id="Group_68" data-name="Group 68" transform="translate(44.414 17.569)">
          <g id="Group_67" data-name="Group 67">
            <path id="Path_272" data-name="Path 272" d="M3313.18,2203.253l-34.608,19.979a2.881,2.881,0,0,1-4.323-2.5v-39.96a2.882,2.882,0,0,1,4.323-2.5l34.608,19.981a2.883,2.883,0,0,1,0,4.993l-34.608,19.979a2.881,2.881,0,0,1-4.323-2.5v-39.961a2.882,2.882,0,0,1,4.323-2.5l34.608,19.981a2.883,2.883,0,0,1,0,4.992Z" transform="translate(-3274.249 -2177.893)" fill="#fff"/>
          </g>
        </g>
      </g>
      <g id="Group_70" data-name="Group 70" transform="translate(161.309 112.047)">
        <path id="Path_273" data-name="Path 273" d="M3429.179,1814.977l8.488-.007a3.112,3.112,0,0,0,3.11-3.114l-.008-10.829a3.113,3.113,0,0,0-3.115-3.109l-6.645.005a2.615,2.615,0,0,1-2.434-1.739q-.35-.932-.763-1.836a2.614,2.614,0,0,1,.485-2.953l4.7-4.7a3.112,3.112,0,0,0,0-4.4h0l-7.66-7.654a3.114,3.114,0,0,0-4.4,0l-4.733,4.737a2.57,2.57,0,0,1-2.834.544c-.676-.289-1.406-.581-2.036-.828a2.56,2.56,0,0,1-1.627-2.39v-6.712a3.112,3.112,0,0,0-3.112-3.112h-10.828a3.113,3.113,0,0,0-3.112,3.112v6.646a2.614,2.614,0,0,1-1.74,2.43q-.976.367-1.924.8a2.611,2.611,0,0,1-2.954-.477l-4.714-4.688a3.112,3.112,0,0,0-4.4.012l-7.635,7.679a3.111,3.111,0,0,0,.013,4.4h0l4.75,4.723a2.57,2.57,0,0,1,.549,2.834c-.286.675-.578,1.405-.82,2.036a2.557,2.557,0,0,1-2.386,1.632l-6.714.017a3.113,3.113,0,0,0-3.106,3.119h0l.026,10.828a3.112,3.112,0,0,0,3.119,3.106h0l6.646-.017a2.617,2.617,0,0,1,2.435,1.736q.353.929.767,1.833a2.616,2.616,0,0,1-.481,2.954l-4.693,4.71a3.113,3.113,0,0,0,.009,4.4l7.673,7.641a3.112,3.112,0,0,0,4.4-.009h0l4.727-4.746a2.572,2.572,0,0,1,2.833-.548c.676.288,1.4.579,2.036.823a2.56,2.56,0,0,1,1.63,2.389l.011,6.712a3.11,3.11,0,0,0,3.115,3.105h0l10.828-.017a3.112,3.112,0,0,0,3.105-3.117l-.011-6.646a2.619,2.619,0,0,1,1.738-2.435q.932-.35,1.835-.764a2.615,2.615,0,0,1,2.954.483l4.706,4.693a3.112,3.112,0,0,0,4.4,0h0l7.648-7.666a3.113,3.113,0,0,0-.006-4.4l-4.741-4.73a2.569,2.569,0,0,1-.545-2.834C3428.433,1817.019,3429.145,1815.091,3429.179,1814.977Zm-43.093-11.267a15.341,15.341,0,1,1,9.555,17.07,15.347,15.347,0,0,1-9.555-17.07Z" transform="translate(-3361.568 -1766.877)" fill="#caecfc"/>
      </g>
      <g id="Group_71" data-name="Group 71" transform="translate(190.058 264.78)">
        <rect id="Rectangle_49" data-name="Rectangle 49" width="75.712" height="52.631" fill="#fdfdff"/>
        <rect id="Rectangle_50" data-name="Rectangle 50" width="64.42" height="40.174" transform="translate(5.646 5.056)" fill="#32aaeb"/>
        <path id="Path_274" data-name="Path 274" d="M3471.205,2266.975l-9.911,14.31-.05,11.087h25.513Z" transform="translate(-3455.599 -2247.141)" fill="#4d5068"/>
        <path id="Path_275" data-name="Path 275" d="M3483.009,2274.432l.89,1.472,1.571-2.268-4.029-6.66-4.568,6.6,1.411,2.332,1.081-1.56,1.728,2.855Z" transform="translate(-3465.835 -2247.142)" fill="#fff"/>
        <path id="Path_276" data-name="Path 276" d="M3525.158,2303.247l7.537-11.233,10.378,16.756H3528.59Z" transform="translate(-3497.458 -2263.54)" fill="#4d5068"/>
        <path id="Path_277" data-name="Path 277" d="M3586.456,2250.374a7.074,7.074,0,1,1-7.074-7.074h0A7.074,7.074,0,0,1,3586.456,2250.374Z" transform="translate(-3528.338 -2231.635)" fill="#f9d30b"/>
        <path id="Path_278" data-name="Path 278" d="M3540.165,2299.472l.891,1.472,1.571-2.268-4.122-6.66-4.476,6.6,1.411,2.332,1.081-1.559,1.727,2.855Z" transform="translate(-3503.268 -2263.542)" fill="#fff"/>
      </g>
      <g id="Group_75" data-name="Group 75" transform="translate(68.036 34.853)">
        <path id="Path_279" data-name="Path 279" d="M3116.6,1555.838a12.67,12.67,0,1,1-12.67-12.67h0a12.67,12.67,0,0,1,12.67,12.67Z" transform="translate(-3091.265 -1543.168)" fill="#32aaeb"/>
        <g id="Group_72" data-name="Group 72" transform="translate(5.688 9.037)">
          <path id="Path_280" data-name="Path 280" d="M3112.248,1572.343a.492.492,0,0,1-.492-.491h0a1.513,1.513,0,0,0-3.025-.03v.03a.491.491,0,0,1-.982.016v-.016a2.5,2.5,0,1,1,4.991,0,.491.491,0,0,1-.49.492Z" transform="translate(-3107.748 -1569.356)" fill="#4d5068"/>
        </g>
        <g id="Group_73" data-name="Group 73" transform="translate(14.661 9.036)">
          <path id="Path_281" data-name="Path 281" d="M3138.253,1572.343a.49.49,0,0,1-.491-.49v0a1.513,1.513,0,0,0-3.026-.03v.03a.492.492,0,1,1-.983.017v-.017a2.5,2.5,0,1,1,4.992,0,.491.491,0,0,1-.49.492Z" transform="translate(-3133.753 -1569.355)" fill="#4d5068"/>
        </g>
        <g id="Group_74" data-name="Group 74" transform="translate(7.006 15.945)">
          <path id="Path_282" data-name="Path 282" d="M3122.9,1589.378a5.664,5.664,0,1,1-11.328,0Z" transform="translate(-3111.568 -1589.378)" fill="#fff"/>
        </g>
        <path id="Path_283" data-name="Path 283" d="M3113.121,1596.253a5.64,5.64,0,0,0,10.256,0Z" transform="translate(-3105.579 -1577.935)" fill="#ff5722"/>
      </g>
      <g id="Group_79" data-name="Group 79" transform="translate(308.94 90.345)">
        <path id="Path_284" data-name="Path 284" d="M3814.745,1716.653a12.67,12.67,0,1,1-12.67-12.67h0A12.671,12.671,0,0,1,3814.745,1716.653Z" transform="translate(-3789.405 -1703.983)" fill="#fb2"/>
        <g id="Group_76" data-name="Group 76" transform="translate(5.687 9.036)">
          <path id="Path_285" data-name="Path 285" d="M3810.388,1733.158a.491.491,0,0,1-.492-.49v0a1.513,1.513,0,0,0-3.025-.03v.03a.492.492,0,1,1-.983.017v-.017a2.5,2.5,0,0,1,4.992,0,.491.491,0,0,1-.49.492Z" transform="translate(-3805.887 -1730.17)" fill="#4d5068"/>
        </g>
        <g id="Group_77" data-name="Group 77" transform="translate(14.661 9.036)">
          <path id="Path_286" data-name="Path 286" d="M3836.393,1733.157a.491.491,0,0,1-.491-.49v0a1.513,1.513,0,0,0-3.026,0,.492.492,0,0,1-.983.017v-.017a2.5,2.5,0,1,1,4.993,0,.491.491,0,0,1-.491.492Z" transform="translate(-3831.892 -1730.169)" fill="#4d5068"/>
        </g>
        <g id="Group_78" data-name="Group 78" transform="translate(7.006 15.945)">
          <path id="Path_287" data-name="Path 287" d="M3821.036,1750.193a5.665,5.665,0,1,1-11.329,0Z" transform="translate(-3809.707 -1750.193)" fill="#fff"/>
        </g>
        <path id="Path_288" data-name="Path 288" d="M3811.258,1757.068a5.641,5.641,0,0,0,10.257,0Z" transform="translate(-3803.718 -1738.75)" fill="#ff5722"/>
      </g>
      <g id="Group_80" data-name="Group 80" transform="translate(86.763 101.641)">
        <circle id="Ellipse_7" data-name="Ellipse 7" cx="17.337" cy="17.337" r="17.337" fill="#ef3f54"/>
        <path id="Path_289" data-name="Path 289" d="M3240.47,1699.074a2.875,2.875,0,0,0-2.036.841l-3.722-2.549a2.639,2.639,0,0,0,.023-1.755l3.767-2.456a2.972,2.972,0,1,0-.743-1.147l-3.716,2.422a2.884,2.884,0,1,0-.058,4.095l3.748,2.566a2.872,2.872,0,1,0,2.736-2.018Z" transform="translate(-3218.896 -1679.171)" fill="#fff"/>
      </g>
      <g id="Group_81" data-name="Group 81" transform="translate(264.72 54.64)">
        <circle id="Ellipse_8" data-name="Ellipse 8" cx="15.078" cy="15.078" r="15.078" fill="#32aaeb"/>
        <path id="Path_290" data-name="Path 290" d="M3696.868,1632.451a2.5,2.5,0,0,0-1.769.732l-3.237-2.217a2.292,2.292,0,0,0,.02-1.526l3.278-2.136a2.588,2.588,0,1,0-.646-1l-3.233,2.1a2.508,2.508,0,1,0-.05,3.561l3.259,2.232a2.5,2.5,0,1,0,2.378-1.755h0Z" transform="translate(-3678.105 -1615.141)" fill="#fff"/>
      </g>
      <g id="Group_84" data-name="Group 84" transform="translate(50.609 91.51)">
        <g id="Group_82" data-name="Group 82">
          <path id="Path_291" data-name="Path 291" d="M3061.021,1717.49a10.131,10.131,0,1,1-10.132-10.131h0A10.131,10.131,0,0,1,3061.021,1717.49Z" transform="translate(-3040.759 -1707.359)" fill="#393e87"/>
        </g>
        <g id="Group_83" data-name="Group 83" transform="translate(3.93 4.199)">
          <path id="Path_292" data-name="Path 292" d="M3062.022,1731.271l-3.5-1.78a.233.233,0,0,0-.216,0l-3.449,1.87a.233.233,0,0,1-.341-.241l.613-3.875a.23.23,0,0,0-.069-.2l-2.844-2.7a.232.232,0,0,1-.009-.329.235.235,0,0,1,.132-.07l3.874-.614a.233.233,0,0,0,.172-.13l1.691-3.539a.233.233,0,0,1,.31-.11.236.236,0,0,1,.107.1l1.782,3.495a.231.231,0,0,0,.177.125l3.888.514a.233.233,0,0,1,.2.261.23.23,0,0,1-.066.134l-2.774,2.774a.237.237,0,0,0-.064.207l.714,3.857a.233.233,0,0,1-.334.25Z" transform="translate(-3052.148 -1719.528)" fill="#fff"/>
        </g>
      </g>
      <g id="Group_87" data-name="Group 87" transform="translate(361.294 81.261)">
        <g id="Group_85" data-name="Group 85">
          <path id="Path_293" data-name="Path 293" d="M3959.293,1686.743a9.083,9.083,0,1,1-9.083-9.083A9.083,9.083,0,0,1,3959.293,1686.743Z" transform="translate(-3941.126 -1677.659)" fill="#393e87"/>
        </g>
        <g id="Group_86" data-name="Group 86" transform="translate(3.523 3.761)">
          <path id="Path_294" data-name="Path 294" d="M3960.19,1699.09l-3.134-1.6a.208.208,0,0,0-.194,0l-3.091,1.677a.207.207,0,0,1-.306-.216l.549-3.474a.212.212,0,0,0-.062-.184l-2.55-2.422a.207.207,0,0,1,.111-.357l3.473-.552a.211.211,0,0,0,.156-.116l1.515-3.175a.207.207,0,0,1,.373-.005l1.6,3.133a.211.211,0,0,0,.159.112l3.487.461a.208.208,0,0,1,.182.23.21.21,0,0,1-.062.125l-2.486,2.487a.208.208,0,0,0-.057.185l.639,3.458a.207.207,0,0,1-.3.226Z" transform="translate(-3951.336 -1688.558)" fill="#fff"/>
        </g>
      </g>
      <g id="Group_89" data-name="Group 89" transform="translate(84.024 130.942)">
        <circle id="Ellipse_9" data-name="Ellipse 9" cx="9.352" cy="9.352" r="9.352" transform="translate(0 14)" fill="#f97e0b"/>
        <g id="Group_88" data-name="Group 88" transform="translate(4.867 19.562)">
          <path id="Path_295" data-name="Path 295" d="M3154.952,1845.333l-3.249-3.249,1.856-1.856,1.393,1.393,3.865-3.867,1.856,1.856Z" transform="translate(-3151.703 -1837.753)" fill="#fff"/>
        </g>
      </g>
      <g id="Group_92" data-name="Group 92" transform="translate(132.04 29.92)">
        <circle id="Ellipse_11" data-name="Ellipse 11" cx="10.573" cy="10.573" r="10.573" fill="#4d5068"/>
        <path id="Path_297" data-name="Path 297" d="M3302.19,1546.151v-1.626a3.718,3.718,0,0,0-7.437,0v1.626a4.7,4.7,0,1,0,7.437,0Zm-2.882,4.477h-1.672l.166-1.516a.986.986,0,1,1,1.394-.052c-.016.018-.034.035-.052.052Zm1.7-5.565a4.676,4.676,0,0,0-5.065,0v-.538a2.533,2.533,0,0,1,5.065,0Z" transform="translate(-3287.898 -1536.688)" fill="#fff"/>
      </g>
      <g id="Group_99" data-name="Group 99" transform="translate(349.042 128.759)">
        <circle id="Ellipse_12" data-name="Ellipse 12" cx="9.205" cy="9.205" r="9.205" fill="#ff5722"/>
        <g id="Group_98" data-name="Group 98" transform="translate(4.35 5.543)">
          <g id="Group_97" data-name="Group 97">
            <path id="Path_350" data-name="Path 350" d="M3927.937,1834.2q-3.454-1.377-6.876-2.834a2.832,2.832,0,0,0-2.042,4.8l4.051,4.03,4.154-4.118c.045-.052.162-.2.162-.2A2.822,2.822,0,0,0,3927.937,1834.2Z" transform="translate(-3918.226 -1831.371)" fill="#fff"/>
          </g>
        </g>
      </g>
      <g id="Group_101" data-name="Group 101" transform="translate(339.926 47.468)">
        <circle id="Ellipse_13" data-name="Ellipse 13" cx="9.668" cy="9.668" r="9.668" fill="#4d5068"/>
        <g id="Group_100" data-name="Group 100" transform="translate(4.286 4.286)">
          <path id="Path_351" data-name="Path 351" d="M3900.81,1598.683h1.154a.423.423,0,0,0,.422-.423v-1.472a.423.423,0,0,0-.424-.423h-.9a.357.357,0,0,1-.331-.236c-.031-.084-.066-.167-.1-.25a.355.355,0,0,1,.066-.4l.639-.639a.425.425,0,0,0,0-.6l-1.042-1.04a.423.423,0,0,0-.6,0h0l-.643.644a.35.35,0,0,1-.386.074c-.091-.039-.19-.079-.276-.113a.345.345,0,0,1-.22-.325v-.912a.423.423,0,0,0-.423-.423h-1.472a.423.423,0,0,0-.423.422h0v.9a.355.355,0,0,1-.237.33c-.088.034-.175.069-.261.109a.357.357,0,0,1-.4-.065l-.64-.638a.423.423,0,0,0-.6,0l-1.038,1.043a.423.423,0,0,0,0,.6l.646.642a.35.35,0,0,1,.075.385c-.039.092-.079.191-.112.276a.346.346,0,0,1-.324.221l-.912,0a.423.423,0,0,0-.422.424h0l0,1.472a.423.423,0,0,0,.424.422h0l.9,0a.357.357,0,0,1,.331.236c.032.085.067.167.1.25a.355.355,0,0,1-.065.4l-.637.64a.424.424,0,0,0,0,.6l1.043,1.039a.423.423,0,0,0,.6,0h0l.642-.645a.35.35,0,0,1,.385-.075c.092.039.191.079.276.112a.345.345,0,0,1,.222.325l0,.912a.422.422,0,0,0,.422.422h0l1.472,0a.422.422,0,0,0,.422-.423h0v-.9a.356.356,0,0,1,.236-.331q.126-.048.25-.1a.355.355,0,0,1,.4.066l.64.638a.423.423,0,0,0,.6,0h0l1.04-1.042a.423.423,0,0,0,0-.6l-.645-.643a.35.35,0,0,1-.074-.385C3900.709,1598.961,3900.806,1598.7,3900.81,1598.683Zm-5.857-1.532a2.084,2.084,0,1,1,1.3,2.321,2.085,2.085,0,0,1-1.3-2.321Z" transform="translate(-3891.622 -1592.146)" fill="#fff"/>
        </g>
      </g>
      <g id="Group_105" data-name="Group 105" transform="translate(266.204 199.75)">
        <path id="Path_352" data-name="Path 352" d="M3737.174,2112.838l5.8-6.667-23.186-42.025c14.294-2.749,19.462,5.435,19.958,6.285a.069.069,0,0,0,.1.022l.014-.011,7.467-6.586v-6.087L3725.87,2031.4H3717.5l2.567-10.274-.115-.082-18.71,12.1h0a81.8,81.8,0,0,0-15.66,48.132v24.317l7.536,8.984h42.386Z" transform="translate(-3678.673 -2021.04)" fill="#60bbea"/>
        <path id="Path_353" data-name="Path 353" d="M3741.566,2316.58h-60.232l9-21.865h42.227Z" transform="translate(-3675.889 -2200.28)" fill="#32aaeb"/>
        <g id="Group_102" data-name="Group 102" transform="translate(6.911 19.244)">
          <path id="Path_354" data-name="Path 354" d="M3719.2,2079.517l-5.832-2.708c-.783,1.351-1.566,2.7-2.268,4.091l6.133,2.848Z" transform="translate(-3702.298 -2076.809)" fill="#008ecc"/>
          <path id="Path_355" data-name="Path 355" d="M3702.484,2122.665l1.015-4.555-6.9-1.536c-.521,1.473-.994,2.96-1.431,4.462Z" transform="translate(-3691.861 -2102.853)" fill="#008ecc"/>
          <path id="Path_356" data-name="Path 356" d="M3698.451,2143.12l.373-4.651-7.878-.634c-.383,1.521-.69,3.06-.984,4.6Z" transform="translate(-3688.451 -2116.777)" fill="#008ecc"/>
          <path id="Path_357" data-name="Path 357" d="M3708.3,2104.837l1.368-4.463-6.472-1.982q-.962,2.142-1.8,4.33Z" transform="translate(-3695.938 -2090.945)" fill="#008ecc"/>
          <rect id="Rectangle_60" data-name="Rectangle 60" width="9.41" height="4.667" transform="translate(0 52.438)" fill="#008ecc"/>
          <rect id="Rectangle_61" data-name="Rectangle 61" width="9.41" height="4.667" transform="translate(0 44.44)" fill="#008ecc"/>
          <path id="Path_358" data-name="Path 358" d="M3695.8,2163.908v-4.666h-8.431c-.242,1.546-.4,3.106-.556,4.667Z" transform="translate(-3686.388 -2130.797)" fill="#008ecc"/>
          <path id="Path_359" data-name="Path 359" d="M3695,2182.417h-9.231c-.084,1.514-.179,3.028-.179,4.551v.116H3695Z" transform="translate(-3685.585 -2145.975)" fill="#008ecc"/>
        </g>
        <g id="Group_103" data-name="Group 103" transform="translate(6.716 91.205)">
          <rect id="Rectangle_62" data-name="Rectangle 62" width="58.187" height="6.463" rx="2.738" fill="#32aaeb"/>
        </g>
        <path id="Path_360" data-name="Path 360" d="M3685.019,2294.366v1.954a1.4,1.4,0,0,0,1.4,1.4h55.392a1.4,1.4,0,0,0,1.4-1.4v-1.954Z" transform="translate(-3678.303 -2200.051)" fill="#008ecc"/>
        <g id="Group_104" data-name="Group 104" transform="translate(0 112.17)">
          <path id="Path_361" data-name="Path 361" d="M3735.455,2352.572h-68.179a1.585,1.585,0,0,1-1.72-1.4v-3.668a1.585,1.585,0,0,1,1.72-1.4h68.179a1.585,1.585,0,0,1,1.72,1.4v3.668A1.585,1.585,0,0,1,3735.455,2352.572Z" transform="translate(-3665.556 -2346.108)" fill="#32aaeb"/>
        </g>
        <path id="Path_362" data-name="Path 362" d="M3665.556,2355.124v1.955a1.585,1.585,0,0,0,1.72,1.4h68.179a1.585,1.585,0,0,0,1.72-1.4v-1.955Z" transform="translate(-3665.556 -2239.843)" fill="#008ecc"/>
      </g>
      <g id="Group_107" data-name="Group 107" transform="translate(247.235 298.661)">
        <rect id="Rectangle_63" data-name="Rectangle 63" width="73.148" height="19.999" rx="1.793" fill="#4d5068"/>
        <g id="Group_106" data-name="Group 106" transform="translate(3.008 9.024)">
          <path id="Path_363" data-name="Path 363" d="M3664.725,2335.788h-44.448a.976.976,0,0,1,0-1.952h44.448a.976.976,0,0,1,0,1.952Z" transform="translate(-3619.301 -2333.836)" fill="#f9d30b"/>
        </g>
        <rect id="Rectangle_64" data-name="Rectangle 64" width="1.952" height="19.999" transform="translate(52)" fill="#fff"/>
        <path id="Path_364" data-name="Path 364" d="M3790.5,2328.2a4.458,4.458,0,1,1-4.458-4.458h0a4.457,4.457,0,0,1,4.458,4.457Z" transform="translate(-3722.579 -2318.204)" fill="#fff"/>
      </g>
      <g id="Group_113" data-name="Group 113" transform="translate(200.305 20.329)">
        <circle id="Ellipse_14" data-name="Ellipse 14" cx="15.078" cy="15.078" r="15.078" fill="#393e87"/>
        <g id="Group_112" data-name="Group 112" transform="translate(9.246 6.205)">
          <g id="Group_109" data-name="Group 109" transform="translate(0 1.464)">
            <g id="Group_108" data-name="Group 108">
              <path id="Path_365" data-name="Path 365" d="M3508.567,1537.7h-5.075a2.121,2.121,0,0,1-2.117-2.117V1534.5h3.014v.189h4.179a1.458,1.458,0,0,0,1.456-1.457.949.949,0,0,0-.947-.949h-3.74a3.968,3.968,0,0,1-3.961-3.962v-.544a4.476,4.476,0,0,1,4.47-4.471h5.075a2.121,2.121,0,0,1,2.117,2.117v1.231h-3.014v-.335h-4.178a1.459,1.459,0,0,0-1.457,1.458v.543a.949.949,0,0,0,.947.949h3.74a3.966,3.966,0,0,1,3.961,3.962A4.475,4.475,0,0,1,3508.567,1537.7Z" transform="translate(-3501.375 -1523.301)" fill="#f6f6f7"/>
            </g>
          </g>
          <g id="Group_111" data-name="Group 111" transform="translate(4.325)">
            <g id="Group_110" data-name="Group 110">
              <rect id="Rectangle_65" data-name="Rectangle 65" width="3.013" height="17.745" fill="#f6f6f7"/>
            </g>
          </g>
        </g>
      </g>
      <g id="Group_115" data-name="Group 115" transform="translate(105.949 0)">
        <circle id="Ellipse_15" data-name="Ellipse 15" cx="9.662" cy="9.662" r="9.662" fill="#32aaeb"/>
        <g id="Group_114" data-name="Group 114" transform="translate(4.964 4.964)">
          <path id="Path_366" data-name="Path 366" d="M3223.083,1463.071q.32,0,.562-.508a2.973,2.973,0,0,0,.241-1.277,4.035,4.035,0,0,0-.956-2.758,3.239,3.239,0,0,0-2.564-1.092,3.6,3.6,0,0,0-2.7,1.146,3.833,3.833,0,0,0-1.1,2.747,3.666,3.666,0,0,0,1.034,2.664,3.424,3.424,0,0,0,2.558,1.063,2.944,2.944,0,0,0,2.1-.874l.483.839a3.612,3.612,0,0,1-1.2.667,4.237,4.237,0,0,1-1.382.254,4.5,4.5,0,0,1-3.3-1.317,4.452,4.452,0,0,1-1.329-3.3,4.78,4.78,0,0,1,4.772-4.779,4.437,4.437,0,0,1,3.3,1.346,4.6,4.6,0,0,1,1.323,3.355,3.635,3.635,0,0,1-.538,2.084,1.641,1.641,0,0,1-1.412.785,1.359,1.359,0,0,1-.821-.271,1.4,1.4,0,0,1-.514-.686,2,2,0,0,1-1.647.839,2.35,2.35,0,0,1-1.737-.756,2.636,2.636,0,0,1-.738-1.92,2.953,2.953,0,0,1,.668-1.961,2.174,2.174,0,0,1,1.754-.8,1.79,1.79,0,0,1,1.169.472l.154.154v-.483h1.477v3.77C3222.729,1462.875,3222.846,1463.071,3223.083,1463.071Zm-1.819-1.784a1.515,1.515,0,0,0-.313-.98,1,1,0,0,0-.821-.39.972.972,0,0,0-.809.39,1.526,1.526,0,0,0-.3.963,1.675,1.675,0,0,0,.3,1,.953.953,0,0,0,.821.425.965.965,0,0,0,.82-.408,1.63,1.63,0,0,0,.3-1Z" transform="translate(-3215.521 -1456.548)" fill="#fff"/>
        </g>
      </g>
      <g id="Group_119" data-name="Group 119" transform="translate(269.88 1.702)">
        <circle id="Ellipse_16" data-name="Ellipse 16" cx="12.496" cy="12.496" r="12.496" fill="#ff5722"/>
        <g id="Group_118" data-name="Group 118" transform="translate(4.597 6.368)">
          <g id="Group_116" data-name="Group 116">
            <path id="Path_367" data-name="Path 367" d="M3689.529,1474.911a1.981,1.981,0,0,0,.776-.134,1.727,1.727,0,0,0,.315-.539q.408-.919,1.044-2.553l2.369-6.135h.984l3.026,7.6a9.584,9.584,0,0,0,.725,1.577,1.651,1.651,0,0,0,.846.186v.644q-1.089-.051-2.06-.05-1.156,0-2.2.05v-.644a4.025,4.025,0,0,0,.92-.094.212.212,0,0,0,.123-.211,4.937,4.937,0,0,0-.281-.9l-.442-1.182q-.829-.021-1.856-.02-.89,0-1.622.02l-.294.794q-.12.326-.294.969a1,1,0,0,0-.04.262.231.231,0,0,0,.13.224,4.221,4.221,0,0,0,.939.135v.644q-.656-.051-1.631-.05c-.621,0-1.112.016-1.477.05Zm4.39-6.867-1.413,3.64q.616.035,1.36.034c.518,0,1.012-.012,1.487-.034Z" transform="translate(-3689.529 -1465.549)" fill="#fff"/>
          </g>
          <g id="Group_117" data-name="Group 117" transform="translate(10.573 4.284)">
            <path id="Path_368" data-name="Path 368" d="M3725.4,1483.094v.472l-.444-.018c-.234-.012-.469-.017-.7-.017q-.543,0-1.027.034l-.057-.063.057-.789-1.2.9a2.544,2.544,0,0,1-.568.074,1.213,1.213,0,0,1-.942-.363,1.51,1.51,0,0,1-.333-1.058,1.438,1.438,0,0,1,.454-1.208,6.724,6.724,0,0,1,2.59-.823,1.747,1.747,0,0,0-.235-.988,1.139,1.139,0,0,0-.975-.421,1.462,1.462,0,0,0-.319.037,1.589,1.589,0,0,0-.33.118l-.258.616-.4-.1.011-.259-.006-.253-.005-.23a7.94,7.94,0,0,1,1.266-.684,2.343,2.343,0,0,1,.781-.1,2.555,2.555,0,0,1,1.1.2,1.358,1.358,0,0,1,.621.556,2.164,2.164,0,0,1,.2,1.026q0,.283-.023,1.009c-.016.5-.023.9-.023,1.206a5.258,5.258,0,0,0,.04.876.229.229,0,0,0,.112.144A2.356,2.356,0,0,0,3725.4,1483.094Zm-2.174-2.365a3.38,3.38,0,0,0-1.311.476.855.855,0,0,0-.3.69.767.767,0,0,0,.195.555.653.653,0,0,0,.493.2,1.322,1.322,0,0,0,.929-.513Z" transform="translate(-3720.17 -1477.965)" fill="#fff"/>
          </g>
        </g>
      </g>
      <g id="Group_120" data-name="Group 120" transform="translate(198.514 78.513)">
        <circle id="Ellipse_17" data-name="Ellipse 17" cx="9.186" cy="9.186" r="9.186" fill="#4d5068"/>
        <path id="Path_369" data-name="Path 369" d="M3489.929,1682.116a3.2,3.2,0,0,0-3.2,3.2c0,1.769,3.2,6.594,3.2,6.594s3.2-4.825,3.2-6.594a3.2,3.2,0,0,0-3.2-3.2Zm0,4.555a1.35,1.35,0,1,1,1.35-1.351h0a1.35,1.35,0,0,1-1.35,1.35Z" transform="translate(-3480.743 -1677.829)" fill="#ff5722"/>
      </g>
      <g id="Group_121" data-name="Group 121" transform="translate(333.106 289.579)">
        <path id="Path_370" data-name="Path 370" d="M3902.164,2281.364v14.061l.008.007,9.921,9.948a14.015,14.015,0,0,0,4.131-9.914c0-.014,0-.028,0-.041A14.062,14.062,0,0,0,3902.164,2281.364Z" transform="translate(-3887.42 -2281.364)" fill="#32aaeb"/>
        <path id="Path_371" data-name="Path 371" d="M3863.573,2285.47a14.011,14.011,0,0,0-4.132,9.928l14.06.034v-14.068A14.015,14.015,0,0,0,3863.573,2285.47Z" transform="translate(-3859.439 -2281.364)" fill="#f9d30b"/>
        <path id="Path_372" data-name="Path 372" d="M3873.505,2324.047h-.007l-14.059-.034c0,.009,0,.018,0,.027a14.06,14.06,0,0,0,23.99,9.956Z" transform="translate(-3859.437 -2309.296)" fill="#11284f"/>
      </g>
      <g id="Group_129" data-name="Group 129" transform="translate(21.438 294.696)">
        <g id="Group_127" data-name="Group 127">
          <g id="Group_122" data-name="Group 122">
            <path id="Path_373" data-name="Path 373" d="M2968.066,2319.88a11.843,11.843,0,1,1,11.842-11.843h0A11.856,11.856,0,0,1,2968.066,2319.88Zm0-21.607a9.765,9.765,0,1,0,9.765,9.765h0a9.775,9.775,0,0,0-9.765-9.764Z" transform="translate(-2956.223 -2296.195)" fill="#caecfc"/>
          </g>
          <g id="Group_123" data-name="Group 123" transform="translate(25.789)">
            <path id="Path_374" data-name="Path 374" d="M3042.8,2319.88a11.843,11.843,0,1,1,11.842-11.843h0A11.857,11.857,0,0,1,3042.8,2319.88Zm0-21.607a9.765,9.765,0,1,0,9.763,9.767v0a9.775,9.775,0,0,0-9.763-9.764Z" transform="translate(-3030.959 -2296.195)" fill="#caecfc"/>
          </g>
          <g id="Group_124" data-name="Group 124" transform="translate(51.577)">
            <path id="Path_375" data-name="Path 375" d="M3117.536,2319.88a11.843,11.843,0,1,1,11.843-11.843A11.842,11.842,0,0,1,3117.536,2319.88Zm0-21.607a9.765,9.765,0,1,0,9.765,9.765h0a9.776,9.776,0,0,0-9.765-9.764Z" transform="translate(-3105.694 -2296.195)" fill="#caecfc"/>
          </g>
          <g id="Group_125" data-name="Group 125" transform="translate(0.003 0.007)">
            <path id="Path_376" data-name="Path 376" d="M2968.071,2319.9a11.846,11.846,0,1,1,8.372-20.217l-1.469,1.47a9.777,9.777,0,1,0,2.86,6.9h2.078a11.835,11.835,0,0,1-11.829,11.843h-.012Z" transform="translate(-2956.231 -2296.215)" fill="#4d5068"/>
          </g>
          <g id="Group_126" data-name="Group 126" transform="translate(25.789)">
            <path id="Path_377" data-name="Path 377" d="M3042.8,2319.88a11.843,11.843,0,1,1,0-23.685v2.078a9.765,9.765,0,1,0,9.763,9.764h2.078a11.837,11.837,0,0,1-11.832,11.843h-.01Z" transform="translate(-3030.96 -2296.195)" fill="#32aaeb"/>
          </g>
        </g>
        <g id="Group_128" data-name="Group 128" transform="translate(52.509 0.006)">
          <path id="Path_378" data-name="Path 378" d="M3123.914,2318.962l-.81-1.914a9.765,9.765,0,1,0-12.8-12.8l-1.914-.81a11.843,11.843,0,1,1,15.521,15.521Z" transform="translate(-3108.393 -2296.214)" fill="#b5d73c"/>
        </g>
      </g>
    </g>
    <path id="Path_44644" data-name="Path 44644" d="M3594.7,1735.384h-35.215a29.349,29.349,0,0,0-29.346,29.346v35.215a29.349,29.349,0,0,0,29.346,29.346H3594.7a29.349,29.349,0,0,0,29.346-29.346V1764.73A29.35,29.35,0,0,0,3594.7,1735.384Zm20.542,64.562a20.566,20.566,0,0,1-20.542,20.543h-35.215a20.566,20.566,0,0,1-20.542-20.543V1764.73a20.566,20.566,0,0,1,20.542-20.542H3594.7a20.566,20.566,0,0,1,20.542,20.542Z" transform="translate(-416.566 -192.041)" fill="#fc637d"/>
    <path id="Path_44645" data-name="Path 44645" d="M3621.65,1803.421a23.477,23.477,0,1,0,23.477,23.477A23.478,23.478,0,0,0,3621.65,1803.421Zm0,38.15a14.673,14.673,0,1,1,14.673-14.673A14.693,14.693,0,0,1,3621.65,1841.572Z" transform="translate(-461.125 -236.6)" fill="#ef3f54"/>
    <rect id="Rectangle_4532" data-name="Rectangle 4532" width="6.257" height="6.257" rx="3.128" transform="translate(3182.634 1561.932)" fill="#fc637d"/>
  </g>
  <g id="Group_1460" data-name="Group 1460">
    <rect id="Rectangle_566" data-name="Rectangle 566" width="15.144" height="10.178" transform="translate(68.713 333.123)" fill="#ffcebd"/>
    <path id="Path_4375" data-name="Path 4375" d="M5231.113,479.492l3.989,97.019a26.24,26.24,0,0,0,1.146,6.676l17.237,55.728h18.8l-9.987-67.48,1.469-91.943Z" transform="translate(-5187.525 -305.792)" fill="#4d5068"/>
    <rect id="Rectangle_567" data-name="Rectangle 567" width="22.372" height="4.566" transform="translate(65.099 348.914)" fill="#4d5068"/>
    <path id="Rectangle_568" data-name="Rectangle 568" d="M3.885,0H15.436a3.885,3.885,0,0,1,3.885,3.885v7.339a0,0,0,0,1,0,0H0a0,0,0,0,1,0,0V3.885A3.885,3.885,0,0,1,3.885,0Z" transform="translate(67.075 337.689)" fill="url(#linear-gradient)"/>
    <path id="Path_46727" data-name="Path 46727" d="M.483,9.643l16.024.794L16.024.794,0,0Z" transform="translate(45.243 326.685) rotate(-132.066)" fill="#ffcebd"/>
    <path id="Path_4376" data-name="Path 4376" d="M5271.034,654.386l-8.518,8.133,22.069,37.1H5295.3v-1.568a5.068,5.068,0,0,0-4.647-5.281h0l-2.968-3.281-1.033-19.262-.9-1.284-7.487.57-6.519-9.265.517-4Z" transform="translate(-5232.394 -346.137)" fill="url(#linear-gradient)"/>
    <path id="Path_4377" data-name="Path 4377" d="M5265.791,660.894l21.892,36.8h7.3a5.715,5.715,0,0,1,.318,1.857v1.568h-10.713l-22.069-37.1Z" transform="translate(-5232.394 -347.638)" fill="#4d5068"/>
    <g id="Group_1457" data-name="Group 1457" transform="translate(54.58 270.468)" opacity="0.4">
      <path id="Path_4378" data-name="Path 4378" d="M5238.024,631.141l20.906-25.865,4.463,30.153L5244.939,653.5Z" transform="translate(-5238.024 -605.276)" fill="#272834"/>
    </g>
    <path id="Path_4379" data-name="Path 4379" d="M5258.683,479.492l4.9,76.575a29.16,29.16,0,0,1-8.362,22.639l-50.226,49.175-11.358-14.458,39.8-49.243-6.417-50.443-2.065-34.244Z" transform="translate(-5152.798 -305.792)" fill="#4d5068"/>
    <path id="Path_4380" data-name="Path 4380" d="M5193.632,623.3c.509-1.008,1.036-2.006,1.57-2.994a137.353,137.353,0,0,1,40.089-45.946c2.788-2.005,5.718-3.963,7.7-6.913,3.089-4.591,3.358-10.789,2.759-16.473s-1.938-11.333-1.6-17.043c.334-5.667,2.314-11.177,2.053-16.848s-4.114-11.907-9.217-11.249c-.66-3.167,3.405-4.68,5.18-7.269,2.4-3.5.246-8.369-.914-12.57a24.764,24.764,0,0,1-.865-6.506h10.527l4.9,76.575a29.158,29.158,0,0,1-8.362,22.639l-50.226,49.175Z" transform="translate(-5145.036 -305.792)" fill="#272834" opacity="0.2"/>
    <path id="Path_4381" data-name="Path 4381" d="M5296.289,349.913l-6.029,3.642c-4.253,2.569-5.427,8.729-2.474,12.976l28.758,41.361,14.678,17.167,1.385-16.948-1.241-8.966-5.525-.755-17.367-27.534,1.366-1.085Z" transform="translate(-5286.149 -275.9)" fill="#ffcebd"/>
    <g id="Group_1458" data-name="Group 1458" transform="translate(0 74.013)" opacity="0.15">
      <path id="Path_4382" data-name="Path 4382" d="M5291.853,353.555l6.029-3.642,1.757,2.575-3.656,2.209c-4.253,2.569-5.427,8.728-2.475,12.975l28.758,41.361,10.824,12.658-.275,3.367-14.679-17.167-28.759-41.361C5286.426,362.284,5287.6,356.124,5291.853,353.555Z" transform="translate(-5287.743 -349.913)" fill="#525d7a"/>
    </g>
    <path id="Path_4383" data-name="Path 4383" d="M5156.2,391.277l-2.839,6.369-7.873,5.565-11.875,19.547h0a3.929,3.929,0,0,0,4.908-1.777l.383-.648h1.033l-4.432,10.273v1.661a3.207,3.207,0,0,0,2.883,3.333h0l.258-4.423,3.872-8.419,1.55-.285L5139.1,436.2a1.939,1.939,0,0,0,1.64,2.679h0a1.789,1.789,0,0,0,1.671-1.321l4.5-14.517,1.806-.142-3.508,11.987a1.938,1.938,0,0,0,1.688,2.566h0a1.806,1.806,0,0,0,1.694-1.376l3.611-12.75,1.29.142-1.8,8.863a1.934,1.934,0,0,0,1.743,2.41h0a1.824,1.824,0,0,0,1.719-1.436l3.117-12.119,1.16-9.845,4.206-3.853h8.573a4.5,4.5,0,0,0,4.259-4.708v-1.059a10.661,10.661,0,0,0-1.323-5.173l-2.93-5.274Z" transform="translate(-5023.86 -285.442)" fill="#ffcebd"/>
    <g id="Group_1459" data-name="Group 1459" transform="translate(109.756 105.835)" opacity="0.15">
      <path id="Path_4384" data-name="Path 4384" d="M5134.025,431.025l3.116-12.119.793-6.722a8.264,8.264,0,0,1,2.562-5.132h0a6.836,6.836,0,0,1,4.625-1.843h5.958a4.5,4.5,0,0,0,4.26-4.708v-1.059a10.671,10.671,0,0,0-1.323-5.174l-1.663-2.99h1.831l2.93,5.274a10.666,10.666,0,0,1,1.323,5.173v1.059a4.5,4.5,0,0,1-4.259,4.708h-8.573l-4.206,3.853-1.16,9.845-3.117,12.119a1.824,1.824,0,0,1-1.719,1.436h0a1.934,1.934,0,0,1-1.743-2.41l.175-.863A2.079,2.079,0,0,0,5134.025,431.025Z" transform="translate(-5115.587 -391.277)" fill="#525d7a"/>
      <path id="Path_4385" data-name="Path 4385" d="M5193.781,426.078l-2.143,4.965a3.733,3.733,0,0,1-1.084-.257l2.86-4.708Z" transform="translate(-5190.554 -399.305)" fill="#525d7a"/>
    </g>
    <path id="Path_4386" data-name="Path 4386" d="M5232.632,318.243l18.347,9.915A15.331,15.331,0,0,1,5257,334.17l21.91,38.894H5262.9l-1.587,3.563-12.95-5.713-9,41.335a30.272,30.272,0,0,0-.736,9.423l1.688,26.244c-16.085-9.667-57.669,9.659-68.923-4.7l4.007-22.543a222.743,222.743,0,0,0,.5-26.069l-3.321-36.532-14.952,3.721h-3.1l-14.8-21.689,38.838-22.326a23.08,23.08,0,0,1,8.875-2.943l21.879-2.508Z" transform="translate(-5130.561 -267.228)" fill="#f8b018"/>
    <path id="Path_4387" data-name="Path 4387" d="M5204.534,310.6l9.125,25.135,2.045-4.165,12.141-15.051,1.183-6.166-23.391-5.49Z" transform="translate(-5125.773 -265.508)" fill="#ffcebd"/>
    <path id="Path_4388" data-name="Path 4388" d="M5220.075,273.654c.408-.946,1-1.782,1.457-2.7,1.074-2.164.95-4.22,1.063-6.588.086-1.817.894-2.526,2.039-3.824a3.292,3.292,0,0,1,1.427-1.116,2.706,2.706,0,0,1,2.377.886,11.309,11.309,0,0,0,2.994,2.2c1.157.463,2.5.464,3.422,1.482,1.006,1.106.976,2.917.624,4.435a5.427,5.427,0,0,1-1.121,2.759,5.276,5.276,0,0,1-3.281.756,2.668,2.668,0,0,0-1.521.17,1.986,1.986,0,0,0-.787,1.631c-.089,1.9,1.07,3.519.386,5.426-.741,2.069-1.868,1.7-3.381,2.25a1.715,1.715,0,0,0-.253.118c-1.26.709-1.486,2.853-2.833,3.263-1.51.459-2.723-1.806-2.96-3.126C5219.316,279.408,5219.162,275.764,5220.075,273.654Z" transform="translate(-5142.792 -255.012)" fill="#3d4a67"/>
    <path id="Path_4389" data-name="Path 4389" d="M5204.534,305.028l.031-.162,23.392,5.491-1.445,7.516a13.571,13.571,0,0,1-9.8,1.819C5209.973,318.371,5205.125,312.215,5204.534,305.028Z" transform="translate(-5124.702 -265.508)" fill="#525d7a" opacity="0.15"/>
    <path id="Path_4390" data-name="Path 4390" d="M5194.935,274.762,5192.7,288.67c-1.431,8.922,3.952,17.439,12.023,19.021h0c8.071,1.583,15.775-4.367,17.208-13.29l2.229-13.908,1.237-8.522-28.137-4.28Z" transform="translate(-5113.75 -256.932)" fill="#ffcebd"/>
    <path id="Path_4391" data-name="Path 4391" d="M5177.6,257c.666-1.626,2.932-2.343,4.352-2.66a39.941,39.941,0,0,1,12.461-.3c3.249.305,6.107,2.029,9.4,2.406a14.47,14.47,0,0,0,6.885-.912,14.862,14.862,0,0,0,1.893-.9.849.849,0,0,1,.617-.167c.377.1.453.652.451,1.082-.01,4.228-.066,7.629-1.846,11.47a11.357,11.357,0,0,1-6.744,6.353,13.53,13.53,0,0,1-3.538.422,36.6,36.6,0,0,1-13.9-2.423c-1.318-.5-3.895-.985-5.124-1.7-2.383-1.392-2.559-3.767-3.693-6.469C5178.139,261.6,5176.851,258.826,5177.6,257Z" transform="translate(-5091.5 -253.706)" fill="#3d4a67"/>
    <path id="Path_4392" data-name="Path 4392" d="M5217.125,278.729c.191-1.029.476-1.864.575-2.913a37.309,37.309,0,0,1,1.584-7.4,8.769,8.769,0,0,1,1.765-3.5c1.345-1.41,3.347-1.7,5.2-1.717a5.726,5.726,0,0,1,5.172,2.543c1.1,1.452.839,3.918-.921,4.7-1.384.616-3.08-.085-4.382.715-1.516.931-1.535,3-1.864,4.645a58.677,58.677,0,0,1-1.808,7.159,4.847,4.847,0,0,1-.719,1.509,1.49,1.49,0,0,1-1.373.628,3.556,3.556,0,0,1-.436-.951c-.6-2.106.976-4.272.833-6.475-.719.008-1.519-.334-2.105.128a2.305,2.305,0,0,0-.631,1.235,9.888,9.888,0,0,1-.822,2.63A7.043,7.043,0,0,1,5217.125,278.729Z" transform="translate(-5137.503 -255.895)" fill="#3d4a67"/>
    <path id="Path_4393" data-name="Path 4393" d="M5229.061,314.76l-2.441-1.77s-.124,20.065,1.77,33.571c0,0,4.664-9.615,11.829-8.949Z" transform="translate(-5152.332 -267.382)" fill="#1067db" opacity="0.3"/>
    <path id="Path_4394" data-name="Path 4394" d="M5213.937,324.337l2.739-1.114A241.8,241.8,0,0,1,5206.32,347.1s-2.271-9.292-5.677-11.293Z" transform="translate(-5110.713 -269.743)" fill="#1067db" opacity="0.3"/>
    <path id="Path_4395" data-name="Path 4395" d="M5231.123,312.323l-4.505.513,1.55,30.235c3.994-5.328,12.048-5.613,12.048-5.613Z" transform="translate(-5152.33 -267.228)" fill="#e3edf7"/>
    <path id="Path_4396" data-name="Path 4396" d="M5225.052,349.436a1.1,1.1,0,1,0,1.091-1.206A1.152,1.152,0,0,0,5225.052,349.436Z" transform="translate(-5138.257 -275.512)" fill="#1067db"/>
    <path id="Path_4397" data-name="Path 4397" d="M5227.834,361.08a1.1,1.1,0,1,0,1.089-1.206A1.15,1.15,0,0,0,5227.834,361.08Z" transform="translate(-5142.974 -278.198)" fill="#1067db"/>
    <ellipse id="Ellipse_122" data-name="Ellipse 122" cx="1.09" cy="1.205" rx="1.09" ry="1.205" transform="translate(83.769 90.839)" fill="#1067db"/>
    <path id="Path_4398" data-name="Path 4398" d="M5212.1,320.018l4.368,2.361-10.2,22.849c-2.391-9.514-6.3-10.16-6.3-10.16Z" transform="translate(-5110.029 -269.003)" fill="#e3edf7"/>
    <path id="Path_4399" data-name="Path 4399" d="M5163.629,449.345c.989-5.427,3.1-10.507,4.846-15.7a117.2,117.2,0,0,0,5.095-22.122,17.2,17.2,0,0,0,.125-5,8.56,8.56,0,0,0-3.333-5.521c-.61-.437-1.35-.882-1.472-1.675-.172-1.106.951-1.867,1.9-2.271,2.633-1.125,5.367-2.135,7.6-4.048s3.894-4.985,3.435-8.064c-.187-1.261-.715-2.446-.829-3.717s.375-2.775,1.49-3.117l5.045,6.152a9.263,9.263,0,0,0,1.867,1.879c2.448,1.645,5.694.364,8.415,1.348a6.054,6.054,0,0,1,2.082,1.322l-1.332,2.986-12.95-5.713-9,41.335a30.243,30.243,0,0,0-.738,9.423l1.689,26.244c-3.576-2.149-8.416-2.861-13.9-2.833A27.829,27.829,0,0,1,5163.629,449.345Z" transform="translate(-5067.805 -282.406)" fill="#6c98e3" opacity="0.2"/>
  </g>
</svg>
