<svg id="smmp-3" xmlns="http://www.w3.org/2000/svg" width="327.087" height="280.739" viewBox="0 0 327.087 280.739">
  <g id="Group_12961" data-name="Group 12961" transform="translate(-386.774 -286.005)">
    <g id="Group_12899" data-name="Group 12899" transform="translate(344.001 300.507)">
      <path id="Path_44624" data-name="Path 44624" d="M-2924.372-1098.421c17.176,27.581,40.538,44.063,52.18,36.814s7.155-35.486-10.021-63.068-40.538-44.063-52.18-36.813-7.155,35.486,10.021,63.067" transform="translate(3011.06 1167.524)" fill="none"/>
      <path id="Path_44625" data-name="Path 44625" d="M-2892.855-1013.433c9.63-5.954,15.16-14.465,12.351-19.007s-12.9-3.4-22.524,2.553.542,22.41,10.173,16.456" transform="translate(2989.414 1085.951)" fill="none"/>
      <g id="Group_3481" data-name="Group 3481" transform="translate(315.09 31.701)">
        <circle id="Ellipse_440" data-name="Ellipse 440" cx="8.114" cy="8.114" r="8.114" fill="#1067db"/>
        <path id="Path_13685" data-name="Path 13685" d="M-2246.967-1071.1a1.344,1.344,0,0,0-.952.394l-1.74-1.193a1.342,1.342,0,0,0,.076-.428,1.372,1.372,0,0,0-.065-.393l1.763-1.149a1.4,1.4,0,0,0,1.974-.038,1.4,1.4,0,0,0-.038-1.974,1.4,1.4,0,0,0-1.975.038,1.4,1.4,0,0,0-.309,1.438l-1.74,1.133a1.35,1.35,0,0,0-1.909-.019,1.35,1.35,0,0,0-.019,1.909,1.35,1.35,0,0,0,1.9.026l1.754,1.2a1.328,1.328,0,0,0-.069.4,1.349,1.349,0,0,0,1.349,1.349,1.35,1.35,0,0,0,1.349-1.349,1.349,1.349,0,0,0-1.349-1.349h0Z" transform="translate(2257.065 1080.417)" fill="#fff"/>
      </g>
      <g id="Group_3484" data-name="Group 3484" transform="translate(116.969 64.564)">
        <g id="Group_3482" data-name="Group 3482">
          <path id="Path_13686" data-name="Path 13686" d="M-2799.675-990.973a6.094,6.094,0,0,1-6.094,6.094,6.094,6.094,0,0,1-6.094-6.094,6.094,6.094,0,0,1,6.094-6.094h0A6.094,6.094,0,0,1-2799.675-990.973Z" transform="translate(2811.863 997.067)" fill="#a5cbef"/>
        </g>
        <g id="Group_3483" data-name="Group 3483" transform="translate(2.364 2.523)">
          <path id="Path_13687" data-name="Path 13687" d="M-2799.4-983.043l-2.1-1.071a.138.138,0,0,0-.13,0l-2.074,1.124a.139.139,0,0,1-.19-.056.138.138,0,0,1-.015-.089l.369-2.331a.143.143,0,0,0-.042-.124l-1.711-1.624a.141.141,0,0,1-.005-.2.144.144,0,0,1,.08-.042l2.33-.37a.138.138,0,0,0,.1-.078l1.015-2.129a.14.14,0,0,1,.187-.066.134.134,0,0,1,.064.063l1.072,2.1a.139.139,0,0,0,.106.075l2.339.309a.139.139,0,0,1,.12.157.134.134,0,0,1-.039.08l-1.668,1.668a.14.14,0,0,0-.039.124l.429,2.321a.14.14,0,0,1-.11.165A.137.137,0,0,1-2799.4-983.043Z" transform="translate(2805.343 990.11)" fill="#fff"/>
        </g>
      </g>
      <g id="Group_3486" data-name="Group 3486" transform="translate(288.678 63.825)">
        <circle id="Ellipse_441" data-name="Ellipse 441" cx="6.833" cy="6.833" r="6.833" fill="#8dc63f"/>
        <g id="Group_3485" data-name="Group 3485" transform="translate(3.556 4.063)">
          <path id="Path_13688" data-name="Path 13688" d="M-2326.126-982.361l-2.374-2.374,1.356-1.356,1.018,1.018,2.824-2.826,1.356,1.356Z" transform="translate(2328.5 987.899)" fill="#fff"/>
        </g>
      </g>
      <g id="Group_3487" data-name="Group 3487" transform="translate(312.957 99.957)">
        <circle id="Ellipse_442" data-name="Ellipse 442" cx="7.095" cy="7.095" r="7.095" fill="#4d5068"/>
        <path id="Path_13689" data-name="Path 13689" d="M-2254.834-888.239v-1.091a2.494,2.494,0,0,0-2.494-2.495,2.494,2.494,0,0,0-2.495,2.495v1.091a3.155,3.155,0,0,0,.564,4.425,3.154,3.154,0,0,0,4.425-.564A3.154,3.154,0,0,0-2254.834-888.239Zm-1.933,3h-1.124l.111-1.018a.662.662,0,0,1-.036-.935.663.663,0,0,1,.936-.036.662.662,0,0,1,.036.935c-.011.013-.023.025-.036.036Zm1.138-3.735a3.138,3.138,0,0,0-3.4,0v-.363a1.7,1.7,0,0,1,1.676-1.723,1.7,1.7,0,0,1,1.723,1.675c0,.016,0,.032,0,.049Z" transform="translate(2264.423 894.591)" fill="#fff"/>
      </g>
      <g id="Group_3489" data-name="Group 3489" transform="translate(82.257 98.861)">
        <circle id="Ellipse_443" data-name="Ellipse 443" cx="9.079" cy="9.079" r="9.079" fill="#ef3f54"/>
        <g id="Group_3488" data-name="Group 3488" transform="translate(4.017 4.022)">
          <path id="Path_13690" data-name="Path 13690" d="M-2887.879-885.246h1.083a.4.4,0,0,0,.4-.4v-1.382a.4.4,0,0,0-.395-.4h-.853a.333.333,0,0,1-.31-.222c-.03-.079-.062-.158-.1-.235a.334.334,0,0,1,.062-.377l.6-.6a.4.4,0,0,0,0-.562l-.979-.977a.4.4,0,0,0-.562,0l-.6.6a.329.329,0,0,1-.363.069c-.086-.036-.181-.073-.259-.106a.326.326,0,0,1-.208-.305v-.856a.4.4,0,0,0-.4-.4h-1.382a.4.4,0,0,0-.4.4v.848a.333.333,0,0,1-.222.31c-.083.031-.165.066-.246.1a.334.334,0,0,1-.377-.061l-.6-.6a.4.4,0,0,0-.562,0l-.975.979a.4.4,0,0,0,0,.562l.607.6a.328.328,0,0,1,.07.363c-.036.086-.073.179-.1.26a.326.326,0,0,1-.3.208l-.857,0a.4.4,0,0,0-.4.4l0,1.382a.4.4,0,0,0,.4.4l.848,0a.335.335,0,0,1,.312.222c.03.079.063.157.1.234a.332.332,0,0,1-.061.377l-.6.6a.4.4,0,0,0,0,.562l.979.975a.4.4,0,0,0,.562,0l.6-.606a.329.329,0,0,1,.363-.07c.086.036.181.073.26.105a.326.326,0,0,1,.208.3v.857a.4.4,0,0,0,.4.4h1.384a.4.4,0,0,0,.4-.4v-.848a.335.335,0,0,1,.222-.311c.079-.03.157-.062.234-.1a.333.333,0,0,1,.377.062l.6.6a.4.4,0,0,0,.562,0l.976-.979a.4.4,0,0,0,0-.562l-.605-.6a.327.327,0,0,1-.07-.363C-2887.974-884.984-2887.884-885.231-2887.879-885.246Zm-5.5-1.438a1.958,1.958,0,0,1,2.279-1.573,1.959,1.959,0,0,1,1.573,2.279,1.958,1.958,0,0,1-2.279,1.573,1.908,1.908,0,0,1-.353-.1A1.958,1.958,0,0,1-2893.38-886.684Z" transform="translate(2896.516 891.388)" fill="#fff"/>
        </g>
      </g>
      <g id="Group_3491" data-name="Group 3491" transform="translate(76.832 45.24)">
        <circle id="Ellipse_444" data-name="Ellipse 444" cx="6.482" cy="6.482" r="6.482" fill="#ff9800"/>
        <g id="Group_3490" data-name="Group 3490" transform="translate(3.334 3.332)">
          <path id="Path_13691" data-name="Path 13691" d="M-2908.292-1036.8c.143,0,.269-.114.377-.341a1.992,1.992,0,0,0,.162-.856,2.706,2.706,0,0,0-.642-1.849,2.173,2.173,0,0,0-1.72-.733,2.416,2.416,0,0,0-1.813.769,2.565,2.565,0,0,0-.737,1.842,2.462,2.462,0,0,0,.693,1.788,2.3,2.3,0,0,0,1.716.713,1.973,1.973,0,0,0,1.41-.586l.327.563a2.4,2.4,0,0,1-.808.448,2.837,2.837,0,0,1-.927.17,3.022,3.022,0,0,1-2.215-.883,2.991,2.991,0,0,1-.892-2.212,3.207,3.207,0,0,1,3.2-3.206,2.973,2.973,0,0,1,2.212.9,3.082,3.082,0,0,1,.887,2.251,2.442,2.442,0,0,1-.36,1.4,1.1,1.1,0,0,1-.948.527.909.909,0,0,1-.551-.181.933.933,0,0,1-.345-.46,1.342,1.342,0,0,1-1.106.563,1.577,1.577,0,0,1-1.165-.508,1.765,1.765,0,0,1-.5-1.288,1.982,1.982,0,0,1,.448-1.316,1.462,1.462,0,0,1,1.177-.534,1.062,1.062,0,0,1,.468.107,1.074,1.074,0,0,1,.317.21l.1.1v-.327h.99v2.528C-2908.529-1036.929-2908.45-1036.8-2908.292-1036.8Zm-1.22-1.2a1.019,1.019,0,0,0-.21-.658.673.673,0,0,0-.551-.261.653.653,0,0,0-.544.261,1.024,1.024,0,0,0-.2.646,1.128,1.128,0,0,0,.2.67.639.639,0,0,0,.551.285.647.647,0,0,0,.55-.273A1.1,1.1,0,0,0-2909.512-1037.994Z" transform="translate(2913.362 1041.172)" fill="#fff"/>
        </g>
      </g>
      <g id="Group_3495" data-name="Group 3495" transform="translate(99.415 31.847)">
        <g id="Group_3492" data-name="Group 3492" transform="translate(0 62.621)">
          <path id="Path_42414" data-name="Path 42414" d="M-2828.907-914.6h191.45a.453.453,0,0,1,.453.453v120.451H-2829.36V-914.143A.453.453,0,0,1-2828.907-914.6Z" transform="translate(2840.569 914.596)" fill="#a5cbef"/>
          <path id="Path_13692" data-name="Path 13692" d="M-2645.5-566.234h-214.777a32.677,32.677,0,0,0,23.037,9.5h168.7A32.678,32.678,0,0,0-2645.5-566.234Z" transform="translate(2860.274 692.548)" fill="#dbeaf9"/>
          <rect id="Rectangle_1539" data-name="Rectangle 1539" width="214.777" height="6.04" transform="translate(0 120.274)" fill="#fff"/>
          <path id="Path_13693" data-name="Path 13693" d="M-2577.071-575.808h-26.586a1.648,1.648,0,0,1-1.643-1.643h0a1.649,1.649,0,0,1,1.643-1.644h26.586a1.648,1.648,0,0,1,1.643,1.644h0A1.648,1.648,0,0,1-2577.071-575.808Z" transform="translate(2697.752 700.746)" fill="#dbeaf9"/>
        </g>
        <path id="Path_13694" data-name="Path 13694" d="M-2630.129-803.467H-2774.4l-6.458-111.129H-2624.5Z" transform="translate(2809.651 977.217)" fill="#fff" opacity="0.3" style="isolation: isolate"/>
        <g id="Group_3493" data-name="Group 3493" transform="translate(35.255)">
          <path id="Rectangle_1540" data-name="Rectangle 1540" d="M-2762.618-1067.3H-2619.2a.426.426,0,0,1,.426.426h0v173.324h-144.267v-173.324A.426.426,0,0,1-2762.618-1067.3Z" transform="translate(2763.044 1074.55)" fill="#fff"/>
          <path id="Path_13695" data-name="Path 13695" d="M-2618.775-1065.582V-1082.3a5,5,0,0,0-5-5h-134.268a5,5,0,0,0-5,5h0v16.716Z" transform="translate(2763.043 1087.297)" fill="#f8b018"/>
          <rect id="Rectangle_1541" data-name="Rectangle 1541" width="103.52" height="56.088" transform="translate(20.792 30.787)" fill="#edf3fa"/>
          <rect id="Rectangle_1542" data-name="Rectangle 1542" width="90.228" height="3.362" transform="translate(26.57 75.629)" fill="#fff"/>
          <rect id="Rectangle_1543" data-name="Rectangle 1543" width="50.719" height="3.362" transform="translate(26.57 75.629)" fill="#259ada"/>
          <path id="Path_13696" data-name="Path 13696" d="M-2606.493-815.848h-94.9a4.312,4.312,0,0,0-4.312,4.312h0a4.312,4.312,0,0,0,4.312,4.312h94.9a4.312,4.312,0,0,0,4.312-4.312h0a4.312,4.312,0,0,0-4.312-4.312Z" transform="translate(2726.492 914.274)" fill="#edf3fa"/>
          <path id="Path_13697" data-name="Path 13697" d="M-2605.585-764.857h-94.9a4.311,4.311,0,0,0-4.312,4.311h0a4.312,4.312,0,0,0,4.311,4.312h94.9a4.311,4.311,0,0,0,4.312-4.312h0a4.311,4.311,0,0,0-4.312-4.312Z" transform="translate(2725.914 881.772)" fill="#edf3fa"/>
          <path id="Path_13698" data-name="Path 13698" d="M-2604.677-713.867h-94.9a4.312,4.312,0,0,0-4.312,4.312h0a4.312,4.312,0,0,0,4.312,4.312h94.9a4.312,4.312,0,0,0,4.312-4.312h0A4.312,4.312,0,0,0-2604.677-713.867Z" transform="translate(2725.335 849.271)" fill="#edf3fa"/>
          <path id="Path_13699" data-name="Path 13699" d="M-2603.766-662.877h-94.9a4.312,4.312,0,0,0-4.312,4.312h0a4.312,4.312,0,0,0,4.312,4.312h94.9a4.311,4.311,0,0,0,4.312-4.311h0a4.312,4.312,0,0,0-4.311-4.312Z" transform="translate(2724.756 816.77)" fill="#edf3fa"/>
          <path id="Path_13700" data-name="Path 13700" d="M-2739.572-1068.226a1.651,1.651,0,0,1-1.65,1.652,1.651,1.651,0,0,1-1.651-1.651,1.652,1.652,0,0,1,1.65-1.652h0A1.651,1.651,0,0,1-2739.572-1068.226Z" transform="translate(2750.187 1076.194)" fill="#fff"/>
          <path id="Path_13701" data-name="Path 13701" d="M-2724.4-1068.226a1.652,1.652,0,0,1-1.651,1.652,1.651,1.651,0,0,1-1.651-1.651,1.651,1.651,0,0,1,1.65-1.652h0A1.651,1.651,0,0,1-2724.4-1068.226Z" transform="translate(2740.517 1076.194)" fill="#fff"/>
          <path id="Path_13702" data-name="Path 13702" d="M-2709.23-1068.226a1.651,1.651,0,0,1-1.651,1.652,1.651,1.651,0,0,1-1.652-1.65,1.651,1.651,0,0,1,1.65-1.652h0A1.651,1.651,0,0,1-2709.23-1068.226Z" transform="translate(2730.848 1076.194)" fill="#fff"/>
          <path id="Path_13703" data-name="Path 13703" d="M-2390.184-1087.3h-6.387a5,5,0,0,1,5,5h0v168.752h6.386V-1082.3a5,5,0,0,0-5-5Z" transform="translate(2529.452 1087.298)" fill="#414042" opacity="0.2" style="isolation: isolate"/>
          <path id="Path_13704" data-name="Path 13704" d="M-2552.755-880.735a3.782,3.782,0,0,1-3.782,3.783,3.783,3.783,0,0,1-3.783-3.783,3.783,3.783,0,0,1,3.783-3.782A3.783,3.783,0,0,1-2552.755-880.735Z" transform="translate(2633.826 958.045)" fill="#259ada"/>
          <path id="Path_13705" data-name="Path 13705" d="M-2551.486-877.782a2.1,2.1,0,0,1-2.1,2.1,2.1,2.1,0,0,1-2.1-2.1,2.1,2.1,0,0,1,2.1-2.1h0A2.1,2.1,0,0,1-2551.486-877.782Z" transform="translate(2630.877 955.092)" fill="#fff"/>
          <rect id="Rectangle_1544" data-name="Rectangle 1544" width="109.669" height="3.626" transform="translate(16.116 14.354)" fill="#fff"/>
        </g>
      </g>
      <g id="Group_3517" data-name="Group 3517" transform="translate(42.774 125.013)">
        <g id="Group_3497" data-name="Group 3497" transform="translate(0 45.498)">
          <g id="Group_3496" data-name="Group 3496">
            <path id="Rectangle_1545" data-name="Rectangle 1545" d="M-2921.495-645.4h-93.979a1.013,1.013,0,0,1-1.013-1.013h0v-57.786a.682.682,0,0,1,.682-.682h94.727a.677.677,0,0,1,.677.677h0v57.712A1.093,1.093,0,0,1-2921.495-645.4Z" transform="translate(3016.487 704.877)" fill="#ff9800"/>
          </g>
        </g>
        <g id="Group_3499" data-name="Group 3499" transform="translate(1.088 12.588)">
          <g id="Group_3498" data-name="Group 3498">
            <path id="Path_13706" data-name="Path 13706" d="M-3013.485-760.579l40.231-32.781a11.832,11.832,0,0,1,13.963,0l38.041,31.45Z" transform="translate(3013.485 795.639)" fill="#ff9800"/>
          </g>
        </g>
        <g id="Group_3510" data-name="Group 3510" transform="translate(5.781)">
          <g id="Group_3501" data-name="Group 3501" transform="translate(0 36.947)" opacity="0.2">
            <g id="Group_3500" data-name="Group 3500">
              <path id="Path_13707" data-name="Path 13707" d="M-2936.032-676.691h-56.723l-7.788-44.891,8.445-6.878,56.066,7.167Z" transform="translate(3000.543 728.46)" fill="#231f20"/>
            </g>
          </g>
          <g id="Group_3503" data-name="Group 3503" transform="translate(18.115 35.325)" opacity="0.2">
            <g id="Group_3502" data-name="Group 3502">
              <path id="Path_13708" data-name="Path 13708" d="M-2950.583-681.162h56.722l7.789-44.892-8.445-6.877-56.066,7.167Z" transform="translate(2950.583 732.931)" fill="#231f20"/>
            </g>
          </g>
          <g id="Group_3505" data-name="Group 3505" transform="translate(8.158)">
            <g id="Group_3504" data-name="Group 3504">
              <path id="Path_13709" data-name="Path 13709" d="M-2963.968-830.355l-14.077,13.67v75.045h66.666v-83.067a5.648,5.648,0,0,0-5.647-5.648h-46.942Z" transform="translate(2978.045 830.355)" fill="#e3f1ff"/>
            </g>
          </g>
          <g id="Group_3507" data-name="Group 3507" transform="translate(8.158 12.251)" opacity="0.35">
            <g id="Group_3506" data-name="Group 3506">
              <path id="Path_13710" data-name="Path 13710" d="M-2964.8-796.569l-13.241,15.142v-13.722Z" transform="translate(2978.045 796.569)" fill="#a5cbef"/>
            </g>
          </g>
          <g id="Group_3509" data-name="Group 3509" transform="translate(8.158 0)">
            <g id="Group_3508" data-name="Group 3508">
              <path id="Path_13711" data-name="Path 13711" d="M-2963.968-830.354l-14.077,13.67h10.322a3.755,3.755,0,0,0,3.755-3.755Z" transform="translate(2978.045 830.354)" fill="#a5ccff"/>
            </g>
          </g>
        </g>
        <g id="Group_3512" data-name="Group 3512" transform="translate(0 47.649)">
          <g id="Group_3511" data-name="Group 3511">
            <path id="Path_13712" data-name="Path 13712" d="M-3013.7-641.38s37.107-25.886,37.107-28.231l-38.8-29.334a22.147,22.147,0,0,0-1.088,7.675v47.261C-3016.486-641.834-3014.9-641.689-3013.7-641.38Z" transform="translate(3016.487 698.945)" fill="#fec55e"/>
          </g>
        </g>
        <g id="Group_3514" data-name="Group 3514" transform="translate(57.714 48.751)">
          <g id="Group_3513" data-name="Group 3513">
            <path id="Path_13713" data-name="Path 13713" d="M-2821.021-639.441s-36.3-26.437-36.3-28.783l37.671-27.679s1.406,1.563,1.406,6.572v47.262C-2818.238-639.9-2819.828-639.751-2821.021-639.441Z" transform="translate(2857.317 695.904)" fill="#fec55e"/>
          </g>
        </g>
        <g id="Group_3516" data-name="Group 3516" transform="translate(2.407 70.91)">
          <g id="Group_3515" data-name="Group 3515">
            <path id="Path_13714" data-name="Path 13714" d="M-3009.849-600.43l39.052-32.109a11.7,11.7,0,0,1,13.8,0l39.051,32.109Z" transform="translate(3009.849 634.792)" fill="#b5d73c"/>
          </g>
        </g>
        <path id="Path_13715" data-name="Path 13715" d="M-2890.976-741.167l-22.2,12.815a2.248,2.248,0,0,1-3.07-.826,2.249,2.249,0,0,1-.3-1.12v-25.63a2.248,2.248,0,0,1,2.25-2.246,2.252,2.252,0,0,1,1.12.3l22.2,12.815a2.248,2.248,0,0,1,.82,3.072A2.252,2.252,0,0,1-2890.976-741.167Z" transform="translate(2952.782 784.347)" fill="#ff5722"/>
      </g>
      <g id="Group_3524" data-name="Group 3524" transform="translate(276.606 130.763)">
        <g id="Group_3522" data-name="Group 3522">
          <path id="Path_13729" data-name="Path 13729" d="M-2317.5-714.976h-49.977a4.124,4.124,0,0,1-4.124-4.124h0v-91.275a4.124,4.124,0,0,1,4.124-4.124h49.977a4.124,4.124,0,0,1,4.124,4.124V-719.1a4.124,4.124,0,0,1-4.123,4.125Z" transform="translate(2371.599 814.499)" fill="#fff"/>
        </g>
        <g id="Group_3523" data-name="Group 3523" transform="translate(0.852 1.011)">
          <path id="Path_13730" data-name="Path 13730" d="M-2316.853-714.293h-48.274a4.124,4.124,0,0,1-4.124-4.124h0v-89.169a4.124,4.124,0,0,1,4.124-4.124h48.273a4.125,4.125,0,0,1,4.124,4.124v89.169a4.124,4.124,0,0,1-4.124,4.124Z" transform="translate(2369.25 811.71)" fill="#deecff"/>
        </g>
        <path id="Path_13731" data-name="Path 13731" d="M-2296.263-700.2l-20.141,11.628a2.038,2.038,0,0,1-2.785-.745,2.035,2.035,0,0,1-.273-1.019v-23.258a2.038,2.038,0,0,1,2.039-2.039,2.041,2.041,0,0,1,1.02.273l20.141,11.629a2.038,2.038,0,0,1,.747,2.785A2.034,2.034,0,0,1-2296.263-700.2Z" transform="translate(2338.366 751.481)" fill="#fff"/>
      </g>
      <g id="Group_3525" data-name="Group 3525" transform="translate(192.049 78.009)">
        <circle id="Ellipse_446" data-name="Ellipse 446" cx="12.849" cy="12.849" r="12.849" transform="translate(0 0.002)" fill="#eb9800"/>
        <path id="Path_13732" data-name="Path 13732" d="M-2591.949-959.987a12.849,12.849,0,0,0-12.849,12.849h0c0,.254.023.5.037.75a11.343,11.343,0,0,1,12.062-10.577,11.343,11.343,0,0,1,10.577,12.062,11.343,11.343,0,0,1-10.577,10.577c.249.014.5.036.75.036A12.849,12.849,0,0,0-2579.1-947.14a12.849,12.849,0,0,0-12.849-12.849Z" transform="translate(2604.799 959.989)" fill="#ffba00"/>
        <path id="Path_13733" data-name="Path 13733" d="M-2573.8-934.235l-8.766,5.061a.887.887,0,0,1-1.212-.324.89.89,0,0,1-.119-.443v-10.123a.888.888,0,0,1,.888-.887.884.884,0,0,1,.443.119l8.766,5.061a.887.887,0,0,1,.326,1.212A.883.883,0,0,1-2573.8-934.235Z" transform="translate(2591.476 947.855)" fill="#fff"/>
      </g>
      <g id="Group_3540" data-name="Group 3540" transform="translate(111.907 169.426)">
        <path id="Path_13748" data-name="Path 13748" d="M-2703.9-703.056l-.363-3.817a1.1,1.1,0,0,0-1.2-.991l-4.009.377a1.1,1.1,0,0,0-1.061,1.145,1.105,1.105,0,0,0,1.146,1.061,1.17,1.17,0,0,0,.122-.012l1.4-.132-19.223,25.873-15.723-13.832-16.6,20.082-15.079-14.939-22.034,24.91h2.756l19.377-21.713,15.142,15,16.691-20.19,15.815,13.914,20.543-27.654s.048.51.108,1.139a1.1,1.1,0,0,0,1.167,1.034,1.1,1.1,0,0,0,1.035-1.167c0-.032-.005-.063-.01-.094Z" transform="translate(2807.148 707.869)" fill="#b5d73c"/>
        <g id="Group_3531" data-name="Group 3531" transform="translate(72.754 28.308)">
          <rect id="Rectangle_1549" data-name="Rectangle 1549" width="33.118" height="8.588" rx="3.263" transform="translate(0 0)" fill="#ef9f0e"/>
          <path id="Path_13749" data-name="Path 13749" d="M-2593.306-611.785h-30.616a1.251,1.251,0,0,1-1.25-1.251h0v1.26a1.251,1.251,0,0,0,1.25,1.251h30.617a1.251,1.251,0,0,0,1.251-1.251h0v-1.26a1.251,1.251,0,0,1-1.251,1.251Z" transform="translate(2625.174 619.114)" fill="#ef9f0e"/>
          <rect id="Rectangle_1550" data-name="Rectangle 1550" width="7.884" height="8.588" transform="translate(17.35 0)" fill="#ef9f0e"/>
          <rect id="Rectangle_1551" data-name="Rectangle 1551" width="2.077" height="8.588" transform="translate(26.62)" fill="#ef9f0e"/>
        </g>
        <g id="Group_3532" data-name="Group 3532" transform="translate(75.1 36.467)">
          <rect id="Rectangle_1552" data-name="Rectangle 1552" width="33.118" height="8.588" rx="3.263" transform="translate(0 0)" fill="#fec55e"/>
          <path id="Path_13750" data-name="Path 13750" d="M-2586.836-589.285h-30.617a1.251,1.251,0,0,1-1.251-1.251h0v1.26a1.251,1.251,0,0,0,1.251,1.251h30.617a1.251,1.251,0,0,0,1.251-1.251v-1.26a1.251,1.251,0,0,1-1.251,1.251Z" transform="translate(2618.704 596.614)" fill="#fec55e"/>
          <rect id="Rectangle_1553" data-name="Rectangle 1553" width="7.884" height="8.588" transform="translate(17.35 0)" fill="#fec55e"/>
          <rect id="Rectangle_1554" data-name="Rectangle 1554" width="2.077" height="8.588" transform="translate(26.62)" fill="#fec55e"/>
        </g>
        <g id="Group_3533" data-name="Group 3533" transform="translate(71.25 53.043)">
          <rect id="Rectangle_1555" data-name="Rectangle 1555" width="33.118" height="8.588" rx="3.263" transform="translate(0 0.001)" fill="#fec55e"/>
          <path id="Path_13751" data-name="Path 13751" d="M-2597.455-543.568h-30.617a1.251,1.251,0,0,1-1.251-1.251v1.259a1.251,1.251,0,0,0,1.251,1.251h30.617a1.25,1.25,0,0,0,1.251-1.25h0v-1.259a1.251,1.251,0,0,1-1.251,1.251Z" transform="translate(2629.322 550.897)" fill="#fec55e"/>
          <rect id="Rectangle_1556" data-name="Rectangle 1556" width="7.884" height="8.588" transform="translate(17.35 0.001)" fill="#fec55e"/>
          <rect id="Rectangle_1557" data-name="Rectangle 1557" width="2.077" height="8.588" transform="translate(26.62)" fill="#fec55e"/>
        </g>
        <g id="Group_3534" data-name="Group 3534" transform="translate(73.045 44.455)">
          <rect id="Rectangle_1558" data-name="Rectangle 1558" width="33.118" height="8.588" rx="3.263" transform="translate(0)" fill="#ef9f0e"/>
          <path id="Path_13752" data-name="Path 13752" d="M-2592.5-567.254h-30.617a1.251,1.251,0,0,1-1.251-1.251h0v1.26a1.251,1.251,0,0,0,1.251,1.251h30.617a1.251,1.251,0,0,0,1.251-1.251h0v-1.26A1.251,1.251,0,0,1-2592.5-567.254Z" transform="translate(2624.371 574.582)" fill="#ef9f0e"/>
          <rect id="Rectangle_1559" data-name="Rectangle 1559" width="7.884" height="8.588" transform="translate(17.35)" fill="#ef9f0e"/>
          <rect id="Rectangle_1560" data-name="Rectangle 1560" width="2.077" height="8.588" transform="translate(26.62 0.001)" fill="#ef9f0e"/>
        </g>
        <g id="Group_3535" data-name="Group 3535" transform="translate(36.121 36.467)">
          <rect id="Rectangle_1561" data-name="Rectangle 1561" width="33.118" height="8.588" rx="3.263" transform="translate(0 0)" fill="#fec55e"/>
          <path id="Path_13753" data-name="Path 13753" d="M-2694.336-589.285h-30.617a1.251,1.251,0,0,1-1.251-1.251h0v1.26a1.251,1.251,0,0,0,1.251,1.251h30.617a1.251,1.251,0,0,0,1.251-1.251v-1.26a1.25,1.25,0,0,1-1.251,1.251Z" transform="translate(2726.204 596.614)" fill="#fec55e"/>
          <rect id="Rectangle_1562" data-name="Rectangle 1562" width="7.884" height="8.588" transform="translate(17.35 0)" fill="#fec55e"/>
          <rect id="Rectangle_1563" data-name="Rectangle 1563" width="2.077" height="8.588" transform="translate(26.62)" fill="#fec55e"/>
        </g>
        <g id="Group_3536" data-name="Group 3536" transform="translate(36.259 53.043)">
          <rect id="Rectangle_1564" data-name="Rectangle 1564" width="33.118" height="8.588" rx="3.263" transform="translate(0 0.001)" fill="#fec55e"/>
          <path id="Path_13754" data-name="Path 13754" d="M-2693.955-543.568h-30.617a1.251,1.251,0,0,1-1.25-1.251v1.259a1.25,1.25,0,0,0,1.25,1.251h30.617a1.25,1.25,0,0,0,1.251-1.25h0v-1.259a1.251,1.251,0,0,1-1.251,1.251Z" transform="translate(2725.822 550.897)" fill="#fec55e"/>
          <rect id="Rectangle_1565" data-name="Rectangle 1565" width="7.884" height="8.588" transform="translate(17.35 0.001)" fill="#fec55e"/>
          <rect id="Rectangle_1566" data-name="Rectangle 1566" width="2.077" height="8.588" transform="translate(26.62)" fill="#fec55e"/>
        </g>
        <g id="Group_3537" data-name="Group 3537" transform="translate(38.055 44.455)">
          <rect id="Rectangle_1567" data-name="Rectangle 1567" width="33.118" height="8.588" rx="3.263" transform="translate(0)" fill="#ef9f0e"/>
          <path id="Path_13755" data-name="Path 13755" d="M-2689-567.254h-30.617a1.251,1.251,0,0,1-1.251-1.251h0v1.26a1.251,1.251,0,0,0,1.251,1.251H-2689a1.251,1.251,0,0,0,1.251-1.251h0v-1.26A1.251,1.251,0,0,1-2689-567.254Z" transform="translate(2720.871 574.582)" fill="#ef9f0e"/>
          <rect id="Rectangle_1568" data-name="Rectangle 1568" width="7.884" height="8.588" transform="translate(17.35)" fill="#ef9f0e"/>
          <rect id="Rectangle_1569" data-name="Rectangle 1569" width="2.077" height="8.588" transform="translate(26.62 0.001)" fill="#ef9f0e"/>
        </g>
        <g id="Group_3538" data-name="Group 3538" transform="translate(0 53.043)">
          <rect id="Rectangle_1570" data-name="Rectangle 1570" width="33.118" height="8.588" rx="3.263" transform="translate(0 0.001)" fill="#fec55e"/>
          <path id="Path_13756" data-name="Path 13756" d="M-2793.955-543.568h-30.616a1.251,1.251,0,0,1-1.251-1.251v1.259a1.251,1.251,0,0,0,1.251,1.251h30.616a1.25,1.25,0,0,0,1.251-1.25h0v-1.259a1.251,1.251,0,0,1-1.251,1.251Z" transform="translate(2825.822 550.897)" fill="#fec55e"/>
          <rect id="Rectangle_1571" data-name="Rectangle 1571" width="7.884" height="8.588" transform="translate(17.35 0.001)" fill="#fec55e"/>
          <rect id="Rectangle_1572" data-name="Rectangle 1572" width="2.077" height="8.588" transform="translate(26.62)" fill="#fec55e"/>
        </g>
        <g id="Group_3539" data-name="Group 3539" transform="translate(1.795 44.455)">
          <rect id="Rectangle_1573" data-name="Rectangle 1573" width="33.118" height="8.588" rx="3.263" transform="translate(0)" fill="#ef9f0e"/>
          <path id="Path_13757" data-name="Path 13757" d="M-2789-567.254h-30.617a1.251,1.251,0,0,1-1.251-1.251h0v1.26a1.251,1.251,0,0,0,1.251,1.251H-2789a1.251,1.251,0,0,0,1.251-1.251h0v-1.26A1.251,1.251,0,0,1-2789-567.254Z" transform="translate(2820.871 574.582)" fill="#ef9f0e"/>
          <rect id="Rectangle_1574" data-name="Rectangle 1574" width="7.884" height="8.588" transform="translate(17.35)" fill="#ef9f0e"/>
          <rect id="Rectangle_1575" data-name="Rectangle 1575" width="2.077" height="8.588" transform="translate(26.62 0.001)" fill="#ef9f0e"/>
        </g>
      </g>
    </g>
    <g id="Group_75" data-name="Group 75" transform="translate(500.721 308.917)">
      <path id="Path_279" data-name="Path 279" d="M15235.63,106.437a8.329,8.329,0,1,1-8.329-8.329A8.328,8.328,0,0,1,15235.63,106.437Z" transform="translate(-15218.972 -98.108)" fill="#32aaeb"/>
      <g id="Group_72" data-name="Group 72" transform="translate(3.739 5.94)">
        <path id="Path_280" data-name="Path 280" d="M15233.072,117.771a.324.324,0,0,1-.323-.323.995.995,0,0,0-1.989,0,.322.322,0,1,1-.645,0,1.641,1.641,0,1,1,3.281,0A.324.324,0,0,1,15233.072,117.771Z" transform="translate(-15230.115 -115.807)" fill="#4d5068"/>
      </g>
      <g id="Group_73" data-name="Group 73" transform="translate(9.638 5.94)">
        <path id="Path_281" data-name="Path 281" d="M15250.646,117.771a.322.322,0,0,1-.322-.323.995.995,0,0,0-1.989,0,.323.323,0,1,1-.646,0,1.64,1.64,0,1,1,3.28,0A.323.323,0,0,1,15250.646,117.771Z" transform="translate(-15247.689 -115.807)" fill="#4d5068"/>
      </g>
      <g id="Group_74" data-name="Group 74" transform="translate(4.606 10.482)">
        <path id="Path_282" data-name="Path 282" d="M15240.143,129.34a3.724,3.724,0,1,1-7.447,0Z" transform="translate(-15232.695 -129.34)" fill="#fff"/>
      </g>
      <path id="Path_283" data-name="Path 283" d="M15233.746,133.987a3.707,3.707,0,0,0,6.741,0Z" transform="translate(-15228.788 -121.945)" fill="#ff5722"/>
    </g>
    <g id="Group_80" data-name="Group 80" transform="translate(522.965 333.635)">
      <ellipse id="Ellipse_7" data-name="Ellipse 7" cx="11.397" cy="11.397" rx="11.397" ry="11.397" transform="translate(0 22.184) rotate(-76.717)" fill="#ef3f54"/>
      <path id="Path_289" data-name="Path 289" d="M15319.624,203.459a1.888,1.888,0,0,0-1.337.553l-2.447-1.676a1.886,1.886,0,0,0,.105-.6,1.848,1.848,0,0,0-.091-.552l2.478-1.614a1.949,1.949,0,1,0-.489-.754l-2.442,1.592a1.9,1.9,0,1,0-.038,2.692l2.464,1.687a1.888,1.888,0,1,0,1.8-1.327Z" transform="translate(-15303.128 -188.061)" fill="#fff"/>
    </g>
    <g id="Group_84" data-name="Group 84" transform="translate(489.263 346.161)">
      <g id="Group_82" data-name="Group 82" transform="translate(0 0)">
        <path id="Path_291" data-name="Path 291" d="M15198.156,215.741a6.66,6.66,0,1,1-6.659-6.66A6.66,6.66,0,0,1,15198.156,215.741Z" transform="translate(-15184.836 -209.081)" fill="#393e87"/>
      </g>
      <g id="Group_83" data-name="Group 83" transform="translate(2.584 2.76)">
        <path id="Path_292" data-name="Path 292" d="M15199.025,225.025l-2.3-1.17a.153.153,0,0,0-.143,0l-2.268,1.229a.153.153,0,0,1-.224-.158l.4-2.547a.145.145,0,0,0-.045-.135l-1.869-1.776a.153.153,0,0,1,.081-.262l2.546-.4a.151.151,0,0,0,.114-.086l1.111-2.327a.153.153,0,0,1,.274,0l1.171,2.3a.154.154,0,0,0,.117.082l2.557.338a.153.153,0,0,1,.088.26l-1.823,1.824a.155.155,0,0,0-.042.136l.469,2.536A.153.153,0,0,1,15199.025,225.025Z" transform="translate(-15192.534 -217.305)" fill="#fff"/>
      </g>
    </g>
    <g id="Group_89" data-name="Group 89" transform="translate(511.23 372.082)">
      <ellipse id="Ellipse_9" data-name="Ellipse 9" cx="6.148" cy="6.148" rx="6.148" ry="6.148" fill="#f97e0b"/>
      <g id="Group_88" data-name="Group 88" transform="translate(3.199 3.657)">
        <path id="Path_295" data-name="Path 295" d="M15261.959,302.194l-2.137-2.136,1.221-1.22.916.916,2.539-2.542,1.222,1.22Z" transform="translate(-15259.822 -297.211)" fill="#fff"/>
      </g>
    </g>
    <g id="Group_92" data-name="Group 92" transform="translate(540.664 303.543)">
      <ellipse id="Ellipse_11" data-name="Ellipse 11" cx="6.951" cy="6.951" rx="6.951" ry="6.951" transform="translate(0 12.843) rotate(-67.5)" fill="#4d5068"/>
      <path id="Path_297" data-name="Path 297" d="M15361.377,100.025V98.956a2.445,2.445,0,0,0-4.89,0v1.069a3.088,3.088,0,1,0,4.89,0Zm-1.895,2.943h-1.1l.108-1a.641.641,0,0,1-.208-.473.648.648,0,1,1,1.09.473Zm1.115-3.658a3.076,3.076,0,0,0-3.331,0v-.354a1.666,1.666,0,0,1,3.331,0Z" transform="translate(-15349.851 -91.674)" fill="#fff"/>
    </g>
    <g id="Group_113" data-name="Group 113" transform="translate(587.67 299.369)">
      <ellipse id="Ellipse_14" data-name="Ellipse 14" cx="9.911" cy="9.911" rx="9.911" ry="9.911" fill="#393e87"/>
      <g id="Group_112" data-name="Group 112" transform="translate(6.078 4.079)">
        <g id="Group_109" data-name="Group 109" transform="translate(0 0.962)">
          <g id="Group_108" data-name="Group 108">
            <path id="Path_365" data-name="Path 365" d="M15500.887,94.143h-3.336a1.394,1.394,0,0,1-1.393-1.392v-.713h1.98v.124h2.748a.959.959,0,0,0,.957-.958.624.624,0,0,0-.623-.624h-2.457a2.607,2.607,0,0,1-2.605-2.6v-.357a2.942,2.942,0,0,1,2.939-2.939h3.336a1.394,1.394,0,0,1,1.393,1.391v.81h-1.982v-.22h-2.746a.959.959,0,0,0-.959.958v.357a.624.624,0,0,0,.625.624h2.457a2.607,2.607,0,0,1,2.605,2.6A2.943,2.943,0,0,1,15500.887,94.143Z" transform="translate(-15496.158 -84.68)" fill="#f6f6f7"/>
          </g>
        </g>
        <g id="Group_111" data-name="Group 111" transform="translate(2.843)">
          <g id="Group_110" data-name="Group 110">
            <rect id="Rectangle_65" data-name="Rectangle 65" width="1.981" height="11.665" fill="#f6f6f7"/>
          </g>
        </g>
      </g>
    </g>
    <g id="Group_115" data-name="Group 115" transform="translate(525.643 286.005)">
      <ellipse id="Ellipse_15" data-name="Ellipse 15" cx="6.352" cy="6.352" rx="6.352" ry="6.352" fill="#32aaeb"/>
      <g id="Group_114" data-name="Group 114" transform="translate(3.265 3.265)">
        <path id="Path_366" data-name="Path 366" d="M15307.93,43.855q.209,0,.37-.334a1.972,1.972,0,0,0,.158-.839,2.657,2.657,0,0,0-.628-1.813,2.133,2.133,0,0,0-1.686-.718,2.364,2.364,0,0,0-1.779.753,2.521,2.521,0,0,0-.722,1.806,2.412,2.412,0,0,0,.68,1.751,2.249,2.249,0,0,0,1.68.7,1.938,1.938,0,0,0,1.384-.574l.316.551a2.368,2.368,0,0,1-.791.439,2.79,2.79,0,0,1-.909.167,2.964,2.964,0,0,1-2.171-.866,2.925,2.925,0,0,1-.871-2.166,3.14,3.14,0,0,1,3.136-3.141,2.922,2.922,0,0,1,2.168.885,3.023,3.023,0,0,1,.868,2.206,2.4,2.4,0,0,1-.352,1.37,1.085,1.085,0,0,1-.931.516.9.9,0,0,1-.539-.178.923.923,0,0,1-.337-.451,1.316,1.316,0,0,1-1.082.551,1.542,1.542,0,0,1-1.143-.5,1.729,1.729,0,0,1-.484-1.262,1.948,1.948,0,0,1,.437-1.289,1.435,1.435,0,0,1,1.153-.524,1.05,1.05,0,0,1,.46.1,1.068,1.068,0,0,1,.31.206l.1.1v-.318h.972v2.477C15307.7,43.725,15307.773,43.855,15307.93,43.855Zm-1.2-1.173a.994.994,0,0,0-.206-.644.659.659,0,0,0-.539-.256.64.64,0,0,0-.532.256,1.006,1.006,0,0,0-.2.633,1.106,1.106,0,0,0,.2.656.669.669,0,0,0,1.079.011A1.074,1.074,0,0,0,15306.733,42.682Z" transform="translate(-15302.961 -39.568)" fill="#fff"/>
      </g>
    </g>
  </g>
  <g id="Group_12839" data-name="Group 12839" transform="translate(106.958 23.905)">
    <rect id="Rectangle_867" data-name="Rectangle 867" width="12.561" height="18.563" transform="translate(55.691 225.15)" fill="#ffcebd"/>
    <path id="Path_13040" data-name="Path 13040" d="M4472.881,2445.038s-94.912-6.7-103.844,0c0,0-12.841,3.629-9.771,24.844l7.537,57.786h15.912s7.816-45.5-.838-58.622l66.994,15.819Z" transform="translate(-4312.789 -2292.886)" fill="#4d5068"/>
    <path id="Path_13041" data-name="Path 13041" d="M4354.845,2654.9l4.188,10.607v8.375h-51.363v-2.317a4.489,4.489,0,0,1,3.447-4.366l8.276-1.971L4336.7,2654.9h3.069l1.4,3.071h8.932l.839-3.071Z" transform="translate(-4282.964 -2417.053)" fill="#c7c7c7"/>
    <path id="Path_13042" data-name="Path 13042" d="M4359.032,2689.742v4.467h-51.363v-2.318a4.486,4.486,0,0,1,.55-2.15Z" transform="translate(-4282.964 -2437.376)" fill="#4d5068"/>
    <path id="Path_13043" data-name="Path 13043" d="M4695.612,2601.3l12.841-6.7v12.282l-12.841,6.42Z" transform="translate(-4509.28 -2381.875)" fill="#ffcebd"/>
    <path id="Path_13044" data-name="Path 13044" d="M4535.443,2444.217l29.311,2.079a37.69,37.69,0,0,1,2.4,5.288l-20.819,34.538-20.48-4.835Z" transform="translate(-4410.245 -2294.144)" fill="#272834" opacity="0.15" style="isolation: isolate"/>
    <path id="Path_13045" data-name="Path 13045" d="M4565.4,2449.208s11.262,19.121,1.058,38.333a38.438,38.438,0,0,0-1.842,3.854l-14.848,37.651,46.9-17.308v16.19l-38.467,21.746a39.929,39.929,0,0,1-17.854,4.215h-9.431a14.972,14.972,0,0,1-12.4-6.574h0a6.553,6.553,0,0,1-1.067-4.564l14.454-93.541Z" transform="translate(-4405.312 -2297.055)" fill="#4d5068"/>
    <path id="Path_13046" data-name="Path 13046" d="M4712.144,2587.959l17.028-4.746h5.583l3.606,34.768a7.94,7.94,0,0,1-1.362,5.333l-3.916,8.26H4720.8l-.406-1.053a15.4,15.4,0,0,1,.055-7.708l1.467-3.588-9.77-12.562-1.116-3.21,3.069-4.327-.313-9.255Z" transform="translate(-4518.275 -2375.231)" fill="#c7c7c7"/>
    <path id="Path_13047" data-name="Path 13047" d="M4741.1,2628.222l3.916-8.26a7.946,7.946,0,0,0,1.363-5.333l-3.258-31.418h4.119l3.605,34.768a7.939,7.939,0,0,1-1.363,5.332l-3.916,8.26h-12.282l-.406-1.052a6.943,6.943,0,0,1-.44-2.3Z" transform="translate(-4530.766 -2375.229)" fill="#4d5068"/>
    <path id="Path_13048" data-name="Path 13048" d="M4552.15,2325.351s-22.039-43.706-23.316-83.565a44.512,44.512,0,0,0-3.9-17.176l-5.478-11.951a4.066,4.066,0,0,0-4.67-2.254l-23.244,5.726s-10.982,20.826-12.521,36.584a8.109,8.109,0,0,0,.451,3.449c3.182,9.128,12.07,55.655,12.07,55.655C4505.21,2312.257,4527.865,2336.34,4552.15,2325.351Z" transform="translate(-4382.907 -2157.675)" fill="#f8b018"/>
    <path id="Path_13049" data-name="Path 13049" d="M4473.992,2141.931a15.449,15.449,0,0,0,4.548,2.64c3.3,1.345,6.281,1.015,9.815,1.015h12.206v-7.794c0-4.971.242-8.136,2.768-12.6a17.133,17.133,0,0,0,2.272-4.884c.637-3.174-.99-6.315-2.563-9.143-1.074-1.931-1.994-4.945-4.029-5.583a13.556,13.556,0,0,0-3.446,0h-12.353a14.185,14.185,0,0,0-12.608,8.9c-1.106,2.924-.292,4.775-.143,7.833.053,1.079-1.614,8.044-1.539,9.121.2,2.839,2.208,2.21,2.563,5.033a12.068,12.068,0,0,0,.533,2.6A7.111,7.111,0,0,0,4473.992,2141.931Z" transform="translate(-4377.032 -2096.517)" fill="#ffcebd"/>
    <path id="Path_13050" data-name="Path 13050" d="M4525.6,2198.871s-7.531-2.029-8.347-8.355h-19.725v4.377s5.236,5.624,4.827,9.7Z" transform="translate(-4393.721 -2146.141)" fill="#ffcebd"/>
    <path id="Path_13051" data-name="Path 13051" d="M4451.321,2084.007c-.043,1.663,1.421,2.953,2.862,3.785a14.813,14.813,0,0,0,7.979,2.12c4.343-.194,8.229-2.664,12.437-3.76a20.127,20.127,0,0,1,9.628-.115,7.73,7.73,0,0,1,3.214,1.413,7.177,7.177,0,0,0,1.333,1.063,4.121,4.121,0,0,0,1.475.31c2.854.244,5.922.627,8.028,2.57,2.736,2.521,2.9,6.8,2.18,10.45a30.469,30.469,0,0,1-2.528,7.511c-1.017,2.076-2.268,4.03-3.36,6.067a44.447,44.447,0,0,0-3.861,9.907l-.632-.167q-1.643-5.208-3.284-10.416c-.614-1.944-1.275-3.974-2.735-5.4s-3.974-1.993-5.533-.679c-2.5,2.108-.876,7.1-3.694,8.765.958-3.661-2.5-6.845-3.838-10.385-.514-1.363-.752-2.905-1.761-3.958-1.383-1.443-3.641-1.425-5.64-1.488a13.738,13.738,0,0,1-7.672-2.125,11.573,11.573,0,0,1-4.208-7.077A34.477,34.477,0,0,1,4451.321,2084.007Z" transform="translate(-4366.724 -2084.007)" fill="#4d5068"/>
    <path id="Path_13052" data-name="Path 13052" d="M4506.537,2345.221c-3.986-3.363-9.657-6.435-9.475-11.646l5.628-1.333c.426-2-1.3-3.916-3.239-4.556s-4.041-.389-6.083-.366a2.859,2.859,0,0,1-1.762-.384c-1.2-.884-.444-2.9.8-3.732s2.833-1.139,3.872-2.211c2.494-2.569.006-6.746-2.439-9.361-4.155-4.444-8.536-9.028-14.074-11.415-.334,1.687-.593,3.349-.75,4.958a8.1,8.1,0,0,0,.45,3.449c3.182,9.128,12.07,55.656,12.07,55.656,5.668.182,12.881,4.427,21.111,8.553C4516.463,2363.591,4514.284,2351.756,4506.537,2345.221Z" transform="translate(-4382.904 -2210.137)" fill="#fff" opacity="0.2" style="isolation: isolate"/>
    <path id="Path_13053" data-name="Path 13053" d="M4358.73,2248.258l-26.869,7.02A38.878,38.878,0,0,1,4303.8,2252l-37.751-20.058-3.116-.055a10.39,10.39,0,0,1-4.113-.931h0a10.384,10.384,0,0,1-4.039-3.266l-2.781-3.75a9.342,9.342,0,0,1-1.238-2.272l-1.927-5.135a7.26,7.26,0,0,1,.189-5.555l1.622-3.565,4.437,3.06,7.207,6.729a6.849,6.849,0,0,0,5.044,3.239l.388.045-1.241-8.175,2.735,1.246a5.272,5.272,0,0,1,2.5,2.385l2.015,3.912a5.76,5.76,0,0,1,.625,2.971l-.173,2.907,29.86,10.574a42.674,42.674,0,0,0,24.853,1.108l25.459-6.533Z" transform="translate(-4248.372 -2155.997)" fill="#ffcebd"/>
    <path id="Path_13054" data-name="Path 13054" d="M4500.079,2247.2l6.131,24.363,15.131-3.807a12.561,12.561,0,0,0,9.116-15.247h0a12.562,12.562,0,0,0-15.247-9.116h0Z" transform="translate(-4395.211 -2176.766)" fill="#f8b018"/>
  </g>
</svg>
