<svg xmlns="http://www.w3.org/2000/svg" width="36.634" height="33.582" viewBox="0 0 36.634 33.582">
  <g id="step-icon-2" transform="translate(0 -21.333)">
    <g id="Group_604" data-name="Group 604" transform="translate(11.448 39.269)">
      <path id="Path_813" data-name="Path 813" d="M171.067,283.067h-8.4A2.674,2.674,0,0,1,160,280.4v-5.724A2.674,2.674,0,0,1,162.671,272h8.4a2.674,2.674,0,0,1,2.671,2.671V280.4A2.674,2.674,0,0,1,171.067,283.067Zm-8.4-8.777a.382.382,0,0,0-.382.382V280.4a.382.382,0,0,0,.382.382h8.4a.382.382,0,0,0,.382-.382v-5.724a.382.382,0,0,0-.382-.382Z" transform="translate(-160 -272)"/>
    </g>
    <g id="Group_605" data-name="Group 605" transform="translate(13.738 33.544)">
      <path id="Path_814" data-name="Path 814" d="M200.014,200.014h-6.869A1.145,1.145,0,0,1,192,198.869v-2.29a4.579,4.579,0,1,1,9.159,0v2.29A1.145,1.145,0,0,1,200.014,200.014Zm-5.724-2.29h4.579v-1.145a2.29,2.29,0,1,0-4.579,0Z" transform="translate(-192 -192)"/>
    </g>
    <g id="Group_606" data-name="Group 606" transform="translate(0 21.333)">
      <path id="Path_815" data-name="Path 815" d="M32.437,54.915H4.2a4.2,4.2,0,0,1-4.2-4.2V25.531a4.2,4.2,0,0,1,4.2-4.2H32.437a4.2,4.2,0,0,1,4.2,4.2V50.717A4.2,4.2,0,0,1,32.437,54.915ZM4.2,23.623A1.911,1.911,0,0,0,2.29,25.531V50.717A1.911,1.911,0,0,0,4.2,52.625H32.437a1.911,1.911,0,0,0,1.908-1.908V25.531a1.911,1.911,0,0,0-1.908-1.908Z" transform="translate(0 -21.333)"/>
    </g>
    <g id="Group_607" data-name="Group 607" transform="translate(0 26.676)">
      <path id="Path_816" data-name="Path 816" d="M35.49,98.29H1.145a1.145,1.145,0,0,1,0-2.29H35.49a1.145,1.145,0,1,1,0,2.29Z" transform="translate(0 -96)"/>
    </g>
  </g>
</svg>
