<svg height="512" viewBox="0 0 512 512" width="512" xmlns="http://www.w3.org/2000/svg"><g id="outline"><path d="m456 16h-400a40.045 40.045 0 0 0 -40 40v336a40.045 40.045 0 0 0 40 40h143.953a73.414 73.414 0 0 1 -21.61 50.343 8 8 0 0 0 5.657 13.657h144a8 8 0 0 0 5.657-13.657 73.414 73.414 0 0 1 -21.61-50.343h143.953a40.045 40.045 0 0 0 40-40v-336a40.045 40.045 0 0 0 -40-40zm-424 40a24.028 24.028 0 0 1 24-24h400a24.028 24.028 0 0 1 24 24v312h-448zm279.106 424h-110.212a89.239 89.239 0 0 0 15.07-48h80.072a89.239 89.239 0 0 0 15.07 48zm144.894-64h-400a24.028 24.028 0 0 1 -24-24v-8h448v8a24.028 24.028 0 0 1 -24 24z"/><path d="m456 48h-400a8 8 0 0 0 -8 8v288a8 8 0 0 0 8 8h400a8 8 0 0 0 8-8v-288a8 8 0 0 0 -8-8zm-8 288h-384v-272h384z"/><path d="m126.98 320h258.04a8 8 0 0 0 7.164-4.439 150.486 150.486 0 0 0 15.816-67.561c0-83.813-68.187-152-152-152s-152 68.187-152 152a150.48 150.48 0 0 0 15.816 67.561 8 8 0 0 0 7.164 4.439zm129.02-208c74.991 0 136 61.01 136 136a134.584 134.584 0 0 1 -12.035 56h-247.93a134.577 134.577 0 0 1 -12.035-56c0-74.99 61.009-136 136-136z"/><path d="m148.647 288h214.706a8 8 0 0 0 7.668-5.718 120 120 0 1 0 -230.042 0 8 8 0 0 0 7.668 5.718zm48.6-125.765 7.826 13.555 13.856-8-7.841-13.582a103.114 103.114 0 0 1 19.027-6.946l2.726 15.464 15.757-2.778-2.725-15.454c3.334-.323 6.711-.494 10.128-.494s6.794.171 10.128.494l-2.729 15.454 15.757 2.778 2.726-15.464a103.114 103.114 0 0 1 19.027 6.946l-7.841 13.582 13.856 8 7.826-13.555a104.826 104.826 0 0 1 15.494 13.021l-11.975 10.051 10.284 12.255 11.989-10.06a104.013 104.013 0 0 1 10.157 17.518l-14.739 5.365 5.472 15.035 14.752-5.369a103.4 103.4 0 0 1 3.515 19.949h-15.7v16h15.685a103.877 103.877 0 0 1 -2.474 16h-202.421a104 104 0 0 1 -2.475-16h15.685v-16h-15.695a103.4 103.4 0 0 1 3.514-19.949l14.752 5.369 5.472-15.035-14.743-5.365a104.013 104.013 0 0 1 10.157-17.52l11.989 10.06 10.284-12.255-11.978-10.051a104.826 104.826 0 0 1 15.494-13.019z"/><path d="m280 248c0-.152-.009-.3-.011-.452l42.82-16.058-5.618-14.98-42.828 16.06a23.983 23.983 0 1 0 5.637 15.43zm-24 8a8 8 0 1 1 8-8 8.009 8.009 0 0 1 -8 8z"/><circle cx="88" cy="88" r="8"/><circle cx="112" cy="88" r="8"/><circle cx="136" cy="88" r="8"/><circle cx="256" cy="400" r="8"/><path d="m384 80h48v16h-48z"/><path d="m352 80h16v16h-16z"/></g></svg>