<svg xmlns="http://www.w3.org/2000/svg" width="356.089" height="233.479" viewBox="0 0 356.089 233.479">
  <g id="top-funnel" transform="translate(-101.036 -2481.551)">
    <g id="OBJECTS" transform="translate(101.036 2481.551)">
      <g id="Group_20" data-name="Group 20" transform="translate(0 0)">
        <g id="Group_11" data-name="Group 11">
          <g id="Group_5" data-name="Group 5" transform="translate(57.073 118.826)">
            <path id="Path_32" data-name="Path 32" d="M331.525,494.444l-23.457-48.327H170.113v48.327Z" transform="translate(-170.113 -438.585)" fill="#15638d"/>
            <path id="Path_33" data-name="Path 33" d="M497.852,453.648a187.771,187.771,0,0,1-51.994-7.532l23.458,48.327a60.269,60.269,0,0,0,57.073,0l23.457-48.327A187.77,187.77,0,0,1,497.852,453.648Z" transform="translate(-307.903 -438.584)" fill="#2379a7"/>
            <path id="Path_34" data-name="Path 34" d="M549.846,438.594a183.224,183.224,0,0,1-103.988,0,183.236,183.236,0,0,1,103.988,0Z" transform="translate(-307.903 -431.062)" fill="#00695c"/>
          </g>
          <g id="Group_6" data-name="Group 6" transform="translate(223.564 180.419)">
            <path id="Path_36" data-name="Path 36" d="M549.811,558.9a60.526,60.526,0,0,1-46.914,0,60.526,60.526,0,0,1,46.914,0Z" transform="translate(-502.897 -554.174)" fill="#0097a7"/>
            <path id="Path_37" data-name="Path 37" d="M526.354,568.359a63.385,63.385,0,0,1-23.457-4.73l23.457,48.327,23.457-48.327A63.384,63.384,0,0,1,526.354,568.359Z" transform="translate(-502.897 -558.899)" fill="#00acc1"/>
          </g>
          <path id="Path_38" data-name="Path 38" d="M549.846,438.594a183.224,183.224,0,0,1-103.988,0,183.236,183.236,0,0,1,103.988,0Z" transform="translate(-250.831 -312.236)" fill="#075d93"/>
          <path id="Path_39" data-name="Path 39" d="M549.88,321.95a494.112,494.112,0,0,1-80.53,6.661,494.112,494.112,0,0,1-80.53-6.661,490.092,490.092,0,0,1,161.06,0Z" transform="translate(-222.329 -254.384)" fill="#b71c1c"/>
          <g id="Group_7" data-name="Group 7" transform="translate(28.536 60.905)">
            <path id="Path_40" data-name="Path 40" d="M113.075,328.6v48.327H274.487L251.029,328.6Z" transform="translate(-113.075 -321.943)" fill="#50c1de"/>
            <path id="Path_41" data-name="Path 41" d="M549.88,321.95a494.112,494.112,0,0,1-80.53,6.661,494.112,494.112,0,0,1-80.53-6.661,490.092,490.092,0,0,1,161.06,0Z" transform="translate(-250.865 -315.289)" fill="#057ac3"/>
            <path id="Path_42" data-name="Path 42" d="M469.35,335.265a494.112,494.112,0,0,1-80.53-6.661l23.457,48.327a223.747,223.747,0,0,0,114.146,0L549.88,328.6A494.112,494.112,0,0,1,469.35,335.265Z" transform="translate(-250.865 -321.943)" fill="#2fadd3"/>
          </g>
          <g id="Group_8" data-name="Group 8">
            <path id="Path_43" data-name="Path 43" d="M217.448,259.419l-23.457-48.327H56.036v48.327Z" transform="translate(-56.036 -202.316)" fill="#2d94d6"/>
            <path id="Path_44" data-name="Path 44" d="M549.914,202.327A687.468,687.468,0,0,1,440.848,211.1a687.471,687.471,0,0,1-109.067-8.775,682.136,682.136,0,0,1,218.133,0Z" transform="translate(-193.826 -193.551)" fill="#057ac3"/>
            <path id="Path_45" data-name="Path 45" d="M440.848,219.867a687.471,687.471,0,0,1-109.067-8.775l23.457,48.327a427.273,427.273,0,0,0,85.609,8.775,427.28,427.28,0,0,0,85.609-8.775l23.457-48.327A687.468,687.468,0,0,1,440.848,219.867Z" transform="translate(-193.826 -202.316)" fill="#5faad9"/>
          </g>
          <g id="Group_9" data-name="Group 9" transform="translate(151.723 10.896)" opacity="0.56">
            <path id="Path_46" data-name="Path 46" d="M405.518,267.4c-10.461-1.206-19.2-2.587-25.51-3.7L359.3,215.33c7.965,1.106,19.031,2.481,32.294,3.692Z" transform="translate(-359.3 -215.33)" fill="#fafafa" style="mix-blend-mode: soft-light;isolation: isolate"/>
            <path id="Path_47" data-name="Path 47" d="M447.108,383.521c-7.014-1.016-12.888-2.176-17.14-3.127l-20.8-48.574c5.884.846,14.063,1.886,23.864,2.807Z" transform="translate(-384.22 -273.54)" fill="#fafafa" style="mix-blend-mode: soft-light;isolation: isolate"/>
            <path id="Path_48" data-name="Path 48" d="M489.318,501.4a68.152,68.152,0,0,1-8.845-3.047l-20.722-48.4c3.9.966,9.271,2.151,15.674,3.182Z" transform="translate(-409.495 -332.57)" fill="#fafafa" style="mix-blend-mode: soft-light;isolation: isolate"/>
            <path id="Path_49" data-name="Path 49" d="M529.652,613.218,509.5,566.15a66.159,66.159,0,0,0,7.179,2Z" transform="translate(-434.355 -390.635)" fill="#fafafa" style="mix-blend-mode: soft-light;isolation: isolate"/>
          </g>
          <g id="Group_10" data-name="Group 10" transform="translate(247.019 8.775)" opacity="0.43" style="mix-blend-mode: soft-light;isolation: isolate">
            <path id="Path_50" data-name="Path 50" d="M562.488,566.952a59.29,59.29,0,0,0,10.751-3.322L549.78,611.959Z" transform="translate(-549.78 -387.255)" fill="#424242"/>
            <path id="Path_51" data-name="Path 51" d="M616.9,446.13l-23.454,48.319a62.641,62.641,0,0,1-13.388,5.133l13.623-48.264A170.035,170.035,0,0,0,616.9,446.13Z" transform="translate(-564.911 -328.54)" fill="#424242"/>
            <path id="Path_52" data-name="Path 52" d="M662.039,328.6,638.58,376.929l-.005.005a205.459,205.459,0,0,1-25.305,5.073l13.8-48.9C648.191,331.162,662.039,328.6,662.039,328.6Z" transform="translate(-581.506 -269.81)" fill="#424242"/>
            <path id="Path_53" data-name="Path 53" d="M706.9,211.09l-23.459,48.329a375.758,375.758,0,0,1-37.5,5.974l13.653-48.374C688.165,214.457,706.9,211.09,706.9,211.09Z" transform="translate(-597.831 -211.09)" fill="#424242"/>
          </g>
        </g>
        <g id="Group_13" data-name="Group 13" transform="translate(62.021 139.232)">
          <path id="Path_832" data-name="Path 832" d="M8.692,7.22c0-1,.44-1.38,1.14-1.38s1.14.38,1.14,1.38v7.56c0,1-.44,1.38-1.14,1.38s-1.14-.38-1.14-1.38Zm-2.2,7.42c0,2.24,1.18,3.52,3.34,3.52s3.34-1.28,3.34-3.52V7.36c0-2.24-1.18-3.52-3.34-3.52s-3.34,1.28-3.34,3.52Zm12.34-6.42c0,1.12-.5,1.48-1.32,1.48h-.86v2h.74c1,0,1.44.48,1.44,1.78v1.1c0,1.24-.44,1.58-1.14,1.58s-1.14-.38-1.14-1.38v-1.3h-2.08v1.16c0,2.24,1.12,3.52,3.28,3.52s3.28-1.28,3.28-3.52v-1.1c0-1.42-.44-2.46-1.54-2.94,1.06-.44,1.54-1.38,1.54-2.88V7.36c0-2.24-1.12-3.52-3.28-3.52s-3.28,1.28-3.28,3.52v.76h2.08v-.9c0-1,.44-1.38,1.14-1.38s1.14.34,1.14,1.6Z" transform="translate(0 2.988)" fill="#fafafa"/>
          <g id="Group_12" data-name="Group 12" transform="translate(31.105 -2)">
            <rect id="Rectangle_2" data-name="Rectangle 2" width="0.706" height="28.579" fill="#fafafa"/>
          </g>
        </g>
        <g id="Group_17" data-name="Group 17" transform="translate(30.485 80.441)">
          <path id="Path_831" data-name="Path 831" d="M8.692,7.22c0-1,.44-1.38,1.14-1.38s1.14.38,1.14,1.38v7.56c0,1-.44,1.38-1.14,1.38s-1.14-.38-1.14-1.38Zm-2.2,7.42c0,2.24,1.18,3.52,3.34,3.52s3.34-1.28,3.34-3.52V7.36c0-2.24-1.18-3.52-3.34-3.52s-3.34,1.28-3.34,3.52Zm12.46-7.2c0,4.04-4.36,4.72-4.36,8.84V18h6.36V16h-4.16a1.514,1.514,0,0,1-.02-.3c0-2.3,4.38-3.94,4.38-8.34,0-2.24-1.12-3.52-3.28-3.52s-3.28,1.28-3.28,3.52V8.72h2.08V7.22c0-1,.44-1.38,1.14-1.38S18.952,6.18,18.952,7.44Z" transform="translate(0 2.988)" fill="#fafafa"/>
          <g id="Group_16" data-name="Group 16" transform="translate(27.105 -3)">
            <rect id="Rectangle_4" data-name="Rectangle 4" width="0.706" height="28.579" fill="#fafafa"/>
          </g>
        </g>
        <g id="Group_19" data-name="Group 19" transform="translate(11.948 18.65)">
          <path id="Path_830" data-name="Path 830" d="M8.692,7.22c0-1,.44-1.38,1.14-1.38s1.14.38,1.14,1.38v7.56c0,1-.44,1.38-1.14,1.38s-1.14-.38-1.14-1.38Zm-2.2,7.42c0,2.24,1.18,3.52,3.34,3.52s3.34-1.28,3.34-3.52V7.36c0-2.24-1.18-3.52-3.34-3.52s-3.34,1.28-3.34,3.52Zm9.46-7.32h1.7V18h2.2V4h-1.48a2.179,2.179,0,0,1-2.42,1.76Z" transform="translate(0 5.988)" fill="#fafafa"/>
          <path id="Path_827" data-name="Path 827" d="M33.939,4h-3.22l-2.24,14H30.5l.38-2.54h2.7l.38,2.54h2.22Zm-1.72,2.48,1.06,7.08h-2.12ZM42.879,18H45.8l1.56-14h-1.92L44.3,15.12,43.2,4h-2.12l-1.06,11.04L38.839,4H36.7l1.56,14h3.02l.8-7.46ZM53.039,4h-3.22l-2.24,14H49.6l.38-2.54h2.7l.38,2.54h2.22Zm-1.72,2.48,1.06,7.08h-2.12ZM63.139,18a4.123,4.123,0,0,1-.24-1.7V14.14c0-1.46-.36-2.52-1.46-2.98a2.791,2.791,0,0,0,1.44-2.84V7.22c0-2.16-.98-3.22-3.26-3.22H56.3V18h2.2V12.3h.76c1,0,1.44.48,1.44,1.78v2.2A4.305,4.305,0,0,0,60.9,18ZM59.559,6c.78,0,1.12.44,1.12,1.44V8.82c0,1.12-.5,1.48-1.32,1.48H58.5V6Zm6.98,0h3.8V4h-6V18h6V16h-3.8V11.9h3.02v-2h-3.02ZM76.4,18h2.26V4H76.7v8.38L74.439,4h-2.76V18h1.98V7.86Zm6.04-12h3.8V4h-6V18h6V16h-3.8V11.9h3.02v-2h-3.02Zm4.88,1.36c0,4,4.3,4.54,4.3,7.42,0,1-.44,1.36-1.14,1.36s-1.14-.36-1.14-1.36v-1h-2.08v.86c0,2.24,1.12,3.52,3.28,3.52s3.28-1.28,3.28-3.52c0-4-4.3-4.54-4.3-7.42,0-1,.4-1.38,1.1-1.38s1.1.38,1.1,1.38V7.8H93.8V7.36c0-2.24-1.1-3.52-3.24-3.52S87.319,5.12,87.319,7.36Zm7.48,0c0,4,4.3,4.54,4.3,7.42,0,1-.44,1.36-1.14,1.36s-1.14-.36-1.14-1.36v-1h-2.08v.86c0,2.24,1.12,3.52,3.28,3.52s3.28-1.28,3.28-3.52c0-4-4.3-4.54-4.3-7.42,0-1,.4-1.38,1.1-1.38s1.1.38,1.1,1.38V7.8h2.08V7.36c0-2.24-1.1-3.52-3.24-3.52S94.8,5.12,94.8,7.36Z" transform="translate(5.506 5.492)" fill="#fafafa"/>
          <path id="Path_828" data-name="Path 828" d="M33.091,12.78v2c0,1-.44,1.36-1.14,1.36s-1.14-.36-1.14-1.36V7.22c0-1,.44-1.38,1.14-1.38s1.14.38,1.14,1.38v1.5h2.08V7.36c0-2.24-1.12-3.52-3.28-3.52s-3.28,1.28-3.28,3.52v7.28c0,2.24,1.12,3.52,3.28,3.52s3.28-1.28,3.28-3.52V12.78Zm5.44-5.56c0-1,.44-1.38,1.14-1.38s1.14.38,1.14,1.38v7.56c0,1-.44,1.38-1.14,1.38s-1.14-.38-1.14-1.38Zm-2.2,7.42c0,2.24,1.18,3.52,3.34,3.52s3.34-1.28,3.34-3.52V7.36c0-2.24-1.18-3.52-3.34-3.52s-3.34,1.28-3.34,3.52ZM49.131,18h2.26V4h-1.96v8.38L47.171,4h-2.76V18h1.98V7.86Zm3.56-10.64c0,4,4.3,4.54,4.3,7.42,0,1-.44,1.36-1.14,1.36s-1.14-.36-1.14-1.36v-1h-2.08v.86c0,2.24,1.12,3.52,3.28,3.52s3.28-1.28,3.28-3.52c0-4-4.3-4.54-4.3-7.42,0-1,.4-1.38,1.1-1.38s1.1.38,1.1,1.38V7.8h2.08V7.36c0-2.24-1.1-3.52-3.24-3.52S52.691,5.12,52.691,7.36ZM60.451,18h2.2V4h-2.2Zm3.8,0h3.48c2.2,0,3.28-1.22,3.28-3.46V7.46c0-2.24-1.08-3.46-3.28-3.46h-3.48Zm3.44-12c.7,0,1.12.36,1.12,1.36v7.28c0,1-.42,1.36-1.12,1.36h-1.24V6Zm6.92,0h3.8V4h-6V18h6V16h-3.8V11.9h3.02v-2h-3.02Zm12,12a4.123,4.123,0,0,1-.24-1.7V14.14c0-1.46-.36-2.52-1.46-2.98a2.791,2.791,0,0,0,1.44-2.84V7.22c0-2.16-.98-3.22-3.26-3.22h-3.32V18h2.2V12.3h.76c1,0,1.44.48,1.44,1.78v2.2a4.305,4.305,0,0,0,.2,1.72ZM83.031,6c.78,0,1.12.44,1.12,1.44V8.82c0,1.12-.5,1.48-1.32,1.48h-.86V6Zm9.66-2h-3.22l-2.24,14h2.02l.38-2.54h2.7l.38,2.54h2.22Zm-1.72,2.48,1.06,7.08h-2.12ZM94.551,6h2.3V18h2.2V6h2.3V4h-6.8Zm7.76,12h2.2V4h-2.2Zm5.82-10.78c0-1,.44-1.38,1.14-1.38s1.14.38,1.14,1.38v7.56c0,1-.44,1.38-1.14,1.38s-1.14-.38-1.14-1.38Zm-2.2,7.42c0,2.24,1.18,3.52,3.34,3.52s3.34-1.28,3.34-3.52V7.36c0-2.24-1.18-3.52-3.34-3.52s-3.34,1.28-3.34,3.52Zm12.8,3.36h2.26V4h-1.96v8.38L116.771,4h-2.76V18h1.98V7.86Z" transform="translate(25.021 64.526)" fill="#fafafa"/>
          <path id="Path_829" data-name="Path 829" d="M67.791,18h3.48c2.2,0,3.28-1.22,3.28-3.46V7.46c0-2.24-1.08-3.46-3.28-3.46h-3.48Zm3.44-12c.7,0,1.12.36,1.12,1.36v7.28c0,1-.42,1.36-1.12,1.36h-1.24V6Zm6.92,0h3.8V4h-6V18h6V16h-3.8V11.9h3.02v-2h-3.02Zm9.46,6.78v2c0,1-.44,1.36-1.14,1.36s-1.14-.36-1.14-1.36V7.22c0-1,.44-1.38,1.14-1.38s1.14.38,1.14,1.38v1.5h2.08V7.36c0-2.24-1.12-3.52-3.28-3.52s-3.28,1.28-3.28,3.52v7.28c0,2.24,1.12,3.52,3.28,3.52s3.28-1.28,3.28-3.52V12.78ZM91.031,18h2.2V4h-2.2Zm3.52-10.64c0,4,4.3,4.54,4.3,7.42,0,1-.44,1.36-1.14,1.36s-1.14-.36-1.14-1.36v-1h-2.08v.86c0,2.24,1.12,3.52,3.28,3.52s3.28-1.28,3.28-3.52c0-4-4.3-4.54-4.3-7.42,0-1,.4-1.38,1.1-1.38s1.1.38,1.1,1.38V7.8h2.08V7.36c0-2.24-1.1-3.52-3.24-3.52S94.551,5.12,94.551,7.36ZM102.311,18h2.2V4h-2.2Zm5.82-10.78c0-1,.44-1.38,1.14-1.38s1.14.38,1.14,1.38v7.56c0,1-.44,1.38-1.14,1.38s-1.14-.38-1.14-1.38Zm-2.2,7.42c0,2.24,1.18,3.52,3.34,3.52s3.34-1.28,3.34-3.52V7.36c0-2.24-1.18-3.52-3.34-3.52s-3.34,1.28-3.34,3.52Zm12.8,3.36h2.26V4h-1.96v8.38L116.771,4h-2.76V18h1.98V7.86Z" transform="translate(21.518 123.561)" fill="#fafafa"/>
          <g id="Group_18" data-name="Group 18" transform="translate(27.105 1)">
            <rect id="Rectangle_5" data-name="Rectangle 5" width="0.706" height="28.579" fill="#fafafa"/>
          </g>
        </g>
      </g>
    </g>
  </g>
</svg>
