<?xml version="1.0" encoding="UTF-8" ?>
<!DOCTYPE svg PUBLIC "-//W3C//DTD SVG 1.1//EN" "http://www.w3.org/Graphics/SVG/1.1/DTD/svg11.dtd">
<svg width="512pt" height="512pt" viewBox="0 0 512 512" version="1.1" xmlns="http://www.w3.org/2000/svg">
<g id="#60bbeaff">
<path fill="#60bbea" opacity="1.00" d=" M 61.58 88.45 C 77.27 70.17 100.91 59.00 125.00 58.60 C 190.35 58.60 255.69 58.61 321.04 58.60 C 340.98 58.12 360.94 65.03 376.50 77.47 C 396.27 93.13 408.54 117.80 409.00 143.02 C 408.98 168.29 409.04 193.55 408.97 218.82 C 399.93 213.75 390.25 209.84 380.24 207.15 C 380.22 186.43 380.26 165.71 380.22 144.99 C 380.23 131.17 375.09 117.39 365.92 107.03 C 355.29 94.80 339.26 87.37 323.03 87.40 C 257.35 87.40 191.66 87.40 125.98 87.40 C 112.64 87.55 99.38 92.54 89.33 101.34 C 76.65 112.03 69.16 128.50 69.24 145.07 C 69.22 209.37 69.25 273.67 69.23 337.97 C 69.06 346.53 70.34 355.19 73.79 363.07 C 82.08 383.46 103.02 397.85 125.02 398.30 C 150.37 398.39 175.71 398.29 201.05 398.35 C 205.14 398.34 209.36 399.74 212.18 402.79 C 217.00 407.84 217.26 416.45 212.89 421.86 C 210.09 425.40 205.46 427.21 201.01 427.15 C 176.67 427.11 152.33 427.13 127.98 427.14 C 107.94 427.45 87.90 420.41 72.38 407.75 C 52.51 391.72 40.34 366.54 40.46 340.99 C 40.49 276.32 40.47 211.66 40.47 147.00 C 39.92 125.76 47.60 104.45 61.58 88.45 Z" />
<path fill="#60bbea" opacity="1.00" d=" M 186.42 123.53 C 211.27 123.11 236.16 123.39 261.03 123.39 C 268.18 123.03 274.99 128.79 275.70 135.94 C 276.96 143.99 270.17 152.06 262.01 152.10 C 237.35 152.15 212.69 152.14 188.03 152.11 C 181.13 152.24 174.69 146.92 173.88 140.01 C 172.35 132.23 178.44 124.01 186.42 123.53 Z" />
</g>
<g id="#f8b018ff">
<path fill="#f8b018" opacity="1.00" d=" M 328.08 204.41 C 345.41 201.67 363.30 202.60 380.24 207.15 C 390.25 209.84 399.93 213.75 408.97 218.82 C 436.58 233.99 457.52 260.42 466.58 290.52 C 477.91 326.07 472.10 366.49 451.39 397.49 C 447.42 403.51 437.83 404.39 432.91 399.07 C 428.64 395.08 427.96 388.12 431.32 383.35 C 443.54 364.48 449.34 341.50 447.27 319.09 C 445.79 301.42 439.55 284.19 429.35 269.68 C 415.96 250.37 395.66 235.91 372.95 229.78 C 351.34 223.83 327.75 225.39 307.12 234.17 C 282.30 244.57 262.06 265.30 252.22 290.34 C 242.53 314.51 242.69 342.44 252.65 366.50 C 261.75 388.80 279.09 407.59 300.56 418.49 C 322.05 429.62 347.64 432.37 371.07 426.46 C 374.62 425.54 378.33 424.11 382.03 425.14 C 386.66 426.26 390.34 430.34 391.11 435.03 C 392.22 440.79 388.51 447.06 382.86 448.75 C 357.64 456.55 329.96 455.91 305.07 447.16 C 279.87 438.40 257.40 421.51 242.78 399.10 C 226.79 375.13 219.51 345.57 222.35 316.91 C 225.03 288.47 237.68 261.10 257.74 240.74 C 276.45 221.47 301.52 208.47 328.08 204.41 Z" />
<path fill="#f8b018" opacity="1.00" d=" M 334.56 267.09 C 334.46 260.52 340.37 254.60 346.96 254.86 C 353.06 254.78 358.65 259.87 359.04 265.96 C 359.31 282.64 358.98 299.32 359.18 316.00 C 375.48 316.04 391.78 315.92 408.08 316.08 C 412.40 316.04 416.55 318.63 418.60 322.40 C 421.71 327.81 419.88 335.38 414.55 338.67 C 410.58 341.47 405.56 340.52 401.03 340.66 C 387.08 340.88 373.14 340.52 359.19 340.75 C 359.01 357.18 359.24 373.61 359.11 390.04 C 359.17 394.16 356.96 398.23 353.47 400.42 C 348.63 403.69 341.47 402.73 337.71 398.25 C 335.43 395.76 334.39 392.36 334.53 389.02 C 334.52 372.92 334.55 356.83 334.52 340.73 C 317.99 340.76 301.47 340.71 284.95 340.65 C 277.99 340.65 272.07 333.73 273.18 326.85 C 273.75 321.03 279.03 316.18 284.86 316.06 C 301.42 315.91 317.98 316.07 334.54 315.98 C 334.54 299.68 334.49 283.38 334.56 267.09 Z" />
</g>
</svg>
