<?xml version="1.0" encoding="UTF-8" ?>
<!DOCTYPE svg PUBLIC "-//W3C//DTD SVG 1.1//EN" "http://www.w3.org/Graphics/SVG/1.1/DTD/svg11.dtd">
<svg width="480pt" height="481pt" viewBox="0 0 480 481" version="1.1" xmlns="http://www.w3.org/2000/svg">
<g id="#f8b018ff">
<path fill="#f8b018" opacity="1.00" d=" M 0.00 14.41 C 1.16 7.21 7.56 1.06 14.98 0.97 C 19.56 0.58 24.20 2.28 27.42 5.56 C 55.95 34.07 84.46 62.60 112.98 91.11 C 115.19 93.34 117.49 95.48 119.52 97.88 C 127.13 105.94 134.97 113.82 143.05 121.39 C 158.71 136.56 173.93 152.20 189.41 167.54 C 257.33 235.54 325.40 303.37 393.21 371.47 C 400.64 379.77 408.91 387.31 416.68 395.31 C 421.28 399.76 425.56 404.56 430.43 408.73 C 445.45 423.34 460.09 438.35 474.99 453.10 C 477.62 455.55 479.31 458.83 480.00 462.35 L 480.00 467.62 C 478.85 474.35 473.38 479.85 466.65 481.00 L 461.41 481.00 C 456.80 480.28 453.07 477.31 450.05 473.94 C 301.73 325.58 153.38 177.25 5.04 28.91 C 2.43 26.43 0.68 23.17 0.00 19.63 L 0.00 14.41 Z" />
<path fill="#f8b018" opacity="1.00" d=" M 192.04 417.00 C 224.02 416.99 256.01 417.02 287.99 416.99 C 288.39 430.41 289.13 444.84 281.86 456.80 C 274.22 470.24 259.90 479.59 244.48 481.00 L 235.70 481.00 C 218.81 479.44 203.07 468.53 196.23 452.93 C 190.78 441.78 191.75 429.03 192.04 417.00 Z" />
</g>
<g id="#60bbeaff">
<path fill="#60bbea" opacity="1.00" d=" M 224.31 13.09 C 225.74 7.11 230.87 2.16 236.96 1.13 C 244.82 -0.63 253.30 4.73 255.52 12.39 C 256.94 19.46 255.58 26.70 256.30 33.83 C 276.32 36.12 295.86 42.62 313.20 52.90 C 345.14 71.67 369.35 103.16 379.04 138.95 C 383.91 156.15 384.65 174.19 383.99 191.95 C 384.01 225.97 383.99 259.98 384.00 294.00 C 384.03 304.93 388.02 315.68 394.58 324.36 C 402.11 333.17 411.65 340.24 418.06 350.01 C 426.43 362.77 431.75 377.73 432.16 393.06 C 432.35 398.31 432.49 403.78 430.43 408.73 C 425.56 404.56 421.28 399.76 416.68 395.31 C 408.91 387.31 400.64 379.77 393.21 371.47 C 389.39 364.37 383.27 358.98 377.57 353.45 C 363.28 340.35 354.36 321.75 352.19 302.57 C 351.67 293.03 352.29 283.46 351.86 273.92 C 351.32 243.63 352.42 213.33 351.82 183.04 C 352.66 162.51 348.21 141.74 338.28 123.70 C 325.04 99.26 302.42 80.06 276.08 71.15 C 251.97 62.79 224.98 63.24 201.10 72.20 C 176.83 81.20 155.84 98.85 143.05 121.39 C 134.97 113.82 127.13 105.94 119.52 97.88 C 142.51 62.51 181.90 38.75 223.72 33.99 C 224.19 27.03 223.32 20.02 224.31 13.09 Z" />
<path fill="#60bbea" opacity="1.00" d=" M 97.26 202.35 C 99.89 196.40 106.36 192.34 112.89 192.87 C 120.71 193.16 127.89 200.03 128.00 207.94 C 128.05 234.65 127.91 261.36 128.07 288.07 C 129.40 306.35 124.19 324.88 113.99 340.05 C 107.72 349.58 98.55 356.61 91.00 365.04 C 86.29 370.76 83.48 377.73 81.28 384.73 C 127.88 384.68 174.49 385.35 221.09 384.86 C 248.37 384.60 275.66 384.83 302.94 384.74 C 310.29 384.34 317.41 389.39 319.51 396.42 C 322.26 404.91 316.56 414.69 307.92 416.70 C 301.31 417.55 294.63 417.08 287.99 416.99 C 256.01 417.02 224.02 416.99 192.04 417.00 C 150.68 417.00 109.32 416.99 67.95 417.01 C 64.87 416.93 61.65 417.39 58.71 416.24 C 53.12 414.26 48.52 409.10 48.07 403.08 C 46.24 384.23 51.81 365.05 62.31 349.42 C 68.63 340.19 77.59 333.26 84.96 324.94 C 91.70 316.50 95.55 305.82 95.99 295.04 C 96.01 268.04 95.93 241.03 96.00 214.03 C 96.12 210.13 95.39 205.96 97.26 202.35 Z" />
</g>
</svg>
