<svg xmlns="http://www.w3.org/2000/svg" xmlns:xlink="http://www.w3.org/1999/xlink" width="357.106" height="321.385" viewBox="0 0 357.106 321.385">
  <defs>
    <linearGradient id="linear-gradient" x1="1" y1="0.5" x2="0" y2="0.5" gradientUnits="objectBoundingBox">
      <stop offset="0" stop-color="#232e4a"/>
      <stop offset="1"/>
    </linearGradient>
    <linearGradient id="linear-gradient-3" x1="1" y1="0.5" x2="0" y2="0.5" gradientUnits="objectBoundingBox">
      <stop offset="0" stop-color="#b3cdfa"/>
      <stop offset="0.814" stop-color="#e3edfe"/>
    </linearGradient>
    <linearGradient id="linear-gradient-4" x1="1" y1="0.5" x2="0" y2="0.5" gradientUnits="objectBoundingBox">
      <stop offset="0.186" stop-color="#e3edfe"/>
      <stop offset="1" stop-color="#b3cdfa"/>
    </linearGradient>
  </defs>
  <g id="Group_13098" data-name="Group 13098" transform="translate(-64.918 -107.981)">
    <g id="Group_12853" data-name="Group 12853" transform="translate(-185 -5052.191)">
      <g id="Group_12367" data-name="Group 12367" transform="translate(250.974 5160.172)">
        <g id="OBJECTS" transform="translate(0 0)">
          <path id="Path_1" data-name="Path 1" d="M73.256,152.886s-4.5,33.148,33.639,42.461" transform="translate(-54.208 -98.463)" fill="none" stroke="#fff" stroke-linecap="round" stroke-linejoin="round" stroke-width="2" stroke-dasharray="12"/>
          <path id="Path_2" data-name="Path 2" d="M328.391,143.385s41.617,8.755,28.17,69.434" transform="translate(-85.609 -97.294)" fill="none" stroke="#fff" stroke-linecap="round" stroke-linejoin="round" stroke-width="2" stroke-dasharray="12"/>
          <path id="Path_3" data-name="Path 3" d="M172.306,115.416s-41.043-1.658-56.179,28.594c-15.105,30.19,9.782,83.523,58.3,103.6" transform="translate(-58.961 -93.852)" fill="none" stroke="#fff" stroke-linecap="round" stroke-linejoin="round" stroke-width="2" stroke-dasharray="12"/>
          <path id="Path_4" data-name="Path 4" d="M64.037,237.61s-23.649,38.471-5.831,73.785,46.466,34.113,78.07,35.313" transform="translate(-51.56 -108.884)" fill="none" stroke="#fff" stroke-linecap="round" stroke-linejoin="round" stroke-width="2" stroke-dasharray="12"/>
          <path id="Path_5" data-name="Path 5" d="M431.982,213.374s23.649,38.471,5.831,73.785-46.466,34.113-78.069,35.313" transform="translate(-89.466 -105.903)" fill="none" stroke="#fff" stroke-linecap="round" stroke-linejoin="round" stroke-width="2" stroke-dasharray="12"/>
          <g id="Group_24" data-name="Group 24" transform="translate(57.167 101.187)">
            <g id="Group_1" data-name="Group 1" transform="translate(83.52 165.066)">
              <path id="Path_6" data-name="Path 6" d="M266.814,432.1H227.7l6.564-37.675H260.25Z" transform="translate(-213.911 -394.425)" fill="#d9dadd"/>
              <path id="Path_7" data-name="Path 7" d="M234.855,394.425,232.508,407.9h30.681l-2.347-13.473Z" transform="translate(-214.503 -394.425)" fill="#d9dadd" style="mix-blend-mode: multiply;isolation: isolate"/>
              <path id="Rectangle_3" data-name="Rectangle 3" d="M9.647,0h47.4a9.647,9.647,0,0,1,9.647,9.647v0a0,0,0,0,1,0,0H0a0,0,0,0,1,0,0v0A9.647,9.647,0,0,1,9.647,0Z" transform="translate(0 31.089)" fill="#ebeae4"/>
            </g>
            <path id="Path_8" data-name="Path 8" d="M351.475,236.108V369.017a10.223,10.223,0,0,1-10.223,10.223H126.967a10.223,10.223,0,0,1-10.223-10.223V236.108Z" transform="translate(-116.744 -209.886)" fill="#d1edff"/>
            <g id="Group_7" data-name="Group 7">
              <g id="Group_6" data-name="Group 6">
                <g id="Group_5" data-name="Group 5">
                  <g id="Group_2" data-name="Group 2">
                    <path id="Path_9" data-name="Path 9" d="M116.744,349.341V216.432a10.223,10.223,0,0,1,10.223-10.224H341.252a10.223,10.223,0,0,1,10.223,10.224V349.341" transform="translate(-116.744 -206.208)"/>
                    <rect id="Rectangle_4" data-name="Rectangle 4" width="211.683" height="120.351" transform="translate(11.042 9.427)" fill="#d2f7ff"/>
                    <rect id="Rectangle_5" data-name="Rectangle 5" width="211.683" height="120.351" transform="translate(11.042 9.427)" fill="#45619b"/>
                  </g>
                  <g id="Group_3" data-name="Group 3" transform="translate(86.051 139.832)">
                    <line id="Line_1" data-name="Line 1" x1="61.63" fill="#85c8d3"/>
                  </g>
                  <g id="Group_4" data-name="Group 4" transform="translate(11.042 9.427)">
                    <rect id="Rectangle_6" data-name="Rectangle 6" width="211.683" height="7.183" fill="#ebeae4"/>
                  </g>
                </g>
                <ellipse id="Ellipse_1" data-name="Ellipse 1" cx="1.855" cy="1.855" rx="1.855" ry="1.855" transform="translate(13.282 11.164)" fill="#ef4556"/>
                <ellipse id="Ellipse_2" data-name="Ellipse 2" cx="1.855" cy="1.855" rx="1.855" ry="1.855" transform="translate(18.561 11.164)" fill="#eddd48"/>
                <ellipse id="Ellipse_3" data-name="Ellipse 3" cx="1.855" cy="1.855" rx="1.855" ry="1.855" transform="translate(23.84 11.164)" fill="#49ea8e"/>
              </g>
            </g>
            <g id="Group_13" data-name="Group 13">
              <g id="Group_12" data-name="Group 12">
                <g id="Group_11" data-name="Group 11">
                  <g id="Group_8" data-name="Group 8">
                    <path id="Path_10" data-name="Path 10" d="M116.744,349.341V216.432a10.223,10.223,0,0,1,10.223-10.224H341.252a10.223,10.223,0,0,1,10.223,10.224V349.341" transform="translate(-116.744 -206.208)" fill="#007bbe"/>
                    <rect id="Rectangle_7" data-name="Rectangle 7" width="211.683" height="120.351" transform="translate(11.042 9.427)" fill="#d2f7ff"/>
                    <rect id="Rectangle_8" data-name="Rectangle 8" width="211.683" height="120.351" transform="translate(11.042 9.427)" fill="#e8e9ea"/>
                    <rect id="Rectangle_9" data-name="Rectangle 9" width="43.118" height="120.351" transform="translate(11.042 9.427)" fill="#d9dadd"/>
                  </g>
                  <g id="Group_9" data-name="Group 9" transform="translate(11.042 9.427)">
                    <rect id="Rectangle_10" data-name="Rectangle 10" width="211.683" height="7.183" fill="#ebeae4"/>
                  </g>
                  <g id="Group_10" data-name="Group 10" transform="translate(11.042 16.61)">
                    <rect id="Rectangle_11" data-name="Rectangle 11" width="211.683" height="10.929" fill="#45619b"/>
                  </g>
                </g>
                <ellipse id="Ellipse_4" data-name="Ellipse 4" cx="1.855" cy="1.855" rx="1.855" ry="1.855" transform="translate(13.282 11.164)" fill="#ef4556"/>
                <ellipse id="Ellipse_5" data-name="Ellipse 5" cx="1.855" cy="1.855" rx="1.855" ry="1.855" transform="translate(18.561 11.164)" fill="#eddd48"/>
                <ellipse id="Ellipse_6" data-name="Ellipse 6" cx="1.855" cy="1.855" rx="1.855" ry="1.855" transform="translate(23.84 11.164)" fill="#49ea8e"/>
              </g>
            </g>
            <rect id="Rectangle_12" data-name="Rectangle 12" width="36.539" height="36.539" transform="translate(15.137 30.133)" fill="#fff"/>
            <rect id="Rectangle_13" data-name="Rectangle 13" width="89.107" height="5.893" transform="translate(56.179 19.289)" fill="#2d4268"/>
            <rect id="Rectangle_14" data-name="Rectangle 14" width="16.03" height="2.357" transform="translate(152.358 20.939)" fill="#fff"/>
            <rect id="Rectangle_15" data-name="Rectangle 15" width="16.03" height="2.357" transform="translate(15.825 20.939)" fill="#fff"/>
            <rect id="Rectangle_16" data-name="Rectangle 16" width="16.03" height="2.357" transform="translate(174.517 20.939)" fill="#fff"/>
            <ellipse id="Ellipse_7" data-name="Ellipse 7" cx="2.947" cy="2.947" rx="2.947" ry="2.947" transform="translate(195.144 19.289)" fill="#fff"/>
            <ellipse id="Ellipse_8" data-name="Ellipse 8" cx="2.947" cy="2.947" rx="2.947" ry="2.947" transform="translate(205.752 19.289)" fill="#fff"/>
            <rect id="Rectangle_17" data-name="Rectangle 17" width="89.107" height="97.358" transform="translate(56.179 30.133)" fill="#fff"/>
            <rect id="Rectangle_18" data-name="Rectangle 18" width="9.194" height="9.194" transform="translate(58.301 32.726)" fill="#d9dadd"/>
            <rect id="Rectangle_19" data-name="Rectangle 19" width="16.03" height="2.357" transform="translate(71.03 32.726)" fill="#d9dadd"/>
            <rect id="Rectangle_20" data-name="Rectangle 20" width="16.03" height="2.357" transform="translate(71.03 36.144)" fill="#d9dadd"/>
            <rect id="Rectangle_21" data-name="Rectangle 21" width="84.105" height="44.015" transform="translate(142.406 87.527) rotate(180)" fill="#45619b"/>
            <rect id="Rectangle_22" data-name="Rectangle 22" width="84.105" height="21.923" transform="translate(58.301 101.324)" fill="none" stroke="#d9dadd" stroke-miterlimit="10" stroke-width="1"/>
            <g id="Group_14" data-name="Group 14" transform="translate(58.301 90.716)">
              <rect id="Rectangle_23" data-name="Rectangle 23" width="84.105" height="7.072" fill="#d9dadd"/>
              <rect id="Rectangle_24" data-name="Rectangle 24" width="16.03" height="2.357" transform="translate(3.536 2.531)" fill="#fff"/>
              <rect id="Rectangle_25" data-name="Rectangle 25" width="16.03" height="2.357" transform="translate(34.037 2.531)" fill="#fff"/>
              <rect id="Rectangle_26" data-name="Rectangle 26" width="16.03" height="2.357" transform="translate(64.539 2.531)" fill="#fff"/>
            </g>
            <rect id="Rectangle_27" data-name="Rectangle 27" width="36.539" height="4.601" transform="translate(15.137 71.566)" fill="#fff"/>
            <rect id="Rectangle_28" data-name="Rectangle 28" width="36.539" height="4.601" transform="translate(15.137 78.812)" fill="#fff"/>
            <rect id="Rectangle_29" data-name="Rectangle 29" width="36.539" height="4.601" transform="translate(15.137 86.057)" fill="#fff"/>
            <ellipse id="Ellipse_9" data-name="Ellipse 9" cx="7.455" cy="7.455" rx="7.455" ry="7.455" transform="translate(109.429 148.307)" fill="#fff"/>
            <g id="Group_16" data-name="Group 16" transform="translate(152.358 30.133)">
              <rect id="Rectangle_30" data-name="Rectangle 30" width="56.34" height="97.358" fill="#fff"/>
              <rect id="Rectangle_31" data-name="Rectangle 31" width="50.956" height="25.682" transform="translate(2.438 2.593)" fill="#45619b"/>
              <g id="Group_15" data-name="Group 15" transform="translate(2.438 32.146)">
                <rect id="Rectangle_32" data-name="Rectangle 32" width="16.03" height="2.357" fill="#d9dadd"/>
                <rect id="Rectangle_33" data-name="Rectangle 33" width="16.03" height="2.357" transform="translate(0 4.967)" fill="#d9dadd"/>
              </g>
            </g>
            <rect id="Rectangle_34" data-name="Rectangle 34" width="50.956" height="13.991" transform="translate(154.796 73.536)" fill="#d9dadd"/>
            <rect id="Rectangle_35" data-name="Rectangle 35" width="50.956" height="13.991" transform="translate(154.796 90.793)" fill="#d9dadd"/>
            <rect id="Rectangle_36" data-name="Rectangle 36" width="50.956" height="13.991" transform="translate(154.796 108.049)" fill="#d9dadd"/>
            <g id="Group_22" data-name="Group 22" transform="translate(63.158 52.568)">
              <g id="Group_21" data-name="Group 21" transform="translate(0 0)">
                <g id="Group_20" data-name="Group 20" transform="translate(0)">
                  <g id="Group_17" data-name="Group 17" transform="translate(5.869 14.28)">
                    <path id="Path_11" data-name="Path 11" d="M199.65,283.05l.474.938a1.146,1.146,0,0,1-.591,1.569l-.994.217-.5-3.342Z" transform="translate(-195.771 -282.432)" fill="#45619b"/>
                    <path id="Path_12" data-name="Path 12" d="M195.452,284.719l2.313,4.8a1.2,1.2,0,0,0,1.29.567h0a1.2,1.2,0,0,0,.925-1.375l-.888-4.785Z" transform="translate(-195.452 -282.616)" fill="#ebeae4"/>
                    <path id="Path_13" data-name="Path 13" d="M199.732,287.573a1.2,1.2,0,0,1-.925,1.375h0a1.2,1.2,0,0,1-1.289-.567l-1.781-3.725-.284.061,2.313,4.8a1.2,1.2,0,0,0,1.29.567h0a1.2,1.2,0,0,0,.925-1.375l-.888-4.785-.038.008Z" transform="translate(-195.452 -282.616)" fill="#d9dadd" style="mix-blend-mode: multiply;isolation: isolate"/>
                  </g>
                  <g id="Group_19" data-name="Group 19" transform="translate(2.151)">
                    <path id="Path_14" data-name="Path 14" d="M194.284,284.032l-1.789-.281-1.282-5.88,1.458-1.237Z" transform="translate(-191.213 -267.439)" fill="#d9dadd"/>
                    <g id="Group_18" data-name="Group 18" transform="translate(1.458)">
                      <path id="Path_15" data-name="Path 15" d="M208.638,266.467a2.811,2.811,0,0,0-2.232,2.72,3.6,3.6,0,0,1-2.97,3.893l-10.562,2.3.158.724,1.3,5.952.158.723,10.562-2.3a3.6,3.6,0,0,1,4.32,2.3,2.811,2.811,0,0,0,3.162,1.544h0l-1.3-5.952-1.3-5.953-1.3-5.952Z" transform="translate(-192.875 -266.188)" fill="#ebeae4"/>
                      <rect id="Rectangle_37" data-name="Rectangle 37" width="1.311" height="18.276" transform="translate(15.763 0.279) rotate(-12.302)" fill="#d9dadd"/>
                    </g>
                    <rect id="Rectangle_38" data-name="Rectangle 38" width="7.572" height="7.572" transform="translate(3.824 8.679) rotate(-12.302)" fill="#45619b"/>
                  </g>
                  <path id="Path_16" data-name="Path 16" d="M208.7,281.787a3.6,3.6,0,0,0-4.32-2.3l-10.562,2.3-1.789-.281.563,2.581,1.789.282,10.562-2.3a3.6,3.6,0,0,1,4.32,2.3,2.811,2.811,0,0,0,3.162,1.544l1.281-.28-.563-2.581-1.28.279A2.811,2.811,0,0,1,208.7,281.787Z" transform="translate(-189.163 -267.775)" fill="#d9dadd" style="mix-blend-mode: multiply;isolation: isolate"/>
                  <rect id="Rectangle_39" data-name="Rectangle 39" width="2.202" height="6.018" transform="translate(0 10.901) rotate(-12.302)" fill="#45619b"/>
                  <rect id="Rectangle_40" data-name="Rectangle 40" width="2.202" height="2.642" transform="translate(0.719 14.2) rotate(-12.302)" fill="#d9dadd" style="mix-blend-mode: multiply;isolation: isolate"/>
                  <rect id="Rectangle_41" data-name="Rectangle 41" width="1.576" height="4.465" rx="0.788" transform="translate(17.859 4.053) rotate(-12.302)" fill="#fff"/>
                </g>
                <g id="Path_17" data-name="Path 17" transform="translate(-188.76 -266.149)" fill="none" stroke-linecap="round" stroke-linejoin="round">
                  <path d="M208.132,266.428a2.811,2.811,0,0,0-2.232,2.72,3.6,3.6,0,0,1-2.97,3.893l-.8.174-7.4,1.614-2.366.516-1.458,1.237-2.151.469.719,3.3.563,2.581,2.151-.469,1.789.282h0l.676-.147,2.283,4.738a1.2,1.2,0,0,0,2.215-.809l-.567-3.048a1.214,1.214,0,0,0,.391-1.49l-.152-.3,4.917-1.073.8-.174a3.6,3.6,0,0,1,4.32,2.3,2.811,2.811,0,0,0,3.162,1.544l1.281-.28-.563-2.581-3.331-15.276Z" stroke="none"/>
                  <path d="M 209.4134063720703 266.1489868164062 L 208.1321105957031 266.4278869628906 C 206.8481750488281 266.7085266113281 205.8983917236328 267.833740234375 205.900146484375 269.1474609375 C 205.9019012451172 270.6629028320312 205.3695678710938 272.5081787109375 202.9306182861328 273.0404968261719 L 202.1334075927734 273.214111328125 L 194.7350311279297 274.8278503417969 L 192.368896484375 275.343505859375 L 190.9113006591797 276.5809631347656 L 188.760009765625 277.0501403808594 L 189.4791717529297 280.3485717773438 L 190.0421905517578 282.9295959472656 L 192.1934661865234 282.4603576660156 L 193.9825592041016 282.7419128417969 L 194.6587219238281 282.5945739746094 L 196.9415740966797 287.3321228027344 C 197.1597900390625 287.7050476074219 197.5566253662109 287.9261779785156 197.9762725830078 287.9261779785156 C 198.0609130859375 287.9261779785156 198.1464080810547 287.9172058105469 198.2316436767578 287.8986511230469 C 198.3877563476562 287.8644714355469 198.5307159423828 287.8013610839844 198.6561126708984 287.7153930664062 C 199.0296936035156 287.4575500488281 199.2384338378906 286.9979858398438 199.1568908691406 286.5235595703125 L 198.59033203125 283.4759521484375 C 199.0472564697266 283.214599609375 199.2261657714844 282.4700317382812 198.9814758300781 281.9859313964844 L 198.8297424316406 281.6851196289062 L 203.7471160888672 280.6125183105469 L 204.5442962646484 280.4389038085938 C 204.8965301513672 280.3621215820312 205.2243194580078 280.3268432617188 205.5287780761719 280.3268127441406 C 207.3317413330078 280.32666015625 208.3264312744141 281.5631713867188 208.8644104003906 282.7419128417969 C 209.3239898681641 283.7473449707031 210.3390045166016 284.3514099121094 211.4139404296875 284.3514099121094 C 211.6169738769531 284.3514099121094 211.822021484375 284.3298950195312 212.0260009765625 284.2854309082031 L 213.3073120117188 284.0056762695312 L 212.7442626953125 281.4246215820312 L 209.4134063720703 266.1489868164062 M 209.4143676757812 265.1487731933594 C 209.8743896484375 265.1487731933594 210.2884368896484 265.4681091308594 210.3904571533203 265.9359436035156 L 213.7212982177734 281.2115783691406 L 214.2843322753906 283.7925415039062 C 214.4020233154297 284.3320617675781 214.0601348876953 284.8648681640625 213.5206146240234 284.982666015625 L 212.2393035888672 285.2624206542969 C 211.9681701660156 285.3215026855469 211.6906127929688 285.3514099121094 211.4139404296875 285.3514099121094 C 209.9218292236328 285.3514099121094 208.5640869140625 284.4902954101562 207.9549255371094 283.1576538085938 C 207.7480621337891 282.7043762207031 207.1192779541016 281.3266906738281 205.5288543701172 281.3268127441406 C 205.2881774902344 281.3268432617188 205.0285797119141 281.3568115234375 204.7572784423828 281.4159545898438 L 203.9599151611328 281.589599609375 L 200.0931854248047 282.4330444335938 C 200.1041259765625 282.9266967773438 199.9529266357422 283.4231872558594 199.6701965332031 283.8133850097656 L 200.1400451660156 286.3407897949219 C 200.140869140625 286.3452453613281 200.1416778564453 286.3497009277344 200.1424407958984 286.3541564941406 C 200.2871551513672 287.1961364746094 199.9266967773438 288.0534973144531 199.2241363525391 288.5383911132812 C 198.9863128662109 288.7014465332031 198.7252044677734 288.8142700195312 198.4455108642578 288.8755187988281 C 198.2906036376953 288.9092407226562 198.1331329345703 288.9261779785156 197.9762725830078 288.9261779785156 C 197.19873046875 288.9261779785156 196.4715423583984 288.5089111328125 196.0784759521484 287.837158203125 C 196.06494140625 287.8140258789062 196.0523376464844 287.7903747558594 196.0406951904297 287.7662048339844 L 194.0982971191406 283.7351989746094 C 194.0598754882812 283.7396545410156 194.0212249755859 283.7419128417969 193.9825592041016 283.7419128417969 C 193.9306030273438 283.7419128417969 193.8786468505859 283.7378540039062 193.8271026611328 283.729736328125 L 192.2233123779297 283.4773559570312 L 190.2552947998047 283.9066162109375 C 190.1835327148438 283.9222717285156 190.1118011474609 283.9298095703125 190.0412292480469 283.9298095703125 C 189.5812225341797 283.9298095703125 189.1672210693359 283.6105346679688 189.0651702880859 283.1427307128906 L 188.5021514892578 280.5617065429688 L 187.782958984375 277.26318359375 C 187.6653137207031 276.7235717773438 188.0073547363281 276.1907958984375 188.5469360351562 276.0731201171875 L 190.4543609619141 275.6571044921875 L 191.7217102050781 274.5811767578125 C 191.8466644287109 274.4750671386719 191.9958038330078 274.4013366699219 192.1559753417969 274.3664245605469 L 194.5220947265625 273.8507690429688 L 201.9203033447266 272.2370910644531 L 202.7178344726562 272.0634155273438 C 204.6764068603516 271.6359252929688 204.9013671875 270.1951599121094 204.900146484375 269.1486206054688 C 204.8977966308594 267.388916015625 206.1672210693359 265.833740234375 207.9185638427734 265.450927734375 L 209.2007141113281 265.171875 C 209.2723693847656 265.1562805175781 209.3439178466797 265.1487731933594 209.4143676757812 265.1487731933594 Z" stroke="none" fill="#fff"/>
                </g>
              </g>
              <text id="Facebook_Ads" data-name="Facebook Ads" transform="translate(29.18 13.018)" fill="#fff" font-size="5" font-family="Helvetica"><tspan x="0" y="0">Facebook Ads</tspan></text>
            </g>
            <g id="Group_23" data-name="Group 23" transform="translate(156.908 43.696)">
              <text id="Facebook_Ads-2" data-name="Facebook Ads" transform="translate(0 4)" fill="#fff" font-size="5" font-family="Helvetica"><tspan x="0" y="0">Facebook Ads</tspan></text>
            </g>
          </g>
          <g id="Group_30" data-name="Group 30" transform="translate(124.815)">
            <path id="Path_24" data-name="Path 24" d="M283.163,90.83H200.427a6.547,6.547,0,0,0-6.547,6.547v48.329a6.547,6.547,0,0,0,6.547,6.547h5v14.231l14.231-14.231h63.5a6.547,6.547,0,0,0,6.547-6.547V97.377A6.547,6.547,0,0,0,283.163,90.83Z" transform="translate(-193.88 -90.83)" fill="#fff"/>
            <path id="Path_25" data-name="Path 25" d="M318.18,118.334H299.868v34.857a6.547,6.547,0,0,1-6.547,6.547h-46.24V164.5a6.547,6.547,0,0,0,6.547,6.547h53.953l8.277,8.277v-8.277h2.322a6.547,6.547,0,0,0,6.547-6.547V124.881A6.547,6.547,0,0,0,318.18,118.334Z" transform="translate(-200.424 -94.213)" fill="#ebeae4"/>
            <rect id="Rectangle_47" data-name="Rectangle 47" width="75.013" height="5.114" transform="translate(10.852 11.48)" fill="#ebeae4"/>
            <rect id="Rectangle_48" data-name="Rectangle 48" width="75.013" height="5.114" transform="translate(10.852 21.564)" fill="#ebeae4"/>
            <rect id="Rectangle_49" data-name="Rectangle 49" width="75.013" height="5.114" transform="translate(10.852 31.648)" fill="#ebeae4"/>
            <rect id="Rectangle_50" data-name="Rectangle 50" width="35.027" height="5.114" transform="translate(10.852 41.732)" fill="#ebeae4"/>
          </g>
          <g id="Group_32" data-name="Group 32" transform="translate(279.369 8.688)">
            <g id="Group_31" data-name="Group 31" transform="translate(5.778)">
              <path id="Path_26" data-name="Path 26" d="M400.17,101.689a10.323,10.323,0,0,0-13.7,5.045l-3.329,7.212,18.664,8.829,3.41-7.386A10.323,10.323,0,0,0,400.17,101.689Z" transform="translate(-377.49 -100.736)" fill="#fff"/>
              <path id="Path_27" data-name="Path 27" d="M399.839,127.566,381.081,118.9a3.27,3.27,0,0,0-2.478,6.047l5.038,2.326a4.812,4.812,0,0,0,8.151,3.763l5.038,2.326a3.27,3.27,0,0,0,3.009-5.8Z" transform="translate(-376.698 -102.947)" fill="#fff"/>
            </g>
            <line id="Line_2" data-name="Line 2" x1="3.391" y2="8.231" transform="translate(9.981 32.067)" fill="none" stroke="#fff" stroke-linecap="round" stroke-linejoin="round" stroke-width="2" stroke-dasharray="12"/>
            <line id="Line_3" data-name="Line 3" x1="5.778" y2="2.662" transform="translate(0 29.39)" fill="none" stroke="#fff" stroke-linecap="round" stroke-linejoin="round" stroke-width="2" stroke-dasharray="12"/>
            <line id="Line_4" data-name="Line 4" x2="1.281" y2="6.232" transform="translate(21.661 36.182)" fill="none" stroke="#fff" stroke-linecap="round" stroke-linejoin="round" stroke-width="2" stroke-dasharray="12"/>
          </g>
          <g id="Group_33" data-name="Group 33" transform="translate(82.943 39.048)">
            <ellipse id="Ellipse_10" data-name="Ellipse 10" cx="20.899" cy="20.899" rx="20.899" ry="20.899" fill="#ff9800"/>
            <ellipse id="Ellipse_11" data-name="Ellipse 11" cx="2.571" cy="2.571" rx="2.571" ry="2.571" transform="translate(12.703 13.064)" fill="#fff"/>
            <ellipse id="Ellipse_12" data-name="Ellipse 12" cx="2.571" cy="2.571" rx="2.571" ry="2.571" transform="translate(23.935 13.064)" fill="#fff"/>
            <path id="Path_28" data-name="Path 28" d="M61.216,120.038a12.4,12.4,0,1,0,24.8,0Z" transform="translate(-52.718 -96.963)" fill="#fff"/>
          </g>
          <g id="Group_34" data-name="Group 34" transform="translate(294.9 60.063)">
            <ellipse id="Ellipse_13" data-name="Ellipse 13" cx="24.127" cy="24.127" rx="24.127" ry="24.127" fill="#fff"/>
            <path id="Path_29" data-name="Path 29" d="M419.709,174.652a6.39,6.39,0,0,0-5.971,4.245,6.39,6.39,0,0,0-5.972-4.245c-4.593,0-5.373,4.574-5.373,6.273,0,6.385,6.007,12.2,11.345,15.083,5.338-2.884,11.346-8.7,11.346-15.083C425.084,179.226,424.3,174.652,419.709,174.652Z" transform="translate(-389.611 -161.203)" fill="#e23030"/>
          </g>
          <g id="Group_35" data-name="Group 35" transform="translate(294.9 114.306)">
            <ellipse id="Ellipse_14" data-name="Ellipse 14" cx="12.063" cy="12.063" rx="12.063" ry="12.063" fill="#fff"/>
            <path id="Path_30" data-name="Path 30" d="M403.764,228.834a3.2,3.2,0,0,0-2.985,2.122,3.2,3.2,0,0,0-2.985-2.122c-2.3,0-2.687,2.287-2.687,3.137,0,3.192,3,6.1,5.672,7.541,2.669-1.443,5.672-4.349,5.672-7.541C406.451,231.121,406.061,228.834,403.764,228.834Z" transform="translate(-388.715 -222.11)" fill="#e23030"/>
          </g>
          <g id="Group_36" data-name="Group 36" transform="translate(272.364 139.226)">
            <ellipse id="Ellipse_15" data-name="Ellipse 15" cx="7.528" cy="7.528" rx="7.528" ry="7.528" transform="translate(0 0)" fill="#fff"/>
            <path id="Path_31" data-name="Path 31" d="M372.072,254.366a1.994,1.994,0,0,0-1.863,1.325,2,2,0,0,0-1.864-1.325c-1.433,0-1.677,1.428-1.677,1.957,0,1.993,1.874,3.806,3.54,4.706,1.665-.9,3.54-2.713,3.54-4.706C373.749,255.794,373.505,254.366,372.072,254.366Z" transform="translate(-362.681 -250.17)" fill="#e23030"/>
          </g>
          <g id="Group_38" data-name="Group 38" transform="translate(17.913 162.744)">
            <g id="Group_37" data-name="Group 37" transform="translate(0 0)">
              <path id="Path_32" data-name="Path 32" d="M101.454,292.771a2.142,2.142,0,0,0,0-4.283H91.4v-9.813a2.277,2.277,0,0,0-4.505-.468l-.627,2.426c-.985,8.781-7.016,10-7.016,10v14.99H98.764a2.141,2.141,0,1,0,0-4.282h1.256a2.142,2.142,0,1,0,0-4.283h1.435a2.141,2.141,0,1,0,0-4.282Z" transform="translate(-72.878 -276.398)" fill="#fff"/>
              <rect id="Rectangle_51" data-name="Rectangle 51" width="4.282" height="14.863" transform="translate(0 14.358)" fill="#fff"/>
            </g>
          </g>
          <g id="Group_40" data-name="Group 40" transform="translate(300.465 146.043)">
            <g id="Group_39" data-name="Group 39">
              <path id="Path_33" data-name="Path 33" d="M395.861,270.33a1.7,1.7,0,1,1,0-3.394h7.967v-7.777a1.8,1.8,0,0,1,3.57-.37l.5,1.922c.78,6.96,5.56,7.923,5.56,7.923v11.879H397.993a1.7,1.7,0,1,1,0-3.394h-1a1.7,1.7,0,0,1,0-3.394h-1.137a1.7,1.7,0,1,1,0-3.394Z" transform="translate(-394.164 -257.355)" fill="#fff"/>
              <rect id="Rectangle_52" data-name="Rectangle 52" width="3.394" height="11.778" transform="translate(20.949 11.379)" fill="#fff"/>
            </g>
          </g>
          <g id="Group_12366" data-name="Group 12366" transform="translate(187.021 59.887)">
            <rect id="Rectangle_51-2" data-name="Rectangle 51" width="11.37" height="19.511" transform="translate(86.232 233.714)" fill="#ffcebd"/>
            <path id="Path_44454" data-name="Path 44454" d="M.441,17.082l9.544.246L9.544.246,0,0Z" transform="matrix(-0.723, 0.691, -0.691, -0.723, 135.266, 231.522)" fill="#ffcebd"/>
            <path id="Path_298" data-name="Path 298" d="M15026.2,536.783l37.335,44.9-10.162,7.762-35.127-28.322Z" transform="translate(-14932.505 -356.777)" fill="#232e4a"/>
            <path id="Path_299" data-name="Path 299" d="M15064.054,546.014l9.058,34.108-22.645-19,7.954-24.336,5.917,7.115Z" transform="translate(-14964.728 -356.777)" fill="#3b4766"/>
            <path id="Path_300" data-name="Path 300" d="M15046.251,442.426v66.959l10.778,60.841h13.476l-2.54-55.6,5.412-40.491,6.977-11.779a16.161,16.161,0,0,0,2.124-10.527l-.705-4.966Z" transform="translate(-14971.291 -325.392)" fill="#232e4a"/>
            <path id="Path_301" data-name="Path 301" d="M15102.613,633.975v10.909h-39.1v-4.734a4.359,4.359,0,0,1,2.992-4.075l18.879-5.772,2.652,3.671Z" transform="translate(-15003.397 -387.883)" fill="url(#linear-gradient)"/>
            <rect id="Rectangle_53" data-name="Rectangle 53" width="39.104" height="3.356" transform="translate(60.112 253.645)" fill="#4d5068"/>
            <path id="Path_302" data-name="Path 302" d="M15025.878,604.055l10.6,7.973-26.953,24.126h-9.831v-2.989a2.965,2.965,0,0,1,3.039-2.885h2.815l5.3-16.783,7.235-1.049Z" transform="translate(-14892.418 -379.152)" fill="url(#linear-gradient)"/>
            <path id="Path_303" data-name="Path 303" d="M15007.762,635.647l25.722-23.025,3,2.255L15009.528,639h-9.831v-2.989a2.663,2.663,0,0,1,.04-.367Z" transform="translate(-14892.418 -382.001)" fill="#4d5068"/>
            <path id="Path_304" data-name="Path 304" d="M15081.452,459.653c-.83,5-.4,10.126-1.18,15.132-1.479,9.506-7.255,18.358-6.8,27.958a69.616,69.616,0,0,0,1.493,9.134c1.739,9.522,1.159,19.279,2.01,28.909.869,9.851,3.233,19.591,3.74,29.44h-6.349l-10.777-60.841V442.426l24.2,3.025A31.277,31.277,0,0,0,15081.452,459.653Z" transform="translate(-14988.629 -325.392)" fill="#3b4766"/>
            <path id="Path_305" data-name="Path 305" d="M15043.9,366.631l8.843,14.234a5.709,5.709,0,0,1-1.145,7.367l-14.644,12.819-7.454-8.985Z" transform="translate(-14930.494 -300.182)" fill="#fff"/>
            <g id="Group_93" data-name="Group 93" transform="translate(0 0)">
              <path id="Path_306" data-name="Path 306" d="M15149.174,324l-4.15,6.106,1.984,1.278,3.936-4.4Z" transform="translate(-15109.015 -286.001)" fill="#f1f2f2"/>
              <path id="Path_307" data-name="Path 307" d="M15140.581,323.939l-4.422,15.08a.419.419,0,0,0,.31.52l7.138,1.887a.449.449,0,0,0,.552-.292l4.423-15.08Z" transform="translate(-15100.411 -285.982)" fill="#fc637d"/>
              <path id="Path_308" data-name="Path 308" d="M15118.947,317.411a6.4,6.4,0,0,0,7.816-4.186,6,6,0,0,0-4.41-7.423Z" transform="translate(-15066.743 -279.949)" fill="#ef3f54"/>
              <path id="Path_309" data-name="Path 309" d="M15195.095,298.385a5.557,5.557,0,0,1-4.091-6.879,5.926,5.926,0,0,1,7.246-3.882Z" transform="translate(-15188.484 -273.834)" fill="#fc637d"/>
              <path id="Path_44455" data-name="Path 44455" d="M0,15.937l16.435-.215L16.65,0,.215.215Z" transform="translate(52.956 39.581) rotate(-164.439)" fill="#fff"/>
              <path id="Path_44456" data-name="Path 44456" d="M0,8.072l16.435-.215L16.542,0,.107.215Z" transform="translate(52.852 39.552) rotate(-164.439)" fill="#d1e1f2"/>
              <path id="Path_44457" data-name="Path 44457" d="M0,38.058l2.972-.039L3.491,0,.519.039Z" transform="translate(3.363 37.599) rotate(-164.433)" fill="#fff"/>
              <path id="Path_44458" data-name="Path 44458" d="M0,2.115l12.06-.158L12.086,0,.027.158Z" transform="translate(49.969 40.753) rotate(-164.44)" fill="#ef3f54"/>
              <path id="Path_310" data-name="Path 310" d="M15138.66,328.408l3.24.857-.758,2.581-3.238-.856a1.334,1.334,0,0,1-.98-1.652A1.42,1.42,0,0,1,15138.66,328.408Z" transform="translate(-15094.243 -287.452)" fill="#ef3f54"/>
              <path id="Path_311" data-name="Path 311" d="M15140.5,334.98l3.238.86-.758,2.581-3.238-.856a1.337,1.337,0,0,1-.982-1.653A1.431,1.431,0,0,1,15140.5,334.98Z" transform="translate(-15097.365 -289.639)" fill="#bf411a"/>
              <path id="Path_312" data-name="Path 312" d="M15142.326,341.555l3.238.857-.757,2.585-3.24-.861a1.33,1.33,0,0,1-.98-1.648A1.423,1.423,0,0,1,15142.326,341.555Z" transform="translate(-15100.479 -291.825)" fill="#bf411a"/>
              <path id="Path_313" data-name="Path 313" d="M15151.213,268.5l27.765,19.09-2.146,7.321-30.963-8.188Z" transform="translate(-15137.644 -267.541)" fill="#69c3f2"/>
              <path id="Path_314" data-name="Path 314" d="M15185.231,303.991l-2.276,7.767-34.031,2.269,5.345-18.224Z" transform="translate(-15146.042 -276.624)" fill="#3da3d8"/>
            </g>
            <path id="Path_315" data-name="Path 315" d="M15076.149,318s4.293,4.57,4.163,8.4v3.952h11.7s-2.3-17.719,0-19.145h-7.935Z" transform="translate(-15001.683 -281.749)" fill="#ffcebd"/>
            <path id="Path_316" data-name="Path 316" d="M15084.083,311.211h1.093l-.363,4.315s-.176,4.393-.307,8.222l0,3.952h7.2c.172,1.6.309,2.656.309,2.656h-11.7l0-3.952c.131-3.829-4.162-8.4-4.162-8.4Z" transform="translate(-15001.683 -281.749)" fill="#a58877" opacity="0.3"/>
            <g id="Group_94" data-name="Group 94" transform="translate(61.157 11.236)">
              <path id="Path_317" data-name="Path 317" d="M15082.533,288.878a8.473,8.473,0,0,1,3.758-4.263,10.624,10.624,0,0,1,4.327-.707,16.965,16.965,0,0,1,5.821.645c3.238,1.123,5.477,3.918,7.261,6.719a18.906,18.906,0,0,1,1.63,3.017,11.5,11.5,0,0,1-3.462,12.948,24.65,24.65,0,0,1-4.434,2.66,14.949,14.949,0,0,1-3.862,1.53,10.667,10.667,0,0,1-4.524-.232,9.113,9.113,0,0,1-3.8-1.757,8.992,8.992,0,0,1-2.457-3.973,14.467,14.467,0,0,1-1.247-5.2c-.009-.222-2.813-.444-2.818-.666-.044-2.112,2.938-5.737,3.271-7.843C15082.146,290.786,15082.328,289.827,15082.533,288.878Z" transform="translate(-15078.723 -283.901)" fill="#ffcebd"/>
            </g>
            <path id="Path_318" data-name="Path 318" d="M15103.836,295.138c.008-.311,0-.623-.014-.93a18.208,18.208,0,0,1,0-4.15c.223-1.193.775-2.31,1.051-3.494a14.064,14.064,0,0,0-.055-5.253,12.111,12.111,0,0,0-1.937-5.661,7.49,7.49,0,0,0-6.936-2.743,5.572,5.572,0,0,1-1.285.132,4.8,4.8,0,0,1-1.3-.386c-3.234-1.235-6.867-1.079-10.307-.557a17.343,17.343,0,0,0-4.625,1.222c-3.064,1.4-5.15,4.157-7.1,6.8a6.574,6.574,0,0,0-1.213,2.175,2.184,2.184,0,0,0,.635,2.268,3.158,3.158,0,0,0,1.152.5,7.1,7.1,0,0,0,3.611.158c.686-.182,1.318-.516,2-.711a10.37,10.37,0,0,1,3.871-.1,3.357,3.357,0,0,1,1.8.537c.77.622.752,1.736.691,2.7a14.648,14.648,0,0,0,.227,4.373,6.22,6.22,0,0,0,2.354,3.675,1.5,1.5,0,0,0,.65.293,1.166,1.166,0,0,0,1.178-.89c.281-1.016-.357-2.349-.381-3.411-.02-.96-.133-1.8.93-2.094,1.77-.485,3.945-.09,4.941,1.38.934,1.382.576,3.2,1.051,4.785a6.294,6.294,0,0,0,3.672,3.745,3.413,3.413,0,0,0,4.576-1.249A6.1,6.1,0,0,0,15103.836,295.138Z" transform="translate(-15010.463 -268.609)" fill="#0c0739"/>
            <path id="Path_319" data-name="Path 319" d="M15062.8,318.969s.886.422,2.341,1.088c12.318,5.637,20.749,16.967,21.873,29.908a88.792,88.792,0,0,1,.23,10.969c-.04,1.1-2.716,14.773-2.868,15.867-.548,3.986,3.135,38.547,3.135,38.547-20.906-7.573-36.062,7.875-45.322,1.66l2.722-66.586a34.505,34.505,0,0,1,1.715-9.535l4.162-12.618Z" transform="translate(-14973.318 -284.329)" fill="#f8ac53"/>
            <path id="Path_320" data-name="Path 320" d="M15111.894,338.251l-19.726,17a2.621,2.621,0,0,1-3.605-.2l-15.881-17.345,2.751-3.1a4.606,4.606,0,0,0,1.166-3.358h0a4.381,4.381,0,0,0-3.011-3.813l-.685-.235-.307,2.6-3.25-.9-4.047-4.174h0a4.065,4.065,0,0,0-4.307-1.424l-1.087.3-1.042,1.413.542,1.582-.947,1.839.43,2.54-.325.771a4.3,4.3,0,0,0-.054,3.25l1.255,3.25a2.909,2.909,0,0,0,1.189,1.416l4.6,2.832,17.55,28.836a6.6,6.6,0,0,0,9.171,1.974l31.645-20.6a8.942,8.942,0,0,0,1.634-13.882h0A10.084,10.084,0,0,0,15111.894,338.251Z" transform="translate(-15025.204 -285.719)" fill="#ffcebd"/>
            <path id="Path_321" data-name="Path 321" d="M15058.563,335.368l.326-.771-.09-.529a7.383,7.383,0,0,1,2.332,3.211c.781,1.977,1.078,4.155,2.278,5.932a19.425,19.425,0,0,0,2.971,3.067c6.546,6.144,9.825,15.13,17.169,20.4,2.36,1.692,5.246,3.147,6.232,5.794a116.078,116.078,0,0,1,11.484-8.87,38.5,38.5,0,0,1,8.546-5c2.451-.917,5.088-1.344,7.5-2.338a16.154,16.154,0,0,0,9.525-12.158,8.95,8.95,0,0,1-2.924,12.221l-31.646,20.6a6.6,6.6,0,0,1-9.172-1.974l-17.55-28.836-4.6-2.832a2.909,2.909,0,0,1-1.189-1.416l-1.255-3.25A4.3,4.3,0,0,1,15058.563,335.368Z" transform="translate(-15025.204 -289.351)" fill="#a58877" opacity="0.3"/>
            <path id="Path_322" data-name="Path 322" d="M15048.544,414.286c.716-3.56,2.6-7.048,3.916-10.309a21.1,21.1,0,0,0,1.952-7.2c.078-2.983-1.117-5.84-2.05-8.689s-1.605-5.974-.513-8.771c1.058-2.7,3.728-5.2,2.914-7.979-.576-1.973-2.722-3.111-4.746-3.815-.71-.246-1.521-.554-1.745-1.238-.391-1.191,1.231-1.963,2.242-2.761,1.716-1.355,1.949-3.738,1.993-5.857a113.931,113.931,0,0,0-.642-14.543c-.5-4.564-.6-9.42-1.9-13.855a11.468,11.468,0,0,0-3.541-5.907c-1.3-1.034-3-1.734-4.228-2.78l.923-.715,9.217,3.964a36.119,36.119,0,0,1,15.77,26.435,88.792,88.792,0,0,1,.23,10.969c-.04,1.1-2.717,14.773-2.867,15.867-.548,3.986,3.134,38.547,3.134,38.547A37.074,37.074,0,0,0,15048.544,414.286Z" transform="translate(-14954.405 -284.627)" fill="#d9811a"/>
            <path id="Path_323" data-name="Path 323" d="M15066.021,343.928l14.936,17.452a2.621,2.621,0,0,0,3.605.2l19.727-17a10.083,10.083,0,0,1,13.656.561h0a8.941,8.941,0,0,1-1.633,13.882l-31.645,20.6a6.6,6.6,0,0,1-9.172-1.974l-17.277-27.422Z" transform="translate(-15017.598 -292.052)" fill="#f8ac53"/>
            <path id="Path_324" data-name="Path 324" d="M15059.217,351.722c6.248,6.127,9.553,14.811,16.727,19.956,2.359,1.692,5.244,3.147,6.23,5.794a116.108,116.108,0,0,1,11.486-8.87,38.406,38.406,0,0,1,8.545-5c2.451-.917,5.088-1.344,7.5-2.338a16.154,16.154,0,0,0,9.525-12.158,8.95,8.95,0,0,1-2.924,12.221l-31.646,20.6a6.6,6.6,0,0,1-9.172-1.974l-17.277-27.422Z" transform="translate(-15017.596 -294.353)" fill="#f8ac53" opacity="0.1"/>
            <path id="Path_325" data-name="Path 325" d="M15092.047,316.353l1.451,3.968-17.6,20.5-2.842-11.336Z" transform="translate(-15000.987 -283.459)" fill="#d08227"/>
          </g>
          <g id="Group_12852" data-name="Group 12852" transform="translate(23.56 75.654)">
            <rect id="Rectangle_148" data-name="Rectangle 148" width="8.875" height="15.93" transform="translate(30.617 222.695)" fill="#ffcebd"/>
            <rect id="Rectangle_149" data-name="Rectangle 149" width="8.875" height="15.93" transform="translate(19.84 222.695)" fill="#ffcebd"/>
            <path id="Path_3114" data-name="Path 3114" d="M8276.5-456.212v58.982l-2.034,47.609-10.012.494v-103.33Z" transform="translate(-8234.21 576.379)" fill="#4d5068"/>
            <path id="Path_3115" data-name="Path 3115" d="M8276.868-456.018,8275.04-445.9a135.509,135.509,0,0,0-1.963,16.841l-2.349,43.7-2.463,36.161-3.068.152V-452.379Z" transform="translate(-8234.95 576.301)" fill="#071835" opacity="0.2"/>
            <path id="Path_3116" data-name="Path 3116" d="M8266.375-463.221h0a45.936,45.936,0,0,0,.571,28.06l.506,1.453,2.76,43.977,2.482,36.313h9.425l2.475-36.313,4.529-58.061,6.023-12.712v-6.42Z" transform="translate(-8252.853 580.671)" fill="#4d5068"/>
            <path id="Path_3117" data-name="Path 3117" d="M8263.885-253.3H8234.1v-5.8l2.687-4.064H8250.7l9.97,2.413a4.639,4.639,0,0,1,3.212,4.668Z" transform="translate(-8206.267 499.031)" fill="#4d5068"/>
            <rect id="Rectangle_150" data-name="Rectangle 150" width="31.654" height="2.592" transform="translate(26.803 243.14)" fill="#d6d6d6"/>
            <path id="Path_3118" data-name="Path 3118" d="M8249.792-255.892V-259.1l2.687-4.064h13.914l9.971,2.413a4.639,4.639,0,0,1,3.211,4.668v.2h.84v2.592H8248.76v-2.592Z" transform="translate(-8230.197 499.031)" fill="#191c3c" opacity="0.3"/>
            <path id="Path_3119" data-name="Path 3119" d="M8285.23-253.3h-29.783v-5.8l2.688-4.064h13.915l9.969,2.413a4.639,4.639,0,0,1,3.212,4.668Z" transform="translate(-8238.39 499.031)" fill="#4d5068"/>
            <rect id="Rectangle_151" data-name="Rectangle 151" width="31.654" height="2.592" transform="translate(16.026 243.14)" fill="#d6d6d6"/>
            <path id="Path_3120" data-name="Path 3120" d="M8296.6-461.836l12.676-1.631a7.707,7.707,0,0,1,.61,1.393,3.508,3.508,0,0,1,.146,1.92c-.271,1.025-1.181,1.563-1.912,2.2-3.169,2.757-3.4,8.174-3.336,12.837q.086,6.165.172,12.331c.147,10.631.3,21.264.569,31.892q.4,15.331,1.141,30.647a163.692,163.692,0,0,1,.244,18.217h-3.991l-2.482-36.313-2.759-43.977-.506-1.453a45.936,45.936,0,0,1-.572-28.06Z" transform="translate(-8283.077 579.286)" fill="#071835" opacity="0.2"/>
            <path id="Path_3121" data-name="Path 3121" d="M8242.364-564.167l-4.169-7.591-23.18,31.214,9.464-.567Z" transform="translate(-8175.112 622.675)" fill="#4d5068"/>
            <path id="Path_3122" data-name="Path 3122" d="M8321.939-611.189a23.528,23.528,0,0,0,.473-14l.04-.349q.8,3.167,1.606,6.335a16.457,16.457,0,0,0,.991,3.065c.439.919,1.04,1.716,1.52,2.608a11.257,11.257,0,0,1,1.155,6.775,6.335,6.335,0,0,1-.7,2.262,6.384,6.384,0,0,1-2.755,2.314,39.281,39.281,0,0,1-7.893,3.151C8317.673-603.386,8320.417-606.936,8321.939-611.189Z" transform="translate(-8311.754 644.224)" fill="#4d5068"/>
            <path id="Path_44584" data-name="Path 44584" d="M.259,2.7l4.448-.321L4.862,0,.136.341,0,2.412A.25.25,0,0,0,.259,2.7Z" transform="matrix(-0.894, 0.448, -0.448, -0.894, 61.274, 71.116)" fill="#ffcebd"/>
            <path id="Path_3123" data-name="Path 3123" d="M8266.8-547.835l-10.608-42.119,6.762,2.725a4.368,4.368,0,0,1,1.8,2.518l8.606,28.039Z" transform="translate(-8226.894 629.965)" fill="#fff"/>
            <path id="Path_3124" data-name="Path 3124" d="M8238.535-539.838l2.554,1.34,1.595,2.3a1.816,1.816,0,0,1,.08,1.872l-.563,1-1.032,2.352-1.187,1.505-1.347,1.184-2.993,1.073-3.664-4.358,2.661-2.98,2.547-4.8A.994.994,0,0,1,8238.535-539.838Z" transform="translate(-8184.296 609.929)" fill="#ffcebd"/>
            <path id="Path_3125" data-name="Path 3125" d="M8280.309-589.2l11.163,21.993a20.306,20.306,0,0,1,2.226,12.316l-1.818,13.855,3.539,30.862h-35.145l2.814-33.12-1.724-47.595,16,2.316Z" transform="translate(-8251.013 630.34)" fill="url(#linear-gradient-3)"/>
            <path id="Path_3126" data-name="Path 3126" d="M8307.324-537.49a.363.363,0,0,0-.061.044C8307.415-537.5,8307.459-537.526,8307.324-537.49Zm-13.1,10.618a1,1,0,0,1,0-1.8c1.042-.973-.452-1.946.59-2.919-.667-.152-.76-1.341-.188-1.706a4.946,4.946,0,0,0,.89-.691c-3.571-.68-.194-1.764-.843-8.709-.054-.569.765-1.372.684-1.747-.034-.158-.488.76-.857-.565-1.123-4.03-3.365-7.878-4.422-12.18-.285-1.155,1.231-1.649,1.515-.5,1.01,4.1,1.984,10.576,5.635,12.561.523.285,1.73,2.208,1.226,2.5.23-.134-2.332,4.549-1.715,5.532.96,1.53,2.354,1.42,3.737,1.6.7.092,5.895-1.619,6.793-1.959-.539.434-4.928,5.007-7.669,4.506.416.185,1.944,1.016.383,1.317-1.762.339-1.988,2.869-3.293,3.719a1,1,0,0,1,.151,1.416c-1.174,1.2-1.123,3.148-2.1,4.268C8293.658-520.993,8295.736-526.362,8294.221-526.872Z" transform="translate(-8278.028 617.299)" fill="#6c98e3" opacity="0.3"/>
            <path id="Path_3127" data-name="Path 3127" d="M8267.417-518.357c-.544-2.2.523-2.524.825-4.8a5.062,5.062,0,0,1,.115-.514c-1.449-.506.546-1.052-2.095-1.548-.972-.183-3.276-1.72-2.239-1.672a12.963,12.963,0,0,0,6.759-1.485c.019-.01.037-.007.057-.015a6.756,6.756,0,0,0,.518-1.31.807.807,0,0,1,.524-.6l-.645,4.9-.075.026a1.573,1.573,0,0,1,.038.258l-.112.855a1.84,1.84,0,0,1-.324.539,1.205,1.205,0,0,1-.646.378,12.709,12.709,0,0,0,0,6.461l-.017.127S8267.655-517.392,8267.417-518.357Z" transform="translate(-8229.236 606.064)" fill="#6c98e3" opacity="0.3"/>
            <path id="Path_3128" data-name="Path 3128" d="M8323.191-593.264l-8.174,8.97a14.393,14.393,0,0,0-3.2,12.3l4.343,22.344,13.9-5.419-3.347-16.4.908-16.256Z" transform="translate(-8311.545 631.292)" fill="url(#linear-gradient-4)"/>
            <path id="Path_3129" data-name="Path 3129" d="M8271.7-627.025c-.023-1.986.184-3.933.243-5.882.06-2.038-.33-4.119-.266-6.186a40.384,40.384,0,0,1,2.063-11.606,1.723,1.723,0,0,1,.447-.8,1.257,1.257,0,0,1,.808-.2,5.028,5.028,0,0,1,3.643.937,7.2,7.2,0,0,1,1.65,3.452c.715,2.608,2.153,6,2.2,8.745.044,2.581-1.095,5.322-1.545,7.822-.711,3.96-.3,8.083-.71,12.1a24.715,24.715,0,0,0-.264,6.079c.271,1.816,1.566,3.289,2.625,4.591a1.074,1.074,0,0,0,.239.236,1.048,1.048,0,0,0,.436.109,2.967,2.967,0,0,1,2.221,1.778,1.406,1.406,0,0,1-1.8.342,2.763,2.763,0,0,0-1.895-.373c0,.558.664.945.549,1.486a.759.759,0,0,1-.732.515c-1.918.207-2.135-.785-2.822-2.459-1-2.443-.6,1.83-.5,2.509a2.151,2.151,0,0,1-1.251-1.107c-.3-.523-.5-1.116-.767-1.667-.629-1.31-1.6-2.358-2.212-3.678a23.176,23.176,0,0,1-2.232-9.719Q8271.741-623.515,8271.7-627.025Z" transform="translate(-8246.839 654.709)" fill="#4d5068"/>
            <path id="Path_3130" data-name="Path 3130" d="M8300.982-590.56h0c2.735,0,4.953-2.633,4.953-5.881v-15.7h-9.906v15.7C8296.029-593.193,8298.247-590.56,8300.982-590.56Z" transform="translate(-8279.583 638.854)" fill="#ffcebd"/>
            <path id="Path_3131" data-name="Path 3131" d="M8305.866-596.44v-15.7h-2.578v15.7c0,3.247,2.219,5.88,4.953,5.88a4.2,4.2,0,0,0,1.29-.227A5.783,5.783,0,0,1,8305.866-596.44Z" transform="translate(-8286.842 638.854)" fill="#a58877" opacity="0.4"/>
            <path id="Path_3132" data-name="Path 3132" d="M8300.007-635.419v6.935a5.928,5.928,0,0,1-.553,2.514l-4.493,9.506A2.218,2.218,0,0,1,8293-615.1h-2.346a2.067,2.067,0,0,1-1.527-.711l-5.134-5.64a5.255,5.255,0,0,1-1.3-3.526v-15.209s4.778-6.012,11.623-3.964C8297.671-643.146,8300.007-639.526,8300.007-635.419Z" transform="translate(-8266.922 651.851)" fill="#ffcebd"/>
            <path id="Path_3133" data-name="Path 3133" d="M8300.417-620.719c-.828-.909-.774-2.914-.774-4.252l.545-6.817a14.513,14.513,0,0,0,3.878-9.467,3.054,3.054,0,0,1,2.631-3.153c-6.232-1.12-10.492,4.228-10.492,4.228v15.209a5.267,5.267,0,0,0,1.3,3.526l5.135,5.64C8303.053-615.349,8300.417-620.719,8300.417-620.719Z" transform="translate(-8280.433 651.846)" fill="#a58877" opacity="0.4"/>
            <path id="Path_3134" data-name="Path 3134" d="M8304.48-654.62a10.6,10.6,0,0,0-3.118-.706c-1.184-.266-2.283-.932-3.462-1.224-2.794-.69-5.74.866-7.7,3.33a22.455,22.455,0,0,0-3.807,8.986,52.946,52.946,0,0,0-.878,18.276c.343,2.714,1.28,5.381,1.467,8.1a9.654,9.654,0,0,0,2.189,5.743l2.563,3.613a12.507,12.507,0,0,0,2.171,2.546c.658.53,1.538.693,2.093,1.3a2.94,2.94,0,0,0,.285-2.436,13.228,13.228,0,0,1-.55-2.479,2.77,2.77,0,0,0,2.163,1.666c.3.024,1.077.119,1.159-.374.1-.615-.48-.486-.691-.761a.5.5,0,0,1-.06-.317l.035-1.066a3.52,3.52,0,0,0,2.547.286q-2.268-2.082-4.535-4.164c-2.1-1.93-3.215-5.885-3.814-8.866a60.336,60.336,0,0,1-1.1-8.847,20.977,20.977,0,0,1,.2-4.053c.21-1.431.077-2.869.335-4.278a3.629,3.629,0,0,1,.426-1.25,3.511,3.511,0,0,1,1.763-1.26,28.718,28.718,0,0,1,6.612-2.212,24.07,24.07,0,0,0,3.22-.533,4.416,4.416,0,0,0,2.68-2.028C8307.925-649.922,8306.375-653.54,8304.48-654.62Z" transform="translate(-8275.254 656.715)" fill="#4d5068"/>
            <path id="Path_3135" data-name="Path 3135" d="M8302.518-478.506l2.814-33.12-.009-.228,7.693,1.01c-1.558,2.162-.977,5.509.149,8.021s2.736,4.831,3.092,7.645c.425,3.36-1.023,6.6-1.8,9.867a25.263,25.263,0,0,0-.644,6.805Z" transform="translate(-8293.258 598.673)" fill="#6c98e3" opacity="0.3"/>
            <path id="Path_3136" data-name="Path 3136" d="M8257.566-529.563l1.356,7.062,20.132-.911,6.811-4.219,3.961-3.306v.873a4.744,4.744,0,0,1-1.384,3.426l-.358.342,1.742,1.623.967.838a3.1,3.1,0,0,1,.72,3.441l-.664,1.623a4.318,4.318,0,0,1-3.882,2.884h-3.638l-2.061-1.129-23.058,5.855c-3.788.961-7.6-1.492-8.991-5.785l-2.691-8.316Z" transform="translate(-8240.403 606.319)" fill="#ffcebd"/>
            <path id="Path_3137" data-name="Path 3137" d="M8334.315-551.5l-4.755,1.854-4.343-22.344a14.4,14.4,0,0,1,3.194-12.3l8.176-8.97.109.137c-1.013,6.818-5.257,12.869-6.039,19.862-.562,5.034.723,10.073,1.991,14.923C8333.228-556.136,8333.706-553.755,8334.315-551.5Z" transform="translate(-8324.94 631.292)" fill="#6c98e3" opacity="0.3"/>
            <path id="Path_3138" data-name="Path 3138" d="M8252.222-523.578c1.37,5.076,3.405,9.514,8.74,9.888a39.99,39.99,0,0,0,8.451-.732c4.426-.638,9.118-.191,13.478-1.037a22.056,22.056,0,0,1,10.065.312,4.166,4.166,0,0,1-3.545,2.209h-3.639l-2.06-1.129-23.06,5.856c-3.787.961-7.6-1.492-8.989-5.785l-2.692-8.316Z" transform="translate(-8242.847 603.37)" fill="#a58877" opacity="0.4"/>
          </g>
        </g>
      </g>
    </g>
  </g>
</svg>
