<svg xmlns="http://www.w3.org/2000/svg" width="313.726" height="276.514" viewBox="0 0 313.726 276.514">
  <g id="budget-linkedin" transform="translate(-839.087 -1391)">
    <g id="Group_12910" data-name="Group 12910" transform="translate(-2166.055 -1560.719)">
      <g id="Group_12523" data-name="Group 12523" transform="translate(3207.885 2951.719)">
        <path id="Rectangle_326" data-name="Rectangle 326" d="M3724.925,2955.528H3833.7a1.105,1.105,0,0,1,1.106,1.1h0v274.314H3723.819V2956.634a1.106,1.106,0,0,1,1.106-1.106Z" transform="translate(-3723.819 -2954.45)" fill="#eef4fe"/>
        <path id="Rectangle_327" data-name="Rectangle 327" d="M3724.925,2951.719H3833.7a1.106,1.106,0,0,1,1.106,1.1h0v15.748H3723.819v-15.748a1.106,1.106,0,0,1,1.106-1.106Z" transform="translate(-3723.819 -2951.719)" fill="#c2e3f2"/>
        <path id="Path_797" data-name="Path 797" d="M3757.185,2971.25c0,1.215-.437,2.2-.976,2.2s-.975-.984-.975-2.2.437-2.2.975-2.2S3757.185,2970.036,3757.185,2971.25Z" transform="translate(-3746.342 -2964.145)" fill="#fff"/>
        <path id="Path_798" data-name="Path 798" d="M3770.1,2971.25c0,1.215-.437,2.2-.976,2.2s-.976-.984-.976-2.2.437-2.2.976-2.2S3770.1,2970.036,3770.1,2971.25Z" transform="translate(-3755.603 -2964.145)" fill="#fff"/>
        <path id="Path_799" data-name="Path 799" d="M3783.019,2971.25c0,1.215-.437,2.2-.976,2.2s-.976-.984-.976-2.2.437-2.2.976-2.2S3783.019,2970.036,3783.019,2971.25Z" transform="translate(-3764.863 -2964.145)" fill="#fff"/>
        <rect id="Rectangle_328" data-name="Rectangle 328" width="40.403" height="23.878" transform="translate(51.489 129.683)" fill="#e4f2f7"/>
        <rect id="Rectangle_329" data-name="Rectangle 329" width="40.403" height="11.939" transform="translate(51.489 193.363)" fill="#d1e1fc"/>
        <rect id="Rectangle_330" data-name="Rectangle 330" width="27.168" height="3.978" transform="translate(60.304 197.341)" fill="#c2d7fb"/>
        <rect id="Rectangle_331" data-name="Rectangle 331" width="71.9" height="61.889" transform="translate(19.992 45.865)" fill="#e4f2f7"/>
        <rect id="Rectangle_332" data-name="Rectangle 332" width="110.983" height="32.113" transform="translate(0 13.753)" fill="#c2e3f2"/>
        <path id="Path_800" data-name="Path 800" d="M3811.473,3084.431h-9.442c-.379,0-.687-.692-.687-1.545h0c0-.854.308-1.546.687-1.546h9.442c.379,0,.686.692.686,1.546h0C3812.158,3083.739,3811.852,3084.431,3811.473,3084.431Z" transform="translate(-3779.401 -3044.651)" fill="#fff" opacity="0.6" style="isolation: isolate"/>
        <path id="Path_801" data-name="Path 801" d="M3862.118,3084.431h-11.461c-.378,0-.686-.692-.686-1.545h0c0-.854.308-1.546.686-1.546h11.461c.379,0,.686.692.686,1.546h0C3862.8,3083.739,3862.5,3084.431,3862.118,3084.431Z" transform="translate(-3814.264 -3044.651)" fill="#fff" opacity="0.6" style="isolation: isolate"/>
        <path id="Path_802" data-name="Path 802" d="M3917.875,3084.431h-11.461c-.379,0-.687-.692-.687-1.545h0c0-.854.308-1.546.687-1.546h11.461c.379,0,.686.692.686,1.546h0C3918.56,3083.739,3918.253,3084.431,3917.875,3084.431Z" transform="translate(-3854.238 -3044.651)" fill="#fff" opacity="0.6" style="isolation: isolate"/>
        <path id="Path_803" data-name="Path 803" d="M3973.63,3084.431h-11.46c-.379,0-.686-.692-.686-1.545h0c0-.854.307-1.546.686-1.546h11.46c.379,0,.686.692.686,1.546h0C3974.316,3083.739,3974.009,3084.431,3973.63,3084.431Z" transform="translate(-3894.213 -3044.651)" fill="#fff" opacity="0.6" style="isolation: isolate"/>
        <path id="Path_804" data-name="Path 804" d="M4025.4,3084.431h-7.468c-.378,0-.686-.692-.686-1.545h0c0-.854.307-1.546.686-1.546h7.468c.379,0,.686.692.686,1.546h0C4026.082,3083.739,4025.776,3084.431,4025.4,3084.431Z" transform="translate(-3934.19 -3044.651)" fill="#fff" opacity="0.6" style="isolation: isolate"/>
        <rect id="Rectangle_333" data-name="Rectangle 333" width="18.126" height="40.837" transform="translate(25.641 87.336)" fill="#cee6ed"/>
        <rect id="Rectangle_334" data-name="Rectangle 334" width="14.838" height="33.428" transform="translate(27.285 91.041)" fill="#e4f2f7"/>
        <rect id="Rectangle_335" data-name="Rectangle 335" width="6.108" height="13.762" transform="translate(54.196 136.018)" fill="#cee6ed"/>
        <g id="Group_307" data-name="Group 307" transform="translate(21.298 198.347)">
          <rect id="Rectangle_336" data-name="Rectangle 336" width="8.164" height="18.393" fill="#e1ebfd"/>
          <rect id="Rectangle_337" data-name="Rectangle 337" width="8.164" height="18.393" transform="translate(9.194)" fill="#e1ebfd"/>
          <rect id="Rectangle_338-2" data-name="Rectangle 338-2" width="8.164" height="18.393" transform="translate(18.387)" fill="#e1ebfd"/>
          <rect id="Rectangle_339-2" data-name="Rectangle 339-2" width="8.164" height="18.393" transform="translate(0 19.9)" fill="#e1ebfd"/>
          <rect id="Rectangle_340-2" data-name="Rectangle 340-2" width="8.164" height="18.393" transform="translate(9.194 19.9)" fill="#e1ebfd"/>
          <rect id="Rectangle_341-2" data-name="Rectangle 341-2" width="8.164" height="18.393" transform="translate(18.387 19.9)" fill="#e1ebfd"/>
          <rect id="Rectangle_342-2" data-name="Rectangle 342-2" width="8.164" height="18.393" transform="translate(0 39.8)" fill="#e1ebfd"/>
          <rect id="Rectangle_343-2" data-name="Rectangle 343-2" width="8.164" height="18.393" transform="translate(9.194 39.8)" fill="#e1ebfd"/>
          <rect id="Rectangle_344-2" data-name="Rectangle 344-2" width="8.164" height="18.393" transform="translate(18.387 39.8)" fill="#e1ebfd"/>
        </g>
        <path id="Path_805" data-name="Path 805" d="M3823.394,3434.706h-23.789c-.3,0-.542-.546-.542-1.217h0c0-.674.242-1.219.542-1.219h23.789c.3,0,.541.545.541,1.219h0C3823.935,3434.16,3823.692,3434.706,3823.394,3434.706Z" transform="translate(-3777.766 -3296.251)" fill="#cee6ed"/>
        <path id="Path_806" data-name="Path 806" d="M3951.885,3439.014h-4.137c-.3,0-.541-.546-.541-1.217h0c0-.673.242-1.217.541-1.217h4.137c.3,0,.541.546.541,1.217h0C3952.427,3438.469,3952.184,3439.014,3951.885,3439.014Z" transform="translate(-3883.978 -3299.341)" fill="#c2d7fb"/>
        <path id="Path_807" data-name="Path 807" d="M3959.1,3461.393h-11.354c-.3,0-.541-.545-.541-1.217h0c0-.673.242-1.219.541-1.219H3959.1c.3,0,.542.546.542,1.219h0C3959.644,3460.848,3959.4,3461.393,3959.1,3461.393Z" transform="translate(-3883.978 -3315.384)" fill="#cee6ed"/>
        <path id="Path_808" data-name="Path 808" d="M3952.17,3516.227h-36.724c-.3,0-.541-.545-.541-1.217h0c0-.673.242-1.217.541-1.217h36.724c.3,0,.541.545.541,1.217h0C3952.71,3515.681,3952.468,3516.227,3952.17,3516.227Z" transform="translate(-3860.819 -3354.698)" fill="#cee6ed"/>
        <path id="Path_809" data-name="Path 809" d="M3926.115,3537.746h-10.671c-.3,0-.541-.546-.541-1.217h0c0-.673.242-1.217.541-1.217h10.671c.3,0,.541.546.541,1.217h0C3926.656,3537.2,3926.413,3537.746,3926.115,3537.746Z" transform="translate(-3860.816 -3370.127)" fill="#cee6ed"/>
        <path id="Path_810" data-name="Path 810" d="M3919.424,3561.851h-3.978c-.3,0-.541-.545-.541-1.217h0c0-.673.242-1.217.541-1.217h3.978c.3,0,.541.546.541,1.217h0C3919.965,3561.307,3919.723,3561.851,3919.424,3561.851Z" transform="translate(-3860.819 -3387.409)" fill="#cee6ed"/>
        <rect id="Rectangle_345-2" data-name="Rectangle 345-2" width="40.403" height="23.878" transform="translate(51.489 215.917)" fill="#d1e1fc"/>
        <rect id="Rectangle_346-2" data-name="Rectangle 346-2" width="6.108" height="13.763" transform="translate(54.196 222.252)" fill="#c2d7fb"/>
        <path id="Path_811" data-name="Path 811" d="M3951.885,3743.673h-4.137c-.3,0-.541-.545-.541-1.217h0c0-.673.242-1.217.541-1.217h4.137c.3,0,.541.545.541,1.217h0C3952.427,3743.128,3952.184,3743.673,3951.885,3743.673Z" transform="translate(-3883.978 -3517.767)" fill="#c2d7fb"/>
        <path id="Path_812" data-name="Path 812" d="M3959.1,3766.055h-11.354c-.3,0-.541-.546-.541-1.217h0c0-.673.242-1.217.541-1.217H3959.1c.3,0,.542.545.542,1.217h0C3959.644,3765.511,3959.4,3766.055,3959.1,3766.055Z" transform="translate(-3883.978 -3533.814)" fill="#c2d7fb"/>
        <path id="Path_813" data-name="Path 813" d="M3952.17,3820.886h-36.724c-.3,0-.541-.546-.541-1.217h0c0-.673.242-1.217.541-1.217h36.724c.3,0,.541.545.541,1.217h0C3952.71,3820.34,3952.468,3820.886,3952.17,3820.886Z" transform="translate(-3860.819 -3573.125)" fill="#d1e1fc"/>
        <path id="Path_814" data-name="Path 814" d="M3926.115,3842.407h-10.671c-.3,0-.541-.546-.541-1.217h0c0-.673.242-1.217.541-1.217h10.671c.3,0,.541.545.541,1.217h0C3926.656,3841.862,3926.413,3842.407,3926.115,3842.407Z" transform="translate(-3860.816 -3588.554)" fill="#d1e1fc"/>
        <path id="Path_815" data-name="Path 815" d="M3919.424,3866.51h-3.978c-.3,0-.541-.545-.541-1.217h0c0-.673.242-1.217.541-1.217h3.978c.3,0,.541.546.541,1.217h0C3919.965,3865.964,3919.723,3866.51,3919.424,3866.51Z" transform="translate(-3860.819 -3605.835)" fill="#d1e1fc"/>
        <path id="Path_816" data-name="Path 816" d="M3823.394,3463.529h-23.789c-.3,0-.542-.546-.542-1.217h0c0-.673.242-1.219.542-1.219h23.789c.3,0,.541.546.541,1.219h0C3823.935,3462.984,3823.692,3463.529,3823.394,3463.529Z" transform="translate(-3777.766 -3316.916)" fill="#cee6ed"/>
        <path id="Path_817" data-name="Path 817" d="M3814.742,3494.518h-15.137c-.3,0-.542-.546-.542-1.217h0c0-.673.242-1.219.542-1.219h15.137c.3,0,.54.546.54,1.219h0C3815.282,3493.973,3815.041,3494.518,3814.742,3494.518Z" transform="translate(-3777.766 -3339.133)" fill="#cee6ed"/>
        <path id="Path_818" data-name="Path 818" d="M3814.357,3605.029H3800c-.513,0-.928-.937-.928-2.09h0c0-1.156.415-2.091.928-2.091h14.362c.512,0,.928.936.928,2.091h0C3815.284,3604.093,3814.869,3605.029,3814.357,3605.029Z" transform="translate(-3777.768 -3417.113)" fill="#cee6ed"/>
        <path id="Path_819" data-name="Path 819" d="M3922.411,3648.971c0,1.521-.547,2.753-1.222,2.753s-1.222-1.233-1.222-2.753.547-2.752,1.222-2.752S3922.411,3647.451,3922.411,3648.971Z" transform="translate(-3864.448 -3449.642)" fill="#f4f8ff"/>
        <rect id="Rectangle_347-2" data-name="Rectangle 347-2" width="1.696" height="1.061" transform="translate(99.762 4.906)" fill="#e3edfe"/>
        <rect id="Rectangle_348-2" data-name="Rectangle 348-2" width="1.696" height="1.061" transform="translate(99.763 7.2)" fill="#e3edfe"/>
        <rect id="Rectangle_349" data-name="Rectangle 349" width="1.696" height="1.061" transform="translate(99.764 9.494)" fill="#e3edfe"/>
        <rect id="Rectangle_350" data-name="Rectangle 350" width="68.633" height="8.242" transform="translate(21.943 22.153)" fill="#fff"/>
      </g>
      <g id="Group_12521" data-name="Group 12521" transform="translate(3005.143 2955.608)">
        <g id="Group_693" data-name="Group 693" transform="translate(91.976 68.093)">
          <path id="Path_2045" data-name="Path 2045" d="M3398.239,3233.259a2.742,2.742,0,0,1,2.77,2.713v31.449a2.742,2.742,0,0,1-2.713,2.77h-3.227l-4.3,4.3-4.3-4.256h-51.183a2.891,2.891,0,0,1-2.007-.8,2.8,2.8,0,0,1-.8-1.967v-31.392a2.8,2.8,0,0,1,.8-1.967,2.889,2.889,0,0,1,2.007-.8h62.945Z" transform="translate(-3332.484 -3225.551)" fill="#b6d4ff"/>
          <path id="Path_2046" data-name="Path 2046" d="M3454.665,3248.066a2.6,2.6,0,0,0-2.6-2.609h-36.983a2.6,2.6,0,0,0-2.61,2.6v7.758a2.6,2.6,0,0,0,2.6,2.61h36.983a2.6,2.6,0,0,0,2.609-2.6v-7.758Z" transform="translate(-3389.833 -3234.297)" fill="#fff"/>
          <path id="Path_2047" data-name="Path 2047" d="M3360.656,3248.066a2.6,2.6,0,0,0-2.6-2.609h-8.923a2.6,2.6,0,0,0-2.61,2.6v7.758a2.6,2.6,0,0,0,2.6,2.61h8.922a2.6,2.6,0,0,0,2.609-2.6v-7.758Z" transform="translate(-3342.551 -3234.297)" fill="#fff"/>
          <path id="Path_2048" data-name="Path 2048" d="M3360.656,3308.483a2.6,2.6,0,0,0-2.6-2.609h-8.923a2.6,2.6,0,0,0-2.61,2.6v7.759a2.6,2.6,0,0,0,2.6,2.609h8.922a2.6,2.6,0,0,0,2.609-2.6v-7.758Z" transform="translate(-3342.551 -3277.613)" fill="#fff"/>
          <path id="Path_2049" data-name="Path 2049" d="M3454.665,3306.782a2.6,2.6,0,0,0-2.6-2.61h-36.983a2.6,2.6,0,0,0-2.61,2.6v7.758a2.6,2.6,0,0,0,2.6,2.61h36.983a2.6,2.6,0,0,0,2.609-2.6v-7.758Z" transform="translate(-3389.833 -3276.393)" fill="#fff"/>
          <circle id="Ellipse_67" data-name="Ellipse 67" cx="9.032" cy="9.032" r="9.032" transform="translate(55.799)" fill="#8dc63f"/>
          <path id="Path_2050" data-name="Path 2050" d="M3553.319,3225.317a1.119,1.119,0,0,1,.762,1.806l-.04.04-4.777,4.777a1,1,0,0,1-.321.2,1.053,1.053,0,0,1-1.124-.16l-.081-.081-2.529-2.529a1.127,1.127,0,0,1,.093-1.591,1.015,1.015,0,0,1,1.433.065l1.767,1.766,4.014-4.014C3552.516,3225.638,3552.959,3225.317,3553.319,3225.317Z" transform="translate(-3484.794 -3219.857)" fill="#fff"/>
        </g>
        <g id="Group_694" data-name="Group 694" transform="translate(150.98 38.83)">
          <path id="Path_2051" data-name="Path 2051" d="M3581.369,3107.3a4.661,4.661,0,0,0-4.656-4.657H3545.6a4.661,4.661,0,0,0-4.657,4.657v2.248a4.66,4.66,0,0,0,4.657,4.657h31.113a4.66,4.66,0,0,0,4.657-4.657Z" transform="translate(-3540.944 -3102.645)" fill="#8dc63f"/>
          <circle id="Ellipse_68" data-name="Ellipse 68" cx="2.449" cy="2.449" r="2.449" transform="translate(4.857 3.091)" fill="#fff"/>
          <path id="Path_2052" data-name="Path 2052" d="M3609.972,3118.6a1.1,1.1,0,0,0-.361-.843,1.155,1.155,0,0,0-.843-.361h-19.389a1.093,1.093,0,0,0-.843.361,1.156,1.156,0,0,0-.361.843h0a1.093,1.093,0,0,0,.361.843,1.156,1.156,0,0,0,.843.361h19.389a1.094,1.094,0,0,0,.843-.361A1.156,1.156,0,0,0,3609.972,3118.6Z" transform="translate(-3574.806 -3113.219)" fill="#fff"/>
        </g>
        <g id="Group_695" data-name="Group 695" transform="translate(160.983 18.917)">
          <path id="Path_2053" data-name="Path 2053" d="M3616.708,3036.949a4.661,4.661,0,0,0-4.656-4.657H3580.94a4.66,4.66,0,0,0-4.657,4.657v2.248a4.659,4.659,0,0,0,4.657,4.657h31.112a4.66,4.66,0,0,0,4.657-4.657Z" transform="translate(-3576.283 -3032.292)" fill="#8dc63f"/>
          <circle id="Ellipse_69" data-name="Ellipse 69" cx="2.449" cy="2.449" r="2.449" transform="translate(4.857 3.091)" fill="#fff"/>
          <path id="Path_2054" data-name="Path 2054" d="M3645.31,3048.246a1.094,1.094,0,0,0-.361-.843,1.157,1.157,0,0,0-.843-.361h-19.389a1.1,1.1,0,0,0-.843.361,1.154,1.154,0,0,0-.361.843h0a1.091,1.091,0,0,0,.361.843,1.156,1.156,0,0,0,.843.361h19.389a1.093,1.093,0,0,0,.843-.361A1.156,1.156,0,0,0,3645.31,3048.246Z" transform="translate(-3610.145 -3042.866)" fill="#fff"/>
        </g>
        <g id="Group_696" data-name="Group 696" transform="translate(3.851 123.093)">
          <path id="Path_2055" data-name="Path 2055" d="M3136.338,3772.681s1.485,17.824,18.265,19.389c16.82,1.565,32.717-16.018,33.2-17.9C3188.324,3772.319,3157.252,3752.127,3136.338,3772.681Z" transform="translate(-3103.731 -3660.724)"/>
          <path id="Path_2056" data-name="Path 2056" d="M3096.941,3571.67a11.247,11.247,0,0,0-5.459.6c-1.485.522-6.383,2.729-10.879,4.777a26.166,26.166,0,0,0-13.53,13.127c-3.612,7.909-8.469,19.068-9.874,24.687l7.346,1.084,7.065,22.12,63.226-3.573.281-25.611s-5.1-14.973-8.35-23.8a17.483,17.483,0,0,0-13.287-11.12c-2.649-.481-4.817-.883-4.817-.883Z" transform="translate(-3046.993 -3523.101)" fill="#f8ac53"/>
          <path id="Path_2057" data-name="Path 2057" d="M3073.839,3605.315c2.529-.923,4.5-.16,2.047,6.7-4.817,13.448-9.113,23.8-5.58,28.141,1.365,1.727-.723,3.773-3.934,5.018l-1.686-5.259-7.346-1.084c1.405-5.62,6.3-16.78,9.916-24.688A25.242,25.242,0,0,1,3073.839,3605.315Z" transform="translate(-3047.093 -3547.071)" fill="#eb952f"/>
          <path id="Path_2058" data-name="Path 2058" d="M3133.644,3693.39s.642-9.915,1.927-14.732c1.285-4.857,4.9,4.416,6.664,8.31s2.972-.923,7.186,4.456C3153.676,3696.8,3135.73,3698.208,3133.644,3693.39Z" transform="translate(-3101.8 -3598.896)" fill="#eb952f"/>
          <path id="Path_2059" data-name="Path 2059" d="M3295.428,3652.965c-4.376,3.332-12.083-1.325-12.083-1.325s-2.369-13.89-2.489-18.345c-.12-4.054,7.587,8.711,9.474,4.536,2.61,7.387,5.1,14.692,5.1,14.692Z" transform="translate(-3207.343 -3566.78)" fill="#eb952f"/>
          <path id="Path_2060" data-name="Path 2060" d="M3112.76,3794.324h18.427l-1.245,2.851h-18.427Z" transform="translate(-3085.934 -3682.809)" fill="#f7f7f7"/>
          <path id="Path_2061" data-name="Path 2061" d="M3117.476,3799.263c10.4-2.489,27.258-6.9,27.258-6.9s16.74-15.936,34.122-19.269c17.382-3.372,25.13,6.785,16.66,18.306s-33.921,17.662-33.921,17.662l-34.082.2C3125.344,3805.606,3121.129,3801.993,3117.476,3799.263Z" transform="translate(-3090.208 -3667.114)" fill="#3c3d41"/>
          <path id="Path_2062" data-name="Path 2062" d="M3051.679,3867.222c3.693,2.73,7.869,6.343,10.077,10h-.8a33.2,33.2,0,0,1-18.627,7.266c-11.481.8-18.507-3.212-16.178-9.113,2.369-5.9,13.368-5.74,18.185-6.5C3045.537,3868.667,3048.267,3868.025,3051.679,3867.222Z" transform="translate(-3024.412 -3735.073)"/>
          <path id="Path_2063" data-name="Path 2063" d="M3231.062,3803.054s24.006-3.854,29.867-12.324c5.9-8.47-5.459-12.966-20.754-5.18s-19.59,12.966-19.59,12.966Z" transform="translate(-3164.132 -3673.635)" fill="#494a50"/>
          <path id="Path_2064" data-name="Path 2064" d="M3105.412,3803c.962,1.405,4.376,7.266-2.328,12.164h0a68,68,0,0,1-12.726,1.445,119.991,119.991,0,0,1-51.625-11.28c-24.126-11.281-22.2-31.873-1.766-30.469,7.587.522,4.014.643,12.485,4.9,14.291,7.146,41.187,20.031,55.719,22.962Z" transform="translate(-3021.14 -3668.806)" fill="#494a50"/>
          <path id="Path_2065" data-name="Path 2065" d="M3030.178,3776.6c-2.489.883-4.817,2.85-5.5,6.985-1.566,9.675,16.7,11.963,32.075,13.93s22.681,7.748,32.235,14.131a16.412,16.412,0,0,0,17.463.962,10.005,10.005,0,0,1-3.372,3.814h0a68.037,68.037,0,0,1-12.725,1.445,119.978,119.978,0,0,1-51.625-11.28C3017.694,3796.747,3016.53,3779.766,3030.178,3776.6Z" transform="translate(-3021.176 -3670.098)" fill="#3c3d41"/>
          <path id="Path_2066" data-name="Path 2066" d="M3066.169,3726.1s-.522,4.3-1.084,9.113a9.658,9.658,0,0,0,2.972,8.27,9.937,9.937,0,0,0,8.39,2.609c14.973-2.489,37.534-6.182,37.534-6.182l-.843-11.642-28.863-.04Z" transform="translate(-3052.591 -3633.899)" fill="#ffcebd"/>
          <path id="Path_2067" data-name="Path 2067" d="M3157.359,3434.864s-8.069-8.029-5.1-15.295,11.08-5.9,14.692-7.467c3.573-1.566,2.489-10.317,12.2-11.682,9.755-1.365,15.295,15.9,3.733,26.735C3182.93,3427.2,3161.052,3436.51,3157.359,3434.864Z" transform="translate(-3114.676 -3400.344)" fill="#11284f"/>
          <path id="Path_2068" data-name="Path 2068" d="M3186.086,3465.713s3.653,3.412,6.222,3.974c0,0,5.459,7.025,6.142,14.05.682,7.065-4.817,8.591-8.912,9.715-1.486.441-.481,2.127.361,4.014a7.451,7.451,0,0,1-3.372,5.378c-3.051,1.765-8.069-.281-11.642-3.252s-4.015-3.011-4.015-3.011,4.015-1.525,4.7-3.613c.723-2.128-1-5.781-1-5.781a3.565,3.565,0,0,1-4.576,0c-2.288-1.927-2.489-7.1,3.251-6.945,0,0,3.492-.923,2.65-5.661C3175.89,3474.585,3184.2,3470.45,3186.086,3465.713Z" transform="translate(-3126.784 -3447.21)" fill="#ffcebd"/>
          <path id="Path_2069" data-name="Path 2069" d="M3180.655,3540.159h0c2.047-.642,4.255-1.2,7.547,1.807,3.332,3.01,6.3,4.576,11.2,3.211l.281-.08a2.46,2.46,0,0,1-.481.2c-.6.2-1.285.4-1.927.682-.562.161-1.124.321-1.646.481a.943.943,0,0,0-.642.481,1.6,1.6,0,0,0-.522.281c-2.81,1.485-1.766,2.529-4.576,3.894a10.093,10.093,0,0,0-4.817,4.094,20.233,20.233,0,0,1-4.014-2.609c-3.573-2.972-4.015-3.011-4.015-3.011s4.015-1.525,4.7-3.613C3182.421,3543.812,3180.655,3540.159,3180.655,3540.159Z" transform="translate(-3132.914 -3500.22)" fill="#f8c1ae"/>
          <path id="Path_2070" data-name="Path 2070" d="M3235.346,3697.981a3.232,3.232,0,0,0-2.972-4.5h-38.536a5.357,5.357,0,0,0-4.938,3.252c-3.493,8.029-12.284,28.181-12.284,28.181h43.476a5.456,5.456,0,0,0,4.978-3.252C3227.517,3716.006,3232.576,3704.4,3235.346,3697.981Z" transform="translate(-3132.608 -3610.512)" fill="#909090"/>
          <path id="Path_2071" data-name="Path 2071" d="M3313.453,3866.8c3.252-.8,16.78-3.813,25.331-1.485,9.755,2.649,8.149,12.285,2.007,14.573-4.054,1.485-15.014-.562-20.714-1.285-2.689-.361-5.9.2-9.434.843h0c7.667-5.58,2.128-12.444,2.128-12.444Z" transform="translate(-3228.7 -3733.082)"/>
        </g>
        <path id="Path_2072" data-name="Path 2072" d="M3522.09,3527.93l-9.715-2.649s-.281.04-.763.08a24.024,24.024,0,0,0-21.276,25.491c1.887,28.341,5.179,74.426,5.179,73.985h9.394c-.4-2.007,3.412-21.477,5.1-27.418s6.9-35.969.361-43.355l10.4,1.124,4.375-25.09Z" transform="translate(-3353.641 -3366.824)" fill="#f8c1ae"/>
        <path id="Path_2073" data-name="Path 2073" d="M3478.364,3876.908v11.24c0,3.011-1.124,3.332-6.5,3.332h-18.305c-.2,0-1.084-2.529,2.489-3.372s12.605-2.569,12.806-5.781.121-5.459.121-5.459h9.394Z" transform="translate(-3327.136 -3618.896)" fill="#4f4640"/>
        <path id="Path_2074" data-name="Path 2074" d="M3574.537,3605.31s-18.827-4.375-22.24-1.927c-3.412,2.409,1.646,6.142,1.646,6.142l17.181,3.693Z" transform="translate(-3397.256 -3422.287)" fill="#a7b7fd"/>
        <path id="Path_2075" data-name="Path 2075" d="M3903.474,3652.64l-.6.12c-.2.081-.4.161-.562.241a3.12,3.12,0,0,0-1.565,2.449,3.284,3.284,0,0,0,.12,1.246h0c1.807,5.54,3.693,11.039,5.62,16.5q9.815,28.181,19.831,56.161h0c.161.281.161.4.481.562l.361.12.361-.04.321-.16a.726.726,0,0,0,.2-.281c.16-.321.08-.4.08-.723l-.08-.281c-6.3-22.36-12.6-44.76-19.189-67.04-.642-2.248-1.324-4.456-2.047-6.7h0c-.08-.2-.16-.4-.241-.562a3.226,3.226,0,0,0-1.847-1.485l-.6-.12h-.642" transform="translate(-3647.913 -3458.135)" fill="#11284f"/>
        <path id="Path_2076" data-name="Path 2076" d="M3853.548,3636.087l-.6.12a2.488,2.488,0,0,0-.562.281,3.338,3.338,0,0,0-1.565,2.609,3.4,3.4,0,0,0,.12,1.285c1.806,5.861,3.693,11.682,5.62,17.5q9.814,29.927,19.831,59.573h0c.161.281.161.4.481.6l.361.121.361-.041.321-.2a1.4,1.4,0,0,0,.2-.321,1.021,1.021,0,0,0,.081-.763l-.081-.321c-6.3-23.685-12.6-47.45-19.189-71.094q-.962-3.553-2.047-7.1h0l-.241-.6a3.068,3.068,0,0,0-2.449-1.686,3.669,3.669,0,0,1-.642.04" transform="translate(-3612.117 -3446.239)" fill="#11284f"/>
        <path id="Path_2077" data-name="Path 2077" d="M3702.895,3652.64l.6.12c.2.081.4.161.562.241a3.121,3.121,0,0,1,1.565,2.449,3.294,3.294,0,0,1-.12,1.246h0c-1.807,5.54-3.693,11.039-5.62,16.5q-9.816,28.181-19.831,56.161h0c-.16.281-.16.4-.481.562l-.361.12-.361-.04-.321-.16a1.742,1.742,0,0,1-.241-.281c-.16-.321-.08-.4-.08-.723l.08-.281c6.3-22.36,12.605-44.76,19.189-67.04.642-2.248,1.325-4.456,2.047-6.7h0c.08-.2.16-.4.241-.562a3.226,3.226,0,0,1,1.847-1.485l.6-.12h.683" transform="translate(-3488.36 -3458.135)" fill="#11284f"/>
        <path id="Path_2078" data-name="Path 2078" d="M3646.783,3636.185l.6.12a2.468,2.468,0,0,1,.562.281,3.341,3.341,0,0,1,1.565,2.609,3.709,3.709,0,0,1-.12,1.325h0c-1.806,5.9-3.693,11.8-5.62,17.662q-9.815,30.168-19.831,60.055h0c-.16.281-.16.442-.481.6l-.361.12-.361-.04-.321-.2a1.4,1.4,0,0,1-.2-.322,1.017,1.017,0,0,1-.08-.763l.08-.321c6.3-23.886,12.6-47.851,19.188-71.7.642-2.409,1.325-4.777,2.047-7.146h0c.081-.2.161-.442.241-.6a3.069,3.069,0,0,1,2.448-1.686h.643" transform="translate(-3448.146 -3446.337)" fill="#11284f"/>
        <path id="Path_2079" data-name="Path 2079" d="M3768.935,3334.252a73.921,73.921,0,0,1-9.273,28.7c-9.393,17.141-28.7,27.659-50.5,30.027h-.04c-17.3,1.887-36.21-2.409-52.99-11.562,0,0,36.49-24.327,39.5-33.118s12.968-74.186,12.968-74.186a58.1,58.1,0,0,1,12.244-1.445,48.357,48.357,0,0,1,19.59,3.533h0a33.142,33.142,0,0,1,12.806,9.554c.441.522.883,1.084,1.284,1.646a67.276,67.276,0,0,1,14.291,33.881,60.681,60.681,0,0,1,.121,12.967" transform="translate(-3472.548 -3185.711)" fill="#ceeaef"/>
        <path id="Path_2080" data-name="Path 2080" d="M3840.506,3328.733s13.046-2.89,19.87,4.576c6.864,7.427,4.857,12.6,5.339,15.214s5.741,11.843,4.617,16.74-6.784,17.463-12.846,25.13-23.082-18.827-23.082-18.827Z" transform="translate(-3600.36 -3225.515)" fill="#98cbe6"/>
        <path id="Path_2081" data-name="Path 2081" d="M3656.006,3507.41l-41.187,2.689c-13.81,3.573-35.929,5.862-49.457,6.1l28.341,7.387,19.189,6.7s37.374-8.671,37.9-9.274,5.219-13.609,5.219-13.609" transform="translate(-3407.47 -3354.012)" fill="#484d67"/>
        <path id="Path_2082" data-name="Path 2082" d="M3597.929,3642.089s-6.865,3.091-6.623,3.211c.241.161-3.533.8-7.788-5.138Z" transform="translate(-3420.487 -3449.189)" fill="#332b7a"/>
        <path id="Path_2083" data-name="Path 2083" d="M3529.058,3633.489c-.2-6.142-.321-18.265.161-22.882.642-5.941.642-35.969-7.186-43.355l10.6,1.124v-25.089l-3.412-2.168-10.2-2.649a20.59,20.59,0,0,0-17.662,25.29c5.7,23.6,14.492,58.73,17.3,69.77l10.4-.04Z" transform="translate(-3361.17 -3376.28)" fill="#ffcebd"/>
        <path id="Path_2084" data-name="Path 2084" d="M3540.376,3870.036s2.007,15.5,1.124,16.3h-24.608c-.642,0,.6-1.767,6.021-3.131s9.514-1.445,8.872-4.737-1.967-8.831-1.967-8.831Z" transform="translate(-3372.609 -3613.709)" fill="#4f4640"/>
        <path id="Path_2085" data-name="Path 2085" d="M3577.46,3616.787v7.065l-10.6-1.124s-5.661-3.734-2.689-6.143c1.565-1.284,7.788-.682,13.287.2" transform="translate(-3405.999 -3431.756)" fill="#f8c1ae"/>
        <path id="Path_2086" data-name="Path 2086" d="M3642.5,3538.791c-6.022.762-20.353,1.485-34,2.007-7.667.321-15.134.562-20.835.763-6.182.2-10.277.321-10.277.321a10.79,10.79,0,0,0-1.2-4.175c-1.365-3.011-3.412-6.3-3.211-8.149.281-2.81,1.806-9.6-4.335-14.011-6.142-4.456-4.175-7.587-4.175-7.587h54.073c3.091,0,13.89.4,14.813-2.489s-3.653-7.467-3.653-7.467l15.978-2.088s9.474-.321,16.057,10.759a35.207,35.207,0,0,1,1.967,3.894c6.262,14.612-8.109,26.615-21.2,28.22" transform="translate(-3406.609 -3345.771)" fill="#484d67"/>
        <path id="Path_2087" data-name="Path 2087" d="M3684.01,3534.073c.2.4,6.7,13.728-50.982,11.321-20.875-.883-31.914,1.766-37.494,5.5a28.436,28.436,0,0,1-.281,5.981c-.2,1.846,1.846,5.138,3.211,8.149a9.955,9.955,0,0,1,1.2,4.175s4.095-.12,10.277-.321c5.7-.2,13.167-.442,20.835-.763,13.649-.562,27.98-1.245,34-2.007,13.087-1.646,27.458-13.609,21.2-28.181a28.831,28.831,0,0,0-1.967-3.854Z" transform="translate(-3428.891 -3373.128)" fill="#353a55"/>
        <path id="Path_2088" data-name="Path 2088" d="M3714.553,3274.957s3.693,4.175-1.164,9.434-5.259,9.312-3.011,11.361c2.248,2.087-.04,3.573,0,5.419.04,1.887-.682,5.219,7.788,4.938s17.623-27.137,17.623-27.137Z" transform="translate(-3510.497 -3187.354)" fill="#241542"/>
        <path id="Path_2089" data-name="Path 2089" d="M3666.549,3166.522s-8.149-4.175-8.149-12.565,10.719-14.372,19.43-7.1,19.148,1.124,29.706,13.81c10.558,12.725,9.394,27.016,4.737,31.352-4.657,4.3-45.724-25.491-45.724-25.491" transform="translate(-3474.174 -3093.171)" fill="#241542"/>
        <path id="Path_2090" data-name="Path 2090" d="M3746.519,3283.249s1.284-1.646,10.156,2.65,11.843,6.343,14.211,9.353,9.6,29.827,9.675,32.438c0,0-2.609,2.85-8.35,1-1.806,5.74-2.489,9.875-2.087,12.4.361,2.128,2.167,5.018,5.459,8.711l-44.841-.642s7.226-6.664,6.142-16.138c-.962-8.229-2.128-11.4-3.533-12.284s-5.018-3.211-5.941-6.182c-.962-3.051.6-17.824,1.445-20.393s8.029-9.113,8.029-9.113Z" transform="translate(-3523.434 -3193.077)" fill="#8dc63f"/>
        <path id="Path_2091" data-name="Path 2091" d="M3785.11,3400.89l-.321-.642s-8.711,3.412-12.966-17.5c0,0-1.445,11.8-2.288,15.738s-8.27,4.015-11.6,6.664c-1.967,1.566-7.467,3.693-12.284,5.741a22.12,22.12,0,0,1-5.7,9.875l44.841.642c-3.292-3.653-5.139-6.543-5.459-8.711-.4-2.569.281-6.7,2.087-12.4A12.338,12.338,0,0,0,3785.11,3400.89Z" transform="translate(-3532.64 -3264.633)" fill="#79b51c"/>
        <path id="Path_2092" data-name="Path 2092" d="M3685.386,3199.118a35.53,35.53,0,0,0,0,20.794c3.492,11.16,13.246.4,20.714,9.032l9.916-6.182s-6.142-7.266-7.1-9.113c-.924-1.846.883-4.3-1.566-7.627s-5.18.04-8.029-.682c-2.85-.763-5.018-4.9-5.018-4.9s-7.788-1.646-8.911-1.325" transform="translate(-3492.409 -3132.952)" fill="#ffcebd"/>
        <path id="Path_2093" data-name="Path 2093" d="M3734.806,3248.577a2.818,2.818,0,0,0,.2.522c.923,1.846,7.1,9.112,7.1,9.112l-2.77,1.727c-2.931.081-5.981.241-8.229.522-1.445.16-3.051.361-4.616.522a23.469,23.469,0,0,0-6.262-.12c4.215-1.246,6.784-8.711,11.52-9.835A3.952,3.952,0,0,0,3734.806,3248.577Z" transform="translate(-3518.505 -3168.441)" fill="#f8c1ae"/>
        <path id="Path_2094" data-name="Path 2094" d="M3700.369,3529.723h-20.553l.081-3.453h20.553a1.7,1.7,0,0,1,1.686,1.686v.04a1.748,1.748,0,0,1-1.766,1.727" transform="translate(-3489.528 -3367.534)" fill="#827e7e"/>
        <path id="Path_2095" data-name="Path 2095" d="M3434.6,3400.757H3486.5a2.352,2.352,0,0,1,2.088,1.324l18.506,37.7h-53.351Z" transform="translate(-3313.719 -3277.547)" fill="#827e7e"/>
        <path id="Path_2096" data-name="Path 2096" d="M3428.726,3400.615a.8.8,0,0,0-.2.04.516.516,0,0,0-.241.763l17.864,36.491a3.131,3.131,0,0,0,2.851,1.727h51.345l-19.03-39.02Z" transform="translate(-3309.131 -3277.446)" fill="#ccc2c2"/>
        <path id="Path_2097" data-name="Path 2097" d="M3734.886,3440.106a71.931,71.931,0,0,1-14.452-1.766s.16,10.718-.6,10.357c-1.124-.562-40.906-5.378-40.184-4.014a11.676,11.676,0,0,1-3.693.962c-1.646.039-6.343,1.084-2.77,4.135,0,0-6.263,4.7-6.945,5.018s-1.686,2.208,1.445,2.128c3.091-.08,3.292-.643,4.015-.4.763.241,3.773.361,5.218-.642s4.335-.683,6.022-1.445c0,0,30.107,5.9,38.9,7.065a11.509,11.509,0,0,0,12.926-9.8,48.035,48.035,0,0,0,.121-11.6" transform="translate(-3479.284 -3304.492)" fill="#ffcebd"/>
        <path id="Path_2098" data-name="Path 2098" d="M3776.93,3283.145s2.128,1.687-1.927,5.378c-4.055,3.653-5.18,7.467-6.463,7.226-1.324-.279-5.821-7.185-5.9-7.225-.12-.04,9.394-5.821,9.394-5.821s.962-1.565,4.9.441" transform="translate(-3548.907 -3192.492)" fill="#fff"/>
        <path id="Path_2099" data-name="Path 2099" d="M3750.365,3296.656s-1.686,3.653-1.325,5.459,3.773-3.211,3.773-3.211a7.531,7.531,0,0,0-2.449-2.248" transform="translate(-3539.122 -3202.911)" fill="#fff"/>
        <path id="Path_2100" data-name="Path 2100" d="M3729.674,3547.83s-2.168,6.864-16.981,7.748-22.842,4.576-28.341,9.514-10.919,7.186-16.82,7.788c-5.861.6-10.959,3.091-11.4,5.821,0,0,21.718,4.9,39.5,5.139s20.634-6.222,25.411-7.266c4.817-1.043,17.3-15.777,8.631-28.743" transform="translate(-3472.548 -3382.991)" fill="#98cbe6"/>
        <g id="Group_697" data-name="Group 697" transform="translate(0 0)">
          <path id="Path_2101" data-name="Path 2101" d="M3059.826,2970.123a4.665,4.665,0,0,0-4.663-4.663H3012.2a4.665,4.665,0,0,0-4.663,4.663v14.685a4.665,4.665,0,0,0,4.663,4.663h42.964a4.664,4.664,0,0,0,4.663-4.663Z" transform="translate(-3007.536 -2965.46)" fill="#b6d4ff"/>
          <circle id="Ellipse_70" data-name="Ellipse 70" cx="2.937" cy="2.937" r="2.937" transform="translate(4.33 6.994)" fill="#abc9ed"/>
          <path id="Path_2102" data-name="Path 2102" d="M3026.168,2998.39a1.09,1.09,0,0,1-.181-.605,1.079,1.079,0,0,1,1.06-1.09,1.112,1.112,0,0,1,1.12,1.09,1.193,1.193,0,0,1-.182.605,2.79,2.79,0,0,1,1.454,1.09,2.926,2.926,0,0,1-4.784,0A3.3,3.3,0,0,1,3026.168,2998.39Z" transform="translate(-3019.809 -2987.854)" fill="#fff"/>
          <path id="Path_2103" data-name="Path 2103" d="M3087.229,2981.1a3.864,3.864,0,0,0-3.852-3.876h-26.366a3.909,3.909,0,0,0-3.906,3.876v5.661h30.248a3.883,3.883,0,0,0,3.875-3.876Z" transform="translate(-3040.208 -2973.896)" fill="#fff"/>
          <path id="Path_2104" data-name="Path 2104" d="M3065.45,3024.9a2.223,2.223,0,0,0-2.21-2.21h-38.3a2.223,2.223,0,0,0-2.21,2.21h0a2.223,2.223,0,0,0,2.21,2.21h38.3a2.243,2.243,0,0,0,2.21-2.21Z" transform="translate(-3018.428 -3006.492)" fill="#fff"/>
          <circle id="Ellipse_71" data-name="Ellipse 71" cx="0.394" cy="0.394" r="0.394" transform="translate(6.389 18.015)" fill="#d9daec"/>
          <circle id="Ellipse_72" data-name="Ellipse 72" cx="0.394" cy="0.394" r="0.394" transform="translate(7.691 18.015)" fill="#d9daec"/>
          <circle id="Ellipse_73" data-name="Ellipse 73" cx="0.394" cy="0.394" r="0.394" transform="translate(9.023 18.015)" fill="#d9daec"/>
        </g>
        <g id="Group_698" data-name="Group 698" transform="translate(91.873 34.223)">
          <path id="Path_2105" data-name="Path 2105" d="M3380.974,3163a5.56,5.56,0,0,0-5.539-5.58H3337.7a5.594,5.594,0,0,0-5.58,5.58v8.149h43.355a5.56,5.56,0,0,0,5.54-5.579h0V3163Z" transform="translate(-3332.119 -3137.31)" fill="#b6d4ff"/>
          <circle id="Ellipse_74" data-name="Ellipse 74" cx="4.215" cy="4.215" r="4.215" transform="translate(4.656 22.641)" fill="#fff"/>
          <path id="Path_2106" data-name="Path 2106" d="M3353.571,3178.168a1.34,1.34,0,0,1-.241-.883,1.534,1.534,0,0,1,1.5-1.565h.024a1.629,1.629,0,0,1,1.605,1.565,2.058,2.058,0,0,1-.241.883,2,2,0,1,1-1.365,3.332,4.275,4.275,0,0,1-3.453-1.766A4.859,4.859,0,0,1,3353.571,3178.168Z" transform="translate(-3345.944 -3150.429)" fill="#abc9ed"/>
          <path id="Path_2107" data-name="Path 2107" d="M3332.4,3091.948a5.559,5.559,0,0,1,5.539-5.579h37.735a5.594,5.594,0,0,1,5.58,5.579v8.15h-43.315a5.559,5.559,0,0,1-5.539-5.579h0Z" transform="translate(-3332.323 -3086.369)" fill="#b6d4ff"/>
        </g>
        <circle id="Ellipse_75" data-name="Ellipse 75" cx="4.215" cy="4.215" r="4.215" transform="translate(86.396 24.015)" fill="#fff"/>
        <path id="Path_2108" data-name="Path 2108" d="M3320.06,3062.114a1.339,1.339,0,0,0,.241-.883,1.534,1.534,0,0,0-1.5-1.565h-.023a1.63,1.63,0,0,0-1.606,1.565,2.054,2.054,0,0,0,.241.883,2,2,0,1,0,1.366,3.332,4.275,4.275,0,0,0,3.453-1.766A4.875,4.875,0,0,0,3320.06,3062.114Z" transform="translate(-3228.205 -3033)" fill="#abc9ed"/>
      </g>
    </g>
    <g id="Group_13841" data-name="Group 13841" transform="translate(848.965 1438.566)">
      <ellipse id="Ellipse_1426" data-name="Ellipse 1426" cx="34.5" cy="34" rx="34.5" ry="34" transform="translate(0.035 0.434)" fill="#1e91cc"/>
      <g id="Group_13012" data-name="Group 13012" transform="translate(16.818 14.627)">
        <path id="Path_44712" data-name="Path 44712" d="M65.469,46.465v14.2H57.237V47.417c0-3.326-1.189-5.6-4.169-5.6a4.5,4.5,0,0,0-4.223,3.01,5.635,5.635,0,0,0-.273,2.006V60.664H40.339s.111-22.437,0-24.76h8.234v3.509c-.017.028-.04.055-.055.081h.055v-.081a8.174,8.174,0,0,1,7.42-4.09c5.416,0,9.477,3.539,9.477,11.142Zm-33.742-22.5c-2.816,0-4.659,1.849-4.659,4.277a4.264,4.264,0,0,0,4.551,4.279h.053c2.871,0,4.657-1.9,4.657-4.279a4.277,4.277,0,0,0-4.6-4.277Zm-4.169,36.7h8.23V35.9h-8.23Z" transform="translate(-27.068 -23.969)" fill="#f1f2f2"/>
      </g>
    </g>
  </g>
</svg>
