<svg id="circle-70" xmlns="http://www.w3.org/2000/svg" width="256" height="233" viewBox="0 0 256 233">
  <ellipse id="Ellipse_578" data-name="Ellipse 578" cx="116.5" cy="128" rx="116.5" ry="128" transform="translate(256 0) rotate(90)" fill="#fff" opacity="0.211"/>
  <circle id="Ellipse_577" data-name="Ellipse 577" cx="111.5" cy="111.5" r="111.5" transform="translate(20.5 8.5)" fill="#bad531"/>
  <path id="Path_45396" data-name="Path 45396" d="M-59.292,0h6.885c.891-20.169,3.4-31.914,15.633-47.547v-4.131H-70.065v5.751h25.758C-54.513-31.752-58.4-19.44-59.292,0ZM-13.2.972C-2.916.972,3.321-8.667,3.321-26S-2.916-52.65-13.2-52.65c-10.368,0-16.6,9.315-16.6,26.649S-23.571.972-13.2.972Zm0-5.346c-6.075,0-10.125-6.48-10.125-21.627s4.05-21.3,10.125-21.3c5.994,0,10.044,6.156,10.044,21.3S-7.209-4.374-13.2-4.374Zm34.992-16.2c7.209,0,12.069-6.075,12.069-16.848,0-10.611-4.86-16.686-12.069-16.686-7.29,0-12.069,6.075-12.069,16.686C9.72-26.649,14.5-20.574,21.789-20.574Zm0-4.131c-4.212,0-7.047-4.293-7.047-12.717s2.835-12.555,7.047-12.555c4.131,0,6.966,4.131,6.966,12.555S25.92-24.7,21.789-24.7ZM23.328.972h4.536l29.322-55.08H52.65Zm35.478,0c7.209,0,12.069-6.075,12.069-16.848,0-10.611-4.86-16.686-12.069-16.686-7.29,0-12.069,6.075-12.069,16.686C46.737-5.1,51.516.972,58.806.972Zm0-4.131c-4.212,0-7.047-4.293-7.047-12.717s2.835-12.555,7.047-12.555c4.131,0,6.966,4.131,6.966,12.555S62.937-3.159,58.806-3.159Z" transform="translate(132.5 112.5)" fill="#fff"/>
  <path id="Path_45395" data-name="Path 45395" d="M10.36,20H12V12.96a3.647,3.647,0,0,1,2.44-1.5c1.24,0,1.82.78,1.82,2.6V20H17.9V12.96a3.567,3.567,0,0,1,2.44-1.5c1.22,0,1.8.78,1.8,2.6V20h1.64V13.84c0-2.48-.96-3.8-2.96-3.8a4.592,4.592,0,0,0-3.2,1.86,2.551,2.551,0,0,0-2.68-1.86,4.271,4.271,0,0,0-3.02,1.64h-.06l-.14-1.4H10.36Zm20.36.24c2.38,0,4.5-1.86,4.5-5.08,0-3.26-2.12-5.12-4.5-5.12s-4.5,1.86-4.5,5.12C26.22,18.38,28.34,20.24,30.72,20.24Zm0-1.36c-1.66,0-2.8-1.5-2.8-3.72,0-2.24,1.14-3.76,2.8-3.76,1.68,0,2.8,1.52,2.8,3.76C33.52,17.38,32.4,18.88,30.72,18.88Zm11.36,1.36c2.22,0,4.2-1.94,4.2-5.26,0-3-1.34-4.94-3.86-4.94a4.8,4.8,0,0,0-3.04,1.36l.04-1.76V5.76H37.78V20H39.1l.14-1h.06A4.356,4.356,0,0,0,42.08,20.24Zm-.28-1.38a3.8,3.8,0,0,1-2.38-1.02v-5.1a4.008,4.008,0,0,1,2.6-1.32c1.84,0,2.56,1.44,2.56,3.58C44.58,17.4,43.4,18.86,41.8,18.86ZM48.84,20h1.64V10.28H48.84Zm.84-11.72a1.034,1.034,0,0,0,1.1-1.08,1.1,1.1,0,0,0-2.2,0A1.034,1.034,0,0,0,49.68,8.28ZM55.5,20.24a2.208,2.208,0,0,0,.94-.16l-.22-1.24a1.378,1.378,0,0,1-.36.04c-.24,0-.46-.2-.46-.72V5.76H53.76V18.04C53.76,19.46,54.26,20.24,55.5,20.24Zm7.3,0a5.788,5.788,0,0,0,3.2-1l-.58-1.08a4.392,4.392,0,0,1-2.42.76c-1.86,0-3.12-1.32-3.24-3.38h6.56a6.359,6.359,0,0,0,.06-.94c0-2.78-1.4-4.56-3.88-4.56-2.22,0-4.36,1.94-4.36,5.12S60.2,20.24,62.8,20.24Zm-3.06-5.88c.2-1.92,1.44-3.02,2.8-3.02,1.52,0,2.4,1.06,2.4,3.02Zm15.58,5.88c2.3,0,3.56-1.32,3.56-2.9,0-1.84-1.56-2.42-2.96-2.94-1.1-.42-2.1-.76-2.1-1.68,0-.74.56-1.4,1.78-1.4a3.61,3.61,0,0,1,2.22.86l.8-1.04a4.944,4.944,0,0,0-3.02-1.1c-2.12,0-3.36,1.2-3.36,2.76,0,1.64,1.46,2.3,2.84,2.8,1.06.4,2.22.84,2.22,1.84,0,.84-.64,1.52-1.92,1.52a4.371,4.371,0,0,1-2.86-1.16l-.82,1.1A5.851,5.851,0,0,0,75.32,20.24Zm9.78,0a5.788,5.788,0,0,0,3.2-1l-.58-1.08a4.392,4.392,0,0,1-2.42.76c-1.86,0-3.12-1.32-3.24-3.38h6.56a6.359,6.359,0,0,0,.06-.94c0-2.78-1.4-4.56-3.88-4.56-2.22,0-4.36,1.94-4.36,5.12S82.5,20.24,85.1,20.24Zm-3.06-5.88c.2-1.92,1.44-3.02,2.8-3.02,1.52,0,2.4,1.06,2.4,3.02Zm11,5.88a5.185,5.185,0,0,0,3.22-1.4h.06L96.46,20h1.36V14.04c0-2.42-1-4-3.38-4a7.214,7.214,0,0,0-3.82,1.26l.64,1.14a5.285,5.285,0,0,1,2.9-1.04c1.6,0,2,1.2,2,2.44-4.14.46-5.96,1.52-5.96,3.64A2.645,2.645,0,0,0,93.04,20.24Zm.48-1.32c-.96,0-1.72-.46-1.72-1.56,0-1.24,1.12-2.04,4.36-2.44v2.7A3.94,3.94,0,0,1,93.52,18.92ZM100.88,20h1.64V13.76c.66-1.64,1.64-2.24,2.46-2.24a2.72,2.72,0,0,1,.94.16l.32-1.44a2.414,2.414,0,0,0-1.04-.2,3.325,3.325,0,0,0-2.76,2h-.06l-.14-1.76h-1.36Zm10.58.24A4.742,4.742,0,0,0,114.6,19l-.72-1.1a3.455,3.455,0,0,1-2.28.98c-1.78,0-3-1.5-3-3.72,0-2.24,1.28-3.76,3.04-3.76a2.85,2.85,0,0,1,1.94.86l.84-1.08a4.034,4.034,0,0,0-2.84-1.14c-2.5,0-4.68,1.86-4.68,5.12C106.9,18.38,108.88,20.24,111.46,20.24Zm5.28-.24h1.64V12.96c.98-.98,1.66-1.5,2.66-1.5,1.28,0,1.84.78,1.84,2.6V20h1.64V13.84c0-2.48-.92-3.8-2.96-3.8a4.647,4.647,0,0,0-3.24,1.6l.06-2V5.76h-1.64Zm14.82.24a5.788,5.788,0,0,0,3.2-1l-.58-1.08a4.392,4.392,0,0,1-2.42.76c-1.86,0-3.12-1.32-3.24-3.38h6.56a6.36,6.36,0,0,0,.06-.94c0-2.78-1.4-4.56-3.88-4.56-2.22,0-4.36,1.94-4.36,5.12S128.96,20.24,131.56,20.24Zm-3.06-5.88c.2-1.92,1.44-3.02,2.8-3.02,1.52,0,2.4,1.06,2.4,3.02Zm11.58,5.88c2.3,0,3.56-1.32,3.56-2.9,0-1.84-1.56-2.42-2.96-2.94-1.1-.42-2.1-.76-2.1-1.68,0-.74.56-1.4,1.78-1.4a3.61,3.61,0,0,1,2.22.86l.8-1.04a4.944,4.944,0,0,0-3.02-1.1c-2.12,0-3.36,1.2-3.36,2.76,0,1.64,1.46,2.3,2.84,2.8,1.06.4,2.22.84,2.22,1.84,0,.84-.64,1.52-1.92,1.52a4.371,4.371,0,0,1-2.86-1.16l-.82,1.1A5.851,5.851,0,0,0,140.08,20.24ZM16.09,42.23h1.64V35.99c.66-1.64,1.64-2.24,2.46-2.24a2.72,2.72,0,0,1,.94.16l.32-1.44a2.414,2.414,0,0,0-1.04-.2,3.325,3.325,0,0,0-2.76,2h-.06l-.14-1.76H16.09Zm10.68.24a5.788,5.788,0,0,0,3.2-1l-.58-1.08a4.392,4.392,0,0,1-2.42.76c-1.86,0-3.12-1.32-3.24-3.38h6.56a6.359,6.359,0,0,0,.06-.94c0-2.78-1.4-4.56-3.88-4.56-2.22,0-4.36,1.94-4.36,5.12S24.17,42.47,26.77,42.47Zm-3.06-5.88c.2-1.92,1.44-3.02,2.8-3.02,1.52,0,2.4,1.06,2.4,3.02Zm11.58,5.88c2.3,0,3.56-1.32,3.56-2.9,0-1.84-1.56-2.42-2.96-2.94-1.1-.42-2.1-.76-2.1-1.68,0-.74.56-1.4,1.78-1.4a3.61,3.61,0,0,1,2.22.86l.8-1.04a4.944,4.944,0,0,0-3.02-1.1c-2.12,0-3.36,1.2-3.36,2.76,0,1.64,1.46,2.3,2.84,2.8,1.06.4,2.22.84,2.22,1.84,0,.84-.64,1.52-1.92,1.52a4.371,4.371,0,0,1-2.86-1.16l-.82,1.1A5.851,5.851,0,0,0,35.29,42.47Zm8.68,0a4.109,4.109,0,0,0,3.2-1.76h.06l.14,1.52h1.36V32.51H47.09v6.9c-.92,1.14-1.62,1.64-2.62,1.64-1.28,0-1.82-.78-1.82-2.6V32.51H40.99v6.16C40.99,41.15,41.91,42.47,43.97,42.47Zm9.78,0a2.208,2.208,0,0,0,.94-.16l-.22-1.24a1.378,1.378,0,0,1-.36.04c-.24,0-.46-.2-.46-.72V27.99H52.01V40.27C52.01,41.69,52.51,42.47,53.75,42.47Zm6.42,0a6,6,0,0,0,1.8-.36l-.32-1.24a3.531,3.531,0,0,1-1.1.26c-1.12,0-1.5-.68-1.5-1.88v-5.4h2.62V32.51H59.05V29.79H57.67l-.2,2.72-1.52.1v1.24h1.44v5.38C57.39,41.15,58.09,42.47,60.17,42.47Zm7.7-.24h1.64V32.51H67.87Zm.84-11.72a1.034,1.034,0,0,0,1.1-1.08,1.1,1.1,0,0,0-2.2,0A1.034,1.034,0,0,0,68.71,30.51Zm4.08,11.72h1.64V35.19c.98-.98,1.66-1.5,2.66-1.5,1.28,0,1.84.78,1.84,2.6v5.94h1.64V36.07c0-2.48-.92-3.8-2.96-3.8a4.582,4.582,0,0,0-3.26,1.64h-.06l-.14-1.4H72.79Zm17.18.24a5.185,5.185,0,0,0,3.22-1.4h.06l.14,1.16h1.36V36.27c0-2.42-1-4-3.38-4a7.214,7.214,0,0,0-3.82,1.26l.64,1.14a5.285,5.285,0,0,1,2.9-1.04c1.6,0,2,1.2,2,2.44-4.14.46-5.96,1.52-5.96,3.64A2.645,2.645,0,0,0,89.97,42.47Zm.48-1.32c-.96,0-1.72-.46-1.72-1.56,0-1.24,1.12-2.04,4.36-2.44v2.7A3.94,3.94,0,0,1,90.45,41.15Zm11.2,1.32a4.742,4.742,0,0,0,3.14-1.24l-.72-1.1a3.455,3.455,0,0,1-2.28.98c-1.78,0-3-1.5-3-3.72,0-2.24,1.28-3.76,3.04-3.76a2.85,2.85,0,0,1,1.94.86l.84-1.08a4.034,4.034,0,0,0-2.84-1.14c-2.5,0-4.68,1.86-4.68,5.12C97.09,40.61,99.07,42.47,101.65,42.47Zm8.14,0a6,6,0,0,0,1.8-.36l-.32-1.24a3.531,3.531,0,0,1-1.1.26c-1.12,0-1.5-.68-1.5-1.88v-5.4h2.62V32.51h-2.62V29.79h-1.38l-.2,2.72-1.52.1v1.24h1.44v5.38C107.01,41.15,107.71,42.47,109.79,42.47Zm3.7-.24h1.64V32.51h-1.64Zm.84-11.72a1.034,1.034,0,0,0,1.1-1.08,1.1,1.1,0,0,0-2.2,0A1.034,1.034,0,0,0,114.33,30.51Zm7.86,11.96c2.38,0,4.5-1.86,4.5-5.08,0-3.26-2.12-5.12-4.5-5.12s-4.5,1.86-4.5,5.12C117.69,40.61,119.81,42.47,122.19,42.47Zm0-1.36c-1.66,0-2.8-1.5-2.8-3.72,0-2.24,1.14-3.76,2.8-3.76,1.68,0,2.8,1.52,2.8,3.76C124.99,39.61,123.87,41.11,122.19,41.11Zm7.06,1.12h1.64V35.19c.98-.98,1.66-1.5,2.66-1.5,1.28,0,1.84.78,1.84,2.6v5.94h1.64V36.07c0-2.48-.92-3.8-2.96-3.8a4.582,4.582,0,0,0-3.26,1.64h-.06l-.14-1.4h-1.36ZM24.55,64.46h1.92l1.36-5.2c.26-.92.46-1.84.68-2.82h.08c.24.98.42,1.88.66,2.8l1.4,5.22h2l2.6-9.72H33.69l-1.42,5.62c-.2.92-.38,1.8-.6,2.7h-.08c-.22-.9-.44-1.78-.68-2.7l-1.52-5.62h-1.6l-1.5,5.62c-.24.9-.44,1.8-.66,2.7h-.08c-.18-.9-.36-1.78-.58-2.7l-1.44-5.62H21.85Zm12.82,0h1.64V54.74H37.37Zm.84-11.72a1.034,1.034,0,0,0,1.1-1.08,1.1,1.1,0,0,0-2.2,0A1.034,1.034,0,0,0,38.21,52.74ZM45.35,64.7a6,6,0,0,0,1.8-.36l-.32-1.24a3.531,3.531,0,0,1-1.1.26c-1.12,0-1.5-.68-1.5-1.88v-5.4h2.62V54.74H44.23V52.02H42.85l-.2,2.72-1.52.1v1.24h1.44v5.38C42.57,63.38,43.27,64.7,45.35,64.7Zm3.7-.24h1.64V57.42c.98-.98,1.66-1.5,2.66-1.5,1.28,0,1.84.78,1.84,2.6v5.94h1.64V58.3c0-2.48-.92-3.8-2.96-3.8a4.647,4.647,0,0,0-3.24,1.6l.06-2V50.22H49.05Zm10.88,0h1.64V54.74H59.93Zm.84-11.72a1.034,1.034,0,0,0,1.1-1.08,1.1,1.1,0,0,0-2.2,0A1.034,1.034,0,0,0,60.77,52.74Zm4.08,11.72h1.64V57.42c.98-.98,1.66-1.5,2.66-1.5,1.28,0,1.84.78,1.84,2.6v5.94h1.64V58.3c0-2.48-.92-3.8-2.96-3.8a4.582,4.582,0,0,0-3.26,1.64h-.06l-.14-1.4H64.85Zm14.88,0h7.2V63.1H84.29V51.7H83.03a7.589,7.589,0,0,1-2.7.94V53.7h2.32v9.4H79.73Zm14,0h1.64V57.42c.98-.98,1.66-1.5,2.66-1.5,1.28,0,1.84.78,1.84,2.6v5.94h1.64V58.3c0-2.48-.92-3.8-2.96-3.8a4.647,4.647,0,0,0-3.24,1.6l.06-2V50.22H93.73Zm14.66.24c2.38,0,4.5-1.86,4.5-5.08,0-3.26-2.12-5.12-4.5-5.12s-4.5,1.86-4.5,5.12C103.89,62.84,106.01,64.7,108.39,64.7Zm0-1.36c-1.66,0-2.8-1.5-2.8-3.72,0-2.24,1.14-3.76,2.8-3.76,1.68,0,2.8,1.52,2.8,3.76C111.19,61.84,110.07,63.34,108.39,63.34Zm9.9,1.36a4.109,4.109,0,0,0,3.2-1.76h.06l.14,1.52h1.36V54.74h-1.64v6.9c-.92,1.14-1.62,1.64-2.62,1.64-1.28,0-1.82-.78-1.82-2.6V54.74h-1.66V60.9C115.31,63.38,116.23,64.7,118.29,64.7Zm8.04-.24h1.64V58.22c.66-1.64,1.64-2.24,2.46-2.24a2.72,2.72,0,0,1,.94.16l.32-1.44a2.414,2.414,0,0,0-1.04-.2,3.325,3.325,0,0,0-2.76,2h-.06l-.14-1.76h-1.36Z" transform="translate(55.5 120.5)"/>
</svg>
