<svg xmlns="http://www.w3.org/2000/svg" xmlns:xlink="http://www.w3.org/1999/xlink" width="327.952" height="292.956" viewBox="0 0 327.952 292.956">
  <defs>
    <radialGradient id="radial-gradient" cx="0.5" cy="0.5" r="0.5" gradientUnits="objectBoundingBox">
      <stop offset="0.456" stop-color="#b2b8fa"/>
      <stop offset="0.669" stop-color="#d3d6fc"/>
      <stop offset="0.916" stop-color="#fff"/>
    </radialGradient>
    <linearGradient id="linear-gradient" y1="0.5" x2="1" y2="0.5" gradientUnits="objectBoundingBox">
      <stop offset="0" stop-color="#fec55e"/>
      <stop offset="1" stop-color="#ff5722"/>
    </linearGradient>
  </defs>
  <g id="leadgen-linkedin" transform="translate(-278.398 -162.258)">
    <g id="leadgen-linkedin-2" data-name="leadgen-linkedin" transform="translate(-25602 -6236.244)">
      <g id="Group_12491" data-name="Group 12491" transform="translate(25880.398 6398.502)">
        <g id="Group_1301" data-name="Group 1301" transform="translate(63.634 24.45)">
          <path id="Path_4147" data-name="Path 4147" d="M-6235.514,435.6h-114.122a12.632,12.632,0,0,1-12.632-12.632V179.748a12.632,12.632,0,0,1,12.632-12.632h114.122a12.632,12.632,0,0,1,12.632,12.632V422.973A12.632,12.632,0,0,1-6235.514,435.6Z" transform="translate(6362.267 -167.116)" fill="#0c4da4"/>
          <path id="Rectangle_401" data-name="Rectangle 401" d="M27.457,0h81.817A27.457,27.457,0,0,1,136.73,27.457V238.377a27.457,27.457,0,0,1-27.457,27.457H27.456A27.456,27.456,0,0,1,0,238.378V27.457A27.457,27.457,0,0,1,27.457,0Z" transform="translate(1.327 1.328)" fill="#c9dfff"/>
          <path id="Path_4148" data-name="Path 4148" d="M-6081.586,167.116h-11.72a12.642,12.642,0,0,1,12.642,12.642v243.2a12.641,12.641,0,0,1-12.642,12.642h11.72a12.643,12.643,0,0,0,12.643-12.642v-243.2A12.643,12.643,0,0,0-6081.586,167.116Z" transform="translate(6208.33 -167.116)" fill="#b2b8fa" opacity="0.1"/>
          <path id="Path_4149" data-name="Path 4149" d="M-6349.625,167.116h11.72a12.642,12.642,0,0,0-12.642,12.642v243.2A12.642,12.642,0,0,0-6337.9,435.6h-11.72a12.642,12.642,0,0,1-12.643-12.642v-243.2A12.642,12.642,0,0,1-6349.625,167.116Z" transform="translate(6362.267 -167.116)" fill="#fff" opacity="0.1"/>
          <path id="Path_4150" data-name="Path 4150" d="M-6207.28,188.073h-35.88a1.425,1.425,0,0,1-1.425-1.425h0a1.424,1.424,0,0,1,1.425-1.425h35.88a1.425,1.425,0,0,1,1.425,1.425h0A1.425,1.425,0,0,1-6207.28,188.073Z" transform="translate(6294.913 -177.479)" fill="#0c4da4"/>
        </g>
        <g id="Group_1310" data-name="Group 1310" transform="translate(223.048 68.438)">
          <rect id="Rectangle_402" data-name="Rectangle 402" width="104.905" height="61.663" rx="3.463" transform="translate(0 0)" fill="#edf5fc"/>
          <rect id="Rectangle_403" data-name="Rectangle 403" width="38.792" height="3.454" transform="translate(17.323 10.136)" fill="#edf5fc"/>
          <rect id="Rectangle_404" data-name="Rectangle 404" width="19.396" height="3.454" transform="translate(17.323 17.564)" fill="#ff5722"/>
          <path id="Path_4159" data-name="Path 4159" d="M-5885.037,333.138h-88.779l12.506-9.479a1.986,1.986,0,0,0,1.4.578,1.983,1.983,0,0,0,1.586-.8l7.95,4.742a2,2,0,0,0-.03.3,1.993,1.993,0,0,0,1.993,1.993,1.993,1.993,0,0,0,1.993-1.993,1.987,1.987,0,0,0-.174-.809l18.537-18.73a1.978,1.978,0,0,0,1.092.328,1.973,1.973,0,0,0,1-.28l6.814,8.335a1.978,1.978,0,0,0-.38,1.162,1.993,1.993,0,0,0,1.993,1.993,1.993,1.993,0,0,0,1.993-1.993,2.005,2.005,0,0,0-.045-.419l17.632-12.858a1.978,1.978,0,0,0,1.292.486,1.993,1.993,0,0,0,1.993-1.993,1.993,1.993,0,0,0-1.993-1.993,1.993,1.993,0,0,0-1.994,1.993,1.987,1.987,0,0,0,.178.816l-17.483,12.756a1.985,1.985,0,0,0-1.573-.781,1.969,1.969,0,0,0-.961.257l-6.826-8.349a1.982,1.982,0,0,0,.351-1.126,1.994,1.994,0,0,0-1.994-1.993,1.993,1.993,0,0,0-1.993,1.993,1.978,1.978,0,0,0,.3,1.038l-18.464,18.657a1.97,1.97,0,0,0-1.29-.485,1.99,1.99,0,0,0-1.648.872l-7.9-4.712a1.95,1.95,0,0,0,.041-.4,1.993,1.993,0,0,0-1.993-1.993,1.993,1.993,0,0,0-1.993,1.993,1.974,1.974,0,0,0,.126.679l-12.8,9.7V294.042h-.868v39.1h-7.354v.868h7.354v4.557h.868v-4.557h89.54Z" transform="translate(5985.666 -283.75)" fill="#9fc2f1"/>
        </g>
        <path id="Path_4170" data-name="Path 4170" d="M-5930.661,644.082a31.552,31.552,0,0,0-31.552,31.553,31.552,31.552,0,0,0,31.552,31.552,31.552,31.552,0,0,0,31.553-31.552A31.552,31.552,0,0,0-5930.661,644.082Z" transform="translate(6196.933 -415.655)" fill="url(#radial-gradient)" style="mix-blend-mode: multiply;isolation: isolate"/>
        <g id="Group_1322" data-name="Group 1322" transform="translate(233.687 234.225)">
          <path id="Path_4171" data-name="Path 4171" d="M-5907.194,686.355a28.717,28.717,0,0,1-28.717,28.717,28.717,28.717,0,0,1-28.717-28.717,28.717,28.717,0,0,1,28.717-28.717A28.717,28.717,0,0,1-5907.194,686.355Z" transform="translate(5964.628 -657.638)" fill="#f8af2b"/>
          <path id="Path_4172" data-name="Path 4172" d="M-5906.133,690.556a25.579,25.579,0,0,1-25.578,25.579,25.579,25.579,0,0,1-25.579-25.579,25.579,25.579,0,0,1,25.579-25.579A25.578,25.578,0,0,1-5906.133,690.556Z" transform="translate(5960.428 -661.838)" fill="#ffcd39"/>
          <path id="Path_4173" data-name="Path 4173" d="M-5905.117,694.574a22.576,22.576,0,0,1-22.576,22.576,22.576,22.576,0,0,1-22.576-22.576A22.577,22.577,0,0,1-5927.692,672,22.576,22.576,0,0,1-5905.117,694.574Z" transform="translate(5956.41 -665.857)" fill="#fec55e"/>
          <g id="Group_1321" data-name="Group 1321" transform="translate(19.804 14.092)">
            <g id="Group_1319" data-name="Group 1319" transform="translate(0 2.413)">
              <path id="Path_4174" data-name="Path 4174" d="M-5906.464,719.96h-8.364a3.5,3.5,0,0,1-3.49-3.49v-1.787h4.967v.311h6.888a2.4,2.4,0,0,0,2.4-2.4,1.564,1.564,0,0,0-1.562-1.564h-6.165a6.538,6.538,0,0,1-6.529-6.531V703.6a7.377,7.377,0,0,1,7.368-7.37h8.364a3.5,3.5,0,0,1,3.491,3.49v2.03h-4.967V701.2h-6.888a2.4,2.4,0,0,0-2.4,2.4v.895a1.565,1.565,0,0,0,1.562,1.565h6.165a6.537,6.537,0,0,1,6.529,6.531A7.377,7.377,0,0,1-5906.464,719.96Z" transform="translate(5918.319 -696.232)" fill="#ffe69c"/>
            </g>
            <g id="Group_1320" data-name="Group 1320" transform="translate(7.128)">
              <rect id="Rectangle_415" data-name="Rectangle 415" width="4.967" height="29.25" fill="#ffe69c"/>
            </g>
          </g>
        </g>
        <g id="Group_1324" data-name="Group 1324" transform="translate(82.647 60.023)">
          <rect id="Rectangle_416" data-name="Rectangle 416" width="100.324" height="58.971" rx="3.463" fill="#fff"/>
          <path id="Path_4175" data-name="Path 4175" d="M-6262.6,297.516a16.236,16.236,0,0,1-16.236,16.236,16.236,16.236,0,0,1-16.236-16.236,16.236,16.236,0,0,1,16.236-16.236A16.236,16.236,0,0,1-6262.6,297.516Z" transform="translate(6304.798 -268.03)" fill="#c8daf8"/>
          <rect id="Rectangle_417" data-name="Rectangle 417" width="44.509" height="3.963" transform="translate(48.131 16.451)" fill="#9fc2f1"/>
          <rect id="Rectangle_418" data-name="Rectangle 418" width="44.509" height="3.963" transform="translate(48.131 27.504)" fill="#9fc2f1"/>
          <rect id="Rectangle_419" data-name="Rectangle 419" width="22.254" height="3.963" transform="translate(48.131 38.557)" fill="#4085e2"/>
          <g id="Group_1323" data-name="Group 1323" transform="translate(19.052 16.45)">
            <path id="Path_4176" data-name="Path 4176" d="M-6260,324.992a.454.454,0,0,1,.584.642l-6.235,10.451a.356.356,0,0,1-.639.01l-6.722-10.407a.454.454,0,0,1,.575-.656l6.185,2.357Z" transform="translate(6273.16 -309.473)" fill="#1067db"/>
            <path id="Path_4177" data-name="Path 4177" d="M-6273.224,302.256l6.841-13.313a.329.329,0,0,1,.59.009l6.317,13.309a.3.3,0,0,1-.168.41l-6.714,2.438-6.7-2.434A.3.3,0,0,1-6273.224,302.256Z" transform="translate(6273.257 -288.764)" fill="#00a651"/>
            <path id="Path_4178" data-name="Path 4178" d="M-6273.224,302.256l6.841-13.313a.329.329,0,0,1,.59.009l6.317,13.309a.3.3,0,0,1-.168.41l-6.714,2.438-6.7-2.434A.3.3,0,0,1-6273.224,302.256Z" transform="translate(6273.257 -288.764)" fill="#1067db"/>
            <path id="Path_4179" data-name="Path 4179" d="M-6266.06,298.483v-9.707a.322.322,0,0,0-.319.173l-6.84,13.313a.29.29,0,0,0-.012.23Z" transform="translate(6273.252 -288.771)" fill="#70a4e9"/>
            <path id="Path_4180" data-name="Path 4180" d="M-6256.445,288.776l0,9.707,6.595,4.023a.3.3,0,0,0-.007-.239l-6.317-13.309A.322.322,0,0,0-6256.445,288.776Z" transform="translate(6263.635 -288.771)" fill="#4085e2"/>
          </g>
        </g>
        <g id="Group_1326" data-name="Group 1326" transform="translate(82.647 125.572)">
          <rect id="Rectangle_420" data-name="Rectangle 420" width="100.324" height="58.971" rx="3.463" transform="translate(0 0)" fill="#fff"/>
          <rect id="Rectangle_421" data-name="Rectangle 421" width="44.509" height="3.963" transform="translate(48.131 16.451)" fill="#9fc2f1"/>
          <rect id="Rectangle_422" data-name="Rectangle 422" width="44.509" height="3.963" transform="translate(48.131 27.504)" fill="#9fc2f1"/>
          <rect id="Rectangle_423" data-name="Rectangle 423" width="22.254" height="3.963" transform="translate(48.131 38.557)" fill="url(#linear-gradient)"/>
          <g id="Group_1325" data-name="Group 1325" transform="translate(4.995 8.711)">
            <circle id="Ellipse_118" data-name="Ellipse 118" cx="16.064" cy="16.064" r="16.064" transform="translate(0 12.205) rotate(-22.326)" fill="#fff3df"/>
            <path id="Path_4181" data-name="Path 4181" d="M-6258.852,463.45a4.361,4.361,0,0,0-2.273-3.731,4.414,4.414,0,0,0,.639-2.263,4.452,4.452,0,0,0-3.321-4.293v-2.69h-2.83V453h-.933v-2.525h-2.831V453h-1.417v2.831h1.417v9.248h-1.417v2.831h1.417v1.8h2.831v-1.8h.933v1.8h2.83v-1.8A4.744,4.744,0,0,0-6258.852,463.45Zm-6.094-7.621a1.629,1.629,0,0,1,1.628,1.627,1.623,1.623,0,0,1-1.116,1.536h-3.137v-3.163Zm1.108,9.248h-3.733v-3.163h2.625a4.5,4.5,0,0,0,.895-.09h.214c1.168,0,2.154.744,2.154,1.626S-6262.669,465.077-6263.837,465.077Z" transform="translate(6286.491 -439.127)" fill="#ff9800"/>
          </g>
        </g>
        <g id="Group_1328" data-name="Group 1328" transform="translate(82.647 191.122)">
          <rect id="Rectangle_424" data-name="Rectangle 424" width="100.324" height="58.97" rx="3.463" fill="#fff"/>
          <rect id="Rectangle_425" data-name="Rectangle 425" width="44.509" height="3.963" transform="translate(48.131 16.451)" fill="#9fc2f1"/>
          <rect id="Rectangle_426" data-name="Rectangle 426" width="44.509" height="3.963" transform="translate(48.131 27.504)" fill="#9fc2f1"/>
          <rect id="Rectangle_427" data-name="Rectangle 427" width="22.254" height="3.963" transform="translate(48.131 38.557)" fill="#ff5722"/>
          <g id="Group_1327" data-name="Group 1327" transform="translate(3.401 7.117)">
            <circle id="Ellipse_119" data-name="Ellipse 119" cx="16.064" cy="16.064" r="16.064" transform="translate(0 19.853) rotate(-38.164)" fill="#ffddd3"/>
          </g>
        </g>
        <g id="Group_1329" data-name="Group 1329" transform="translate(207.697 22.818)">
          <rect id="Rectangle_428" data-name="Rectangle 428" width="120.255" height="39.211" rx="13.165" transform="translate(0 0)" fill="#d9e6fd"/>
          <path id="Path_4182" data-name="Path 4182" d="M-5910.792,163.3h-108.961a5.647,5.647,0,0,0-5.647,5.647v3.625h120.254v-3.625A5.646,5.646,0,0,0-5910.792,163.3Z" transform="translate(6025.399 -163.301)" fill="#259ada"/>
          <circle id="Ellipse_120" data-name="Ellipse 120" cx="9.186" cy="9.186" r="9.186" transform="translate(8.599 15.538)" fill="#70a4e9"/>
          <rect id="Rectangle_429" data-name="Rectangle 429" width="78.223" height="2.474" transform="translate(31.918 16.294)" fill="#edf5fc"/>
          <rect id="Rectangle_430" data-name="Rectangle 430" width="78.223" height="2.474" transform="translate(31.918 23.498)" fill="#edf5fc"/>
          <rect id="Rectangle_431" data-name="Rectangle 431" width="29.334" height="2.474" transform="translate(31.918 30.702)" fill="#ffddd3"/>
          <path id="Path_4183" data-name="Path 4183" d="M-6002.943,172.569a1.175,1.175,0,0,1-1.174,1.175,1.175,1.175,0,0,1-1.175-1.175,1.175,1.175,0,0,1,1.175-1.174A1.174,1.174,0,0,1-6002.943,172.569Z" transform="translate(6013.892 -167.934)" fill="#fff"/>
          <path id="Path_4184" data-name="Path 4184" d="M-5991.012,172.569a1.174,1.174,0,0,1-1.175,1.175,1.174,1.174,0,0,1-1.174-1.175,1.174,1.174,0,0,1,1.174-1.174A1.174,1.174,0,0,1-5991.012,172.569Z" transform="translate(6007.062 -167.934)" fill="#fff"/>
          <path id="Path_4185" data-name="Path 4185" d="M-5979.079,172.569a1.175,1.175,0,0,1-1.175,1.175,1.174,1.174,0,0,1-1.174-1.175,1.174,1.174,0,0,1,1.174-1.174A1.174,1.174,0,0,1-5979.079,172.569Z" transform="translate(6000.232 -167.934)" fill="#fff"/>
        </g>
        <path id="Path_4186" data-name="Path 4186" d="M-6118.383,229.168h-59.771a1.532,1.532,0,0,0-1.532,1.532v52.327a1.532,1.532,0,0,0,1.532,1.532h59.771Z" transform="translate(6321.402 -178.181)" fill="#1067db" opacity="0.3"/>
        <path id="Path_4187" data-name="Path 4187" d="M-5987.973,269.975a1.532,1.532,0,0,0-1.532,1.532v35.3h20.22a1.532,1.532,0,0,0,1.532-1.532v-35.3Z" transform="translate(6212.553 -201.537)" fill="#1067db" opacity="0.3"/>
        <g id="Group_1331" data-name="Group 1331" transform="translate(146.583 46.12)">
          <g id="Group_1330" data-name="Group 1330" transform="translate(0 0)">
            <rect id="Rectangle_432" data-name="Rectangle 432" width="94.235" height="55.391" rx="3.463" fill="#fff"/>
            <rect id="Rectangle_433" data-name="Rectangle 433" width="37.89" height="3.374" transform="translate(9.227 6.199)" fill="#9fc2f1"/>
            <rect id="Rectangle_434" data-name="Rectangle 434" width="18.945" height="3.374" transform="translate(9.227 13.455)" fill="#1067db"/>
            <path id="Path_4188" data-name="Path 4188" d="M-6156.494,294.836c3.1-4.2,6.431-9.6,9.979-13.425,1.25-1.35,2.666-2.749,4.484-3.024,2.568-.387,4.83,1.568,6.727,3.343,2.267,2.122,4.753,4.268,7.806,4.836,3.76.7,7.482-1.133,10.836-2.971,2.921-1.6,5.892-3.311,7.969-5.916,2-2.508,3.12-5.78,5.7-7.686a3.292,3.292,0,0,1,1.528-.694,3.263,3.263,0,0,1,2.583,1.17c1.787,1.835,2.427,4.458,3.352,6.847s2.484,4.869,4.983,5.433c3.252.734,6.2-2.127,7.852-5.022s2.946-6.289,5.833-7.955a2.964,2.964,0,0,1,2.93-.282c.973.589,1.175,1.888,1.279,3.021q.645,7.047,1.292,14.094c.179,1.951.311,6.63-.82,8.231Z" transform="translate(6161.544 -247.218)" fill="#fec55e"/>
          </g>
        </g>
        <g id="Group_1335" data-name="Group 1335" transform="translate(16.118 165.023)">
          <g id="Group_1332" data-name="Group 1332" transform="translate(2.601 0)" style="mix-blend-mode: multiply;isolation: isolate">
            <path id="Path_4189" data-name="Path 4189" d="M-6368.357,505.534c0-.017,0-.033,0-.051-3.266.09-6.758.156-10.109.166a95.575,95.575,0,0,1-11.624-.555c-10.519-1.5-16.866-6.078-19.823-8.794v-.04c-.157-.144-.346-.306-.483-.438-.179.176-.42.388-.632.584a34.224,34.224,0,0,1-19.381,8.554,139.1,139.1,0,0,1-14.392.517c-8.744,0-18.456-.3-22.491-.442.183,21.423,3.555,39.137,8.375,53.661a126.463,126.463,0,0,0,20.156,38.377,101.156,101.156,0,0,0,21.849,20.859c-.218.281,4.453,3.331,4.69,3.191l.147-.122c.394.225.75.425,1.022.57l.025-.015c.137-.077.378-.227.546-.325V621.2c3.877-2.264,15.52-9.8,27.129-24.787a129.324,129.324,0,0,0,19.918-37.721c4.949-14.563,8.432-32.289,8.626-53.638C-6357.5,505.182-6362.687,505.4-6368.357,505.534Z" transform="translate(6467.292 -495.821)" fill="#fff" opacity="0"/>
            <path id="Path_4190" data-name="Path 4190" d="M-6368.154,506.39a.44.44,0,0,1,0-.051c-3.245.089-6.716.167-10.046.164a91.165,91.165,0,0,1-11.552-.551c-10.452-1.487-16.761-6.041-19.7-8.74v-.04c-.155-.143-.344-.3-.479-.435-.178.175-.418.386-.629.58a34.01,34.01,0,0,1-19.26,8.5,138.254,138.254,0,0,1-14.3.514c-8.69,0-18.341-.3-22.352-.439.183,21.289,3.532,38.893,8.322,53.326a125.7,125.7,0,0,0,20.029,38.138,100.544,100.544,0,0,0,21.714,20.729c-.217.279,4.424,3.31,4.661,3.171l.146-.121c.392.224.746.422,1.017.567l.024-.015c.136-.077.376-.225.544-.322v-.025c3.853-2.25,15.422-9.74,26.959-24.633a128.515,128.515,0,0,0,19.794-37.486c4.919-14.472,8.38-32.088,8.572-53.3C-6357.369,506.039-6362.52,506.255-6368.154,506.39Z" transform="translate(6466.824 -496.345)" fill="#fdfdff" opacity="0.024"/>
            <path id="Path_4191" data-name="Path 4191" d="M-6367.951,507.245c0-.017,0-.033,0-.05-3.225.089-6.675.166-9.983.163a90.7,90.7,0,0,1-11.48-.548c-10.386-1.478-16.655-6-19.576-8.685v-.04c-.154-.142-.342-.3-.477-.433-.177.174-.416.383-.625.577a33.8,33.8,0,0,1-19.14,8.447,137.2,137.2,0,0,1-14.212.511c-8.635,0-18.226-.3-22.21-.437.181,21.155,3.51,38.649,8.27,52.992a124.889,124.889,0,0,0,19.9,37.9,99.926,99.926,0,0,0,21.577,20.6c-.216.277,4.4,3.289,4.632,3.151l.145-.12c.389.222.741.419,1.01.563l.024-.015c.135-.076.374-.224.539-.32v-.025c3.828-2.235,15.325-9.679,26.791-24.478a127.746,127.746,0,0,0,19.669-37.251c4.887-14.382,8.327-31.887,8.519-52.969C-6357.233,506.9-6362.352,507.112-6367.951,507.245Z" transform="translate(6466.354 -496.87)" fill="#fbfcff" opacity="0.049"/>
            <path id="Path_4192" data-name="Path 4192" d="M-6367.749,508.1c0-.017,0-.033,0-.05-3.2.088-6.632.165-9.92.162a90.116,90.116,0,0,1-11.407-.544c-10.321-1.469-16.551-5.965-19.452-8.63V499c-.152-.142-.339-.3-.473-.43-.176.173-.413.381-.622.573a33.582,33.582,0,0,1-19.019,8.393,136.359,136.359,0,0,1-14.123.508c-8.581,0-18.11-.3-22.07-.434.18,21.022,3.488,38.406,8.218,52.657a124.094,124.094,0,0,0,19.779,37.659A99.261,99.261,0,0,0-6415.4,618.4c-.213.276,4.369,3.269,4.6,3.131l.145-.12c.386.221.736.417,1,.56l.024-.015c.135-.076.372-.222.537-.319v-.024c3.8-2.221,15.229-9.618,26.622-24.324a126.914,126.914,0,0,0,19.546-37.016c4.856-14.291,8.275-31.686,8.464-52.635C-6357.1,507.755-6362.184,507.968-6367.749,508.1Z" transform="translate(6465.885 -497.394)" fill="#f9faff" opacity="0.073"/>
            <path id="Path_4193" data-name="Path 4193" d="M-6367.545,508.956c0-.017,0-.033,0-.05-3.185.088-6.59.164-9.856.161a89.538,89.538,0,0,1-11.335-.541c-10.256-1.46-16.446-5.927-19.329-8.575v-.039c-.152-.14-.338-.3-.471-.427-.174.172-.41.378-.617.57a33.37,33.37,0,0,1-18.9,8.34,135.614,135.614,0,0,1-14.033.5c-8.526,0-18-.294-21.931-.431.179,20.888,3.467,38.162,8.166,52.323a123.3,123.3,0,0,0,19.654,37.42,98.627,98.627,0,0,0,21.3,20.339c-.213.274,4.341,3.248,4.573,3.111l.143-.119c.384.219.732.414,1,.556l.024-.015c.133-.075.369-.221.533-.316v-.024c3.781-2.207,15.132-9.557,26.453-24.169a126.1,126.1,0,0,0,19.422-36.781c4.825-14.2,8.222-31.484,8.411-52.3C-6356.962,508.612-6362.017,508.825-6367.545,508.956Z" transform="translate(6465.417 -497.918)" fill="#f7f8ff" opacity="0.098"/>
            <path id="Path_4194" data-name="Path 4194" d="M-6367.343,509.812c0-.017,0-.033,0-.049-3.164.086-6.547.163-9.794.16a88.957,88.957,0,0,1-11.262-.538c-10.19-1.45-16.34-5.889-19.206-8.521v-.039c-.151-.139-.335-.3-.467-.425-.173.171-.407.376-.613.566a33.154,33.154,0,0,1-18.777,8.287,134.745,134.745,0,0,1-13.943.5c-8.472,0-17.88-.292-21.79-.429.177,20.755,3.443,37.918,8.114,51.989a122.52,122.52,0,0,0,19.527,37.181,98.015,98.015,0,0,0,21.168,20.208c-.211.272,4.313,3.227,4.544,3.092l.142-.118c.381.218.728.411.991.553l.024-.015c.133-.075.367-.219.53-.314v-.024c3.756-2.193,15.036-9.5,26.284-24.015a125.31,125.31,0,0,0,19.3-36.547c4.795-14.109,8.17-31.283,8.357-51.966C-6356.827,509.47-6361.849,509.681-6367.343,509.812Z" transform="translate(6464.948 -498.442)" fill="#f6f6fe" opacity="0.122"/>
            <path id="Path_4195" data-name="Path 4195" d="M-6367.14,510.667c0-.017,0-.032,0-.049-3.144.086-6.5.162-9.73.159a88.308,88.308,0,0,1-11.19-.535c-10.124-1.441-16.235-5.851-19.081-8.465v-.039c-.15-.139-.333-.294-.464-.422-.173.169-.405.373-.609.562a32.944,32.944,0,0,1-18.656,8.234,133.9,133.9,0,0,1-13.854.5c-8.417,0-17.766-.291-21.65-.426.177,20.622,3.422,37.674,8.062,51.655a121.763,121.763,0,0,0,19.4,36.942,97.415,97.415,0,0,0,21.032,20.078c-.209.271,4.286,3.206,4.515,3.071l.143-.117c.378.216.722.409.984.549l.023-.015c.132-.074.365-.218.526-.312v-.024c3.732-2.179,14.939-9.435,26.115-23.861a124.533,124.533,0,0,0,19.174-36.312c4.764-14.018,8.116-31.082,8.3-51.632C-6356.691,510.327-6361.682,510.537-6367.14,510.667Z" transform="translate(6464.479 -498.967)" fill="#f4f5fe" opacity="0.146"/>
            <path id="Path_4196" data-name="Path 4196" d="M-6366.937,511.523c0-.016,0-.032,0-.048-3.124.086-6.463.16-9.668.158a87.872,87.872,0,0,1-11.118-.53c-10.059-1.432-16.13-5.814-18.957-8.411v-.038c-.149-.138-.332-.293-.461-.419-.171.168-.4.371-.6.559a32.732,32.732,0,0,1-18.536,8.181,133.055,133.055,0,0,1-13.764.494c-8.363,0-17.651-.289-21.51-.423.175,20.489,3.4,37.431,8.008,51.32a120.954,120.954,0,0,0,19.277,36.7,96.749,96.749,0,0,0,20.9,19.948c-.208.269,4.259,3.186,4.486,3.052l.14-.117c.376.215.718.406.978.546l.024-.015c.131-.074.362-.216.522-.31v-.024c3.708-2.165,14.842-9.373,25.946-23.706a123.7,123.7,0,0,0,19.049-36.077c4.733-13.928,8.064-30.881,8.25-51.3C-6356.555,511.185-6361.514,511.393-6366.937,511.523Z" transform="translate(6464.009 -499.491)" fill="#f2f3fe" opacity="0.171"/>
            <path id="Path_4197" data-name="Path 4197" d="M-6366.733,512.378c0-.016,0-.032,0-.048-3.1.085-6.421.16-9.6.157a87.18,87.18,0,0,1-11.045-.527c-9.994-1.422-16.025-5.775-18.834-8.356v-.038c-.148-.136-.329-.29-.458-.416-.17.167-.4.369-.6.555a32.522,32.522,0,0,1-18.415,8.127,132.186,132.186,0,0,1-13.674.491c-8.308,0-17.536-.287-21.37-.42.174,20.355,3.377,37.187,7.957,50.986a120.171,120.171,0,0,0,19.15,36.464,96.132,96.132,0,0,0,20.76,19.818c-.207.267,4.23,3.165,4.457,3.032l.14-.116c.374.213.713.4.972.542l.024-.015c.13-.074.359-.216.519-.308v-.024c3.684-2.15,14.746-9.312,25.777-23.552a122.873,122.873,0,0,0,18.925-35.841c4.7-13.837,8.013-30.68,8.2-50.964C-6356.42,512.043-6361.346,512.25-6366.733,512.378Z" transform="translate(6463.54 -500.015)" fill="#f0f1fe" opacity="0.195"/>
            <path id="Path_4198" data-name="Path 4198" d="M-6366.53,513.234c0-.016,0-.032,0-.048-3.083.085-6.378.159-9.542.156a86.685,86.685,0,0,1-10.973-.524c-9.928-1.413-15.92-5.737-18.711-8.3v-.038c-.147-.136-.327-.289-.456-.414-.169.166-.4.366-.6.551a32.308,32.308,0,0,1-18.293,8.074,131.351,131.351,0,0,1-13.585.488c-8.254,0-17.421-.285-21.23-.417.173,20.221,3.355,36.943,7.905,50.652a119.381,119.381,0,0,0,19.025,36.225,95.5,95.5,0,0,0,20.624,19.688c-.206.266,4.2,3.144,4.427,3.012.045-.036.094-.078.14-.115.372.212.708.4.965.538l.023-.015c.129-.073.357-.214.516-.306v-.023c3.66-2.137,14.649-9.252,25.608-23.4a122.088,122.088,0,0,0,18.8-35.607c4.672-13.746,7.96-30.478,8.142-50.629C-6356.286,512.9-6361.179,513.106-6366.53,513.234Z" transform="translate(6463.072 -500.539)" fill="#eeeffe" opacity="0.22"/>
            <path id="Path_4199" data-name="Path 4199" d="M-6366.328,514.089c0-.016,0-.032,0-.048-3.062.084-6.337.158-9.479.155a86.055,86.055,0,0,1-10.9-.52c-9.863-1.4-15.815-5.7-18.587-8.247v-.038c-.146-.135-.324-.287-.452-.411-.168.165-.394.364-.593.548a32.092,32.092,0,0,1-18.174,8.02,130.285,130.285,0,0,1-13.495.485c-8.2,0-17.305-.283-21.089-.414.172,20.088,3.333,36.7,7.853,50.317a118.6,118.6,0,0,0,18.9,35.986,94.871,94.871,0,0,0,20.488,19.558c-.2.264,4.175,3.123,4.4,2.992l.138-.114c.37.21.7.4.959.535l.024-.015c.128-.072.355-.212.512-.3v-.024c3.636-2.122,14.553-9.19,25.44-23.243a121.285,121.285,0,0,0,18.676-35.371c4.642-13.656,7.907-30.277,8.089-50.3C-6356.15,513.758-6361.01,513.962-6366.328,514.089Z" transform="translate(6462.603 -501.063)" fill="#eceefe" opacity="0.244"/>
            <path id="Path_4200" data-name="Path 4200" d="M-6366.125,514.944c0-.016,0-.031,0-.047-3.042.083-6.295.157-9.416.154a85.527,85.527,0,0,1-10.828-.517c-9.8-1.394-15.71-5.662-18.464-8.192V506.3c-.146-.134-.322-.285-.45-.408-.167.165-.392.362-.588.544a31.883,31.883,0,0,1-18.053,7.967,129.456,129.456,0,0,1-13.405.482c-8.145,0-17.19-.281-20.949-.412.17,19.954,3.311,36.455,7.8,49.983a117.807,117.807,0,0,0,18.774,35.747,94.218,94.218,0,0,0,20.352,19.428c-.2.262,4.147,3.1,4.369,2.972l.137-.113c.367.209.7.4.953.531l.024-.014c.127-.072.352-.211.508-.3v-.024c3.612-2.108,14.456-9.129,25.27-23.088a120.469,120.469,0,0,0,18.553-35.137c4.61-13.564,7.855-30.076,8.035-49.961C-6356.014,514.615-6360.843,514.818-6366.125,514.944Z" transform="translate(6462.134 -501.587)" fill="#eaecfe" opacity="0.268"/>
            <path id="Path_4201" data-name="Path 4201" d="M-6365.922,515.8c0-.016,0-.031,0-.047-3.021.083-6.253.155-9.353.153a84.982,84.982,0,0,1-10.755-.513c-9.731-1.385-15.6-5.624-18.341-8.137v-.037c-.144-.133-.32-.283-.446-.406-.166.163-.389.359-.585.541a31.662,31.662,0,0,1-17.932,7.914,128.686,128.686,0,0,1-13.315.479c-8.09,0-17.076-.279-20.81-.409.169,19.821,3.289,36.211,7.749,49.649a117,117,0,0,0,18.649,35.508,93.594,93.594,0,0,0,20.215,19.3c-.2.26,4.12,3.082,4.339,2.953l.136-.113c.365.208.694.393.946.528l.023-.014c.127-.072.351-.21.506-.3v-.023c3.587-2.094,14.359-9.068,25.1-22.934a119.685,119.685,0,0,0,18.429-34.9c4.579-13.474,7.8-29.875,7.981-49.627C-6355.88,515.473-6360.676,515.674-6365.922,515.8Z" transform="translate(6461.665 -502.112)" fill="#e8eafe" opacity="0.293"/>
            <path id="Path_4202" data-name="Path 4202" d="M-6365.719,516.655c0-.016,0-.031,0-.047-3,.083-6.21.154-9.29.152a84.416,84.416,0,0,1-10.683-.51c-9.666-1.376-15.5-5.586-18.217-8.082v-.037c-.143-.132-.318-.281-.443-.4-.165.162-.386.357-.581.537a31.459,31.459,0,0,1-17.811,7.861,127.851,127.851,0,0,1-13.227.475c-8.035,0-16.961-.277-20.669-.406.168,19.687,3.267,35.968,7.7,49.314a116.241,116.241,0,0,0,18.522,35.269,93.017,93.017,0,0,0,20.08,19.169c-.2.258,4.092,3.061,4.311,2.932l.135-.112c.362.207.689.391.939.524l.023-.014c.125-.071.348-.208.5-.3v-.023c3.563-2.08,14.262-9.007,24.932-22.78a118.844,118.844,0,0,0,18.306-34.666,156.582,156.582,0,0,0,7.927-49.293C-6355.744,516.331-6360.508,516.531-6365.719,516.655Z" transform="translate(6461.196 -502.636)" fill="#e7e8fd" opacity="0.317"/>
            <path id="Path_4203" data-name="Path 4203" d="M-6365.516,517.511c0-.016,0-.031,0-.047-2.98.082-6.169.154-9.227.151a83.923,83.923,0,0,1-10.61-.506c-9.6-1.366-15.4-5.548-18.094-8.028v-.037c-.143-.132-.316-.279-.44-.4-.163.161-.384.354-.577.533a31.241,31.241,0,0,1-17.69,7.808,126.985,126.985,0,0,1-13.137.472c-7.981,0-16.846-.276-20.528-.4.166,19.554,3.244,35.723,7.644,48.98a115.45,115.45,0,0,0,18.4,35.029,92.374,92.374,0,0,0,19.943,19.039c-.2.257,4.063,3.04,4.281,2.913l.135-.111c.359.2.685.387.933.52l.023-.014c.125-.07.346-.207.5-.3v-.023c3.538-2.066,14.166-8.946,24.763-22.625a118.057,118.057,0,0,0,18.181-34.432,155.481,155.481,0,0,0,7.873-48.959C-6355.608,517.188-6360.34,517.387-6365.516,517.511Z" transform="translate(6460.726 -503.16)" fill="#e5e7fd" opacity="0.341"/>
            <path id="Path_4204" data-name="Path 4204" d="M-6365.312,518.366c0-.016,0-.03,0-.046-2.96.082-6.126.152-9.164.15a83.177,83.177,0,0,1-10.538-.5c-9.534-1.357-15.29-5.51-17.97-7.972v-.036c-.141-.131-.313-.278-.437-.4-.161.16-.38.352-.573.53a31.023,31.023,0,0,1-17.569,7.754,125.953,125.953,0,0,1-13.046.469c-7.928,0-16.731-.274-20.39-.4.166,19.42,3.223,35.48,7.592,48.646a114.658,114.658,0,0,0,18.271,34.79,91.716,91.716,0,0,0,19.808,18.909c-.2.255,4.036,3.019,4.251,2.893l.134-.111c.356.2.681.385.927.517l.022-.014c.125-.07.344-.2.5-.294v-.023c3.515-2.052,14.068-8.885,24.594-22.471a117.256,117.256,0,0,0,18.057-34.2,154.439,154.439,0,0,0,7.819-48.625C-6355.474,518.046-6360.173,518.243-6365.312,518.366Z" transform="translate(6460.258 -503.684)" fill="#e3e5fd" opacity="0.366"/>
            <path id="Path_4205" data-name="Path 4205" d="M-6365.11,519.222c0-.016,0-.03,0-.046-2.94.081-6.085.151-9.1.149a82.615,82.615,0,0,1-10.466-.5c-9.47-1.348-15.185-5.472-17.847-7.918v-.036c-.14-.13-.312-.275-.435-.395-.16.159-.378.349-.569.526a30.809,30.809,0,0,1-17.448,7.7,125.14,125.14,0,0,1-12.957.466c-7.873,0-16.616-.272-20.249-.4.165,19.287,3.2,35.236,7.539,48.312a113.843,113.843,0,0,0,18.146,34.551,91.1,91.1,0,0,0,19.671,18.779c-.2.253,4.008,3,4.223,2.873l.133-.109c.354.2.676.382.92.514l.022-.014c.124-.07.341-.2.492-.292v-.023c3.491-2.038,13.972-8.824,24.425-22.316a116.437,116.437,0,0,0,17.933-33.961,153.368,153.368,0,0,0,7.766-48.291C-6355.338,518.9-6360,519.1-6365.11,519.222Z" transform="translate(6459.789 -504.209)" fill="#e1e3fd" opacity="0.39"/>
            <path id="Path_4206" data-name="Path 4206" d="M-6364.907,520.077c0-.015,0-.03,0-.045-2.919.08-6.042.15-9.038.148a82.033,82.033,0,0,1-10.393-.5c-9.4-1.338-15.08-5.435-17.723-7.863v-.036c-.139-.129-.31-.274-.431-.392-.16.158-.376.347-.565.523a30.6,30.6,0,0,1-17.328,7.647,124.254,124.254,0,0,1-12.867.462c-7.818,0-16.5-.27-20.109-.4.164,19.153,3.178,34.992,7.487,47.977a113.091,113.091,0,0,0,18.021,34.312,90.46,90.46,0,0,0,19.535,18.649c-.2.251,3.98,2.978,4.193,2.853l.131-.109c.352.2.671.38.914.51l.022-.014c.122-.069.339-.2.489-.29V623.5c3.466-2.023,13.875-8.763,24.255-22.162a115.618,115.618,0,0,0,17.809-33.726,152.339,152.339,0,0,0,7.712-47.956C-6355.2,519.761-6359.837,519.956-6364.907,520.077Z" transform="translate(6459.32 -504.733)" fill="#dfe2fd" opacity="0.415"/>
            <path id="Path_4207" data-name="Path 4207" d="M-6364.7,520.932c0-.015,0-.03,0-.045-2.9.08-6,.149-8.975.147a81.481,81.481,0,0,1-10.321-.493c-9.339-1.329-14.975-5.4-17.6-7.808V512.7c-.139-.128-.308-.272-.428-.389-.159.156-.374.345-.561.519a30.388,30.388,0,0,1-17.208,7.594,123.359,123.359,0,0,1-12.778.459c-7.763,0-16.386-.268-19.969-.393.163,19.02,3.156,34.748,7.435,47.643a112.285,112.285,0,0,0,17.9,34.073,89.827,89.827,0,0,0,19.4,18.519c-.193.249,3.953,2.957,4.164,2.833l.131-.108c.35.2.667.377.907.506l.023-.014c.121-.068.335-.2.485-.288v-.022c3.442-2.01,13.778-8.7,24.086-22.007a114.848,114.848,0,0,0,17.685-33.492,151.271,151.271,0,0,0,7.657-47.622C-6355.067,520.619-6359.67,520.812-6364.7,520.932Z" transform="translate(6458.851 -505.257)" fill="#dde0fd" opacity="0.439"/>
            <path id="Path_4208" data-name="Path 4208" d="M-6364.5,521.788c0-.015,0-.03,0-.045-2.88.079-5.958.148-8.913.146a80.992,80.992,0,0,1-10.249-.489c-9.272-1.32-14.869-5.359-17.476-7.753v-.036c-.138-.127-.305-.27-.425-.387-.158.156-.371.342-.558.515a30.174,30.174,0,0,1-17.086,7.541,122.526,122.526,0,0,1-12.688.456c-7.709,0-16.271-.266-19.829-.39.161,18.887,3.133,34.5,7.383,47.308a111.483,111.483,0,0,0,17.77,33.834,89.2,89.2,0,0,0,19.262,18.389c-.192.248,3.925,2.936,4.135,2.813l.13-.108c.347.2.661.375.9.5l.022-.013c.121-.068.334-.2.482-.286v-.022c3.418-2,13.682-8.641,23.918-21.853a114.046,114.046,0,0,0,17.561-33.256,150.224,150.224,0,0,0,7.6-47.288C-6354.932,521.477-6359.5,521.668-6364.5,521.788Z" transform="translate(6458.382 -505.781)" fill="#dbdefd" opacity="0.463"/>
            <path id="Path_4209" data-name="Path 4209" d="M-6364.3,522.643c0-.015,0-.029,0-.044-2.859.078-5.916.147-8.849.145a80.423,80.423,0,0,1-10.176-.486c-9.207-1.31-14.764-5.321-17.352-7.7v-.035c-.136-.126-.3-.268-.422-.384-.156.154-.368.34-.553.511a29.962,29.962,0,0,1-16.966,7.488,121.8,121.8,0,0,1-12.6.452c-7.654,0-16.155-.264-19.688-.387.161,18.753,3.111,34.261,7.331,46.974a110.7,110.7,0,0,0,17.644,33.6,88.566,88.566,0,0,0,19.126,18.259c-.19.246,3.9,2.916,4.106,2.793l.128-.106c.345.2.657.372.9.5l.022-.014c.12-.068.332-.2.478-.284V623.9c3.394-1.981,13.585-8.58,23.749-21.7a113.237,113.237,0,0,0,17.436-33.022,149.139,149.139,0,0,0,7.551-46.954C-6354.8,522.334-6359.334,522.525-6364.3,522.643Z" transform="translate(6457.914 -506.306)" fill="#d9dcfd" opacity="0.488"/>
            <path id="Path_4210" data-name="Path 4210" d="M-6364.1,523.5c0-.015,0-.029,0-.044-2.839.078-5.875.146-8.787.143a79.764,79.764,0,0,1-10.1-.482c-9.142-1.3-14.66-5.283-17.229-7.644v-.035c-.135-.125-.3-.266-.419-.381-.155.153-.366.337-.549.508A29.749,29.749,0,0,1-6418.028,523a120.975,120.975,0,0,1-12.509.449c-7.6,0-16.041-.262-19.549-.384.159,18.62,3.089,34.017,7.278,46.64a109.946,109.946,0,0,0,17.519,33.356,87.955,87.955,0,0,0,18.99,18.129c-.189.245,3.87,2.895,4.077,2.773l.128-.106c.342.2.652.369.888.5l.022-.014c.119-.067.329-.2.475-.282v-.022c3.37-1.967,13.489-8.519,23.58-21.544a112.418,112.418,0,0,0,17.312-32.786,148.081,148.081,0,0,0,7.5-46.62C-6354.661,523.192-6359.167,523.381-6364.1,523.5Z" transform="translate(6457.444 -506.83)" fill="#d8dbfc" opacity="0.512"/>
            <path id="Path_4211" data-name="Path 4211" d="M-6363.892,524.354c0-.015,0-.029,0-.044-2.818.077-5.832.145-8.724.142a79.172,79.172,0,0,1-10.03-.479c-9.076-1.292-14.555-5.245-17.106-7.589v-.035c-.135-.125-.3-.264-.417-.378-.154.152-.362.335-.546.5a29.531,29.531,0,0,1-16.724,7.381,119.91,119.91,0,0,1-12.419.447c-7.546,0-15.927-.26-19.408-.381.157,18.486,3.066,33.773,7.226,46.305a109.153,109.153,0,0,0,17.393,33.117,87.321,87.321,0,0,0,18.855,18c-.188.242,3.842,2.874,4.047,2.753l.127-.1c.34.194.647.366.882.492l.021-.014c.119-.066.327-.195.473-.28v-.022c3.345-1.953,13.392-8.457,23.41-21.389a111.615,111.615,0,0,0,17.188-32.552,146.97,146.97,0,0,0,7.443-46.285C-6354.526,524.05-6359,524.237-6363.892,524.354Z" transform="translate(6456.975 -507.354)" fill="#d6d9fc" opacity="0.537"/>
            <path id="Path_4212" data-name="Path 4212" d="M-6363.689,525.21c0-.015,0-.029,0-.044-2.8.077-5.79.144-8.66.142a78.712,78.712,0,0,1-9.959-.475c-9.011-1.283-14.449-5.208-16.981-7.534v-.035c-.134-.123-.3-.262-.413-.375-.153.151-.36.333-.542.5a29.32,29.32,0,0,1-16.6,7.328,119.071,119.071,0,0,1-12.33.443c-7.49,0-15.811-.259-19.268-.379.157,18.353,3.045,33.529,7.175,45.971a108.34,108.34,0,0,0,17.267,32.878,86.684,86.684,0,0,0,18.718,17.869c-.186.241,3.815,2.853,4.019,2.734l.126-.1c.337.192.643.364.876.489l.021-.013c.117-.066.324-.194.469-.278V624.3c3.321-1.939,13.295-8.4,23.241-21.235a110.812,110.812,0,0,0,17.063-32.316,145.928,145.928,0,0,0,7.39-45.951C-6354.391,524.907-6358.832,525.094-6363.689,525.21Z" transform="translate(6456.506 -507.879)" fill="#d4d7fc" opacity="0.561"/>
            <path id="Path_4213" data-name="Path 4213" d="M-6363.486,526.065c0-.015,0-.029,0-.043-2.777.076-5.748.143-8.6.141a78.026,78.026,0,0,1-9.886-.472c-8.945-1.273-14.344-5.17-16.859-7.479v-.034c-.132-.123-.294-.26-.409-.373-.153.15-.358.33-.538.5a29.11,29.11,0,0,1-16.483,7.274,118.2,118.2,0,0,1-12.24.44c-7.437,0-15.7-.257-19.128-.376a147.988,147.988,0,0,0,7.122,45.637,107.582,107.582,0,0,0,17.142,32.639,86.049,86.049,0,0,0,18.582,17.739c-.185.239,3.787,2.833,3.989,2.714l.125-.1c.334.191.638.361.87.485l.021-.013c.116-.066.322-.193.464-.276v-.021c3.3-1.925,13.2-8.335,23.072-21.081a110.005,110.005,0,0,0,16.94-32.081,144.881,144.881,0,0,0,7.336-45.617C-6354.255,525.765-6358.664,525.95-6363.486,526.065Z" transform="translate(6456.037 -508.403)" fill="#d2d5fc" opacity="0.585"/>
            <path id="Path_4214" data-name="Path 4214" d="M-6363.283,526.921c0-.015,0-.029,0-.043-2.757.076-5.705.142-8.534.14a77.524,77.524,0,0,1-9.813-.469c-8.879-1.264-14.239-5.131-16.735-7.424v-.034c-.132-.121-.292-.258-.407-.37-.152.149-.355.328-.534.493a28.892,28.892,0,0,1-16.362,7.221,117.437,117.437,0,0,1-12.15.437c-7.382,0-15.581-.255-18.988-.373a146.914,146.914,0,0,0,7.07,45.3,106.776,106.776,0,0,0,17.017,32.4,85.391,85.391,0,0,0,18.446,17.609c-.184.238,3.758,2.812,3.959,2.694l.124-.1c.333.189.633.358.863.481l.021-.013c.116-.065.32-.191.461-.274v-.021c3.273-1.911,13.1-8.274,22.9-20.926a109.206,109.206,0,0,0,16.815-31.846,143.84,143.84,0,0,0,7.282-45.283C-6354.12,526.623-6358.5,526.807-6363.283,526.921Z" transform="translate(6455.568 -508.927)" fill="#d0d4fc" opacity="0.61"/>
            <path id="Path_4215" data-name="Path 4215" d="M-6363.08,527.776c0-.015,0-.028,0-.042-2.737.075-5.664.141-8.472.138a76.928,76.928,0,0,1-9.741-.465c-8.814-1.254-14.134-5.094-16.611-7.37V520c-.13-.121-.29-.257-.4-.367-.15.148-.353.325-.53.49a28.683,28.683,0,0,1-16.242,7.168,116.591,116.591,0,0,1-12.061.433c-7.327,0-15.466-.253-18.848-.37a145.828,145.828,0,0,0,7.018,44.968,105.989,105.989,0,0,0,16.891,32.16,84.761,84.761,0,0,0,18.309,17.48c-.182.236,3.731,2.791,3.931,2.674l.124-.1c.33.188.629.356.857.478l.021-.013c.114-.065.317-.189.458-.271v-.021c3.249-1.9,13.005-8.214,22.734-20.772a108.381,108.381,0,0,0,16.692-31.611,142.758,142.758,0,0,0,7.228-44.948C-6353.985,527.48-6358.329,527.663-6363.08,527.776Z" transform="translate(6455.1 -509.451)" fill="#ced2fc" opacity="0.634"/>
            <path id="Path_4216" data-name="Path 4216" d="M-6362.877,528.632c0-.015,0-.028,0-.042-2.716.074-5.621.14-8.408.137a76.338,76.338,0,0,1-9.668-.461c-8.749-1.245-14.029-5.056-16.488-7.315v-.034c-.13-.12-.288-.254-.4-.364-.148.147-.35.323-.526.486a28.47,28.47,0,0,1-16.121,7.115,115.724,115.724,0,0,1-11.971.43c-7.272,0-15.351-.251-18.708-.368a144.742,144.742,0,0,0,6.965,44.634,105.21,105.21,0,0,0,16.766,31.922,84.132,84.132,0,0,0,18.174,17.349c-.182.234,3.7,2.771,3.9,2.654l.122-.1c.328.187.625.353.851.475l.021-.013c.114-.064.314-.189.455-.27v-.021c3.225-1.883,12.908-8.152,22.565-20.617a107.587,107.587,0,0,0,16.567-31.376,141.7,141.7,0,0,0,7.174-44.614C-6353.849,528.338-6358.161,528.519-6362.877,528.632Z" transform="translate(6454.63 -509.976)" fill="#ccd0fc" opacity="0.659"/>
            <path id="Path_4217" data-name="Path 4217" d="M-6362.674,529.487c0-.014,0-.028,0-.042-2.7.074-5.579.138-8.345.136a75.777,75.777,0,0,1-9.6-.458c-8.684-1.235-13.924-5.018-16.365-7.26v-.033c-.128-.119-.286-.252-.4-.362-.147.145-.347.32-.522.482a28.254,28.254,0,0,1-16,7.062,114.9,114.9,0,0,1-11.881.427c-7.218,0-15.236-.249-18.567-.365a143.656,143.656,0,0,0,6.914,44.3,104.408,104.408,0,0,0,16.639,31.682,83.525,83.525,0,0,0,18.038,17.22c-.179.232,3.675,2.75,3.872,2.634l.122-.1c.325.186.62.35.844.471l.021-.013c.113-.064.313-.187.451-.268v-.021c3.2-1.868,12.812-8.091,22.4-20.463a106.78,106.78,0,0,0,16.443-31.141,140.642,140.642,0,0,0,7.121-44.28C-6353.714,529.2-6357.994,529.375-6362.674,529.487Z" transform="translate(6454.162 -510.5)" fill="#cacffc" opacity="0.683"/>
            <path id="Path_4218" data-name="Path 4218" d="M-6362.471,530.343c0-.014,0-.028,0-.042-2.675.074-5.537.138-8.282.136a75.289,75.289,0,0,1-9.524-.455c-8.618-1.227-13.819-4.98-16.242-7.206v-.033c-.128-.118-.284-.251-.4-.359-.147.145-.345.318-.519.479a28.04,28.04,0,0,1-15.879,7.008,113.889,113.889,0,0,1-11.792.424c-7.164,0-15.121-.247-18.427-.362a142.585,142.585,0,0,0,6.861,43.965,103.629,103.629,0,0,0,16.514,31.443,82.88,82.88,0,0,0,17.9,17.09c-.179.23,3.648,2.729,3.843,2.615.038-.032.081-.068.121-.1.322.184.615.348.837.467l.021-.013c.112-.063.311-.186.448-.266v-.021c3.176-1.855,12.715-8.031,22.227-20.309a105.959,105.959,0,0,0,16.32-30.906,139.571,139.571,0,0,0,7.067-43.946C-6353.579,530.053-6357.825,530.232-6362.471,530.343Z" transform="translate(6453.693 -511.024)" fill="#c9cdfb" opacity="0.707"/>
            <path id="Path_4219" data-name="Path 4219" d="M-6362.269,531.2c0-.014,0-.027,0-.041-2.655.073-5.5.137-8.22.134a74.732,74.732,0,0,1-9.451-.451c-8.552-1.217-13.713-4.942-16.118-7.151v-.033c-.126-.117-.281-.248-.392-.356-.146.143-.341.316-.514.475a27.835,27.835,0,0,1-15.759,6.955,113.015,113.015,0,0,1-11.7.42c-7.11,0-15.007-.245-18.288-.359a141.5,141.5,0,0,0,6.809,43.631,102.849,102.849,0,0,0,16.388,31.2,82.266,82.266,0,0,0,17.765,16.96c-.177.229,3.621,2.708,3.813,2.595l.12-.1c.32.183.61.345.832.464l.021-.013c.111-.062.308-.184.444-.263v-.021c3.152-1.84,12.618-7.969,22.058-20.154a105.158,105.158,0,0,0,16.195-30.671,138.486,138.486,0,0,0,7.014-43.612C-6353.444,530.911-6357.659,531.088-6362.269,531.2Z" transform="translate(6453.224 -511.548)" fill="#c7cbfb" opacity="0.732"/>
            <path id="Path_4220" data-name="Path 4220" d="M-6362.066,532.054c0-.014,0-.027,0-.042-2.635.072-5.453.136-8.157.133a74.061,74.061,0,0,1-9.379-.448c-8.486-1.207-13.608-4.9-15.994-7.1v-.032c-.125-.116-.279-.247-.389-.354-.145.142-.339.313-.511.471a27.613,27.613,0,0,1-15.638,6.9,112.121,112.121,0,0,1-11.612.417c-7.056,0-14.892-.244-18.147-.357a140.383,140.383,0,0,0,6.757,43.3,102.033,102.033,0,0,0,16.263,30.965,81.624,81.624,0,0,0,17.629,16.83c-.176.227,3.593,2.687,3.785,2.574l.119-.1c.317.181.605.343.825.46l.02-.012c.111-.062.306-.183.441-.262v-.021c3.128-1.826,12.521-7.908,21.889-20a104.369,104.369,0,0,0,16.071-30.436,137.473,137.473,0,0,0,6.96-43.278C-6353.308,531.769-6357.49,531.944-6362.066,532.054Z" transform="translate(6452.755 -512.073)" fill="#c5c9fb" opacity="0.756"/>
            <path id="Path_4221" data-name="Path 4221" d="M-6361.862,532.909c0-.014,0-.027,0-.041-2.614.072-5.41.134-8.093.132a73.5,73.5,0,0,1-9.307-.444c-8.422-1.2-13.5-4.866-15.871-7.041v-.033c-.124-.115-.276-.245-.386-.351-.144.141-.337.31-.506.468a27.408,27.408,0,0,1-15.518,6.848,111.4,111.4,0,0,1-11.522.414c-7,0-14.775-.242-18.007-.354a139.294,139.294,0,0,0,6.705,42.962,101.257,101.257,0,0,0,16.137,30.726,81.008,81.008,0,0,0,17.493,16.7c-.175.225,3.564,2.667,3.755,2.555l.118-.1c.315.18.6.34.818.457l.021-.012c.109-.062.3-.181.438-.26v-.02c3.1-1.812,12.425-7.847,21.721-19.846a103.556,103.556,0,0,0,15.946-30.2,136.427,136.427,0,0,0,6.906-42.944C-6353.173,532.626-6357.322,532.8-6361.862,532.909Z" transform="translate(6452.286 -512.597)" fill="#c3c8fb" opacity="0.78"/>
            <path id="Path_4222" data-name="Path 4222" d="M-6361.66,533.764c0-.013,0-.027,0-.04-2.595.071-5.368.133-8.03.131a72.907,72.907,0,0,1-9.234-.441c-8.355-1.189-13.4-4.829-15.747-6.986V526.4c-.123-.114-.275-.243-.383-.348-.143.14-.335.308-.5.464a27.19,27.19,0,0,1-15.4,6.795,110.548,110.548,0,0,1-11.433.411c-6.946,0-14.662-.239-17.867-.351a138.224,138.224,0,0,0,6.652,42.628,100.468,100.468,0,0,0,16.012,30.487,80.4,80.4,0,0,0,17.356,16.57c-.173.224,3.537,2.646,3.727,2.535l.116-.1c.313.179.6.337.813.453l.02-.012c.108-.061.3-.18.435-.258v-.02c3.08-1.8,12.329-7.786,21.551-19.691A102.7,102.7,0,0,0-6357.75,576a135.329,135.329,0,0,0,6.853-42.61C-6353.038,533.484-6357.155,533.657-6361.66,533.764Z" transform="translate(6451.817 -513.121)" fill="#c1c6fb" opacity="0.805"/>
            <path id="Path_4223" data-name="Path 4223" d="M-6361.457,534.62c0-.014,0-.026,0-.04-2.573.071-5.326.133-7.967.13a72.41,72.41,0,0,1-9.162-.437,28.775,28.775,0,0,1-15.623-6.931v-.032c-.123-.114-.273-.241-.381-.346-.141.139-.331.306-.5.46a26.974,26.974,0,0,1-15.275,6.742,109.539,109.539,0,0,1-11.343.408c-6.892,0-14.546-.238-17.727-.348a137.164,137.164,0,0,0,6.6,42.293,99.684,99.684,0,0,0,15.886,30.248,79.746,79.746,0,0,0,17.221,16.44c-.172.221,3.509,2.625,3.7,2.515l.115-.1c.311.177.592.334.806.449l.02-.012c.108-.061.3-.179.431-.256v-.02c3.056-1.784,12.231-7.725,21.383-19.536a101.958,101.958,0,0,0,15.7-29.731,134.272,134.272,0,0,0,6.8-42.275C-6352.9,534.342-6356.987,534.513-6361.457,534.62Z" transform="translate(6451.348 -513.646)" fill="#bfc4fb" opacity="0.829"/>
            <path id="Path_4224" data-name="Path 4224" d="M-6361.254,535.475c0-.013,0-.026,0-.04-2.554.07-5.285.132-7.9.129a71.71,71.71,0,0,1-9.089-.434,28.552,28.552,0,0,1-15.5-6.877v-.032c-.121-.112-.27-.239-.376-.343-.14.138-.329.3-.495.457a26.762,26.762,0,0,1-15.155,6.688,108.628,108.628,0,0,1-11.253.4c-6.837,0-14.431-.236-17.587-.346a136.065,136.065,0,0,0,6.548,41.96,98.905,98.905,0,0,0,15.76,30.009,79.118,79.118,0,0,0,17.085,16.31c-.171.22,3.481,2.6,3.667,2.495l.114-.1c.308.176.587.332.8.446l.02-.012c.107-.06.3-.177.427-.254v-.02c3.032-1.77,12.135-7.664,21.213-19.382a101.115,101.115,0,0,0,15.575-29.5,133.188,133.188,0,0,0,6.745-41.941C-6352.767,535.2-6356.82,535.369-6361.254,535.475Z" transform="translate(6450.879 -514.169)" fill="#bdc2fb" opacity="0.854"/>
            <path id="Path_4225" data-name="Path 4225" d="M-6361.05,536.33c0-.013,0-.026,0-.039-2.533.069-5.242.13-7.842.128a71.315,71.315,0,0,1-9.017-.43,28.328,28.328,0,0,1-15.376-6.822v-.031c-.12-.112-.268-.237-.374-.34-.139.137-.326.3-.49.453a26.554,26.554,0,0,1-15.035,6.635,107.839,107.839,0,0,1-11.164.4c-6.783,0-14.316-.234-17.447-.343a134.992,134.992,0,0,0,6.5,41.625,98.1,98.1,0,0,0,15.634,29.77,78.493,78.493,0,0,0,16.949,16.18c-.169.218,3.454,2.583,3.638,2.475l.115-.095c.3.174.582.329.792.443l.02-.012c.106-.06.293-.176.423-.251v-.02c3.008-1.756,12.038-7.6,21.044-19.227a100.321,100.321,0,0,0,15.45-29.261,132.145,132.145,0,0,0,6.691-41.607C-6352.631,536.056-6356.652,536.225-6361.05,536.33Z" transform="translate(6450.41 -514.693)" fill="#bbc1fb" opacity="0.878"/>
            <path id="Path_4226" data-name="Path 4226" d="M-6360.848,537.186c0-.013,0-.026,0-.039-2.513.069-5.2.129-7.778.127a70.723,70.723,0,0,1-8.945-.427,28.1,28.1,0,0,1-15.253-6.767v-.031c-.12-.111-.266-.235-.372-.337-.137.136-.323.3-.486.449a26.339,26.339,0,0,1-14.914,6.582,106.954,106.954,0,0,1-11.074.4c-6.729,0-14.2-.232-17.307-.34a133.892,133.892,0,0,0,6.444,41.291,97.305,97.305,0,0,0,15.509,29.53,77.855,77.855,0,0,0,16.813,16.05c-.168.216,3.426,2.563,3.608,2.455l.113-.094c.3.173.578.327.787.439l.02-.012c.105-.059.291-.174.42-.249v-.02c2.984-1.741,11.942-7.541,20.876-19.073a99.521,99.521,0,0,0,15.326-29.026,131.087,131.087,0,0,0,6.638-41.273C-6352.5,536.915-6356.485,537.082-6360.848,537.186Z" transform="translate(6449.941 -515.218)" fill="#babffa" opacity="0.902"/>
            <path id="Path_4227" data-name="Path 4227" d="M-6360.646,538.042c0-.013,0-.026,0-.039-2.492.068-5.158.128-7.715.126a70.069,70.069,0,0,1-8.873-.424,27.867,27.867,0,0,1-15.129-6.712v-.031c-.119-.11-.264-.233-.368-.334-.137.134-.321.3-.483.446a26.123,26.123,0,0,1-14.792,6.529,106.124,106.124,0,0,1-10.984.395c-6.674,0-14.086-.231-17.167-.337a132.791,132.791,0,0,0,6.392,40.956,96.513,96.513,0,0,0,15.384,29.291,77.226,77.226,0,0,0,16.676,15.92c-.166.215,3.4,2.542,3.58,2.435l.112-.093c.3.172.573.324.78.435l.019-.012c.1-.059.289-.173.417-.247v-.019c2.959-1.728,11.845-7.481,20.707-18.919a98.71,98.71,0,0,0,15.2-28.791,130,130,0,0,0,6.584-40.939C-6352.361,537.772-6356.317,537.938-6360.646,538.042Z" transform="translate(6449.473 -515.743)" fill="#b8bdfa" opacity="0.927"/>
            <path id="Path_4228" data-name="Path 4228" d="M-6360.442,538.9c0-.013,0-.026,0-.038-2.473.068-5.116.127-7.653.125a69.43,69.43,0,0,1-8.8-.42,27.64,27.64,0,0,1-15.006-6.657v-.03c-.118-.109-.262-.232-.365-.332-.135.134-.318.294-.479.443a25.908,25.908,0,0,1-14.671,6.475,105.249,105.249,0,0,1-10.895.391c-6.62,0-13.972-.228-17.026-.335A131.719,131.719,0,0,0-6429,579.139a95.744,95.744,0,0,0,15.258,29.052,76.589,76.589,0,0,0,16.54,15.79c-.165.213,3.37,2.521,3.55,2.415l.111-.092c.3.17.568.321.774.431l.019-.012c.1-.059.287-.172.414-.245v-.019c2.936-1.713,11.749-7.419,20.538-18.764a97.914,97.914,0,0,0,15.078-28.556,128.958,128.958,0,0,0,6.53-40.6C-6352.225,538.629-6356.15,538.794-6360.442,538.9Z" transform="translate(6449.003 -516.266)" fill="#b6bbfa" opacity="0.951"/>
            <path id="Path_4229" data-name="Path 4229" d="M-6360.239,539.752c0-.013,0-.025,0-.038-2.452.068-5.074.126-7.59.124a68.86,68.86,0,0,1-8.728-.417,27.413,27.413,0,0,1-14.882-6.6v-.03c-.117-.108-.26-.23-.362-.329-.135.133-.316.292-.475.439a25.7,25.7,0,0,1-14.551,6.422,104.46,104.46,0,0,1-10.8.388c-6.565,0-13.856-.227-16.886-.332a130.648,130.648,0,0,0,6.287,40.288,94.973,94.973,0,0,0,15.133,28.813,75.971,75.971,0,0,0,16.4,15.66c-.163.211,3.343,2.5,3.522,2.4l.11-.092c.3.169.563.319.768.428l.019-.012c.1-.058.284-.17.41-.243V626.6c2.912-1.7,11.652-7.358,20.369-18.61a97.091,97.091,0,0,0,14.953-28.321,127.9,127.9,0,0,0,6.477-40.27C-6352.089,539.487-6355.982,539.651-6360.239,539.752Z" transform="translate(6448.534 -516.79)" fill="#b4bafa" opacity="0.976"/>
            <path id="Path_4230" data-name="Path 4230" d="M-6360.037,540.608c0-.013,0-.025,0-.038-2.432.067-5.032.116-7.527.123a71.092,71.092,0,0,1-8.655-.413,27.19,27.19,0,0,1-14.759-6.548v-.03c-.116-.107-.258-.228-.359-.327-.133.132-.312.289-.471.435a25.483,25.483,0,0,1-14.43,6.369,103.614,103.614,0,0,1-10.715.385c-6.511,0-13.742-.225-16.746-.329a129.575,129.575,0,0,0,6.235,39.953,94.145,94.145,0,0,0,15.007,28.574,75.315,75.315,0,0,0,16.268,15.53c-.162.209,3.315,2.48,3.492,2.376l.11-.091c.293.168.559.316.762.425l.018-.012c.1-.057.283-.169.407-.241v-.019c2.886-1.685,11.555-7.3,20.2-18.456a96.283,96.283,0,0,0,14.831-28.086,126.862,126.862,0,0,0,6.422-39.936C-6351.956,540.344-6355.815,540.507-6360.037,540.608Z" transform="translate(6448.066 -517.315)" fill="#b2b8fa"/>
          </g>
          <g id="Group_1334" data-name="Group 1334" transform="translate(0 7.066)">
            <path id="Path_4231" data-name="Path 4231" d="M-6390.061,521.693a92.3,92.3,0,0,1-11.8-.532c-9.743-1.423-15.623-5.779-18.361-8.362v-.039c-.145-.137-.321-.291-.447-.417-.166.168-.389.369-.585.556a31.355,31.355,0,0,1-17.953,8.133,125.45,125.45,0,0,1-13.331.492c-8.1,0-17.1-.287-20.833-.42.17,20.369,3.293,37.213,7.757,51.022a121.354,121.354,0,0,0,18.67,36.49c11.264,14.752,22.663,21.637,25.667,23.293l.023-.015c.127-.074.35-.216.506-.308v-.024c3.591-2.152,14.375-9.319,25.13-23.568a124.071,124.071,0,0,0,18.45-35.867c4.584-13.847,7.811-30.7,7.99-51C-6372.981,521.306-6382.114,521.693-6390.061,521.693Z" transform="translate(6473.375 -512.344)" fill="#fff"/>
            <path id="Path_4232" data-name="Path 4232" d="M-6413.378,635.218a86.372,86.372,0,0,1-20.928-19.957,115.459,115.459,0,0,1-17.755-34.744,161.072,161.072,0,0,1-7.332-43.2c4.278.116,9.747.23,14.854.23a128.278,128.278,0,0,0,14.037-.536,38.163,38.163,0,0,0,17.846-6.869,41.053,41.053,0,0,0,17.951,6.98,95.7,95.7,0,0,0,12.646.594c5.031,0,10.549-.154,14.888-.313a157.736,157.736,0,0,1-7.541,43.075,118.111,118.111,0,0,1-17.568,34.184A91.99,91.99,0,0,1-6413.378,635.218Z" transform="translate(6465.373 -522.531)" fill="#b5d73c"/>
            <path id="Path_4233" data-name="Path 4233" d="M-6330.419,533.979a169.618,169.618,0,0,1-3.642,45.634,130.023,130.023,0,0,1-15.543,39.316c-3.566,5.844-9.542,14.283-15.215,21.763,1.9,1.292,3.4,2.181,4.217,2.633l.023-.015c.168-.1.453-.277.671-.408a102.192,102.192,0,0,0,21.091-25.04,130.068,130.068,0,0,0,15.543-39.317,169.4,169.4,0,0,0,3.673-44.718c-3.227.091-6.7.159-9.989.159C-6329.887,533.987-6330.132,533.981-6330.419,533.979Z" transform="translate(6411.245 -524.64)" fill="#fff" opacity="0.1"/>
            <g id="Group_1333" data-name="Group 1333" transform="translate(31.681 33.422)">
              <path id="Path_4234" data-name="Path 4234" d="M-6382.782,627.648l-16.512-16.512,7.248-7.248,9.177,9.177,22.04-22.569,7.335,7.161Z" transform="translate(6399.294 -590.495)" fill="#fff"/>
            </g>
          </g>
        </g>
        <g id="Group_1340" data-name="Group 1340" transform="translate(0 84.919)">
          <path id="Path_4235" data-name="Path 4235" d="M-6458.626,523.365h0a3.468,3.468,0,0,1-2.6,1.824l-17.041,2.345-2.053-.768a3.938,3.938,0,0,1-2.558-3.689h0a3.939,3.939,0,0,1,.8-2.379l1.574-2.077Z" transform="translate(6494.931 -428.768)" fill="#4d5068"/>
          <path id="Path_4236" data-name="Path 4236" d="M-6457.111,522.342h0a3.309,3.309,0,0,1-2.479,1.742l-16.266,2.238-1.959-.733a3.759,3.759,0,0,1-2.442-3.521h0a3.763,3.763,0,0,1,.763-2.271l1.5-1.982Z" transform="translate(6493.432 -428.306)" fill="#20243b"/>
          <path id="Path_4237" data-name="Path 4237" d="M-6485.138,486.13l1.85-1.54a3.716,3.716,0,0,1,2.571-.853l27.659,1.475v-3.9l21.892,9.558v.773a11.087,11.087,0,0,1-11.087,11.087l-7.9.6-10.957-.569-24.07-5.758a4.33,4.33,0,0,1-2.324-3.264l-.155-1.149A7.162,7.162,0,0,1-6485.138,486.13Z" transform="translate(6497.702 -407.412)" fill="#4d5068"/>
          <path id="Path_4238" data-name="Path 4238" d="M-6465.732,509.567l10.958.57,7.894-.6a11.087,11.087,0,0,0,11.087-11.087v-.423l5.521,2.411v.773a11.087,11.087,0,0,1-11.086,11.087l-7.9.6-10.958-.569-24.069-5.758a4.033,4.033,0,0,1-1.875-1.889Z" transform="translate(6496.807 -416.977)" fill="#231f20" opacity="0.2"/>
          <path id="Path_4239" data-name="Path 4239" d="M-6400.023,364.553l6.494-6.065-7.088-7.589s-8.584,5.315-6.493,6.065C-6403.079,358.41-6400.023,364.553-6400.023,364.553Z" transform="translate(6451.754 -332.773)" fill="#ffcebd"/>
          <path id="Path_4240" data-name="Path 4240" d="M-6432.733,324.01c.856,2.569,1.715,7.11,1.479,9.01-.054.427,1.212-.516,1.428-.135a13.551,13.551,0,0,0,2.764,3.635c1.57,1.369,4.277,1.909,5.264,1.271l1.835-2.361c1.729-1.193,4.675-2.91,5.265-4.927l1.62-5.543-10.067-6.065-7.765-1.5a4.7,4.7,0,0,0-1.844,2.44A6.28,6.28,0,0,0-6432.733,324.01Z" transform="translate(6466.442 -313.599)" fill="#ffcebd"/>
          <path id="Path_4241" data-name="Path 4241" d="M-6403.876,371.62l-6.255,15.658a4.671,4.671,0,0,0,.65,4.423l.859,1.144,1.237,9.232L-6412,419.523c5.608-1.035,15.543,11.945,25.724,8.494l-1.035-23.868,1.326-16.454a25.543,25.543,0,0,0-2.613-13.472l-4.234-8.468h-4.461Z" transform="translate(6454.365 -341.274)" fill="#259ada"/>
          <path id="Path_4242" data-name="Path 4242" d="M-6390.273,385.522l-.52,17.17h10.787l1.467-15.186-2.243-3.192Z" transform="translate(6442.228 -351.897)" fill="#41afeb"/>
          <g id="Group_1339" data-name="Group 1339" transform="translate(0 54.788)">
            <path id="Path_4243" data-name="Path 4243" d="M-6498.14,459.1h0a.494.494,0,0,1-.674-.186L-6511,437.363a.5.5,0,0,1,.187-.674h0a.494.494,0,0,1,.674.186l12.185,21.55A.494.494,0,0,1-6498.14,459.1Z" transform="translate(6511.063 -436.625)" fill="#545671"/>
            <path id="Path_4244" data-name="Path 4244" d="M-6459.191,486.986l-26.489.131a1.137,1.137,0,0,1-1.142-1.131h0a1.137,1.137,0,0,1,1.131-1.142l26.488-.131a1.136,1.136,0,0,1,1.142,1.131h0A1.135,1.135,0,0,1-6459.191,486.986Z" transform="translate(6497.189 -464.148)" fill="#545671"/>
            <path id="Path_4245" data-name="Path 4245" d="M-6458.139,486.485a1.167,1.167,0,0,1-1.018.536l-26.488.131a1.125,1.125,0,0,1-1.068-.627,1.125,1.125,0,0,0-.109.475,1.137,1.137,0,0,0,1.142,1.131l26.489-.131a1.135,1.135,0,0,0,1.13-1.141A1.1,1.1,0,0,0-6458.139,486.485Z" transform="translate(6497.189 -465.162)" fill="#3f4155"/>
            <g id="Group_1336" data-name="Group 1336" transform="translate(29.589 21.204)">
              <rect id="Rectangle_435" data-name="Rectangle 435" width="2.09" height="0.802" transform="matrix(1, -0.005, 0.005, 1, 0, 0.01)" fill="#f5f7f9"/>
            </g>
            <g id="Group_1337" data-name="Group 1337" transform="translate(32.065 21.192)">
              <rect id="Rectangle_436" data-name="Rectangle 436" width="2.091" height="0.801" transform="matrix(1, -0.005, 0.005, 1, 0, 0.011)" fill="#f5f7f9"/>
            </g>
            <g id="Group_1338" data-name="Group 1338" transform="translate(14.478 21.279)">
              <rect id="Rectangle_437" data-name="Rectangle 437" width="2.09" height="0.801" transform="matrix(1, -0.005, 0.005, 1, 0, 0.01)" fill="#f5f7f9"/>
            </g>
          </g>
          <path id="Path_4246" data-name="Path 4246" d="M-6365.314,428.016l-1.035-23.868,1.326-16.454a25.542,25.542,0,0,0-2.613-13.472l-4.235-8.468h-2.883c-.474,6.224,3.072,12.382,2.335,18.627-.409,3.468-2.127,6.733-2.152,10.224-.035,4.776,3.084,9.079,3.437,13.843a12.308,12.308,0,0,1-3.037,8.973,4.662,4.662,0,0,0-1.1,1.567c-.316.993.193,2.034.536,3.018a9.512,9.512,0,0,1,.191,5.4A13.159,13.159,0,0,0-6365.314,428.016Z" transform="translate(6433.404 -341.274)" fill="#6c98e3" opacity="0.2"/>
          <path id="Path_4247" data-name="Path 4247" d="M-6433.976,427.288v13.2l-18.73,7.42-7.327-2.589-5.781,1.208-1.639,2.416V451.7h1.035l1.294-2.147,2.509-.345,3.185,2.492,10.9.167,4.859-.561,15.133-2.486c1.154-.28,3.323-1.726,3.538-3.535V427.288Z" transform="translate(6486.104 -376.493)" fill="#ffcebd"/>
          <path id="Path_4248" data-name="Path 4248" d="M-6454.334,450.314l10.9.168h4.722l14.527-3.52a5.6,5.6,0,0,0,4.283-5.444l-.809-14.143,2.189-.087V445.28c-.216,1.81-2.384,3.256-3.538,3.535L-6437.2,451.3l-4.859.561-10.9-.167-3.186-2.492Z" transform="translate(6479.628 -376.493)" fill="#a58877" opacity="0.4"/>
          <path id="Path_4249" data-name="Path 4249" d="M-6439.311,321.384a4.28,4.28,0,0,1-.779.26c-2.06.44-1.931-1.239-2.167-3.341-.455-4.058,2.76-9.146,6.933-9.64a23.683,23.683,0,0,1,15.1,3.369c3.974,2.629,6.695,6.84,8.338,11.312A62.7,62.7,0,0,1-6409,337.307c-1.561.248-3,.919-4.52,1.279l-8.244,1.945-3.942.931c-.627.148-3.639.438-3.942.93,2.457-3.984,4.726-8.287,5.023-12.958.243-3.814-3.275-14.594-9-11.591C-6435.145,318.642-6437.527,320.618-6439.311,321.384Z" transform="translate(6471.707 -308.514)" fill="#4d5068"/>
        </g>
        <path id="Path_4269" data-name="Path 4269" d="M-6337.9,167.116h-11.72a12.642,12.642,0,0,0-12.643,12.642v17.964h68.875a7.163,7.163,0,0,0,7.163-7.162V167.116Z" transform="translate(6425.901 -142.666)" fill="#08346e" opacity="0.3"/>
        <g id="Group_1346" data-name="Group 1346" transform="translate(51.65 0)">
          <rect id="Rectangle_440" data-name="Rectangle 440" width="84.924" height="52.401" rx="16.187" transform="translate(0 0)" fill="#edf5fc"/>
          <g id="Group_1342" data-name="Group 1342" transform="translate(5.26 42.778)">
            <rect id="Rectangle_441" data-name="Rectangle 441" width="74.404" height="0.66" fill="#b3cdfa"/>
          </g>
          <rect id="Rectangle_442" data-name="Rectangle 442" width="62.074" height="1.197" transform="translate(15.204 6.27)" fill="#b3cdfa"/>
          <rect id="Rectangle_443" data-name="Rectangle 443" width="25.756" height="1.197" transform="translate(15.204 9.495)" fill="#b3cdfa"/>
          <g id="Group_1343" data-name="Group 1343" transform="translate(10.956 17.932)">
            <path id="Path_4270" data-name="Path 4270" d="M-6364.343,174.314c6.195-1.85,9.981-7.95,16.871-7.449,6.308.458,11.938,4.3,18.408,2.893,6.038-1.31,9.878-5.077,13.96-9.345a25.246,25.246,0,0,1,18.84-7.635v-.9a26.4,26.4,0,0,0-15.446,4.479,35.47,35.47,0,0,0-6.116,5.8,22.71,22.71,0,0,1-10.2,6.4c-7.292,2.143-13.551-2.68-20.726-2.649-6.482.028-9.924,5.776-15.828,7.54,0,0-.316,1.031.239.865Z" transform="translate(6364.671 -151.876)" fill="url(#linear-gradient)"/>
          </g>
          <g id="Group_1344" data-name="Group 1344" transform="translate(11.016 18.111)">
            <path id="Path_4271" data-name="Path 4271" d="M-6364.53,176.82c5.19,1.192,7.37-4,10.564-6.978,6.156-5.735,15.445-6.453,23.181-4.258,5.439,1.544,11.035,3.407,16.17.018a60.966,60.966,0,0,0,7.4-5.906c3.435-3.145,6.966-7.423,12.266-6.311v-.894c-5.361-1.126-8.824,2.764-12.4,6.115-2.93,2.743-6.555,6.36-10.434,7.614-4.232,1.368-8.7-.35-12.756-1.5a26.885,26.885,0,0,0-17.652.588,21.064,21.064,0,0,0-5.994,3.548c-2.993,2.6-5.247,8.214-10.1,7.1l-.239.865Z" transform="translate(6364.53 -152.294)" fill="#1067db"/>
          </g>
          <g id="Group_1345" data-name="Group 1345" transform="translate(10.857 5.073)">
            <rect id="Rectangle_444" data-name="Rectangle 444" width="0.66" height="41.833" fill="#b3cdfa"/>
          </g>
        </g>
        <g id="Group_12492" data-name="Group 12492" transform="translate(88.296 84.392)">
          <path id="Path_13631" data-name="Path 13631" d="M14094.857,10155.451c4.758,5.729,6.075,18.937,5.3,27.678l-62.288.314.262-7.171a157.277,157.277,0,0,0-.821-19.894c-.356-3.934.422-12.236,1.618-12.475,3.142-.631,7.677,1.959,10.778,2.75l22.529,5.739c5.624,1.434,15.295-2.674,20.031.641A13.245,13.245,0,0,1,14094.857,10155.451Z" transform="translate(-13940.954 -9974.879)" fill="#a5cbef"/>
          <path id="Path_13632" data-name="Path 13632" d="M13891.14,9885.427l-24.723-35.822-2.553-7.767a5.075,5.075,0,0,0-4.615-3.482l-4.351-.174-1.731.016-19.979-3.986h0c-.084,2.107,1.724,3.4,3.617,4.064l10.056,3.869v7.379a6.84,6.84,0,0,0,4.015,6.229l6.664,3.019,2.578,2.517,23.646,42.612C13884.46,9905.152,13891.14,9885.427,13891.14,9885.427Z" transform="translate(-13833.186 -9811.354)" fill="#ffcebd"/>
          <path id="Path_13633" data-name="Path 13633" d="M14121.012,9854.368c.771-3.524,2.926-7.084,1.74-10.49-.975-2.8-3.859-4.368-5.918-6.5-3.5-3.621-4.613-8.955-4.664-14a37.846,37.846,0,0,0-.336-7.293c-1-4.85-4.6-8.667-7.154-12.911a17.889,17.889,0,0,0-2.91-4.162,13.722,13.722,0,0,0-4.918-2.517q-5.874-2.035-11.836-3.806c-1.932-.574-4.033-1.123-5.92-.417a9.558,9.558,0,0,0-3.549,2.881l-6.146,6.91a7.239,7.239,0,0,0-3.5,4.539c-.742,2.95,0,6.04.6,9.021s1.033,6.205-.256,8.959-4.16,4.7-4.8,7.67c-.631,2.9,1.064,5.736,2.592,8.282,2.619,4.37,5.018,9.388,3.994,14.379-.621,3.021-2.457,5.721-2.84,8.781a9.7,9.7,0,0,0,3.893,8.9c1.615,1.158,3.73,1.966,4.434,3.825.529,1.4.068,2.97.3,4.444.488,3.125,4.041,5,7.193,4.771s5.969-1.971,8.648-3.648,5.527-3.389,8.686-3.539c6.115-.288,12.008,5.318,17.748,3.2,4.646-1.718,6.2-7.595,5.834-12.535S14119.953,9859.205,14121.012,9854.368Z" transform="translate(-13953.674 -9789.031)" fill="#4c5068"/>
          <rect id="Rectangle_1511" data-name="Rectangle 1511" width="24.952" height="28.701" transform="translate(129.278 58.249)" fill="#ffcebd"/>
          <path id="Path_13634" data-name="Path 13634" d="M14124.637,9906.975c1.4,4.662-27.753,2.085-24.147-1.185,6-5.443,3.969-28,3.969-28h16.607S14121.9,9897.845,14124.637,9906.975Z" transform="translate(-13974.208 -9834.375)" fill="#ffcebd"/>
          <path id="Path_13635" data-name="Path 13635" d="M14086.214,9847.225c-4.486,2.191-12.217-4.6-11.935-15.852.006-.234-.847-.541-1.683-.784a1.175,1.175,0,0,1-.69-1.734c4.984-8.227,4.152-22.13,7.36-25.338,7.71-7.71,39.458,0,39.458,0v18.5C14118.725,9838.918,14086.214,9847.225,14086.214,9847.225Z" transform="translate(-13959.186 -9793.332)" fill="#ffcebd"/>
          <path id="Path_13636" data-name="Path 13636" d="M13996.43,9899.891l-10.327-.213a11,11,0,0,0-6.79,2.174l-14.612,10.881a11.137,11.137,0,0,1-3.809,1.835l-26.251,6.907a4.409,4.409,0,0,1-4.735-1.737l-21.359-28.474-10.658,6.89,13.816,33.275a16.017,16.017,0,0,0,12.42,9.27c11.795,1.63,32.347,2.945,43.382-5.259,0,0,2.106.719-.3,7.894a18.492,18.492,0,0,0,3.649,18.258l.075.085-8.571,56.8s15.443,6.331,60.757.565v-10.277l19.361-88.979-17.3-16.478-24.717,8.65Z" transform="translate(-13867.361 -9841.489)" fill="#f8b018"/>
          <path id="Path_13637" data-name="Path 13637" d="M14142.724,9872.74c-.215-.7-.437-1.405-.659-2.106l-2.859-9.021a45.3,45.3,0,0,0-2.837-7.406c-1.113-2.125-2.56-4.061-3.667-6.187a22.454,22.454,0,0,1-1.757-15.991c.45-1.684,1.1-3.316,1.4-5.032.745-4.223.05-9.771-.792-13.973a25.6,25.6,0,0,0-5.25-11.457c-4.3-5.146-10.621-7.938-16.955-9.665-2.777-.758-5.48-1.81-8.216-2.549-3.179-.857-7.175-.412-10.413-.087-4.128.413-14.1,1.354-16.008,6.082-1.371,3.4.622,5.743,3.463,7.38,3.408,1.962,6.146,2.666,8.844,5.781,5.788,6.684,7.628,16.021,7.841,24.623a40.115,40.115,0,0,0,.568,7.713,10.187,10.187,0,0,0,3.982,6.42c4.413,2.9,9.2,2.121,13.229,6.072,6.093,5.971,7.082,15.245,10.2,23.186a42.975,42.975,0,0,0,9.55,14.595c1.621,1.624,3.529,3.188,5.811,3.427,7.092.741,6.56-11.876,5.9-16.119A41.062,41.062,0,0,0,14142.724,9872.74Z" transform="translate(-13960.522 -9787.399)" fill="#a58877" opacity="0.4"/>
          <g id="Group_3458" data-name="Group 3458" transform="translate(120.967 24.82)">
            <rect id="Rectangle_1512" data-name="Rectangle 1512" width="16.367" height="1.163" fill="#4d5068"/>
          </g>
          <g id="Group_3459" data-name="Group 3459" transform="translate(116.123 24.82)">
            <rect id="Rectangle_1513" data-name="Rectangle 1513" width="1.293" height="1.163" fill="#4d5068"/>
          </g>
          <g id="Group_3460" data-name="Group 3460" transform="translate(116.835 17.302)">
            <path id="Path_13638" data-name="Path 13638" d="M14083.171,9838.638c-2.291,0-2.356-7.271-2.356-8.1s.065-8.1,2.356-8.1,2.356,7.27,2.356,8.1S14085.462,9838.638,14083.171,9838.638Zm-.05-15.045c-.348.228-1.145,2.743-1.145,6.945s.8,6.718,1.244,6.945c.348-.228,1.144-2.743,1.144-6.945S14083.568,9823.82,14083.121,9823.593Z" transform="translate(-14080.814 -9822.439)" fill="#4d5068"/>
          </g>
          <path id="Path_13639" data-name="Path 13639" d="M13858.482,9861.217l-4.175-5.433a3.088,3.088,0,0,1,.567-4.326h0a3.085,3.085,0,0,1,4.328.566l4.173,5.432a3.088,3.088,0,0,1-.567,4.328h0A3.086,3.086,0,0,1,13858.482,9861.217Z" transform="translate(-13844.005 -9820.126)" fill="#ffcebd"/>
          <path id="Path_13640" data-name="Path 13640" d="M14131.168,9916.791l-1.308.457c-1.855.65-2.979,5.476-4.416,6.906-2.269,2.257-5.7,3.374-8.03,5.779a14.365,14.365,0,0,0-4.348,9.265c-.245,7.563,6.521,15.1,8.1,22.434,2.838,13.192-11.927,15.229-22.23,12.76a4.576,4.576,0,0,0,.43,4.336,18.853,18.853,0,0,0,3.014,3.392c7.583,7.618,8.356,16.975,10.1,26.963,1.972,11.3-5.976,14.5-9.454,24.121a12.074,12.074,0,0,0-.433,1.592c7.4-.274,16.176-.956,26.521-2.272v-10.275l19.361-88.979Z" transform="translate(-13973.354 -9854.973)" fill="#815800" opacity="0.2"/>
          <path id="Path_13641" data-name="Path 13641" d="M14098.345,9911.086l-7.5,7.125v9.475l3.751-8.65,3.752,11.121,8.562-3.705,4.4,11.264,15.788-26.918-2.062-5.355-22.656,17.713-1.938-10.711Z" transform="translate(-13969.277 -9848.978)" fill="#4d5068" opacity="0.4"/>
          <path id="Path_13642" data-name="Path 13642" d="M14098.345,9903.229l-7.5,7.125v9.475l3.751-4.943,3.752,7.414h8.562l4.944,6.592,15.242-22.244-2.062-9.064-22.656,17.715-1.938-10.711Z" transform="translate(-13969.277 -9844.826)" fill="#f5f7f9"/>
          <g id="Group_3461" data-name="Group 3461" transform="translate(30.53 54.719)">
            <path id="Path_13643" data-name="Path 13643" d="M13967.209,9948.868a18.49,18.49,0,0,0,3.648,18.257l.076.085-.824,5.46a12.464,12.464,0,0,1,6.629-6.737,9.984,9.984,0,0,1-8.257-9.562c0-5.13,6.394-13.358.043-17.262a7.79,7.79,0,0,0-2.65-.9c-6.47-1.243-13.519.112-19.638,2.365a46.339,46.339,0,0,1-7.67,2.576c-5.273.945-10.513-.988-14.925-3.771-3.9-2.462-8.351-5.783-11.017-9.58-2.813-4-4.326-8.753-5.7-13.45-1.267-4.354-2.334-9.665-4.8-13.512-.916-1.427-.358-1.235-1.865-.684a24.975,24.975,0,0,0-2.367,1.54l13.813,33.27a16.014,16.014,0,0,0,12.421,9.269c11.793,1.63,32.346,2.945,43.381-5.259C13967.509,9940.974,13969.615,9941.692,13967.209,9948.868Z" transform="translate(-13897.895 -9901.742)" fill="#fff" opacity="0.2"/>
          </g>
          <path id="Path_13644" data-name="Path 13644" d="M14158.651,9928.669s9.535-.592,11.666,18.95l-6.432,59.493-17.712,49.465h-10.007l10.007-53.532.248-57.7a17.043,17.043,0,0,1,12.229-16.676Z" transform="translate(-13993.216 -9861.244)" fill="#4d5068"/>
          <path id="Path_13645" data-name="Path 13645" d="M14142.629,10212.708l-1.686-12.94h-9.4l-4.259,9.395a5.415,5.415,0,0,0-.3,3.63Z" transform="translate(-13988.267 -10004.437)" fill="#ffcebd"/>
          <path id="Path_13646" data-name="Path 13646" d="M14152.963,10059.185c.94-17.968,10.366-34.531,12.356-52.416.7-6.317.467-12.728,1.446-19.009,1.4-8.95,5.219-17.383,6.615-26.332,1.417-9.074.333-18.5-.626-27.822,2.6,2.357,5.395,7.092,6.435,16.621l-6.433,59.493-17.711,49.465Z" transform="translate(-14002.088 -9863.853)" fill="#272834" opacity="0.2"/>
          <path id="Path_13647" data-name="Path 13647" d="M14147.679,9866.561c-.259-.687-.525-1.373-.793-2.059q-1.717-4.408-3.436-8.817a45.281,45.281,0,0,0-3.309-7.209c-1.248-2.047-2.815-3.885-4.059-5.937a22.445,22.445,0,0,1-2.784-15.846c.34-1.708.883-3.379,1.074-5.11.47-4.264-.582-9.755-1.691-13.894a25.614,25.614,0,0,0-5.979-11.094c-4.619-4.858-11.113-7.238-17.544-8.552-2.822-.577-5.585-1.452-8.363-2.013-3.228-.652-7.187.051-10.4.584-4.093.679-13.986,2.262-15.581,7.1-2.129,6.459,5.991,7.776,10.272,9.45,3.765,1.47,5.029,3.5,6.76,7.19a44.8,44.8,0,0,1,3.958,13.941c.647,5.706.288,11.851,3.322,16.727,2.174,3.493,5.7,5.778,8.779,8.389a21.921,21.921,0,0,1,4.2,4.391c3.033,4.542,1.7,12.683,1.816,17.863.13,5.581.273,11.257,2.006,16.563a28.825,28.825,0,0,0,9.241,13.4,12.6,12.6,0,0,0,4.4,2.484,14.81,14.81,0,0,0,6.4-.031,12.762,12.762,0,0,0,4.66-1.449c1.925-1.179,3.141-3.213,4.178-5.219,4.017-7.764,6.508-16.739,4.617-25.273A41.16,41.16,0,0,0,14147.679,9866.561Z" transform="translate(-13960.628 -9785.769)" fill="#4d5068"/>
          <path id="Path_13648" data-name="Path 13648" d="M14167.7,9872.145a41.285,41.285,0,0,0-1.743-5.583c-.258-.688-.525-1.374-.792-2.06q-1.718-4.408-3.437-8.816a45.084,45.084,0,0,0-3.31-7.21c-1.247-2.047-2.814-3.885-4.057-5.937a22.449,22.449,0,0,1-2.785-15.845c.34-1.709.883-3.38,1.073-5.111.471-4.263-.581-9.755-1.69-13.894a25.614,25.614,0,0,0-5.979-11.094c-4.619-4.858-11.112-7.237-17.543-8.552-2.822-.577-5.586-1.452-8.364-2.013-3.1-.626-6.867,0-10,.52a23.663,23.663,0,0,1,2.747,2.78c4.335,5.184,6.649,11.714,8.89,18.09s4.572,12.9,8.934,18.064c1.978,2.342,4.333,4.349,6.278,6.717,7.786,9.477,7.855,22.862,8.312,35.118.321,8.585,1.043,17.288,4.027,25.344a39.167,39.167,0,0,0,6.446,11.34,11.81,11.81,0,0,0,4.2-1.366,12.539,12.539,0,0,0,4.178-5.22C14167.095,9889.654,14169.587,9880.679,14167.7,9872.145Z" transform="translate(-13978.901 -9785.769)" fill="#4d5068" opacity="0.4"/>
        </g>
      </g>
    </g>
    <g id="Group_13013" data-name="Group 13013" transform="translate(330.965 193.566)">
      <ellipse id="Ellipse_1426" data-name="Ellipse 1426" cx="34.5" cy="34" rx="34.5" ry="34" transform="translate(0.035 0.434)" fill="#1e91cc"/>
      <g id="Group_13012" data-name="Group 13012" transform="translate(16.818 14.627)">
        <path id="Path_44712" data-name="Path 44712" d="M65.469,46.465v14.2H57.237V47.417c0-3.326-1.189-5.6-4.169-5.6a4.5,4.5,0,0,0-4.223,3.01,5.635,5.635,0,0,0-.273,2.006V60.664H40.339s.111-22.437,0-24.76h8.234v3.509c-.017.028-.04.055-.055.081h.055v-.081a8.174,8.174,0,0,1,7.42-4.09c5.416,0,9.477,3.539,9.477,11.142Zm-33.742-22.5c-2.816,0-4.659,1.849-4.659,4.277a4.264,4.264,0,0,0,4.551,4.279h.053c2.871,0,4.657-1.9,4.657-4.279a4.277,4.277,0,0,0-4.6-4.277Zm-4.169,36.7h8.23V35.9h-8.23Z" transform="translate(-27.068 -23.969)" fill="#f1f2f2"/>
      </g>
    </g>
  </g>
</svg>
