<svg xmlns="http://www.w3.org/2000/svg" xmlns:xlink="http://www.w3.org/1999/xlink" width="298.531" height="305.547" viewBox="0 0 298.531 305.547">
  <defs>
    <linearGradient id="linear-gradient" x1="-79.389" y1="-20.48" x2="-79.37" y2="-20.48" gradientUnits="objectBoundingBox">
      <stop offset="0" stop-color="#fc7318"/>
      <stop offset="1" stop-color="#feb423"/>
    </linearGradient>
    <linearGradient id="linear-gradient-2" x1="-100.653" y1="-26.086" x2="-100.624" y2="-26.072" xlink:href="#linear-gradient"/>
  </defs>
  <g id="Group_13090" data-name="Group 13090" transform="translate(-111 -92)">
    <g id="Group_13089" data-name="Group 13089">
      <g id="Group_13088" data-name="Group 13088">
        <g id="Group_12937" data-name="Group 12937" transform="translate(-3537.445 -1468.66)">
          <g id="Group_12457" data-name="Group 12457" transform="translate(3648.445 1560.661)">
            <g id="Group_12456" data-name="Group 12456" transform="translate(0)">
              <g id="Group_12440" data-name="Group 12440" transform="translate(74.172)">
                <rect id="Rectangle_4490" data-name="Rectangle 4490" width="138.659" height="34.824" rx="3.463" transform="translate(14.998)" fill="#edf5fc"/>
                <rect id="Rectangle_4492" data-name="Rectangle 4492" width="91.721" height="35.249" rx="3.463" transform="translate(0 84.875)" fill="#edf5fc"/>
                <rect id="Rectangle_4493" data-name="Rectangle 4493" width="87.646" height="50.216" rx="3.463" transform="translate(101.632 53.651)" fill="#edf5fc"/>
                <rect id="Rectangle_4494" data-name="Rectangle 4494" width="117.11" height="33.944" rx="3.463" transform="translate(81.402 159.635)" fill="#edf5fc"/>
                <g id="Group_2763" data-name="Group 2763" transform="translate(4.858 88.958)">
                  <rect id="Rectangle_839" data-name="Rectangle 839" width="1.624" height="27.525" fill="#4085e2"/>
                  <rect id="Rectangle_840" data-name="Rectangle 840" width="1.624" height="27.525" transform="translate(4.167)" fill="#4085e2"/>
                  <rect id="Rectangle_841" data-name="Rectangle 841" width="1.624" height="27.525" transform="translate(8.335)" fill="#4085e2"/>
                  <rect id="Rectangle_842" data-name="Rectangle 842" width="1.624" height="27.525" transform="translate(12.502)" fill="#4085e2"/>
                  <rect id="Rectangle_843" data-name="Rectangle 843" width="1.624" height="27.525" transform="translate(16.67)" fill="#4085e2"/>
                  <rect id="Rectangle_844" data-name="Rectangle 844" width="1.624" height="27.525" transform="translate(20.837)" fill="#4085e2"/>
                  <path id="Path_12985" data-name="Path 12985" d="M3948.761,1931.662h-1.624v-12.116h1.624Zm4.167-17.15H3951.3v17.15h1.624Zm4.167-2.559h-1.624v19.709h1.624Zm4.168,2.559h-1.624v17.15h1.624Zm4.167-5.032h-1.625v22.182h1.624Zm4.167-2.73h-1.624v24.912h1.624Z" transform="translate(-3947.137 -1904.137)" fill="#fec55e"/>
                  <path id="Path_12986" data-name="Path 12986" d="M4077.025,1902.01a4.5,4.5,0,1,1-4.5-4.5h0A4.5,4.5,0,0,1,4077.025,1902.01Z" transform="translate(-4036.037 -1897.341)" fill="#4085e2"/>
                  <rect id="Rectangle_845" data-name="Rectangle 845" width="36.407" height="1.212" transform="translate(43.413 0.879)" fill="#4085e2"/>
                  <rect id="Rectangle_846" data-name="Rectangle 846" width="36.407" height="1.212" transform="translate(43.413 4.41)" fill="#4085e2"/>
                  <rect id="Rectangle_847" data-name="Rectangle 847" width="15.251" height="1.213" transform="translate(43.413 7.94)" fill="#4085e2"/>
                  <path id="Path_12987" data-name="Path 12987" d="M4077.025,1967.781a4.5,4.5,0,1,1-4.5-4.5h0A4.5,4.5,0,0,1,4077.025,1967.781Z" transform="translate(-4036.037 -1945.71)" fill="#4085e2"/>
                  <rect id="Rectangle_848" data-name="Rectangle 848" width="36.407" height="1.213" transform="translate(43.413 18.281)" fill="#4085e2"/>
                  <rect id="Rectangle_849" data-name="Rectangle 849" width="36.407" height="1.213" transform="translate(43.413 21.812)" fill="#4085e2"/>
                  <rect id="Rectangle_850" data-name="Rectangle 850" width="15.251" height="1.213" transform="translate(43.413 25.342)" fill="#4085e2"/>
                </g>
                <g id="Group_2765" data-name="Group 2765" transform="translate(105.601 59.37)">
                  <rect id="Rectangle_851" data-name="Rectangle 851" width="5.134" height="2.605" fill="#91c0ff"/>
                  <rect id="Rectangle_852" data-name="Rectangle 852" width="39.448" height="2.605" transform="translate(38.88 4.174)" fill="#91c0ff"/>
                  <rect id="Rectangle_853" data-name="Rectangle 853" width="39.448" height="2.605" transform="translate(38.88 11.521)" fill="#91c0ff"/>
                  <rect id="Rectangle_854" data-name="Rectangle 854" width="39.448" height="2.605" transform="translate(38.88 18.868)" fill="#91c0ff"/>
                  <rect id="Rectangle_855" data-name="Rectangle 855" width="22.603" height="2.605" transform="translate(38.88 26.216)" fill="#91c0ff"/>
                  <rect id="Rectangle_856" data-name="Rectangle 856" width="5.134" height="2.605" transform="translate(0 7.194)" fill="#91c0ff"/>
                  <rect id="Rectangle_857" data-name="Rectangle 857" width="5.134" height="2.605" transform="translate(0 14.388)" fill="#91c0ff"/>
                  <rect id="Rectangle_858" data-name="Rectangle 858" width="5.134" height="2.605" transform="translate(0 21.582)" fill="#91c0ff"/>
                  <rect id="Rectangle_859" data-name="Rectangle 859" width="5.134" height="2.605" transform="translate(0 28.776)" fill="#91c0ff"/>
                  <rect id="Rectangle_860" data-name="Rectangle 860" width="5.134" height="2.605" transform="translate(0 35.97)" fill="#91c0ff"/>
                  <g id="Group_2764" data-name="Group 2764" transform="translate(9.802 0.734)">
                    <path id="Path_12988" data-name="Path 12988" d="M4412.826,1787.819V1799.9l.006.006,8.526,8.549a12.045,12.045,0,0,0,3.55-8.52c0-.012,0-.024,0-.035A12.084,12.084,0,0,0,4412.826,1787.819Z" transform="translate(-4400.156 -1787.819)" fill="#91c0ff"/>
                    <path id="Path_12989" data-name="Path 12989" d="M4368.491,1791.347a12.043,12.043,0,0,0-3.55,8.533l12.082.028v-12.089A12.042,12.042,0,0,0,4368.491,1791.347Z" transform="translate(-4364.941 -1787.819)" fill="#91c0ff"/>
                    <path id="Path_12990" data-name="Path 12990" d="M4377.03,1835.648h-.006l-12.082-.029v.023a12.083,12.083,0,0,0,20.616,8.555Z" transform="translate(-4364.941 -1822.972)" fill="#91c0ff"/>
                  </g>
                </g>
                <g id="Group_2766" data-name="Group 2766" transform="translate(33.247 8.933)">
                  <path id="Path_12991" data-name="Path 12991" d="M4073.008,1603.711a9.289,9.289,0,1,1-9.288-9.289h0A9.288,9.288,0,0,1,4073.008,1603.711Z" transform="translate(-4054.431 -1594.422)" fill="#8dc63f"/>
                  <rect id="Rectangle_861" data-name="Rectangle 861" width="79.102" height="2.502" transform="translate(23.581 0.764)" fill="#8dc63f"/>
                  <rect id="Rectangle_862" data-name="Rectangle 862" width="79.102" height="2.502" transform="translate(23.581 8.049)" fill="#8dc63f"/>
                  <rect id="Rectangle_863" data-name="Rectangle 863" width="29.663" height="2.502" transform="translate(23.581 15.334)" fill="#8dc63f"/>
                </g>
                <g id="Group_2767" data-name="Group 2767" transform="translate(86.607 166.195)">
                  <path id="Path_12992" data-name="Path 12992" d="M4274.682,2198.076a9.289,9.289,0,1,1-9.289-9.288h0A9.289,9.289,0,0,1,4274.682,2198.076Z" transform="translate(-4256.105 -2188.788)" fill="#f8ac53"/>
                  <rect id="Rectangle_864" data-name="Rectangle 864" width="79.102" height="2.502" transform="translate(23.582 0.764)" fill="#f8ac53"/>
                  <rect id="Rectangle_865" data-name="Rectangle 865" width="79.102" height="2.502" transform="translate(23.582 8.049)" fill="#f8ac53"/>
                  <rect id="Rectangle_866" data-name="Rectangle 866" width="29.663" height="2.502" transform="translate(23.582 15.334)" fill="#f8ac53"/>
                </g>
                <g id="Group_2792" data-name="Group 2792" transform="translate(168.74 203.195)">
                  <path id="Path_13025" data-name="Path 13025" d="M4580.289,2331.162l0,0h-.017a6.453,6.453,0,0,0-1.271-.1l-1.165-.086.337.156c-.2.029-.4.063-.608.11a10,10,0,0,0-7.4,9.569,6.134,6.134,0,0,0,4.434,6.152l-.062.089.867.068,0,0a7,7,0,0,0,2.4-.13,10,10,0,0,0,7.4-9.569A6.1,6.1,0,0,0,4580.289,2331.162Z" transform="translate(-4569.202 -2330.356)" fill="#feb423"/>
                  <path id="Path_13026" data-name="Path 13026" d="M4581.562,2334.988a10,10,0,0,1-7.4,9.569c-4.152.936-7.573-1.83-7.641-6.178a10,10,0,0,1,7.4-9.568C4578.072,2327.875,4581.493,2330.64,4581.562,2334.988Z" transform="translate(-4566.524 -2328.629)" fill="url(#linear-gradient)"/>
                  <path id="Path_13027" data-name="Path 13027" d="M4583.021,2337.617a8.908,8.908,0,0,1-6.588,8.523c-3.7.834-6.745-1.629-6.806-5.5a8.909,8.909,0,0,1,6.588-8.523C4579.914,2331.281,4582.96,2333.744,4583.021,2337.617Z" transform="translate(-4568.805 -2331.073)" fill="#fed27b"/>
                  <path id="Path_13028" data-name="Path 13028" d="M4584.425,2340.137a7.865,7.865,0,0,1-5.814,7.522,4.773,4.773,0,0,1-6.006-4.856,7.866,7.866,0,0,1,5.815-7.523A4.772,4.772,0,0,1,4584.425,2340.137Z" transform="translate(-4570.995 -2333.416)" fill="url(#linear-gradient-2)"/>
                  <g id="Group_2791" data-name="Group 2791" transform="translate(5.166 3.857)">
                    <g id="Group_2789" data-name="Group 2789" transform="translate(0 0.422)">
                      <path id="Path_13031" data-name="Path 13031" d="M4589.22,2351.561l-2.19.494a.74.74,0,0,1-.929-.751l-.007-.49,1.3-.293v.085l1.8-.406a.837.837,0,0,0,.618-.8.33.33,0,0,0-.312-.347.336.336,0,0,0-.1.011l-1.614.363a1.38,1.38,0,0,1-1.737-1.4l0-.246a2.571,2.571,0,0,1,1.9-2.456l2.189-.493a.739.739,0,0,1,.9.523.756.756,0,0,1,.024.227l.008.555-1.3.293,0-.152-1.8.407a.839.839,0,0,0-.619.8l0,.245a.331.331,0,0,0,.312.348.338.338,0,0,0,.1-.011l1.614-.365a1.383,1.383,0,0,1,1.737,1.405A2.57,2.57,0,0,1,4589.22,2351.561Z" transform="translate(-4586.047 -2344.802)" fill="#fed27b"/>
                    </g>
                    <g id="Group_2790" data-name="Group 2790" transform="translate(1.824)">
                      <path id="Path_13032" data-name="Path 13032" d="M4594.366,2351.226l-1.3.293-.125-8.02,1.3-.293Z" transform="translate(-4592.941 -2343.207)" fill="#fed27b"/>
                    </g>
                  </g>
                </g>
              </g>
              <g id="Group_12454" data-name="Group 12454" transform="translate(50.194 83.574)">
                <g id="Group_3493" data-name="Group 3493">
                  <path id="Rectangle_1540" data-name="Rectangle 1540" d="M3838.461,1876.527h150.6a.311.311,0,0,1,.311.311h0v181.816H3838.151V1876.838A.31.31,0,0,1,3838.461,1876.527Z" transform="translate(-3838.151 -1876.527)" fill="#fff"/>
                  <path id="Path_13695" data-name="Path 13695" d="M3989.375,1899.292V1881.77a5.239,5.239,0,0,0-5.239-5.239H3843.394a5.239,5.239,0,0,0-5.239,5.239v17.522Z" transform="translate(-3838.154 -1876.53)" fill="#007bbe"/>
                  <rect id="Rectangle_1541" data-name="Rectangle 1541" width="108.51" height="58.792" transform="translate(21.794 32.271)" fill="#a5cbef"/>
                  <rect id="Rectangle_1542" data-name="Rectangle 1542" width="94.578" height="3.524" transform="translate(27.851 79.274)" fill="#fff"/>
                  <rect id="Rectangle_1543" data-name="Rectangle 1543" width="53.164" height="3.524" transform="translate(27.851 79.274)" fill="#259ada"/>
                  <path id="Path_13696" data-name="Path 13696" d="M4024.51,2266.461h-99.471a4.52,4.52,0,0,0-4.52,4.519h0a4.52,4.52,0,0,0,4.52,4.52h99.471a4.52,4.52,0,0,0,4.52-4.52h0a4.52,4.52,0,0,0-4.52-4.519Z" transform="translate(-3898.726 -2163.289)" fill="#edf3fa"/>
                  <path id="Path_13697" data-name="Path 13697" d="M4025.817,2339.707h-99.471a4.519,4.519,0,0,0-4.52,4.519h0a4.519,4.519,0,0,0,4.519,4.52h99.472a4.519,4.519,0,0,0,4.519-4.519h0a4.519,4.519,0,0,0-4.519-4.519Z" transform="translate(-3899.686 -2217.156)" fill="#edf3fa"/>
                  <path id="Path_13698" data-name="Path 13698" d="M4027.125,2412.953h-99.472a4.52,4.52,0,0,0-4.52,4.52h0a4.52,4.52,0,0,0,4.52,4.52h99.472a4.519,4.519,0,0,0,4.519-4.52h0A4.52,4.52,0,0,0,4027.125,2412.953Z" transform="translate(-3900.648 -2271.021)" fill="#edf3fa"/>
                  <path id="Path_13699" data-name="Path 13699" d="M4028.431,2486.2H3928.96a4.521,4.521,0,0,0-4.52,4.519h0a4.52,4.52,0,0,0,4.52,4.52h99.471a4.52,4.52,0,0,0,4.52-4.519h0a4.52,4.52,0,0,0-4.52-4.519Z" transform="translate(-3901.609 -2324.888)" fill="#edf3fa"/>
                  <path id="Path_13700" data-name="Path 13700" d="M3870.586,1903.285a1.731,1.731,0,1,1-1.731-1.73h0a1.73,1.73,0,0,1,1.73,1.729Z" transform="translate(-3859.459 -1894.933)" fill="#fff"/>
                  <path id="Path_13701" data-name="Path 13701" d="M3892.379,1903.285a1.73,1.73,0,1,1-1.731-1.73,1.73,1.73,0,0,1,1.731,1.73Z" transform="translate(-3875.485 -1894.933)" fill="#fff"/>
                  <path id="Path_13702" data-name="Path 13702" d="M3914.172,1903.285a1.731,1.731,0,1,1-1.732-1.73h0a1.73,1.73,0,0,1,1.731,1.73Z" transform="translate(-3891.512 -1894.933)" fill="#fff"/>
                  <path id="Path_13703" data-name="Path 13703" d="M4371.282,1876.527h-6.694a5.238,5.238,0,0,1,5.239,5.238v176.887h6.694V1881.765A5.238,5.238,0,0,0,4371.282,1876.527Z" transform="translate(-4225.299 -1876.527)" fill="#414042" opacity="0.2" style="isolation: isolate"/>
                  <path id="Path_13704" data-name="Path 13704" d="M4137.292,2171.788a3.965,3.965,0,1,1-3.964-3.965,3.964,3.964,0,0,1,3.964,3.965Z" transform="translate(-4052.312 -2090.75)" fill="#259ada"/>
                  <path id="Path_13705" data-name="Path 13705" d="M4140.426,2176.68a2.2,2.2,0,1,1-2.2-2.2,2.2,2.2,0,0,1,2.2,2.2Z" transform="translate(-4057.208 -2095.643)" fill="#fff"/>
                  <rect id="Rectangle_1544" data-name="Rectangle 1544" width="114.956" height="3.801" transform="translate(16.893 15.046)" fill="#85ccf2"/>
                </g>
              </g>
              <g id="Group_12455" data-name="Group 12455" transform="translate(71.867 214.308)">
                <circle id="Ellipse_446" data-name="Ellipse 446" cx="9.12" cy="9.12" r="9.12" transform="translate(0 0)" fill="#eb9800"/>
                <path id="Path_13732" data-name="Path 13732" d="M3929.184,2370.631a9.119,9.119,0,0,0-9.119,9.119h0c0,.179.017.355.026.532a8.051,8.051,0,1,1,8.561,8.561c.177.01.353.026.532.026a9.12,9.12,0,0,0,0-18.239Z" transform="translate(-3920.064 -2370.631)" fill="#ffba00"/>
                <path id="Path_13733" data-name="Path 13733" d="M3947.563,2393.911l-6.221,3.592a.63.63,0,0,1-.945-.545v-7.184a.63.63,0,0,1,.945-.545l6.221,3.592a.629.629,0,0,1,0,1.091Z" transform="translate(-3935.017 -2384.247)" fill="#fff"/>
              </g>
              <g id="Group_12839" data-name="Group 12839" transform="translate(158.733 138.471)">
                <rect id="Rectangle_867" data-name="Rectangle 867" width="7.977" height="11.789" transform="translate(35.368 142.986)" fill="#ffcebd"/>
                <path id="Path_13040" data-name="Path 13040" d="M4431.247,2443.951s-60.276-4.255-65.948,0c0,0-8.155,2.3-6.205,15.778l4.787,36.7h10.1s4.964-28.9-.532-37.229L4416,2469.244Z" transform="translate(-4329.576 -2347.324)" fill="#4d5068"/>
                <path id="Path_13041" data-name="Path 13041" d="M4337.629,2654.9l2.659,6.736v5.318h-32.619v-1.471a2.851,2.851,0,0,1,2.189-2.772l5.256-1.252,10.992-6.559h1.949l.887,1.95h5.672l.533-1.95Z" transform="translate(-4291.979 -2503.852)" fill="#c7c7c7"/>
                <path id="Path_13042" data-name="Path 13042" d="M4340.288,2689.742v2.837h-32.619v-1.472a2.845,2.845,0,0,1,.349-1.365Z" transform="translate(-4291.979 -2529.471)" fill="#4d5068"/>
                <path id="Path_13043" data-name="Path 13043" d="M4695.612,2598.858l8.155-4.255v7.8l-8.155,4.077Z" transform="translate(-4577.278 -2459.506)" fill="#ffcebd"/>
                <path id="Path_13044" data-name="Path 13044" d="M4531.942,2444.217l18.615,1.32a23.977,23.977,0,0,1,1.521,3.358l-13.222,21.934-13.006-3.07Z" transform="translate(-4452.433 -2348.91)" fill="#272834" opacity="0.15" style="isolation: isolate"/>
                <path id="Path_13045" data-name="Path 13045" d="M4547.883,2449.208s7.152,12.143.672,24.344a24.332,24.332,0,0,0-1.17,2.448l-9.43,23.911,29.783-10.992V2499.2l-24.429,13.81a25.355,25.355,0,0,1-11.339,2.677h-5.989a9.508,9.508,0,0,1-7.872-4.175h0a4.161,4.161,0,0,1-.678-2.9l9.179-59.405Z" transform="translate(-4446.213 -2352.58)" fill="#4d5068"/>
                <path id="Path_13046" data-name="Path 13046" d="M4711.737,2586.227l10.814-3.014h3.546l2.291,22.08a5.044,5.044,0,0,1-.865,3.387l-2.487,5.246h-7.8l-.258-.669a9.778,9.778,0,0,1,.035-4.9l.932-2.279-6.2-7.978-.709-2.038,1.95-2.748-.2-5.878Z" transform="translate(-4588.617 -2451.129)" fill="#c7c7c7"/>
                <path id="Path_13047" data-name="Path 13047" d="M4737.943,2611.8l2.487-5.246a5.046,5.046,0,0,0,.866-3.387l-2.069-19.953h2.616l2.29,22.08a5.041,5.041,0,0,1-.865,3.386l-2.487,5.246h-7.8l-.258-.668a4.406,4.406,0,0,1-.28-1.458Z" transform="translate(-4604.363 -2451.128)" fill="#4d5068"/>
                <path id="Path_13048" data-name="Path 13048" d="M4525.451,2283.361s-14-27.757-14.808-53.07a28.267,28.267,0,0,0-2.479-10.908l-3.479-7.59a2.582,2.582,0,0,0-2.966-1.431L4486.958,2214s-6.974,13.226-7.951,23.233a5.143,5.143,0,0,0,.286,2.19c2.021,5.8,7.665,35.345,7.665,35.345C4495.641,2275.045,4510.028,2290.34,4525.451,2283.361Z" transform="translate(-4417.97 -2176.874)" fill="#259ada"/>
                <path id="Path_13049" data-name="Path 13049" d="M4472.14,2128.618a9.808,9.808,0,0,0,2.888,1.676c2.1.854,3.989.645,6.233.645h7.752v-4.949c0-3.157.153-5.167,1.758-8a10.881,10.881,0,0,0,1.443-3.1c.4-2.016-.629-4.011-1.628-5.807-.682-1.226-1.266-3.14-2.559-3.546a8.6,8.6,0,0,0-2.188,0h-7.845a9.009,9.009,0,0,0-8.007,5.649c-.7,1.857-.186,3.033-.091,4.974.034.685-1.025,5.108-.977,5.793.126,1.8,1.4,1.4,1.628,3.2a7.662,7.662,0,0,0,.338,1.653A4.515,4.515,0,0,0,4472.14,2128.618Z" transform="translate(-4410.563 -2099.778)" fill="#ffcebd"/>
                <path id="Path_13050" data-name="Path 13050" d="M4515.353,2195.821s-4.783-1.289-5.3-5.306h-12.526v2.78s3.325,3.572,3.065,6.163Z" transform="translate(-4431.602 -2162.334)" fill="#ffcebd"/>
                <path id="Path_13051" data-name="Path 13051" d="M4451.294,2084.007a3.027,3.027,0,0,0,1.817,2.4,9.407,9.407,0,0,0,5.067,1.346c2.758-.123,5.226-1.691,7.9-2.388a12.785,12.785,0,0,1,6.115-.073,4.913,4.913,0,0,1,2.042.9,4.559,4.559,0,0,0,.847.675,2.619,2.619,0,0,0,.937.2c1.813.155,3.761.4,5.1,1.632,1.738,1.6,1.839,4.317,1.384,6.637a19.362,19.362,0,0,1-1.605,4.77c-.646,1.318-1.44,2.559-2.134,3.853a28.23,28.23,0,0,0-2.452,6.292l-.4-.106q-1.043-3.307-2.085-6.615a7.961,7.961,0,0,0-1.737-3.428,2.733,2.733,0,0,0-3.514-.431c-1.59,1.339-.556,4.511-2.346,5.566.608-2.325-1.591-4.347-2.437-6.6a6.943,6.943,0,0,0-1.118-2.514c-.878-.916-2.312-.9-3.582-.945a8.725,8.725,0,0,1-4.873-1.349,7.35,7.35,0,0,1-2.673-4.494A21.908,21.908,0,0,1,4451.294,2084.007Z" transform="translate(-4397.568 -2084.007)" fill="#4d5068"/>
                <path id="Path_13052" data-name="Path 13052" d="M4496.481,2328.8c-2.531-2.135-6.133-4.086-6.018-7.4l3.574-.847a2.759,2.759,0,0,0-2.057-2.894,11.857,11.857,0,0,0-3.863-.232,1.816,1.816,0,0,1-1.119-.244c-.765-.562-.282-1.841.506-2.37a13.705,13.705,0,0,0,2.459-1.4c1.583-1.631,0-4.284-1.549-5.945-2.639-2.823-5.421-5.734-8.938-7.25-.212,1.071-.376,2.127-.476,3.149a5.142,5.142,0,0,0,.286,2.19c2.021,5.8,7.665,35.345,7.665,35.345,3.6.116,8.181,2.812,13.407,5.432C4502.785,2340.464,4501.4,2332.948,4496.481,2328.8Z" transform="translate(-4417.966 -2243.01)" fill="#6c98e3" opacity="0.2" style="isolation: isolate"/>
                <path id="Path_13053" data-name="Path 13053" d="M4318.458,2233.352l-17.064,4.458a24.69,24.69,0,0,1-17.821-2.084l-23.975-12.738-1.979-.035a6.6,6.6,0,0,1-2.612-.591h0a6.6,6.6,0,0,1-2.565-2.074l-1.766-2.381a5.919,5.919,0,0,1-.786-1.443l-1.224-3.261a4.61,4.61,0,0,1,.121-3.528l1.03-2.264,2.818,1.944,4.577,4.273a4.348,4.348,0,0,0,3.2,2.057l.246.029-.788-5.192,1.737.791a3.348,3.348,0,0,1,1.591,1.515l1.28,2.484a3.658,3.658,0,0,1,.4,1.886l-.109,1.846,18.963,6.716a27.1,27.1,0,0,0,15.783.7l16.168-4.149Z" transform="translate(-4248.372 -2174.759)" fill="#ffcebd"/>
                <path id="Path_13054" data-name="Path 13054" d="M4500.079,2245.673l3.894,15.472,9.609-2.418a7.977,7.977,0,0,0,5.79-9.683h0a7.978,7.978,0,0,0-9.683-5.79h0Z" transform="translate(-4433.48 -2200.941)" fill="#0986cb"/>
              </g>
              <g id="Group_12840" data-name="Group 12840" transform="translate(0 72.22)">
                <path id="Path_12959" data-name="Path 12959" d="M3748.544,2046.766l5.215,3.119.886-.59a.393.393,0,0,0,.12-.529l-4-3.189a8.53,8.53,0,0,0-2.456-1.2l-2.249-.608,1.02-.291c1.2-.344,2.005-1.3,1.736-2.054l-.064-.178-7.278,1.621a26.947,26.947,0,0,1-5.8-.41c-6.808-1.7-16.915-8.609-22.417-10.687l8.344-19.825a5.9,5.9,0,0,0-4.527-8h0a5.9,5.9,0,0,0-6.58,4.046l-8.965,28.406a2.772,2.772,0,0,0,1.817,3.474c.057.018.114.034.172.048l30.071,7.746,2.31,1.354a8.764,8.764,0,0,0,3.12,1.105l-.026.029,4.314,1.429.068.129a1.641,1.641,0,0,0,2.052.711l.346-.12-1.28-2.051,1.712,1.439a1.807,1.807,0,0,0,2.561.106l.116-.16-3.484-3.354,3.851,2.686a1.805,1.805,0,0,0,2.56-.125l.1-.169-4.914-3.947a.467.467,0,0,1,.221-.07Zm-4.842,2.978c.031-.021.065-.046.1-.073l.414.348Z" transform="translate(-3687.386 -1958.818)" fill="#ffcebd"/>
                <path id="Path_12960" data-name="Path 12960" d="M3743.336,2090.063c.034.026.069.053.105.083.337.272.4.717.971.543a.651.651,0,0,0,.293-1.076,2.333,2.333,0,0,0-.812-.606,77.959,77.959,0,0,0-12.147-5.874,48.644,48.644,0,0,0-5.94-1.441,23.046,23.046,0,0,1-5.228-2.286,33.934,33.934,0,0,0-10.093-3.022c-1.56-.212-2.817-.85-4.46-.731a7.506,7.506,0,0,0,.258-2.194c-.212-2.593,2.391-5.318,3.759-7.341a14.9,14.9,0,0,0,1.751-3.225,4.661,4.661,0,0,1,.752-1.426c.291-.39.716-.9.563-1.429-.233-.8-1.868-1.731-2.523-2.2a21.24,21.24,0,0,0-3.143-1.88l-5.918,18.75a2.771,2.771,0,0,0,1.817,3.473c.057.018.113.034.171.048l30.072,7.746,2.309,1.354a8.743,8.743,0,0,0,3.12,1.1l-.027.03c.159-.177,3.007,1,3.324,1.1A3.054,3.054,0,0,1,3743.336,2090.063Z" transform="translate(-3687.388 -1997.128)" fill="#a58877" opacity="0.4" style="isolation: isolate"/>
                <path id="Path_12961" data-name="Path 12961" d="M3721.41,2028.07l7.261-17.252a6.035,6.035,0,0,0-4.63-8.188h0a6.035,6.035,0,0,0-6.731,4.139l-6.051,19.168Z" transform="translate(-3694.64 -1957.851)" fill="#de8c2c"/>
                <path id="Path_12962" data-name="Path 12962" d="M3757.935,2594.591s-1.852,10.39,3.26,17.758v7.368h-14.216l-.1-7.02s3.668-7.959.992-20.243Z" transform="translate(-3720.835 -2391.675)" fill="#ffcebd"/>
                <path id="Path_12963" data-name="Path 12963" d="M3757.935,2594.591s-1.852,10.39,3.26,17.758v7.368h-14.216l-.1-7.02s3.668-7.959.992-20.243Z" transform="translate(-3720.835 -2391.675)" fill="#a58877" opacity="0.4" style="isolation: isolate"/>
                <path id="Path_12964" data-name="Path 12964" d="M3743.689,2668s6.584,10.5,14.315-.348c0,0,7.274,7.1,15.817,8.431a2.547,2.547,0,0,1,2.157,2.516h0a1.7,1.7,0,0,1-1.7,1.7h-31.733v-12.5Z" transform="translate(-3717.645 -2446.973)" fill="#4d5068"/>
                <path id="Path_12965" data-name="Path 12965" d="M3774.273,2706.639h-31.732v1.605h31.732a1.7,1.7,0,0,0,1.7-1.7h0a2.545,2.545,0,0,0-.161-.893A1.7,1.7,0,0,1,3774.273,2706.639Z" transform="translate(-3717.645 -2474.918)" fill="#fff"/>
                <path id="Path_12966" data-name="Path 12966" d="M3783.223,2594.591s-1.852,10.39,3.261,17.758v7.368h-14.217l-.1-7.02s3.668-7.959.992-20.243Z" transform="translate(-3739.432 -2391.675)" fill="#ffcebd"/>
                <path id="Path_12968" data-name="Path 12968" d="M3735.337,2213.771a18.291,18.291,0,0,0,.289,19.409,18.524,18.524,0,0,1,2.86,9.816c.074,10.433.361,30.846,1.46,33.705a50.73,50.73,0,0,0-3.4,17.292c-.192,7.052.056,15.046-.557,24.041h12.54l4.8-36.277s13.679-48.469,9.812-63.04Z" transform="translate(-3710.383 -2113.186)" fill="#454860"/>
                <path id="Path_12969" data-name="Path 12969" d="M3756.919,2213.771a21.264,21.264,0,0,0,2.223,19.409A18.527,18.527,0,0,1,3762,2243c.074,10.433.36,30.846,1.461,33.705a50.726,50.726,0,0,0-3.4,17.292c-.193,7.052.056,15.046-.557,24.041h12.54l4.8-36.277s13.679-48.469,9.812-63.04Z" transform="translate(-3727.207 -2113.186)" fill="#4d5068"/>
                <path id="Path_12970" data-name="Path 12970" d="M3788.24,2287.442s13.679-48.469,9.813-63.04l-17.444-2.9-3.572,1.628-5.995,3.629c.713,5.5,6.165,8.855,9.982,12.881a25.826,25.826,0,0,1,6.786,20.624,84.96,84.96,0,0,1-2.437,10.25c-1.015,4.022-1.632,8.129-2.249,12.229l-2.656,17.675c-.691,4.6-1.383,9.2-1.733,13.835a32.413,32.413,0,0,0,.378,9.469h4.328Z" transform="translate(-3738.604 -2118.87)" fill="#6c98e3" opacity="0.2" style="isolation: isolate"/>
                <path id="Path_12971" data-name="Path 12971" d="M3727.131,2050.522a3.054,3.054,0,0,1-1.441-4.071c.015-.031.03-.062.046-.093a49.251,49.251,0,0,0,4.653-12.624,30.021,30.021,0,0,0-2.051-17.876c-2.878-6.556-6.413-18.263-1.987-29.935a12.524,12.524,0,0,1,11.735-8.009h6.156a12.436,12.436,0,0,1,11.451,7.586c2.08,4.91,4.828,10.844,6.917,13.376a5.2,5.2,0,0,1,1.2,2.725c.262,2.383.189,6.363-2.983,7.386,0,0-.542,17.87-.315,19.489.688,4.9,2.17,14.044,4.176,18.637a2.368,2.368,0,0,1-1.153,3.061C3758.106,2052.824,3743.344,2058.394,3727.131,2050.522Z" transform="translate(-3704.199 -1939.734)" fill="#f8ac53"/>
                <path id="Path_12972" data-name="Path 12972" d="M3820.842,2041.873c-.053-.07-.106-.148-.157-.222-.079-.11-.159-.219-.238-.338s-.143-.216-.214-.325-.124-.189-.187-.291c-.085-.135-.173-.279-.259-.423-.049-.079-.1-.157-.145-.238-.1-.166-.2-.339-.3-.512l-.11-.192q-.167-.294-.335-.6l-.074-.134q-.185-.34-.37-.693l-.034-.065q-.2-.381-.4-.777l0-.006a47.96,47.96,0,0,1,.005,6.922c-.238,3.288-1.673,4.043-3.236,6.469-1.58,2.455-2.7,4.187-6.1,3.983-1.021-.061-2.335-.154-2.767.774-.442.95.552,1.932,1.472,2.431.993.541,2.046.973,2.983,1.607a4.718,4.718,0,0,1,2.049,2.606c.629,2.468-2.693,6.71-3.428,9.079a39.775,39.775,0,0,0-1.68,11.186c-.027,1.746.066,3.507-.1,5.241-.039.415-.093.829-.166,1.24-.579,3.24-2.354,6.312-3.082,9.458a44.217,44.217,0,0,0,18.184-4.385,2.368,2.368,0,0,0,1.152-3.061c-2.007-4.593-3.488-13.736-4.176-18.637-.136-.973.005-7.814.139-13.12-.053-2.068.109-4.172.176-6.369,3.171-1.024,3.245-5,2.983-7.386a4.836,4.836,0,0,0-.4-1.448,5.622,5.622,0,0,0-.8-1.278C3821.1,2042.216,3820.972,2042.05,3820.842,2041.873Z" transform="translate(-3762.817 -1983.227)" fill="#f8ac53" opacity="0.3" style="isolation: isolate"/>
                <path id="Path_12973" data-name="Path 12973" d="M3772.124,1867.094c.573.264,2.825.594,4.313,6.69v1.46a2.31,2.31,0,0,0,.312,1.16l2.381,4.109a.582.582,0,0,1-.213.8.571.571,0,0,1-.085.04l-.943.354-.311,4.537a4.272,4.272,0,0,1-4.068,3.967c-4.568.223-11.642-.022-11.943-3.634l-4.757-14.273S3758.594,1860.849,3772.124,1867.094Z" transform="translate(-3728.138 -1856.864)" fill="#ffcebd"/>
                <path id="Path_12974" data-name="Path 12974" d="M3780.934,1929.073s-4.724,1.2-5.718,9.751a3.619,3.619,0,0,1-3.6,3.184h0a3.629,3.629,0,0,1-3.627-3.448c-.271-5.457-.87-15.7-1.625-17.962Z" transform="translate(-3735.164 -1897.584)" fill="#ffcebd"/>
                <path id="Path_12975" data-name="Path 12975" d="M3856.084,1988.664l5.408-2.773-.032-1.064a.393.393,0,0,0-.385-.381l-4.823,1.705a8.49,8.49,0,0,0-2.318,1.448l-1.706,1.585.292-1.018c.344-1.2-.038-2.389-.823-2.561l-.185-.04-2.48,7.032a26.927,26.927,0,0,1-3.421,4.706c-5.043,4.879-16.259,9.792-20.936,13.359l-12.4-17.575a5.9,5.9,0,0,0-9.187-.4h0a5.9,5.9,0,0,0-.051,7.724l19.349,22.646a2.773,2.773,0,0,0,3.91.3c.045-.039.088-.079.131-.12l22.493-21.409,2.371-1.243a8.79,8.79,0,0,0,2.589-2.062l.011.038,3.5-2.9.145.01a1.64,1.64,0,0,0,1.69-1.365l.082-.356h-2.418l2.127-.691c1.091-.354,1.762-1.336,1.445-2.117l-.074-.183-4.691,1.179,4.317-1.844c1.054-.45,1.635-1.49,1.25-2.238l-.09-.176-5.95,2.079a.463.463,0,0,1,.058-.224Zm-.038,5.685c0-.037,0-.079-.009-.124l.514-.167Z" transform="translate(-3761.095 -1944.538)" fill="#ffcebd"/>
                <path id="Path_12976" data-name="Path 12976" d="M3879.771,2023.165l.126-.046c.41-.142.821.041.975-.537.135-.5-.245-.854-.756-.818a2.341,2.341,0,0,0-.944.368,77.971,77.971,0,0,0-11.415,7.195,48.711,48.711,0,0,0-4.368,4.276,23.044,23.044,0,0,1-4.708,3.224,33.936,33.936,0,0,0-7.908,6.963c-1.005,1.211-2.212,1.94-2.981,3.4a7.509,7.509,0,0,0-1.725-1.379c-2.311-1.194-3.246-4.845-4.237-7.077a14.909,14.909,0,0,0-1.808-3.193,4.651,4.651,0,0,1-.811-1.393c-.177-.454-.386-1.085-.916-1.234-.8-.228-2.456.667-3.2.974a21.243,21.243,0,0,0-3.258,1.67l12.772,14.949a2.772,2.772,0,0,0,3.909.3c.045-.039.089-.079.131-.12l22.493-21.409,2.372-1.243a8.769,8.769,0,0,0,2.589-2.062l.011.038c-.066-.229,2.436-2.023,2.693-2.236A3.017,3.017,0,0,1,3879.771,2023.165Z" transform="translate(-3783.312 -1971.98)" fill="#a58877" opacity="0.4" style="isolation: isolate"/>
                <path id="Path_12977" data-name="Path 12977" d="M3810.7,2008.748a6.11,6.11,0,1,0-9.847,7.236q.133.182.28.353l13.331,16.552,8.593-7.537Z" transform="translate(-3759.657 -1960.576)" fill="#d9811a"/>
                <path id="Path_12978" data-name="Path 12978" d="M3818.935,2038.516c-.294-.5-.561-1.019-.823-1.536a36.759,36.759,0,0,0-3.929-6.494,26.846,26.846,0,0,0-2.6-2.693l-8.973-8.487-2.251-.12a6.094,6.094,0,0,0,.815,6.66l13.332,16.552Z" transform="translate(-3759.699 -1970.085)" fill="#f8ac53" opacity="0.3" style="isolation: isolate"/>
                <path id="Path_12979" data-name="Path 12979" d="M3760.736,1862.6c1.948-3.618-4.611-4.648-7.335-4.66a26.358,26.358,0,0,0-13.449,3.6,13.613,13.613,0,0,0-4.081,3.435c-2.391,3.2-2.431,7.687-1.1,11.454a23.036,23.036,0,0,0,3.8,7.3c.49.56,6,4.914,6.473,4.21,1.121-1.678.969-3.886.584-5.867s-.964-4.008-.552-5.983a1.944,1.944,0,0,1,.811-1.367,1.974,1.974,0,0,1,.9-.192c2.011-.063,4.695,2.117,5.161-.85.5-3.178,1.043-5.9,4.169-7.63,1.172-.647,2.531-1.025,3.475-1.975A6.565,6.565,0,0,0,3760.736,1862.6Z" transform="translate(-3711.284 -1851.505)" fill="#4d5068"/>
                <path id="Path_12980" data-name="Path 12980" d="M3768.974,2668s6.584,10.5,14.316-.348c0,0,7.274,7.1,15.816,8.431a2.547,2.547,0,0,1,2.157,2.516h0a1.7,1.7,0,0,1-1.7,1.7h-31.734v-12.5Z" transform="translate(-3736.239 -2446.973)" fill="#4d5068"/>
                <path id="Path_12981" data-name="Path 12981" d="M3799.56,2706.639h-31.734v1.605h31.733a1.7,1.7,0,0,0,1.7-1.7h0a2.556,2.556,0,0,0-.161-.893A1.7,1.7,0,0,1,3799.56,2706.639Z" transform="translate(-3736.239 -2474.918)" fill="#fff"/>
                <path id="Path_12982" data-name="Path 12982" d="M3655.367,1861.858c.848-3.841.455-7.829.269-11.758s-.128-8.012,1.526-11.581c1.023-2.209,2.808-4.243,5.184-4.773,2.815-.628,5.74,1.053,7.436,3.386s2.423,5.213,3.113,8.011l-2.824,5.54a4.274,4.274,0,0,0-4.518-1.952c-.949,4.145,1.878,8.469.908,12.609a10.7,10.7,0,0,1-3.44,5.246,15.626,15.626,0,0,1-3.939,2.7c-3.278,1.517-7.024,1.526-10.636,1.508C3652.15,1869.465,3654.518,1865.7,3655.367,1861.858Z" transform="translate(-3648.445 -1833.614)" fill="#4d5068"/>
                <path id="Path_12983" data-name="Path 12983" d="M3726.195,1880.455h0a1.563,1.563,0,0,0,2.138-.562l2.674-4.585a1.564,1.564,0,0,0-.562-2.138h0a1.564,1.564,0,0,0-2.138.563h0l-2.674,4.584a1.563,1.563,0,0,0,.563,2.138Z" transform="translate(-3705.053 -1862.547)" fill="#ff5722"/>
              </g>
            </g>
          </g>
          <path id="Path_44683" data-name="Path 44683" d="M4119.692,2509.095h-21.761l-15.381-67.959h-18.356l27.8,67.959h-6.211l-31.549-67.959h97.01l-31.548,67.959" transform="translate(-324.285 -670.888)" fill="#007bbe"/>
          <path id="Path_44684" data-name="Path 44684" d="M4144.28,2417.275H4041.255a2.454,2.454,0,0,1-2.454-2.454v-8.164a2.455,2.455,0,0,1,2.454-2.455H4144.28a2.454,2.454,0,0,1,2.455,2.455v8.164a2.454,2.454,0,0,1-2.455,2.454" transform="translate(-314.316 -647.026)" fill="#259ada"/>
          <path id="Path_44685" data-name="Path 44685" d="M4172.3,2657.8h-23.946a3.4,3.4,0,0,1-3.394-3.15l-1.59-21.5h33.912l-1.59,21.494a3.4,3.4,0,0,1-3.392,3.152" transform="translate(-381.876 -794.948)" fill="#259ada"/>
        </g>
      </g>
    </g>
  </g>
</svg>
