<svg xmlns="http://www.w3.org/2000/svg" xmlns:xlink="http://www.w3.org/1999/xlink" width="319.997" height="303.676" viewBox="0 0 319.997 303.676">
  <defs>
    <linearGradient id="linear-gradient" x1="0.151" y1="1" x2="0.908" y2="-0.089" gradientUnits="objectBoundingBox">
      <stop offset="0.274" stop-color="#b3cdfa"/>
      <stop offset="0.406" stop-color="#b8d0fa"/>
      <stop offset="0.574" stop-color="#c8dbfb"/>
      <stop offset="0.762" stop-color="#e2ecfd"/>
      <stop offset="0.765" stop-color="#e3edfe"/>
      <stop offset="1" stop-color="#b3cdfa"/>
    </linearGradient>
    <linearGradient id="linear-gradient-2" x1="-0.353" y1="0.5" x2="0.647" y2="0.5" gradientUnits="objectBoundingBox">
      <stop offset="0" stop-color="#e9f1fe"/>
      <stop offset="1" stop-color="#fff"/>
    </linearGradient>
  </defs>
  <g id="middle-funnel-linkedin" transform="translate(-815.828 -2369.404)">
    <g id="Group_12831" data-name="Group 12831" transform="translate(454.303 -3090.112)">
      <g id="Group_12386" data-name="Group 12386" transform="translate(361.525 5459.516)">
        <g id="Group_12829" data-name="Group 12829" transform="translate(128.088 141.14)">
          <rect id="Rectangle_640" data-name="Rectangle 640" width="40.178" height="46.421" transform="translate(72.243 110.303)" fill="#008fce"/>
          <rect id="Rectangle_641" data-name="Rectangle 641" width="34.549" height="48.861" transform="translate(70.88 110.303)" fill="#e3edfe"/>
          <path id="Path_1808" data-name="Path 1808" d="M3635.376,233.8H3487.384a16.19,16.19,0,0,1-13.5-7.254l-1.94-2.931,22.673-103.771a11.054,11.054,0,0,1,10.917-9.313l149.146-3.219,5.86,5.5A8.1,8.1,0,0,1,3663,120l-16.7,104.487A11.055,11.055,0,0,1,3635.376,233.8Z" transform="translate(-3471.189 -104.7)" fill="#008fce"/>
          <path id="Path_1809" data-name="Path 1809" d="M3628.239,225.964H3478.307a7.7,7.7,0,0,1-7.6-8.907l16.769-105.049a11.056,11.056,0,0,1,10.917-9.313h149.932a7.694,7.694,0,0,1,7.6,8.907l-16.769,105.049A11.056,11.056,0,0,1,3628.239,225.964Z" transform="translate(-3470.611 -102.695)" fill="#f8fdff"/>
          <path id="Path_1810" data-name="Path 1810" d="M3470.708,291.815a7.7,7.7,0,0,0,7.6,8.907h149.933a11.056,11.056,0,0,0,10.917-9.313l2.653-16.619H3473.426Z" transform="translate(-3470.611 -177.453)" fill="#e3edfe"/>
          <rect id="Rectangle_642" data-name="Rectangle 642" width="88.058" height="7.993" transform="translate(38.084 151.17)" fill="#c4d8fa"/>
          <rect id="Rectangle_643" data-name="Rectangle 643" width="10.693" height="7.993" transform="translate(136.836 159.163) rotate(180)" fill="#008fce"/>
          <g id="Group_12649" data-name="Group 12649" transform="translate(102.921 23.005)">
            <ellipse id="Ellipse_613" data-name="Ellipse 613" cx="28.595" cy="29.324" rx="28.595" ry="29.324" transform="translate(0)" fill="#ff9800"/>
            <path id="Path_20292" data-name="Path 20292" d="M936.984,11595.853l10.18-27.4a28.618,28.618,0,0,1,11.752,8.587,29.652,29.652,0,0,1,6.167,13.379Z" transform="translate(-908.389 -11566.529)" fill="#e2e7ff"/>
            <path id="Path_20293" data-name="Path 20293" d="M936.984,11634.146l27.874-6.54a30.031,30.031,0,0,1,.721,6.54,29.3,29.3,0,0,1-20.654,28.17Z" transform="translate(-908.389 -11604.82)" fill="#ffc876"/>
            <path id="Path_20294" data-name="Path 20294" d="M903.833,11592.324l-28.413,3.3a30.126,30.126,0,0,1-.182-3.3c0-16.086,12.909-29.323,28.595-29.323a27.953,27.953,0,0,1,10.43,2.021Z" transform="translate(-875.238 -11563.001)" fill="#7fb338"/>
          </g>
        </g>
        <g id="Group_1624" data-name="Group 1624" transform="translate(57.691 0)">
          <path id="Path_4953" data-name="Path 4953" d="M6410.031,343.035H6307.35a20.911,20.911,0,0,1-20.911-20.91l32.869-240.167a13.766,13.766,0,0,1,13.766-13.766h100.24a23.351,23.351,0,0,1,23.351,23.351L6423.8,329.269C6422.782,337.009,6417.633,343.035,6410.031,343.035Z" transform="translate(-6286.439 -68.192)" fill="url(#linear-gradient)"/>
          <path id="Path_4954" data-name="Path 4954" d="M6405.154,337.794H6300.5a13.766,13.766,0,0,1-13.766-13.766l32.869-241.678a13.766,13.766,0,0,1,13.766-13.766h104.648a13.766,13.766,0,0,1,13.766,13.766l-32.868,241.678C6417.407,331.282,6412.755,337.794,6405.154,337.794Z" transform="translate(-6286.599 -68.401)" fill="#b3cdfa"/>
          <path id="Path_4955" data-name="Path 4955" d="M6301.672,337.936a12.756,12.756,0,0,1-12.74-12.673L6321.8,83.587v-.07a12.755,12.755,0,0,1,12.741-12.741H6439.19a12.757,12.757,0,0,1,12.742,12.673l-32.861,241.607c-1.292,6.189-5.33,12.879-12.749,12.879Z" transform="translate(-6287.767 -69.568)" fill="#f2f7ff"/>
          <g id="Group_1623" data-name="Group 1623" transform="translate(3.097 3.139)" opacity="0.15">
            <path id="Path_4956" data-name="Path 4956" d="M6448.1,74.9a12.635,12.635,0,0,1,1.931,6.643l-16.43,120.8-16.43,120.8c-1.292,6.189-5.331,12.879-12.75,12.879H6299.771a12.649,12.649,0,0,1-6.71-1.93,12.731,12.731,0,0,0,10.81,6.03h104.649c7.419,0,11.457-6.69,12.749-12.879l16.431-120.8,16.43-120.8A12.732,12.732,0,0,0,6448.1,74.9Z" transform="translate(-6293.062 -74.905)" fill="#fff" opacity="0"/>
            <path id="Path_4957" data-name="Path 4957" d="M6448.293,75.127a12.7,12.7,0,0,1,5.925,10.768l-16.414,120.685-16.43,120.8c-1.227,5.876-4.933,12.2-11.661,12.809-.346.032-.726.048-1.089.048h-104.52a12.763,12.763,0,0,1-10.822-5.94A12.818,12.818,0,0,0,6300,336.19h104.553c7.454,0,11.479-6.654,12.773-12.9l16.43-120.806,16.418-120.714a12.85,12.85,0,0,0-.6-3.849l-.023-.072A12.848,12.848,0,0,0,6448.293,75.127Z" transform="translate(-6293.18 -75.023)" fill="#fff" opacity="0.024"/>
            <path id="Path_4958" data-name="Path 4958" d="M6448.489,75.349a12.74,12.74,0,0,1,4.867,5.844,13.143,13.143,0,0,1,.954,4.948l-16.4,120.567-16.431,120.8c-1.226,5.873-4.932,12.2-11.663,12.788-.338.031-.734.047-1.088.047H6304.34a13.169,13.169,0,0,1-4.532-.8,12.728,12.728,0,0,1-6.3-5.051,12.821,12.821,0,0,0,2.749,1.241,13.177,13.177,0,0,0,3.97.611h104.457c7.49.007,11.5-6.618,12.8-12.918l16.431-120.807L6450.318,82a13.137,13.137,0,0,0-.57-3.847c-.008-.022-.015-.049-.022-.072A12.845,12.845,0,0,0,6448.489,75.349Z" transform="translate(-6293.299 -75.141)" fill="#fff" opacity="0.049"/>
            <path id="Path_4959" data-name="Path 4959" d="M6448.684,75.572a12.687,12.687,0,0,1,4.8,5.871,13.493,13.493,0,0,1,.913,4.945l-16.382,120.448-16.43,120.8c-1.226,5.871-4.932,12.194-11.665,12.768-.33.03-.742.046-1.087.046H6304.576a13.449,13.449,0,0,1-4.525-.78,12.682,12.682,0,0,1-6.321-4.982,12.829,12.829,0,0,0,2.754,1.218,13.517,13.517,0,0,0,3.97.6h104.36c7.524.011,11.521-6.583,12.823-12.939l16.431-120.809L6450.46,82.22a13.407,13.407,0,0,0-.542-3.844c-.007-.022-.014-.049-.022-.072A12.829,12.829,0,0,0,6448.684,75.572Z" transform="translate(-6293.417 -75.26)" fill="#fff" opacity="0.073"/>
            <path id="Path_4960" data-name="Path 4960" d="M6448.878,75.794a12.63,12.63,0,0,1,4.74,5.9,13.775,13.775,0,0,1,.872,4.942l-16.366,120.33-16.43,120.8c-1.225,5.867-4.932,12.189-11.667,12.747-.32.029-.75.045-1.084.045H6304.81a13.756,13.756,0,0,1-4.518-.76,12.636,12.636,0,0,1-6.341-4.913,12.9,12.9,0,0,0,2.76,1.194,13.88,13.88,0,0,0,3.97.579h104.265c7.559.014,11.541-6.547,12.847-12.958l16.431-120.811L6450.6,82.444a13.785,13.785,0,0,0-.515-3.842c-.007-.022-.014-.05-.022-.072A12.825,12.825,0,0,0,6448.878,75.794Z" transform="translate(-6293.535 -75.378)" fill="#fff" opacity="0.098"/>
            <path id="Path_4961" data-name="Path 4961" d="M6449.074,76.016a12.583,12.583,0,0,1,4.675,5.927,14.121,14.121,0,0,1,.83,4.938l-16.35,120.212-16.429,120.8c-1.224,5.864-4.933,12.183-11.669,12.727-.312.029-.756.043-1.083.043h-104a14.076,14.076,0,0,1-4.511-.739,12.588,12.588,0,0,1-6.36-4.845,12.825,12.825,0,0,0,2.766,1.171,14.233,14.233,0,0,0,3.969.564h104.168c7.595.018,11.562-6.512,12.873-12.978l16.431-120.812,16.369-120.356a14.149,14.149,0,0,0-.486-3.839c-.007-.021-.015-.051-.021-.072A12.9,12.9,0,0,0,6449.074,76.016Z" transform="translate(-6293.653 -75.496)" fill="#fff" opacity="0.122"/>
            <path id="Path_4962" data-name="Path 4962" d="M6449.269,76.238a12.531,12.531,0,0,1,4.611,5.955,14.476,14.476,0,0,1,.79,4.935l-16.334,120.093-16.429,120.8c-1.224,5.862-4.932,12.178-11.671,12.707-.3.028-.765.042-1.082.042H6305.279a14.431,14.431,0,0,1-4.5-.718,12.543,12.543,0,0,1-6.38-4.777,12.873,12.873,0,0,0,2.771,1.148,14.627,14.627,0,0,0,3.968.548h104.071c7.629.022,11.583-6.476,12.9-13l16.431-120.814,16.357-120.266a14.532,14.532,0,0,0-.459-3.836c-.007-.021-.013-.051-.021-.072A12.864,12.864,0,0,0,6449.269,76.238Z" transform="translate(-6293.772 -75.615)" fill="#fff" opacity="0.146"/>
            <path id="Path_4963" data-name="Path 4963" d="M6449.464,76.461a12.483,12.483,0,0,1,4.548,5.983,14.9,14.9,0,0,1,.748,4.932L6438.442,207.35l-16.43,120.8c-1.223,5.859-4.931,12.172-11.672,12.686-.294.027-.772.041-1.081.041H6305.515a14.784,14.784,0,0,1-4.5-.7,12.491,12.491,0,0,1-6.4-4.708,12.877,12.877,0,0,0,2.777,1.124,15.046,15.046,0,0,0,3.967.532h103.975c7.666.026,11.6-6.44,12.921-13.018l16.431-120.816,16.345-120.176a14.944,14.944,0,0,0-.431-3.834c-.007-.02-.013-.052-.021-.072A12.856,12.856,0,0,0,6449.464,76.461Z" transform="translate(-6293.891 -75.733)" fill="#fff" opacity="0.171"/>
            <path id="Path_4964" data-name="Path 4964" d="M6449.659,76.683a12.447,12.447,0,0,1,4.483,6.01,15.279,15.279,0,0,1,.707,4.929l-16.3,119.856-16.429,120.8c-1.222,5.856-4.932,12.167-11.674,12.666-.286.026-.78.04-1.08.04H6305.749a15.183,15.183,0,0,1-4.49-.678,12.451,12.451,0,0,1-6.419-4.639,12.894,12.894,0,0,0,2.782,1.1,15.486,15.486,0,0,0,3.967.517h103.879c7.7.029,11.625-6.4,12.945-13.038l16.432-120.818,16.333-120.086a15.36,15.36,0,0,0-.4-3.831c-.006-.019-.012-.052-.019-.072A12.894,12.894,0,0,0,6449.659,76.683Z" transform="translate(-6294.008 -75.852)" fill="#fff" opacity="0.195"/>
            <path id="Path_4965" data-name="Path 4965" d="M6449.853,76.9a12.4,12.4,0,0,1,4.421,6.038,15.771,15.771,0,0,1,.665,4.925l-16.285,119.738-16.43,120.8c-1.222,5.853-4.932,12.162-11.676,12.645-.276.025-.788.038-1.078.038H6305.982a15.585,15.585,0,0,1-4.482-.657,12.4,12.4,0,0,1-6.438-4.57,12.9,12.9,0,0,0,2.787,1.077,15.959,15.959,0,0,0,3.966.5H6405.6c7.736.033,11.646-6.369,12.97-13.058L6435,203.559l16.32-120a15.76,15.76,0,0,0-.376-3.829c-.006-.019-.012-.053-.018-.072A12.913,12.913,0,0,0,6449.853,76.9Z" transform="translate(-6294.126 -75.97)" fill="#fff" opacity="0.22"/>
            <path id="Path_4966" data-name="Path 4966" d="M6450.048,77.128a12.343,12.343,0,0,1,4.356,6.066,16.2,16.2,0,0,1,.624,4.922L6438.76,207.735,6422.33,328.53c-1.221,5.85-4.932,12.157-11.678,12.625-.269.025-.8.037-1.077.037H6306.218a16.031,16.031,0,0,1-4.477-.636,12.362,12.362,0,0,1-6.458-4.5,12.9,12.9,0,0,0,2.793,1.054,16.47,16.47,0,0,0,3.965.485h103.687c7.771.036,11.667-6.334,12.994-13.078l16.433-120.821,16.309-119.907a16.287,16.287,0,0,0-.349-3.826c-.006-.018-.012-.054-.018-.072A12.879,12.879,0,0,0,6450.048,77.128Z" transform="translate(-6294.245 -76.089)" fill="#fff" opacity="0.244"/>
            <path id="Path_4967" data-name="Path 4967" d="M6450.243,77.35a12.307,12.307,0,0,1,4.293,6.094,16.729,16.729,0,0,1,.583,4.919l-16.253,119.5-16.429,120.794c-1.221,5.847-4.932,12.151-11.679,12.6-.26.024-.8.036-1.076.036H6306.453a16.509,16.509,0,0,1-4.469-.616,12.322,12.322,0,0,1-6.478-4.434,12.9,12.9,0,0,0,2.8,1.03,17,17,0,0,0,3.965.47H6405.86c7.8.04,11.688-6.3,13.018-13.1l16.433-120.823,16.3-119.817a16.853,16.853,0,0,0-.321-3.824c-.005-.017-.011-.054-.017-.072A12.948,12.948,0,0,0,6450.243,77.35Z" transform="translate(-6294.363 -76.207)" fill="#fff" opacity="0.268"/>
            <path id="Path_4968" data-name="Path 4968" d="M6450.438,77.572a12.261,12.261,0,0,1,4.229,6.121,17.224,17.224,0,0,1,.541,4.915l-16.236,119.383-16.429,120.793c-1.221,5.845-4.933,12.146-11.682,12.584-.251.023-.812.035-1.074.035h-103.1a17.014,17.014,0,0,1-4.462-.6,12.286,12.286,0,0,1-6.5-4.365,12.948,12.948,0,0,0,2.8,1.007,17.58,17.58,0,0,0,3.965.454h103.5c7.84.044,11.708-6.263,13.042-13.117l16.433-120.825,16.285-119.728a17.372,17.372,0,0,0-.293-3.821c-.006-.017-.011-.055-.017-.072A12.938,12.938,0,0,0,6450.438,77.572Z" transform="translate(-6294.48 -76.325)" fill="#fff" opacity="0.293"/>
            <path id="Path_4969" data-name="Path 4969" d="M6450.633,77.795a12.215,12.215,0,0,1,4.164,6.149,17.841,17.841,0,0,1,.5,4.912L6439.077,208.12l-16.429,120.792c-1.221,5.841-4.932,12.14-11.683,12.564-.243.022-.82.034-1.074.034h-102.97a17.547,17.547,0,0,1-4.455-.575,12.245,12.245,0,0,1-6.517-4.3,12.958,12.958,0,0,0,2.81.983,18.206,18.206,0,0,0,3.964.438h103.4c7.875.048,11.73-6.227,13.068-13.137L6435.623,204.1l16.272-119.638a17.932,17.932,0,0,0-.266-3.819c0-.016-.01-.055-.015-.072A12.941,12.941,0,0,0,6450.633,77.795Z" transform="translate(-6294.6 -76.444)" fill="#fff" opacity="0.317"/>
            <path id="Path_4970" data-name="Path 4970" d="M6450.828,78.017a12.185,12.185,0,0,1,4.1,6.177,18.534,18.534,0,0,1,.458,4.909l-16.2,119.146L6422.754,329.04c-1.22,5.839-4.932,12.135-11.686,12.543-.233.022-.827.032-1.071.032H6307.156a18.147,18.147,0,0,1-4.448-.554,12.2,12.2,0,0,1-6.536-4.228,12.941,12.941,0,0,0,2.815.96,18.848,18.848,0,0,0,3.963.423h103.3c7.91.051,11.75-6.191,13.091-13.157l16.435-120.828,16.259-119.549a18.67,18.67,0,0,0-.237-3.816c-.006-.015-.01-.056-.016-.072A12.958,12.958,0,0,0,6450.828,78.017Z" transform="translate(-6294.718 -76.562)" fill="#fff" opacity="0.341"/>
            <path id="Path_4971" data-name="Path 4971" d="M6451.023,78.239a12.146,12.146,0,0,1,4.036,6.205c.417.965.412,3.789.417,4.905l-16.188,119.027L6422.86,329.167c-1.219,5.836-4.932,12.13-11.687,12.523-.225.021-.835.031-1.07.031H6307.391a18.768,18.768,0,0,1-4.441-.534,12.164,12.164,0,0,1-6.556-4.159,12.963,12.963,0,0,0,2.82.937,19.576,19.576,0,0,0,3.962.407h103.206c7.946.055,11.772-6.156,13.116-13.177l16.435-120.83,16.248-119.459a19.394,19.394,0,0,0-.21-3.813c-.005-.015-.01-.057-.014-.072A13.035,13.035,0,0,0,6451.023,78.239Z" transform="translate(-6294.836 -76.68)" fill="#fff" opacity="0.366"/>
            <path id="Path_4972" data-name="Path 4972" d="M6451.217,78.461a12.1,12.1,0,0,1,3.973,6.233c.4.928.37,3.829.376,4.9l-16.172,118.909-16.429,120.789c-1.218,5.833-4.932,12.125-11.688,12.5-.216.02-.842.03-1.069.03H6307.625a19.437,19.437,0,0,1-4.434-.513,12.132,12.132,0,0,1-6.576-4.091,13,13,0,0,0,2.827.913,20.355,20.355,0,0,0,3.961.391h103.11c7.98.058,11.792-6.12,13.141-13.2L6436.089,204.5,6452.324,85.13a20.066,20.066,0,0,0-.183-3.811c0-.015-.01-.058-.014-.072A12.99,12.99,0,0,0,6451.217,78.461Z" transform="translate(-6294.953 -76.798)" fill="#fff" opacity="0.39"/>
            <path id="Path_4973" data-name="Path 4973" d="M6451.411,78.684a12.07,12.07,0,0,1,3.91,6.261c.385.89.329,3.868.335,4.9L6439.5,208.634l-16.428,120.789c-1.218,5.83-4.932,12.119-11.691,12.482-.207.019-.85.029-1.067.029H6307.86a20.2,20.2,0,0,1-4.427-.492,12.094,12.094,0,0,1-6.595-4.022,13.012,13.012,0,0,0,2.832.889,21.169,21.169,0,0,0,3.961.376h103.013c8.016.062,11.814-6.084,13.165-13.217l16.435-120.833,16.223-119.28a20.961,20.961,0,0,0-.155-3.808c0-.014-.009-.058-.014-.072A12.927,12.927,0,0,0,6451.411,78.684Z" transform="translate(-6295.072 -76.917)" fill="#fff" opacity="0.415"/>
            <path id="Path_4974" data-name="Path 4974" d="M6451.608,78.906a12.043,12.043,0,0,1,3.845,6.288c.369.853.288,3.909.293,4.9l-16.14,118.672-16.428,120.787c-1.217,5.827-4.932,12.114-11.692,12.462-.2.018-.858.028-1.067.028H6308.1a20.987,20.987,0,0,1-4.42-.472,12.067,12.067,0,0,1-6.614-3.954,13.046,13.046,0,0,0,2.836.866,22.119,22.119,0,0,0,3.961.36h102.917c8.052.066,11.835-6.049,13.189-13.236L6436.4,204.768l16.211-119.19a21.805,21.805,0,0,0-.127-3.806c0-.014-.009-.058-.013-.072A13.074,13.074,0,0,0,6451.608,78.906Z" transform="translate(-6295.191 -77.035)" fill="#fff" opacity="0.439"/>
            <path id="Path_4975" data-name="Path 4975" d="M6451.8,79.128a12,12,0,0,1,3.78,6.316c.354.816.248,3.948.253,4.892L6439.712,208.89l-16.428,120.787c-1.217,5.824-4.931,12.109-11.694,12.441-.189.018-.866.027-1.064.027h-102.2a21.847,21.847,0,0,1-4.412-.452,12.025,12.025,0,0,1-6.634-3.885,13.033,13.033,0,0,0,2.842.843,23.124,23.124,0,0,0,3.96.344h102.82c8.086.07,11.856-6.013,13.214-13.257L6436.556,204.9l16.2-119.1a22.934,22.934,0,0,0-.1-3.8c0-.013-.009-.059-.013-.072A13.1,13.1,0,0,0,6451.8,79.128Z" transform="translate(-6295.31 -77.153)" fill="#fff" opacity="0.463"/>
            <path id="Path_4976" data-name="Path 4976" d="M6452,79.351a11.974,11.974,0,0,1,3.717,6.344c.337.779.206,3.988.21,4.889l-16.107,118.435L6423.39,329.8c-1.216,5.821-4.931,12.1-11.7,12.421-.182.017-.874.025-1.064.025H6308.564a22.828,22.828,0,0,1-4.406-.431,12,12,0,0,1-6.652-3.817,13.05,13.05,0,0,0,2.848.819,24.182,24.182,0,0,0,3.959.329h102.724c8.122.073,11.877-5.978,13.239-13.277l16.436-120.839L6452.9,86.026a24.065,24.065,0,0,0-.072-3.8c0-.012-.008-.059-.012-.072A13.046,13.046,0,0,0,6452,79.351Z" transform="translate(-6295.428 -77.272)" fill="#fff" opacity="0.488"/>
            <path id="Path_4977" data-name="Path 4977" d="M6452.192,79.573a11.936,11.936,0,0,1,3.653,6.372c.321.742.165,4.027.169,4.886l-16.091,118.317L6423.5,329.932c-1.216,5.818-4.931,12.1-11.7,12.4-.173.016-.882.024-1.063.024H6308.8a23.92,23.92,0,0,1-4.4-.411,11.968,11.968,0,0,1-6.672-3.748,13.1,13.1,0,0,0,2.853.8,25.413,25.413,0,0,0,3.959.313h102.628c8.156.077,11.9-5.942,13.263-13.3l16.436-120.841,16.174-118.921a25.13,25.13,0,0,0-.044-3.8c0-.012-.008-.06-.011-.072A13.07,13.07,0,0,0,6452.192,79.573Z" transform="translate(-6295.546 -77.39)" fill="#fff" opacity="0.512"/>
            <path id="Path_4978" data-name="Path 4978" d="M6452.388,79.795a11.906,11.906,0,0,1,3.589,6.4c.3.7.125,4.067.129,4.882l-16.076,118.2L6423.6,330.06c-1.216,5.815-4.931,12.093-11.7,12.38-.165.015-.89.023-1.062.023H6309.034a25.083,25.083,0,0,1-4.392-.39,11.94,11.94,0,0,1-6.692-3.679,13.1,13.1,0,0,0,2.859.772,26.75,26.75,0,0,0,3.958.3H6407.3c8.192.08,11.918-5.906,13.288-13.316L6437.022,205.3l16.163-118.831a26.581,26.581,0,0,0-.016-3.8c0-.011-.008-.061-.012-.072A13.121,13.121,0,0,0,6452.388,79.795Z" transform="translate(-6295.664 -77.508)" fill="#fff" opacity="0.537"/>
            <path id="Path_4979" data-name="Path 4979" d="M6452.583,80.018a11.885,11.885,0,0,1,3.526,6.427c.288.668.082,4.106.086,4.879L6440.136,209.4l-16.428,120.783c-1.215,5.813-4.931,12.088-11.7,12.359-.156.015-.9.022-1.061.022H6309.269a26.418,26.418,0,0,1-4.385-.369,11.917,11.917,0,0,1-6.712-3.611,13.137,13.137,0,0,0,2.865.749,28.2,28.2,0,0,0,3.957.282H6407.43c8.226.084,11.939-5.871,13.312-13.336l16.436-120.844L6453.328,86.7a28.041,28.041,0,0,0,.011-3.793c0-.01-.007-.061-.01-.072A13.1,13.1,0,0,0,6452.583,80.018Z" transform="translate(-6295.782 -77.627)" fill="#fff" opacity="0.561"/>
            <path id="Path_4980" data-name="Path 4980" d="M6452.777,80.24a11.851,11.851,0,0,1,3.461,6.455c.273.631.042,4.146.047,4.876l-16.044,117.961-16.427,120.783c-1.214,5.81-4.931,12.082-11.7,12.339-.147.014-.906.021-1.06.021H6309.5a27.886,27.886,0,0,1-4.378-.349,11.88,11.88,0,0,1-6.73-3.543,13.1,13.1,0,0,0,2.869.726,29.905,29.905,0,0,0,3.957.266H6407.56c8.262.088,11.961-5.835,13.336-13.356l16.437-120.846,16.138-118.652a29.773,29.773,0,0,0,.04-3.791c0-.01-.007-.062-.01-.072A13.161,13.161,0,0,0,6452.777,80.24Z" transform="translate(-6295.901 -77.745)" fill="#fff" opacity="0.585"/>
            <path id="Path_4981" data-name="Path 4981" d="M6452.971,80.462a11.829,11.829,0,0,1,3.4,6.483c.257.594,0,4.186,0,4.872l-16.027,117.843L6423.92,330.442c-1.213,5.807-4.931,12.077-11.7,12.319-.139.013-.913.019-1.058.019h-101.42a29.5,29.5,0,0,1-4.371-.328,11.854,11.854,0,0,1-6.75-3.474,13.168,13.168,0,0,0,2.875.7,31.773,31.773,0,0,0,3.956.25H6407.69c8.3.092,11.982-5.8,13.361-13.376l16.437-120.847,16.126-118.562a31.528,31.528,0,0,0,.066-3.789c0-.009-.006-.062-.009-.072A13.124,13.124,0,0,0,6452.971,80.462Z" transform="translate(-6296.019 -77.864)" fill="#fff" opacity="0.61"/>
            <path id="Path_4982" data-name="Path 4982" d="M6453.167,80.684A11.8,11.8,0,0,1,6456.5,87.2c.241.556-.04,4.225-.036,4.869l-16.012,117.725-16.426,120.781c-1.213,5.8-4.931,12.071-11.707,12.3-.129.012-.92.018-1.056.018H6309.973a31.433,31.433,0,0,1-4.364-.308,11.831,11.831,0,0,1-6.77-3.405,13.208,13.208,0,0,0,2.881.678,33.863,33.863,0,0,0,3.956.235h102.146c8.332.095,12-5.764,13.385-13.4l16.438-120.849,16.114-118.473a33.835,33.835,0,0,0,.095-3.785c0-.009-.006-.063-.008-.072A13.149,13.149,0,0,0,6453.167,80.684Z" transform="translate(-6296.137 -77.982)" fill="#fff" opacity="0.634"/>
            <path id="Path_4983" data-name="Path 4983" d="M6453.361,80.907a11.794,11.794,0,0,1,3.271,6.539c.225.52-.081,4.265-.078,4.866l-16,117.606L6424.132,330.7c-1.212,5.8-4.931,12.066-11.708,12.278-.121.011-.93.017-1.056.017H6310.207a33.549,33.549,0,0,1-4.356-.288,11.81,11.81,0,0,1-6.79-3.336,13.211,13.211,0,0,0,2.887.655,36.326,36.326,0,0,0,3.954.219h102.051c8.367.1,12.023-5.729,13.409-13.416l16.438-120.85,16.1-118.383a36.127,36.127,0,0,0,.123-3.783c0-.008-.006-.064-.009-.072A13.134,13.134,0,0,0,6453.361,80.907Z" transform="translate(-6296.255 -78.1)" fill="#fff" opacity="0.659"/>
            <path id="Path_4984" data-name="Path 4984" d="M6453.557,81.129a11.764,11.764,0,0,1,3.207,6.567,38.748,38.748,0,0,1-.12,4.862l-15.979,117.488-16.426,120.779c-1.212,5.8-4.931,12.061-11.71,12.257-.112.01-.937.015-1.055.015H6310.441a36.023,36.023,0,0,1-4.35-.267,11.788,11.788,0,0,1-6.809-3.268,13.261,13.261,0,0,0,2.892.632,39.186,39.186,0,0,0,3.955.2h101.955c8.4.1,12.043-5.693,13.434-13.436l16.438-120.852,16.09-118.294c0-.426.276-3.4.149-3.78,0-.007,0-.065-.007-.072A13.191,13.191,0,0,0,6453.557,81.129Z" transform="translate(-6296.374 -78.219)" fill="#fff" opacity="0.683"/>
            <path id="Path_4985" data-name="Path 4985" d="M6453.751,81.351a11.744,11.744,0,0,1,3.143,6.595,42.148,42.148,0,0,1-.161,4.859l-15.963,117.369-16.426,120.778c-1.211,5.8-4.931,12.056-11.712,12.237-.1.009-.944.015-1.053.015h-100.9a38.977,38.977,0,0,1-4.343-.246,11.77,11.77,0,0,1-6.829-3.2,13.26,13.26,0,0,0,2.9.608c.365.122,3.547.188,3.953.188h101.858c8.438.106,12.066-5.658,13.459-13.455l16.438-120.854,16.078-118.2c0-.393.293-3.422.177-3.778,0-.007-.005-.065-.007-.072A13.219,13.219,0,0,0,6453.751,81.351Z" transform="translate(-6296.492 -78.337)" fill="#fff" opacity="0.707"/>
            <path id="Path_4986" data-name="Path 4986" d="M6453.947,81.574a11.726,11.726,0,0,1,3.079,6.622,45.931,45.931,0,0,1-.2,4.856L6440.877,210.3,6424.452,331.08c-1.211,5.792-4.931,12.05-11.715,12.216-.095.009-.952.014-1.052.014H6310.912a42.4,42.4,0,0,1-4.336-.226,11.746,11.746,0,0,1-6.847-3.131,13.273,13.273,0,0,0,2.9.585c.335.111,3.581.172,3.953.172h101.762c8.472.11,12.086-5.621,13.483-13.475l16.438-120.856,16.065-118.114c0-.361.312-3.45.205-3.775,0-.007,0-.065-.006-.072A13.3,13.3,0,0,0,6453.947,81.574Z" transform="translate(-6296.611 -78.456)" fill="#fff" opacity="0.732"/>
            <path id="Path_4987" data-name="Path 4987" d="M6454.142,81.8a11.7,11.7,0,0,1,3.014,6.65c.161.371-.244,4.423-.243,4.852l-15.93,117.132-16.426,120.776c-1.211,5.79-4.931,12.045-11.716,12.2-.087.008-.96.012-1.051.012H6311.146c-.391,0-3.984-.072-4.329-.205a11.726,11.726,0,0,1-6.867-3.062,13.319,13.319,0,0,0,2.907.562c.306.1,3.614.157,3.952.157h101.666c8.508.113,12.108-5.586,13.508-13.5l16.439-120.858,16.053-118.024c0-.328.33-3.477.232-3.773,0-.006,0-.066-.005-.072A13.35,13.35,0,0,0,6454.142,81.8Z" transform="translate(-6296.729 -78.574)" fill="#fff" opacity="0.756"/>
            <path id="Path_4988" data-name="Path 4988" d="M6454.337,82.018a11.7,11.7,0,0,1,2.95,6.678c.145.334-.286,4.463-.284,4.849l-15.915,117.014-16.426,120.776c-1.21,5.787-4.93,12.039-11.717,12.175-.078.007-.968.011-1.049.011H6311.381c-.352,0-4.012-.065-4.322-.185a11.708,11.708,0,0,1-6.887-2.994,13.311,13.311,0,0,0,2.914.538c.274.091,3.646.141,3.951.141h101.569c8.543.117,12.129-5.551,13.532-13.515l16.438-120.86,16.041-117.934c0-.3.348-3.5.261-3.77,0-.005,0-.066-.006-.072A13.263,13.263,0,0,0,6454.337,82.018Z" transform="translate(-6296.847 -78.692)" fill="#fff" opacity="0.78"/>
            <path id="Path_4989" data-name="Path 4989" d="M6454.531,82.241a11.676,11.676,0,0,1,2.887,6.705c.129.3-.327,4.5-.325,4.846l-15.9,116.9-16.426,120.774c-1.21,5.784-4.931,12.034-11.719,12.155-.07.007-.976.01-1.048.01H6311.615c-.313,0-4.039-.058-4.315-.165a11.692,11.692,0,0,1-6.906-2.925,13.357,13.357,0,0,0,2.919.515c.244.081,3.68.125,3.951.125h101.473c8.577.121,12.149-5.515,13.557-13.535l16.439-120.861,16.028-117.845c0-.262.366-3.531.289-3.768,0,0,0-.067,0-.072A13.37,13.37,0,0,0,6454.531,82.241Z" transform="translate(-6296.965 -78.811)" fill="#fff" opacity="0.805"/>
            <path id="Path_4990" data-name="Path 4990" d="M6454.726,82.463a11.663,11.663,0,0,1,2.824,6.734c.112.26-.369,4.542-.367,4.842L6441.3,210.816l-16.425,120.774c-1.209,5.781-4.931,12.029-11.722,12.135-.06.006-.982.008-1.046.008H6311.851c-.274,0-4.068-.051-4.309-.144a11.677,11.677,0,0,1-6.926-2.857,13.415,13.415,0,0,0,2.924.491c.214.071,3.713.109,3.95.109h101.377c8.612.124,12.17-5.479,13.581-13.555l16.439-120.863L6454.9,89.16c0-.23.384-3.558.316-3.765,0,0,0-.068,0-.072A13.315,13.315,0,0,0,6454.726,82.463Z" transform="translate(-6297.083 -78.929)" fill="#fff" opacity="0.829"/>
            <path id="Path_4991" data-name="Path 4991" d="M6454.922,82.685a11.652,11.652,0,0,1,2.759,6.762c.1.223-.409,4.582-.408,4.839l-15.866,116.659-16.426,120.772c-1.209,5.778-4.931,12.024-11.723,12.115-.052,0-.991.007-1.046.007H6312.085c-.234,0-4.095-.043-4.3-.123a11.666,11.666,0,0,1-6.945-2.788,13.4,13.4,0,0,0,2.93.468c.183.061,3.747.094,3.95.094H6409c8.647.128,12.191-5.444,13.606-13.575l16.439-120.865,16-117.666c0-.2.4-3.585.344-3.762,0,0,0-.069,0-.072A13.432,13.432,0,0,0,6454.922,82.685Z" transform="translate(-6297.203 -79.047)" fill="#fff" opacity="0.854"/>
            <path id="Path_4992" data-name="Path 4992" d="M6455.116,82.908a11.647,11.647,0,0,1,2.7,6.789c.079.185-.451,4.621-.45,4.836l-15.85,116.54-16.427,120.772c-1.207,5.775-4.93,12.018-11.724,12.094-.044,0-1,.006-1.044.006h-100c-.2,0-4.121-.036-4.293-.1a11.659,11.659,0,0,1-6.966-2.72,13.479,13.479,0,0,0,2.936.444c.152.05,3.78.079,3.949.079H6409.13c8.683.131,12.212-5.408,13.63-13.6L6439.2,207.184l15.992-117.576c0-.164.42-3.612.371-3.76,0,0,0-.069,0-.072A13.426,13.426,0,0,0,6455.116,82.908Z" transform="translate(-6297.32 -79.166)" fill="#fff" opacity="0.878"/>
            <path id="Path_4993" data-name="Path 4993" d="M6455.312,83.13a11.627,11.627,0,0,1,2.631,6.817c.064.149-.491,4.661-.49,4.833L6441.619,211.2l-16.427,120.77c-1.207,5.773-4.93,12.013-11.727,12.074-.034,0-1.006.005-1.043.005h-99.869c-.156,0-4.148-.029-4.287-.082a11.639,11.639,0,0,1-6.983-2.651,13.465,13.465,0,0,0,2.941.421c.121.04,3.813.063,3.948.063h101.088c8.717.135,12.232-5.373,13.654-13.615l16.44-120.868,15.979-117.487c0-.131.438-3.639.4-3.757,0,0,0-.07,0-.072A13.519,13.519,0,0,0,6455.312,83.13Z" transform="translate(-6297.439 -79.284)" fill="#fff" opacity="0.902"/>
            <path id="Path_4994" data-name="Path 4994" d="M6455.506,83.352a11.626,11.626,0,0,1,2.568,6.845c.048.111-.533,4.7-.532,4.829l-15.818,116.3L6425.3,332.1c-1.207,5.769-4.93,12.008-11.728,12.053-.026,0-1.015,0-1.042,0h-99.74c-.118,0-4.177-.022-4.28-.062a11.634,11.634,0,0,1-7-2.583,13.492,13.492,0,0,0,2.946.4c.092.03,3.846.047,3.948.047h100.992c8.752.139,12.254-5.337,13.679-13.635l16.44-120.87,15.968-117.4c0-.1.456-3.666.427-3.755l0-.072A13.486,13.486,0,0,0,6455.506,83.352Z" transform="translate(-6297.557 -79.402)" fill="#fff" opacity="0.927"/>
            <path id="Path_4995" data-name="Path 4995" d="M6455.7,83.574a11.617,11.617,0,0,1,2.5,6.873c.033.074-.573,4.74-.572,4.826l-15.8,116.185L6425.4,332.226c-1.206,5.767-4.93,12-11.73,12.033-.017,0-1.022,0-1.04,0h-99.611c-.078,0-4.2-.014-4.273-.041a11.625,11.625,0,0,1-7.023-2.514,13.538,13.538,0,0,0,2.952.374c.062.021,3.88.031,3.948.031h100.9c8.789.143,12.276-5.3,13.7-13.655l16.44-120.871,15.956-117.307c0-.066.474-3.693.455-3.753l0-.072A13.554,13.554,0,0,0,6455.7,83.574Z" transform="translate(-6297.675 -79.52)" fill="#fff" opacity="0.951"/>
            <path id="Path_4996" data-name="Path 4996" d="M6455.9,83.8a11.608,11.608,0,0,1,2.44,6.9c.016.037-.615,4.779-.614,4.822l-15.786,116.066L6425.51,332.354c-1.206,5.764-4.931,12-11.732,12.012H6313.257c-.039,0-4.231-.007-4.265-.021a11.625,11.625,0,0,1-7.043-2.446,13.585,13.585,0,0,0,2.958.351c.031.01,3.913.015,3.947.015h100.8c8.823.146,12.3-5.266,13.728-13.674l16.44-120.873L6455.765,90.5c0-.033.491-3.72.481-3.75v-.072A13.514,13.514,0,0,0,6455.9,83.8Z" transform="translate(-6297.792 -79.639)" fill="#fff" opacity="0.976"/>
            <path id="Path_4997" data-name="Path 4997" d="M6309.233,344.474a11.613,11.613,0,0,1-7.062-2.377,13.625,13.625,0,0,0,2.962.327h104.65c8.858.15,12.317-5.23,13.752-13.694l16.441-120.875,16.441-120.875v-.072a13.58,13.58,0,0,0-.328-2.888,11.609,11.609,0,0,1,2.376,6.928l-16.425,120.767-16.425,120.767c-1.205,5.761-4.931,11.992-11.733,11.992h-104.65Z" transform="translate(-6297.912 -79.757)" fill="#fff"/>
          </g>
          <path id="Path_4998" data-name="Path 4998" d="M6486.519,92.2h-33.725a.9.9,0,0,1-.779-1.342h0a.9.9,0,0,1,.779-.452h33.725a.9.9,0,0,1,.778,1.342h0A.9.9,0,0,1,6486.519,92.2Z" transform="translate(-6374.527 -80.017)" fill="#92b8f4"/>
          <path id="Path_4999" data-name="Path 4999" d="M6600.154,89.061a4.782,4.782,0,1,1-3.746-6.053A5.049,5.049,0,0,1,6600.154,89.061Z" transform="translate(-6448.427 -76.044)" fill="#92b8f4"/>
        </g>
        <path id="Path_5021" data-name="Path 5021" d="M6387.946,116.568a.227.227,0,0,1,0-.025,3.725,3.725,0,0,0-.142-.536l0-.007a3.6,3.6,0,0,0-3.49-2.425h-34.568l-4.223,30.853H6380.7a4.813,4.813,0,0,0,4.311-2.92,4.409,4.409,0,0,0,.331-1.236l2.2-18.741h0l.158-1.348.125-1.071.162-1.383a4.3,4.3,0,0,0,.024-.545c0-.044,0-.087,0-.13A3.811,3.811,0,0,0,6387.946,116.568Z" transform="translate(-6260.202 -92.354)" fill="#08346e" opacity="0.3"/>
        <g id="Group_12385" data-name="Group 12385" transform="translate(67.576 146.76)">
          <g id="Group_1449" data-name="Group 1449" transform="translate(0 0)">
            <rect id="Rectangle_549" data-name="Rectangle 549" width="60.512" height="77.921" rx="2.268" fill="#9ac9f2"/>
            <rect id="Rectangle_550" data-name="Rectangle 550" width="48.984" height="62.392" transform="translate(5.764 7.011)" fill="#fff"/>
            <path id="Path_4345" data-name="Path 4345" d="M5078.067,424.6h-8.609a.432.432,0,0,1-.431-.43h0a.432.432,0,0,1,.431-.431h8.609a.431.431,0,0,1,.43.431h0A.431.431,0,0,1,5078.067,424.6Z" transform="translate(-5043.507 -421.025)" fill="#259ada"/>
          </g>
          <path id="Rectangle_551" data-name="Rectangle 551" d="M0,0H8.256a0,0,0,0,1,0,0V59.753a2.639,2.639,0,0,1-2.639,2.639H0a0,0,0,0,1,0,0V0A0,0,0,0,1,0,0Z" transform="translate(41.183 7.011)" fill="#1067db" opacity="0.2"/>
          <path id="Rectangle_552" data-name="Rectangle 552" d="M0,0H41.912a0,0,0,0,1,0,0V60.427a1.965,1.965,0,0,1-1.965,1.965H0a0,0,0,0,1,0,0V0A0,0,0,0,1,0,0Z" transform="translate(5.764 7.011)" fill="#edf5fc"/>
          <path id="Path_4346" data-name="Path 4346" d="M5139.783,488.188a3.612,3.612,0,0,0-3.478-3.84h-1.49V425.241h1.438a3.529,3.529,0,0,1,3.529,3.529Z" transform="translate(-5092.107 -422.138)" fill="#b5d73c"/>
          <g id="Group_1450" data-name="Group 1450" transform="translate(9.592 11.921)">
            <path id="Path_4347" data-name="Path 4347" d="M5018.533,469.448H5011.8l-1.1,2.43h-2.632l5.78-12.885h2.65l5.779,12.885h-2.65Zm-3.368-7.749-2.393,5.485h4.785Z" transform="translate(-5008.061 -458.993)" fill="#ff5722"/>
          </g>
          <rect id="Rectangle_553" data-name="Rectangle 553" width="16.956" height="2.223" transform="translate(24.227 11.921)" fill="#a5cbef"/>
          <rect id="Rectangle_554" data-name="Rectangle 554" width="16.956" height="2.223" transform="translate(24.188 17.252)" fill="#a5cbef"/>
          <rect id="Rectangle_555" data-name="Rectangle 555" width="16.956" height="2.223" transform="translate(24.149 22.583)" fill="#a5cbef"/>
          <rect id="Rectangle_556" data-name="Rectangle 556" width="31.045" height="2.223" transform="translate(10.021 27.914)" fill="#a5cbef"/>
          <rect id="Rectangle_557" data-name="Rectangle 557" width="31.045" height="2.223" transform="translate(9.95 33.245)" fill="#a5cbef"/>
          <rect id="Rectangle_558" data-name="Rectangle 558" width="31.045" height="2.223" transform="translate(9.878 38.576)" fill="#a5cbef"/>
          <rect id="Rectangle_559" data-name="Rectangle 559" width="31.045" height="2.222" transform="translate(9.807 43.907)" fill="#a5cbef"/>
          <rect id="Rectangle_560" data-name="Rectangle 560" width="31.045" height="2.223" transform="translate(9.735 49.238)" fill="#a5cbef"/>
          <rect id="Rectangle_561" data-name="Rectangle 561" width="31.045" height="2.223" transform="translate(9.664 54.569)" fill="#a5cbef"/>
          <rect id="Rectangle_562" data-name="Rectangle 562" width="31.045" height="2.223" transform="translate(9.592 59.9)" fill="#a5cbef"/>
        </g>
        <g id="Group_1627" data-name="Group 1627" transform="translate(25.573 17.247)">
          <path id="Path_5022" data-name="Path 5022" d="M6307.764,135.929h-86.313a3.621,3.621,0,0,1-3.668-4.156l2.64-22.542a4.8,4.8,0,0,1,4.643-4.156h86.312a3.622,3.622,0,0,1,3.669,4.156l-2.641,22.542A4.8,4.8,0,0,1,6307.764,135.929Z" transform="translate(-6217.753 -105.076)" fill="url(#linear-gradient-2)"/>
          <path id="Path_5023" data-name="Path 5023" d="M6313.6,105.985a3.819,3.819,0,0,1,.382,2.194l-2.641,22.542a4.8,4.8,0,0,1-4.643,4.156h-86.312a3.8,3.8,0,0,1-1.75-.425,3.606,3.606,0,0,0,3.287,1.963h86.313a4.8,4.8,0,0,0,4.642-4.156l2.641-22.542A3.622,3.622,0,0,0,6313.6,105.985Z" transform="translate(-6218.221 -105.56)" fill="#b3cdfa"/>
          <path id="Path_5024" data-name="Path 5024" d="M6313.711,105.076h-85.738a5.134,5.134,0,0,0-4.964,4.443l-.334,2.852H6317.3l.334-2.852A3.873,3.873,0,0,0,6313.711,105.076Z" transform="translate(-6220.373 -105.076)" fill="#b5d73c"/>
          <path id="Path_5025" data-name="Path 5025" d="M6421.6,106.341a3.816,3.816,0,0,1,.312,2.027l-.548,4.677,1.639.662.159-1.348.253-2.166A3.879,3.879,0,0,0,6421.6,106.341Z" transform="translate(-6326.153 -105.749)" fill="#4153bf"/>
          <path id="Path_5026" data-name="Path 5026" d="M6248.5,138.45a8.35,8.35,0,0,1-8.075,7.228,6.3,6.3,0,0,1-6.38-7.228,8.35,8.35,0,0,1,8.074-7.228A6.3,6.3,0,0,1,6248.5,138.45Z" transform="translate(-6226.399 -118.996)" fill="#9fc2f1"/>
          <path id="Path_5027" data-name="Path 5027" d="M6336.065,134.441h-61.551l.228-1.947h61.551Z" transform="translate(-6247.972 -119.674)" fill="#9fc2f1"/>
          <path id="Path_5028" data-name="Path 5028" d="M6334.645,146.563h-61.55l.228-1.947h61.551Z" transform="translate(-6247.217 -126.127)" fill="#9fc2f1"/>
          <path id="Path_5029" data-name="Path 5029" d="M6294.756,158.685h-23.082l.228-1.947h23.082Z" transform="translate(-6246.461 -132.581)" fill="#9fc2f1"/>
          <path id="Path_5030" data-name="Path 5030" d="M6239.9,111.824a1.068,1.068,0,0,1-1.032.924.805.805,0,0,1-.816-.924,1.067,1.067,0,0,1,1.033-.924A.805.805,0,0,1,6239.9,111.824Z" transform="translate(-6228.557 -108.177)" fill="#e3edfe"/>
          <path id="Path_5031" data-name="Path 5031" d="M6248.487,111.824a1.067,1.067,0,0,1-1.032.924.806.806,0,0,1-.816-.924,1.068,1.068,0,0,1,1.033-.924A.806.806,0,0,1,6248.487,111.824Z" transform="translate(-6233.128 -108.177)" fill="#e3edfe"/>
          <path id="Path_5032" data-name="Path 5032" d="M6257.074,111.824a1.068,1.068,0,0,1-1.033.924.806.806,0,0,1-.816-.924,1.069,1.069,0,0,1,1.033-.924A.806.806,0,0,1,6257.074,111.824Z" transform="translate(-6237.7 -108.177)" fill="#e3edfe"/>
        </g>
        <g id="Group_1645" data-name="Group 1645" transform="translate(0 49.733)">
          <path id="Path_5119" data-name="Path 5119" d="M6217.939,240.084s4.769,16.795,0,24.069h14.228s-2.172-20.5,0-21.181Z" transform="translate(-6192.279 -209.439)" fill="#ffcebd"/>
          <path id="Path_5120" data-name="Path 5120" d="M6235.735,243.7l-11.094-2.252a15.639,15.639,0,0,0,2.462,6.652c1.623,2.292,1.569,4.45,2.578,7.071.566,1.47,3,1.893,5.411,2.191C6234.686,251.432,6234.451,244.1,6235.735,243.7Z" transform="translate(-6195.847 -210.164)" fill="#a58877" opacity="0.4"/>
          <path id="Path_5121" data-name="Path 5121" d="M6240.534,212.093s2.858,5.9,2.894,8.644c0,0-.776,5.387.834,7.879a.4.4,0,0,1-.306.635l-1.758.072-.477,3.048a6.465,6.465,0,0,1-6.638,5.459c-2.866-.111-8.269,1.446-9.669-.631-1.57-2.329-2-4.445-4.095-6.315-3.25-2.9-5.841-9.144-4.172-12.181C6217.148,218.7,6224.645,199.214,6240.534,212.093Z" transform="translate(-6191.581 -192.194)" fill="#ffcebd"/>
          <path id="Path_5122" data-name="Path 5122" d="M6240.054,211.9c-1.952-2.455-6.079-3.876-8.8-4.124a11.24,11.24,0,0,0-7.983,2.509c-2.915,2.284-4.4,5.3-6.12,8.437-1.037,1.886-.428,5.008.959,7.8,1.107,5.359,2.506,15.263-.867,20.409h4.776c-.208,0,1.193-4.063,1.271-4.506.366-2.057-.076-4.572-.049-6.676q.083-6.683.7-13.346a2.015,2.015,0,0,1,.516-1.407c.645-.544,1.653-.078,2.21.557s.971,1.455,1.741,1.8c1.261.569,2.692-.474,3.4-1.662s1.081-2.61,2.081-3.565a5.281,5.281,0,0,1,3.681-1.242,4.613,4.613,0,0,0,2.656-.4,2.5,2.5,0,0,0,.819-2.616A4.986,4.986,0,0,0,6240.054,211.9Z" transform="translate(-6191.581 -192.217)" fill="#a58877" opacity="0.4"/>
          <path id="Path_5123" data-name="Path 5123" d="M6189.3,353.994l-22.7-6.49a4.981,4.981,0,0,1-3.074-6.872l21.193-42.645,10.4,10.064-20.081,32.535,17.864,7.591Z" transform="translate(-6163.064 -240.267)" fill="#ffcebd"/>
          <path id="Path_5124" data-name="Path 5124" d="M6194.515,318.119l-4.047,5.348a39.163,39.163,0,0,1-3.4,8.532q-2.963,6.017-5.928,12.034c-1.328,2.7-2.66,5.92-1.246,8.573,1.854,3.479,7.176,4.406,10.542,5.572a27.093,27.093,0,0,0,7.762,1.856,1.846,1.846,0,0,0,.642-.057,1.621,1.621,0,0,0,.947-1.389c-.07-.91-.741-.865-1.512-1.192l-6.128-2.6-8.469-3.6,19.52-31.627A13.424,13.424,0,0,0,6194.515,318.119Z" transform="translate(-6171.702 -250.873)" fill="#a58877" opacity="0.2"/>
          <path id="Path_5125" data-name="Path 5125" d="M6235.3,664.652s-2.489,4.58-.8,8.065l-.59,8.463-13.151-5.874.5-4.082a11,11,0,0,0,5.576-8.364Z" transform="translate(-6193.784 -434.524)" fill="#ffcebd"/>
          <path id="Path_5126" data-name="Path 5126" d="M6231.588,664.788l-4.308-.912a10.488,10.488,0,0,1-5.317,7.976l-.475,3.892,9.321,4.164A4.467,4.467,0,0,0,6230,676.6a13.079,13.079,0,0,1-1.4-1.649,4.57,4.57,0,0,1,.092-3.528A36.545,36.545,0,0,1,6231.588,664.788Z" transform="translate(-6194.169 -435.064)" fill="#a58877" opacity="0.4"/>
          <path id="Path_5127" data-name="Path 5127" d="M6217.891,680.746s4.58,11.052,13.242,1.494l6.372,7.069,6,3.013a3.864,3.864,0,0,1,2.13,3.453h0a2.2,2.2,0,0,1-2.2,2.2h-11.106a9.019,9.019,0,0,1-4.312-1.1l-12.284-6.683a2.5,2.5,0,0,1-1.282-2.557l.348-2.407Z" transform="translate(-6190.411 -444.046)" fill="#64677e"/>
          <path id="Path_5128" data-name="Path 5128" d="M6237.821,429.615l-.627,9.5,11.349,53.285a8.176,8.176,0,0,1-.352,5.214l-21.53,45-8.892-3.379a73.507,73.507,0,0,0,5.563-19.69,46.678,46.678,0,0,1,9.272-21.623l-26.945-43.4,25.042-27.213Z" transform="translate(-6185.742 -309.116)" fill="#11284f"/>
          <path id="Path_5129" data-name="Path 5129" d="M6223.546,443.936l-17.887,19.437,26.945,43.4a46.678,46.678,0,0,0-9.272,21.623,73.507,73.507,0,0,1-5.562,19.691l5.287,2.01c.178.067,2.226-9.217,2.553-10.324,1.558-5.266,4.211-10.116,5.707-15.351,1.234-4.322,5.426-7.867,7.715-11.885a15.524,15.524,0,0,0,1.407-2.936c1.052-3.336-.271-6.965-2.073-9.963-3.291-5.474-5.759-9.815-7.145-16.147a72.277,72.277,0,0,1-1.454-18.257c.147-3.8.493-7.8-1.187-11.211C6227.544,451.917,6221.324,446.35,6223.546,443.936Z" transform="translate(-6185.742 -317.969)" fill="#0c4da4" opacity="0.31"/>
          <path id="Path_5130" data-name="Path 5130" d="M6243.838,701.128h-11.106a9.019,9.019,0,0,1-4.312-1.1l-12.284-6.683a2.5,2.5,0,0,1-1.282-2.557l.163-1.123-.213.309-.348,2.407a2.5,2.5,0,0,0,1.282,2.557l12.284,6.683a9.018,9.018,0,0,0,4.312,1.1h11.106a2.2,2.2,0,0,0,2.2-2.2c0-.1-.013-.207-.022-.31A2.187,2.187,0,0,1,6243.838,701.128Z" transform="translate(-6190.411 -448.796)" fill="#fff"/>
          <path id="Path_5131" data-name="Path 5131" d="M6209.388,662.7s2.852,7.846,1.427,12.957l1.9,6.657,11.292-1.307,1.308-6.062s-7.163-4.28-6.419-12.839S6209.388,662.7,6209.388,662.7Z" transform="translate(-6187.727 -432.176)" fill="#ffcebd"/>
          <path id="Path_5132" data-name="Path 5132" d="M6214.619,676c-.557-2.142.452-4.4.2-6.6-.227-1.977-1.443-3.7-1.9-5.642a9.483,9.483,0,0,1-.217-1.6,30.849,30.849,0,0,0-3.318,2.517s2.852,7.846,1.427,12.957l1.9,6.657,9.829-1.138C6219.859,680.651,6215.535,679.524,6214.619,676Z" transform="translate(-6187.727 -434.15)" fill="#a58877" opacity="0.4"/>
          <path id="Path_5133" data-name="Path 5133" d="M6202.106,408.156s-18.659,17.375-8.958,35.2a23.755,23.755,0,0,1,2.832,11.808c-.162,8.544-1.481,20.073.58,29.7,0,0-3.137,4.078-2.35,19.735.331,6.6,3.617,17.353,3.617,26.546h12.046l1.268-39.624s12.284-45.3,14.5-68.756l3.011-6.768Z" transform="translate(-6177.592 -298.92)" fill="#11284f"/>
          <path id="Path_5134" data-name="Path 5134" d="M6224.937,690.156l11.2,6.323,6.755,1.666a2.529,2.529,0,0,1,1.923,2.454v1.19a1.11,1.11,0,0,1-1.11,1.11h-31.581a2.734,2.734,0,0,1-2.733-2.734v-7.727h1.427s9.971,7.731,11.979-1.293A1.464,1.464,0,0,1,6224.937,690.156Z" transform="translate(-6187.727 -448.955)" fill="#4d5068"/>
          <path id="Path_5135" data-name="Path 5135" d="M6197.913,421.028a14.419,14.419,0,0,0,2.831,9.6,32.29,32.29,0,0,0,2.712,2.882,48.432,48.432,0,0,1,5.163,5.945c11.261,15.609,2.423,33.483-1.01,50.13a79.466,79.466,0,0,0-.748,27.83c.689,4.57,1.772,9.127,1.83,13.733h5.187l1.267-39.624s12.284-45.3,14.5-68.756l3.012-6.768-26.549-7.846a38.568,38.568,0,0,0-6.979,8.706A10.026,10.026,0,0,0,6197.913,421.028Z" transform="translate(-6181.596 -298.92)" fill="#11284f" opacity="0.31"/>
          <path id="Path_5136" data-name="Path 5136" d="M6199.789,351.07s8.011-10.021,3.34-28.187c-1.923-7.477-3.679-15-4.135-22.7a24.045,24.045,0,0,1-.156-3.312c.958-12.164,11.564-14.636,22.831-9.9l.063.026a17.478,17.478,0,0,1,7.9,8.091c.563,1.321,1.56,2.864,4.554,6.386,4.518,5.312,5.944,7.449-2.14,15.929,0,0-.316,25.439,2.127,36.305C6234.177,353.7,6213.269,362.327,6199.789,351.07Z" transform="translate(-6182.097 -233.2)" fill="#eb952f"/>
          <path id="Path_5137" data-name="Path 5137" d="M6228.146,293.141l9.518,21.334a3.362,3.362,0,0,0,4.218,1.8c4.964-1.8,15.031-5.926,21.286-11.66l3.09-8.083,3.091-6.657h0a3.03,3.03,0,0,1,1.015,3l-.777,3.42,10.046-8.791h0a3.1,3.1,0,0,1-.616,3.794l-3.249,3.1,1.284,4.067a5.467,5.467,0,0,1-.869,4.966l-1.73,2.266a14.347,14.347,0,0,1-3.674,3.381l-3.808,2.438s-18.265,12.82-27.776,17.48a5.049,5.049,0,0,1-6.2-1.439c-5.641-7.24-19.415-25.683-19.037-32.683,0,0,.014-.09.047-.252C6215.455,287.527,6225.2,286.535,6228.146,293.141Z" transform="translate(-6190.154 -234.684)" fill="#ffcebd"/>
          <path id="Path_5138" data-name="Path 5138" d="M6217.907,324.642a7.4,7.4,0,0,0-2.2-2.24,27.109,27.109,0,0,1-6.919-7.28c-2.861-4.8-3.206-10.628-4.028-16.159a35.724,35.724,0,0,0-1.95-7.806c-2.2,1.993-3.646,5.006-3.972,9.141a24.034,24.034,0,0,0,.156,3.311c.457,7.706,2.212,15.228,4.135,22.7,4.671,18.166-3.34,28.187-3.34,28.187a26.058,26.058,0,0,0,15.343,5.715c-.015-.39-.041-.779-.079-1.161-.452-4.574-1.952-9.014-2.173-13.6a24.743,24.743,0,0,1,3.175-13.322C6217.384,329.785,6219.152,327.029,6217.907,324.642Z" transform="translate(-6182.097 -236.63)" fill="#fff" opacity="0.2"/>
          <g id="Group_1643" data-name="Group 1643" transform="translate(17.692 114.905)">
            <path id="Path_5139" data-name="Path 5139" d="M6202.656,420.28a17.31,17.31,0,0,1-1.757,2.965c13.479,11.257,34.388,2.629,34.388,2.629-.265-1.18-.5-2.54-.7-4.013C6231.047,423.157,6214.608,428.461,6202.656,420.28Z" transform="translate(-6200.899 -420.28)" fill="#4d5068"/>
          </g>
          <g id="Group_1644" data-name="Group 1644" transform="translate(47.91 116.486)">
            <path id="Path_5140" data-name="Path 5140" d="M6266.219,428.845c2.169-.632,3.474-1.171,3.474-1.171-.265-1.18-.5-2.54-.7-4.013-.7.255-1.9.667-3.468,1.1C6265.731,426.233,6265.962,427.605,6266.219,428.845Z" transform="translate(-6265.524 -423.662)" fill="#e3edfe"/>
          </g>
          <path id="Path_5141" data-name="Path 5141" d="M6267.018,312.887c-4.793,4.616-10.922,7.545-16.934,10.395l-6.075,2.88c-1.738.824-3.6,1.669-5.507,1.39-2.562-.375-4.365-2.633-5.9-4.72l-7.368-10.039a46.157,46.157,0,0,1-4.972-7.824c-1.525-3.311-2.432-7.187-4.279-10.22a7.266,7.266,0,0,0-1.983,3.724c-.033.162-.047.252-.047.252-.378,7,13.4,25.443,19.037,32.683a5.049,5.049,0,0,0,6.2,1.439c9.511-4.66,27.776-17.48,27.776-17.48l3.808-2.438a14.346,14.346,0,0,0,3.674-3.381l1.73-2.266a5.458,5.458,0,0,0,1.1-3.746C6273.258,305.533,6270.358,309.67,6267.018,312.887Z" transform="translate(-6190.154 -238.542)" fill="#a58877" opacity="0.4"/>
          <path id="Path_5142" data-name="Path 5142" d="M6234.88,202.044c-3.5-2.965-7.868-5.123-12.45-5.13-8.979-.013-14.077,8.535-12.378,16.8.77,3.742,2.508,7.2,3.98,10.725.347.831,1.084,1.848,1.9,1.471a1.6,1.6,0,0,0,.554-.513,16.364,16.364,0,0,0,3.294-8.235,6.115,6.115,0,0,1,.55-2.481,1.688,1.688,0,0,1,2.157-.8,2.079,2.079,0,0,1,.69.794c.516.9.863,1.89,1.46,2.733a3.036,3.036,0,0,0,2.581,1.452,14.111,14.111,0,0,0,.886-4.582c.237-1.805,1.472-5.349,3.633-5.524,1.862-.151,3.835,2.351,5.664,1.123a2.522,2.522,0,0,0,.918-2.2C6238.263,205.406,6236.609,203.511,6234.88,202.044Z" transform="translate(-6187.907 -186.456)" fill="#3d4a67"/>
          <path id="Path_5143" data-name="Path 5143" d="M6215.03,178.481a5.694,5.694,0,0,0-4.735-3.924,9.053,9.053,0,0,0-3.818.884,21.268,21.268,0,0,0-4.789,2.447,8.152,8.152,0,0,0-3.15,4.253c-.889,3.219.952,6.593,3.3,8.972a4.442,4.442,0,0,0,1.605,1.163c2.74.971,5.765-1.919,7.723-3.425a10.189,10.189,0,0,0,4.255-8.6A6.448,6.448,0,0,0,6215.03,178.481Z" transform="translate(-6181.829 -174.549)" fill="#3d4a67"/>
          <path id="Path_5144" data-name="Path 5144" d="M6243.7,710.44h-31.581a2.733,2.733,0,0,1-2.733-2.734v1.9a2.734,2.734,0,0,0,2.733,2.734H6243.7a1.11,1.11,0,0,0,1.11-1.11v-1.19a2.453,2.453,0,0,0-.049-.474A1.093,1.093,0,0,1,6243.7,710.44Z" transform="translate(-6187.727 -458.399)" fill="#e5e5e5"/>
        </g>
      </g>
      <g id="Group_12830" data-name="Group 12830" transform="translate(498.707 5476.65)">
        <rect id="Rectangle_2881" data-name="Rectangle 2881" width="49.91" height="43.554" rx="7.493" fill="#fff"/>
        <path id="Path_15286" data-name="Path 15286" d="M13651.348,10951.417h-41.6a4.155,4.155,0,0,0-4.156,4.155v4.732h49.91v-4.732A4.154,4.154,0,0,0,13651.348,10951.417Z" transform="translate(-13605.594 -10951.417)" fill="#ff9800"/>
        <path id="Path_15287" data-name="Path 15287" d="M13614.863,10958.058a.761.761,0,1,1-.762-.761A.763.763,0,0,1,13614.863,10958.058Z" transform="translate(-13608.49 -10953.615)" fill="#d1e1f2"/>
        <path id="Path_15288" data-name="Path 15288" d="M13620.143,10958.058a.761.761,0,1,1-.762-.761A.761.761,0,0,1,13620.143,10958.058Z" transform="translate(-13610.463 -10953.615)" fill="#fff"/>
        <path id="Path_15289" data-name="Path 15289" d="M13620.143,10958.058a.761.761,0,1,1-.762-.761A.761.761,0,0,1,13620.143,10958.058Z" transform="translate(-13610.463 -10953.615)" fill="#d1e1f2"/>
        <path id="Path_15290" data-name="Path 15290" d="M13625.425,10958.058a.761.761,0,1,1-.763-.761A.762.762,0,0,1,13625.425,10958.058Z" transform="translate(-13612.437 -10953.615)" fill="#d1e1f2"/>
        <circle id="Ellipse_571" data-name="Ellipse 571" cx="5.953" cy="5.953" r="5.953" transform="translate(3.357 14.981) rotate(-3.685)" fill="#ff794e"/>
        <rect id="Rectangle_2882" data-name="Rectangle 2882" width="27.26" height="1.604" transform="translate(18.842 17.332)" fill="#dae7f5"/>
        <rect id="Rectangle_2883" data-name="Rectangle 2883" width="27.26" height="1.604" transform="translate(18.842 22.001)" fill="#dae7f5"/>
        <rect id="Rectangle_2884" data-name="Rectangle 2884" width="10.223" height="1.604" transform="translate(18.842 26.67)" fill="#dae7f5"/>
      </g>
    </g>
    <g id="Group_13852" data-name="Group 13852" transform="translate(31 143.246)">
      <path id="Path_44694" data-name="Path 44694" d="M4786.375,861.25h-30.921L4733.6,764.674h-26.084l39.5,96.575h-8.827l-44.833-96.575h137.86l-44.838,96.575" transform="translate(-3788.692 1549.655)" fill="#b3cdfa"/>
      <path id="Path_44695" data-name="Path 44695" d="M4834.544,762.42H4688.138a3.489,3.489,0,0,1-3.488-3.488h0v-11.6a3.488,3.488,0,0,1,3.488-3.488h146.406a3.488,3.488,0,0,1,3.488,3.488v11.6a3.488,3.488,0,0,1-3.488,3.488h0" transform="translate(-3787.75 1551.912)" fill="#32aaeb"/>
      <path id="Path_44696" data-name="Path 44696" d="M4784.746,908.009h-34.031a4.837,4.837,0,0,1-4.822-4.479l-2.261-30.545h48.195l-2.259,30.545a4.832,4.832,0,0,1-4.821,4.474" transform="translate(-3794.14 1537.922)" fill="#54afe6"/>
    </g>
  </g>
</svg>
