<svg id="step-icon-3" xmlns="http://www.w3.org/2000/svg" width="34.305" height="34.305" viewBox="0 0 34.305 34.305">
  <g id="Group_10938" data-name="Group 10938">
    <g id="Group_10937" data-name="Group 10937">
      <path id="Path_825" data-name="Path 825" d="M279,282.829a2.683,2.683,0,0,0,2.68,2.68h3.149a2.683,2.683,0,0,0,2.68-2.68V279.68a2.683,2.683,0,0,0-2.68-2.68H281.68a2.683,2.683,0,0,0-2.68,2.68Zm2.68-3.149h3.149l0,3.149H281.68Z" transform="translate(-260.307 -258.441)"/>
      <circle id="Ellipse_40" data-name="Ellipse 40" cx="1.5" cy="1.5" r="1.5" transform="translate(24 12.305)"/>
      <ellipse id="Ellipse_41" data-name="Ellipse 41" cx="1" cy="1.5" rx="1" ry="1.5" transform="translate(19 12.305)"/>
      <path id="Path_826" data-name="Path 826" d="M32.965,23.584a1.34,1.34,0,0,0,1.34-1.34V8.04a5.366,5.366,0,0,0-5.36-5.36H27.2V1.34a1.34,1.34,0,0,0-2.68,0V2.68h-6.1V1.34a1.34,1.34,0,1,0-2.68,0V2.68H9.715V1.34a1.34,1.34,0,1,0-2.68,0V2.68H5.36A5.366,5.366,0,0,0,0,8.04v20.9A5.366,5.366,0,0,0,5.36,34.3H28.945a5.366,5.366,0,0,0,5.36-5.36,1.34,1.34,0,0,0-2.68,0,2.683,2.683,0,0,1-2.68,2.68H5.36a2.683,2.683,0,0,1-2.68-2.68V8.04A2.683,2.683,0,0,1,5.36,5.36H7.035V6.7a1.34,1.34,0,0,0,2.68,0V5.36h6.03V6.7a1.34,1.34,0,0,0,2.68,0V5.36h6.1V6.7a1.34,1.34,0,0,0,2.68,0V5.36h1.742a2.683,2.683,0,0,1,2.68,2.68v14.2A1.34,1.34,0,0,0,32.965,23.584Z"/>
      <circle id="Ellipse_42" data-name="Ellipse 42" cx="1.5" cy="1.5" r="1.5" transform="translate(7 24.305)"/>
      <circle id="Ellipse_43" data-name="Ellipse 43" cx="1.5" cy="1.5" r="1.5" transform="translate(7 12.305)"/>
      <circle id="Ellipse_44" data-name="Ellipse 44" cx="1.5" cy="1.5" r="1.5" transform="translate(7 18.305)"/>
      <circle id="Ellipse_45" data-name="Ellipse 45" cx="1.5" cy="1.5" r="1.5" transform="translate(13 18.305)"/>
      <circle id="Ellipse_46" data-name="Ellipse 46" cx="1.5" cy="1.5" r="1.5" transform="translate(13 12.305)"/>
      <circle id="Ellipse_47" data-name="Ellipse 47" cx="1.5" cy="1.5" r="1.5" transform="translate(13 24.305)"/>
    </g>
  </g>
</svg>
