<svg xmlns="http://www.w3.org/2000/svg" width="24.952" height="24.895" viewBox="0 0 24.952 24.895">
  <path id="icon-search" d="M1455.98,209.444h-.261a1.486,1.486,0,0,1-.941-.464q-2.426-2.417-4.849-4.833a10.911,10.911,0,0,1-17.455-8.471v-.49a10.917,10.917,0,0,1,10.668-10.638h.505a10.879,10.879,0,0,1,8.47,17.418q2.371,2.369,4.744,4.734a1.614,1.614,0,0,1,.565,1.054v1.689Zm-13.615-21.716a7.846,7.846,0,1,0,1.018-.066A7.815,7.815,0,0,0,1442.365,187.727Z" transform="translate(-1432.473 -184.549)" fill="#666"/>
</svg>
