<svg xmlns="http://www.w3.org/2000/svg" width="32.205" height="21.641" viewBox="0 0 32.205 21.641">
  <path id="icon-crown" d="M1060.315,48.5a.9.9,0,0,1-.024.268l-1.986,7.935a.9.9,0,0,1-.871.683l-11.919.06h-11.924a.9.9,0,0,1-.876-.684l-1.986-7.965a.886.886,0,0,1-.024-.275,1.9,1.9,0,1,1,1.773-.344l2.487,2.5a3.379,3.379,0,0,0,5.088-.343l4.087-5.408a1.9,1.9,0,1,1,2.709-.032l0,0,4.058,5.423a3.389,3.389,0,0,0,2.7,1.352,3.352,3.352,0,0,0,2.384-.986l2.5-2.5a1.9,1.9,0,1,1,1.817.31Zm-2.2,11.771a.9.9,0,0,0-.9-.9h-23.356a.9.9,0,0,0-.9.9V62.44a.9.9,0,0,0,.9.9h23.356a.9.9,0,0,0,.9-.9Z" transform="translate(-1029.377 -41.701)" fill="#fff"/>
</svg>
