<?xml version="1.0" ?><svg id="Icons" style="enable-background:new 0 0 32 32;" version="1.1" viewBox="0 0 32 32" xml:space="preserve" xmlns="http://www.w3.org/2000/svg" xmlns:xlink="http://www.w3.org/1999/xlink"><path d="M26,6H6C4.3,6,3,7.3,3,9v14c0,1.7,1.3,3,3,3h20c1.7,0,3-1.3,3-3V9C29,7.3,27.7,6,26,6z M24.7,20.2c0.4,0.4,0.5,1,0.1,1.4  C24.6,21.9,24.3,22,24,22c-0.2,0-0.5-0.1-0.7-0.2l-5.1-4.4l-1.6,1.4C16.5,18.9,16.2,19,16,19s-0.5-0.1-0.7-0.2l-1.6-1.4l-5.1,4.4  C8.5,21.9,8.2,22,8,22c-0.3,0-0.6-0.1-0.8-0.3c-0.4-0.4-0.3-1,0.1-1.4l4.9-4.2l-4.9-4.2c-0.4-0.4-0.5-1-0.1-1.4  c0.4-0.4,1-0.5,1.4-0.1l7.3,6.4l7.3-6.4c0.4-0.4,1-0.3,1.4,0.1c0.4,0.4,0.3,1-0.1,1.4L19.8,16L24.7,20.2z"/></svg>