<?xml version="1.0" encoding="utf-8"?>
<!-- Generator: Adobe Illustrator 21.0.0, SVG Export Plug-In . SVG Version: 6.00 Build 0)  -->
<svg version="1.1" id="Layer_1" xmlns="http://www.w3.org/2000/svg" xmlns:xlink="http://www.w3.org/1999/xlink" x="0px" y="0px"
	 viewBox="0 0 256.7 48.3" style="enable-background:new 0 0 256.7 48.3;" xml:space="preserve">
<title>clickx-logo-white</title>
<g id="Layer_2">
	<g id="Layer_1-2">
		<path d="M139,48.3c7.9,0.1,15.4-3.8,19.9-10.3c0.9-1.1,0.8-2.8-0.3-3.8c-1.1-0.9-2.8-0.8-3.8,0.3c-0.1,0.1-0.2,0.3-0.3,0.4
			c-6,8.6-17.7,10.7-26.3,4.7c-5.1-3.5-8.1-9.3-8.1-15.5c0-10.4,8.5-18.9,19-18.8c5.7,0,11.1,2.6,14.6,7.1c0.9,1.1,2.6,1.2,3.7,0.3
			c0,0,0,0,0,0c1.1-1,1.2-2.6,0.2-3.7C149.3-1.4,134.1-3,123.8,5.4c-5.6,4.6-8.9,11.5-8.9,18.7C114.9,38.2,125.7,48.3,139,48.3z"/>
		<path d="M24.1,48.3C32,48.4,39.5,44.5,44,38c0.8-1.2,0.5-2.9-0.7-3.7c-1.2-0.8-2.9-0.5-3.7,0.7c0,0,0,0,0,0
			c-6,8.5-17.8,10.6-26.3,4.6c-5-3.5-8-9.3-8-15.4c0-10.4,8.5-18.9,19-18.8c5.7,0,11.1,2.6,14.6,7.1c0.9,1.1,2.6,1.2,3.7,0.3
			c0,0,0,0,0,0c1.1-1,1.2-2.6,0.2-3.7C34.4-1.4,19.2-3,8.9,5.4C3.3,10,0,16.9,0,24.1C0.1,38.2,10.8,48.3,24.1,48.3z"/>
		<path d="M100.3,47.2c1.5,0,2.8-1.2,2.8-2.8l0,0V3.3c0-1.5-1.2-2.8-2.8-2.8s-2.8,1.2-2.8,2.8v41.1C97.6,46,98.8,47.2,100.3,47.2z"
			/>
		<path d="M83.4,41.7H62.9c-0.9,0-1.3-0.1-1.3-1V3.4c0-1.5-1.2-2.8-2.8-2.8c0,0,0,0,0,0c-1.5,0-2.7,1.2-2.8,2.7c0,0,0,0.1,0,0.1
			v42.5c0,0.7,0.7,1.3,1.4,1.3h26c1.5,0,2.7-1.2,2.7-2.7C86.1,42.9,84.9,41.7,83.4,41.7C83.4,41.7,83.4,41.7,83.4,41.7L83.4,41.7z"
			/>
		<path d="M204.6,43.2l-16.3-22c-0.5-0.7-0.4-1.7,0.2-2.4L202.3,5c0.9-1,0.8-2.5-0.1-3.4c-0.4-0.4-1-0.6-1.6-0.6
			c-0.6,0-1.2,0.2-1.7,0.7l-15,15c-2.6,2.6-5.4,5.5-6.8,6.9c-0.3,0.3-0.7,0.1-0.7-0.4V3.3c0-1.5-1.2-2.8-2.8-2.8s-2.8,1.2-2.8,2.8
			v41.2c0,1.5,1.2,2.7,2.8,2.8c1.5,0,2.8-1.2,2.8-2.8V31.9c0-0.5,0.1-1,0.4-1.4l5.4-5.5c0.7-0.7,1.8-0.7,2.5-0.1
			c0.1,0.1,0.1,0.1,0.2,0.2l15.5,21c0.5,0.6,1.2,1,2,1c0.5,0,1.1-0.2,1.5-0.5c1.2-0.7,1.5-2.3,0.8-3.4
			C204.7,43.3,204.7,43.3,204.6,43.2z"/>
		<path d="M242.5,17.6c1.1,0.9,2.8,0.6,3.6-0.5c0,0,0,0,0.1-0.1L255,5c0.9-1.1,0.6-2.8-0.5-3.6c0,0,0,0-0.1-0.1
			c-1.1-0.9-2.8-0.6-3.6,0.5c0,0,0,0-0.1,0.1l-8.9,12C241,15.1,241.3,16.7,242.5,17.6z"/>
		<path d="M252,46.3c0.9,1.1,2.5,1.3,3.7,0.5c1.2-0.9,1.4-2.5,0.5-3.7l-10.1-13.7c-0.9-1.2-2.5-1.4-3.7-0.6
			c-1.2,0.9-1.4,2.5-0.6,3.7L252,46.3z"/>
		<path d="M240,21.6l-6.8-9.2L225.5,2c-0.9-1.2-2.5-1.4-3.7-0.6c-1.2,0.9-1.4,2.5-0.6,3.7l12.1,16.4l0.1,0.2c0.7,1,0.7,2.3,0,3.3
			L220,43.2c-0.9,1.2-0.6,2.8,0.6,3.7c1.2,0.9,2.8,0.6,3.7-0.6l0,0L240,24.8C240.7,23.9,240.7,22.6,240,21.6z"/>
	</g>
</g>
</svg>
