<?xml version="1.0" encoding="utf-8"?>
<!-- Generator: Adobe Illustrator 26.0.2, SVG Export Plug-In . SVG Version: 6.00 Build 0)  -->
<svg version="1.1" id="Layer_1" xmlns="http://www.w3.org/2000/svg" xmlns:xlink="http://www.w3.org/1999/xlink" x="0px" y="0px"
	 viewBox="0 0 225 225" style="enable-background:new 0 0 225 225;" xml:space="preserve">
<g id="_x23_ffffffff">
</g>
<g id="_x23_2b2a3dff">
	<path d="M0,22.8c0.5-0.1,1.5-0.2,2-0.2c44.4,0,88.7,0,133.1,0c-0.1,7.5,0.1,15-0.1,22.4c-37.5,0.1-75,0-112.5,0
		c0,45-0.1,90,0.1,135c45-0.2,90-0.1,135-0.1c0-11.2,0-22.5,0-33.7c7.5,0,14.9,0.1,22.4-0.1c0.3,18.7,0.1,37.4,0.1,56.2
		c-60,0.1-120,0-180.1,0V22.8z"/>
	<path d="M209.2,33.8c5.4,5,10.4,10.5,15.8,15.6v0.3c-33.2,32.8-65.9,66-99.1,98.8c-18.2-18.8-36.8-37.4-55-56.2
		c5.1-5.2,10.5-10.3,15.5-15.7c13.5,13.2,26.4,27,39.6,40.5C153.7,89.3,181.5,61.6,209.2,33.8z"/>
</g>
</svg>
