<svg xmlns="http://www.w3.org/2000/svg" width="59.583" height="59.583" viewBox="0 0 59.583 59.583">
  <g id="icon-google" transform="translate(-112.95 -112.95)">
    <g id="_f14336ff" data-name="#f14336ff">
      <path id="Path_325" data-name="Path 325" d="M142.532,112.95h.633a29.751,29.751,0,0,1,18.594,6.862Q157,123.7,152.238,127.6c-.133.185-.307-.022-.443-.077a17.709,17.709,0,0,0-25.806,9.46c-3.237-2.644-6.461-5.305-9.709-7.937a29.8,29.8,0,0,1,26.253-16.1Z" fill="#f14336"/>
    </g>
    <g id="_fbbb00ff" data-name="#fbbb00ff">
      <path id="Path_326" data-name="Path 326" d="M112.95,142.415a29.716,29.716,0,0,1,3.329-13.366c3.248,2.631,6.472,5.293,9.709,7.937a17.79,17.79,0,0,0,.17,11.974q-4.83,3.947-9.655,7.9a29.755,29.755,0,0,1-3.554-13.8Z" fill="#fbbb00"/>
    </g>
    <g id="_518ef8ff" data-name="#518ef8ff">
      <path id="Path_327" data-name="Path 327" d="M143.4,137.179q14.307,0,28.615,0a31.943,31.943,0,0,1,.52,5.354v.654a29.821,29.821,0,0,1-11.138,22.781c-3.242-2.641-6.47-5.3-9.71-7.941a17.811,17.811,0,0,0,7.641-9.063q-7.965-.007-15.929,0Q143.4,143.07,143.4,137.179Z" fill="#518ef8"/>
    </g>
    <g id="_28b446ff" data-name="#28b446ff">
      <path id="Path_328" data-name="Path 328" d="M116.5,156.862q4.823-3.957,9.655-7.9a17.716,17.716,0,0,0,25.526,9.069c3.24,2.643,6.469,5.3,9.71,7.941a29.783,29.783,0,0,1-18.224,6.564h-.633A29.795,29.795,0,0,1,116.5,156.862Z" fill="#28b446"/>
    </g>
  </g>
</svg>
