<svg xmlns="http://www.w3.org/2000/svg" width="408.128" height="71.771" viewBox="0 0 408.128 71.771">
  <g id="logo" transform="translate(-4.432 -2.012)">
    <g id="Group_253" data-name="Group 253">
      <path id="Path_329" data-name="Path 329" d="M209.711,73.782a35.145,35.145,0,0,0,29.448-15.3,4.032,4.032,0,0,0-1-5.532,3.985,3.985,0,0,0-5.5,1.006A27.914,27.914,0,1,1,209.639,9.986a27.552,27.552,0,0,1,21.872,10.489,3.851,3.851,0,0,0,5.5.359,3.963,3.963,0,0,0,.357-5.532,35.581,35.581,0,0,0-63.256,22.63C174.187,58.7,190.055,73.782,209.711,73.782Z" fill="#4c4e60"/>
      <path id="Path_330" data-name="Path 330" d="M40.027,73.782a35.145,35.145,0,0,0,29.448-15.3,4.032,4.032,0,0,0-1-5.532,3.921,3.921,0,0,0-5.5,1.006A27.914,27.914,0,1,1,39.955,9.986,27.552,27.552,0,0,1,61.827,20.475a3.851,3.851,0,0,0,5.5.359,3.963,3.963,0,0,0,.357-5.532A35.228,35.228,0,0,0,39.955,2.012,35.591,35.591,0,0,0,4.432,37.861C4.5,58.7,20.371,73.782,40.027,73.782Z" fill="#4c4e60"/>
      <path id="Path_331" data-name="Path 331" d="M152.6,72.058a4.082,4.082,0,0,0,4.074-4.1V6.9a4.074,4.074,0,1,0-8.148,0V67.963A4.13,4.13,0,0,0,152.6,72.058Z" fill="#4c4e60"/>
      <path id="Path_332" data-name="Path 332" d="M127.656,63.868H97.279c-1.287,0-2-.144-2-1.437V6.969a4.083,4.083,0,0,0-4.074-4.1,4.038,4.038,0,0,0-4.074,4.1V70.046a2.053,2.053,0,0,0,2.073,1.94h38.454a4.059,4.059,0,1,0,0-8.118Z" fill="#4c4e60"/>
      <path id="Path_333" data-name="Path 333" d="M306.7,66.167,282.616,33.479a2.829,2.829,0,0,1,.286-3.52L303.273,9.483a3.539,3.539,0,0,0-2.5-6.035,3.691,3.691,0,0,0-2.5,1.006L276.112,26.725c-3.86,3.879-7.934,8.19-10.007,10.2-.429.431-1,.144-1-.5V6.9a4.128,4.128,0,0,0-4.074-4.1,4.082,4.082,0,0,0-4.074,4.1V67.963a4.129,4.129,0,0,0,4.074,4.1,4.083,4.083,0,0,0,4.074-4.1V49.284a2.9,2.9,0,0,1,.572-2.012l7.934-8.118a2.648,2.648,0,0,1,4,.216l22.944,31.18a3.652,3.652,0,0,0,3,1.509,3.787,3.787,0,0,0,3.145-5.891Z" fill="#4c4e60"/>
    </g>
    <g id="Group_256" data-name="Group 256">
      <g id="Group_254" data-name="Group 254">
        <path id="Path_334" data-name="Path 334" d="M362.526,28.162a3.818,3.818,0,0,0,5.432-.862l13.08-17.817a3.863,3.863,0,0,0-.858-5.46,3.818,3.818,0,0,0-5.432.862L361.668,22.7A4,4,0,0,0,362.526,28.162Z" fill="#4c4e60"/>
        <path id="Path_335" data-name="Path 335" d="M376.607,70.693a4.031,4.031,0,0,0,5.432.79,3.913,3.913,0,0,0,.786-5.46l-14.938-20.4a3.88,3.88,0,0,0-5.432-.862,3.926,3.926,0,0,0-.858,5.46Z" fill="#4c4e60"/>
        <path id="Path_336" data-name="Path 336" d="M358.881,34.125,348.8,20.4,337.438,4.813a3.88,3.88,0,0,0-5.432-.862,3.926,3.926,0,0,0-.858,5.46l17.869,24.355.214.287a4.227,4.227,0,0,1,0,4.885l-19.87,27.085a3.863,3.863,0,0,0,.858,5.46,3.818,3.818,0,0,0,5.432-.862l23.373-31.9A3.9,3.9,0,0,0,358.881,34.125Z" fill="#f8b018"/>
      </g>
      <g id="Group_255" data-name="Group 255">
        <path id="Path_337" data-name="Path 337" d="M397.621,15.087h-1.215V5.747h-3.288V4.6h7.719V5.676h-3.288l.071,9.411Z" fill="#4c4e60"/>
        <path id="Path_338" data-name="Path 338" d="M406.984,15.087l-3.5-9.268h-.071c.071.718.071,1.581.071,2.586v6.609h-1.144V4.526h1.787l3.288,8.621h.071l3.288-8.621h1.787V14.943h-1.215V8.262c0-.79,0-1.581.071-2.514h.143l-3.574,9.2-1,.144Z" fill="#4c4e60"/>
      </g>
    </g>
  </g>
</svg>
