<svg xmlns="http://www.w3.org/2000/svg" viewBox="0 0 660.48 716.1"><defs><style>.cls-1{fill:#4c4e60;}.cls-2{fill:#f6b01a;}</style></defs><g id="Layer_2" data-name="Layer 2"><g id="Layer_1-2" data-name="Layer 1"><path class="cls-1" d="M301.85,716.1a355.7,355.7,0,0,1-192.49-56.45l5.67-8.83a345.12,345.12,0,0,0,186.82,54.8h.57C494.08,705.62,650,549.7,650,358.05S494.08,10.48,302.43,10.48h-.2c-119.49,0-229,60.2-293.14,161.05L.25,165.9C66.26,62,179.14,0,302.22,0h.21C499.86,0,660.48,160.62,660.48,358.05S499.86,716.1,302.43,716.1Z"/><path class="cls-1" d="M302.43,660.48C135.67,660.48,0,524.81,0,358.06S135.67,55.63,302.43,55.63a306.55,306.55,0,0,1,30.91,1.56l-1.06,10.43a297.43,297.43,0,0,0-29.85-1.51c-161,0-291.95,131-291.95,292S141.45,650,302.43,650,594.37,519,594.37,358.06A295.32,295.32,0,0,0,590.76,312l10.35-1.64a305.27,305.27,0,0,1,3.74,47.72C604.85,524.81,469.18,660.48,302.43,660.48Z"/><g id="Group_77" data-name="Group 77"><rect class="cls-1" x="88.17" y="374.16" width="200.86" height="10.49" transform="translate(-229.2 309) rotate(-54)"/><rect class="cls-1" x="158.22" y="463.46" width="208.62" height="10.48" transform="translate(-272.16 416.62) rotate(-55.18)"/><rect class="cls-1" x="229.91" y="479.22" width="143.82" height="10.48" transform="translate(-267.71 446.58) rotate(-54.27)"/><rect class="cls-1" x="162.34" y="311.54" width="50.45" height="10.48" transform="translate(-178.79 280.49) rotate(-53.71)"/><polygon class="cls-1" points="348.13 488.91 339.52 482.92 361.28 451.67 369.88 457.66 348.13 488.91"/><rect class="cls-1" x="225.56" y="212.58" width="75.73" height="10.48" transform="translate(-68.06 301.24) rotate(-53.71)"/><rect class="cls-1" x="388.09" y="386.77" width="50.45" height="10.48" transform="translate(-147.28 493.15) rotate(-53.71)"/><rect class="cls-1" x="331.18" y="350.52" width="138.51" height="10.48" transform="translate(-121.08 477.98) rotate(-54.81)"/><rect class="cls-1" x="329.75" y="248.91" width="186.75" height="10.48" transform="translate(-32.16 444.79) rotate(-53.71)"/><rect class="cls-1" x="221.23" y="195.51" width="202.27" height="10.48" transform="translate(-30.24 341.78) rotate(-53.71)"/><circle id="Ellipse_226" data-name="Ellipse 226" class="cls-2" cx="174.49" cy="403.8" r="17.23"/><circle id="Ellipse_234" data-name="Ellipse 234" class="cls-2" cx="205.77" cy="292.07" r="8.61"/><circle id="Ellipse_239" data-name="Ellipse 239" class="cls-2" cx="341.62" cy="485.92" r="8.61"/><circle id="Ellipse_238" data-name="Ellipse 238" class="cls-2" cx="284.89" cy="187.3" r="8.61"/><circle id="Ellipse_235" data-name="Ellipse 235" class="cls-2" cx="399.82" cy="410.91" r="8.61"/><circle id="Ellipse_236" data-name="Ellipse 236" class="cls-2" cx="428.25" cy="369.54" r="7.16"/><circle id="Ellipse_227" data-name="Ellipse 227" class="cls-2" cx="313.48" cy="216.19" r="17.23"/><circle id="Ellipse_229" data-name="Ellipse 229" class="cls-2" cx="360.5" cy="341.07" r="17.23"/><circle id="Ellipse_230" data-name="Ellipse 230" class="cls-2" cx="202.95" cy="559.26" r="17.23"/><circle id="Ellipse_228" data-name="Ellipse 228" class="cls-2" cx="378.07" cy="124.32" r="17.23"/><circle id="Ellipse_231" data-name="Ellipse 231" class="cls-2" cx="475.16" cy="179.11" r="12.2"/><circle id="Ellipse_232" data-name="Ellipse 232" class="cls-2" cx="440.35" cy="299.17" r="12.2"/><circle id="Ellipse_233" data-name="Ellipse 233" class="cls-2" cx="259.83" cy="542.83" r="12.2"/><path id="Path_125" data-name="Path 125" class="cls-1" d="M321.41,300.93c7.44,6.09,18.94,4.06,24.35-3.38l.67-.68L406,215.71c6.09-7.44,4.06-18.94-3.38-24.35l-.67-.67c-7.45-6.09-18.94-4.06-24.35,3.38l-.68.68-60.2,81.16A18.38,18.38,0,0,0,321.41,300.93Z"/><path id="Path_126" data-name="Path 126" class="cls-1" d="M385.66,495a18.78,18.78,0,0,0,25,3.38A17.51,17.51,0,0,0,414.5,474h0l-.42-.55-68.31-92.66a17.93,17.93,0,1,0-29.08,21h0Z"/><path id="Path_127" data-name="Path 127" class="cls-2" d="M304.5,328l-46-62.22-52.07-70.34a17.93,17.93,0,0,0-29.08,21h0l81.83,110.92.68,1.35a19.29,19.29,0,0,1,0,22.32l-90.63,123.1c-6.08,8.11-4.06,18.93,4.06,25s18.94,4.06,25-4.06h0L304.51,349.63A18.27,18.27,0,0,0,304.5,328Z"/><circle id="Ellipse_237" data-name="Ellipse 237" class="cls-2" cx="172.64" cy="337.12" r="7.16"/></g></g></g></svg>